0
SECTION
2
HEADER
9
$INSUNITS
70
4
9
$ACADVER
1
AC1014
9
$HANDSEED
5
FFFF
0
ENDSEC
0
SECTION
2
TABLES
0
TABLE
2
VPORT
5
8
100
AcDbSymbolTable
0
ENDTAB
0
TABLE
2
LTYPE
5
5
100
AcDbSymbolTable
0
LTYPE
5
14
100
AcDbSymbolTableRecord
100
AcDbLinetypeTableRecord
2
BYBLOCK
70
0
0
LTYPE
5
15
100
AcDbSymbolTableRecord
100
AcDbLinetypeTableRecord
2
BYLAYER
70
0
0
LTYPE
5
16
100
AcDbSymbolTableRecord
100
AcDbLinetypeTableRecord
2
DASHED
70
0
3
Dashed __ __ __ __ __ __ __ __ __ __ __ __ __ _
72
65
73
2
40
0.75
49
0.5
74
0
49
-0.25
74
0
0
ENDTAB
0
TABLE
2
LAYER
5
2
100
AcDbSymbolTable
70
2
0
LAYER
5
50
100
AcDbSymbolTableRecord
100
AcDbLayerTableRecord
2
0
70
0
62
7
6
CONTINUOUS
0
ENDTAB
0
TABLE
2
STYLE
5
3
100
AcDbSymbolTable
70
1
0
STYLE
5
11
100
AcDbSymbolTableRecord
100
AcDbTextStyleTableRecord
2
STANDARD
70
0
0
ENDTAB
0
TABLE
2
VIEW
5
6
100
AcDbSymbolTable
70
0
0
ENDTAB
0
TABLE
2
UCS
5
7
100
AcDbSymbolTable
70
0
0
ENDTAB
0
TABLE
2
APPID
5
9
100
AcDbSymbolTable
70
2
0
APPID
5
12
100
AcDbSymbolTableRecord
100
AcDbRegAppTableRecord
2
ACAD
70
0
0
ENDTAB
0
TABLE
2
DIMSTYLE
5
A
100
AcDbSymbolTable
70
1
0
ENDTAB
0
TABLE
2
BLOCK_RECORD
5
1
100
AcDbSymbolTable
70
1
0
BLOCK_RECORD
5
1F
100
AcDbSymbolTableRecord
100
AcDbBlockTableRecord
2
*MODEL_SPACE
0
BLOCK_RECORD
5
1B
100
AcDbSymbolTableRecord
100
AcDbBlockTableRecord
2
*PAPER_SPACE
0
ENDTAB
0
ENDSEC
0
SECTION
2
BLOCKS
0
BLOCK
5
20
100
AcDbEntity
100
AcDbBlockBegin
2
*MODEL_SPACE
0
ENDBLK
5
21
100
AcDbEntity
100
AcDbBlockEnd
0
BLOCK
5
1C
100
AcDbEntity
100
AcDbBlockBegin
2
*PAPER_SPACE
0
ENDBLK
5
1D
100
AcDbEntity
100
AcDbBlockEnd
0
ENDSEC
0
SECTION
2
ENTITIES
0
LINE
5
100
100
AcDbEntity
8
0
100
AcDbLine
10
14.520000000000007
20
-4.5820000000000034
30
0
11
14.520000000000001
21
-80.132000000000048
31
0
0
ARC
5
101
100
AcDbEntity
8
0
100
AcDbCircle
10
14.020000347728008
20
-4.5819996522720015
30
0
40
0.50215667925699936
210
0
220
-0
230
1
100
AcDbArc
50
7.5000061029891558
51
82.499993897010583
0
LINE
5
102
100
AcDbEntity
8
0
100
AcDbLine
10
10.470000000000006
20
-4.0820000000000025
30
0
11
14.020000000000007
21
-4.0820000000000025
31
0
0
LINE
5
103
100
AcDbEntity
8
0
100
AcDbLine
10
11
20
-3.9000000000030006
30
0
11
11
21
-1.7500000000000002
31
0
0
LINE
5
104
100
AcDbEntity
8
0
100
AcDbLine
10
11
20
-1.7500000000000002
30
0
11
11
21
0.79999999999999982
31
0
0
LINE
5
105
100
AcDbEntity
8
0
100
AcDbLine
10
11
20
3.75
30
0
11
11
21
0.80000000000000016
31
0
0
ARC
5
106
100
AcDbEntity
8
0
100
AcDbCircle
10
10.800000000000001
20
3.75
30
0
40
0.20000000000000018
210
0
220
-0
230
1
100
AcDbArc
50
0
51
90
0
LINE
5
107
100
AcDbEntity
8
0
100
AcDbLine
10
9.9085786437630006
20
3.9500000000000002
30
0
11
10.800000000000001
21
3.9500000000000002
31
0
0
LINE
5
108
100
AcDbEntity
8
0
100
AcDbLine
10
9.7541960108450194
20
3.9500000000000002
30
0
11
10.050000000000001
21
3.9500000000000002
31
0
0
LINE
5
109
100
AcDbEntity
8
0
100
AcDbLine
10
-10.800000000000001
20
3.9500000000000002
30
0
11
-9.9085786437630006
21
3.9500000000000002
31
0
0
LINE
5
110
100
AcDbEntity
8
0
100
AcDbLine
10
-10.050000000000001
20
3.9500000000000002
30
0
11
-9.7541960108450194
21
3.9500000000000002
31
0
0
ARC
5
111
100
AcDbEntity
8
0
100
AcDbCircle
10
-10.800000000000001
20
3.75
30
0
40
0.20000000000000018
210
0
220
-0
230
1
100
AcDbArc
50
90
51
180
0
LINE
5
112
100
AcDbEntity
8
0
100
AcDbLine
10
-11
20
3.75
30
0
11
-11
21
0.80000000000000016
31
0
0
LINE
5
113
100
AcDbEntity
8
0
100
AcDbLine
10
-9.7541960108449999
20
1.5500000000000003
30
0
11
-9.7541960108450194
21
3.9500000000000002
31
0
0
LINE
5
114
100
AcDbEntity
8
0
100
AcDbLine
10
9.75
20
3.2000000000000006
30
0
11
-9.75
21
3.2000000000000006
31
0
0
LINE
5
115
100
AcDbEntity
8
0
100
AcDbLine
10
9.7541960108450194
20
3.9500000000000002
30
0
11
9.7541960108449999
21
1.5500000000000003
31
0
0
CIRCLE
5
116
100
AcDbEntity
8
0
100
AcDbCircle
10
-10
20
-1.7500000000000002
30
0
40
0.44999999804780005
210
0
220
0
230
1
0
CIRCLE
5
117
100
AcDbEntity
8
0
100
AcDbCircle
10
10
20
-1.7500000000000002
30
0
40
0.69999999837000004
210
0
220
0
230
1
0
LINE
5
118
100
AcDbEntity
8
0
100
AcDbLine
10
-11
20
0.80000000000000016
30
0
11
-11
21
-1.75
31
0
0
LINE
5
119
100
AcDbEntity
8
0
100
AcDbLine
10
-11
20
-1.7500000000000002
30
0
11
-11
21
-3.8999999999989998
31
0
0
LINE
5
120
100
AcDbEntity
8
0
100
AcDbLine
10
-14.029999999999998
20
-4.0820000000000007
30
0
11
-10.479999999999999
21
-4.0820000000000007
31
0
0
ARC
5
121
100
AcDbEntity
8
0
100
AcDbCircle
10
-14.030000347727995
20
-4.581999652272005
30
0
40
0.50215667925700447
210
0
220
0
230
1
100
AcDbArc
50
97.500006102989772
51
172.49999389701034
0
LINE
5
122
100
AcDbEntity
8
0
100
AcDbLine
10
-14.530000000000001
20
-80.132000000000048
30
0
11
-14.529999999999996
21
-4.5820000000000061
31
0
0
LWPOLYLINE
5
123
100
AcDbEntity
8
0
100
AcDbPolyline
90
45
70
1
43
0.0
10
14.085545000000037
20
-80.629861000000304
42
0.33945419946781236
10
14.517861000000256
20
-80.197545000000076
10
14.520000000000001
20
-80.132000000000048
10
14.520000000000008
20
-4.5820000000000034
10
14.517861000000263
20
-4.5164549999999695
42
0.33945419946779981
10
14.085545000000009
20
-4.0841390000000031
10
14.020000000000007
20
-4.0820000000000025
10
10.470000000000006
20
-4.0820000000000025
10
10.404455000000006
20
-4.0798610000000037
42
-0.33945419946779937
10
9.9721390000000056
20
-3.6475450000000027
10
9.970000000000006
20
-3.582000000000003
10
9.970000000000006
20
-0.33200000000000085
10
9.9675980000003275
20
-0.28274999999993677
42
0.30335149116825705
10
9.7692500000000067
20
-0.084402000000000643
10
9.720000000000006
20
-0.082000000000000683
10
6.7200000000000051
20
-0.082000000000000406
10
6.7200000000000051
20
-2.9820000000000024
10
6.7174330000000051
20
-3.0606540000000013
42
-0.33945598788359355
10
6.1986540000000048
20
-3.5794330000000025
10
6.1200000000000045
20
-3.5820000000000025
10
6.0413460000000043
20
-3.5794330000000016
42
-0.33945598788359305
10
5.5225670000000049
20
-3.0606540000000013
10
5.5200000000000049
20
-2.982000000000002
10
5.5200000000000067
20
-0.082000000000000461
10
-9.7299999999999969
20
-0.081999999999999601
10
-9.7792500000000597
20
-0.084401999999677402
42
0.30335149116826904
10
-9.9775979999999969
20
-0.28274999999999956
10
-9.9799999999999951
20
-0.33199999999999952
10
-9.9799999999999951
20
-3.5820000000000016
10
-9.9821390000000001
20
-3.6475450000000009
42
-0.33945419946779803
10
-10.414454999999998
20
-4.0798610000000011
10
-10.479999999999999
20
-4.0820000000000007
10
-14.029999999999998
20
-4.0820000000000007
10
-14.095545000000033
20
-4.0841389999997455
42
0.33945419946779543
10
-14.527860999999998
20
-4.5164550000000014
10
-14.529999999999996
20
-4.5820000000000061
10
-14.530000000000001
20
-80.132000000000048
10
-14.527861000000259
20
-80.197545000000076
42
0.33945419946781508
10
-14.095545000000003
20
-80.629861000000048
10
-14.030000000000005
20
-80.632000000000062
10
-2.7971210000000002
20
-80.632000000000062
10
-2.7971210000000015
20
-80.497806000000068
42
-0.94541678052039191
10
2.6942270000000001
20
-80.497806000000054
10
2.6942270000000001
20
-80.632000000000062
10
14.020000000000003
20
-80.632000000000062
0
LWPOLYLINE
5
124
100
AcDbEntity
8
0
100
AcDbPolyline
90
8
70
1
43
0.0
10
9.9457880000001122
20
-43.89778800000002
42
0.41421428571580449
10
10.085788000000004
20
-44.037787999999907
10
10.365788000000006
20
-44.03778800000002
42
0.41421428571578589
10
10.505787999999896
20
-43.897788000000027
10
10.505788000000003
20
-43.557788000000016
42
0.41421428571580449
10
10.365788000000006
20
-43.41778800000013
10
10.085788000000004
20
-43.417788000000016
42
0.41421428571580449
10
9.945788000000114
20
-43.557788000000016
0
LWPOLYLINE
5
125
100
AcDbEntity
8
0
100
AcDbPolyline
90
8
70
1
43
0.0
10
8.9857880000001114
20
-43.89778800000002
42
0.41421428571580449
10
9.1257880000000036
20
-44.037787999999907
10
9.4057880000000047
20
-44.03778800000002
42
0.41421428571580687
10
9.5457879999998969
20
-43.89778800000002
10
9.5457880000000035
20
-43.557788000000016
42
0.41421428571580687
10
9.4057880000000047
20
-43.41778800000013
10
9.1257880000000036
20
-43.417788000000016
42
0.41421428571580449
10
8.9857880000001114
20
-43.557788000000016
0
LWPOLYLINE
5
126
100
AcDbEntity
8
0
100
AcDbPolyline
90
8
70
1
43
0.0
10
9.9457880000001122
20
-44.872788000000021
42
0.41421428571580449
10
10.085788000000004
20
-45.012787999999908
10
10.365788000000006
20
-45.012788000000022
42
0.41421428571580449
10
10.505787999999896
20
-44.872788000000021
10
10.505788000000003
20
-44.532788000000011
42
0.41421428571580915
10
10.365788000000002
20
-44.392788000000124
10
10.085788000000004
20
-44.392788000000024
42
0.41421428571580449
10
9.945788000000114
20
-44.532788000000011
0
LWPOLYLINE
5
127
100
AcDbEntity
8
0
100
AcDbPolyline
90
8
70
1
43
0.0
10
8.9857880000001114
20
-44.872788000000021
42
0.41421428571580449
10
9.1257880000000036
20
-45.012787999999908
10
9.4057880000000047
20
-45.012788000000022
42
0.41421428571580687
10
9.5457879999998969
20
-44.872788000000021
10
9.5457880000000035
20
-44.532788000000011
42
0.41421428571580687
10
9.4057880000000047
20
-44.392788000000124
10
9.1257880000000036
20
-44.392788000000024
42
0.41421428571580449
10
8.9857880000001114
20
-44.532788000000011
0
LWPOLYLINE
5
128
100
AcDbEntity
8
0
100
AcDbPolyline
90
8
70
1
43
0.0
10
9.9407880000001096
20
-45.847788000000023
42
0.41421428571580915
10
10.080788000000005
20
-45.98778799999991
10
10.360788000000003
20
-45.987788000000016
42
0.41421428571580915
10
10.500787999999897
20
-45.847788000000023
10
10.500788000000004
20
-45.507788000000019
42
0.41421428571580915
10
10.360788000000003
20
-45.367788000000132
10
10.080788000000002
20
-45.367788000000019
42
0.41421428571580449
10
9.9407880000001114
20
-45.507788000000019
0
LWPOLYLINE
5
129
100
AcDbEntity
8
0
100
AcDbPolyline
90
8
70
1
43
0.0
10
8.9807880000001088
20
-45.847788000000023
42
0.41421428571580915
10
9.1207880000000046
20
-45.98778799999991
10
9.4007880000000039
20
-45.987788000000016
42
0.41421428571580687
10
9.5407879999998979
20
-45.847788000000023
10
9.5407880000000045
20
-45.507788000000019
42
0.41421428571580687
10
9.4007880000000039
20
-45.367788000000132
10
9.1207880000000046
20
-45.367788000000019
42
0.41421428571580915
10
8.9807880000001088
20
-45.507788000000019
0
LWPOLYLINE
5
130
100
AcDbEntity
8
0
100
AcDbPolyline
90
8
70
1
43
0.0
10
9.9457880000001104
20
-46.822788000000017
42
0.41421428571582314
10
10.085788000000003
20
-46.962787999999911
10
10.365788000000006
20
-46.962788000000018
42
0.41421428571580449
10
10.505787999999896
20
-46.822788000000024
10
10.505788000000003
20
-46.482788000000014
42
0.41421428571582775
10
10.365788000000002
20
-46.34278800000012
10
10.085788000000004
20
-46.342788000000027
42
0.41421428571582775
10
9.9457880000001104
20
-46.482788000000014
0
LWPOLYLINE
5
131
100
AcDbEntity
8
0
100
AcDbPolyline
90
8
70
1
43
0.0
10
8.9857880000001114
20
-46.822788000000017
42
0.41421428571582314
10
9.1257880000000036
20
-46.962787999999911
10
9.4057880000000047
20
-46.962788000000018
42
0.41421428571582541
10
9.5457879999998969
20
-46.822788000000017
10
9.5457880000000035
20
-46.482788000000014
42
0.41421428571582541
10
9.4057880000000047
20
-46.34278800000012
10
9.1257880000000036
20
-46.342788000000027
42
0.41421428571582314
10
8.9857880000001114
20
-46.482788000000014
0
LWPOLYLINE
5
132
100
AcDbEntity
8
0
100
AcDbPolyline
90
8
70
1
43
0.0
10
-2.5192119999998912
20
-47.41278800000002
42
0.41421428571581842
10
-2.3792120000000017
20
-47.552787999999914
10
-2.0392120000000014
20
-47.552788000000021
42
0.41421428571582775
10
-1.8992120000001074
20
-47.41278800000002
10
-1.8992120000000012
20
-47.132788000000019
42
0.41421428571582775
10
-2.0392120000000014
20
-46.992788000000125
10
-2.3792120000000017
20
-46.992788000000019
42
0.41421428571581842
10
-2.5192119999998912
20
-47.132788000000019
0
LWPOLYLINE
5
133
100
AcDbEntity
8
0
100
AcDbPolyline
90
8
70
1
43
0.0
10
1.6057880000001092
20
-47.487788000000023
42
0.41421428571582314
10
1.7457880000000014
20
-47.627787999999917
10
2.0857880000000018
20
-47.62778800000001
42
0.41421428571582775
10
2.2257879999998957
20
-47.487788000000023
10
2.2257880000000019
20
-47.207788000000022
42
0.41421428571582775
10
2.0857880000000018
20
-47.067788000000128
10
1.7457880000000014
20
-47.067788000000021
42
0.41421428571582314
10
1.6057880000001097
20
-47.207788000000022
0
LWPOLYLINE
5
134
100
AcDbEntity
8
0
100
AcDbPolyline
90
8
70
1
43
0.0
10
0.28078800000010878
20
-47.487788000000023
42
0.41421428571582775
10
0.42078800000000305
20
-47.627787999999917
10
0.76078800000000113
20
-47.62778800000001
42
0.41421428571582775
10
0.90078799999989534
20
-47.487788000000023
10
0.90078800000000347
20
-47.207788000000022
42
0.41421428571582775
10
0.76078800000000113
20
-47.067788000000128
10
0.42078800000000299
20
-47.067788000000021
42
0.41421428571582758
10
0.28078800000010873
20
-47.207788000000022
0
LWPOLYLINE
5
135
100
AcDbEntity
8
0
100
AcDbPolyline
90
8
70
1
43
0.0
10
3.6807880000001099
20
-47.66278800000002
42
0.41421428571580915
10
3.8207880000000038
20
-47.802787999999907
10
4.1607880000000019
20
-47.802788000000021
42
0.41421428571580915
10
4.3007879999998959
20
-47.66278800000002
10
4.3007880000000043
20
-47.382788000000019
42
0.41421428571580915
10
4.1607880000000019
20
-47.242788000000132
10
3.8207880000000038
20
-47.242788000000019
42
0.41421428571580915
10
3.6807880000001099
20
-47.382788000000019
0
LWPOLYLINE
5
136
100
AcDbEntity
8
0
100
AcDbPolyline
90
8
70
1
43
0.0
10
9.9457880000001104
20
-47.822788000000017
42
0.41421428571582314
10
10.085788000000003
20
-47.962787999999918
10
10.365788000000006
20
-47.962788000000025
42
0.41421428571580449
10
10.505787999999896
20
-47.822788000000031
10
10.505788000000003
20
-47.482788000000021
42
0.41421428571582775
10
10.365788000000002
20
-47.342788000000127
10
10.085788000000004
20
-47.34278800000002
42
0.41421428571582775
10
9.9457880000001104
20
-47.482788000000021
0
LWPOLYLINE
5
137
100
AcDbEntity
8
0
100
AcDbPolyline
90
8
70
1
43
0.0
10
8.9857880000001114
20
-47.822788000000017
42
0.41421428571582314
10
9.1257880000000036
20
-47.962787999999918
10
9.4057880000000047
20
-47.962788000000025
42
0.41421428571582541
10
9.5457879999998969
20
-47.822788000000017
10
9.5457880000000035
20
-47.482788000000021
42
0.41421428571582541
10
9.4057880000000047
20
-47.342788000000127
10
9.1257880000000036
20
-47.34278800000002
42
0.41421428571582314
10
8.9857880000001114
20
-47.482788000000021
0
LWPOLYLINE
5
138
100
AcDbEntity
8
0
100
AcDbPolyline
90
8
70
1
43
0.0
10
-2.5192119999998912
20
-48.372788000000028
42
0.41421428571579982
10
-2.3792120000000017
20
-48.512787999999915
10
-2.0392120000000014
20
-48.512788000000022
42
0.41421428571580915
10
-1.8992120000001074
20
-48.372788000000028
10
-1.8992120000000012
20
-48.09278800000002
42
0.41421428571580915
10
-2.0392120000000014
20
-47.952788000000133
10
-2.3792120000000017
20
-47.95278800000002
42
0.41421428571579982
10
-2.5192119999998912
20
-48.09278800000002
0
LWPOLYLINE
5
139
100
AcDbEntity
8
0
100
AcDbPolyline
90
8
70
1
43
0.0
10
1.6057880000001092
20
-48.447788000000017
42
0.41421428571582314
10
1.7457880000000014
20
-48.587787999999918
10
2.0857880000000018
20
-48.587788000000025
42
0.41421428571582775
10
2.2257879999998957
20
-48.447788000000017
10
2.2257880000000019
20
-48.167788000000016
42
0.41421428571580915
10
2.0857880000000018
20
-48.027788000000129
10
1.7457880000000014
20
-48.027788000000022
42
0.41421428571580449
10
1.6057880000001097
20
-48.167788000000016
0
LWPOLYLINE
5
140
100
AcDbEntity
8
0
100
AcDbPolyline
90
8
70
1
43
0.0
10
0.28078800000010878
20
-48.447788000000017
42
0.41421428571582775
10
0.42078800000000305
20
-48.587787999999918
10
0.76078800000000113
20
-48.587788000000025
42
0.41421428571582775
10
0.90078799999989534
20
-48.447788000000017
10
0.90078800000000347
20
-48.167788000000016
42
0.41421428571580915
10
0.76078800000000113
20
-48.027788000000129
10
0.42078800000000299
20
-48.027788000000022
42
0.41421428571580898
10
0.28078800000010873
20
-48.167788000000016
0
LWPOLYLINE
5
141
100
AcDbEntity
8
0
100
AcDbPolyline
90
8
70
1
43
0.0
10
3.6807880000001099
20
-48.622788000000021
42
0.41421428571582775
10
3.8207880000000038
20
-48.762787999999915
10
4.1607880000000019
20
-48.762788000000022
42
0.41421428571582775
10
4.3007879999998959
20
-48.622788000000021
10
4.3007880000000043
20
-48.342788000000027
42
0.41421428571582775
10
4.1607880000000019
20
-48.202788000000126
10
3.8207880000000038
20
-48.202788000000027
42
0.41421428571582775
10
3.6807880000001099
20
-48.342788000000027
0
LWPOLYLINE
5
142
100
AcDbEntity
8
0
100
AcDbPolyline
90
8
70
1
43
0.0
10
9.9407880000001096
20
-48.822788000000017
42
0.41421428571582775
10
10.080788000000005
20
-48.962787999999911
10
10.360788000000003
20
-48.962788000000018
42
0.41421428571580915
10
10.500787999999897
20
-48.822788000000024
10
10.500788000000004
20
-48.482788000000021
42
0.41421428571582775
10
10.360788000000003
20
-48.342788000000127
10
10.080788000000002
20
-48.342788000000027
42
0.41421428571582314
10
9.9407880000001114
20
-48.482788000000021
0
LWPOLYLINE
5
143
100
AcDbEntity
8
0
100
AcDbPolyline
90
8
70
1
43
0.0
10
8.9807880000001088
20
-48.822788000000017
42
0.41421428571582775
10
9.1207880000000046
20
-48.962787999999911
10
9.4007880000000039
20
-48.962788000000018
42
0.41421428571582541
10
9.5407879999998979
20
-48.822788000000017
10
9.5407880000000045
20
-48.482788000000021
42
0.41421428571582541
10
9.4007880000000039
20
-48.342788000000127
10
9.1207880000000046
20
-48.342788000000027
42
0.41421428571582775
10
8.9807880000001088
20
-48.482788000000021
0
LWPOLYLINE
5
144
100
AcDbEntity
8
0
100
AcDbPolyline
90
8
70
1
43
0.0
10
-3.2392119999998941
20
-49.322788000000017
42
0.41421428571584634
10
-3.0992120000000001
20
-49.462787999999918
10
-2.8192119999999976
20
-49.462788000000018
42
0.41421428571583702
10
-2.6792120000001081
20
-49.322788000000017
10
-2.6792120000000019
20
-48.982788000000028
42
0.41421428571583702
10
-2.8192119999999976
20
-48.84278800000012
10
-3.0992120000000001
20
-48.842788000000027
42
0.41421428571584634
10
-3.2392119999998941
20
-48.982788000000028
0
LWPOLYLINE
5
145
100
AcDbEntity
8
0
100
AcDbPolyline
90
8
70
1
43
0.0
10
-4.1992119999998909
20
-49.322788000000017
42
0.41421428571583702
10
-4.0592120000000005
20
-49.462787999999918
10
-3.7792119999999985
20
-49.462788000000018
42
0.41421428571583702
10
-3.6392120000001089
20
-49.322788000000017
10
-3.6392119999999983
20
-48.982788000000028
42
0.41421428571583702
10
-3.7792119999999985
20
-48.84278800000012
10
-4.0592120000000005
20
-48.842788000000027
42
0.41421428571583702
10
-4.1992119999998909
20
-48.982788000000028
0
LWPOLYLINE
5
146
100
AcDbEntity
8
0
100
AcDbPolyline
90
8
70
1
43
0.0
10
9.9207880000001101
20
-49.797788000000018
42
0.41421428571582775
10
10.060788000000006
20
-49.937787999999912
10
10.340788000000003
20
-49.937788000000026
42
0.41421428571582775
10
10.480787999999897
20
-49.797788000000018
10
10.480788000000004
20
-49.457788000000022
42
0.41421428571582314
10
10.340788000000005
20
-49.317788000000121
10
10.060788000000002
20
-49.317788000000029
42
0.41421428571580449
10
9.9207880000001119
20
-49.457788000000008
0
LWPOLYLINE
5
147
100
AcDbEntity
8
0
100
AcDbPolyline
90
8
70
1
43
0.0
10
8.960788000000111
20
-49.797788000000018
42
0.41421428571582541
10
9.100788000000005
20
-49.937787999999912
10
9.3807880000000026
20
-49.937788000000026
42
0.41421428571582541
10
9.5207879999998966
20
-49.797788000000018
10
9.5207880000000031
20
-49.457788000000022
42
0.41421428571582314
10
9.3807880000000043
20
-49.317788000000121
10
9.100788000000005
20
-49.317788000000029
42
0.41421428571582541
10
8.960788000000111
20
-49.457788000000022
0
LWPOLYLINE
5
148
100
AcDbEntity
8
0
100
AcDbPolyline
90
8
70
1
43
0.0
10
9.9207880000001101
20
-50.772788000000027
42
0.41421428571582775
10
10.060788000000006
20
-50.912787999999921
10
10.340788000000003
20
-50.912788000000035
42
0.41421428571582775
10
10.480787999999897
20
-50.772788000000027
10
10.480788000000004
20
-50.432788000000031
42
0.41421428571582314
10
10.340788000000005
20
-50.292788000000137
10
10.060788000000002
20
-50.29278800000003
42
0.41421428571582314
10
9.9207880000001119
20
-50.432788000000031
0
LWPOLYLINE
5
149
100
AcDbEntity
8
0
100
AcDbPolyline
90
8
70
1
43
0.0
10
8.9607880000001092
20
-50.772788000000027
42
0.41421428571582541
10
9.1007880000000032
20
-50.912787999999921
10
9.3807880000000026
20
-50.912788000000035
42
0.41421428571582314
10
9.5207879999998966
20
-50.772788000000027
10
9.5207880000000031
20
-50.432788000000031
42
0.41421428571582314
10
9.3807880000000026
20
-50.292788000000137
10
9.1007880000000032
20
-50.29278800000003
42
0.41421428571582541
10
8.9607880000001092
20
-50.432788000000031
0
LWPOLYLINE
5
150
100
AcDbEntity
8
0
100
AcDbPolyline
90
8
70
1
43
0.0
10
3.6957880000001082
20
-51.047788000000025
42
0.41421428571582775
10
3.8357880000000022
20
-51.187787999999927
10
4.115788000000002
20
-51.187788000000026
42
0.41421428571582775
10
4.2557879999998969
20
-51.047788000000025
10
4.2557880000000026
20
-50.707788000000029
42
0.41421428571582775
10
4.115788000000002
20
-50.567788000000135
10
3.8357880000000022
20
-50.567788000000036
42
0.41421428571582775
10
3.6957880000001082
20
-50.707788000000029
0
LWPOLYLINE
5
151
100
AcDbEntity
8
0
100
AcDbPolyline
90
8
70
1
43
0.0
10
2.7357880000001096
20
-51.047788000000025
42
0.41421428571582775
10
2.8757880000000036
20
-51.187787999999927
10
3.1557880000000016
20
-51.187788000000026
42
0.41421428571582775
10
3.2957879999998956
20
-51.047788000000025
10
3.2957880000000017
20
-50.707788000000029
42
0.41421428571582775
10
3.1557880000000016
20
-50.567788000000135
10
2.8757880000000036
20
-50.567788000000036
42
0.41421428571582775
10
2.7357880000001096
20
-50.707788000000029
0
LWPOLYLINE
5
152
100
AcDbEntity
8
0
100
AcDbPolyline
90
8
70
1
43
0.0
10
-3.3842119999998936
20
-51.322788000000024
42
0.41421428571582775
10
-3.2442119999999997
20
-51.462787999999918
10
-2.9642120000000016
20
-51.462788000000032
42
0.41421428571582775
10
-2.8242120000001076
20
-51.322788000000024
10
-2.8242120000000015
20
-50.982788000000028
42
0.41421428571582775
10
-2.9642120000000016
20
-50.842788000000134
10
-3.2442119999999997
20
-50.842788000000034
42
0.41421428571582775
10
-3.3842119999998936
20
-50.982788000000028
0
LWPOLYLINE
5
153
100
AcDbEntity
8
0
100
AcDbPolyline
90
8
70
1
43
0.0
10
-4.3442119999998949
20
-51.322788000000024
42
0.41421428571582775
10
-4.2042120000000001
20
-51.462787999999918
10
-3.924211999999998
20
-51.462788000000032
42
0.41421428571581842
10
-3.7842120000001085
20
-51.322788000000024
10
-3.7842119999999979
20
-50.982788000000028
42
0.41421428571581842
10
-3.924211999999998
20
-50.842788000000134
10
-4.2042120000000001
20
-50.842788000000034
42
0.41421428571582775
10
-4.3442119999998949
20
-50.982788000000028
0
LWPOLYLINE
5
154
100
AcDbEntity
8
0
100
AcDbPolyline
90
8
70
1
43
0.0
10
3.6957880000001082
20
-51.997788000000035
42
0.41421428571580915
10
3.8357880000000022
20
-52.137787999999922
10
4.115788000000002
20
-52.137788000000036
42
0.41421428571580915
10
4.2557879999998969
20
-51.997788000000035
10
4.2557880000000026
20
-51.657788000000025
42
0.41421428571580915
10
4.115788000000002
20
-51.517788000000138
10
3.8357880000000022
20
-51.517788000000024
42
0.41421428571580915
10
3.6957880000001082
20
-51.657788000000025
0
LWPOLYLINE
5
155
100
AcDbEntity
8
0
100
AcDbPolyline
90
8
70
1
43
0.0
10
2.7357880000001096
20
-51.997788000000035
42
0.41421428571580915
10
2.8757880000000036
20
-52.137787999999922
10
3.1557880000000016
20
-52.137788000000036
42
0.41421428571580915
10
3.2957879999998956
20
-51.997788000000035
10
3.2957880000000017
20
-51.657788000000025
42
0.41421428571580915
10
3.1557880000000016
20
-51.517788000000138
10
2.8757880000000036
20
-51.517788000000024
42
0.41421428571580915
10
2.7357880000001096
20
-51.657788000000025
0
LWPOLYLINE
5
156
100
AcDbEntity
8
0
100
AcDbPolyline
90
8
70
1
43
0.0
10
-3.3842119999998936
20
-53.297788000000033
42
0.41421428571580915
10
-3.2442119999999997
20
-53.437787999999919
10
-2.9642120000000016
20
-53.437788000000026
42
0.41421428571580915
10
-2.8242120000001076
20
-53.297788000000033
10
-2.8242120000000015
20
-52.957788000000036
42
0.41421428571582775
10
-2.9642120000000016
20
-52.817788000000135
10
-3.2442119999999997
20
-52.817788000000036
42
0.41421428571582775
10
-3.3842119999998936
20
-52.957788000000036
0
LWPOLYLINE
5
157
100
AcDbEntity
8
0
100
AcDbPolyline
90
8
70
1
43
0.0
10
-4.3442119999998949
20
-53.297788000000033
42
0.41421428571580915
10
-4.2042120000000001
20
-53.437787999999919
10
-3.924211999999998
20
-53.437788000000026
42
0.41421428571579982
10
-3.7842120000001085
20
-53.297788000000033
10
-3.7842119999999979
20
-52.957788000000036
42
0.41421428571581842
10
-3.924211999999998
20
-52.817788000000135
10
-4.2042120000000001
20
-52.817788000000036
42
0.41421428571582775
10
-4.3442119999998949
20
-52.957788000000036
0
LWPOLYLINE
5
158
100
AcDbEntity
8
0
100
AcDbPolyline
90
8
70
1
43
0.0
10
-2.9442119999998932
20
-54.507788000000026
42
0.41421428571582314
10
-2.8042120000000015
20
-54.64778799999992
10
-2.4642120000000012
20
-54.647788000000034
42
0.41421428571582775
10
-2.3242120000001072
20
-54.507788000000026
10
-2.3242120000000011
20
-54.227788000000032
42
0.41421428571582775
10
-2.4642120000000012
20
-54.087788000000138
10
-2.8042120000000015
20
-54.087788000000032
42
0.41421428571580449
10
-2.9442119999998932
20
-54.227788000000025
0
LWPOLYLINE
5
159
100
AcDbEntity
8
0
100
AcDbPolyline
90
8
70
1
43
0.0
10
0.28078800000010878
20
-54.532788000000032
42
0.41421428571580915
10
0.42078800000000305
20
-54.672787999999919
10
0.76078800000000113
20
-54.672788000000025
42
0.41421428571580915
10
0.90078799999989534
20
-54.532788000000032
10
0.90078800000000347
20
-54.252788000000024
42
0.41421428571580915
10
0.76078800000000113
20
-54.112788000000137
10
0.42078800000000299
20
-54.112788000000023
42
0.41421428571580898
10
0.28078800000010873
20
-54.252788000000024
0
LWPOLYLINE
5
160
100
AcDbEntity
8
0
100
AcDbPolyline
90
8
70
1
43
0.0
10
-0.94421199999989169
20
-54.532788000000032
42
0.41421428571580449
10
-0.8042119999999997
20
-54.672787999999919
10
-0.46421199999999935
20
-54.672788000000025
42
0.41421428571580438
10
-0.3242120000001073
20
-54.532788000000032
10
-0.32421199999999706
20
-54.252788000000024
42
0.41421428571580449
10
-0.4642119999999994
20
-54.112788000000137
10
-0.8042119999999997
20
-54.112788000000023
42
0.41421428571580449
10
-0.94421199999989169
20
-54.252788000000024
0
LWPOLYLINE
5
161
100
AcDbEntity
8
0
100
AcDbPolyline
90
8
70
1
43
0.0
10
3.690788000000111
20
-55.297788000000025
42
0.41421428571582314
10
3.8307880000000027
20
-55.437787999999919
10
4.110788000000003
20
-55.437788000000026
42
0.41421428571582314
10
4.2507879999998952
20
-55.297788000000025
10
4.2507880000000036
20
-54.957788000000036
42
0.41421428571584162
10
4.110788000000003
20
-54.817788000000135
10
3.8307880000000027
20
-54.817788000000036
42
0.41421428571584162
10
3.690788000000111
20
-54.957788000000036
0
LWPOLYLINE
5
162
100
AcDbEntity
8
0
100
AcDbPolyline
90
8
70
1
43
0.0
10
2.7307880000001101
20
-55.297788000000025
42
0.41421428571582314
10
2.8707880000000019
20
-55.437787999999919
10
3.1507880000000021
20
-55.437788000000026
42
0.41421428571582775
10
3.2907879999998961
20
-55.297788000000025
10
3.2907880000000023
20
-54.957788000000036
42
0.41421428571584634
10
3.1507880000000021
20
-54.817788000000135
10
2.8707880000000019
20
-54.817788000000036
42
0.41421428571584162
10
2.7307880000001101
20
-54.957788000000036
0
LWPOLYLINE
5
163
100
AcDbEntity
8
0
100
AcDbPolyline
90
8
70
1
43
0.0
10
-2.9442119999998932
20
-55.467788000000027
42
0.41421428571582314
10
-2.8042120000000015
20
-55.607787999999928
10
-2.4642120000000012
20
-55.607788000000028
42
0.41421428571582775
10
-2.3242120000001072
20
-55.467788000000027
10
-2.3242120000000011
20
-55.187788000000033
42
0.41421428571582775
10
-2.4642120000000012
20
-55.047788000000139
10
-2.8042120000000015
20
-55.047788000000033
42
0.41421428571580449
10
-2.9442119999998932
20
-55.187788000000026
0
LWPOLYLINE
5
164
100
AcDbEntity
8
0
100
AcDbPolyline
90
8
70
1
43
0.0
10
0.28078800000010878
20
-55.492788000000033
42
0.41421428571580915
10
0.42078800000000305
20
-55.63278799999992
10
0.76078800000000113
20
-55.632788000000026
42
0.41421428571580915
10
0.90078799999989534
20
-55.492788000000033
10
0.90078800000000347
20
-55.212788000000032
42
0.41421428571580915
10
0.76078800000000113
20
-55.072788000000145
10
0.42078800000000299
20
-55.072788000000024
42
0.41421428571580898
10
0.28078800000010873
20
-55.212788000000032
0
LWPOLYLINE
5
165
100
AcDbEntity
8
0
100
AcDbPolyline
90
8
70
1
43
0.0
10
-0.94421199999989169
20
-55.492788000000033
42
0.41421428571580449
10
-0.8042119999999997
20
-55.63278799999992
10
-0.46421199999999935
20
-55.632788000000026
42
0.41421428571580438
10
-0.3242120000001073
20
-55.492788000000033
10
-0.32421199999999706
20
-55.212788000000032
42
0.41421428571580449
10
-0.4642119999999994
20
-55.072788000000145
10
-0.8042119999999997
20
-55.072788000000024
42
0.41421428571578589
10
-0.94421199999989169
20
-55.212788000000018
0
LWPOLYLINE
5
166
100
AcDbEntity
8
0
100
AcDbPolyline
90
8
70
1
43
0.0
10
2.3400000000004533
20
-67.79700000000004
42
0.41420740740645168
10
2.4750000000000005
20
-67.931999999999576
10
2.7449999999999997
20
-67.932000000000016
42
0.41420740740645651
10
2.8799999999995496
20
-67.79700000000004
10
2.8800000000000003
20
-67.427000000000021
42
0.41420740740647577
10
2.7449999999999997
20
-67.292000000000485
10
2.4750000000000005
20
-67.29200000000003
42
0.41420740740647094
10
2.3400000000004533
20
-67.427000000000021
0
LWPOLYLINE
5
167
100
AcDbEntity
8
0
100
AcDbPolyline
90
8
70
1
43
0.0
10
1.3200000000004521
20
-67.79700000000004
42
0.41420740740645168
10
1.4549999999999996
20
-67.931999999999576
10
1.7249999999999988
20
-67.932000000000016
42
0.41420740740645651
10
1.8599999999995485
20
-67.79700000000004
10
1.8599999999999994
20
-67.427000000000021
42
0.41420740740647577
10
1.7249999999999988
20
-67.292000000000485
10
1.4549999999999996
20
-67.29200000000003
42
0.41420740740647094
10
1.3200000000004521
20
-67.427000000000021
0
LWPOLYLINE
5
168
100
AcDbEntity
8
0
100
AcDbPolyline
90
8
70
1
43
0.0
10
6.7450000000004851
20
-69.732000000000028
42
0.35780246862323584
10
6.8053679999999694
20
-69.805559000000173
10
9.0200000000000014
20
-69.807000000000016
42
0.35780246862693621
10
9.0935590000003188
20
-69.746632000000091
10
9.0950000000000024
20
-68.232000000000028
42
0.35780246862688991
10
9.0346320000000659
20
-68.158440999999726
10
6.8200000000000021
20
-68.157000000000039
42
0.35780246862326182
10
6.7464409999998658
20
-68.217368000000008
0
LWPOLYLINE
5
169
100
AcDbEntity
8
0
100
AcDbPolyline
90
8
70
1
43
0.0
10
1.1699999999996349
20
-69.007000000000033
42
0.41420800000097391
10
1.2949999999999995
20
-69.132000000000403
10
1.6449999999999987
20
-69.132000000000033
42
0.4142080000009738
10
1.7700000000003633
20
-69.007000000000033
10
1.7700000000000005
20
-68.757000000000033
42
0.4142080000009738
10
1.6449999999999987
20
-68.631999999999664
10
1.2949999999999995
20
-68.632000000000033
42
0.4142080000009738
10
1.1699999999996349
20
-68.757000000000033
0
LWPOLYLINE
5
170
100
AcDbEntity
8
0
100
AcDbPolyline
90
8
70
1
43
0.0
10
2.4699999999996338
20
-69.507000000000033
42
0.41420800000099989
10
2.5950000000000006
20
-69.632000000000403
10
2.9449999999999998
20
-69.632000000000033
42
0.41420800000099461
10
3.0700000000003644
20
-69.507000000000033
10
3.0700000000000016
20
-69.257000000000033
42
0.4142080000009738
10
2.9449999999999998
20
-69.131999999999664
10
2.5950000000000006
20
-69.132000000000033
42
0.41420800000097902
10
2.4699999999996338
20
-69.257000000000033
0
LWPOLYLINE
5
171
100
AcDbEntity
8
0
100
AcDbPolyline
90
8
70
1
43
0.0
10
1.1699999999996349
20
-70.007000000000033
42
0.41420800000099472
10
1.2949999999999995
20
-70.132000000000417
10
1.6449999999999987
20
-70.132000000000033
42
0.41420800000099461
10
1.7700000000003633
20
-70.007000000000033
10
1.7700000000000005
20
-69.757000000000048
42
0.41420800000101543
10
1.6449999999999987
20
-69.631999999999664
10
1.2949999999999995
20
-69.632000000000033
42
0.41420800000099461
10
1.1699999999996349
20
-69.757000000000033
0
LWPOLYLINE
5
172
100
AcDbEntity
8
0
100
AcDbPolyline
90
8
70
1
43
0.0
10
2.3500000000004522
20
-71.327000000000027
42
0.41420740740647094
10
2.4849999999999994
20
-71.461999999999577
10
2.7550000000000008
20
-71.462000000000046
42
0.41420740740647094
10
2.8899999999995485
20
-71.327000000000027
10
2.8900000000000015
20
-70.95700000000005
42
0.4142074074064902
10
2.7550000000000008
20
-70.822000000000486
10
2.4849999999999994
20
-70.822000000000031
42
0.4142074074064902
10
2.3500000000004522
20
-70.95700000000005
0
LWPOLYLINE
5
173
100
AcDbEntity
8
0
100
AcDbPolyline
90
8
70
1
43
0.0
10
1.3300000000004533
20
-71.327000000000027
42
0.41420740740647094
10
1.4650000000000007
20
-71.461999999999577
10
1.7349999999999999
20
-71.462000000000046
42
0.41420740740647094
10
1.8699999999995474
20
-71.327000000000027
10
1.8699999999999983
20
-70.95700000000005
42
0.4142074074064902
10
1.7349999999999999
20
-70.822000000000486
10
1.4650000000000007
20
-70.822000000000031
42
0.4142074074064902
10
1.3300000000004533
20
-70.95700000000005
0
LWPOLYLINE
5
174
100
AcDbEntity
8
0
100
AcDbPolyline
90
8
70
1
43
0.0
10
-3.1049999999998379
20
-73.532000000000039
42
0.41421599999968495
10
-2.8550000000000009
20
-73.781999999999869
10
-1.6050000000000006
20
-73.782000000000039
42
0.41421599999968206
10
-1.3550000000001661
20
-73.532000000000039
10
-1.3550000000000018
20
-72.907000000000039
42
0.41421599999970315
10
-1.6050000000000009
20
-72.65700000000021
10
-2.8550000000000009
20
-72.657000000000039
42
0.41421599999970576
10
-3.1049999999998379
20
-72.907000000000039
0
LWPOLYLINE
5
175
100
AcDbEntity
8
0
100
AcDbPolyline
90
4
70
1
43
0.0
10
-3.9850000000002002
20
-74.452000000000027
42
0.99999911338130199
10
-4.9849999999998067
20
-74.452000000000027
10
-4.9850000000000039
20
-75.552000000000035
42
1.0000016962321068
10
-3.9849999999997228
20
-75.552000000000035
0
LWPOLYLINE
5
176
100
AcDbEntity
8
0
100
AcDbPolyline
90
4
70
1
43
0.0
10
-12.625000000000204
20
-74.452000000000027
42
0.99999911331869429
10
-13.62499999999981
20
-74.452000000000027
10
-13.625000000000005
20
-75.552000000000035
42
1.0000016962321068
10
-12.624999999999726
20
-75.552000000000035
0
CIRCLE
5
177
100
AcDbEntity
8
0
100
AcDbCircle
10
-5.9150000000000009
20
-75.502000000000052
30
0
40
0.32500000000000018
210
0
220
0
230
1
0
CIRCLE
5
178
100
AcDbEntity
8
0
100
AcDbCircle
10
-11.695
20
-75.502000000000052
30
0
40
0.32500000000000018
210
0
220
0
230
1
0
LWPOLYLINE
5
179
100
AcDbEntity
8
0
100
AcDbPolyline
90
8
70
1
43
0.0
10
-3.1049999999998379
20
-76.457000000000036
42
0.41421599999970576
10
-2.8550000000000009
20
-76.70699999999988
10
-1.6050000000000006
20
-76.70700000000005
42
0.41421599999970282
10
-1.3550000000001661
20
-76.457000000000036
10
-1.3550000000000018
20
-75.832000000000036
42
0.41421599999970315
10
-1.6050000000000009
20
-75.582000000000193
10
-2.8550000000000009
20
-75.582000000000036
42
0.41421599999970576
10
-3.1049999999998379
20
-75.832000000000036
0
LWPOLYLINE
5
180
100
AcDbEntity
8
0
100
AcDbPolyline
90
4
70
1
43
0.0
10
-3.9850000000002002
20
-78.882000000000033
42
0.99999911338130199
10
-4.9849999999998067
20
-78.882000000000033
10
-4.9850000000000039
20
-79.482000000000028
42
1.0000016962321068
10
-3.9849999999997228
20
-79.482000000000028
0
LWPOLYLINE
5
181
100
AcDbEntity
8
0
100
AcDbPolyline
90
4
70
1
43
0.0
10
-12.625000000000204
20
-78.882000000000033
42
0.99999911331869429
10
-13.62499999999981
20
-78.882000000000033
10
-13.625000000000005
20
-79.482000000000028
42
1.0000016962321068
10
-12.624999999999726
20
-79.482000000000028
0
LWPOLYLINE
5
182
100
AcDbEntity
8
0
100
AcDbPolyline
90
8
70
1
43
0.0
10
4.038783666119004
20
-17.792608166939992
10
4.038783666119004
20
-18.771391833059994
10
3.9843918330600041
20
-18.825783666118994
10
2.2556081669400037
20
-18.825783666118994
10
2.2012163338810034
20
-18.771391833059994
10
2.2012163338810038
20
-17.792608166939992
10
2.2556081669400037
20
-17.738216333880995
10
3.9843918330600037
20
-17.738216333880995
0
LWPOLYLINE
5
183
100
AcDbEntity
8
0
100
AcDbPolyline
90
4
70
1
43
0.0
10
2.3200000000000038
20
-19.156999999999993
10
2.3200000000000038
20
-18.906999999999993
10
2.6200000000000041
20
-18.906999999999993
10
2.6200000000000037
20
-19.156999999999993
0
LWPOLYLINE
5
184
100
AcDbEntity
8
0
100
AcDbPolyline
90
4
70
1
43
0.0
10
3.6200000000000045
20
-19.156999999999993
10
3.6200000000000045
20
-18.906999999999993
10
3.9200000000000044
20
-18.906999999999993
10
3.9200000000000039
20
-19.156999999999993
0
LWPOLYLINE
5
185
100
AcDbEntity
8
0
100
AcDbPolyline
90
4
70
1
43
0.0
10
3.270000000000004
20
-17.406999999999996
10
3.270000000000004
20
-17.656999999999993
10
2.9700000000000037
20
-17.656999999999993
10
2.9700000000000037
20
-17.406999999999996
0
LWPOLYLINE
5
186
100
AcDbEntity
8
0
100
AcDbPolyline
90
4
70
1
43
0.0
10
2.9350000000000023
20
-15.057000000000007
10
3.3550000000000022
20
-15.057000000000007
10
3.3550000000000022
20
-15.657000000000007
10
2.9350000000000023
20
-15.657000000000007
0
LWPOLYLINE
5
187
100
AcDbEntity
8
0
100
AcDbPolyline
90
4
70
1
43
0.0
10
-2.9941998204140017
20
-59.487800179586017
10
-0.46580017958600117
20
-59.487800179586017
10
-0.4658001795860009
20
-63.876199820414016
10
-2.9941998204140017
20
-63.87619982041403
0
LWPOLYLINE
5
188
100
AcDbEntity
8
0
100
AcDbPolyline
90
4
70
1
43
0.0
10
-1.4300000000000024
20
-75.882000000000033
10
-3.0300000000000029
20
-75.882000000000033
10
-3.0300000000000034
20
-73.482000000000028
10
-1.4300000000000026
20
-73.482000000000028
0
LWPOLYLINE
5
189
100
AcDbEntity
8
0
100
AcDbPolyline
90
8
70
1
43
0.0
10
0.64983173064500466
20
-67.372336538710044
10
-3.2098317306449964
20
-67.372336538710044
10
-3.3396634612899967
20
-67.502168269355053
10
-3.3396634612899971
20
-69.961831730645059
10
-3.2098317306449964
20
-70.091663461290054
10
0.6498317306450041
20
-70.091663461290054
10
0.77966346129000419
20
-69.961831730645059
10
0.77966346129000452
20
-67.502168269355053
0
CIRCLE
5
190
100
AcDbEntity
8
0
100
AcDbCircle
10
-2.6396634612899965
20
-68.072336538710061
30
0
40
0.25000000000000011
210
0
220
-0
230
1
0
LWPOLYLINE
5
191
100
AcDbEntity
8
0
100
AcDbPolyline
90
8
70
1
43
0.0
10
-11.076206448158988
20
-65.608896775920044
10
-11.076206448158988
20
-63.105103224080054
10
-11.178103224079987
20
-63.003206448159048
10
-13.681896775919988
20
-63.003206448159048
10
-13.783793551840988
20
-63.105103224080054
10
-13.783793551840988
20
-65.608896775920044
10
-13.681896775919988
20
-65.71079355184105
10
-11.178103224079987
20
-65.71079355184105
0
CIRCLE
5
192
100
AcDbEntity
8
0
100
AcDbCircle
10
-11.776206448158987
20
-63.703206448159051
30
0
40
0.25000000000000017
210
0
220
0
230
1
0
LWPOLYLINE
5
193
100
AcDbEntity
8
0
100
AcDbPolyline
90
4
70
1
43
0.0
10
-7.0842120000000026
20
-64.852788000000061
10
-3.884212000000002
20
-64.852788000000061
10
-3.8842120000000024
20
-63.752788000000052
10
-7.0842120000000026
20
-63.752788000000066
0
LWPOLYLINE
5
194
100
AcDbEntity
8
0
100
AcDbPolyline
90
4
70
1
43
0.0
10
8.490788000000002
20
-62.427788000000049
10
8.490788000000002
20
-59.227788000000047
10
7.3907880000000015
20
-59.227788000000047
10
7.3907880000000006
20
-62.427788000000049
0
LWPOLYLINE
5
195
100
AcDbEntity
8
0
100
AcDbPolyline
90
4
70
1
43
0.0
10
8.4907880000000002
20
-58.652788000000044
10
8.4907880000000002
20
-55.452788000000041
10
7.3907879999999988
20
-55.452788000000041
10
7.3907879999999988
20
-58.652788000000044
0
LWPOLYLINE
5
196
100
AcDbEntity
8
0
100
AcDbPolyline
90
4
70
1
43
0.0
10
8.4657880000000016
20
-54.902788000000015
10
8.4657880000000016
20
-51.702788000000012
10
7.365788000000002
20
-51.702788000000012
10
7.3657880000000011
20
-54.902788000000015
0
LWPOLYLINE
5
197
100
AcDbEntity
8
0
100
AcDbPolyline
90
4
70
1
43
0.0
10
-9.5092120000000016
20
-59.20278800000002
10
-9.5092120000000016
20
-62.402788000000022
10
-8.4092120000000019
20
-62.402788000000022
10
-8.4092120000000001
20
-59.20278800000002
0
LWPOLYLINE
5
198
100
AcDbEntity
8
0
100
AcDbPolyline
90
4
70
1
43
0.0
10
-9.5092120000000033
20
-55.427788
10
-9.5092120000000051
20
-58.627788000000002
10
-8.4092120000000037
20
-58.627788000000002
10
-8.4092120000000019
20
-55.427788
0
LWPOLYLINE
5
199
100
AcDbEntity
8
0
100
AcDbPolyline
90
4
70
1
43
0.0
10
-9.5092120000000016
20
-51.652788000000022
10
-9.5092120000000016
20
-54.852788000000025
10
-8.4092120000000019
20
-54.852788000000025
10
-8.4092120000000001
20
-51.652788000000022
0
LWPOLYLINE
5
200
100
AcDbEntity
8
0
100
AcDbPolyline
90
4
70
1
43
0.0
10
-9.5092119999999998
20
-47.877788000000045
10
-9.5092120000000016
20
-51.077788000000048
10
-8.4092120000000019
20
-51.077788000000048
10
-8.4092120000000001
20
-47.877788000000045
0
LWPOLYLINE
5
201
100
AcDbEntity
8
0
100
AcDbPolyline
90
4
70
1
43
0.0
10
-9.4842120000000047
20
-44.102788000000039
10
-9.4842120000000065
20
-47.302788000000042
10
-8.3842120000000069
20
-47.302788000000042
10
-8.3842120000000051
20
-44.102788000000039
0
LWPOLYLINE
5
202
100
AcDbEntity
8
0
100
AcDbPolyline
90
4
70
1
43
0.0
10
-2.8092119999999996
20
-41.652788000000044
10
-6.0092120000000016
20
-41.652788000000044
10
-6.0092120000000007
20
-42.752788000000052
10
-2.8092119999999992
20
-42.752788000000038
0
LWPOLYLINE
5
203
100
AcDbEntity
8
0
100
AcDbPolyline
90
8
70
1
43
0.0
10
11.203648457443002
20
-38.94132422872201
10
11.203648457443002
20
-37.647675771278003
10
11.166824228722003
20
-37.610851542557008
10
8.5731757712780023
20
-37.610851542557008
10
8.5363515425570018
20
-37.647675771278003
10
8.5363515425570036
20
-38.94132422872201
10
8.5731757712780041
20
-38.978148457443005
10
11.166824228722003
20
-38.978148457443005
0
CIRCLE
5
204
100
AcDbEntity
8
0
100
AcDbCircle
10
11.003648457443003
20
-37.810851542557003
30
0
40
0.050000000000000031
210
0
220
-0
230
1
0
LWPOLYLINE
5
205
100
AcDbEntity
8
0
100
AcDbPolyline
90
4
70
1
43
0.0
10
5.4600000000000115
20
-30.492000000000008
10
1.4800000000000102
20
-30.492000000000008
10
1.4800000000000091
20
-34.472000000000008
10
5.4600000000000106
20
-34.472000000000008
0
CIRCLE
5
206
100
AcDbEntity
8
0
100
AcDbCircle
10
2.0700000000000105
20
-31.082000000000004
30
0
40
0.25000000000000011
210
0
220
-0
230
1
0
LWPOLYLINE
5
207
100
AcDbEntity
8
0
100
AcDbPolyline
90
4
70
1
43
0.0
10
-7.0585119999999923
20
-31.472788000000005
10
-7.0585119999999932
20
-36.472788000000008
10
-1.0585119999999903
20
-36.472788000000008
10
-1.0585119999999901
20
-31.472788000000005
0
CIRCLE
5
208
100
AcDbEntity
8
0
100
AcDbCircle
10
-6.658511999999992
20
-31.872788000000007
30
0
40
0.15000000000000008
210
0
220
0
230
1
0
LWPOLYLINE
5
209
100
AcDbEntity
8
0
100
AcDbPolyline
90
8
70
1
43
0.0
10
3.2417700000000012
20
-36.828118888889001
10
3.2417700000000012
20
-37.930341111111005
42
0.41421356237309503
10
3.3306588888890012
20
-38.019229999999894
10
4.8328811111110017
20
-38.019230000000007
42
0.41421356237310419
10
4.9217699999998938
20
-37.930341111111005
10
4.9217700000000013
20
-36.828118888889001
42
0.41421356237310419
10
4.8328811111110017
20
-36.73923000000012
10
3.3306588888890012
20
-36.739230000000006
42
0.41421356237309503
0
LWPOLYLINE
5
210
100
AcDbEntity
8
0
100
AcDbPolyline
90
4
70
1
43
0.0
10
2.9950000000000032
20
-22.432000000000013
10
2.9950000000000032
20
-25.432000000000016
10
5.9950000000000037
20
-25.432000000000009
10
5.9950000000000037
20
-22.432000000000009
0
CIRCLE
5
211
100
AcDbEntity
8
0
100
AcDbCircle
10
3.4950000000000032
20
-24.932000000000013
30
0
40
0.20000000000000012
210
0
220
0
230
1
0
LWPOLYLINE
5
212
100
AcDbEntity
8
0
100
AcDbPolyline
90
4
70
1
43
0.0
10
1.8700000000000037
20
-19.331999999999997
10
4.3700000000000037
20
-19.331999999999997
10
4.3700000000000037
20
-16.131999999999994
10
1.8700000000000032
20
-16.131999999999994
0
LWPOLYLINE
5
213
100
AcDbEntity
8
0
100
AcDbPolyline
90
20
70
1
43
0.0
10
-13.680000000000003
20
-9.7569999999999677
10
-13.680000000000003
20
-12.156999999999968
10
-13.660000000000004
20
-12.156999999999968
42
-0.4142135623732251
10
-13.630000000000004
20
-12.186999999999967
10
-13.630000000000004
20
-12.406999999999968
42
0.41421356237309503
10
-13.580000000000004
20
-12.456999999999967
10
-11.430000000000003
20
-12.456999999999969
42
0.41421356237309503
10
-11.380000000000003
20
-12.406999999999968
10
-11.379999999999999
20
-12.186999999999967
42
-0.41421356237320345
10
-11.350000000000001
20
-12.156999999999968
10
-11.330000000000002
20
-12.156999999999968
10
-11.330000000000005
20
-9.7569999999999677
10
-11.350000000000005
20
-9.7569999999999659
42
-0.41421356237313839
10
-11.380000000000003
20
-9.7269999999999683
10
-11.380000000000003
20
-9.5069999999999677
42
0.41421356237309503
10
-11.430000000000005
20
-9.456999999999967
10
-13.580000000000005
20
-9.456999999999967
42
0.41421356237308204
10
-13.630000000000003
20
-9.5069999999999677
10
-13.630000000000004
20
-9.7269999999999683
42
-0.41421356237313839
10
-13.660000000000004
20
-9.7569999999999677
0
CIRCLE
5
214
100
AcDbEntity
8
0
100
AcDbCircle
10
-12.505000000000003
20
-10.956999999999971
30
0
40
0.78000000000000047
210
0
220
0
230
1
0
LINE
5
215
100
AcDbEntity
8
0
100
AcDbLine
10
8.5630079539710042
20
-9.2100079539709903
30
0
11
8.563007953971006
21
-6.4539920460289899
31
0
0
LWPOLYLINE
5
216
100
AcDbEntity
8
0
100
AcDbPolyline
90
4
70
1
43
0.0
10
7.4269920460290049
20
-6.453992046028989
10
7.426992046029004
20
-9.2100079539709903
10
8.5630079539710042
20
-9.2100079539709903
10
8.563007953971006
20
-6.4539920460289899
0
LWPOLYLINE
5
217
100
AcDbEntity
8
0
100
AcDbPolyline
90
4
70
1
43
0.0
10
11.520000000000003
20
-14.194499999999998
10
13.120000000000005
20
-14.194499999999998
10
13.120000000000005
20
-11.794499999999996
10
11.520000000000003
20
-11.794499999999996
0
LWPOLYLINE
5
218
100
AcDbEntity
8
0
100
AcDbPolyline
90
4
70
1
43
0.0
10
13.534199820414006
20
-16.687800179585992
10
11.005800179586005
20
-16.687800179585992
10
11.005800179586005
20
-21.07619982041399
10
13.534199820414006
20
-21.07619982041399
0
LWPOLYLINE
5
219
100
AcDbEntity
8
0
100
AcDbPolyline
90
4
70
1
43
0.0
10
11.091600359172006
20
-20.990399640827992
10
11.091600359172006
20
-20.390399640827994
10
13.448399640828006
20
-20.390399640827994
10
13.448399640828006
20
-20.990399640827992
0
LWPOLYLINE
5
220
100
AcDbEntity
8
0
100
AcDbPolyline
90
8
70
1
43
0.0
10
13.765000000000004
20
-27.941999999999986
10
13.765000000000004
20
-23.421999999999983
10
11.003675134595007
20
-23.421999999999986
10
11.003675134595007
20
-23.681999999999984
10
10.065000000000007
20
-23.681999999999984
10
10.065000000000005
20
-27.681999999999988
10
11.003675134595003
20
-27.681999999999988
10
11.003675134595007
20
-27.941999999999986
0
LWPOLYLINE
5
221
100
AcDbEntity
8
0
100
AcDbPolyline
90
4
70
1
43
0.0
10
9.4100000000000001
20
-70.472000000000065
10
9.4100000000000001
20
-67.492000000000061
10
6.4299999999999997
20
-67.492000000000061
10
6.4299999999999997
20
-70.472000000000065
0
CIRCLE
5
222
100
AcDbEntity
8
0
100
AcDbCircle
10
8.7200000000000006
20
-68.182000000000059
30
0
40
0.30000000000000016
210
0
220
-0
230
1
0
LINE
5
223
100
AcDbEntity
8
0
100
AcDbLine
10
-4.3600000000029207
20
-75.257000000000005
30
0
11
-4.3350000000005462
21
-75.257000000000005
31
0
0
LINE
5
224
100
AcDbEntity
8
0
100
AcDbLine
10
-4.4366961342676365
20
-75.257000000000005
30
0
11
-4.3600000000029207
21
-75.257000000000005
31
0
0
LINE
5
225
100
AcDbEntity
8
0
100
AcDbLine
10
-4.5677236763103828
20
-75.257000000000005
30
0
11
-4.4366961342676365
21
-75.257000000000005
31
0
0
SPLINE
5
226
100
AcDbEntity
8
0
100
AcDbSpline
70
0
71
3
72
14
73
10
74
0
42
0.000000001
43
0.0000000001
44
0.0000000001
40
-0.022754543875257497
40
-0.022754543875257497
40
-0.022754543875257497
40
-0.022754543875257497
40
-0.017053247803278292
40
-0.017053247803278292
40
-0.011351837951646073
40
-0.011351837951646073
40
-0.0056759189758230364
40
-0.0056759189758230364
40
-7.6532645701129502e-07
40
-7.6532645701129502e-07
40
-7.6532645701129502e-07
40
-7.6532645701129502e-07
10
-4.5677236763103828
20
-75.256999999995742
30
0
10
-4.5786503466133244
20
-75.256999848971432
30
0
10
-4.5906851214494102
20
-75.253215923585572
30
0
10
-4.6135267125976558
20
-75.237906191985786
30
0
10
-4.6243252112909712
20
-75.226378959179144
30
0
10
-4.6416856734316729
20
-75.199812597042481
30
0
10
-4.6494321946577646
20
-75.183000480729703
30
0
10
-4.6598119352512395
20
-75.146056591794121
30
0
10
-4.6624369581297405
20
-75.125925159623804
30
0
10
-4.6624376659475057
20
-75.107007653330825
30
0
0
LINE
5
227
100
AcDbEntity
8
0
100
AcDbLine
10
-4.6624376659475057
20
-75.107007653330825
30
0
11
-4.6624376660818996
21
-74.782000637356944
31
0
0
SPLINE
5
228
100
AcDbEntity
8
0
100
AcDbSpline
70
0
71
3
72
14
73
10
74
0
42
0.000000001
43
0.0000000001
44
0.0000000001
40
0
40
0
40
0
40
0
40
0.0056282518670182496
40
0.0056282518670182496
40
0.011256503734036499
40
0.011256503734036499
40
0.017193961941768809
40
0.017193961941768809
40
0.02312240256173478
40
0.02312240256173478
40
0.02312240256173478
40
0.02312240256173478
10
-4.6624376660815354
20
-74.781999999999996
30
0
10
-4.6624376660815354
20
-74.763239160443277
30
0
10
-4.6649834569031414
20
-74.743258951051075
30
0
10
-4.6754555587024251
20
-74.70659613231993
30
0
10
-4.6833937835265846
20
-74.689915860902943
30
0
10
-4.7024737842341855
20
-74.66291403884253
30
0
10
-4.7150721988739361
20
-74.651129735452812
30
0
10
-4.7432847288073789
20
-74.635679003370768
30
0
10
-4.7589051549614148
20
-74.632011148771127
30
0
10
-4.7738030693755897
20
-74.632000023931766
30
0
0
LINE
5
229
100
AcDbEntity
8
0
100
AcDbLine
10
-5.6150059240347838
20
-74.632000000000005
30
0
11
-4.7738030693755906
21
-74.632000023931766
31
0
0
LINE
5
230
100
AcDbEntity
8
0
100
AcDbLine
10
-5.6150059240347838
20
-74.632000000000005
30
0
11
-5.6150059245105899
21
-81.906999999998007
31
0
0
LINE
5
231
100
AcDbEntity
8
0
100
AcDbLine
10
-4.3350000000009707
20
-81.906999999998007
30
0
11
-5.6150059245105899
21
-81.906999999998007
31
0
0
LINE
5
232
100
AcDbEntity
8
0
100
AcDbLine
10
-4.3350000000009707
20
-81.906999999998007
30
0
11
-4.3350000000005462
21
-75.257000000000005
31
0
0
LWPOLYLINE
5
233
100
AcDbEntity
8
0
100
AcDbPolyline
90
22
70
1
43
0.0
10
-6.294999878401363
20
-75.781999999999968
42
0.41421340016679919
10
-6.0950000000000015
20
-75.581999989162739
10
-6.0949999999999713
20
-74.78199990307553
42
-0.41421337311629342
10
-5.9450000000000056
20
-74.632000000000005
10
-5.6150059240347838
20
-74.632000000000005
10
-5.6150059245105908
20
-81.906999999998007
10
-11.995003921052483
20
-81.906999999998007
10
-11.995003921524871
20
-74.632000000000005
10
-11.665000117181005
20
-74.632000000000048
42
-0.41421379118326696
10
-11.515000000000006
20
-74.782000000000011
10
-11.514999999999979
20
-75.582000104226552
42
0.41421348207973085
10
-11.314999950601184
20
-75.782000000000011
10
-10.015000024507012
20
-75.782000000000011
42
0.4142131571458475
10
-9.8650000000000659
20
-75.632000232036916
10
-9.8650000000001867
20
-75.481999767962108
42
0.41458009036170423
10
-10.015187918437007
20
-75.332000076447997
10
-10.015318613337358
20
-74.632000000000005
10
-7.5945867694280054
20
-74.632000000000005
10
-7.5949543500235315
20
-75.332000006946402
42
0.41430225176424978
10
-7.7449999999999477
20
-75.481999769276868
10
-7.7449999999998251
20
-75.632000233386009
42
0.41421322628203205
10
-7.594999938737006
20
-75.781999999999996
0
LWPOLYLINE
5
234
100
AcDbEntity
8
0
100
AcDbPolyline
90
4
70
1
43
0.0
10
-11.188492451321096
20
-76.606999999999999
10
-9.973506312344341
20
-76.606999999999999
10
-9.9735063130490058
20
-77.106999999999999
10
-11.188492449362005
20
-77.107000000000014
0
LWPOLYLINE
5
235
100
AcDbEntity
8
0
100
AcDbPolyline
90
4
70
1
43
0.0
10
-7.637492451321096
20
-76.606999999999999
10
-6.422506327190006
20
-76.606999999999999
10
-6.4225063267184499
20
-77.106999999999999
10
-7.6374924493620071
20
-77.107000000000014
0
LINE
5
236
100
AcDbEntity
8
0
100
AcDbLine
10
-13.173303865732375
20
-75.257000000000005
30
0
11
-13.042255825378232
21
-75.257000000000005
31
0
0
LINE
5
237
100
AcDbEntity
8
0
100
AcDbLine
10
-13.250000000003109
20
-75.257000000000005
30
0
11
-13.173303865732375
21
-75.257000000000005
31
0
0
LINE
5
238
100
AcDbEntity
8
0
100
AcDbLine
10
-13.275000000000007
20
-75.257000000000005
30
0
11
-13.250000000003109
21
-75.257000000000005
31
0
0
LINE
5
239
100
AcDbEntity
8
0
100
AcDbLine
10
-13.275000000000007
20
-75.257000000000005
30
0
11
-13.274999999992836
21
-81.906999999998007
31
0
0
LINE
5
240
100
AcDbEntity
8
0
100
AcDbLine
10
-13.274999999992836
20
-81.906999999998007
30
0
11
-11.995003921052483
21
-81.906999999998007
31
0
0
LINE
5
241
100
AcDbEntity
8
0
100
AcDbLine
10
-11.995003921052483
20
-81.906999999998007
30
0
11
-11.995003921524869
21
-74.632000000000005
31
0
0
LINE
5
242
100
AcDbEntity
8
0
100
AcDbLine
10
-12.836115927065608
20
-74.632000000000005
30
0
11
-11.995003921524869
21
-74.632000000000005
31
0
0
SPLINE
5
243
100
AcDbEntity
8
0
100
AcDbSpline
70
0
71
3
72
16
73
12
74
0
42
0.000000001
43
0.0000000001
44
0.0000000001
40
0.023617135976301371
40
0.023617135976301371
40
0.023617135976301371
40
0.023617135976301371
40
0.023618864021825579
40
0.023618864021825579
40
0.029495690410661978
40
0.029495690410661978
40
0.035372516799498377
40
0.035372516799498377
40
0.041061431651907017
40
0.041061431651907017
40
0.04675031360115476
40
0.04675031360115476
40
0.04675031360115476
40
0.04675031360115476
10
-12.836115927065652
20
-74.632000000878648
30
0
10
-12.836165927065652
20
-74.632000000875678
30
0
10
-12.836215927065652
20
-74.632000000872708
30
0
10
-12.85089497930673
20
-74.632000000000005
30
0
10
-12.866394172722726
20
-74.635592988586723
30
0
10
-12.894413363422281
20
-74.650761047386553
30
0
10
-12.906943739496469
20
-74.662325899065664
30
0
10
-12.926186357192877
20
-74.689106948070986
30
0
10
-12.934280397455451
20
-74.705889908883194
30
0
10
-12.944962082985953
20
-74.742856065939094
30
0
10
-12.947562303840435
20
-74.763036717051591
30
0
10
-12.94756233391823
20
-74.781999670968275
30
0
0
LINE
5
244
100
AcDbEntity
8
0
100
AcDbLine
10
-12.94756233391823
20
-74.781999670968275
30
0
11
-12.947562333210133
21
-75.10700657714375
31
0
0
SPLINE
5
245
100
AcDbEntity
8
0
100
AcDbSpline
70
0
71
3
72
14
73
10
74
0
42
0.000000001
43
0.0000000001
44
0.0000000001
40
-0.090765577543046927
40
-0.090765577543046927
40
-0.090765577543046927
40
-0.090765577543046927
40
-0.085108778199012691
40
-0.085108778199012691
40
-0.079451321145532453
40
-0.079451321145532453
40
-0.073731464113117554
40
-0.073731464113117554
40
-0.068015285832722178
40
-0.068015285832722178
40
-0.068015285832722178
40
-0.068015285832722178
10
-12.947562334017393
20
-75.107006577143736
30
0
10
-12.947562940350901
20
-75.125862857432963
30
0
10
-12.950170977493201
20
-75.145933724243648
30
0
10
-12.960489959691035
20
-75.182785189596032
30
0
10
-12.968192718099822
20
-75.199565518313335
30
0
10
-12.985516319621698
20
-75.226196929878611
30
0
10
-12.9963385233251
20
-75.237790904571085
30
0
10
-13.019234591031877
20
-75.253186842350686
30
0
10
-13.031299250292861
20
-75.256995099861228
30
0
10
-13.042255825378605
20
-75.256999995541307
30
0
0
LWPOLYLINE
5
246
100
AcDbEntity
8
0
100
AcDbPolyline
90
20
70
1
43
0.0
10
7.0450000000000035
20
-77.20700000000005
10
4.6450000000000031
20
-77.20700000000005
10
4.6449999999999996
20
-77.227000000000046
42
-0.41421356237305712
10
4.615000000000002
20
-77.257000000000048
10
4.3950000000000022
20
-77.257000000000048
42
0.41421356237309176
10
4.3450000000000024
20
-77.307000000000045
10
4.3450000000000015
20
-79.457000000000036
42
0.41421356237309503
10
4.3950000000000022
20
-79.507000000000033
10
4.615000000000002
20
-79.507000000000033
42
-0.41421356237305712
10
4.6450000000000022
20
-79.537000000000035
10
4.6450000000000022
20
-79.557000000000045
10
7.0450000000000026
20
-79.557000000000045
10
7.0450000000000044
20
-79.537000000000035
42
-0.4142135623730625
10
7.0750000000000028
20
-79.507000000000033
10
7.2950000000000026
20
-79.507000000000033
42
0.41421356237309503
10
7.3450000000000024
20
-79.457000000000036
10
7.3450000000000024
20
-77.307000000000045
42
0.41421356237309503
10
7.2950000000000026
20
-77.257000000000048
10
7.0750000000000028
20
-77.257000000000048
42
-0.4142135623730625
10
7.0450000000000026
20
-77.227000000000046
0
CIRCLE
5
247
100
AcDbEntity
8
0
100
AcDbCircle
10
5.8450000000000006
20
-78.382000000000033
30
0
40
0.78000000000000047
210
0
220
0
230
1
0
LWPOLYLINE
5
248
100
AcDbEntity
8
0
100
AcDbPolyline
90
8
70
1
43
0.0
10
6.4193082572229994
20
-74.228116514446029
10
6.3936165144460002
20
-74.253808257223028
10
6.3936165144460002
20
-75.955191742777032
10
6.4193082572229994
20
-75.980883485554017
10
7.3706917427769998
20
-75.980883485554017
10
7.3963834855539998
20
-75.955191742777018
10
7.3963834855539998
20
-74.253808257223014
10
7.3706917427769998
20
-74.228116514446029
0
CIRCLE
5
249
100
AcDbEntity
8
0
100
AcDbCircle
10
6.5788932115570002
20
-74.413393211557022
30
0
40
0.092638348555420039
210
0
220
-0
230
1
0
LWPOLYLINE
5
250
100
AcDbEntity
8
0
100
AcDbPolyline
90
4
70
1
43
0.0
10
10.600000000000001
20
-72.142000000000024
10
12.040000000000003
20
-72.142000000000024
10
12.040000000000003
20
-69.742000000000019
10
10.600000000000001
20
-69.742000000000019
0
LWPOLYLINE
5
251
100
AcDbEntity
8
0
100
AcDbPolyline
90
4
70
1
43
0.0
10
-7.7369920460290018
20
-71.660007953971018
10
-7.7369920460290018
20
-68.903992046029018
10
-8.8730079539710029
20
-68.903992046029018
10
-8.8730079539710029
20
-71.660007953971018
0
LWPOLYLINE
5
252
100
AcDbEntity
8
0
100
AcDbPolyline
90
4
70
1
43
0.0
10
12.870000000000005
20
-78.434500000000057
10
12.370000000000003
20
-78.434500000000057
10
12.370000000000003
20
-79.064500000000052
10
12.870000000000005
20
-79.064500000000052
0
LWPOLYLINE
5
253
100
AcDbEntity
8
0
100
AcDbPolyline
90
4
70
1
43
0.0
10
10.845000000000002
20
-78.417000000000044
10
10.345000000000002
20
-78.417000000000044
10
10.345000000000002
20
-79.04700000000004
10
10.845000000000002
20
-79.04700000000004
0
LWPOLYLINE
5
254
100
AcDbEntity
8
0
100
AcDbPolyline
90
4
70
1
43
0.0
10
4.9907880000000002
20
-46.327788000000012
10
-5.0092120000000033
20
-46.327788000000012
10
-5.0092120000000051
20
-56.327788000000027
10
4.9907879999999967
20
-56.327788000000012
0
CIRCLE
5
255
100
AcDbEntity
8
0
100
AcDbCircle
10
-4.5092120000000033
20
-46.827788000000012
30
0
40
0.25000000000000017
210
0
220
-0
230
1
0
ENDSEC
0
SECTION
2
OBJECTS
0
DICTIONARY
5
C
100
AcDbDictionary
3
ACAD_GROUP
350
D
3
ACAD_MLINESTYLE
350
17
0
DICTIONARY
5
D
100
AcDbDictionary
0
DICTIONARY
5
1A
330
C
100
AcDbDictionary
0
DICTIONARY
5
17
100
AcDbDictionary
0
ENDSEC
0
EOF
