%TF.GenerationSoftware,KiCad,Pcbnew,9.0.7*%
%TF.CreationDate,2026-02-19T00:24:31+01:00*%
%TF.ProjectId,BladeCore-M54C,426c6164-6543-46f7-9265-2d4d3534432e,rev?*%
%TF.SameCoordinates,Original*%
%TF.FileFunction,Copper,L6,Bot*%
%TF.FilePolarity,Positive*%
%FSLAX46Y46*%
G04 Gerber Fmt 4.6, Leading zero omitted, Abs format (unit mm)*
G04 Created by KiCad (PCBNEW 9.0.7) date 2026-02-19 00:24:31*
%MOMM*%
%LPD*%
G01*
G04 APERTURE LIST*
G04 Aperture macros list*
%AMRoundRect*
0 Rectangle with rounded corners*
0 $1 Rounding radius*
0 $2 $3 $4 $5 $6 $7 $8 $9 X,Y pos of 4 corners*
0 Add a 4 corners polygon primitive as box body*
4,1,4,$2,$3,$4,$5,$6,$7,$8,$9,$2,$3,0*
0 Add four circle primitives for the rounded corners*
1,1,$1+$1,$2,$3*
1,1,$1+$1,$4,$5*
1,1,$1+$1,$6,$7*
1,1,$1+$1,$8,$9*
0 Add four rect primitives between the rounded corners*
20,1,$1+$1,$2,$3,$4,$5,0*
20,1,$1+$1,$4,$5,$6,$7,0*
20,1,$1+$1,$6,$7,$8,$9,0*
20,1,$1+$1,$8,$9,$2,$3,0*%
G04 Aperture macros list end*
%TA.AperFunction,ComponentPad*%
%ADD10C,0.600000*%
%TD*%
%TA.AperFunction,SMDPad,CuDef*%
%ADD11R,2.400000X1.650000*%
%TD*%
%TA.AperFunction,HeatsinkPad*%
%ADD12O,1.000000X2.100000*%
%TD*%
%TA.AperFunction,HeatsinkPad*%
%ADD13O,1.000000X1.600000*%
%TD*%
%TA.AperFunction,SMDPad,CuDef*%
%ADD14R,0.350000X2.500000*%
%TD*%
%TA.AperFunction,ComponentPad*%
%ADD15C,5.500000*%
%TD*%
%TA.AperFunction,HeatsinkPad*%
%ADD16C,0.425000*%
%TD*%
%TA.AperFunction,SMDPad,CuDef*%
%ADD17RoundRect,0.140000X-0.170000X0.140000X-0.170000X-0.140000X0.170000X-0.140000X0.170000X0.140000X0*%
%TD*%
%TA.AperFunction,SMDPad,CuDef*%
%ADD18RoundRect,0.140000X0.170000X-0.140000X0.170000X0.140000X-0.170000X0.140000X-0.170000X-0.140000X0*%
%TD*%
%TA.AperFunction,SMDPad,CuDef*%
%ADD19RoundRect,0.140000X-0.140000X-0.170000X0.140000X-0.170000X0.140000X0.170000X-0.140000X0.170000X0*%
%TD*%
%TA.AperFunction,SMDPad,CuDef*%
%ADD20RoundRect,0.140000X0.140000X0.170000X-0.140000X0.170000X-0.140000X-0.170000X0.140000X-0.170000X0*%
%TD*%
%TA.AperFunction,SMDPad,CuDef*%
%ADD21RoundRect,0.125000X0.175000X0.125000X-0.175000X0.125000X-0.175000X-0.125000X0.175000X-0.125000X0*%
%TD*%
%TA.AperFunction,SMDPad,CuDef*%
%ADD22RoundRect,0.135000X-0.135000X-0.185000X0.135000X-0.185000X0.135000X0.185000X-0.135000X0.185000X0*%
%TD*%
%TA.AperFunction,SMDPad,CuDef*%
%ADD23RoundRect,0.250000X-0.650000X1.000000X-0.650000X-1.000000X0.650000X-1.000000X0.650000X1.000000X0*%
%TD*%
%TA.AperFunction,SMDPad,CuDef*%
%ADD24RoundRect,0.250000X-0.625000X0.312500X-0.625000X-0.312500X0.625000X-0.312500X0.625000X0.312500X0*%
%TD*%
%TA.AperFunction,SMDPad,CuDef*%
%ADD25RoundRect,0.112500X-0.112500X-0.237500X0.112500X-0.237500X0.112500X0.237500X-0.112500X0.237500X0*%
%TD*%
%TA.AperFunction,ViaPad*%
%ADD26C,0.400000*%
%TD*%
%TA.AperFunction,ViaPad*%
%ADD27C,0.450000*%
%TD*%
%TA.AperFunction,Conductor*%
%ADD28C,0.174000*%
%TD*%
%TA.AperFunction,Conductor*%
%ADD29C,0.200000*%
%TD*%
%TA.AperFunction,Conductor*%
%ADD30C,0.400000*%
%TD*%
%TA.AperFunction,Conductor*%
%ADD31C,0.350000*%
%TD*%
%TA.AperFunction,Conductor*%
%ADD32C,0.150000*%
%TD*%
%TA.AperFunction,Conductor*%
%ADD33C,0.250000*%
%TD*%
%TA.AperFunction,Conductor*%
%ADD34C,0.500000*%
%TD*%
%TA.AperFunction,Conductor*%
%ADD35C,0.120100*%
%TD*%
%TA.AperFunction,Conductor*%
%ADD36C,0.157700*%
%TD*%
G04 APERTURE END LIST*
D10*
%TO.P,IC7,11,PAD*%
%TO.N,GND*%
X5890000Y68620000D03*
X7610000Y68620000D03*
X6750000Y69100000D03*
D11*
X6750000Y69100000D03*
D10*
X5890000Y69580000D03*
X7610000Y69580000D03*
%TD*%
D12*
%TO.P,J3,S1,SHIELD*%
%TO.N,SHIELD*%
X27795000Y75120000D03*
D13*
X27795000Y79300000D03*
D12*
X19155000Y75120000D03*
D13*
X19155000Y79300000D03*
%TD*%
D14*
%TO.P,J1,2,2*%
%TO.N,GND*%
X23675000Y1850000D03*
%TO.P,J1,4,4*%
%TO.N,/Project Architecture/GPIO27*%
X23175000Y1850000D03*
%TO.P,J1,6,6*%
%TO.N,/Project Architecture/GPIO26*%
X22675000Y1850000D03*
%TO.P,J1,8,8*%
%TO.N,/Project Architecture/GPIO25*%
X22175000Y1850000D03*
%TO.P,J1,10,10*%
%TO.N,/Project Architecture/PWR*%
X21675000Y1850000D03*
%TO.P,J1,12,12*%
X21175000Y1850000D03*
%TO.P,J1,14,14*%
X20675000Y1850000D03*
%TO.P,J1,16,16*%
X20175000Y1850000D03*
%TO.P,J1,18,18*%
%TO.N,GND*%
X19675000Y1850000D03*
%TO.P,J1,20,20*%
X19175000Y1850000D03*
%TO.P,J1,22,22*%
X18675000Y1850000D03*
%TO.P,J1,24,24*%
X18175000Y1850000D03*
%TO.P,J1,26,26*%
X17675000Y1850000D03*
%TO.P,J1,28,28*%
%TO.N,/Project Architecture/CAN_P*%
X17175000Y1850000D03*
%TO.P,J1,30,30*%
%TO.N,/Project Architecture/CAN_N*%
X16675000Y1850000D03*
%TO.P,J1,32,32*%
%TO.N,GND*%
X16175000Y1850000D03*
%TO.P,J1,34,34*%
%TO.N,/Project Architecture/Microcontroller/GPIO37*%
X15675000Y1850000D03*
%TO.P,J1,36,36*%
%TO.N,/Project Architecture/Microcontroller/GPIO38*%
X15175000Y1850000D03*
%TO.P,J1,38,38*%
%TO.N,GND*%
X14675000Y1850000D03*
%TO.P,J1,40,40*%
%TO.N,/Project Architecture/Microcontroller/GPIO39*%
X14175000Y1850000D03*
%TO.P,J1,42,42*%
%TO.N,GND*%
X13675000Y1850000D03*
%TO.P,J1,44,44*%
X13175000Y1850000D03*
%TO.P,J1,46,46*%
%TO.N,/Project Architecture/ADC0*%
X12675000Y1850000D03*
%TO.P,J1,48,48*%
%TO.N,/Project Architecture/ADC1*%
X12175000Y1850000D03*
%TO.P,J1,50,50*%
%TO.N,/Project Architecture/ADC2*%
X11675000Y1850000D03*
%TO.P,J1,52,52*%
%TO.N,/Project Architecture/ADC3*%
X11175000Y1850000D03*
%TO.P,J1,54,54*%
%TO.N,/Project Architecture/ADC4*%
X10675000Y1850000D03*
%TO.P,J1,56,56*%
%TO.N,/Project Architecture/ADC5*%
X10175000Y1850000D03*
%TO.P,J1,58,58*%
%TO.N,GND*%
X9675000Y1850000D03*
%TO.P,J1,68,68*%
X7175000Y1850000D03*
%TO.P,J1,70,70*%
X6675000Y1850000D03*
%TO.P,J1,72,72*%
%TO.N,VBUS*%
X6175000Y1850000D03*
%TO.P,J1,74,74*%
X5675000Y1850000D03*
D15*
%TO.P,J1,SH1,SHIELD*%
%TO.N,GND*%
X14721447Y80770000D03*
%TD*%
D16*
%TO.P,IC1,81,GND*%
%TO.N,GND*%
X15529212Y50595788D03*
X15529212Y51445788D03*
X15529212Y52295788D03*
X14679212Y50595788D03*
X14679212Y51445788D03*
X14679212Y52295788D03*
X13829212Y50595788D03*
X13829212Y51445788D03*
X13829212Y52295788D03*
%TD*%
D17*
%TO.P,C14,1*%
%TO.N,+1V1*%
X14079212Y55470788D03*
%TO.P,C14,2*%
%TO.N,GND*%
X14079212Y54510788D03*
%TD*%
%TO.P,C4,1*%
%TO.N,+3.3V*%
X15304212Y55470788D03*
%TO.P,C4,2*%
%TO.N,GND*%
X15304212Y54510788D03*
%TD*%
%TO.P,C3,1*%
%TO.N,+3.3V*%
X17304212Y55445788D03*
%TO.P,C3,2*%
%TO.N,GND*%
X17304212Y54485788D03*
%TD*%
D18*
%TO.P,C8,1*%
%TO.N,+3.3V*%
X10679212Y47640788D03*
%TO.P,C8,2*%
%TO.N,GND*%
X10679212Y48600788D03*
%TD*%
D19*
%TO.P,C7,1*%
%TO.N,+3.3V*%
X10694212Y51945788D03*
%TO.P,C7,2*%
%TO.N,GND*%
X11654212Y51945788D03*
%TD*%
%TO.P,C5,1*%
%TO.N,+3.3V*%
X10699212Y55245788D03*
%TO.P,C5,2*%
%TO.N,GND*%
X11659212Y55245788D03*
%TD*%
%TO.P,C15,1*%
%TO.N,+1V1*%
X10694212Y50995788D03*
%TO.P,C15,2*%
%TO.N,GND*%
X11654212Y50995788D03*
%TD*%
D20*
%TO.P,C31,1*%
%TO.N,Net-(IC1B-GPIO46{slash}ADC6)*%
X5404212Y44820788D03*
%TO.P,C31,2*%
%TO.N,GND*%
X4444212Y44820788D03*
%TD*%
%TO.P,C27,1*%
%TO.N,Net-(IC1B-GPIO42{slash}ADC2)*%
X5409212Y48770788D03*
%TO.P,C27,2*%
%TO.N,GND*%
X4449212Y48770788D03*
%TD*%
D21*
%TO.P,D1,1,K1*%
%TO.N,/Project Architecture/Microcontroller Peripherals/I2C0_SDA*%
X13200000Y70000000D03*
%TO.P,D1,2,K2*%
%TO.N,/Project Architecture/Microcontroller Peripherals/I2C0_SCL*%
X13200000Y69000000D03*
%TO.P,D1,3,A*%
%TO.N,GND*%
X11900000Y69500000D03*
%TD*%
D18*
%TO.P,C9,1*%
%TO.N,+3.3V*%
X14079212Y47465788D03*
%TO.P,C9,2*%
%TO.N,GND*%
X14079212Y48425788D03*
%TD*%
D22*
%TO.P,R18,1*%
%TO.N,+3.3V*%
X12060000Y67730000D03*
%TO.P,R18,2*%
%TO.N,/Project Architecture/Microcontroller Peripherals/I2C0_SCL*%
X13080000Y67730000D03*
%TD*%
D20*
%TO.P,C32,1*%
%TO.N,Net-(IC1B-GPIO47{slash}ADC7)*%
X5404212Y43845788D03*
%TO.P,C32,2*%
%TO.N,GND*%
X4444212Y43845788D03*
%TD*%
%TO.P,C1,1*%
%TO.N,+3.3V*%
X18589212Y49270788D03*
%TO.P,C1,2*%
%TO.N,GND*%
X17629212Y49270788D03*
%TD*%
D23*
%TO.P,D8,1,K*%
%TO.N,+5V*%
X16400000Y63800000D03*
%TO.P,D8,2,A*%
%TO.N,VBUS_ONBOARD*%
X16400000Y59800000D03*
%TD*%
D24*
%TO.P,R57,1*%
%TO.N,SHIELD*%
X16900000Y76262500D03*
%TO.P,R57,2*%
%TO.N,GND*%
X16900000Y73337500D03*
%TD*%
D18*
%TO.P,C33,1*%
%TO.N,Net-(C33-Pad1)*%
X11525000Y14995000D03*
%TO.P,C33,2*%
%TO.N,GND*%
X11525000Y15955000D03*
%TD*%
D20*
%TO.P,C13,1*%
%TO.N,+1V1*%
X18734212Y51270788D03*
%TO.P,C13,2*%
%TO.N,GND*%
X17774212Y51270788D03*
%TD*%
%TO.P,C2,1*%
%TO.N,+3.3V*%
X18734212Y53245788D03*
%TO.P,C2,2*%
%TO.N,GND*%
X17774212Y53245788D03*
%TD*%
%TO.P,C30,1*%
%TO.N,Net-(IC1B-GPIO45{slash}ADC5)*%
X5409212Y45795788D03*
%TO.P,C30,2*%
%TO.N,GND*%
X4449212Y45795788D03*
%TD*%
D25*
%TO.P,D9,1,K1*%
%TO.N,/Project Architecture/CAN Interface/IC_CAN_N*%
X10900000Y19400000D03*
%TO.P,D9,2,K2*%
%TO.N,/Project Architecture/CAN Interface/IC_CAN_P*%
X12200000Y19400000D03*
%TO.P,D9,3,A*%
%TO.N,GND*%
X11550000Y17400000D03*
%TD*%
D22*
%TO.P,R17,1*%
%TO.N,+3.3V*%
X12050000Y71260000D03*
%TO.P,R17,2*%
%TO.N,/Project Architecture/Microcontroller Peripherals/I2C0_SDA*%
X13070000Y71260000D03*
%TD*%
D20*
%TO.P,C26,1*%
%TO.N,Net-(IC1B-GPIO41{slash}ADC1)*%
X5429212Y49745788D03*
%TO.P,C26,2*%
%TO.N,GND*%
X4469212Y49745788D03*
%TD*%
D18*
%TO.P,C16,1*%
%TO.N,+1V1*%
X12754212Y47465788D03*
%TO.P,C16,2*%
%TO.N,GND*%
X12754212Y48425788D03*
%TD*%
D20*
%TO.P,C25,1*%
%TO.N,Net-(IC1B-GPIO40{slash}ADC0)*%
X5429212Y50720788D03*
%TO.P,C25,2*%
%TO.N,GND*%
X4469212Y50720788D03*
%TD*%
D18*
%TO.P,C10,1*%
%TO.N,+3.3V*%
X16879212Y47390788D03*
%TO.P,C10,2*%
%TO.N,GND*%
X16879212Y48350788D03*
%TD*%
D20*
%TO.P,C28,1*%
%TO.N,Net-(IC1B-GPIO43{slash}ADC3)*%
X5404212Y47770788D03*
%TO.P,C28,2*%
%TO.N,GND*%
X4444212Y47770788D03*
%TD*%
%TO.P,C29,1*%
%TO.N,Net-(IC1B-GPIO44{slash}ADC4)*%
X5404212Y46770788D03*
%TO.P,C29,2*%
%TO.N,GND*%
X4444212Y46770788D03*
%TD*%
D26*
%TO.N,GND*%
X7500000Y64725000D03*
X9150000Y58100000D03*
D27*
X19675000Y73475000D03*
D26*
X14250000Y24250000D03*
X24000000Y43000000D03*
X18410000Y4640000D03*
X5875000Y9700000D03*
D27*
X20825000Y71150000D03*
X9370000Y24496408D03*
D26*
X8700000Y7200000D03*
X19750000Y32350000D03*
X7500000Y20500000D03*
X14250000Y20500000D03*
X1400000Y23475000D03*
X10200000Y19350000D03*
X24000000Y40000000D03*
X24000000Y41500000D03*
X3650000Y57400000D03*
D27*
X10170000Y24496408D03*
D26*
X14250000Y25500000D03*
X6750000Y62900000D03*
X14250000Y21750000D03*
X26000000Y7100000D03*
X27200000Y10500000D03*
X18500000Y25750000D03*
X6000000Y78500000D03*
X17750000Y34600000D03*
X13810000Y75255000D03*
X17250000Y29500000D03*
X18500000Y30750000D03*
X15040000Y74500000D03*
X12325000Y55250000D03*
D27*
X22875000Y63250000D03*
D26*
X12475000Y64200000D03*
D27*
X10170000Y23696408D03*
D26*
X6500000Y28500000D03*
X28000000Y5100000D03*
X13000000Y20500000D03*
X8850000Y78550000D03*
X20600000Y58600000D03*
X3300000Y10100000D03*
D27*
X17000000Y23950000D03*
D26*
X9700000Y62000000D03*
D27*
X9370000Y23696408D03*
D26*
X9275000Y15000000D03*
X17250000Y30750000D03*
X23200000Y31350000D03*
X19750000Y27000000D03*
X14250000Y23000000D03*
X4050000Y64700000D03*
X19750000Y29500000D03*
D27*
X12950000Y17400000D03*
D26*
X21420000Y4640000D03*
X1800000Y5225000D03*
X10665836Y45034164D03*
X22750000Y41500000D03*
X11400000Y69050000D03*
D27*
X17477407Y68534304D03*
D26*
X7425000Y9700000D03*
X19750000Y28250000D03*
X8750000Y21750000D03*
X26000000Y5100000D03*
X22650000Y59025000D03*
X18750000Y32350000D03*
X17758697Y33528588D03*
X12900000Y19350000D03*
X4134800Y42925000D03*
D27*
X10200000Y17400000D03*
X14475000Y30525000D03*
X27000000Y69100000D03*
X10650000Y27350000D03*
D26*
X2325000Y13100000D03*
X21425000Y36700000D03*
X1100000Y6000000D03*
X16152914Y61957437D03*
X8100000Y5625000D03*
X6475000Y37975000D03*
D27*
X17477407Y69184304D03*
X26775000Y72775000D03*
X20000000Y69800000D03*
D26*
X14700000Y67450000D03*
X5262500Y73787500D03*
X17625000Y48525000D03*
X2050000Y75450000D03*
X18750000Y34600000D03*
X11650000Y52575000D03*
X16200000Y67450000D03*
D27*
X10075000Y9000000D03*
D26*
X17450000Y78350000D03*
X17750000Y32350000D03*
X3300000Y9050000D03*
X8200000Y38945000D03*
X19750000Y30750000D03*
X21250000Y44500000D03*
X7475000Y35575000D03*
X28000000Y7100000D03*
X11651527Y50326527D03*
X12939472Y10842202D03*
X1075000Y7000000D03*
X11344364Y9359032D03*
D27*
X11288230Y36947230D03*
D26*
X8500000Y72550000D03*
X18758697Y33528588D03*
D27*
X9200000Y28900000D03*
D26*
X13925000Y42325000D03*
X21250000Y43000000D03*
D27*
X19675000Y72800000D03*
X28600000Y69100000D03*
D26*
X17000000Y73362500D03*
X10675000Y49250000D03*
X3700000Y54200000D03*
X3750000Y52150000D03*
X15300000Y53900000D03*
X17150000Y42300000D03*
X8800000Y27800000D03*
X16550000Y54475000D03*
X18758697Y35697756D03*
X5575000Y5525000D03*
X5900000Y77125000D03*
X5550000Y79700000D03*
X23925000Y4650000D03*
X11550000Y48225000D03*
D27*
X10970000Y23696408D03*
D26*
X6500000Y29750000D03*
X10000000Y20500000D03*
X1475000Y28125000D03*
D27*
X12556391Y37023458D03*
D26*
X9425000Y4925000D03*
X17758697Y35697756D03*
X17100000Y51275000D03*
X8225000Y65400000D03*
X13000000Y24250000D03*
D27*
X14600000Y4725000D03*
D26*
X7500000Y21750000D03*
X18500000Y29500000D03*
X8675000Y73875000D03*
X18500000Y28250000D03*
X27200000Y8100000D03*
X2400000Y18975000D03*
X8750000Y20500000D03*
D27*
X27200000Y73550000D03*
X10970000Y24496408D03*
D26*
X20000000Y46000000D03*
X7100000Y23700000D03*
X13000000Y25500000D03*
X12776527Y49201527D03*
X13825000Y14950000D03*
D27*
X14300000Y68500000D03*
X20000000Y69150000D03*
X20000000Y68500000D03*
X17477407Y69834304D03*
D26*
X14100000Y49178200D03*
X26000000Y7100000D03*
X13207306Y34500000D03*
X9650000Y75250000D03*
X25125000Y59000000D03*
X19750000Y34600000D03*
X19758697Y35697756D03*
X12225000Y42325000D03*
X14075000Y53900000D03*
X19758697Y33528588D03*
D27*
X17477407Y67884304D03*
D26*
X11750000Y21750000D03*
D27*
X14475000Y28875000D03*
D26*
X18500000Y27000000D03*
X11500000Y43000000D03*
X17100000Y53250000D03*
X13000000Y21750000D03*
D27*
X20000000Y67850000D03*
X9900000Y38900000D03*
D26*
X5075000Y64700000D03*
X15325000Y73680000D03*
X14600000Y31340000D03*
X16562573Y49190627D03*
X8475000Y71000000D03*
X14250000Y26500000D03*
X3350000Y65450000D03*
D27*
X22300000Y65400000D03*
D26*
X9036626Y71810000D03*
X13975000Y65025000D03*
%TO.N,+5V*%
X4000000Y68100000D03*
X8475000Y67625000D03*
X3000000Y68100000D03*
X2400000Y21650000D03*
X3000000Y67100000D03*
X3325000Y66375000D03*
X4000000Y67100000D03*
X2000000Y68100000D03*
X2000000Y67100000D03*
X2400000Y20350000D03*
X2400000Y21000000D03*
%TO.N,+3.3V*%
X3500000Y74600000D03*
D27*
X10850000Y28025000D03*
D26*
X2500000Y73600000D03*
X11385876Y67935876D03*
X10679212Y47670788D03*
X12050000Y71300000D03*
X1500000Y74600000D03*
X18729212Y53245788D03*
X10704212Y55245788D03*
X3500000Y73600000D03*
X24600000Y62950000D03*
D27*
X14600000Y33100000D03*
D26*
X2500000Y74600000D03*
X17279212Y55470788D03*
X3500000Y71600000D03*
X3720000Y42150000D03*
X13895000Y71245000D03*
X7394192Y42703494D03*
X10654212Y51845788D03*
X18589212Y49270788D03*
X11879212Y47445788D03*
D27*
X8775000Y26675000D03*
D26*
X3480331Y63180331D03*
X1500000Y72600000D03*
X4497224Y73585855D03*
D27*
X9350000Y76500000D03*
X7100000Y22600000D03*
D26*
X14054212Y47420788D03*
X2500000Y71600000D03*
X1850000Y61925000D03*
X4500000Y71600000D03*
X16879212Y47445788D03*
X1500000Y71600000D03*
X21675000Y28775000D03*
X4625000Y75525000D03*
X6475000Y64700000D03*
X15279212Y55470788D03*
X1500000Y73600000D03*
X4500000Y74600000D03*
D27*
%TO.N,VREF_OUT*%
X8200000Y39905000D03*
X7900000Y36400000D03*
D26*
%TO.N,/Project Architecture/Microcontroller Peripherals/VREF_IN*%
X7150000Y37025000D03*
X15775000Y71250000D03*
D27*
%TO.N,Net-(C33-Pad1)*%
X10050000Y15000000D03*
X13085000Y14975000D03*
D26*
%TO.N,+1V1*%
X12679212Y47445788D03*
X14054212Y55445788D03*
X18779212Y51245788D03*
X10654212Y51045788D03*
%TO.N,VBUS*%
X4500000Y5600000D03*
X3275000Y79350000D03*
X3500000Y5600000D03*
X2475000Y11700000D03*
X3500000Y6600000D03*
X4500000Y6600000D03*
%TO.N,/Project Architecture/Microcontroller/ADC_VUSB*%
X1050000Y10050000D03*
X3575000Y44750000D03*
D27*
%TO.N,HEARTBEAT*%
X14350000Y28125000D03*
X11350000Y41750000D03*
X4750000Y54600000D03*
%TO.N,/Project Architecture/Microcontroller Peripherals/I2C0_SCL*%
X14600000Y69250000D03*
D26*
X4800000Y57550000D03*
%TO.N,/Project Architecture/Microcontroller Peripherals/I2C0_SDA*%
X4775000Y58350000D03*
D27*
X11226000Y70026000D03*
D26*
X12960000Y71380000D03*
D27*
%TO.N,QSPI_SS*%
X22950000Y30575000D03*
X27150000Y14525000D03*
D26*
%TO.N,/Project Architecture/Microcontroller Peripherals/SWDIO*%
X13100000Y59100000D03*
X7200000Y26700000D03*
%TO.N,/Project Architecture/Microcontroller Peripherals/SWCLK*%
X13766212Y58300000D03*
X7300000Y24800000D03*
%TO.N,/Project Architecture/GPIO22*%
X23450000Y8850000D03*
X24626624Y61326624D03*
%TO.N,/Project Architecture/GPIO23*%
X23250000Y6900000D03*
X24700000Y62100000D03*
%TO.N,/Project Architecture/GPIO18*%
X21266587Y8033413D03*
X24700000Y57550000D03*
%TO.N,/Project Architecture/GPIO27*%
X24950000Y5325000D03*
X18970000Y65330000D03*
D27*
%TO.N,/Project Architecture/CAN Interface/IC_CAN_N*%
X11050000Y19375000D03*
%TO.N,/Project Architecture/PWR*%
X28250000Y64800000D03*
X28250000Y63600000D03*
D26*
X10025000Y65725000D03*
X10025000Y66250000D03*
D27*
X28250000Y64200000D03*
D26*
X10025000Y65175000D03*
%TO.N,/Project Architecture/ADC0*%
X3675000Y50725000D03*
X8900000Y15700000D03*
%TO.N,/Project Architecture/GPIO26*%
X24825000Y5900000D03*
X19760000Y65310000D03*
%TO.N,/Project Architecture/ADC5*%
X9250000Y5675000D03*
X3575000Y45750000D03*
%TO.N,/Project Architecture/GPIO25*%
X20538947Y65475584D03*
X24550000Y6450000D03*
%TO.N,/Project Architecture/GPIO21*%
X22883724Y8839516D03*
X24700000Y60500000D03*
%TO.N,/Project Architecture/ADC4*%
X3550000Y46775000D03*
X9350000Y6475000D03*
%TO.N,/Project Architecture/GPIO19*%
X24700000Y58300000D03*
X21875000Y8000000D03*
D27*
%TO.N,/Project Architecture/CAN Interface/IC_CAN_P*%
X12050000Y19375000D03*
D26*
%TO.N,/Project Architecture/GPIO20*%
X22350000Y8575000D03*
X24700000Y59730000D03*
%TO.N,/Project Architecture/GPIO24*%
X21366572Y65475000D03*
X24075000Y7050000D03*
%TO.N,Net-(IC1B-GPIO40{slash}ADC0)*%
X5425728Y50817350D03*
%TO.N,Net-(IC1B-GPIO41{slash}ADC1)*%
X5465409Y49791321D03*
%TO.N,Net-(IC1B-GPIO42{slash}ADC2)*%
X5448403Y48793636D03*
%TO.N,Net-(IC1B-GPIO43{slash}ADC3)*%
X5414391Y47807288D03*
%TO.N,Net-(IC1B-GPIO44{slash}ADC4)*%
X5397385Y46798265D03*
%TO.N,Net-(IC1B-GPIO45{slash}ADC5)*%
X5397385Y45732555D03*
%TO.N,Net-(IC1B-GPIO46{slash}ADC6)*%
X5454072Y44774550D03*
%TO.N,Net-(IC1B-GPIO47{slash}ADC7)*%
X5442734Y43884569D03*
%TO.N,/Project Architecture/ADC2*%
X3575000Y48775000D03*
X7900000Y17100000D03*
%TO.N,/Project Architecture/ADC3*%
X7300000Y17700000D03*
X3575000Y47800000D03*
%TO.N,/Project Architecture/ADC1*%
X3625000Y49750000D03*
X8400000Y16200000D03*
%TO.N,/Project Architecture/Microcontroller Peripherals/ADC_VREF*%
X3575000Y43775000D03*
X6430000Y35550000D03*
D27*
%TO.N,/Project Architecture/Microcontroller/GPIO38*%
X12750000Y40175000D03*
X13950000Y5750000D03*
X4725000Y53025000D03*
%TO.N,/Project Architecture/Microcontroller/GPIO37*%
X14125000Y6425000D03*
X12950000Y41125000D03*
X4750000Y53825000D03*
%TO.N,/Project Architecture/Microcontroller/GPIO39*%
X4725000Y52225000D03*
X13925000Y4450000D03*
X12600000Y39225000D03*
%TO.N,/Project Architecture/Microcontroller/SPI1_SCLK*%
X4800000Y60600000D03*
X4800000Y59233788D03*
%TO.N,VBUS_ONBOARD*%
X25725000Y76375000D03*
X26720000Y60775000D03*
X21050000Y73475000D03*
X25875000Y74480000D03*
X25875000Y73450000D03*
D26*
X22250000Y67200000D03*
X21600000Y67200000D03*
D27*
X21225000Y76375000D03*
D26*
X21000000Y67200000D03*
D27*
X21075000Y74480000D03*
X25875000Y71300000D03*
%TO.N,USB_D-*%
X28273510Y68471105D03*
D26*
X6325000Y8900000D03*
D27*
%TO.N,USB_D+*%
X27417989Y68455114D03*
D26*
X7025000Y8900000D03*
D27*
%TO.N,USB_ONB_D+*%
X22601747Y69451126D03*
X22197071Y77154054D03*
%TO.N,USB_ONB_D-*%
X22738102Y77732397D03*
X23357324Y69463119D03*
%TO.N,/Project Architecture/USB Interface and Power/USB_RP_D+*%
X22300000Y63981852D03*
X13484743Y42748112D03*
%TO.N,/Project Architecture/USB Interface and Power/USB_RP_D-*%
X12676013Y42759449D03*
X22300000Y64768079D03*
D26*
%TO.N,SHIELD*%
X16950000Y76275000D03*
D27*
%TO.N,/Project Architecture/Microcontroller/SPI1_MISO*%
X2587961Y61512039D03*
X2800000Y60100000D03*
%TO.N,Net-(IC29-RXD)*%
X12000000Y25700000D03*
X8550000Y25500000D03*
%TO.N,/Project Architecture/CAN_P*%
X12467736Y10382460D03*
%TO.N,/Project Architecture/CAN_N*%
X11832091Y9826770D03*
%TO.N,/Project Architecture/Microcontroller/CAN_RST*%
X4500000Y56600000D03*
X9712000Y36200000D03*
X10200000Y29700000D03*
X3900000Y55200000D03*
%TD*%
D28*
%TO.N,GND*%
X16175000Y5250000D02*
X16175000Y1850000D01*
D29*
X14200000Y42600000D02*
X14200000Y43400000D01*
D28*
X11525000Y15955000D02*
X11525000Y17375000D01*
D29*
X22875000Y50200000D02*
X22875000Y63250000D01*
D28*
X13175000Y10475000D02*
X13175000Y9950000D01*
D30*
X12754212Y49179212D02*
X12776527Y49201527D01*
X11654212Y52570788D02*
X11654212Y51945788D01*
X14079212Y48425788D02*
X14079212Y49157412D01*
D31*
X16962500Y73325000D02*
X17000000Y73362500D01*
D28*
X19375000Y4650000D02*
X19365000Y4640000D01*
D29*
X19170212Y48870212D02*
X18500000Y48200000D01*
D28*
X14150000Y5175000D02*
X13175000Y5175000D01*
D30*
X17104212Y51270788D02*
X17100000Y51275000D01*
X11659212Y55245788D02*
X12320788Y55245788D01*
D28*
X13175000Y9950000D02*
X17500000Y5625000D01*
D29*
X22300000Y65400000D02*
X22000093Y65400000D01*
D30*
X16879212Y48350788D02*
X16879212Y48873988D01*
D29*
X22900000Y46300000D02*
X22875000Y46325000D01*
D28*
X19175000Y4225000D02*
X19025000Y4375000D01*
D30*
X12320788Y55245788D02*
X12325000Y55250000D01*
X17304212Y54485788D02*
X16560788Y54485788D01*
D28*
X11344364Y9359032D02*
X11615968Y9359032D01*
X14675000Y1850000D02*
X14675000Y4650000D01*
D29*
X7200000Y9925000D02*
X7425000Y9700000D01*
D32*
X11900000Y69500000D02*
X11850000Y69500000D01*
D29*
X25800000Y69100000D02*
X24100000Y67400000D01*
D28*
X18175000Y4405000D02*
X18410000Y4640000D01*
D30*
X17450788Y48350788D02*
X17625000Y48525000D01*
D29*
X5875000Y9700000D02*
X5326000Y10249000D01*
X16400000Y44200000D02*
X22400000Y50200000D01*
X5326000Y18874000D02*
X5100000Y19100000D01*
D33*
X6675000Y1845000D02*
X6925000Y1845000D01*
D30*
X16879212Y48873988D02*
X16562573Y49190627D01*
X15304212Y53904212D02*
X15300000Y53900000D01*
D28*
X19175000Y1850000D02*
X19175000Y4225000D01*
X12939472Y10842202D02*
X12939472Y10710528D01*
D29*
X23675000Y1845000D02*
X23675000Y4400000D01*
D33*
X9675000Y4675000D02*
X9425000Y4925000D01*
D30*
X10679212Y49245788D02*
X10675000Y49250000D01*
D29*
X14200000Y43400000D02*
X15000000Y44200000D01*
X19170212Y49000000D02*
X19170212Y48870212D01*
D28*
X17500000Y4175000D02*
X17675000Y4000000D01*
X18175000Y1850000D02*
X18175000Y4405000D01*
X11550000Y17400000D02*
X12950000Y17400000D01*
D29*
X5100000Y19100000D02*
X5100000Y31300000D01*
D33*
X6925000Y1845000D02*
X7175000Y1845000D01*
D29*
X6500000Y28000000D02*
X6500000Y15800000D01*
X9474000Y35674000D02*
X14274000Y35674000D01*
X22875000Y46325000D02*
X22875000Y50200000D01*
X5326000Y10249000D02*
X5326000Y18874000D01*
D28*
X25200000Y70400000D02*
X27700000Y70400000D01*
D30*
X17104212Y53245788D02*
X17100000Y53250000D01*
X16879212Y48350788D02*
X17450788Y48350788D01*
D29*
X5100000Y31300000D02*
X9474000Y35674000D01*
D30*
X11654212Y50995788D02*
X11654212Y51945788D01*
D29*
X6500000Y15800000D02*
X7200000Y15100000D01*
D28*
X13175000Y5575000D02*
X11925000Y6825000D01*
X13175000Y3825000D02*
X13175000Y5175000D01*
X12200000Y9225000D02*
X16175000Y5250000D01*
D30*
X11654212Y50995788D02*
X11654212Y50329212D01*
X17629212Y48529212D02*
X17625000Y48525000D01*
D33*
X6925000Y1845000D02*
X6925000Y4450000D01*
D32*
X11850000Y69500000D02*
X11400000Y69050000D01*
D28*
X19025000Y4375000D02*
X18675000Y4375000D01*
X13450000Y3825000D02*
X13175000Y3825000D01*
X11925000Y6825000D02*
X10075000Y8675000D01*
D30*
X10679212Y48600788D02*
X10679212Y49245788D01*
D29*
X14800000Y46400000D02*
X11500000Y43100000D01*
X24100000Y43900000D02*
X14700000Y34500000D01*
D28*
X22875000Y68075000D02*
X24800000Y70000000D01*
D29*
X20900000Y64900000D02*
X20200000Y64200000D01*
X16825974Y46400000D02*
X14800000Y46400000D01*
D30*
X17774212Y51270788D02*
X17104212Y51270788D01*
D28*
X11550000Y17400000D02*
X10200000Y17400000D01*
X13675000Y1850000D02*
X13675000Y3600000D01*
X19675000Y1850000D02*
X19675000Y4350000D01*
D29*
X10100000Y34500000D02*
X6600000Y31000000D01*
D30*
X17774212Y53245788D02*
X17104212Y53245788D01*
D29*
X14700000Y34500000D02*
X10100000Y34500000D01*
X14274000Y35674000D02*
X22900000Y44300000D01*
X6600000Y28100000D02*
X6500000Y28000000D01*
D28*
X27700000Y70400000D02*
X28600000Y69500000D01*
D29*
X22900000Y44300000D02*
X22900000Y46300000D01*
D28*
X14675000Y4650000D02*
X14600000Y4725000D01*
X11750000Y9225000D02*
X12200000Y9225000D01*
D30*
X11650000Y52575000D02*
X11654212Y52570788D01*
D29*
X21500093Y64900000D02*
X20900000Y64900000D01*
X6600000Y31000000D02*
X6600000Y28100000D01*
D28*
X22875000Y63250000D02*
X22875000Y68075000D01*
D33*
X18675000Y1845000D02*
X18675000Y4375000D01*
D29*
X18500000Y48074026D02*
X16825974Y46400000D01*
X11500000Y43100000D02*
X11500000Y43000000D01*
D28*
X13175000Y1850000D02*
X13175000Y3825000D01*
D29*
X13925000Y42325000D02*
X14200000Y42600000D01*
D28*
X19675000Y4350000D02*
X19375000Y4650000D01*
D29*
X20200000Y50029788D02*
X19170212Y49000000D01*
D30*
X14079212Y53904212D02*
X14075000Y53900000D01*
D31*
X16950000Y73325000D02*
X16962500Y73325000D01*
D29*
X7200000Y15100000D02*
X7200000Y9925000D01*
D28*
X28600000Y69500000D02*
X28600000Y69100000D01*
D30*
X17629212Y49270788D02*
X17629212Y48529212D01*
D28*
X17500000Y5625000D02*
X17500000Y4175000D01*
D30*
X15304212Y54510788D02*
X15304212Y53904212D01*
D29*
X22000093Y65400000D02*
X21500093Y64900000D01*
D28*
X12939472Y10710528D02*
X13175000Y10475000D01*
D30*
X12754212Y48425788D02*
X12754212Y49179212D01*
D28*
X13175000Y5175000D02*
X13175000Y5575000D01*
X10075000Y8675000D02*
X10075000Y9000000D01*
D29*
X18500000Y48200000D02*
X18500000Y48074026D01*
X27000000Y69100000D02*
X25800000Y69100000D01*
D30*
X11654212Y50329212D02*
X11651527Y50326527D01*
D29*
X22400000Y50200000D02*
X22875000Y50200000D01*
X15000000Y44200000D02*
X16400000Y44200000D01*
D28*
X13675000Y3600000D02*
X13450000Y3825000D01*
D30*
X14079212Y49157412D02*
X14100000Y49178200D01*
D29*
X20200000Y64200000D02*
X20200000Y50029788D01*
D33*
X18675000Y4375000D02*
X18410000Y4640000D01*
D28*
X24800000Y70000000D02*
X25200000Y70400000D01*
D30*
X14079212Y54510788D02*
X14079212Y53904212D01*
D33*
X9675000Y1845000D02*
X9675000Y4675000D01*
D28*
X14600000Y4725000D02*
X14150000Y5175000D01*
X11525000Y17375000D02*
X11550000Y17400000D01*
D30*
X16560788Y54485788D02*
X16550000Y54475000D01*
D29*
X24100000Y67400000D02*
X24100000Y43900000D01*
D33*
X6925000Y4450000D02*
X8100000Y5625000D01*
D29*
X23675000Y4400000D02*
X23925000Y4650000D01*
D28*
X11615968Y9359032D02*
X11750000Y9225000D01*
X17675000Y4000000D02*
X17675000Y1850000D01*
X19365000Y4640000D02*
X18410000Y4640000D01*
D34*
%TO.N,+5V*%
X14050000Y72800000D02*
X11100000Y72800000D01*
X14850000Y72000000D02*
X14050000Y72800000D01*
X15450000Y64750000D02*
X15450000Y70000000D01*
X9100000Y70800000D02*
X9100000Y68250000D01*
X9100000Y68250000D02*
X8475000Y67625000D01*
X14850000Y70600000D02*
X14850000Y72000000D01*
X11100000Y72800000D02*
X9100000Y70800000D01*
X15450000Y70000000D02*
X14850000Y70600000D01*
X16400000Y63800000D02*
X15450000Y64750000D01*
D32*
%TO.N,+3.3V*%
X11591752Y67730000D02*
X12060000Y67730000D01*
X11385876Y67935876D02*
X11591752Y67730000D01*
D31*
X12050000Y71260000D02*
X12050000Y71300000D01*
D32*
%TO.N,VREF_OUT*%
X7600000Y38100000D02*
X7600000Y39305000D01*
X7900000Y37800000D02*
X7600000Y38100000D01*
X7900000Y36400000D02*
X7900000Y37800000D01*
X7600000Y39305000D02*
X8200000Y39905000D01*
D28*
%TO.N,Net-(C33-Pad1)*%
X13065000Y14995000D02*
X13085000Y14975000D01*
X10055000Y14995000D02*
X10050000Y15000000D01*
X11525000Y14995000D02*
X13065000Y14995000D01*
X11525000Y14995000D02*
X10055000Y14995000D01*
D33*
%TO.N,VBUS*%
X6175000Y1845000D02*
X5925000Y1845000D01*
D32*
X775000Y74600000D02*
X749000Y74574000D01*
D33*
X4900000Y5025000D02*
X3850000Y5025000D01*
D32*
X1450000Y11700000D02*
X2475000Y11700000D01*
D33*
X5925000Y1845000D02*
X5675000Y1845000D01*
D32*
X749000Y12401000D02*
X1450000Y11700000D01*
X3275000Y79350000D02*
X1875000Y79350000D01*
D33*
X5925000Y4000000D02*
X5700000Y4225000D01*
D32*
X775000Y78250000D02*
X775000Y74600000D01*
D33*
X3850000Y5025000D02*
X3500000Y5375000D01*
D32*
X749000Y74574000D02*
X749000Y12401000D01*
X1875000Y79350000D02*
X775000Y78250000D01*
D33*
X5700000Y4225000D02*
X4900000Y5025000D01*
X3500000Y5375000D02*
X3500000Y6600000D01*
X5925000Y1845000D02*
X5925000Y4000000D01*
D28*
%TO.N,HEARTBEAT*%
X10175000Y42475000D02*
X9750000Y42900000D01*
X9750000Y50800000D02*
X8725000Y51825000D01*
X11350000Y41750000D02*
X10900000Y41750000D01*
X9750000Y45425000D02*
X9750000Y50800000D01*
X5950000Y54600000D02*
X4750000Y54600000D01*
X10900000Y41750000D02*
X10175000Y42475000D01*
X8725000Y51825000D02*
X5950000Y54600000D01*
X9750000Y42900000D02*
X9750000Y45425000D01*
D32*
%TO.N,/Project Architecture/Microcontroller Peripherals/I2C0_SCL*%
X7700000Y57550000D02*
X11375000Y61225000D01*
X13080000Y66780000D02*
X13080000Y67730000D01*
X13080000Y67730000D02*
X13080000Y68880000D01*
X4800000Y57550000D02*
X7700000Y57550000D01*
X13080000Y68880000D02*
X13200000Y69000000D01*
D28*
X12400000Y66150000D02*
X12450000Y66150000D01*
X13750000Y69000000D02*
X13200000Y69000000D01*
X14000000Y69250000D02*
X13750000Y69000000D01*
D32*
X11375000Y61225000D02*
X11375000Y65075000D01*
D28*
X14600000Y69250000D02*
X14000000Y69250000D01*
D32*
X11375000Y65075000D02*
X12450000Y66150000D01*
X12450000Y66150000D02*
X13080000Y66780000D01*
%TO.N,/Project Architecture/Microcontroller Peripherals/I2C0_SDA*%
X11226000Y70026000D02*
X13174000Y70026000D01*
X10800000Y61925000D02*
X10800000Y69600000D01*
X13174000Y70026000D02*
X13200000Y70000000D01*
X13070000Y71260000D02*
X13070000Y70130000D01*
X7225000Y58350000D02*
X10800000Y61925000D01*
X10800000Y69600000D02*
X11226000Y70026000D01*
X4775000Y58350000D02*
X7225000Y58350000D01*
D28*
%TO.N,QSPI_SS*%
X24400000Y30575000D02*
X22950000Y30575000D01*
X25475000Y29500000D02*
X24400000Y30575000D01*
X27150000Y14525000D02*
X27150000Y27825000D01*
X27150000Y27825000D02*
X25475000Y29500000D01*
D32*
%TO.N,/Project Architecture/GPIO27*%
X24950000Y5325000D02*
X23895000Y5325000D01*
X23895000Y5325000D02*
X23175000Y4605000D01*
X23175000Y4605000D02*
X23175000Y1845000D01*
D35*
%TO.N,/Project Architecture/CAN Interface/IC_CAN_N*%
X10900000Y19400000D02*
X10925000Y19375000D01*
X10925000Y19375000D02*
X11050000Y19375000D01*
D34*
%TO.N,/Project Architecture/PWR*%
X26275000Y8200000D02*
X28250000Y10175000D01*
D29*
X21675000Y1845000D02*
X21475000Y1845000D01*
D34*
X20425000Y5625000D02*
X23000000Y8200000D01*
X20425000Y1845000D02*
X20425000Y5625000D01*
X20425000Y1845000D02*
X21475000Y1845000D01*
D29*
X21475000Y1845000D02*
X21175000Y1845000D01*
D34*
X28250000Y64200000D02*
X28250000Y64800000D01*
D29*
X20175000Y1845000D02*
X20425000Y1845000D01*
D34*
X28250000Y10175000D02*
X28250000Y60625000D01*
D29*
X20675000Y1845000D02*
X21175000Y1845000D01*
D34*
X23000000Y8200000D02*
X26275000Y8200000D01*
D29*
X20425000Y1845000D02*
X20675000Y1845000D01*
D34*
X28250000Y60625000D02*
X28250000Y64200000D01*
D28*
%TO.N,/Project Architecture/ADC0*%
X8575000Y15375000D02*
X8575000Y13682000D01*
X12675000Y5455306D02*
X12675000Y1845000D01*
X9400000Y11725000D02*
X9400000Y8730306D01*
X8907000Y12218000D02*
X9400000Y11725000D01*
X8907000Y13350000D02*
X8907000Y12218000D01*
X9400000Y8730306D02*
X12675000Y5455306D01*
X8575000Y13682000D02*
X8907000Y13350000D01*
X8900000Y15700000D02*
X8575000Y15375000D01*
D32*
%TO.N,/Project Architecture/GPIO26*%
X24825000Y5900000D02*
X23940000Y5900000D01*
X22675000Y4635000D02*
X22675000Y1845000D01*
X23940000Y5900000D02*
X22675000Y4635000D01*
D28*
%TO.N,/Project Architecture/ADC5*%
X9875000Y5450000D02*
X9650000Y5675000D01*
X9650000Y5675000D02*
X9250000Y5675000D01*
X10175000Y5150000D02*
X9875000Y5450000D01*
X10175000Y1845000D02*
X10175000Y5150000D01*
D32*
%TO.N,/Project Architecture/GPIO25*%
X24525000Y6425000D02*
X23845000Y6425000D01*
X23845000Y6425000D02*
X22175000Y4755000D01*
X22175000Y4755000D02*
X22175000Y1845000D01*
X24550000Y6450000D02*
X24525000Y6425000D01*
D28*
%TO.N,/Project Architecture/ADC4*%
X10675000Y5625000D02*
X10275000Y6025000D01*
X9825000Y6475000D02*
X9350000Y6475000D01*
X10675000Y1845000D02*
X10675000Y5625000D01*
X10275000Y6025000D02*
X9825000Y6475000D01*
D35*
%TO.N,/Project Architecture/CAN Interface/IC_CAN_P*%
X12175000Y19375000D02*
X12050000Y19375000D01*
X12200000Y19400000D02*
X12175000Y19375000D01*
D32*
%TO.N,Net-(IC1B-GPIO41{slash}ADC1)*%
X5429212Y49755124D02*
X5465409Y49791321D01*
X5429212Y49745788D02*
X5429212Y49755124D01*
%TO.N,Net-(IC1B-GPIO42{slash}ADC2)*%
X5425555Y48770788D02*
X5409212Y48770788D01*
X5448403Y48793636D02*
X5425555Y48770788D01*
%TO.N,Net-(IC1B-GPIO43{slash}ADC3)*%
X5404212Y47797109D02*
X5404212Y47770788D01*
X5414391Y47807288D02*
X5404212Y47797109D01*
%TO.N,Net-(IC1B-GPIO46{slash}ADC6)*%
X5454072Y44774550D02*
X5454072Y44778716D01*
X5454072Y44778716D02*
X5412000Y44820788D01*
X5412000Y44820788D02*
X5404212Y44820788D01*
D28*
%TO.N,/Project Architecture/ADC2*%
X11675000Y5500000D02*
X11675000Y1845000D01*
X8796000Y8379000D02*
X11675000Y5500000D01*
X7971000Y15829000D02*
X7971000Y13254000D01*
X7800000Y17000000D02*
X7800000Y16000000D01*
X8796000Y11474816D02*
X8796000Y8379000D01*
X7900000Y17100000D02*
X7800000Y17000000D01*
X8300000Y11970816D02*
X8796000Y11474816D01*
X8300000Y12925000D02*
X8300000Y11970816D01*
X7971000Y13254000D02*
X8300000Y12925000D01*
X7800000Y16000000D02*
X7971000Y15829000D01*
%TO.N,/Project Architecture/ADC3*%
X8494000Y8253908D02*
X11175000Y5572908D01*
X11175000Y5572908D02*
X11175000Y1845000D01*
X7669000Y13102954D02*
X7998000Y12773954D01*
X8494000Y11349724D02*
X8494000Y8253908D01*
X7300000Y17700000D02*
X7300000Y16000000D01*
X7998000Y11845724D02*
X8494000Y11349724D01*
X7300000Y16000000D02*
X7669000Y15631000D01*
X7998000Y12773954D02*
X7998000Y11845724D01*
X7669000Y15631000D02*
X7669000Y13102954D01*
%TO.N,/Project Architecture/ADC1*%
X8400000Y15652000D02*
X8273000Y15525000D01*
X8400000Y16200000D02*
X8400000Y15652000D01*
X9098000Y11599908D02*
X9098000Y8605214D01*
X8602454Y12095454D02*
X9098000Y11599908D01*
X8273000Y15525000D02*
X8273000Y13556908D01*
X8602454Y13227454D02*
X8602454Y12095454D01*
X12175000Y5528214D02*
X12175000Y1845000D01*
X9098000Y8605214D02*
X12175000Y5528214D01*
X8273000Y13556908D02*
X8602454Y13227454D01*
D32*
%TO.N,/Project Architecture/Microcontroller Peripherals/ADC_VREF*%
X4825000Y35550000D02*
X2700000Y37675000D01*
X2700000Y43200000D02*
X3275000Y43775000D01*
X2700000Y37675000D02*
X2700000Y43200000D01*
X3275000Y43775000D02*
X3575000Y43775000D01*
X6430000Y35550000D02*
X4825000Y35550000D01*
D28*
%TO.N,/Project Architecture/Microcontroller/GPIO38*%
X14300000Y5750000D02*
X15175000Y4875000D01*
X5750000Y53025000D02*
X4725000Y53025000D01*
X10700000Y40175000D02*
X8950000Y41925000D01*
X8950000Y41925000D02*
X8950000Y49825000D01*
X12750000Y40175000D02*
X10700000Y40175000D01*
X8950000Y49825000D02*
X5750000Y53025000D01*
X15175000Y4875000D02*
X15175000Y1850000D01*
X13950000Y5750000D02*
X14300000Y5750000D01*
%TO.N,/Project Architecture/Microcontroller/GPIO37*%
X4750000Y53825000D02*
X6100000Y53825000D01*
X10825000Y41125000D02*
X12950000Y41125000D01*
X14525000Y6425000D02*
X14125000Y6425000D01*
X15675000Y1850000D02*
X15675000Y5275000D01*
X15675000Y5275000D02*
X14525000Y6425000D01*
X9350000Y42600000D02*
X10825000Y41125000D01*
X6100000Y53825000D02*
X9350000Y50575000D01*
X9350000Y50575000D02*
X9350000Y42600000D01*
%TO.N,/Project Architecture/Microcontroller/GPIO39*%
X8550000Y41525000D02*
X10850000Y39225000D01*
X14175000Y3900000D02*
X14175000Y1850000D01*
X5775000Y52225000D02*
X8550000Y49450000D01*
X4725000Y52225000D02*
X5775000Y52225000D01*
X10850000Y39225000D02*
X12600000Y39225000D01*
X13925000Y4150000D02*
X14175000Y3900000D01*
X13925000Y4450000D02*
X13925000Y4150000D01*
X8550000Y49450000D02*
X8550000Y41525000D01*
%TO.N,/Project Architecture/Microcontroller/SPI1_SCLK*%
X4800000Y60600000D02*
X4800000Y59233788D01*
D34*
%TO.N,VBUS_ONBOARD*%
X21000000Y67200000D02*
X21600000Y67200000D01*
X16400000Y59800000D02*
X17700000Y59800000D01*
X19650000Y66550000D02*
X20350000Y66550000D01*
X17700000Y59800000D02*
X18250000Y60350000D01*
X18250000Y66150000D02*
X18650000Y66550000D01*
X21600000Y67200000D02*
X22250000Y67200000D01*
X18250000Y60350000D02*
X18250000Y66150000D01*
X20350000Y66550000D02*
X21000000Y67200000D01*
X18650000Y66550000D02*
X19650000Y66550000D01*
D36*
%TO.N,USB_D-*%
X9880726Y35300000D02*
X14480726Y35300000D01*
X5644950Y15635776D02*
X5644950Y31064224D01*
X27264224Y70030050D02*
X28005050Y69289224D01*
X23394950Y67914224D02*
X25510776Y70030050D01*
X6519950Y9094950D02*
X6519950Y14760776D01*
X28005050Y69289224D02*
X28005050Y68596150D01*
X5644950Y31064224D02*
X9880726Y35300000D01*
X6519950Y14760776D02*
X5644950Y15635776D01*
X25510776Y70030050D02*
X27264224Y70030050D01*
X28130095Y68471105D02*
X28273510Y68471105D01*
X6325000Y8900000D02*
X6519950Y9094950D01*
X23394950Y44214224D02*
X23394950Y67914224D01*
X14480726Y35300000D02*
X23394950Y44214224D01*
X28005050Y68596150D02*
X28130095Y68471105D01*
%TO.N,USB_D+*%
X6830050Y14889224D02*
X5955050Y15764224D01*
X23705050Y67785776D02*
X25639224Y69719950D01*
X5955050Y15764224D02*
X5955050Y30935776D01*
X27694950Y68596150D02*
X27553914Y68455114D01*
X25639224Y69719950D02*
X27135776Y69719950D01*
X10019274Y35000000D02*
X14619274Y35000000D01*
X27135776Y69719950D02*
X27694950Y69160776D01*
X6830050Y9094950D02*
X6830050Y14889224D01*
X5955050Y30935776D02*
X10019274Y35000000D01*
X27694950Y69160776D02*
X27694950Y68596150D01*
X27553914Y68455114D02*
X27417989Y68455114D01*
X23705050Y44085776D02*
X23705050Y67785776D01*
X7025000Y8900000D02*
X6830050Y9094950D01*
X14619274Y35000000D02*
X23705050Y44085776D01*
%TO.N,USB_ONB_D+*%
X22771350Y69659116D02*
X22819950Y69707716D01*
X22771350Y69547550D02*
X22771350Y69659116D01*
X22205036Y77162019D02*
X22197071Y77154054D01*
X22601747Y69451126D02*
X22674926Y69451126D01*
X22819950Y69707716D02*
X22819950Y76885776D01*
X22674926Y69451126D02*
X22771350Y69547550D01*
X22543707Y77162019D02*
X22205036Y77162019D01*
X22819950Y76885776D02*
X22543707Y77162019D01*
%TO.N,USB_ONB_D-*%
X23130050Y69707716D02*
X23130050Y77014224D01*
X23130050Y77014224D02*
X22762981Y77381293D01*
X22762981Y77381293D02*
X22762981Y77707518D01*
X22762981Y77707518D02*
X22738102Y77732397D01*
X23178650Y69659116D02*
X23130050Y69707716D01*
X23178650Y69547550D02*
X23178650Y69659116D01*
X23357324Y69463119D02*
X23263081Y69463119D01*
X23263081Y69463119D02*
X23178650Y69547550D01*
%TO.N,/Project Architecture/USB Interface and Power/USB_RP_D+*%
X22061936Y64219916D02*
X22300000Y63981852D01*
X14414224Y44819950D02*
X16164224Y44819950D01*
X21980050Y50635776D02*
X21980050Y59114224D01*
X13229759Y43635485D02*
X14414224Y44819950D01*
X21155050Y63935776D02*
X21439190Y64219916D01*
X21980050Y59114224D02*
X21155050Y59939224D01*
X21155050Y59939224D02*
X21155050Y63935776D01*
X16164224Y44819950D02*
X21980050Y50635776D01*
X21439190Y64219916D02*
X22061936Y64219916D01*
X13484743Y42748112D02*
X13479075Y42753780D01*
X13229759Y43003096D02*
X13229759Y43635485D01*
X13484743Y42748112D02*
X13229759Y43003096D01*
X13479075Y42753780D02*
X13387314Y42753780D01*
%TO.N,/Project Architecture/USB Interface and Power/USB_RP_D-*%
X12693020Y42742442D02*
X12809054Y42742442D01*
X12919659Y43763933D02*
X14285776Y45130050D01*
X21310742Y64530016D02*
X22061936Y64530016D01*
X12676013Y42759449D02*
X12693020Y42742442D01*
X20844950Y59810776D02*
X20844950Y64064224D01*
X20844950Y64064224D02*
X21310742Y64530016D01*
X16035776Y45130050D02*
X21669950Y50764224D01*
X21669950Y58985776D02*
X20844950Y59810776D01*
X22061936Y64530016D02*
X22300000Y64768079D01*
X12676013Y42759449D02*
X12919659Y43003096D01*
X14285776Y45130050D02*
X16035776Y45130050D01*
X21669950Y50764224D02*
X21669950Y58985776D01*
X12919659Y43003096D02*
X12919659Y43763933D01*
D31*
%TO.N,SHIELD*%
X19155000Y79300000D02*
X19155000Y79655000D01*
X19155000Y77100000D02*
X19155000Y75120000D01*
X16950000Y76275000D02*
X17375000Y76275000D01*
X27795000Y79300000D02*
X27795000Y75120000D01*
X27276000Y80274000D02*
X27795000Y79755000D01*
X27795000Y79755000D02*
X27795000Y79300000D01*
X19155000Y79655000D02*
X19774000Y80274000D01*
X19774000Y80274000D02*
X27276000Y80274000D01*
X18200000Y77100000D02*
X19155000Y77100000D01*
X19155000Y79300000D02*
X19155000Y77100000D01*
X17375000Y76275000D02*
X18200000Y77100000D01*
D28*
%TO.N,/Project Architecture/Microcontroller/SPI1_MISO*%
X2800000Y61300000D02*
X2587961Y61512039D01*
X2800000Y60100000D02*
X2800000Y61300000D01*
%TO.N,Net-(IC29-RXD)*%
X8550000Y25500000D02*
X11800000Y25500000D01*
X11800000Y25500000D02*
X12000000Y25700000D01*
D35*
%TO.N,/Project Architecture/CAN_P*%
X17061250Y5431437D02*
X17061250Y3838751D01*
X17061250Y3838751D02*
X17175000Y3725001D01*
X12467736Y10382460D02*
X12387981Y10302705D01*
X12387981Y10173436D02*
X12448069Y10113348D01*
X12387981Y10302705D02*
X12387981Y10173436D01*
X12448069Y10113348D02*
X12448069Y10044618D01*
X17175000Y3725001D02*
X17175000Y1850000D01*
X12448069Y10044618D02*
X17061250Y5431437D01*
%TO.N,/Project Architecture/CAN_N*%
X12186652Y9851931D02*
X12255382Y9851931D01*
X16788750Y3838751D02*
X16675000Y3725001D01*
X11832091Y9826770D02*
X11917340Y9912019D01*
X16675000Y3725001D02*
X16675000Y1850000D01*
X16788750Y5318563D02*
X16788750Y3838751D01*
X12255382Y9851931D02*
X16788750Y5318563D01*
X12126564Y9912019D02*
X12186652Y9851931D01*
X11917340Y9912019D02*
X12126564Y9912019D01*
D28*
%TO.N,/Project Architecture/Microcontroller/CAN_RST*%
X3900000Y55200000D02*
X3900000Y56000000D01*
X3900000Y56000000D02*
X4500000Y56600000D01*
%TD*%
%TA.AperFunction,Conductor*%
%TO.N,VBUS*%
G36*
X3514036Y5951947D02*
G01*
X3533517Y5952178D01*
X3547218Y5943602D01*
X3562898Y5939658D01*
X3576225Y5925444D01*
X3592740Y5915106D01*
X3599630Y5900482D01*
X3610688Y5888688D01*
X3621952Y5855240D01*
X3622523Y5852136D01*
X3627111Y5817289D01*
X3632944Y5795517D01*
X3633841Y5790645D01*
X3634258Y5788245D01*
X3634971Y5783889D01*
X3634973Y5783883D01*
X3652806Y5727245D01*
X3654843Y5723004D01*
X3662229Y5709012D01*
X3664575Y5704949D01*
X3676555Y5684198D01*
X3678554Y5675956D01*
X3683857Y5669338D01*
X3685439Y5665288D01*
X3695103Y5639209D01*
X3695104Y5639205D01*
X3700111Y5628784D01*
X3701749Y5625673D01*
X3707262Y5615202D01*
X3710623Y5609351D01*
X3716342Y5599395D01*
X3739066Y5572471D01*
X3764426Y5542423D01*
X3764427Y5542422D01*
X3818301Y5497938D01*
X3818308Y5497933D01*
X3838941Y5482920D01*
X3838943Y5482920D01*
X3838946Y5482917D01*
X3926402Y5451643D01*
X3995778Y5443346D01*
X4021267Y5441870D01*
X4111748Y5462844D01*
X4174595Y5493372D01*
X4196833Y5505910D01*
X4197145Y5506230D01*
X4261610Y5572471D01*
X4261613Y5572475D01*
X4297974Y5632127D01*
X4297974Y5632128D01*
X4297977Y5632132D01*
X4308263Y5656154D01*
X4314855Y5669324D01*
X4335802Y5705606D01*
X4355502Y5731277D01*
X4368721Y5744497D01*
X4394394Y5764197D01*
X4419950Y5778952D01*
X4440003Y5788253D01*
X4445938Y5790386D01*
X4450895Y5792650D01*
X4484082Y5797425D01*
X4517130Y5802982D01*
X4519082Y5802460D01*
X4520048Y5802598D01*
X4551213Y5793852D01*
X4556162Y5791733D01*
X4569324Y5785144D01*
X4605599Y5764201D01*
X4631276Y5744497D01*
X4644496Y5731277D01*
X4664200Y5705599D01*
X4672349Y5691485D01*
X4673547Y5689411D01*
X4685935Y5659506D01*
X4688662Y5649327D01*
X4690775Y5641444D01*
X4695000Y5609351D01*
X4695000Y5590655D01*
X4690775Y5558564D01*
X4688568Y5550329D01*
X4681691Y5506231D01*
X4679184Y5453575D01*
X4678949Y5442944D01*
X4699924Y5352461D01*
X4730450Y5289618D01*
X4742988Y5267381D01*
X4742989Y5267379D01*
X4809556Y5202597D01*
X4869207Y5166238D01*
X4869220Y5166231D01*
X4896516Y5154543D01*
X4923818Y5142851D01*
X4930019Y5141190D01*
X4930791Y5140720D01*
X4931696Y5140728D01*
X4985611Y5109095D01*
X5033025Y5061681D01*
X5066510Y5000358D01*
X5061526Y4930666D01*
X5019654Y4874733D01*
X4954190Y4850316D01*
X4945344Y4850000D01*
X4920148Y4850000D01*
X4900515Y4854825D01*
X4886382Y4854686D01*
X4876954Y4860615D01*
X4862674Y4864124D01*
X4838323Y4876862D01*
X4771286Y4896546D01*
X4771278Y4896548D01*
X4712487Y4905000D01*
X4712486Y4905000D01*
X4509916Y4905000D01*
X4509912Y4905000D01*
X4509901Y4904999D01*
X4461922Y4899407D01*
X4461921Y4899407D01*
X4406421Y4886292D01*
X4392555Y4882508D01*
X4392552Y4882506D01*
X4365316Y4866719D01*
X4303133Y4850000D01*
X3927189Y4850000D01*
X3906479Y4856082D01*
X3884940Y4857420D01*
X3865900Y4867997D01*
X3860150Y4869685D01*
X3853806Y4874045D01*
X3851475Y4875756D01*
X3851342Y4875896D01*
X3804661Y4912613D01*
X3796176Y4917513D01*
X3796152Y4917526D01*
X3788794Y4921774D01*
X3783306Y4925803D01*
X3782389Y4927004D01*
X3764771Y4940523D01*
X3678399Y5026895D01*
X3512143Y5193152D01*
X3415905Y5289391D01*
X3383812Y5344977D01*
X3368271Y5402973D01*
X3368271Y5402972D01*
X3367966Y5404108D01*
X3365939Y5412293D01*
X3365658Y5412723D01*
X3363110Y5422231D01*
X3363110Y5422232D01*
X3363109Y5422234D01*
X3361295Y5429004D01*
X3358648Y5435861D01*
X3356275Y5444715D01*
X3356273Y5444720D01*
X3335431Y5495039D01*
X3335429Y5495042D01*
X3335427Y5495048D01*
X3326450Y5510597D01*
X3314063Y5540501D01*
X3309224Y5558564D01*
X3305000Y5590652D01*
X3305000Y5609351D01*
X3309222Y5641434D01*
X3314062Y5659501D01*
X3326453Y5689411D01*
X3335427Y5704953D01*
X3356277Y5755290D01*
X3372889Y5817289D01*
X3377061Y5848981D01*
X3383601Y5863765D01*
X3385273Y5879843D01*
X3397445Y5895058D01*
X3405328Y5912876D01*
X3418822Y5921777D01*
X3428922Y5934401D01*
X3447388Y5940620D01*
X3463652Y5951347D01*
X3479815Y5951540D01*
X3495138Y5956699D01*
X3514036Y5951947D01*
G37*
%TD.AperFunction*%
%TA.AperFunction,Conductor*%
G36*
X3541438Y6790777D02*
G01*
X3559500Y6785937D01*
X3589407Y6773549D01*
X3605592Y6764205D01*
X3631275Y6744498D01*
X3644496Y6731277D01*
X3664203Y6705594D01*
X3678944Y6680061D01*
X3686474Y6664645D01*
X3687410Y6662335D01*
X3690386Y6654057D01*
X3693765Y6646658D01*
X3694774Y6644169D01*
X3697988Y6611969D01*
X3702593Y6579934D01*
X3701555Y6576240D01*
X3701715Y6574645D01*
X3700365Y6572000D01*
X3693847Y6548780D01*
X3691740Y6543859D01*
X3685136Y6530667D01*
X3664583Y6495069D01*
X3664574Y6495050D01*
X3643726Y6444719D01*
X3643722Y6444710D01*
X3627112Y6382720D01*
X3622938Y6351019D01*
X3594669Y6287124D01*
X3536343Y6248655D01*
X3466478Y6247826D01*
X3407256Y6284900D01*
X3381972Y6329189D01*
X3378527Y6339882D01*
X3372888Y6382716D01*
X3356275Y6444715D01*
X3335427Y6495048D01*
X3319855Y6522020D01*
X3315811Y6534574D01*
X3315763Y6536397D01*
X3314063Y6540501D01*
X3309223Y6558563D01*
X3305000Y6590652D01*
X3305000Y6609349D01*
X3309223Y6641435D01*
X3312573Y6653941D01*
X3314062Y6659499D01*
X3326448Y6689405D01*
X3335802Y6705607D01*
X3355501Y6731277D01*
X3368721Y6744497D01*
X3394391Y6764195D01*
X3410597Y6773552D01*
X3440497Y6785936D01*
X3458567Y6790778D01*
X3490652Y6795000D01*
X3509348Y6795000D01*
X3541438Y6790777D01*
G37*
%TD.AperFunction*%
%TD*%
%TA.AperFunction,Conductor*%
%TO.N,GND*%
G36*
X12659522Y69742411D02*
G01*
X12676875Y69742546D01*
X12692349Y69732772D01*
X12709910Y69727615D01*
X12721474Y69714374D01*
X12735947Y69705232D01*
X12744640Y69691935D01*
X12745368Y69692444D01*
X12751590Y69683558D01*
X12751591Y69683557D01*
X12833557Y69601591D01*
X12833559Y69601590D01*
X12833582Y69601574D01*
X12833613Y69601535D01*
X12841228Y69593920D01*
X12840378Y69593071D01*
X12877206Y69546997D01*
X12884398Y69477498D01*
X12852875Y69415144D01*
X12833582Y69398426D01*
X12833555Y69398408D01*
X12751591Y69316444D01*
X12702601Y69211385D01*
X12696301Y69163529D01*
X12696300Y69163512D01*
X12696300Y68836489D01*
X12696301Y68836472D01*
X12702601Y68788616D01*
X12751591Y68683557D01*
X12764981Y68670167D01*
X12798466Y68608844D01*
X12801300Y68582486D01*
X12801300Y68298786D01*
X12781615Y68231747D01*
X12763785Y68209924D01*
X12752517Y68198959D01*
X12747733Y68196727D01*
X12663273Y68112267D01*
X12663130Y68111963D01*
X12656485Y68105494D01*
X12626294Y68089537D01*
X12596358Y68073190D01*
X12595485Y68073253D01*
X12594713Y68072844D01*
X12560714Y68075740D01*
X12526666Y68078174D01*
X12525833Y68078710D01*
X12525096Y68078772D01*
X12521866Y68081259D01*
X12482319Y68106675D01*
X12392267Y68196727D01*
X12284015Y68247206D01*
X12284014Y68247207D01*
X12234698Y68253699D01*
X12234693Y68253700D01*
X12234688Y68253700D01*
X11885312Y68253700D01*
X11885306Y68253700D01*
X11885301Y68253699D01*
X11835985Y68247207D01*
X11835983Y68247206D01*
X11784741Y68223312D01*
X11715663Y68212821D01*
X11651880Y68241342D01*
X11644657Y68248014D01*
X11633756Y68258915D01*
X11633754Y68258917D01*
X11541699Y68312065D01*
X11439024Y68339576D01*
X11332728Y68339576D01*
X11332726Y68339576D01*
X11234792Y68313335D01*
X11164943Y68314998D01*
X11107080Y68354161D01*
X11079577Y68418390D01*
X11078700Y68433110D01*
X11078700Y69433197D01*
X11087344Y69462638D01*
X11093868Y69492624D01*
X11097622Y69497640D01*
X11098385Y69500236D01*
X11115019Y69520878D01*
X11155122Y69560981D01*
X11216445Y69594466D01*
X11242803Y69597300D01*
X11282437Y69597300D01*
X11282439Y69597300D01*
X11391472Y69626515D01*
X11489228Y69682955D01*
X11517254Y69710981D01*
X11578577Y69744466D01*
X11604935Y69747300D01*
X12642871Y69747300D01*
X12659522Y69742411D01*
G37*
%TD.AperFunction*%
%TA.AperFunction,Conductor*%
G36*
X18818006Y80429815D02*
G01*
X18863761Y80377011D01*
X18873705Y80307853D01*
X18844680Y80244297D01*
X18819859Y80222400D01*
X18777568Y80194142D01*
X18706414Y80146599D01*
X18608401Y80048586D01*
X18531386Y79933324D01*
X18478344Y79805267D01*
X18478341Y79805255D01*
X18451300Y79669313D01*
X18451300Y78930688D01*
X18478341Y78794746D01*
X18478344Y78794734D01*
X18531386Y78666677D01*
X18531389Y78666673D01*
X18608400Y78551417D01*
X18706417Y78453400D01*
X18706420Y78453398D01*
X18706421Y78453397D01*
X18721186Y78443532D01*
X18765994Y78389922D01*
X18776300Y78340427D01*
X18776300Y77602700D01*
X18756615Y77535661D01*
X18703811Y77489906D01*
X18652300Y77478700D01*
X18249857Y77478700D01*
X18150142Y77478700D01*
X18071972Y77457754D01*
X18071971Y77457755D01*
X18053830Y77452893D01*
X18053826Y77452892D01*
X17967474Y77403037D01*
X17967471Y77403035D01*
X17896962Y77332525D01*
X17629455Y77065019D01*
X17568132Y77031534D01*
X17541774Y77028700D01*
X16220353Y77028700D01*
X16203539Y77027124D01*
X16189699Y77025826D01*
X16189697Y77025826D01*
X16189693Y77025825D01*
X16060606Y76980655D01*
X15950561Y76899439D01*
X15869345Y76789394D01*
X15824173Y76660304D01*
X15824173Y76660302D01*
X15821300Y76629658D01*
X15821300Y75895354D01*
X15821301Y75895348D01*
X15824174Y75864699D01*
X15824174Y75864697D01*
X15824175Y75864694D01*
X15869345Y75735607D01*
X15950561Y75625562D01*
X16005583Y75584954D01*
X16060605Y75544346D01*
X16103636Y75529289D01*
X16189697Y75499174D01*
X16197694Y75498425D01*
X16220347Y75496300D01*
X17579652Y75496301D01*
X17610301Y75499174D01*
X17739395Y75544346D01*
X17849438Y75625562D01*
X17930654Y75735605D01*
X17954424Y75803536D01*
X17975826Y75864697D01*
X17975826Y75864699D01*
X17976816Y75875255D01*
X17978700Y75895347D01*
X17978699Y76291777D01*
X17998383Y76358815D01*
X18015013Y76379452D01*
X18320543Y76684981D01*
X18347470Y76699685D01*
X18373289Y76716277D01*
X18379489Y76717169D01*
X18381866Y76718466D01*
X18408224Y76721300D01*
X18652300Y76721300D01*
X18719339Y76701615D01*
X18765094Y76648811D01*
X18776300Y76597300D01*
X18776300Y76329574D01*
X18756615Y76262535D01*
X18721191Y76226472D01*
X18706417Y76216601D01*
X18706413Y76216598D01*
X18608401Y76118586D01*
X18531386Y76003324D01*
X18478344Y75875267D01*
X18478341Y75875255D01*
X18451300Y75739313D01*
X18451300Y74500688D01*
X18478341Y74364746D01*
X18478344Y74364734D01*
X18531386Y74236677D01*
X18608401Y74121415D01*
X18706414Y74023402D01*
X18821676Y73946387D01*
X18929492Y73901729D01*
X18949738Y73893343D01*
X19085687Y73866301D01*
X19085690Y73866300D01*
X19085692Y73866300D01*
X19224310Y73866300D01*
X19224311Y73866301D01*
X19360262Y73893343D01*
X19424294Y73919866D01*
X19488323Y73946387D01*
X19488324Y73946388D01*
X19488327Y73946389D01*
X19603583Y74023400D01*
X19701600Y74121417D01*
X19778611Y74236673D01*
X19831657Y74364738D01*
X19858700Y74500692D01*
X19858700Y75682601D01*
X20109500Y75682601D01*
X20109500Y75557399D01*
X20141905Y75436464D01*
X20204505Y75328036D01*
X20293036Y75239505D01*
X20401464Y75176905D01*
X20522399Y75144500D01*
X20522401Y75144500D01*
X20647599Y75144500D01*
X20647601Y75144500D01*
X20768536Y75176905D01*
X20876964Y75239505D01*
X20965495Y75328036D01*
X21028095Y75436464D01*
X21060500Y75557399D01*
X21060500Y75682601D01*
X21031337Y75791437D01*
X21033000Y75861283D01*
X21072162Y75919146D01*
X21136390Y75946651D01*
X21167307Y75946466D01*
X21168555Y75946302D01*
X21168561Y75946300D01*
X21168567Y75946300D01*
X21281437Y75946300D01*
X21281439Y75946300D01*
X21390472Y75975515D01*
X21488228Y76031955D01*
X21568045Y76111772D01*
X21624485Y76209528D01*
X21653700Y76318561D01*
X21653700Y76431439D01*
X21624485Y76540472D01*
X21568045Y76638228D01*
X21488228Y76718045D01*
X21424967Y76754569D01*
X21390473Y76774485D01*
X21334827Y76789395D01*
X21281439Y76803700D01*
X21168561Y76803700D01*
X21059526Y76774485D01*
X20961772Y76718045D01*
X20961769Y76718043D01*
X20881957Y76638231D01*
X20881955Y76638228D01*
X20825515Y76540474D01*
X20796300Y76431439D01*
X20796300Y76318560D01*
X20816606Y76242775D01*
X20814943Y76172925D01*
X20775780Y76115063D01*
X20711551Y76087560D01*
X20664738Y76090908D01*
X20647601Y76095500D01*
X20522399Y76095500D01*
X20441775Y76073897D01*
X20401463Y76063095D01*
X20293037Y76000496D01*
X20293034Y76000494D01*
X20204506Y75911966D01*
X20204504Y75911963D01*
X20141905Y75803537D01*
X20141905Y75803536D01*
X20109500Y75682601D01*
X19858700Y75682601D01*
X19858700Y75739308D01*
X19858700Y75739311D01*
X19858699Y75739313D01*
X19837072Y75848039D01*
X19831657Y75875262D01*
X19831655Y75875267D01*
X19778613Y76003324D01*
X19701598Y76118586D01*
X19603586Y76216598D01*
X19603582Y76216601D01*
X19588809Y76226472D01*
X19544004Y76280084D01*
X19533700Y76329574D01*
X19533700Y77210493D01*
X21768371Y77210493D01*
X21768371Y77097616D01*
X21797586Y76988581D01*
X21802163Y76980654D01*
X21854026Y76890826D01*
X21933843Y76811009D01*
X22016222Y76763447D01*
X22031595Y76754571D01*
X22031599Y76754569D01*
X22140632Y76725354D01*
X22140634Y76725354D01*
X22253508Y76725354D01*
X22253510Y76725354D01*
X22362543Y76754569D01*
X22362547Y76754572D01*
X22365950Y76755980D01*
X22369052Y76756314D01*
X22370394Y76756673D01*
X22370450Y76756464D01*
X22435420Y76763447D01*
X22497898Y76732171D01*
X22533549Y76672081D01*
X22537400Y76641418D01*
X22537400Y69972857D01*
X22517715Y69905818D01*
X22464911Y69860063D01*
X22445501Y69853084D01*
X22436276Y69850612D01*
X22436275Y69850612D01*
X22338519Y69794171D01*
X22338516Y69794169D01*
X22258704Y69714357D01*
X22258702Y69714354D01*
X22202262Y69616600D01*
X22179863Y69533004D01*
X22173047Y69507565D01*
X22173047Y69394687D01*
X22174599Y69388896D01*
X22202262Y69285653D01*
X22220496Y69254072D01*
X22258702Y69187898D01*
X22338519Y69108081D01*
X22415501Y69063635D01*
X22432308Y69053931D01*
X22436275Y69051641D01*
X22545308Y69022426D01*
X22545310Y69022426D01*
X22658184Y69022426D01*
X22658186Y69022426D01*
X22767219Y69051641D01*
X22864975Y69108081D01*
X22897851Y69140957D01*
X22959174Y69174442D01*
X23028866Y69169458D01*
X23073213Y69140957D01*
X23094096Y69120074D01*
X23191852Y69063634D01*
X23300885Y69034419D01*
X23300887Y69034419D01*
X23413761Y69034419D01*
X23413763Y69034419D01*
X23522796Y69063634D01*
X23620552Y69120074D01*
X23700369Y69199891D01*
X23756809Y69297647D01*
X23786024Y69406680D01*
X23786024Y69519558D01*
X23756809Y69628591D01*
X23700369Y69726347D01*
X23620552Y69806164D01*
X23522796Y69862604D01*
X23504503Y69867506D01*
X23444844Y69903873D01*
X23414316Y69966721D01*
X23412600Y69987280D01*
X23412600Y71356439D01*
X25446300Y71356439D01*
X25446300Y71243562D01*
X25475515Y71134527D01*
X25486674Y71115200D01*
X25531955Y71036772D01*
X25611772Y70956955D01*
X25709528Y70900515D01*
X25818561Y70871300D01*
X25818563Y70871300D01*
X25931437Y70871300D01*
X25931439Y70871300D01*
X26040472Y70900515D01*
X26138228Y70956955D01*
X26218045Y71036772D01*
X26274485Y71134528D01*
X26303700Y71243561D01*
X26303700Y71356439D01*
X26274485Y71465472D01*
X26218045Y71563228D01*
X26138228Y71643045D01*
X26089350Y71671265D01*
X26040473Y71699485D01*
X25938802Y71726727D01*
X25931439Y71728700D01*
X25818561Y71728700D01*
X25709526Y71699485D01*
X25611772Y71643045D01*
X25611769Y71643043D01*
X25531957Y71563231D01*
X25531955Y71563228D01*
X25475515Y71465474D01*
X25446300Y71356439D01*
X23412600Y71356439D01*
X23412600Y74536439D01*
X25446300Y74536439D01*
X25446300Y74423562D01*
X25475515Y74314527D01*
X25503735Y74265650D01*
X25531955Y74216772D01*
X25611772Y74136955D01*
X25709528Y74080515D01*
X25709530Y74080514D01*
X25711828Y74079562D01*
X25713469Y74078240D01*
X25716567Y74076451D01*
X25716288Y74075968D01*
X25766233Y74035722D01*
X25788299Y73969429D01*
X25771021Y73901729D01*
X25719885Y73854117D01*
X25711828Y73850438D01*
X25709530Y73849487D01*
X25611772Y73793045D01*
X25611769Y73793043D01*
X25531957Y73713231D01*
X25531955Y73713228D01*
X25475515Y73615474D01*
X25446300Y73506439D01*
X25446300Y73393562D01*
X25475515Y73284527D01*
X25493314Y73253700D01*
X25531955Y73186772D01*
X25611772Y73106955D01*
X25709528Y73050515D01*
X25818561Y73021300D01*
X25818563Y73021300D01*
X25931437Y73021300D01*
X25931439Y73021300D01*
X26040472Y73050515D01*
X26138228Y73106955D01*
X26218045Y73186772D01*
X26274485Y73284528D01*
X26303700Y73393561D01*
X26303700Y73506439D01*
X26274485Y73615472D01*
X26218045Y73713228D01*
X26138228Y73793045D01*
X26071926Y73831325D01*
X26040473Y73849485D01*
X26038175Y73850436D01*
X26036532Y73851760D01*
X26033433Y73853549D01*
X26033711Y73854033D01*
X25983769Y73894274D01*
X25961700Y73960567D01*
X25978976Y74028267D01*
X26030110Y74075881D01*
X26038175Y74079564D01*
X26040467Y74080514D01*
X26040472Y74080515D01*
X26138228Y74136955D01*
X26218045Y74216772D01*
X26274485Y74314528D01*
X26303700Y74423561D01*
X26303700Y74536439D01*
X26274485Y74645472D01*
X26218045Y74743228D01*
X26138228Y74823045D01*
X26089350Y74851265D01*
X26040473Y74879485D01*
X25985955Y74894093D01*
X25931439Y74908700D01*
X25818561Y74908700D01*
X25709526Y74879485D01*
X25611772Y74823045D01*
X25611769Y74823043D01*
X25531957Y74743231D01*
X25531955Y74743228D01*
X25475515Y74645474D01*
X25446300Y74536439D01*
X23412600Y74536439D01*
X23412600Y76431439D01*
X25296300Y76431439D01*
X25296300Y76318561D01*
X25303477Y76291776D01*
X25325515Y76209527D01*
X25346648Y76172925D01*
X25381955Y76111772D01*
X25461772Y76031955D01*
X25559528Y75975515D01*
X25668561Y75946300D01*
X25668563Y75946300D01*
X25781431Y75946300D01*
X25781439Y75946300D01*
X25781446Y75946303D01*
X25782691Y75946466D01*
X25783756Y75946300D01*
X25789566Y75946300D01*
X25789566Y75945395D01*
X25851727Y75935706D01*
X25903987Y75889331D01*
X25922878Y75822064D01*
X25918662Y75791435D01*
X25889500Y75682602D01*
X25889500Y75682601D01*
X25889500Y75557399D01*
X25921905Y75436464D01*
X25984505Y75328036D01*
X26073036Y75239505D01*
X26181464Y75176905D01*
X26302399Y75144500D01*
X26302401Y75144500D01*
X26427599Y75144500D01*
X26427601Y75144500D01*
X26548536Y75176905D01*
X26656964Y75239505D01*
X26745495Y75328036D01*
X26808095Y75436464D01*
X26840500Y75557399D01*
X26840500Y75682601D01*
X26808095Y75803536D01*
X26745495Y75911964D01*
X26656964Y76000495D01*
X26548536Y76063095D01*
X26548537Y76063095D01*
X26508224Y76073897D01*
X26427601Y76095500D01*
X26302399Y76095500D01*
X26302396Y76095500D01*
X26285260Y76090908D01*
X26215411Y76092571D01*
X26157548Y76131734D01*
X26130045Y76195963D01*
X26133393Y76242775D01*
X26153700Y76318561D01*
X26153700Y76431439D01*
X26124485Y76540472D01*
X26068045Y76638228D01*
X25988228Y76718045D01*
X25924967Y76754569D01*
X25890473Y76774485D01*
X25834827Y76789395D01*
X25781439Y76803700D01*
X25668561Y76803700D01*
X25559526Y76774485D01*
X25461772Y76718045D01*
X25461769Y76718043D01*
X25381957Y76638231D01*
X25381955Y76638228D01*
X25325515Y76540474D01*
X25299549Y76443563D01*
X25296300Y76431439D01*
X23412600Y76431439D01*
X23412600Y77051422D01*
X23412599Y77051428D01*
X23395815Y77114069D01*
X23393345Y77123284D01*
X23393344Y77123288D01*
X23356145Y77187716D01*
X23146064Y77397796D01*
X23112579Y77459119D01*
X23117563Y77528810D01*
X23126356Y77547473D01*
X23137587Y77566925D01*
X23166802Y77675958D01*
X23166802Y77788836D01*
X23137587Y77897869D01*
X23081147Y77995625D01*
X23001330Y78075442D01*
X22952452Y78103662D01*
X22903575Y78131882D01*
X22835075Y78150236D01*
X22794541Y78161097D01*
X22681663Y78161097D01*
X22572628Y78131882D01*
X22474874Y78075442D01*
X22474871Y78075440D01*
X22395059Y77995628D01*
X22395057Y77995625D01*
X22338617Y77897871D01*
X22309402Y77788836D01*
X22309402Y77706754D01*
X22289717Y77639715D01*
X22236913Y77593960D01*
X22185402Y77582754D01*
X22140632Y77582754D01*
X22031597Y77553539D01*
X21933843Y77497099D01*
X21933840Y77497097D01*
X21854028Y77417285D01*
X21854026Y77417282D01*
X21797586Y77319528D01*
X21768371Y77210493D01*
X19533700Y77210493D01*
X19533700Y78340427D01*
X19553385Y78407466D01*
X19588814Y78443532D01*
X19603583Y78453400D01*
X19701600Y78551417D01*
X19778611Y78666673D01*
X19831657Y78794738D01*
X19858700Y78930692D01*
X19858700Y79669308D01*
X19858699Y79669311D01*
X19846108Y79732608D01*
X19846815Y79740519D01*
X19844041Y79747959D01*
X19849884Y79774816D01*
X19852334Y79802200D01*
X19857585Y79810213D01*
X19858895Y79816232D01*
X19880047Y79844485D01*
X19894547Y79858984D01*
X19955871Y79892467D01*
X19982225Y79895300D01*
X26985158Y79895300D01*
X27052197Y79875615D01*
X27097952Y79822811D01*
X27107896Y79753653D01*
X27106775Y79747109D01*
X27091300Y79669313D01*
X27091300Y78930688D01*
X27118341Y78794746D01*
X27118344Y78794734D01*
X27171386Y78666677D01*
X27171389Y78666673D01*
X27248400Y78551417D01*
X27346417Y78453400D01*
X27346420Y78453398D01*
X27346421Y78453397D01*
X27361186Y78443532D01*
X27405994Y78389922D01*
X27416300Y78340427D01*
X27416300Y76329574D01*
X27396615Y76262535D01*
X27361191Y76226472D01*
X27346417Y76216601D01*
X27346413Y76216598D01*
X27248401Y76118586D01*
X27171386Y76003324D01*
X27118344Y75875267D01*
X27118341Y75875255D01*
X27091300Y75739313D01*
X27091300Y74500688D01*
X27118341Y74364746D01*
X27118344Y74364734D01*
X27171386Y74236677D01*
X27248401Y74121415D01*
X27346414Y74023402D01*
X27461676Y73946387D01*
X27569492Y73901729D01*
X27589738Y73893343D01*
X27725687Y73866301D01*
X27725690Y73866300D01*
X27725692Y73866300D01*
X27864310Y73866300D01*
X27864311Y73866301D01*
X28000262Y73893343D01*
X28064294Y73919866D01*
X28128323Y73946387D01*
X28128324Y73946388D01*
X28128327Y73946389D01*
X28243583Y74023400D01*
X28341600Y74121417D01*
X28418611Y74236673D01*
X28471657Y74364738D01*
X28498700Y74500692D01*
X28498700Y75739308D01*
X28498700Y75739311D01*
X28498699Y75739313D01*
X28477072Y75848039D01*
X28471657Y75875262D01*
X28471655Y75875267D01*
X28418613Y76003324D01*
X28341598Y76118586D01*
X28243586Y76216598D01*
X28243582Y76216601D01*
X28228809Y76226472D01*
X28184004Y76280084D01*
X28173700Y76329574D01*
X28173700Y78340427D01*
X28193385Y78407466D01*
X28228814Y78443532D01*
X28243583Y78453400D01*
X28341600Y78551417D01*
X28418611Y78666673D01*
X28471657Y78794738D01*
X28498700Y78930692D01*
X28498700Y79669308D01*
X28498700Y79669310D01*
X28498700Y79669311D01*
X28498699Y79669313D01*
X28487386Y79726188D01*
X28471657Y79805262D01*
X28464388Y79822811D01*
X28418613Y79933324D01*
X28341598Y80048586D01*
X28243585Y80146599D01*
X28202704Y80173915D01*
X28130141Y80222399D01*
X28085338Y80276009D01*
X28076630Y80345334D01*
X28106784Y80408362D01*
X28166227Y80445082D01*
X28199033Y80449500D01*
X28652405Y80449500D01*
X28690244Y80449500D01*
X28709630Y80447975D01*
X28742253Y80442808D01*
X28779146Y80430821D01*
X28799765Y80420315D01*
X28831151Y80397511D01*
X28847510Y80381152D01*
X28870314Y80349766D01*
X28880820Y80329147D01*
X28892808Y80292252D01*
X28897973Y80259641D01*
X28899500Y80240245D01*
X28899500Y68707034D01*
X28879815Y68639995D01*
X28827011Y68594240D01*
X28757853Y68584296D01*
X28694297Y68613321D01*
X28668113Y68645033D01*
X28662539Y68654687D01*
X28616555Y68734333D01*
X28536738Y68814150D01*
X28438982Y68870590D01*
X28379504Y68886527D01*
X28319846Y68922891D01*
X28289317Y68985738D01*
X28287600Y69006301D01*
X28287600Y69326420D01*
X28287600Y69326422D01*
X28268345Y69398284D01*
X28268345Y69398285D01*
X28231146Y69462714D01*
X28231144Y69462716D01*
X28231143Y69462718D01*
X27437716Y70256145D01*
X27373286Y70293345D01*
X27301423Y70312600D01*
X27301422Y70312600D01*
X25547974Y70312600D01*
X25473578Y70312600D01*
X25401714Y70293345D01*
X25337286Y70256146D01*
X25337283Y70256144D01*
X23168856Y68087718D01*
X23131654Y68023283D01*
X23112400Y67951424D01*
X23112400Y44382622D01*
X23092715Y44315583D01*
X23076081Y44294941D01*
X14400009Y35618869D01*
X14338686Y35585384D01*
X14312328Y35582550D01*
X9962720Y35582550D01*
X9895681Y35602235D01*
X9849926Y35655039D01*
X9839982Y35724197D01*
X9869007Y35787753D01*
X9900719Y35813937D01*
X9975228Y35856955D01*
X10055045Y35936772D01*
X10111485Y36034528D01*
X10140700Y36143561D01*
X10140700Y36256439D01*
X10111485Y36365472D01*
X10055045Y36463228D01*
X9975228Y36543045D01*
X9900690Y36586080D01*
X9877473Y36599485D01*
X9796056Y36621300D01*
X9768439Y36628700D01*
X9655561Y36628700D01*
X9546526Y36599485D01*
X9448772Y36543045D01*
X9448769Y36543043D01*
X9368957Y36463231D01*
X9368955Y36463228D01*
X9312515Y36365474D01*
X9283300Y36256439D01*
X9283300Y36143562D01*
X9312515Y36034527D01*
X9340735Y35985650D01*
X9368955Y35936772D01*
X9448772Y35856955D01*
X9546528Y35800515D01*
X9655561Y35771300D01*
X9655563Y35771300D01*
X9669167Y35771300D01*
X9736206Y35751615D01*
X9781961Y35698811D01*
X9791905Y35629653D01*
X9762880Y35566097D01*
X9731168Y35539914D01*
X9707234Y35526096D01*
X5418856Y31237718D01*
X5381654Y31173283D01*
X5362400Y31101424D01*
X5362400Y15598577D01*
X5381655Y15526714D01*
X5418855Y15462284D01*
X6201081Y14680059D01*
X6234566Y14618736D01*
X6237400Y14592378D01*
X6237400Y9387169D01*
X6217715Y9320130D01*
X6175400Y9279782D01*
X6077125Y9223043D01*
X6077119Y9223039D01*
X6001961Y9147881D01*
X6001957Y9147875D01*
X5948812Y9055826D01*
X5948812Y9055825D01*
X5948811Y9055823D01*
X5921300Y8953148D01*
X5921300Y8846852D01*
X5948811Y8744177D01*
X6001959Y8652122D01*
X6077122Y8576959D01*
X6169177Y8523811D01*
X6271852Y8496300D01*
X6271854Y8496300D01*
X6378146Y8496300D01*
X6378148Y8496300D01*
X6480823Y8523811D01*
X6572878Y8576959D01*
X6587319Y8591400D01*
X6648642Y8624885D01*
X6718334Y8619901D01*
X6762681Y8591400D01*
X6777122Y8576959D01*
X6869177Y8523811D01*
X6971852Y8496300D01*
X6971854Y8496300D01*
X7078146Y8496300D01*
X7078148Y8496300D01*
X7180823Y8523811D01*
X7272878Y8576959D01*
X7348041Y8652122D01*
X7401189Y8744177D01*
X7428700Y8846852D01*
X7428700Y8953148D01*
X7401189Y9055823D01*
X7348041Y9147878D01*
X7272878Y9223041D01*
X7180823Y9276189D01*
X7174600Y9279782D01*
X7126384Y9330349D01*
X7112600Y9387169D01*
X7112600Y14926420D01*
X7112599Y14926424D01*
X7105291Y14953701D01*
X7093345Y14998285D01*
X7056144Y15062717D01*
X6273919Y15844942D01*
X6240434Y15906265D01*
X6237600Y15932623D01*
X6237600Y19674556D01*
X10471300Y19674556D01*
X10471300Y19125445D01*
X10477361Y19079400D01*
X10477362Y19079398D01*
X10502165Y19026208D01*
X10524488Y18978337D01*
X10603337Y18899488D01*
X10704397Y18852363D01*
X10704399Y18852362D01*
X10750444Y18846300D01*
X10750446Y18846300D01*
X11049556Y18846300D01*
X11080252Y18850342D01*
X11095601Y18852362D01*
X11196663Y18899488D01*
X11275512Y18978337D01*
X11280607Y18989265D01*
X11309025Y19024662D01*
X11307480Y19026207D01*
X11313228Y19031955D01*
X11393045Y19111772D01*
X11442613Y19197627D01*
X11493181Y19245841D01*
X11561788Y19259063D01*
X11626652Y19233095D01*
X11657386Y19197628D01*
X11706955Y19111772D01*
X11706957Y19111770D01*
X11792519Y19026208D01*
X11790975Y19024665D01*
X11819391Y18989267D01*
X11824488Y18978337D01*
X11903337Y18899488D01*
X12004397Y18852363D01*
X12004399Y18852362D01*
X12050444Y18846300D01*
X12050446Y18846300D01*
X12349556Y18846300D01*
X12380252Y18850342D01*
X12395601Y18852362D01*
X12496663Y18899488D01*
X12575512Y18978337D01*
X12622638Y19079399D01*
X12628700Y19125446D01*
X12628700Y19674554D01*
X12622638Y19720601D01*
X12575512Y19821663D01*
X12496663Y19900512D01*
X12395602Y19947638D01*
X12395600Y19947639D01*
X12349556Y19953700D01*
X12349554Y19953700D01*
X12050446Y19953700D01*
X12050444Y19953700D01*
X12004399Y19947639D01*
X12004397Y19947638D01*
X11903336Y19900512D01*
X11824489Y19821665D01*
X11776147Y19717997D01*
X11763959Y19697348D01*
X11758264Y19689539D01*
X11706955Y19638228D01*
X11654090Y19546666D01*
X11650194Y19541321D01*
X11627518Y19523897D01*
X11606819Y19504160D01*
X11600164Y19502878D01*
X11594792Y19498749D01*
X11566293Y19496350D01*
X11538212Y19490938D01*
X11531921Y19493457D01*
X11525169Y19492888D01*
X11499898Y19506277D01*
X11473347Y19516906D01*
X11467840Y19523261D01*
X11463429Y19525598D01*
X11459012Y19533450D01*
X11442614Y19552375D01*
X11393048Y19638222D01*
X11393045Y19638228D01*
X11348554Y19682719D01*
X11323853Y19717995D01*
X11322637Y19720603D01*
X11275512Y19821663D01*
X11196663Y19900512D01*
X11095602Y19947638D01*
X11095600Y19947639D01*
X11049556Y19953700D01*
X11049554Y19953700D01*
X10750446Y19953700D01*
X10750444Y19953700D01*
X10704399Y19947639D01*
X10704397Y19947638D01*
X10603336Y19900512D01*
X10524488Y19821664D01*
X10477362Y19720603D01*
X10477361Y19720601D01*
X10471300Y19674556D01*
X6237600Y19674556D01*
X6237600Y22656439D01*
X6671300Y22656439D01*
X6671300Y22543562D01*
X6700515Y22434527D01*
X6728735Y22385650D01*
X6756955Y22336772D01*
X6836772Y22256955D01*
X6934528Y22200515D01*
X7043561Y22171300D01*
X7043563Y22171300D01*
X7156437Y22171300D01*
X7156439Y22171300D01*
X7265472Y22200515D01*
X7363228Y22256955D01*
X7443045Y22336772D01*
X7499485Y22434528D01*
X7528700Y22543561D01*
X7528700Y22656439D01*
X7499485Y22765472D01*
X7443045Y22863228D01*
X7363228Y22943045D01*
X7314350Y22971265D01*
X7265473Y22999485D01*
X7210955Y23014093D01*
X7156439Y23028700D01*
X7043561Y23028700D01*
X6934526Y22999485D01*
X6836772Y22943045D01*
X6836769Y22943043D01*
X6756957Y22863231D01*
X6756955Y22863228D01*
X6700515Y22765474D01*
X6671300Y22656439D01*
X6237600Y22656439D01*
X6237600Y24853148D01*
X6896300Y24853148D01*
X6896300Y24746852D01*
X6923811Y24644177D01*
X6976959Y24552122D01*
X7052122Y24476959D01*
X7144177Y24423811D01*
X7246852Y24396300D01*
X7246854Y24396300D01*
X7353146Y24396300D01*
X7353148Y24396300D01*
X7455823Y24423811D01*
X7547878Y24476959D01*
X7623041Y24552122D01*
X7676189Y24644177D01*
X7703700Y24746852D01*
X7703700Y24853148D01*
X7676189Y24955823D01*
X7623041Y25047878D01*
X7547878Y25123041D01*
X7486508Y25158473D01*
X7455825Y25176188D01*
X7455824Y25176189D01*
X7455823Y25176189D01*
X7353148Y25203700D01*
X7246852Y25203700D01*
X7144177Y25176189D01*
X7144175Y25176188D01*
X7144174Y25176188D01*
X7052125Y25123043D01*
X7052119Y25123039D01*
X6976961Y25047881D01*
X6976957Y25047875D01*
X6923812Y24955826D01*
X6923812Y24955825D01*
X6923811Y24955823D01*
X6896300Y24853148D01*
X6237600Y24853148D01*
X6237600Y25556439D01*
X8121300Y25556439D01*
X8121300Y25443562D01*
X8150515Y25334527D01*
X8178735Y25285650D01*
X8206955Y25236772D01*
X8286772Y25156955D01*
X8384528Y25100515D01*
X8493561Y25071300D01*
X8493563Y25071300D01*
X8606437Y25071300D01*
X8606439Y25071300D01*
X8715472Y25100515D01*
X8813228Y25156955D01*
X8829254Y25172981D01*
X8890577Y25206466D01*
X8916935Y25209300D01*
X11838268Y25209300D01*
X11838271Y25209300D01*
X11912206Y25229111D01*
X11956507Y25254689D01*
X12018506Y25271300D01*
X12056437Y25271300D01*
X12056439Y25271300D01*
X12165472Y25300515D01*
X12263228Y25356955D01*
X12343045Y25436772D01*
X12399485Y25534528D01*
X12428700Y25643561D01*
X12428700Y25756439D01*
X12399485Y25865472D01*
X12343045Y25963228D01*
X12263228Y26043045D01*
X12214350Y26071265D01*
X12165473Y26099485D01*
X12110955Y26114093D01*
X12056439Y26128700D01*
X11943561Y26128700D01*
X11834526Y26099485D01*
X11736772Y26043045D01*
X11736769Y26043043D01*
X11656957Y25963231D01*
X11656955Y25963228D01*
X11596451Y25858433D01*
X11594878Y25859341D01*
X11557411Y25812845D01*
X11491117Y25790779D01*
X11486689Y25790700D01*
X8916935Y25790700D01*
X8849896Y25810385D01*
X8829254Y25827019D01*
X8813230Y25843043D01*
X8813228Y25843045D01*
X8764350Y25871265D01*
X8715473Y25899485D01*
X8660955Y25914093D01*
X8606439Y25928700D01*
X8493561Y25928700D01*
X8384526Y25899485D01*
X8286772Y25843045D01*
X8286769Y25843043D01*
X8206957Y25763231D01*
X8206955Y25763228D01*
X8150515Y25665474D01*
X8121300Y25556439D01*
X6237600Y25556439D01*
X6237600Y26753148D01*
X6796300Y26753148D01*
X6796300Y26646852D01*
X6823811Y26544177D01*
X6876959Y26452122D01*
X6952122Y26376959D01*
X7044177Y26323811D01*
X7146852Y26296300D01*
X7146854Y26296300D01*
X7253146Y26296300D01*
X7253148Y26296300D01*
X7355823Y26323811D01*
X7447878Y26376959D01*
X7523041Y26452122D01*
X7576189Y26544177D01*
X7603700Y26646852D01*
X7603700Y26731439D01*
X8346300Y26731439D01*
X8346300Y26618562D01*
X8375515Y26509527D01*
X8403735Y26460650D01*
X8431955Y26411772D01*
X8511772Y26331955D01*
X8609528Y26275515D01*
X8718561Y26246300D01*
X8718563Y26246300D01*
X8831437Y26246300D01*
X8831439Y26246300D01*
X8940472Y26275515D01*
X9038228Y26331955D01*
X9118045Y26411772D01*
X9174485Y26509528D01*
X9203700Y26618561D01*
X9203700Y26731439D01*
X9174485Y26840472D01*
X9118045Y26938228D01*
X9038228Y27018045D01*
X8989350Y27046265D01*
X8940473Y27074485D01*
X8885955Y27089093D01*
X8831439Y27103700D01*
X8718561Y27103700D01*
X8609526Y27074485D01*
X8511772Y27018045D01*
X8511769Y27018043D01*
X8431957Y26938231D01*
X8431955Y26938228D01*
X8375515Y26840474D01*
X8346300Y26731439D01*
X7603700Y26731439D01*
X7603700Y26753148D01*
X7576189Y26855823D01*
X7523041Y26947878D01*
X7447878Y27023041D01*
X7386508Y27058473D01*
X7355825Y27076188D01*
X7355824Y27076189D01*
X7355823Y27076189D01*
X7253148Y27103700D01*
X7146852Y27103700D01*
X7044177Y27076189D01*
X7044175Y27076188D01*
X7044174Y27076188D01*
X6952125Y27023043D01*
X6952119Y27023039D01*
X6876961Y26947881D01*
X6876957Y26947875D01*
X6823812Y26855826D01*
X6823812Y26855825D01*
X6823811Y26855823D01*
X6796300Y26753148D01*
X6237600Y26753148D01*
X6237600Y28081439D01*
X10421300Y28081439D01*
X10421300Y27968561D01*
X10435907Y27914045D01*
X10450515Y27859527D01*
X10478735Y27810650D01*
X10506955Y27761772D01*
X10586772Y27681955D01*
X10684528Y27625515D01*
X10793561Y27596300D01*
X10793563Y27596300D01*
X10906437Y27596300D01*
X10906439Y27596300D01*
X11015472Y27625515D01*
X11113228Y27681955D01*
X11193045Y27761772D01*
X11249485Y27859528D01*
X11278700Y27968561D01*
X11278700Y28081439D01*
X11251905Y28181439D01*
X13921300Y28181439D01*
X13921300Y28068562D01*
X13950515Y27959527D01*
X13978735Y27910650D01*
X14006955Y27861772D01*
X14086772Y27781955D01*
X14184528Y27725515D01*
X14293561Y27696300D01*
X14293563Y27696300D01*
X14406437Y27696300D01*
X14406439Y27696300D01*
X14515472Y27725515D01*
X14613228Y27781955D01*
X14693045Y27861772D01*
X14749485Y27959528D01*
X14778700Y28068561D01*
X14778700Y28181439D01*
X14749485Y28290472D01*
X14693045Y28388228D01*
X14613228Y28468045D01*
X14564350Y28496265D01*
X14515473Y28524485D01*
X14460955Y28539093D01*
X14406439Y28553700D01*
X14293561Y28553700D01*
X14184526Y28524485D01*
X14086772Y28468045D01*
X14086769Y28468043D01*
X14006957Y28388231D01*
X14006955Y28388228D01*
X13950515Y28290474D01*
X13921300Y28181439D01*
X11251905Y28181439D01*
X11249485Y28190472D01*
X11193045Y28288228D01*
X11113228Y28368045D01*
X11059937Y28398813D01*
X11015473Y28424485D01*
X10960955Y28439093D01*
X10906439Y28453700D01*
X10793561Y28453700D01*
X10684526Y28424485D01*
X10586772Y28368045D01*
X10586769Y28368043D01*
X10506957Y28288231D01*
X10506955Y28288228D01*
X10450515Y28190474D01*
X10448094Y28181437D01*
X10421300Y28081439D01*
X6237600Y28081439D01*
X6237600Y28828148D01*
X21271300Y28828148D01*
X21271300Y28721852D01*
X21298811Y28619177D01*
X21351959Y28527122D01*
X21427122Y28451959D01*
X21519177Y28398811D01*
X21621852Y28371300D01*
X21621854Y28371300D01*
X21728146Y28371300D01*
X21728148Y28371300D01*
X21830823Y28398811D01*
X21922878Y28451959D01*
X21998041Y28527122D01*
X22051189Y28619177D01*
X22078700Y28721852D01*
X22078700Y28828148D01*
X22051189Y28930823D01*
X21998041Y29022878D01*
X21922878Y29098041D01*
X21830823Y29151189D01*
X21728148Y29178700D01*
X21621852Y29178700D01*
X21519177Y29151189D01*
X21519175Y29151188D01*
X21519174Y29151188D01*
X21427125Y29098043D01*
X21427119Y29098039D01*
X21351961Y29022881D01*
X21351957Y29022875D01*
X21298812Y28930826D01*
X21298812Y28930825D01*
X21298811Y28930823D01*
X21271300Y28828148D01*
X6237600Y28828148D01*
X6237600Y29756439D01*
X9771300Y29756439D01*
X9771300Y29643562D01*
X9800515Y29534527D01*
X9828735Y29485650D01*
X9856955Y29436772D01*
X9936772Y29356955D01*
X10034528Y29300515D01*
X10143561Y29271300D01*
X10143563Y29271300D01*
X10256437Y29271300D01*
X10256439Y29271300D01*
X10365472Y29300515D01*
X10463228Y29356955D01*
X10543045Y29436772D01*
X10599485Y29534528D01*
X10628700Y29643561D01*
X10628700Y29756439D01*
X10599485Y29865472D01*
X10543045Y29963228D01*
X10463228Y30043045D01*
X10414350Y30071265D01*
X10365473Y30099485D01*
X10310955Y30114093D01*
X10256439Y30128700D01*
X10143561Y30128700D01*
X10034526Y30099485D01*
X9936772Y30043045D01*
X9936769Y30043043D01*
X9856957Y29963231D01*
X9856955Y29963228D01*
X9800515Y29865474D01*
X9771300Y29756439D01*
X6237600Y29756439D01*
X6237600Y30767378D01*
X6257285Y30834417D01*
X6273919Y30855059D01*
X8575299Y33156439D01*
X14171300Y33156439D01*
X14171300Y33043562D01*
X14200515Y32934527D01*
X14228735Y32885650D01*
X14256955Y32836772D01*
X14336772Y32756955D01*
X14434528Y32700515D01*
X14543561Y32671300D01*
X14543563Y32671300D01*
X14656437Y32671300D01*
X14656439Y32671300D01*
X14765472Y32700515D01*
X14863228Y32756955D01*
X14943045Y32836772D01*
X14999485Y32934528D01*
X15028700Y33043561D01*
X15028700Y33156439D01*
X14999485Y33265472D01*
X14943045Y33363228D01*
X14863228Y33443045D01*
X14814350Y33471265D01*
X14765473Y33499485D01*
X14710955Y33514093D01*
X14656439Y33528700D01*
X14543561Y33528700D01*
X14434526Y33499485D01*
X14336772Y33443045D01*
X14336769Y33443043D01*
X14256957Y33363231D01*
X14256955Y33363228D01*
X14200515Y33265474D01*
X14171300Y33156439D01*
X8575299Y33156439D01*
X10099991Y34681131D01*
X10161314Y34714616D01*
X10187672Y34717450D01*
X14656469Y34717450D01*
X14656472Y34717450D01*
X14728335Y34736705D01*
X14792764Y34773904D01*
X23931146Y43912286D01*
X23968345Y43976716D01*
X23987600Y44048578D01*
X23987600Y44122974D01*
X23987600Y58353148D01*
X24296300Y58353148D01*
X24296300Y58246852D01*
X24323811Y58144177D01*
X24376959Y58052122D01*
X24376961Y58052120D01*
X24416400Y58012681D01*
X24449885Y57951358D01*
X24444901Y57881666D01*
X24416400Y57837319D01*
X24376961Y57797881D01*
X24376957Y57797875D01*
X24323812Y57705826D01*
X24323812Y57705825D01*
X24323811Y57705823D01*
X24296300Y57603148D01*
X24296300Y57496852D01*
X24323811Y57394177D01*
X24323812Y57394176D01*
X24323812Y57394175D01*
X24326754Y57389079D01*
X24376959Y57302122D01*
X24452122Y57226959D01*
X24544177Y57173811D01*
X24646852Y57146300D01*
X24646854Y57146300D01*
X24753146Y57146300D01*
X24753148Y57146300D01*
X24855823Y57173811D01*
X24947878Y57226959D01*
X25023041Y57302122D01*
X25076189Y57394177D01*
X25103700Y57496852D01*
X25103700Y57603148D01*
X25076189Y57705823D01*
X25023041Y57797878D01*
X24983600Y57837319D01*
X24950115Y57898642D01*
X24955099Y57968334D01*
X24983600Y58012681D01*
X24997878Y58026959D01*
X25023041Y58052122D01*
X25076189Y58144177D01*
X25103700Y58246852D01*
X25103700Y58353148D01*
X25076189Y58455823D01*
X25023041Y58547878D01*
X24947878Y58623041D01*
X24861279Y58673039D01*
X24855825Y58676188D01*
X24855824Y58676189D01*
X24855823Y58676189D01*
X24753148Y58703700D01*
X24646852Y58703700D01*
X24544177Y58676189D01*
X24544175Y58676188D01*
X24544174Y58676188D01*
X24452125Y58623043D01*
X24452119Y58623039D01*
X24376961Y58547881D01*
X24376957Y58547875D01*
X24323812Y58455826D01*
X24323812Y58455825D01*
X24323811Y58455823D01*
X24296300Y58353148D01*
X23987600Y58353148D01*
X23987600Y61209845D01*
X24007285Y61276884D01*
X24060089Y61322639D01*
X24087047Y61326516D01*
X24062788Y61329416D01*
X24008910Y61373901D01*
X23987635Y61440453D01*
X23987600Y61443404D01*
X23987600Y62741051D01*
X24007285Y62808090D01*
X24060089Y62853845D01*
X24129247Y62863789D01*
X24192803Y62834764D01*
X24217802Y62800094D01*
X24219747Y62801216D01*
X24223811Y62794177D01*
X24276959Y62702122D01*
X24352122Y62626959D01*
X24404850Y62596516D01*
X24453064Y62545952D01*
X24466288Y62477345D01*
X24440320Y62412480D01*
X24430531Y62401450D01*
X24376958Y62347877D01*
X24376957Y62347875D01*
X24323812Y62255826D01*
X24323812Y62255825D01*
X24323811Y62255823D01*
X24296300Y62153148D01*
X24296300Y62046852D01*
X24323811Y61944177D01*
X24323812Y61944176D01*
X24323812Y61944175D01*
X24341527Y61913492D01*
X24376959Y61852122D01*
X24376961Y61852120D01*
X24392309Y61836772D01*
X24425794Y61775449D01*
X24420810Y61705757D01*
X24383973Y61655932D01*
X24384493Y61655412D01*
X24381023Y61651943D01*
X24380119Y61650719D01*
X24378747Y61649667D01*
X24303585Y61574505D01*
X24303581Y61574499D01*
X24250436Y61482450D01*
X24250436Y61482449D01*
X24250435Y61482447D01*
X24231375Y61411311D01*
X24195010Y61351650D01*
X24142911Y61326343D01*
X24192803Y61303558D01*
X24230577Y61244780D01*
X24231361Y61241987D01*
X24249448Y61174485D01*
X24250436Y61170799D01*
X24251478Y61168995D01*
X24303583Y61078746D01*
X24378746Y61003583D01*
X24399775Y60991442D01*
X24447989Y60940878D01*
X24461213Y60872271D01*
X24435246Y60807406D01*
X24425456Y60796376D01*
X24376962Y60747882D01*
X24376957Y60747875D01*
X24323812Y60655826D01*
X24323812Y60655825D01*
X24323811Y60655823D01*
X24296300Y60553148D01*
X24296300Y60446852D01*
X24323811Y60344177D01*
X24376959Y60252122D01*
X24376961Y60252120D01*
X24426400Y60202681D01*
X24459885Y60141358D01*
X24454901Y60071666D01*
X24426400Y60027319D01*
X24376961Y59977881D01*
X24376957Y59977875D01*
X24323812Y59885826D01*
X24323812Y59885825D01*
X24323811Y59885823D01*
X24296300Y59783148D01*
X24296300Y59676852D01*
X24323811Y59574177D01*
X24376959Y59482122D01*
X24452122Y59406959D01*
X24544177Y59353811D01*
X24646852Y59326300D01*
X24646854Y59326300D01*
X24753146Y59326300D01*
X24753148Y59326300D01*
X24855823Y59353811D01*
X24947878Y59406959D01*
X25023041Y59482122D01*
X25076189Y59574177D01*
X25103700Y59676852D01*
X25103700Y59783148D01*
X25076189Y59885823D01*
X25023041Y59977878D01*
X24973600Y60027319D01*
X24940115Y60088642D01*
X24945099Y60158334D01*
X24973600Y60202681D01*
X25023041Y60252122D01*
X25076189Y60344177D01*
X25103700Y60446852D01*
X25103700Y60553148D01*
X25076189Y60655823D01*
X25023041Y60747878D01*
X24947878Y60823041D01*
X24933333Y60831439D01*
X26291300Y60831439D01*
X26291300Y60718562D01*
X26320515Y60609527D01*
X26332199Y60589291D01*
X26376955Y60511772D01*
X26456772Y60431955D01*
X26554528Y60375515D01*
X26663561Y60346300D01*
X26663563Y60346300D01*
X26776437Y60346300D01*
X26776439Y60346300D01*
X26885472Y60375515D01*
X26983228Y60431955D01*
X27063045Y60511772D01*
X27119485Y60609528D01*
X27148700Y60718561D01*
X27148700Y60831439D01*
X27119485Y60940472D01*
X27117999Y60943045D01*
X27111469Y60954356D01*
X27063045Y61038228D01*
X26983228Y61118045D01*
X26894983Y61168994D01*
X26885473Y61174485D01*
X26830955Y61189093D01*
X26776439Y61203700D01*
X26663561Y61203700D01*
X26554526Y61174485D01*
X26456772Y61118045D01*
X26456769Y61118043D01*
X26376957Y61038231D01*
X26376955Y61038228D01*
X26320515Y60940474D01*
X26291300Y60831439D01*
X24933333Y60831439D01*
X24916368Y60841234D01*
X24907253Y60849199D01*
X24894727Y60868871D01*
X24878634Y60885749D01*
X24876313Y60897790D01*
X24869726Y60908135D01*
X24869824Y60931456D01*
X24865410Y60954356D01*
X24869968Y60965743D01*
X24870020Y60978004D01*
X24882709Y60997569D01*
X24891378Y61019221D01*
X24901161Y61030243D01*
X24949665Y61078746D01*
X25002813Y61170801D01*
X25030324Y61273476D01*
X25030324Y61379772D01*
X25002813Y61482447D01*
X24949665Y61574502D01*
X24934314Y61589853D01*
X24900829Y61651176D01*
X24905813Y61720868D01*
X24942652Y61770691D01*
X24942131Y61771212D01*
X24945615Y61774697D01*
X24946518Y61775917D01*
X24947866Y61776953D01*
X24947878Y61776959D01*
X25023041Y61852122D01*
X25076189Y61944177D01*
X25103700Y62046852D01*
X25103700Y62153148D01*
X25076189Y62255823D01*
X25023041Y62347878D01*
X24947878Y62423041D01*
X24895148Y62453485D01*
X24846935Y62504049D01*
X24833711Y62572656D01*
X24859679Y62637521D01*
X24869453Y62648535D01*
X24923041Y62702122D01*
X24976189Y62794177D01*
X25003700Y62896852D01*
X25003700Y63003148D01*
X24976189Y63105823D01*
X24923041Y63197878D01*
X24847878Y63273041D01*
X24755823Y63326189D01*
X24653148Y63353700D01*
X24546852Y63353700D01*
X24444177Y63326189D01*
X24444175Y63326188D01*
X24444174Y63326188D01*
X24352125Y63273043D01*
X24352119Y63273039D01*
X24276961Y63197881D01*
X24276957Y63197875D01*
X24219747Y63098784D01*
X24217135Y63100292D01*
X24182304Y63057083D01*
X24116007Y63035028D01*
X24048310Y63052318D01*
X24000707Y63103463D01*
X23987600Y63158950D01*
X23987600Y67617378D01*
X24007285Y67684417D01*
X24023919Y67705059D01*
X25719941Y69401081D01*
X25781264Y69434566D01*
X25807622Y69437400D01*
X26967378Y69437400D01*
X27034417Y69417715D01*
X27055059Y69401081D01*
X27375915Y69080225D01*
X27409400Y69018902D01*
X27404416Y68949210D01*
X27362544Y68893277D01*
X27320328Y68872769D01*
X27252517Y68854599D01*
X27252516Y68854599D01*
X27252514Y68854598D01*
X27154761Y68798159D01*
X27154758Y68798157D01*
X27074946Y68718345D01*
X27074944Y68718342D01*
X27018504Y68620588D01*
X26989289Y68511553D01*
X26989289Y68398676D01*
X27018504Y68289641D01*
X27035793Y68259696D01*
X27074944Y68191886D01*
X27154761Y68112069D01*
X27252517Y68055629D01*
X27361550Y68026414D01*
X27361552Y68026414D01*
X27474426Y68026414D01*
X27474428Y68026414D01*
X27583461Y68055629D01*
X27681217Y68112069D01*
X27761034Y68191886D01*
X27761034Y68191887D01*
X27766064Y68196916D01*
X27827387Y68230401D01*
X27897079Y68225417D01*
X27941426Y68196916D01*
X28010282Y68128060D01*
X28080156Y68087718D01*
X28105318Y68073190D01*
X28108038Y68071620D01*
X28217071Y68042405D01*
X28217073Y68042405D01*
X28329947Y68042405D01*
X28329949Y68042405D01*
X28438982Y68071620D01*
X28536738Y68128060D01*
X28616555Y68207877D01*
X28668114Y68297179D01*
X28718680Y68345393D01*
X28787288Y68358615D01*
X28852152Y68332647D01*
X28892680Y68275733D01*
X28899500Y68235177D01*
X28899500Y65045208D01*
X28879815Y64978169D01*
X28827011Y64932414D01*
X28757853Y64922470D01*
X28694297Y64951495D01*
X28668113Y64983207D01*
X28654400Y65006958D01*
X28613050Y65078578D01*
X28528578Y65163050D01*
X28425122Y65222781D01*
X28309731Y65253700D01*
X28190269Y65253700D01*
X28074878Y65222781D01*
X28074876Y65222781D01*
X28074876Y65222780D01*
X27971422Y65163050D01*
X27971419Y65163048D01*
X27886952Y65078581D01*
X27886950Y65078578D01*
X27834053Y64986958D01*
X27827219Y64975122D01*
X27796300Y64859731D01*
X27796300Y64859729D01*
X27796300Y14711219D01*
X27776615Y14644180D01*
X27723811Y14598425D01*
X27654653Y14588481D01*
X27591097Y14617506D01*
X27565756Y14647782D01*
X27556969Y14662539D01*
X27549485Y14690472D01*
X27493045Y14788228D01*
X27466074Y14815199D01*
X27458156Y14828498D01*
X27453159Y14847951D01*
X27443534Y14865577D01*
X27440700Y14891935D01*
X27440700Y27863269D01*
X27440700Y27863271D01*
X27420889Y27937206D01*
X27382618Y28003494D01*
X27328494Y28057618D01*
X25653494Y29732618D01*
X24578494Y30807618D01*
X24512206Y30845889D01*
X24512207Y30845889D01*
X24477983Y30855059D01*
X24438271Y30865700D01*
X24438268Y30865700D01*
X23316935Y30865700D01*
X23249896Y30885385D01*
X23229254Y30902019D01*
X23213230Y30918043D01*
X23213228Y30918045D01*
X23164350Y30946265D01*
X23115473Y30974485D01*
X23060955Y30989093D01*
X23006439Y31003700D01*
X22893561Y31003700D01*
X22784526Y30974485D01*
X22686772Y30918045D01*
X22686769Y30918043D01*
X22606957Y30838231D01*
X22606955Y30838228D01*
X22550515Y30740474D01*
X22521300Y30631439D01*
X22521300Y30518562D01*
X22550515Y30409527D01*
X22578735Y30360650D01*
X22606955Y30311772D01*
X22686772Y30231955D01*
X22784528Y30175515D01*
X22893561Y30146300D01*
X22893563Y30146300D01*
X23006437Y30146300D01*
X23006439Y30146300D01*
X23115472Y30175515D01*
X23213228Y30231955D01*
X23229254Y30247981D01*
X23290577Y30281466D01*
X23316935Y30284300D01*
X24228226Y30284300D01*
X24295265Y30264615D01*
X24315907Y30247981D01*
X26822981Y27740907D01*
X26856466Y27679584D01*
X26859300Y27653226D01*
X26859300Y14891935D01*
X26839615Y14824896D01*
X26822981Y14804254D01*
X26806957Y14788231D01*
X26806955Y14788228D01*
X26750515Y14690474D01*
X26721300Y14581439D01*
X26721300Y14468562D01*
X26750515Y14359527D01*
X26778735Y14310650D01*
X26806955Y14261772D01*
X26886772Y14181955D01*
X26984528Y14125515D01*
X27093561Y14096300D01*
X27093563Y14096300D01*
X27206437Y14096300D01*
X27206439Y14096300D01*
X27315472Y14125515D01*
X27413228Y14181955D01*
X27493045Y14261772D01*
X27549485Y14359528D01*
X27552525Y14370877D01*
X27588890Y14430536D01*
X27651737Y14461065D01*
X27721112Y14452770D01*
X27774990Y14408285D01*
X27796265Y14341733D01*
X27796300Y14338782D01*
X27796300Y10414291D01*
X27776615Y10347252D01*
X27759981Y10326610D01*
X26123390Y8690019D01*
X26062067Y8656534D01*
X26035709Y8653700D01*
X23976248Y8653700D01*
X23909209Y8673385D01*
X23863454Y8726189D01*
X23854084Y8788725D01*
X23853700Y8788725D01*
X23853700Y8791289D01*
X23853310Y8793891D01*
X23853700Y8796853D01*
X23853700Y8903146D01*
X23853700Y8903148D01*
X23826189Y9005823D01*
X23773041Y9097878D01*
X23697878Y9173041D01*
X23611279Y9223039D01*
X23605825Y9226188D01*
X23605824Y9226189D01*
X23605823Y9226189D01*
X23503148Y9253700D01*
X23396852Y9253700D01*
X23294175Y9226189D01*
X23219781Y9183237D01*
X23151881Y9166766D01*
X23095782Y9183238D01*
X23039549Y9215704D01*
X23039548Y9215705D01*
X23039547Y9215705D01*
X22936872Y9243216D01*
X22830576Y9243216D01*
X22727901Y9215705D01*
X22727899Y9215704D01*
X22727898Y9215704D01*
X22635849Y9162559D01*
X22635843Y9162555D01*
X22560685Y9087397D01*
X22560683Y9087394D01*
X22532660Y9038857D01*
X22482092Y8990642D01*
X22413485Y8977420D01*
X22409095Y8977918D01*
X22403152Y8978700D01*
X22403148Y8978700D01*
X22296852Y8978700D01*
X22194177Y8951189D01*
X22194175Y8951188D01*
X22194174Y8951188D01*
X22102125Y8898043D01*
X22102119Y8898039D01*
X22026961Y8822881D01*
X22026957Y8822875D01*
X21973812Y8730826D01*
X21973812Y8730825D01*
X21973811Y8730823D01*
X21952725Y8652126D01*
X21946300Y8628148D01*
X21946300Y8527700D01*
X21926615Y8460661D01*
X21873811Y8414906D01*
X21863239Y8410653D01*
X21843360Y8403700D01*
X21821852Y8403700D01*
X21719177Y8376189D01*
X21649207Y8335792D01*
X21638223Y8331950D01*
X21614484Y8330742D01*
X21591384Y8325137D01*
X21580231Y8328998D01*
X21568444Y8328397D01*
X21547817Y8340217D01*
X21525357Y8347990D01*
X21521024Y8351655D01*
X21520911Y8351507D01*
X21514469Y8356450D01*
X21514465Y8356454D01*
X21422410Y8409602D01*
X21319735Y8437113D01*
X21213439Y8437113D01*
X21110764Y8409602D01*
X21110762Y8409601D01*
X21110761Y8409601D01*
X21018712Y8356456D01*
X21018706Y8356452D01*
X20943548Y8281294D01*
X20943544Y8281288D01*
X20890399Y8189239D01*
X20890399Y8189238D01*
X20890398Y8189236D01*
X20862887Y8086561D01*
X20862887Y7980265D01*
X20890398Y7877590D01*
X20943546Y7785535D01*
X21018709Y7710372D01*
X21110764Y7657224D01*
X21213439Y7629713D01*
X21213441Y7629713D01*
X21319733Y7629713D01*
X21319735Y7629713D01*
X21422410Y7657224D01*
X21482304Y7691805D01*
X21502314Y7696660D01*
X21520599Y7706130D01*
X21535577Y7704730D01*
X21550200Y7708277D01*
X21569662Y7701542D01*
X21590165Y7699624D01*
X21606753Y7688705D01*
X21616228Y7685426D01*
X21620765Y7682036D01*
X21626671Y7677410D01*
X21627122Y7676959D01*
X21627596Y7676686D01*
X21633731Y7671880D01*
X21653690Y7643965D01*
X21673959Y7616205D01*
X21673997Y7615565D01*
X21674369Y7615044D01*
X21676067Y7580780D01*
X21678111Y7546459D01*
X21677797Y7545894D01*
X21677829Y7545260D01*
X21667355Y7527039D01*
X21644949Y7486580D01*
X20061950Y5903580D01*
X20061948Y5903578D01*
X20043315Y5871303D01*
X20029791Y5847878D01*
X20002219Y5800122D01*
X19971300Y5684731D01*
X19971300Y5684729D01*
X19971300Y3724000D01*
X19951615Y3656961D01*
X19898811Y3611206D01*
X19847300Y3600000D01*
X17562750Y3600000D01*
X17495711Y3619685D01*
X17449956Y3672489D01*
X17440139Y3705493D01*
X17438750Y3714696D01*
X17438750Y3777464D01*
X17429637Y3799464D01*
X17398597Y3874403D01*
X17361319Y3911681D01*
X17327834Y3973004D01*
X17325000Y3999362D01*
X17325000Y5483899D01*
X17324999Y5483903D01*
X17292036Y5563481D01*
X17292031Y5563492D01*
X17292018Y5563524D01*
X17284846Y5580840D01*
X17284845Y5580841D01*
X17284845Y5580842D01*
X12854516Y10011170D01*
X12821031Y10072493D01*
X12826015Y10142185D01*
X12834811Y10160852D01*
X12867218Y10216983D01*
X12867217Y10216983D01*
X12867221Y10216988D01*
X12896436Y10326021D01*
X12896436Y10438899D01*
X12867221Y10547932D01*
X12810781Y10645688D01*
X12730964Y10725505D01*
X12682086Y10753725D01*
X12633209Y10781945D01*
X12578691Y10796553D01*
X12524175Y10811160D01*
X12411297Y10811160D01*
X12302262Y10781945D01*
X12204508Y10725505D01*
X12204505Y10725503D01*
X12124693Y10645691D01*
X12124691Y10645688D01*
X12068251Y10547934D01*
X12039036Y10438899D01*
X12039036Y10376742D01*
X12019351Y10309703D01*
X11966547Y10263948D01*
X11897389Y10254004D01*
X11893308Y10254841D01*
X11888531Y10255470D01*
X11888530Y10255470D01*
X11775652Y10255470D01*
X11666617Y10226255D01*
X11568863Y10169815D01*
X11568860Y10169813D01*
X11489048Y10090001D01*
X11489046Y10089998D01*
X11432606Y9992244D01*
X11403391Y9883209D01*
X11403391Y9770332D01*
X11432606Y9661297D01*
X11441265Y9646300D01*
X11489046Y9563542D01*
X11568863Y9483725D01*
X11666619Y9427285D01*
X11775652Y9398070D01*
X11775654Y9398070D01*
X11888528Y9398070D01*
X11888530Y9398070D01*
X11997563Y9427285D01*
X12095319Y9483725D01*
X12095330Y9483737D01*
X12096891Y9484933D01*
X12098463Y9485542D01*
X12102357Y9487789D01*
X12102707Y9487183D01*
X12162058Y9510134D01*
X12230504Y9496103D01*
X12260069Y9474246D01*
X16488681Y5245634D01*
X16522166Y5184311D01*
X16525000Y5157953D01*
X16525000Y3999361D01*
X16505315Y3932322D01*
X16488681Y3911680D01*
X16451405Y3874405D01*
X16451404Y3874404D01*
X16451404Y3874403D01*
X16440228Y3847421D01*
X16411250Y3777465D01*
X16411250Y3724000D01*
X16408699Y3715315D01*
X16409988Y3706353D01*
X16399009Y3682313D01*
X16391565Y3656961D01*
X16384724Y3651034D01*
X16380963Y3642797D01*
X16358728Y3628508D01*
X16338761Y3611206D01*
X16328246Y3608919D01*
X16322185Y3605023D01*
X16287250Y3600000D01*
X16089700Y3600000D01*
X16022661Y3619685D01*
X15976906Y3672489D01*
X15965700Y3724000D01*
X15965700Y5313269D01*
X15965700Y5313271D01*
X15945889Y5387206D01*
X15907618Y5453494D01*
X15853494Y5507618D01*
X14703494Y6657618D01*
X14637206Y6695889D01*
X14637207Y6695889D01*
X14618722Y6700842D01*
X14563271Y6715700D01*
X14563268Y6715700D01*
X14491935Y6715700D01*
X14424896Y6735385D01*
X14404254Y6752019D01*
X14388230Y6768043D01*
X14388228Y6768045D01*
X14336274Y6798041D01*
X14290473Y6824485D01*
X14206996Y6846852D01*
X14181439Y6853700D01*
X14068561Y6853700D01*
X13959526Y6824485D01*
X13861772Y6768045D01*
X13861769Y6768043D01*
X13781957Y6688231D01*
X13781955Y6688228D01*
X13725515Y6590474D01*
X13700282Y6496301D01*
X13696300Y6481439D01*
X13696300Y6368561D01*
X13720844Y6276959D01*
X13725516Y6259526D01*
X13725516Y6259525D01*
X13725918Y6258829D01*
X13726078Y6258168D01*
X13728627Y6252014D01*
X13727667Y6251617D01*
X13742391Y6190929D01*
X13719539Y6124902D01*
X13691874Y6099748D01*
X13693221Y6097993D01*
X13686769Y6093043D01*
X13606957Y6013231D01*
X13606955Y6013228D01*
X13550515Y5915474D01*
X13524292Y5817604D01*
X13521300Y5806439D01*
X13521300Y5693561D01*
X13523666Y5684731D01*
X13550515Y5584527D01*
X13572266Y5546854D01*
X13606955Y5486772D01*
X13686772Y5406955D01*
X13757316Y5366226D01*
X13784524Y5350517D01*
X13784528Y5350515D01*
X13893561Y5321300D01*
X13893563Y5321300D01*
X14006437Y5321300D01*
X14006439Y5321300D01*
X14115472Y5350515D01*
X14120989Y5353700D01*
X14142685Y5366226D01*
X14210585Y5382700D01*
X14276612Y5359848D01*
X14292367Y5346521D01*
X14847981Y4790907D01*
X14881466Y4729584D01*
X14884300Y4703226D01*
X14884300Y3724000D01*
X14881749Y3715315D01*
X14883038Y3706353D01*
X14872059Y3682313D01*
X14864615Y3656961D01*
X14857774Y3651034D01*
X14854013Y3642797D01*
X14831778Y3628508D01*
X14811811Y3611206D01*
X14801296Y3608919D01*
X14795235Y3605023D01*
X14760300Y3600000D01*
X14589700Y3600000D01*
X14522661Y3619685D01*
X14476906Y3672489D01*
X14465700Y3724000D01*
X14465700Y3937278D01*
X14465700Y3938271D01*
X14465113Y3940460D01*
X14445889Y4012206D01*
X14427952Y4043274D01*
X14407618Y4078494D01*
X14353494Y4132618D01*
X14346780Y4139332D01*
X14313295Y4200655D01*
X14318279Y4270347D01*
X14321414Y4277001D01*
X14321374Y4277017D01*
X14324483Y4284525D01*
X14324484Y4284527D01*
X14324485Y4284528D01*
X14353700Y4393561D01*
X14353700Y4506439D01*
X14324485Y4615472D01*
X14268045Y4713228D01*
X14188228Y4793045D01*
X14139350Y4821265D01*
X14090473Y4849485D01*
X14035955Y4864093D01*
X13981439Y4878700D01*
X13868561Y4878700D01*
X13759526Y4849485D01*
X13661772Y4793045D01*
X13661769Y4793043D01*
X13581957Y4713231D01*
X13581955Y4713228D01*
X13525515Y4615474D01*
X13496300Y4506439D01*
X13496300Y4393562D01*
X13525515Y4284527D01*
X13533702Y4270347D01*
X13581955Y4186772D01*
X13581957Y4186770D01*
X13602497Y4166230D01*
X13634590Y4110645D01*
X13654111Y4037794D01*
X13676300Y3999361D01*
X13692381Y3971508D01*
X13692383Y3971505D01*
X13847981Y3815907D01*
X13862684Y3788980D01*
X13879277Y3763161D01*
X13880168Y3756961D01*
X13881466Y3754584D01*
X13884300Y3728226D01*
X13884300Y3724000D01*
X13864615Y3656961D01*
X13811811Y3611206D01*
X13760300Y3600000D01*
X13089700Y3600000D01*
X13022661Y3619685D01*
X12976906Y3672489D01*
X12965700Y3724000D01*
X12965700Y5493575D01*
X12965699Y5493583D01*
X12964969Y5496306D01*
X12964966Y5496315D01*
X12958840Y5519177D01*
X12945889Y5567512D01*
X12942789Y5572882D01*
X12936066Y5584527D01*
X12907620Y5633797D01*
X12907616Y5633802D01*
X9727019Y8814399D01*
X9693534Y8875722D01*
X9690700Y8902080D01*
X9690700Y11763270D01*
X9690096Y11765522D01*
X9690092Y11765538D01*
X9678860Y11807456D01*
X9670889Y11837206D01*
X9632618Y11903494D01*
X9578494Y11957618D01*
X9574163Y11961949D01*
X9574152Y11961959D01*
X9234019Y12302093D01*
X9200534Y12363416D01*
X9197700Y12389774D01*
X9197700Y13388269D01*
X9197700Y13388271D01*
X9177889Y13462206D01*
X9139618Y13528494D01*
X9085494Y13582618D01*
X8902019Y13766093D01*
X8868534Y13827416D01*
X8865700Y13853774D01*
X8865700Y15056439D01*
X9621300Y15056439D01*
X9621300Y14943561D01*
X9627999Y14918561D01*
X9650515Y14834527D01*
X9653996Y14828498D01*
X9706955Y14736772D01*
X9786772Y14656955D01*
X9884528Y14600515D01*
X9993561Y14571300D01*
X9993563Y14571300D01*
X10106437Y14571300D01*
X10106439Y14571300D01*
X10215472Y14600515D01*
X10313228Y14656955D01*
X10324254Y14667981D01*
X10385577Y14701466D01*
X10411935Y14704300D01*
X10969918Y14704300D01*
X11036957Y14684615D01*
X11060722Y14661774D01*
X11061442Y14662493D01*
X11069113Y14654822D01*
X11069114Y14654821D01*
X11154821Y14569114D01*
X11264672Y14517890D01*
X11314728Y14511300D01*
X11314735Y14511300D01*
X11735265Y14511300D01*
X11735272Y14511300D01*
X11785328Y14517890D01*
X11895179Y14569114D01*
X11980886Y14654821D01*
X11980886Y14654822D01*
X11988558Y14662493D01*
X11990245Y14660806D01*
X12033078Y14695046D01*
X12080082Y14704300D01*
X12698065Y14704300D01*
X12765104Y14684615D01*
X12785746Y14667981D01*
X12821772Y14631955D01*
X12919528Y14575515D01*
X13028561Y14546300D01*
X13028563Y14546300D01*
X13141437Y14546300D01*
X13141439Y14546300D01*
X13250472Y14575515D01*
X13348228Y14631955D01*
X13428045Y14711772D01*
X13484485Y14809528D01*
X13513700Y14918561D01*
X13513700Y15031439D01*
X13484485Y15140472D01*
X13428045Y15238228D01*
X13348228Y15318045D01*
X13299350Y15346265D01*
X13250473Y15374485D01*
X13195955Y15389093D01*
X13141439Y15403700D01*
X13028561Y15403700D01*
X12919526Y15374485D01*
X12821772Y15318045D01*
X12815326Y15313098D01*
X12813578Y15315376D01*
X12764423Y15288534D01*
X12738065Y15285700D01*
X12080082Y15285700D01*
X12013043Y15305385D01*
X11989277Y15328227D01*
X11988558Y15327507D01*
X11973020Y15343045D01*
X11895179Y15420886D01*
X11878422Y15428700D01*
X11785331Y15472109D01*
X11785329Y15472110D01*
X11785328Y15472110D01*
X11785325Y15472111D01*
X11785323Y15472111D01*
X11735282Y15478699D01*
X11735277Y15478700D01*
X11735272Y15478700D01*
X11314728Y15478700D01*
X11314722Y15478700D01*
X11314717Y15478699D01*
X11264676Y15472111D01*
X11264668Y15472109D01*
X11154822Y15420887D01*
X11061442Y15327507D01*
X11059754Y15329195D01*
X11016922Y15294954D01*
X10969918Y15285700D01*
X10421935Y15285700D01*
X10354896Y15305385D01*
X10334254Y15322019D01*
X10313230Y15343043D01*
X10313228Y15343045D01*
X10254483Y15376962D01*
X10215473Y15399485D01*
X10160955Y15414093D01*
X10106439Y15428700D01*
X9993561Y15428700D01*
X9884526Y15399485D01*
X9786772Y15343045D01*
X9786769Y15343043D01*
X9706957Y15263231D01*
X9706955Y15263228D01*
X9650515Y15165474D01*
X9643816Y15140472D01*
X9621300Y15056439D01*
X8865700Y15056439D01*
X8865700Y15177721D01*
X8885385Y15244760D01*
X8938189Y15290515D01*
X8957597Y15297493D01*
X9055823Y15323811D01*
X9147878Y15376959D01*
X9223041Y15452122D01*
X9276189Y15544177D01*
X9303700Y15646852D01*
X9303700Y15753148D01*
X9276189Y15855823D01*
X9223041Y15947878D01*
X9147878Y16023041D01*
X9055823Y16076189D01*
X8953148Y16103700D01*
X8927700Y16103700D01*
X8860661Y16123385D01*
X8814906Y16176189D01*
X8803700Y16227700D01*
X8803700Y16253146D01*
X8803700Y16253148D01*
X8776189Y16355823D01*
X8723041Y16447878D01*
X8647878Y16523041D01*
X8555823Y16576189D01*
X8453148Y16603700D01*
X8346852Y16603700D01*
X8346850Y16603700D01*
X8285375Y16587228D01*
X8215525Y16588891D01*
X8157663Y16628055D01*
X8130160Y16692283D01*
X8141747Y16761185D01*
X8165597Y16794679D01*
X8223041Y16852122D01*
X8276189Y16944177D01*
X8303700Y17046852D01*
X8303700Y17153148D01*
X8276189Y17255823D01*
X8223041Y17347878D01*
X8147878Y17423041D01*
X8055823Y17476189D01*
X7953148Y17503700D01*
X7846852Y17503700D01*
X7846851Y17503700D01*
X7842208Y17503089D01*
X7773173Y17513858D01*
X7720919Y17560240D01*
X7702037Y17627510D01*
X7703090Y17642219D01*
X7703700Y17646851D01*
X7703700Y17753146D01*
X7703700Y17753148D01*
X7676189Y17855823D01*
X7623041Y17947878D01*
X7547878Y18023041D01*
X7455823Y18076189D01*
X7353148Y18103700D01*
X7246852Y18103700D01*
X7144177Y18076189D01*
X7144175Y18076188D01*
X7144174Y18076188D01*
X7052125Y18023043D01*
X7052119Y18023039D01*
X6976961Y17947881D01*
X6976957Y17947875D01*
X6923812Y17855826D01*
X6923812Y17855825D01*
X6923811Y17855823D01*
X6896300Y17753148D01*
X6896300Y17646852D01*
X6923811Y17544177D01*
X6976959Y17452122D01*
X6976963Y17452118D01*
X6981906Y17445676D01*
X6979627Y17443928D01*
X7006466Y17394777D01*
X7009300Y17368419D01*
X7009300Y16038271D01*
X7009300Y15961729D01*
X7017099Y15932623D01*
X7029111Y15887794D01*
X7067381Y15821508D01*
X7067383Y15821505D01*
X7341981Y15546907D01*
X7375466Y15485584D01*
X7378300Y15459226D01*
X7378300Y13141225D01*
X7378300Y13064683D01*
X7398111Y12990748D01*
X7436381Y12924462D01*
X7436383Y12924459D01*
X7670981Y12689862D01*
X7704466Y12628539D01*
X7707300Y12602181D01*
X7707300Y11883995D01*
X7707300Y11807453D01*
X7718537Y11765516D01*
X7727111Y11733518D01*
X7765381Y11667232D01*
X7765383Y11667229D01*
X8166981Y11265631D01*
X8200466Y11204308D01*
X8203300Y11177950D01*
X8203300Y8292179D01*
X8203300Y8215637D01*
X8210543Y8188607D01*
X8223111Y8141702D01*
X8261381Y8075416D01*
X8261383Y8075413D01*
X9272152Y7064644D01*
X9305637Y7003321D01*
X9300653Y6933629D01*
X9258781Y6877696D01*
X9216568Y6857189D01*
X9194176Y6851189D01*
X9194174Y6851188D01*
X9102125Y6798043D01*
X9102119Y6798039D01*
X9026961Y6722881D01*
X9026957Y6722875D01*
X8973812Y6630826D01*
X8973812Y6630825D01*
X8973811Y6630823D01*
X8946300Y6528148D01*
X8946300Y6421852D01*
X8973811Y6319177D01*
X9026959Y6227122D01*
X9026961Y6227120D01*
X9048831Y6205250D01*
X9082316Y6143927D01*
X9077332Y6074235D01*
X9035460Y6018302D01*
X9023151Y6010183D01*
X9002128Y5998046D01*
X9002119Y5998039D01*
X8926961Y5922881D01*
X8926957Y5922875D01*
X8873812Y5830826D01*
X8873812Y5830825D01*
X8873811Y5830823D01*
X8846300Y5728148D01*
X8846300Y5621852D01*
X8873811Y5519177D01*
X8873812Y5519176D01*
X8873812Y5519175D01*
X8882234Y5504588D01*
X8926959Y5427122D01*
X9002122Y5351959D01*
X9094177Y5298811D01*
X9196852Y5271300D01*
X9196854Y5271300D01*
X9303146Y5271300D01*
X9303148Y5271300D01*
X9405823Y5298811D01*
X9456085Y5327831D01*
X9523981Y5344303D01*
X9590008Y5321452D01*
X9605764Y5308124D01*
X9847981Y5065907D01*
X9881466Y5004584D01*
X9884300Y4978226D01*
X9884300Y3724000D01*
X9864615Y3656961D01*
X9811811Y3611206D01*
X9760300Y3600000D01*
X9365212Y3600000D01*
X9298173Y3619685D01*
X9262109Y3655110D01*
X9260872Y3656961D01*
X9249464Y3674035D01*
X9249462Y3674038D01*
X9124038Y3799462D01*
X9124033Y3799466D01*
X8976553Y3898010D01*
X8976540Y3898017D01*
X8812667Y3965894D01*
X8812658Y3965897D01*
X8638694Y4000500D01*
X8638691Y4000500D01*
X8597595Y4000500D01*
X8550000Y4000500D01*
X8461309Y4000500D01*
X8461306Y4000500D01*
X8287341Y3965897D01*
X8287332Y3965894D01*
X8123459Y3898017D01*
X8123446Y3898010D01*
X7975967Y3799466D01*
X7975961Y3799462D01*
X7850537Y3674038D01*
X7841271Y3660171D01*
X7839128Y3656961D01*
X7837891Y3655110D01*
X7784279Y3610305D01*
X7734788Y3600000D01*
X6377700Y3600000D01*
X6310661Y3619685D01*
X6264906Y3672489D01*
X6253700Y3724000D01*
X6253700Y4043274D01*
X6231299Y4126873D01*
X6216558Y4152405D01*
X6216557Y4152407D01*
X6188027Y4201824D01*
X6188023Y4201829D01*
X5101826Y5288026D01*
X5026873Y5331299D01*
X5026868Y5331301D01*
X5015671Y5334301D01*
X5015670Y5334301D01*
X4977836Y5344439D01*
X4918176Y5380804D01*
X4887648Y5443651D01*
X4890155Y5496304D01*
X4903700Y5546852D01*
X4903700Y5653148D01*
X4876189Y5755823D01*
X4823041Y5847878D01*
X4747878Y5923041D01*
X4686508Y5958473D01*
X4655825Y5976188D01*
X4655823Y5976189D01*
X4640756Y5980226D01*
X4581097Y6016589D01*
X4550567Y6079435D01*
X4558861Y6148811D01*
X4603346Y6202690D01*
X4640755Y6219774D01*
X4655823Y6223811D01*
X4747878Y6276959D01*
X4823041Y6352122D01*
X4876189Y6444177D01*
X4903700Y6546852D01*
X4903700Y6653148D01*
X4876189Y6755823D01*
X4823041Y6847878D01*
X4747878Y6923041D01*
X4655823Y6976189D01*
X4553148Y7003700D01*
X4446852Y7003700D01*
X4344177Y6976189D01*
X4344175Y6976188D01*
X4344174Y6976188D01*
X4252125Y6923043D01*
X4252119Y6923039D01*
X4176961Y6847881D01*
X4176957Y6847875D01*
X4123812Y6755826D01*
X4123812Y6755825D01*
X4123811Y6755823D01*
X4119774Y6740757D01*
X4083410Y6681097D01*
X4020563Y6650568D01*
X3951188Y6658863D01*
X3897310Y6703348D01*
X3880226Y6740756D01*
X3876189Y6755823D01*
X3823041Y6847878D01*
X3747878Y6923041D01*
X3655823Y6976189D01*
X3553148Y7003700D01*
X3446852Y7003700D01*
X3344177Y6976189D01*
X3344175Y6976188D01*
X3344174Y6976188D01*
X3252125Y6923043D01*
X3252119Y6923039D01*
X3176961Y6847881D01*
X3176957Y6847875D01*
X3123812Y6755826D01*
X3123812Y6755825D01*
X3123811Y6755823D01*
X3096300Y6653148D01*
X3096300Y6546852D01*
X3123811Y6444177D01*
X3154687Y6390698D01*
X3171300Y6328699D01*
X3171300Y5871303D01*
X3154688Y5809304D01*
X3123809Y5755821D01*
X3096300Y5653150D01*
X3096300Y5653148D01*
X3096300Y5546852D01*
X3123811Y5444177D01*
X3154687Y5390698D01*
X3168394Y5339544D01*
X3170239Y5339786D01*
X3171299Y5331729D01*
X3171300Y5331726D01*
X3189997Y5261949D01*
X3193263Y5249759D01*
X3193702Y5248123D01*
X3236972Y5173177D01*
X3236976Y5173172D01*
X3648169Y4761978D01*
X3648173Y4761975D01*
X3648174Y4761974D01*
X3685023Y4740700D01*
X3691807Y4736784D01*
X3700292Y4731884D01*
X3723558Y4707481D01*
X3748502Y4681321D01*
X3748502Y4681318D01*
X3748505Y4681315D01*
X3754597Y4649696D01*
X3761726Y4612714D01*
X3761724Y4612711D01*
X3761725Y4612708D01*
X3755370Y4596837D01*
X3735758Y4547849D01*
X3735755Y4547848D01*
X3735754Y4547844D01*
X3711651Y4530682D01*
X3678844Y4507320D01*
X3678839Y4507320D01*
X3678838Y4507318D01*
X3678829Y4507318D01*
X3638287Y4500500D01*
X659756Y4500500D01*
X640360Y4502027D01*
X624110Y4504601D01*
X607749Y4507192D01*
X570853Y4519180D01*
X550234Y4529686D01*
X548325Y4531073D01*
X547102Y4531339D01*
X518848Y4552490D01*
X502489Y4568849D01*
X479685Y4600235D01*
X473327Y4612714D01*
X469178Y4620856D01*
X457192Y4657747D01*
X452025Y4690370D01*
X450500Y4709756D01*
X450500Y9818189D01*
X470185Y9885228D01*
X522989Y9930983D01*
X592147Y9940927D01*
X655703Y9911902D01*
X681886Y9880190D01*
X726959Y9802122D01*
X802122Y9726959D01*
X894177Y9673811D01*
X996852Y9646300D01*
X996854Y9646300D01*
X1103146Y9646300D01*
X1103148Y9646300D01*
X1205823Y9673811D01*
X1297878Y9726959D01*
X1373041Y9802122D01*
X1426189Y9894177D01*
X1453700Y9996852D01*
X1453700Y10103148D01*
X1426189Y10205823D01*
X1373041Y10297878D01*
X1297878Y10373041D01*
X1205823Y10426189D01*
X1103148Y10453700D01*
X996852Y10453700D01*
X894177Y10426189D01*
X894175Y10426188D01*
X894174Y10426188D01*
X802125Y10373043D01*
X802119Y10373039D01*
X726961Y10297881D01*
X726959Y10297878D01*
X707370Y10263948D01*
X681887Y10219811D01*
X631320Y10171596D01*
X562712Y10158374D01*
X497848Y10184342D01*
X457320Y10241256D01*
X450500Y10281812D01*
X450500Y12005997D01*
X470185Y12073036D01*
X522989Y12118791D01*
X592147Y12128735D01*
X655703Y12099710D01*
X662181Y12093678D01*
X1222643Y11533216D01*
X1222653Y11533205D01*
X1278875Y11476983D01*
X1318492Y11454111D01*
X1318491Y11454111D01*
X1338494Y11442563D01*
X1342426Y11440293D01*
X1342429Y11440292D01*
X1342432Y11440291D01*
X1389680Y11427631D01*
X1413308Y11421299D01*
X1494288Y11421299D01*
X1494304Y11421300D01*
X2131419Y11421300D01*
X2198458Y11401615D01*
X2219100Y11384981D01*
X2227122Y11376959D01*
X2319177Y11323811D01*
X2421852Y11296300D01*
X2421854Y11296300D01*
X2528146Y11296300D01*
X2528148Y11296300D01*
X2630823Y11323811D01*
X2722878Y11376959D01*
X2798041Y11452122D01*
X2851189Y11544177D01*
X2878700Y11646852D01*
X2878700Y11753148D01*
X2851189Y11855823D01*
X2798041Y11947878D01*
X2722878Y12023041D01*
X2630823Y12076189D01*
X2528148Y12103700D01*
X2421852Y12103700D01*
X2319177Y12076189D01*
X2319175Y12076188D01*
X2319174Y12076188D01*
X2227125Y12023043D01*
X2227119Y12023039D01*
X2219100Y12015019D01*
X2157777Y11981534D01*
X2131419Y11978700D01*
X1616803Y11978700D01*
X1549764Y11998385D01*
X1529122Y12015019D01*
X1064019Y12480122D01*
X1030534Y12541445D01*
X1027700Y12567803D01*
X1027700Y21703148D01*
X1996300Y21703148D01*
X1996300Y21596852D01*
X2023811Y21494177D01*
X2023812Y21494176D01*
X2023812Y21494175D01*
X2076958Y21402123D01*
X2078216Y21400484D01*
X2078846Y21398853D01*
X2081023Y21395083D01*
X2080435Y21394744D01*
X2103408Y21335314D01*
X2089368Y21266870D01*
X2078216Y21249516D01*
X2076958Y21247878D01*
X2023812Y21155826D01*
X2023812Y21155825D01*
X2023811Y21155823D01*
X1996300Y21053148D01*
X1996300Y20946852D01*
X2023811Y20844177D01*
X2023812Y20844176D01*
X2023812Y20844175D01*
X2076958Y20752123D01*
X2078216Y20750484D01*
X2078846Y20748853D01*
X2081023Y20745083D01*
X2080435Y20744744D01*
X2103408Y20685314D01*
X2089368Y20616870D01*
X2078216Y20599516D01*
X2076958Y20597878D01*
X2023812Y20505826D01*
X2023812Y20505825D01*
X2023811Y20505823D01*
X1996300Y20403148D01*
X1996300Y20296852D01*
X2023811Y20194177D01*
X2076959Y20102122D01*
X2152122Y20026959D01*
X2244177Y19973811D01*
X2346852Y19946300D01*
X2346854Y19946300D01*
X2453146Y19946300D01*
X2453148Y19946300D01*
X2555823Y19973811D01*
X2647878Y20026959D01*
X2723041Y20102122D01*
X2776189Y20194177D01*
X2803700Y20296852D01*
X2803700Y20403148D01*
X2776189Y20505823D01*
X2723041Y20597878D01*
X2723037Y20597882D01*
X2721789Y20599508D01*
X2721158Y20601139D01*
X2718977Y20604917D01*
X2719566Y20605258D01*
X2696592Y20664676D01*
X2710626Y20733122D01*
X2721789Y20750492D01*
X2723034Y20752116D01*
X2723041Y20752122D01*
X2776189Y20844177D01*
X2803700Y20946852D01*
X2803700Y21053148D01*
X2776189Y21155823D01*
X2723041Y21247878D01*
X2723037Y21247882D01*
X2721789Y21249508D01*
X2721158Y21251139D01*
X2718977Y21254917D01*
X2719566Y21255258D01*
X2696592Y21314676D01*
X2710626Y21383122D01*
X2721789Y21400492D01*
X2723034Y21402116D01*
X2723041Y21402122D01*
X2776189Y21494177D01*
X2803700Y21596852D01*
X2803700Y21703148D01*
X2776189Y21805823D01*
X2723041Y21897878D01*
X2647878Y21973041D01*
X2555823Y22026189D01*
X2453148Y22053700D01*
X2346852Y22053700D01*
X2244177Y22026189D01*
X2244175Y22026188D01*
X2244174Y22026188D01*
X2152125Y21973043D01*
X2152119Y21973039D01*
X2076961Y21897881D01*
X2076957Y21897875D01*
X2023812Y21805826D01*
X2023812Y21805825D01*
X2023811Y21805823D01*
X1996300Y21703148D01*
X1027700Y21703148D01*
X1027700Y43236692D01*
X2421300Y43236692D01*
X2421300Y37638308D01*
X2422670Y37633197D01*
X2440293Y37567426D01*
X2476983Y37503875D01*
X2535939Y37444919D01*
X2535945Y37444914D01*
X4597643Y35383216D01*
X4597653Y35383205D01*
X4653875Y35326983D01*
X4696937Y35302122D01*
X4696936Y35302122D01*
X4714059Y35292237D01*
X4717426Y35290293D01*
X4717429Y35290292D01*
X4717432Y35290291D01*
X4764680Y35277631D01*
X4788308Y35271299D01*
X4869288Y35271299D01*
X4869304Y35271300D01*
X6086419Y35271300D01*
X6153458Y35251615D01*
X6174100Y35234981D01*
X6182122Y35226959D01*
X6274177Y35173811D01*
X6376852Y35146300D01*
X6376854Y35146300D01*
X6483146Y35146300D01*
X6483148Y35146300D01*
X6585823Y35173811D01*
X6677878Y35226959D01*
X6753041Y35302122D01*
X6806189Y35394177D01*
X6833700Y35496852D01*
X6833700Y35603148D01*
X6806189Y35705823D01*
X6753041Y35797878D01*
X6677878Y35873041D01*
X6585823Y35926189D01*
X6483148Y35953700D01*
X6376852Y35953700D01*
X6274177Y35926189D01*
X6274175Y35926188D01*
X6274174Y35926188D01*
X6182125Y35873043D01*
X6182119Y35873039D01*
X6174100Y35865019D01*
X6112777Y35831534D01*
X6086419Y35828700D01*
X4991803Y35828700D01*
X4924764Y35848385D01*
X4904122Y35865019D01*
X3690993Y37078148D01*
X6746300Y37078148D01*
X6746300Y36971852D01*
X6773811Y36869177D01*
X6826959Y36777122D01*
X6902122Y36701959D01*
X6994177Y36648811D01*
X7096852Y36621300D01*
X7096854Y36621300D01*
X7203146Y36621300D01*
X7203148Y36621300D01*
X7305823Y36648811D01*
X7305832Y36648817D01*
X7313336Y36651923D01*
X7314139Y36649984D01*
X7371186Y36663834D01*
X7437217Y36640993D01*
X7480417Y36586080D01*
X7487071Y36516527D01*
X7485083Y36507881D01*
X7471300Y36456441D01*
X7471300Y36343562D01*
X7500515Y36234527D01*
X7528735Y36185650D01*
X7556955Y36136772D01*
X7636772Y36056955D01*
X7734528Y36000515D01*
X7843561Y35971300D01*
X7843563Y35971300D01*
X7956437Y35971300D01*
X7956439Y35971300D01*
X8065472Y36000515D01*
X8163228Y36056955D01*
X8243045Y36136772D01*
X8299485Y36234528D01*
X8328700Y36343561D01*
X8328700Y36456439D01*
X8299485Y36565472D01*
X8243045Y36663228D01*
X8215019Y36691254D01*
X8181534Y36752577D01*
X8178700Y36778935D01*
X8178700Y37836690D01*
X8178700Y37836692D01*
X8159707Y37907574D01*
X8123016Y37971126D01*
X8071126Y38023016D01*
X8071125Y38023017D01*
X7915019Y38179123D01*
X7881534Y38240446D01*
X7878700Y38266804D01*
X7878700Y39138197D01*
X7898385Y39205236D01*
X7915019Y39225878D01*
X8129123Y39439981D01*
X8190446Y39473466D01*
X8216804Y39476300D01*
X8256437Y39476300D01*
X8256439Y39476300D01*
X8365472Y39505515D01*
X8463228Y39561955D01*
X8543045Y39641772D01*
X8599485Y39739528D01*
X8628700Y39848561D01*
X8628700Y39961439D01*
X8599485Y40070472D01*
X8543045Y40168228D01*
X8463228Y40248045D01*
X8414350Y40276265D01*
X8365473Y40304485D01*
X8310955Y40319093D01*
X8256439Y40333700D01*
X8143561Y40333700D01*
X8034526Y40304485D01*
X7936772Y40248045D01*
X7936769Y40248043D01*
X7856957Y40168231D01*
X7856955Y40168228D01*
X7800515Y40070474D01*
X7771300Y39961439D01*
X7771300Y39921804D01*
X7751615Y39854765D01*
X7734981Y39834123D01*
X7376985Y39476128D01*
X7376983Y39476126D01*
X7340293Y39412575D01*
X7340293Y39412574D01*
X7321300Y39341692D01*
X7321300Y38063308D01*
X7340293Y37992426D01*
X7376983Y37928875D01*
X7435939Y37869919D01*
X7435945Y37869914D01*
X7584981Y37720878D01*
X7618466Y37659555D01*
X7621300Y37633197D01*
X7621300Y37423981D01*
X7601615Y37356942D01*
X7548811Y37311187D01*
X7479653Y37301243D01*
X7416097Y37330268D01*
X7409619Y37336300D01*
X7397880Y37348039D01*
X7397878Y37348041D01*
X7305823Y37401189D01*
X7203148Y37428700D01*
X7096852Y37428700D01*
X6994177Y37401189D01*
X6994175Y37401188D01*
X6994174Y37401188D01*
X6902125Y37348043D01*
X6902119Y37348039D01*
X6826961Y37272881D01*
X6826957Y37272875D01*
X6773812Y37180826D01*
X6773812Y37180825D01*
X6773811Y37180823D01*
X6746300Y37078148D01*
X3690993Y37078148D01*
X3015019Y37754122D01*
X2981534Y37815445D01*
X2978700Y37841803D01*
X2978700Y42203148D01*
X3316300Y42203148D01*
X3316300Y42096852D01*
X3343811Y41994177D01*
X3396959Y41902122D01*
X3472122Y41826959D01*
X3564177Y41773811D01*
X3666852Y41746300D01*
X3666854Y41746300D01*
X3773146Y41746300D01*
X3773148Y41746300D01*
X3875823Y41773811D01*
X3967878Y41826959D01*
X4043041Y41902122D01*
X4096189Y41994177D01*
X4123700Y42096852D01*
X4123700Y42203148D01*
X4096189Y42305823D01*
X4043041Y42397878D01*
X3967878Y42473041D01*
X3875823Y42526189D01*
X3773148Y42553700D01*
X3666852Y42553700D01*
X3564177Y42526189D01*
X3564175Y42526188D01*
X3564174Y42526188D01*
X3472125Y42473043D01*
X3472119Y42473039D01*
X3396961Y42397881D01*
X3396957Y42397875D01*
X3343812Y42305826D01*
X3343812Y42305825D01*
X3343811Y42305823D01*
X3316300Y42203148D01*
X2978700Y42203148D01*
X2978700Y42756642D01*
X6990492Y42756642D01*
X6990492Y42650346D01*
X7018003Y42547671D01*
X7071151Y42455616D01*
X7146314Y42380453D01*
X7238369Y42327305D01*
X7341044Y42299794D01*
X7341046Y42299794D01*
X7447338Y42299794D01*
X7447340Y42299794D01*
X7550015Y42327305D01*
X7642070Y42380453D01*
X7717233Y42455616D01*
X7770381Y42547671D01*
X7797892Y42650346D01*
X7797892Y42756642D01*
X7770381Y42859317D01*
X7717233Y42951372D01*
X7642070Y43026535D01*
X7550015Y43079683D01*
X7447340Y43107194D01*
X7341044Y43107194D01*
X7238369Y43079683D01*
X7238367Y43079682D01*
X7238366Y43079682D01*
X7146317Y43026537D01*
X7146311Y43026533D01*
X7071153Y42951375D01*
X7071149Y42951369D01*
X7018004Y42859320D01*
X7018004Y42859319D01*
X7018003Y42859317D01*
X6990492Y42756642D01*
X2978700Y42756642D01*
X2978700Y43033198D01*
X2998385Y43100237D01*
X3015015Y43120875D01*
X3271874Y43377735D01*
X3333195Y43411218D01*
X3402886Y43406234D01*
X3414742Y43400648D01*
X3419173Y43398814D01*
X3419177Y43398811D01*
X3521852Y43371300D01*
X3521854Y43371300D01*
X3628146Y43371300D01*
X3628148Y43371300D01*
X3730823Y43398811D01*
X3822878Y43451959D01*
X3898041Y43527122D01*
X3951189Y43619177D01*
X3978700Y43721852D01*
X3978700Y43828148D01*
X3951189Y43930823D01*
X3898041Y44022878D01*
X3822878Y44098041D01*
X3730823Y44151189D01*
X3730822Y44151190D01*
X3724026Y44155113D01*
X3675810Y44205680D01*
X3662587Y44274287D01*
X3688555Y44339152D01*
X3724026Y44369887D01*
X3730821Y44373811D01*
X3730823Y44373811D01*
X3822878Y44426959D01*
X3898041Y44502122D01*
X3951189Y44594177D01*
X3978700Y44696852D01*
X3978700Y44803148D01*
X3951189Y44905823D01*
X3898041Y44997878D01*
X3822878Y45073041D01*
X3730823Y45126189D01*
X3715756Y45130226D01*
X3656097Y45166589D01*
X3625567Y45229435D01*
X3633861Y45298811D01*
X3678346Y45352690D01*
X3715755Y45369774D01*
X3730823Y45373811D01*
X3822878Y45426959D01*
X3898041Y45502122D01*
X3951189Y45594177D01*
X3978700Y45696852D01*
X3978700Y45803148D01*
X3951189Y45905823D01*
X3898041Y45997878D01*
X3822878Y46073041D01*
X3730825Y46126188D01*
X3730826Y46126188D01*
X3730823Y46126189D01*
X3656604Y46146076D01*
X3596945Y46182440D01*
X3566416Y46245287D01*
X3574711Y46314663D01*
X3619196Y46368541D01*
X3656603Y46385624D01*
X3705823Y46398811D01*
X3797878Y46451959D01*
X3873041Y46527122D01*
X3926189Y46619177D01*
X3953700Y46721852D01*
X3953700Y46828148D01*
X3926189Y46930823D01*
X3873041Y47022878D01*
X3797878Y47098041D01*
X3723526Y47140968D01*
X3705825Y47151188D01*
X3705824Y47151189D01*
X3705823Y47151189D01*
X3656605Y47164377D01*
X3596945Y47200741D01*
X3566416Y47263588D01*
X3574711Y47332964D01*
X3619196Y47386841D01*
X3656603Y47403925D01*
X3730823Y47423811D01*
X3822878Y47476959D01*
X3898041Y47552122D01*
X3951189Y47644177D01*
X3978700Y47746852D01*
X3978700Y47853148D01*
X3951189Y47955823D01*
X3936622Y47981054D01*
X4920512Y47981054D01*
X4920512Y47560523D01*
X4920513Y47560506D01*
X4927101Y47510465D01*
X4927103Y47510457D01*
X4978326Y47400609D01*
X5020466Y47358469D01*
X5053951Y47297146D01*
X5048967Y47227454D01*
X5020466Y47183107D01*
X4978326Y47140968D01*
X4927103Y47031120D01*
X4927101Y47031112D01*
X4920513Y46981071D01*
X4920512Y46981054D01*
X4920512Y46560523D01*
X4920513Y46560506D01*
X4927101Y46510465D01*
X4927103Y46510457D01*
X4978326Y46400609D01*
X5010466Y46368468D01*
X5043951Y46307145D01*
X5038965Y46237453D01*
X5010467Y46193108D01*
X4983325Y46165967D01*
X4932103Y46056120D01*
X4932101Y46056112D01*
X4925513Y46006071D01*
X4925512Y46006054D01*
X4925512Y45585523D01*
X4925513Y45585506D01*
X4932101Y45535465D01*
X4932103Y45535457D01*
X4983326Y45425609D01*
X5010466Y45398469D01*
X5043951Y45337146D01*
X5038967Y45267454D01*
X5010466Y45223107D01*
X4978326Y45190968D01*
X4927103Y45081120D01*
X4927101Y45081112D01*
X4920513Y45031071D01*
X4920512Y45031054D01*
X4920512Y44610523D01*
X4920513Y44610506D01*
X4927101Y44560465D01*
X4927103Y44560457D01*
X4978326Y44450609D01*
X5007966Y44420969D01*
X5041451Y44359646D01*
X5036467Y44289954D01*
X5007966Y44245607D01*
X4978326Y44215968D01*
X4927103Y44106120D01*
X4927101Y44106112D01*
X4920513Y44056071D01*
X4920512Y44056054D01*
X4920512Y43635523D01*
X4920513Y43635506D01*
X4927101Y43585465D01*
X4927103Y43585457D01*
X4978326Y43475609D01*
X5064033Y43389902D01*
X5173884Y43338678D01*
X5223940Y43332088D01*
X5223947Y43332088D01*
X5584477Y43332088D01*
X5584484Y43332088D01*
X5634540Y43338678D01*
X5744391Y43389902D01*
X5830098Y43475609D01*
X5881322Y43585460D01*
X5887912Y43635516D01*
X5887912Y44056060D01*
X5881322Y44106116D01*
X5830098Y44215967D01*
X5800458Y44245607D01*
X5766973Y44306930D01*
X5771957Y44376622D01*
X5800458Y44420969D01*
X5806451Y44426962D01*
X5830098Y44450609D01*
X5881322Y44560460D01*
X5887912Y44610516D01*
X5887912Y45031060D01*
X5881322Y45081116D01*
X5830098Y45190967D01*
X5802958Y45218107D01*
X5769473Y45279430D01*
X5774457Y45349122D01*
X5802958Y45393469D01*
X5807958Y45398469D01*
X5835098Y45425609D01*
X5886322Y45535460D01*
X5892912Y45585516D01*
X5892912Y46006060D01*
X5886322Y46056116D01*
X5835098Y46165967D01*
X5802958Y46198107D01*
X5769473Y46259430D01*
X5774457Y46329122D01*
X5802958Y46373469D01*
X5815114Y46385625D01*
X5830098Y46400609D01*
X5881322Y46510460D01*
X5887912Y46560516D01*
X5887912Y46981060D01*
X5881322Y47031116D01*
X5830098Y47140967D01*
X5787958Y47183107D01*
X5754473Y47244430D01*
X5759457Y47314122D01*
X5787958Y47358469D01*
X5803750Y47374261D01*
X5830098Y47400609D01*
X5881322Y47510460D01*
X5887912Y47560516D01*
X5887912Y47981060D01*
X5881322Y48031116D01*
X5830098Y48140967D01*
X5790458Y48180607D01*
X5756973Y48241930D01*
X5761957Y48311622D01*
X5790458Y48355969D01*
X5805789Y48371300D01*
X5835098Y48400609D01*
X5886322Y48510460D01*
X5892912Y48560516D01*
X5892912Y48981060D01*
X5886322Y49031116D01*
X5835098Y49140967D01*
X5815458Y49160607D01*
X5781973Y49221930D01*
X5786957Y49291622D01*
X5815458Y49335969D01*
X5825789Y49346300D01*
X5855098Y49375609D01*
X5906322Y49485460D01*
X5912912Y49535516D01*
X5912912Y49956060D01*
X5906322Y50006116D01*
X5855098Y50115967D01*
X5825458Y50145607D01*
X5791973Y50206930D01*
X5796957Y50276622D01*
X5825458Y50320969D01*
X5825789Y50321300D01*
X5855098Y50350609D01*
X5906322Y50460460D01*
X5912912Y50510516D01*
X5912912Y50931060D01*
X5906322Y50981116D01*
X5855098Y51090967D01*
X5769391Y51176674D01*
X5706385Y51206054D01*
X5659543Y51227897D01*
X5659541Y51227898D01*
X5659540Y51227898D01*
X5659537Y51227899D01*
X5659535Y51227899D01*
X5609494Y51234487D01*
X5609489Y51234488D01*
X5609484Y51234488D01*
X5248940Y51234488D01*
X5248934Y51234488D01*
X5248929Y51234487D01*
X5198888Y51227899D01*
X5198880Y51227897D01*
X5089032Y51176674D01*
X5003326Y51090968D01*
X4952103Y50981120D01*
X4952101Y50981112D01*
X4945513Y50931071D01*
X4945512Y50931054D01*
X4945512Y50510523D01*
X4945513Y50510506D01*
X4952101Y50460465D01*
X4952103Y50460457D01*
X5003326Y50350609D01*
X5032966Y50320969D01*
X5066451Y50259646D01*
X5061467Y50189954D01*
X5032966Y50145607D01*
X5003326Y50115968D01*
X4952103Y50006120D01*
X4952101Y50006112D01*
X4945513Y49956071D01*
X4945512Y49956054D01*
X4945512Y49535523D01*
X4945513Y49535506D01*
X4952101Y49485465D01*
X4952103Y49485457D01*
X5003325Y49375610D01*
X5022967Y49355968D01*
X5056451Y49294644D01*
X5051465Y49224952D01*
X5022966Y49180608D01*
X4983326Y49140968D01*
X4932103Y49031120D01*
X4932101Y49031112D01*
X4925513Y48981071D01*
X4925512Y48981054D01*
X4925512Y48560523D01*
X4925513Y48560506D01*
X4932101Y48510465D01*
X4932103Y48510457D01*
X4983326Y48400609D01*
X5022966Y48360969D01*
X5056451Y48299646D01*
X5051467Y48229954D01*
X5022966Y48185607D01*
X4978326Y48140968D01*
X4927103Y48031120D01*
X4927101Y48031112D01*
X4920513Y47981071D01*
X4920512Y47981054D01*
X3936622Y47981054D01*
X3898041Y48047878D01*
X3822878Y48123041D01*
X3730823Y48176189D01*
X3730822Y48176190D01*
X3724026Y48180113D01*
X3675810Y48230680D01*
X3662587Y48299287D01*
X3688555Y48364152D01*
X3724026Y48394887D01*
X3730821Y48398811D01*
X3730823Y48398811D01*
X3822878Y48451959D01*
X3898041Y48527122D01*
X3951189Y48619177D01*
X3978700Y48721852D01*
X3978700Y48828148D01*
X3951189Y48930823D01*
X3898041Y49022878D01*
X3822878Y49098041D01*
X3742560Y49144413D01*
X3694346Y49194979D01*
X3681124Y49263587D01*
X3707092Y49328451D01*
X3764006Y49368979D01*
X3772446Y49371567D01*
X3780823Y49373811D01*
X3872878Y49426959D01*
X3948041Y49502122D01*
X4001189Y49594177D01*
X4028700Y49696852D01*
X4028700Y49803148D01*
X4001189Y49905823D01*
X3948041Y49997878D01*
X3872878Y50073041D01*
X3792560Y50119413D01*
X3744346Y50169979D01*
X3731124Y50238587D01*
X3757092Y50303451D01*
X3814006Y50343979D01*
X3822446Y50346567D01*
X3830823Y50348811D01*
X3922878Y50401959D01*
X3998041Y50477122D01*
X4051189Y50569177D01*
X4078700Y50671852D01*
X4078700Y50778148D01*
X4051189Y50880823D01*
X3998041Y50972878D01*
X3922878Y51048041D01*
X3830823Y51101189D01*
X3728148Y51128700D01*
X3621852Y51128700D01*
X3519177Y51101189D01*
X3519175Y51101188D01*
X3519174Y51101188D01*
X3427125Y51048043D01*
X3427119Y51048039D01*
X3351961Y50972881D01*
X3351957Y50972875D01*
X3298812Y50880826D01*
X3298812Y50880825D01*
X3298811Y50880823D01*
X3271300Y50778148D01*
X3271300Y50671852D01*
X3298811Y50569177D01*
X3351959Y50477122D01*
X3427122Y50401959D01*
X3498226Y50360908D01*
X3507437Y50355589D01*
X3555653Y50305022D01*
X3568876Y50236415D01*
X3542907Y50171550D01*
X3485993Y50131022D01*
X3477533Y50128428D01*
X3469177Y50126190D01*
X3469174Y50126188D01*
X3377125Y50073043D01*
X3377119Y50073039D01*
X3301961Y49997881D01*
X3301957Y49997875D01*
X3248812Y49905826D01*
X3248812Y49905825D01*
X3248811Y49905823D01*
X3221300Y49803148D01*
X3221300Y49696852D01*
X3248811Y49594177D01*
X3301959Y49502122D01*
X3377122Y49426959D01*
X3448226Y49385908D01*
X3457437Y49380589D01*
X3505653Y49330022D01*
X3518876Y49261415D01*
X3492907Y49196550D01*
X3435993Y49156022D01*
X3427533Y49153428D01*
X3419177Y49151190D01*
X3419174Y49151188D01*
X3327125Y49098043D01*
X3327119Y49098039D01*
X3251961Y49022881D01*
X3251957Y49022875D01*
X3198812Y48930826D01*
X3198812Y48930825D01*
X3198811Y48930823D01*
X3171300Y48828148D01*
X3171300Y48721852D01*
X3198811Y48619177D01*
X3251959Y48527122D01*
X3327122Y48451959D01*
X3395515Y48412473D01*
X3425973Y48394887D01*
X3474189Y48344320D01*
X3487411Y48275713D01*
X3461443Y48210848D01*
X3425973Y48180113D01*
X3327125Y48123043D01*
X3327119Y48123039D01*
X3251961Y48047881D01*
X3251957Y48047875D01*
X3198812Y47955826D01*
X3198812Y47955825D01*
X3198811Y47955823D01*
X3171300Y47853148D01*
X3171300Y47746852D01*
X3198811Y47644177D01*
X3251959Y47552122D01*
X3327122Y47476959D01*
X3419177Y47423811D01*
X3468394Y47410624D01*
X3528053Y47374261D01*
X3558583Y47311414D01*
X3550289Y47242039D01*
X3505804Y47188160D01*
X3468393Y47171075D01*
X3394177Y47151189D01*
X3394176Y47151189D01*
X3394174Y47151188D01*
X3302125Y47098043D01*
X3302119Y47098039D01*
X3226961Y47022881D01*
X3226957Y47022875D01*
X3173812Y46930826D01*
X3173812Y46930825D01*
X3173811Y46930823D01*
X3146300Y46828148D01*
X3146300Y46721852D01*
X3173811Y46619177D01*
X3226959Y46527122D01*
X3302122Y46451959D01*
X3394177Y46398811D01*
X3468394Y46378925D01*
X3528053Y46342561D01*
X3558583Y46279715D01*
X3550289Y46210339D01*
X3505804Y46156461D01*
X3468395Y46139377D01*
X3419177Y46126189D01*
X3419176Y46126189D01*
X3419174Y46126188D01*
X3327125Y46073043D01*
X3327119Y46073039D01*
X3251961Y45997881D01*
X3251957Y45997875D01*
X3198812Y45905826D01*
X3198812Y45905825D01*
X3198811Y45905823D01*
X3171300Y45803148D01*
X3171300Y45696852D01*
X3198811Y45594177D01*
X3251959Y45502122D01*
X3327122Y45426959D01*
X3419177Y45373811D01*
X3434243Y45369775D01*
X3493903Y45333410D01*
X3524432Y45270563D01*
X3516137Y45201188D01*
X3471652Y45147310D01*
X3434244Y45130227D01*
X3419177Y45126189D01*
X3419175Y45126188D01*
X3419174Y45126188D01*
X3327125Y45073043D01*
X3327119Y45073039D01*
X3251961Y44997881D01*
X3251957Y44997875D01*
X3198812Y44905826D01*
X3198812Y44905825D01*
X3198811Y44905823D01*
X3171300Y44803148D01*
X3171300Y44696852D01*
X3198811Y44594177D01*
X3251959Y44502122D01*
X3327122Y44426959D01*
X3395515Y44387473D01*
X3425973Y44369887D01*
X3428172Y44367581D01*
X3431228Y44366676D01*
X3452117Y44342468D01*
X3474189Y44319320D01*
X3474792Y44316191D01*
X3476874Y44313778D01*
X3481360Y44282111D01*
X3487411Y44250713D01*
X3486226Y44247756D01*
X3486674Y44244599D01*
X3473327Y44215534D01*
X3461443Y44185848D01*
X3458448Y44183132D01*
X3457517Y44181103D01*
X3443299Y44169389D01*
X3430796Y44158046D01*
X3420726Y44151605D01*
X3419177Y44151189D01*
X3327122Y44098041D01*
X3309581Y44080501D01*
X3298243Y44073247D01*
X3277102Y44067088D01*
X3257778Y44056535D01*
X3246295Y44055301D01*
X3246366Y44054762D01*
X3238305Y44053701D01*
X3167432Y44034710D01*
X3167425Y44034707D01*
X3103874Y43998017D01*
X2476983Y43371126D01*
X2440293Y43307575D01*
X2440293Y43307574D01*
X2421300Y43236692D01*
X1027700Y43236692D01*
X1027700Y61978148D01*
X1446300Y61978148D01*
X1446300Y61871852D01*
X1473811Y61769177D01*
X1526959Y61677122D01*
X1602122Y61601959D01*
X1694177Y61548811D01*
X1796852Y61521300D01*
X1796854Y61521300D01*
X1903145Y61521300D01*
X1903148Y61521300D01*
X2005823Y61548811D01*
X2005827Y61548814D01*
X2005904Y61548834D01*
X2075754Y61547171D01*
X2133617Y61508009D01*
X2157773Y61461153D01*
X2159261Y61455600D01*
X2188476Y61346567D01*
X2244916Y61248811D01*
X2324733Y61168994D01*
X2422489Y61112554D01*
X2422490Y61112554D01*
X2422493Y61112552D01*
X2429998Y61109443D01*
X2428935Y61106878D01*
X2477028Y61077584D01*
X2507577Y61014747D01*
X2509300Y60994145D01*
X2509300Y60466935D01*
X2489615Y60399896D01*
X2472981Y60379254D01*
X2456957Y60363231D01*
X2456955Y60363228D01*
X2400515Y60265474D01*
X2371300Y60156439D01*
X2371300Y60043562D01*
X2400515Y59934527D01*
X2428633Y59885826D01*
X2456955Y59836772D01*
X2536772Y59756955D01*
X2621428Y59708078D01*
X2632449Y59701715D01*
X2634528Y59700515D01*
X2743561Y59671300D01*
X2743563Y59671300D01*
X2856437Y59671300D01*
X2856439Y59671300D01*
X2965472Y59700515D01*
X3063228Y59756955D01*
X3143045Y59836772D01*
X3199485Y59934528D01*
X3228700Y60043561D01*
X3228700Y60156439D01*
X3199485Y60265472D01*
X3143045Y60363228D01*
X3127019Y60379254D01*
X3093534Y60440577D01*
X3090700Y60466935D01*
X3090700Y61338269D01*
X3090700Y61338271D01*
X3070889Y61412206D01*
X3033273Y61477360D01*
X3016661Y61539359D01*
X3016661Y61568476D01*
X3016661Y61568478D01*
X2987446Y61677511D01*
X2931006Y61775267D01*
X2851189Y61855084D01*
X2793644Y61888308D01*
X2753434Y61911524D01*
X2672633Y61933174D01*
X2644400Y61940739D01*
X2531522Y61940739D01*
X2422489Y61911524D01*
X2422488Y61911524D01*
X2422486Y61911523D01*
X2417251Y61909355D01*
X2347781Y61901893D01*
X2285305Y61933174D01*
X2250034Y61991827D01*
X2226189Y62080823D01*
X2173041Y62172878D01*
X2097878Y62248041D01*
X2005823Y62301189D01*
X1903148Y62328700D01*
X1796852Y62328700D01*
X1694177Y62301189D01*
X1694175Y62301188D01*
X1694174Y62301188D01*
X1602125Y62248043D01*
X1602119Y62248039D01*
X1526961Y62172881D01*
X1526957Y62172875D01*
X1473812Y62080826D01*
X1473812Y62080825D01*
X1473811Y62080823D01*
X1446300Y61978148D01*
X1027700Y61978148D01*
X1027700Y63233479D01*
X3076631Y63233479D01*
X3076631Y63127183D01*
X3104142Y63024508D01*
X3157290Y62932453D01*
X3232453Y62857290D01*
X3324508Y62804142D01*
X3427183Y62776631D01*
X3427185Y62776631D01*
X3533477Y62776631D01*
X3533479Y62776631D01*
X3636154Y62804142D01*
X3728209Y62857290D01*
X3803372Y62932453D01*
X3856520Y63024508D01*
X3884031Y63127183D01*
X3884031Y63233479D01*
X3856520Y63336154D01*
X3803372Y63428209D01*
X3728209Y63503372D01*
X3636154Y63556520D01*
X3533479Y63584031D01*
X3427183Y63584031D01*
X3324508Y63556520D01*
X3324506Y63556519D01*
X3324505Y63556519D01*
X3232456Y63503374D01*
X3232450Y63503370D01*
X3157292Y63428212D01*
X3157288Y63428206D01*
X3104143Y63336157D01*
X3104143Y63336156D01*
X3104142Y63336154D01*
X3076631Y63233479D01*
X1027700Y63233479D01*
X1027700Y64753148D01*
X6071300Y64753148D01*
X6071300Y64646852D01*
X6098811Y64544177D01*
X6098812Y64544176D01*
X6098812Y64544175D01*
X6099465Y64543044D01*
X6151959Y64452122D01*
X6227122Y64376959D01*
X6319177Y64323811D01*
X6421852Y64296300D01*
X6421854Y64296300D01*
X6528146Y64296300D01*
X6528148Y64296300D01*
X6630823Y64323811D01*
X6722878Y64376959D01*
X6798041Y64452122D01*
X6851189Y64544177D01*
X6878700Y64646852D01*
X6878700Y64753148D01*
X6851189Y64855823D01*
X6798041Y64947878D01*
X6722878Y65023041D01*
X6639289Y65071301D01*
X6630825Y65076188D01*
X6630824Y65076189D01*
X6630823Y65076189D01*
X6528148Y65103700D01*
X6421852Y65103700D01*
X6319177Y65076189D01*
X6319175Y65076188D01*
X6319174Y65076188D01*
X6227125Y65023043D01*
X6227119Y65023039D01*
X6151961Y64947881D01*
X6151957Y64947875D01*
X6098812Y64855826D01*
X6098812Y64855825D01*
X6098811Y64855823D01*
X6071300Y64753148D01*
X1027700Y64753148D01*
X1027700Y68726002D01*
X1366300Y68726002D01*
X1366300Y65823993D01*
X1371069Y65779638D01*
X1378933Y65743491D01*
X1382276Y65728125D01*
X1384802Y65717788D01*
X1428481Y65635819D01*
X1474236Y65583015D01*
X1474243Y65583008D01*
X1474251Y65582999D01*
X1492098Y65564785D01*
X1492105Y65564779D01*
X1531669Y65542649D01*
X1573162Y65519439D01*
X1640201Y65499754D01*
X1640205Y65499754D01*
X1640207Y65499753D01*
X1649277Y65498449D01*
X1699000Y65491300D01*
X1699003Y65491300D01*
X2977720Y65491300D01*
X2979031Y65491371D01*
X3000030Y65492496D01*
X3026388Y65495330D01*
X3104097Y65519663D01*
X3165420Y65553148D01*
X3212975Y65588748D01*
X3218713Y65594488D01*
X3244398Y65614199D01*
X3260598Y65623552D01*
X3290501Y65635937D01*
X3308567Y65640777D01*
X3340652Y65645000D01*
X3359348Y65645000D01*
X3391438Y65640777D01*
X3409500Y65635937D01*
X3439401Y65623553D01*
X3455596Y65614203D01*
X3481276Y65594497D01*
X3484997Y65590776D01*
X3487033Y65588740D01*
X3503627Y65573834D01*
X3503641Y65573822D01*
X3503649Y65573815D01*
X3509405Y65569177D01*
X3524290Y65557181D01*
X3560126Y65538436D01*
X3596443Y65519439D01*
X3663482Y65499754D01*
X3663486Y65499754D01*
X3663488Y65499753D01*
X3672558Y65498449D01*
X3722281Y65491300D01*
X3722284Y65491300D01*
X7905005Y65491300D01*
X7905750Y65491316D01*
X7913695Y65491481D01*
X7924009Y65491911D01*
X7990565Y65505768D01*
X8044093Y65526460D01*
X8044092Y65526461D01*
X8071035Y65536875D01*
X8074443Y65538193D01*
X8075686Y65538962D01*
X8135596Y65573552D01*
X8165495Y65585936D01*
X8183565Y65590777D01*
X8215650Y65595000D01*
X8234351Y65595000D01*
X8266435Y65590777D01*
X8284501Y65585937D01*
X8314404Y65573551D01*
X8370248Y65541309D01*
X8375034Y65538546D01*
X8375503Y65538275D01*
X8375506Y65538274D01*
X8375921Y65538034D01*
X8378563Y65536509D01*
X8378576Y65536502D01*
X8396711Y65526032D01*
X8411243Y65521764D01*
X8415796Y65520116D01*
X8419038Y65519328D01*
X8424808Y65517777D01*
X8469521Y65504601D01*
X8469945Y65504527D01*
X8486199Y65499754D01*
X8486204Y65499754D01*
X8486205Y65499753D01*
X8495275Y65498449D01*
X8544998Y65491300D01*
X8545001Y65491300D01*
X8675999Y65491300D01*
X8676000Y65491300D01*
X8705702Y65493424D01*
X8740637Y65498447D01*
X8757132Y65504601D01*
X8761112Y65506086D01*
X8761351Y65504987D01*
X8771866Y65507274D01*
X8782214Y65509803D01*
X8808198Y65523650D01*
X8815908Y65526526D01*
X8815908Y65526527D01*
X8823784Y65529464D01*
X8829845Y65533360D01*
X8829844Y65533361D01*
X8842189Y65541295D01*
X8842205Y65541306D01*
X8846449Y65544034D01*
X8864183Y65553483D01*
X8872865Y65561007D01*
X8882542Y65567225D01*
X8903148Y65582327D01*
X8914291Y65596904D01*
X8916974Y65599227D01*
X8935219Y65617103D01*
X8950170Y65643833D01*
X8959559Y65656113D01*
X8963320Y65664350D01*
X8963319Y65664351D01*
X8968648Y65676020D01*
X8968654Y65676034D01*
X8970753Y65680632D01*
X8980561Y65698164D01*
X8983799Y65709193D01*
X8988577Y65719654D01*
X8997746Y65743493D01*
X8998413Y65751657D01*
X8999773Y65760771D01*
X8999610Y65760794D01*
X9008700Y65823998D01*
X9008700Y67465710D01*
X9028385Y67532749D01*
X9045019Y67553391D01*
X9196687Y67705059D01*
X9463050Y67971422D01*
X9522781Y68074878D01*
X9523808Y68078710D01*
X9532799Y68112265D01*
X9532799Y68112267D01*
X9537032Y68128063D01*
X9553700Y68190269D01*
X9553700Y70560710D01*
X9573385Y70627749D01*
X9590019Y70648391D01*
X11251609Y72309981D01*
X11312932Y72343466D01*
X11339290Y72346300D01*
X13810709Y72346300D01*
X13877748Y72326615D01*
X13898390Y72309981D01*
X14359981Y71848390D01*
X14374684Y71821463D01*
X14391277Y71795644D01*
X14392168Y71789444D01*
X14393466Y71787067D01*
X14396300Y71760709D01*
X14396300Y71613981D01*
X14376615Y71546942D01*
X14323811Y71501187D01*
X14254653Y71491243D01*
X14191097Y71520268D01*
X14184619Y71526300D01*
X14142880Y71568039D01*
X14142878Y71568041D01*
X14063308Y71613981D01*
X14050825Y71621188D01*
X14050824Y71621189D01*
X14050823Y71621189D01*
X13948148Y71648700D01*
X13841852Y71648700D01*
X13739176Y71621189D01*
X13665211Y71578485D01*
X13597311Y71562013D01*
X13531284Y71584866D01*
X13490830Y71633467D01*
X13486727Y71642267D01*
X13402267Y71726727D01*
X13398036Y71728700D01*
X13294015Y71777206D01*
X13294014Y71777207D01*
X13244698Y71783699D01*
X13244693Y71783700D01*
X13244688Y71783700D01*
X12895312Y71783700D01*
X12895306Y71783700D01*
X12895301Y71783699D01*
X12845985Y71777207D01*
X12845984Y71777206D01*
X12737733Y71726728D01*
X12726137Y71715132D01*
X12725060Y71714068D01*
X12716133Y71705358D01*
X12712122Y71703041D01*
X12646173Y71637093D01*
X12645637Y71636569D01*
X12615393Y71620534D01*
X12585394Y71604153D01*
X12584606Y71604210D01*
X12583908Y71603839D01*
X12549787Y71606700D01*
X12515703Y71609138D01*
X12514951Y71609621D01*
X12514282Y71609677D01*
X12511294Y71611972D01*
X12471356Y71637638D01*
X12382267Y71726727D01*
X12274015Y71777206D01*
X12274014Y71777207D01*
X12224698Y71783699D01*
X12224693Y71783700D01*
X12224688Y71783700D01*
X11875312Y71783700D01*
X11875306Y71783700D01*
X11875301Y71783699D01*
X11825985Y71777207D01*
X11825984Y71777206D01*
X11717732Y71726727D01*
X11633273Y71642268D01*
X11582794Y71534016D01*
X11582793Y71534015D01*
X11576301Y71484699D01*
X11576300Y71484682D01*
X11576300Y71035319D01*
X11576301Y71035302D01*
X11582793Y70985986D01*
X11582794Y70985985D01*
X11622649Y70900516D01*
X11633273Y70877733D01*
X11717733Y70793273D01*
X11807080Y70751610D01*
X11825984Y70742795D01*
X11825985Y70742794D01*
X11835484Y70741544D01*
X11875312Y70736300D01*
X11875319Y70736300D01*
X12224681Y70736300D01*
X12224688Y70736300D01*
X12274014Y70742794D01*
X12382267Y70793273D01*
X12466727Y70877733D01*
X12466728Y70877737D01*
X12472317Y70883325D01*
X12479520Y70887259D01*
X12484349Y70893894D01*
X12509735Y70903758D01*
X12533640Y70916810D01*
X12541825Y70916225D01*
X12549476Y70919197D01*
X12576166Y70913769D01*
X12603332Y70911826D01*
X12611667Y70906549D01*
X12617944Y70905272D01*
X12643647Y70886302D01*
X12646483Y70884506D01*
X12653132Y70878035D01*
X12653273Y70877733D01*
X12737733Y70793273D01*
X12742517Y70791043D01*
X12753784Y70780077D01*
X12766227Y70758007D01*
X12782045Y70738220D01*
X12784547Y70725513D01*
X12788098Y70719214D01*
X12787572Y70710145D01*
X12791300Y70691215D01*
X12791300Y70428700D01*
X12771615Y70361661D01*
X12718811Y70315906D01*
X12667300Y70304700D01*
X11604935Y70304700D01*
X11537896Y70324385D01*
X11517254Y70341019D01*
X11489230Y70369043D01*
X11489228Y70369045D01*
X11438369Y70398409D01*
X11391473Y70425485D01*
X11336955Y70440093D01*
X11282439Y70454700D01*
X11169561Y70454700D01*
X11060526Y70425485D01*
X10962772Y70369045D01*
X10962769Y70369043D01*
X10882957Y70289231D01*
X10882955Y70289228D01*
X10826515Y70191474D01*
X10797300Y70082439D01*
X10797300Y70042804D01*
X10777615Y69975765D01*
X10760981Y69955123D01*
X10576985Y69771128D01*
X10576983Y69771126D01*
X10540293Y69707575D01*
X10540293Y69707574D01*
X10521300Y69636692D01*
X10521300Y69636690D01*
X10521300Y66623981D01*
X10501615Y66556942D01*
X10448811Y66511187D01*
X10379653Y66501243D01*
X10316097Y66530268D01*
X10309619Y66536300D01*
X10272880Y66573039D01*
X10272878Y66573041D01*
X10210812Y66608875D01*
X10180825Y66626188D01*
X10180824Y66626189D01*
X10180823Y66626189D01*
X10078148Y66653700D01*
X9971852Y66653700D01*
X9869177Y66626189D01*
X9869175Y66626188D01*
X9869174Y66626188D01*
X9777125Y66573043D01*
X9777119Y66573039D01*
X9701961Y66497881D01*
X9701957Y66497875D01*
X9648812Y66405826D01*
X9648812Y66405825D01*
X9648811Y66405823D01*
X9621300Y66303148D01*
X9621300Y66196852D01*
X9648811Y66094177D01*
X9648812Y66094176D01*
X9648812Y66094175D01*
X9674605Y66049500D01*
X9691078Y65981599D01*
X9674605Y65925500D01*
X9648812Y65880826D01*
X9648812Y65880825D01*
X9648811Y65880823D01*
X9621300Y65778148D01*
X9621300Y65671852D01*
X9648811Y65569177D01*
X9648812Y65569176D01*
X9648812Y65569175D01*
X9681822Y65512000D01*
X9698295Y65444100D01*
X9681822Y65388000D01*
X9648812Y65330826D01*
X9648812Y65330825D01*
X9648811Y65330823D01*
X9621300Y65228148D01*
X9621300Y65121852D01*
X9648811Y65019177D01*
X9701959Y64927122D01*
X9777122Y64851959D01*
X9869177Y64798811D01*
X9971852Y64771300D01*
X9971854Y64771300D01*
X10078146Y64771300D01*
X10078148Y64771300D01*
X10180823Y64798811D01*
X10272878Y64851959D01*
X10309619Y64888700D01*
X10370942Y64922185D01*
X10440634Y64917201D01*
X10496567Y64875329D01*
X10520984Y64809865D01*
X10521300Y64801019D01*
X10521300Y62091803D01*
X10501615Y62024764D01*
X10484981Y62004122D01*
X7145878Y58665019D01*
X7084555Y58631534D01*
X7058197Y58628700D01*
X5118581Y58628700D01*
X5090610Y58636914D01*
X5061976Y58642374D01*
X5055201Y58647311D01*
X5051542Y58648385D01*
X5033187Y58662790D01*
X5032032Y58663887D01*
X5022878Y58673041D01*
X5021643Y58673754D01*
X5015625Y58679470D01*
X5001239Y58704276D01*
X4984326Y58727442D01*
X4983928Y58734124D01*
X4980572Y58739911D01*
X4981880Y58768556D01*
X4980177Y58797189D01*
X4983454Y58803025D01*
X4983760Y58809708D01*
X5000349Y58833101D01*
X5014395Y58858106D01*
X5022365Y58864146D01*
X5024177Y58866701D01*
X5027504Y58868041D01*
X5039013Y58876763D01*
X5063228Y58890743D01*
X5143045Y58970560D01*
X5199485Y59068316D01*
X5228700Y59177349D01*
X5228700Y59290227D01*
X5199485Y59399260D01*
X5143045Y59497016D01*
X5127019Y59513042D01*
X5093534Y59574365D01*
X5090700Y59600723D01*
X5090700Y60233065D01*
X5110385Y60300104D01*
X5127019Y60320746D01*
X5143045Y60336772D01*
X5199485Y60434528D01*
X5228700Y60543561D01*
X5228700Y60656439D01*
X5199485Y60765472D01*
X5143045Y60863228D01*
X5063228Y60943045D01*
X5002678Y60978004D01*
X4965473Y60999485D01*
X4891815Y61019221D01*
X4856439Y61028700D01*
X4743561Y61028700D01*
X4634526Y60999485D01*
X4536772Y60943045D01*
X4536769Y60943043D01*
X4456957Y60863231D01*
X4456955Y60863228D01*
X4400515Y60765474D01*
X4387945Y60718561D01*
X4371300Y60656439D01*
X4371300Y60543561D01*
X4379818Y60511772D01*
X4400515Y60434527D01*
X4420510Y60399896D01*
X4456955Y60336772D01*
X4456957Y60336770D01*
X4472981Y60320746D01*
X4506466Y60259423D01*
X4509300Y60233065D01*
X4509300Y59600723D01*
X4489615Y59533684D01*
X4472981Y59513042D01*
X4456957Y59497019D01*
X4456955Y59497016D01*
X4400515Y59399262D01*
X4371300Y59290227D01*
X4371300Y59177350D01*
X4400515Y59068315D01*
X4412907Y59046852D01*
X4456955Y58970560D01*
X4536772Y58890743D01*
X4536775Y58890741D01*
X4543221Y58885795D01*
X4541990Y58884192D01*
X4582699Y58841495D01*
X4595920Y58772888D01*
X4569951Y58708024D01*
X4534486Y58677293D01*
X4527125Y58673044D01*
X4527119Y58673039D01*
X4451961Y58597881D01*
X4451957Y58597875D01*
X4398812Y58505826D01*
X4398812Y58505825D01*
X4398811Y58505823D01*
X4371300Y58403148D01*
X4371300Y58296852D01*
X4398811Y58194177D01*
X4398812Y58194176D01*
X4398812Y58194175D01*
X4401754Y58189079D01*
X4451959Y58102122D01*
X4451961Y58102120D01*
X4528900Y58025181D01*
X4562385Y57963858D01*
X4557401Y57894166D01*
X4528900Y57849819D01*
X4476961Y57797881D01*
X4476957Y57797875D01*
X4423812Y57705826D01*
X4423812Y57705825D01*
X4423811Y57705823D01*
X4396300Y57603148D01*
X4396300Y57496852D01*
X4423811Y57394177D01*
X4423812Y57394176D01*
X4423812Y57394175D01*
X4426754Y57389079D01*
X4476959Y57302122D01*
X4476961Y57302120D01*
X4538700Y57240381D01*
X4572185Y57179058D01*
X4567201Y57109366D01*
X4525329Y57053433D01*
X4459865Y57029016D01*
X4451019Y57028700D01*
X4443561Y57028700D01*
X4334526Y56999485D01*
X4236772Y56943045D01*
X4236769Y56943043D01*
X4156957Y56863231D01*
X4156955Y56863228D01*
X4100515Y56765474D01*
X4071300Y56656439D01*
X4071300Y56633774D01*
X4051615Y56566735D01*
X4034981Y56546093D01*
X3667383Y56178496D01*
X3667381Y56178493D01*
X3629111Y56112207D01*
X3629111Y56112206D01*
X3609300Y56038271D01*
X3609300Y56038269D01*
X3609300Y55566935D01*
X3589615Y55499896D01*
X3572981Y55479254D01*
X3556957Y55463231D01*
X3556955Y55463228D01*
X3500515Y55365474D01*
X3482183Y55297057D01*
X3471300Y55256439D01*
X3471300Y55143561D01*
X3481469Y55105609D01*
X3500515Y55034527D01*
X3508959Y55019902D01*
X3556955Y54936772D01*
X3636772Y54856955D01*
X3721428Y54808078D01*
X3734524Y54800517D01*
X3734528Y54800515D01*
X3843561Y54771300D01*
X3843563Y54771300D01*
X3956437Y54771300D01*
X3956439Y54771300D01*
X4065472Y54800515D01*
X4154533Y54851936D01*
X4222433Y54868409D01*
X4288460Y54845557D01*
X4331651Y54790637D01*
X4338293Y54721083D01*
X4336309Y54712457D01*
X4321300Y54656441D01*
X4321300Y54543562D01*
X4350515Y54434527D01*
X4378735Y54385650D01*
X4406955Y54336772D01*
X4406957Y54336770D01*
X4443546Y54300181D01*
X4477031Y54238858D01*
X4472047Y54169166D01*
X4443546Y54124819D01*
X4406957Y54088231D01*
X4406955Y54088228D01*
X4350515Y53990474D01*
X4321300Y53881439D01*
X4321300Y53768561D01*
X4325497Y53752899D01*
X4350515Y53659527D01*
X4375665Y53615968D01*
X4406955Y53561772D01*
X4406957Y53561770D01*
X4443546Y53525181D01*
X4477031Y53463858D01*
X4472047Y53394166D01*
X4443546Y53349819D01*
X4381957Y53288231D01*
X4381955Y53288228D01*
X4325515Y53190474D01*
X4296300Y53081439D01*
X4296300Y52968562D01*
X4325515Y52859527D01*
X4353735Y52810650D01*
X4381955Y52761772D01*
X4381957Y52761770D01*
X4431046Y52712681D01*
X4464531Y52651358D01*
X4459547Y52581666D01*
X4431046Y52537319D01*
X4381957Y52488231D01*
X4381955Y52488228D01*
X4325515Y52390474D01*
X4296300Y52281439D01*
X4296300Y52168562D01*
X4325515Y52059527D01*
X4353735Y52010650D01*
X4381955Y51961772D01*
X4461772Y51881955D01*
X4559528Y51825515D01*
X4668561Y51796300D01*
X4668563Y51796300D01*
X4781437Y51796300D01*
X4781439Y51796300D01*
X4890472Y51825515D01*
X4988228Y51881955D01*
X5004254Y51897981D01*
X5065577Y51931466D01*
X5091935Y51934300D01*
X5603226Y51934300D01*
X5670265Y51914615D01*
X5690907Y51897981D01*
X8222981Y49365907D01*
X8256466Y49304584D01*
X8259300Y49278226D01*
X8259300Y41563271D01*
X8259300Y41486729D01*
X8279111Y41412794D01*
X8317382Y41346506D01*
X10617380Y39046509D01*
X10617382Y39046506D01*
X10671506Y38992382D01*
X10724525Y38961772D01*
X10737794Y38954111D01*
X10811728Y38934300D01*
X10811729Y38934300D01*
X12233065Y38934300D01*
X12300104Y38914615D01*
X12320746Y38897981D01*
X12336772Y38881955D01*
X12434528Y38825515D01*
X12543561Y38796300D01*
X12543563Y38796300D01*
X12656437Y38796300D01*
X12656439Y38796300D01*
X12765472Y38825515D01*
X12863228Y38881955D01*
X12943045Y38961772D01*
X12999485Y39059528D01*
X13028700Y39168561D01*
X13028700Y39281439D01*
X12999485Y39390472D01*
X12943045Y39488228D01*
X12863228Y39568045D01*
X12862510Y39568763D01*
X12829025Y39630086D01*
X12834009Y39699778D01*
X12875881Y39755711D01*
X12908350Y39771484D01*
X12907968Y39772407D01*
X12915469Y39775515D01*
X12915472Y39775515D01*
X13013228Y39831955D01*
X13093045Y39911772D01*
X13149485Y40009528D01*
X13178700Y40118561D01*
X13178700Y40231439D01*
X13149485Y40340472D01*
X13093045Y40438228D01*
X13023076Y40508197D01*
X12989591Y40569520D01*
X12994575Y40639212D01*
X13036447Y40695145D01*
X13078661Y40715652D01*
X13115472Y40725515D01*
X13213228Y40781955D01*
X13293045Y40861772D01*
X13349485Y40959528D01*
X13378700Y41068561D01*
X13378700Y41181439D01*
X13349485Y41290472D01*
X13293045Y41388228D01*
X13213228Y41468045D01*
X13164350Y41496265D01*
X13115473Y41524485D01*
X13060955Y41539093D01*
X13006439Y41553700D01*
X12893561Y41553700D01*
X12784526Y41524485D01*
X12686772Y41468045D01*
X12686769Y41468043D01*
X12670746Y41452019D01*
X12609423Y41418534D01*
X12583065Y41415700D01*
X11865133Y41415700D01*
X11798094Y41435385D01*
X11752339Y41488189D01*
X11742395Y41557347D01*
X11747676Y41576598D01*
X11747381Y41576677D01*
X11749485Y41584528D01*
X11778700Y41693561D01*
X11778700Y41806439D01*
X11749485Y41915472D01*
X11693045Y42013228D01*
X11613228Y42093045D01*
X11564350Y42121265D01*
X11515473Y42149485D01*
X11460955Y42164093D01*
X11406439Y42178700D01*
X11293561Y42178700D01*
X11184528Y42149485D01*
X11184527Y42149485D01*
X11184525Y42149484D01*
X11184524Y42149484D01*
X11093916Y42097171D01*
X11026016Y42080698D01*
X10959989Y42103551D01*
X10944235Y42116877D01*
X10245224Y42815888D01*
X12247313Y42815888D01*
X12247313Y42703010D01*
X12250351Y42691673D01*
X12276528Y42593976D01*
X12283073Y42582640D01*
X12332968Y42496221D01*
X12412785Y42416404D01*
X12510541Y42359964D01*
X12619574Y42330749D01*
X12619576Y42330749D01*
X12732450Y42330749D01*
X12732452Y42330749D01*
X12841485Y42359964D01*
X12939241Y42416404D01*
X12987029Y42464193D01*
X13048350Y42497677D01*
X13118041Y42492693D01*
X13162390Y42464192D01*
X13221515Y42405067D01*
X13319271Y42348627D01*
X13428304Y42319412D01*
X13428306Y42319412D01*
X13541180Y42319412D01*
X13541182Y42319412D01*
X13650215Y42348627D01*
X13747971Y42405067D01*
X13827788Y42484884D01*
X13884228Y42582640D01*
X13913443Y42691673D01*
X13913443Y42804551D01*
X13884228Y42913584D01*
X13827788Y43011340D01*
X13747971Y43091157D01*
X13650215Y43147597D01*
X13604215Y43159923D01*
X13580438Y43174416D01*
X13555106Y43185984D01*
X13551015Y43192350D01*
X13544555Y43196287D01*
X13532387Y43221335D01*
X13517332Y43244762D01*
X13515786Y43255510D01*
X13514026Y43259134D01*
X13512309Y43279697D01*
X13512309Y43467087D01*
X13531994Y43534126D01*
X13548628Y43554768D01*
X14494941Y44501081D01*
X14556264Y44534566D01*
X14582622Y44537400D01*
X16201419Y44537400D01*
X16201422Y44537400D01*
X16273285Y44556655D01*
X16337714Y44593854D01*
X22206146Y50462286D01*
X22243345Y50526715D01*
X22262600Y50598578D01*
X22262600Y50672974D01*
X22262600Y59151422D01*
X22243345Y59223284D01*
X22243345Y59223285D01*
X22206146Y59287714D01*
X22206144Y59287716D01*
X22206143Y59287718D01*
X21473919Y60019942D01*
X21440434Y60081265D01*
X21437600Y60107623D01*
X21437600Y63767378D01*
X21446244Y63796819D01*
X21452768Y63826805D01*
X21456522Y63831821D01*
X21457285Y63834417D01*
X21473919Y63855059D01*
X21519907Y63901047D01*
X21581230Y63934532D01*
X21607588Y63937366D01*
X21772949Y63937366D01*
X21839988Y63917681D01*
X21885743Y63864877D01*
X21892722Y63845462D01*
X21900515Y63816380D01*
X21956955Y63718624D01*
X22036772Y63638807D01*
X22134528Y63582367D01*
X22243561Y63553152D01*
X22243563Y63553152D01*
X22356437Y63553152D01*
X22356439Y63553152D01*
X22465472Y63582367D01*
X22563228Y63638807D01*
X22643045Y63718624D01*
X22699485Y63816380D01*
X22728700Y63925413D01*
X22728700Y64038291D01*
X22699485Y64147324D01*
X22643045Y64245080D01*
X22600840Y64287285D01*
X22567355Y64348608D01*
X22572339Y64418300D01*
X22600839Y64462646D01*
X22643045Y64504851D01*
X22699485Y64602607D01*
X22728700Y64711640D01*
X22728700Y64824518D01*
X22699485Y64933551D01*
X22643045Y65031307D01*
X22563228Y65111124D01*
X22514350Y65139344D01*
X22465473Y65167564D01*
X22409453Y65182574D01*
X22356439Y65196779D01*
X22243561Y65196779D01*
X22134526Y65167564D01*
X22036772Y65111124D01*
X22036769Y65111122D01*
X21956957Y65031310D01*
X21956955Y65031307D01*
X21900515Y64933552D01*
X21897111Y64920850D01*
X21893214Y64906301D01*
X21892724Y64904473D01*
X21856359Y64844812D01*
X21793512Y64814283D01*
X21772949Y64812566D01*
X21273544Y64812566D01*
X21201678Y64793310D01*
X21201676Y64793309D01*
X21163559Y64771301D01*
X21163558Y64771300D01*
X21137252Y64756112D01*
X21137249Y64756110D01*
X20618855Y64237717D01*
X20581654Y64173285D01*
X20564503Y64109271D01*
X20564502Y64109268D01*
X20562400Y64101425D01*
X20562400Y59773577D01*
X20581655Y59701714D01*
X20618855Y59637284D01*
X21351081Y58905059D01*
X21384566Y58843736D01*
X21387400Y58817378D01*
X21387400Y50932622D01*
X21367715Y50865583D01*
X21351081Y50844941D01*
X17602128Y47095989D01*
X17540805Y47062504D01*
X17471113Y47067488D01*
X17415180Y47109360D01*
X17390763Y47174824D01*
X17391509Y47199861D01*
X17391625Y47200741D01*
X17392912Y47210516D01*
X17392912Y47571060D01*
X17386322Y47621116D01*
X17335098Y47730967D01*
X17249391Y47816674D01*
X17179021Y47849488D01*
X17139543Y47867897D01*
X17139541Y47867898D01*
X17139540Y47867898D01*
X17139537Y47867899D01*
X17139535Y47867899D01*
X17089494Y47874487D01*
X17089489Y47874488D01*
X17089484Y47874488D01*
X16668940Y47874488D01*
X16668934Y47874488D01*
X16668929Y47874487D01*
X16618888Y47867899D01*
X16618880Y47867897D01*
X16509032Y47816674D01*
X16423326Y47730968D01*
X16372103Y47621120D01*
X16372101Y47621112D01*
X16365513Y47571071D01*
X16365512Y47571054D01*
X16365512Y47210523D01*
X16365513Y47210506D01*
X16372101Y47160465D01*
X16372103Y47160457D01*
X16389688Y47122746D01*
X16423326Y47050609D01*
X16509033Y46964902D01*
X16618884Y46913678D01*
X16668940Y46907088D01*
X16668947Y46907088D01*
X17089477Y46907088D01*
X17089484Y46907088D01*
X17100139Y46908491D01*
X17169175Y46897729D01*
X17221433Y46851351D01*
X17240321Y46784083D01*
X17219843Y46717282D01*
X17204011Y46697872D01*
X15955059Y45448919D01*
X15893736Y45415434D01*
X15867378Y45412600D01*
X14248576Y45412600D01*
X14176713Y45393345D01*
X14112283Y45356145D01*
X12693564Y43937426D01*
X12656363Y43872994D01*
X12645225Y43831422D01*
X12637109Y43801133D01*
X12637109Y43287996D01*
X12617424Y43220957D01*
X12564620Y43175202D01*
X12545205Y43168223D01*
X12527179Y43163393D01*
X12510540Y43158934D01*
X12412785Y43102494D01*
X12412782Y43102492D01*
X12332970Y43022680D01*
X12332968Y43022677D01*
X12276528Y42924923D01*
X12247313Y42815888D01*
X10245224Y42815888D01*
X10077019Y42984093D01*
X10043534Y43045416D01*
X10040700Y43071774D01*
X10040700Y47183873D01*
X10060385Y47250912D01*
X10113189Y47296667D01*
X10182347Y47306611D01*
X10245903Y47277586D01*
X10252381Y47271554D01*
X10309033Y47214902D01*
X10418884Y47163678D01*
X10468940Y47157088D01*
X10468947Y47157088D01*
X10889477Y47157088D01*
X10889484Y47157088D01*
X10939540Y47163678D01*
X11049391Y47214902D01*
X11135098Y47300609D01*
X11186322Y47410460D01*
X11192912Y47460516D01*
X11192912Y47498936D01*
X11475512Y47498936D01*
X11475512Y47392640D01*
X11503023Y47289965D01*
X11503024Y47289964D01*
X11503024Y47289963D01*
X11505592Y47285516D01*
X11556171Y47197910D01*
X11631334Y47122747D01*
X11723389Y47069599D01*
X11826064Y47042088D01*
X11826066Y47042088D01*
X11932358Y47042088D01*
X11932360Y47042088D01*
X12035035Y47069599D01*
X12127090Y47122747D01*
X12127098Y47122756D01*
X12133536Y47127694D01*
X12134462Y47126487D01*
X12187781Y47155600D01*
X12257473Y47150616D01*
X12301820Y47122115D01*
X12384033Y47039902D01*
X12493884Y46988678D01*
X12543940Y46982088D01*
X12543947Y46982088D01*
X12964477Y46982088D01*
X12964484Y46982088D01*
X13014540Y46988678D01*
X13124391Y47039902D01*
X13210098Y47125609D01*
X13261322Y47235460D01*
X13267912Y47285516D01*
X13267912Y47646054D01*
X13565512Y47646054D01*
X13565512Y47285523D01*
X13565513Y47285506D01*
X13572101Y47235465D01*
X13572103Y47235457D01*
X13594158Y47188160D01*
X13623326Y47125609D01*
X13709033Y47039902D01*
X13818884Y46988678D01*
X13868940Y46982088D01*
X13868947Y46982088D01*
X14289477Y46982088D01*
X14289484Y46982088D01*
X14339540Y46988678D01*
X14449391Y47039902D01*
X14535098Y47125609D01*
X14586322Y47235460D01*
X14592912Y47285516D01*
X14592912Y47646060D01*
X14586322Y47696116D01*
X14535098Y47805967D01*
X14449391Y47891674D01*
X14339543Y47942897D01*
X14339541Y47942898D01*
X14339540Y47942898D01*
X14339537Y47942899D01*
X14339535Y47942899D01*
X14289494Y47949487D01*
X14289489Y47949488D01*
X14289484Y47949488D01*
X13868940Y47949488D01*
X13868934Y47949488D01*
X13868929Y47949487D01*
X13818888Y47942899D01*
X13818880Y47942897D01*
X13709032Y47891674D01*
X13623326Y47805968D01*
X13572103Y47696120D01*
X13572101Y47696112D01*
X13565513Y47646071D01*
X13565512Y47646054D01*
X13267912Y47646054D01*
X13267912Y47646060D01*
X13261322Y47696116D01*
X13210098Y47805967D01*
X13124391Y47891674D01*
X13014543Y47942897D01*
X13014541Y47942898D01*
X13014540Y47942898D01*
X13014537Y47942899D01*
X13014535Y47942899D01*
X12964494Y47949487D01*
X12964489Y47949488D01*
X12964484Y47949488D01*
X12543940Y47949488D01*
X12543934Y47949488D01*
X12543929Y47949487D01*
X12493888Y47942899D01*
X12493880Y47942897D01*
X12384032Y47891674D01*
X12298325Y47805967D01*
X12295680Y47802189D01*
X12241100Y47758567D01*
X12171602Y47751378D01*
X12132109Y47765931D01*
X12127086Y47768831D01*
X12036634Y47821054D01*
X12035037Y47821976D01*
X12035036Y47821977D01*
X12035035Y47821977D01*
X11932360Y47849488D01*
X11826064Y47849488D01*
X11723389Y47821977D01*
X11723387Y47821976D01*
X11723386Y47821976D01*
X11631337Y47768831D01*
X11631331Y47768827D01*
X11556173Y47693669D01*
X11556169Y47693663D01*
X11503024Y47601614D01*
X11503024Y47601613D01*
X11503023Y47601611D01*
X11475512Y47498936D01*
X11192912Y47498936D01*
X11192912Y47821060D01*
X11186322Y47871116D01*
X11135098Y47980967D01*
X11049391Y48066674D01*
X10982849Y48097703D01*
X10939543Y48117897D01*
X10939541Y48117898D01*
X10939540Y48117898D01*
X10939537Y48117899D01*
X10939535Y48117899D01*
X10889494Y48124487D01*
X10889489Y48124488D01*
X10889484Y48124488D01*
X10468940Y48124488D01*
X10468934Y48124488D01*
X10468929Y48124487D01*
X10418888Y48117899D01*
X10418880Y48117897D01*
X10309032Y48066674D01*
X10252381Y48010022D01*
X10191058Y47976537D01*
X10121366Y47981521D01*
X10065433Y48023393D01*
X10041016Y48088857D01*
X10040700Y48097703D01*
X10040700Y49481054D01*
X18105512Y49481054D01*
X18105512Y49060523D01*
X18105513Y49060506D01*
X18110467Y49022875D01*
X18112102Y49010460D01*
X18163326Y48900609D01*
X18249033Y48814902D01*
X18358884Y48763678D01*
X18408940Y48757088D01*
X18408947Y48757088D01*
X18769477Y48757088D01*
X18769484Y48757088D01*
X18819540Y48763678D01*
X18929391Y48814902D01*
X19015098Y48900609D01*
X19066322Y49010460D01*
X19072912Y49060516D01*
X19072912Y49481060D01*
X19066322Y49531116D01*
X19015098Y49640967D01*
X18929391Y49726674D01*
X18819543Y49777897D01*
X18819541Y49777898D01*
X18819540Y49777898D01*
X18819537Y49777899D01*
X18819535Y49777899D01*
X18769494Y49784487D01*
X18769489Y49784488D01*
X18769484Y49784488D01*
X18408940Y49784488D01*
X18408934Y49784488D01*
X18408929Y49784487D01*
X18358888Y49777899D01*
X18358880Y49777897D01*
X18249032Y49726674D01*
X18163326Y49640968D01*
X18112103Y49531120D01*
X18112101Y49531112D01*
X18105513Y49481071D01*
X18105512Y49481054D01*
X10040700Y49481054D01*
X10040700Y50557416D01*
X10060385Y50624455D01*
X10113189Y50670210D01*
X10182347Y50680154D01*
X10245903Y50651129D01*
X10266276Y50628537D01*
X10268326Y50625609D01*
X10354033Y50539902D01*
X10463884Y50488678D01*
X10513940Y50482088D01*
X10513947Y50482088D01*
X10874477Y50482088D01*
X10874484Y50482088D01*
X10924540Y50488678D01*
X11034391Y50539902D01*
X11120098Y50625609D01*
X11171322Y50735460D01*
X11177912Y50785516D01*
X11177912Y51206060D01*
X11171322Y51256116D01*
X11120098Y51365967D01*
X11102958Y51383107D01*
X11098619Y51391053D01*
X11091372Y51396478D01*
X11082137Y51421238D01*
X11069473Y51444430D01*
X11070118Y51453460D01*
X11066955Y51461942D01*
X11071112Y51481054D01*
X18250512Y51481054D01*
X18250512Y51060523D01*
X18250513Y51060506D01*
X18257101Y51010465D01*
X18257103Y51010457D01*
X18294129Y50931054D01*
X18308326Y50900609D01*
X18394033Y50814902D01*
X18503884Y50763678D01*
X18553940Y50757088D01*
X18553947Y50757088D01*
X18914477Y50757088D01*
X18914484Y50757088D01*
X18964540Y50763678D01*
X19074391Y50814902D01*
X19160098Y50900609D01*
X19211322Y51010460D01*
X19217912Y51060516D01*
X19217912Y51481060D01*
X19211322Y51531116D01*
X19160098Y51640967D01*
X19074391Y51726674D01*
X19055414Y51735523D01*
X18964543Y51777897D01*
X18964541Y51777898D01*
X18964540Y51777898D01*
X18964537Y51777899D01*
X18964535Y51777899D01*
X18914494Y51784487D01*
X18914489Y51784488D01*
X18914484Y51784488D01*
X18553940Y51784488D01*
X18553934Y51784488D01*
X18553929Y51784487D01*
X18503888Y51777899D01*
X18503880Y51777897D01*
X18394032Y51726674D01*
X18308326Y51640968D01*
X18257103Y51531120D01*
X18257101Y51531112D01*
X18250513Y51481071D01*
X18250512Y51481054D01*
X11071112Y51481054D01*
X11072571Y51487763D01*
X11074457Y51514122D01*
X11080275Y51523176D01*
X11081807Y51530215D01*
X11102958Y51558469D01*
X11117289Y51572800D01*
X11120098Y51575609D01*
X11171322Y51685460D01*
X11177912Y51735516D01*
X11177912Y52156060D01*
X11171322Y52206116D01*
X11120098Y52315967D01*
X11034391Y52401674D01*
X10924543Y52452897D01*
X10924541Y52452898D01*
X10924540Y52452898D01*
X10924537Y52452899D01*
X10924535Y52452899D01*
X10874494Y52459487D01*
X10874489Y52459488D01*
X10874484Y52459488D01*
X10513940Y52459488D01*
X10513934Y52459488D01*
X10513929Y52459487D01*
X10463888Y52452899D01*
X10463880Y52452897D01*
X10354032Y52401674D01*
X10268326Y52315968D01*
X10217103Y52206120D01*
X10217101Y52206112D01*
X10210513Y52156071D01*
X10210512Y52156054D01*
X10210512Y51735523D01*
X10210513Y51735506D01*
X10217101Y51685465D01*
X10217103Y51685457D01*
X10268326Y51575609D01*
X10285466Y51558469D01*
X10318951Y51497146D01*
X10313967Y51427454D01*
X10285466Y51383107D01*
X10268326Y51365968D01*
X10217103Y51256120D01*
X10217101Y51256112D01*
X10210513Y51206071D01*
X10210512Y51206054D01*
X10210512Y51046545D01*
X10190827Y50979506D01*
X10138023Y50933751D01*
X10068865Y50923807D01*
X10005309Y50952832D01*
X9988716Y50972925D01*
X9987568Y50972043D01*
X9982616Y50978496D01*
X7505058Y53456054D01*
X18250512Y53456054D01*
X18250512Y53035523D01*
X18250513Y53035506D01*
X18257101Y52985465D01*
X18257103Y52985457D01*
X18264982Y52968561D01*
X18308326Y52875609D01*
X18394033Y52789902D01*
X18503884Y52738678D01*
X18553940Y52732088D01*
X18553947Y52732088D01*
X18914477Y52732088D01*
X18914484Y52732088D01*
X18964540Y52738678D01*
X19074391Y52789902D01*
X19160098Y52875609D01*
X19211322Y52985460D01*
X19217912Y53035516D01*
X19217912Y53456060D01*
X19211322Y53506116D01*
X19160098Y53615967D01*
X19074391Y53701674D01*
X18964543Y53752897D01*
X18964541Y53752898D01*
X18964540Y53752898D01*
X18964537Y53752899D01*
X18964535Y53752899D01*
X18914494Y53759487D01*
X18914489Y53759488D01*
X18914484Y53759488D01*
X18553940Y53759488D01*
X18553934Y53759488D01*
X18553929Y53759487D01*
X18503888Y53752899D01*
X18503880Y53752897D01*
X18394032Y53701674D01*
X18308326Y53615968D01*
X18257103Y53506120D01*
X18257101Y53506112D01*
X18250513Y53456071D01*
X18250512Y53456054D01*
X7505058Y53456054D01*
X6128495Y54832617D01*
X6128494Y54832618D01*
X6062206Y54870889D01*
X6062207Y54870889D01*
X6043722Y54875842D01*
X5988271Y54890700D01*
X5988268Y54890700D01*
X5116935Y54890700D01*
X5049896Y54910385D01*
X5029254Y54927019D01*
X5013230Y54943043D01*
X5013228Y54943045D01*
X4939764Y54985460D01*
X4915473Y54999485D01*
X4839270Y55019903D01*
X4806439Y55028700D01*
X4693561Y55028700D01*
X4584528Y54999485D01*
X4584527Y54999485D01*
X4584525Y54999484D01*
X4584524Y54999484D01*
X4495465Y54948065D01*
X4427565Y54931592D01*
X4361538Y54954445D01*
X4318347Y55009366D01*
X4311706Y55078919D01*
X4313684Y55087521D01*
X4328700Y55143561D01*
X4328700Y55256439D01*
X4299485Y55365472D01*
X4299484Y55365474D01*
X4299484Y55365475D01*
X4283056Y55393928D01*
X4283054Y55393931D01*
X4247187Y55456054D01*
X10215512Y55456054D01*
X10215512Y55035523D01*
X10215513Y55035506D01*
X10222101Y54985465D01*
X10222103Y54985457D01*
X10233000Y54962088D01*
X10273326Y54875609D01*
X10359033Y54789902D01*
X10468884Y54738678D01*
X10518940Y54732088D01*
X10518947Y54732088D01*
X10879477Y54732088D01*
X10879484Y54732088D01*
X10929540Y54738678D01*
X11039391Y54789902D01*
X11125098Y54875609D01*
X11176322Y54985460D01*
X11182912Y55035516D01*
X11182912Y55456060D01*
X11176322Y55506116D01*
X11125098Y55615967D01*
X11090011Y55651054D01*
X13565512Y55651054D01*
X13565512Y55290523D01*
X13565513Y55290506D01*
X13572101Y55240465D01*
X13572103Y55240457D01*
X13583761Y55215457D01*
X13623326Y55130609D01*
X13709033Y55044902D01*
X13818884Y54993678D01*
X13868940Y54987088D01*
X13868947Y54987088D01*
X14289477Y54987088D01*
X14289484Y54987088D01*
X14339540Y54993678D01*
X14449391Y55044902D01*
X14535098Y55130609D01*
X14574663Y55215457D01*
X14579330Y55225465D01*
X14625502Y55277905D01*
X14692695Y55297057D01*
X14759577Y55276841D01*
X14804094Y55225465D01*
X14848325Y55130610D01*
X14848326Y55130609D01*
X14934033Y55044902D01*
X15043884Y54993678D01*
X15093940Y54987088D01*
X15093947Y54987088D01*
X15514477Y54987088D01*
X15514484Y54987088D01*
X15564540Y54993678D01*
X15674391Y55044902D01*
X15760098Y55130609D01*
X15811322Y55240460D01*
X15817912Y55290516D01*
X15817912Y55626054D01*
X16790512Y55626054D01*
X16790512Y55265523D01*
X16790513Y55265506D01*
X16795784Y55225465D01*
X16797102Y55215460D01*
X16848326Y55105609D01*
X16934033Y55019902D01*
X17043884Y54968678D01*
X17093940Y54962088D01*
X17093947Y54962088D01*
X17514477Y54962088D01*
X17514484Y54962088D01*
X17564540Y54968678D01*
X17674391Y55019902D01*
X17760098Y55105609D01*
X17811322Y55215460D01*
X17817912Y55265516D01*
X17817912Y55626060D01*
X17811322Y55676116D01*
X17760098Y55785967D01*
X17674391Y55871674D01*
X17620778Y55896674D01*
X17564543Y55922897D01*
X17564541Y55922898D01*
X17564540Y55922898D01*
X17564537Y55922899D01*
X17564535Y55922899D01*
X17514494Y55929487D01*
X17514489Y55929488D01*
X17514484Y55929488D01*
X17093940Y55929488D01*
X17093934Y55929488D01*
X17093929Y55929487D01*
X17043888Y55922899D01*
X17043880Y55922897D01*
X16934032Y55871674D01*
X16848326Y55785968D01*
X16797103Y55676120D01*
X16797101Y55676112D01*
X16790513Y55626071D01*
X16790512Y55626054D01*
X15817912Y55626054D01*
X15817912Y55651060D01*
X15811322Y55701116D01*
X15760098Y55810967D01*
X15674391Y55896674D01*
X15564543Y55947897D01*
X15564541Y55947898D01*
X15564540Y55947898D01*
X15564537Y55947899D01*
X15564535Y55947899D01*
X15514494Y55954487D01*
X15514489Y55954488D01*
X15514484Y55954488D01*
X15093940Y55954488D01*
X15093934Y55954488D01*
X15093929Y55954487D01*
X15043888Y55947899D01*
X15043880Y55947897D01*
X14934032Y55896674D01*
X14848326Y55810968D01*
X14804094Y55716111D01*
X14757922Y55663672D01*
X14690728Y55644520D01*
X14623847Y55664736D01*
X14579330Y55716111D01*
X14559103Y55759488D01*
X14535098Y55810967D01*
X14449391Y55896674D01*
X14339543Y55947897D01*
X14339541Y55947898D01*
X14339540Y55947898D01*
X14339537Y55947899D01*
X14339535Y55947899D01*
X14289494Y55954487D01*
X14289489Y55954488D01*
X14289484Y55954488D01*
X13868940Y55954488D01*
X13868934Y55954488D01*
X13868929Y55954487D01*
X13818888Y55947899D01*
X13818880Y55947897D01*
X13709032Y55896674D01*
X13623326Y55810968D01*
X13572103Y55701120D01*
X13572101Y55701112D01*
X13565513Y55651071D01*
X13565512Y55651054D01*
X11090011Y55651054D01*
X11039391Y55701674D01*
X11008431Y55716111D01*
X10929543Y55752897D01*
X10929541Y55752898D01*
X10929540Y55752898D01*
X10929537Y55752899D01*
X10929535Y55752899D01*
X10879494Y55759487D01*
X10879489Y55759488D01*
X10879484Y55759488D01*
X10518940Y55759488D01*
X10518934Y55759488D01*
X10518929Y55759487D01*
X10468888Y55752899D01*
X10468880Y55752897D01*
X10359032Y55701674D01*
X10273326Y55615968D01*
X10222103Y55506120D01*
X10222101Y55506112D01*
X10215513Y55456071D01*
X10215512Y55456054D01*
X4247187Y55456054D01*
X4243045Y55463228D01*
X4218935Y55487338D01*
X4212468Y55496759D01*
X4205019Y55519543D01*
X4193534Y55540577D01*
X4191275Y55561585D01*
X4190757Y55563170D01*
X4191003Y55564115D01*
X4190700Y55566935D01*
X4190700Y55828226D01*
X4210385Y55895265D01*
X4227019Y55915907D01*
X4446093Y56134981D01*
X4507416Y56168466D01*
X4533774Y56171300D01*
X4556437Y56171300D01*
X4556439Y56171300D01*
X4665472Y56200515D01*
X4763228Y56256955D01*
X4843045Y56336772D01*
X4899485Y56434528D01*
X4928700Y56543561D01*
X4928700Y56656439D01*
X4899485Y56765472D01*
X4843045Y56863228D01*
X4771654Y56934619D01*
X4738169Y56995942D01*
X4743153Y57065634D01*
X4785025Y57121567D01*
X4845247Y57144029D01*
X4845088Y57145239D01*
X4850348Y57145932D01*
X4850489Y57145984D01*
X4850841Y57145997D01*
X4853139Y57146300D01*
X4853148Y57146300D01*
X4955823Y57173811D01*
X5047878Y57226959D01*
X5055900Y57234981D01*
X5117223Y57268466D01*
X5143581Y57271300D01*
X7736689Y57271300D01*
X7736692Y57271300D01*
X7807574Y57290293D01*
X7828063Y57302122D01*
X7871126Y57326984D01*
X7923016Y57378874D01*
X7923016Y57378876D01*
X7933220Y57389079D01*
X7933224Y57389084D01*
X8897288Y58353148D01*
X13362512Y58353148D01*
X13362512Y58246852D01*
X13390023Y58144177D01*
X13443171Y58052122D01*
X13518334Y57976959D01*
X13610389Y57923811D01*
X13713064Y57896300D01*
X13713066Y57896300D01*
X13819358Y57896300D01*
X13819360Y57896300D01*
X13922035Y57923811D01*
X14014090Y57976959D01*
X14089253Y58052122D01*
X14142401Y58144177D01*
X14169912Y58246852D01*
X14169912Y58353148D01*
X14142401Y58455823D01*
X14089253Y58547878D01*
X14014090Y58623041D01*
X13927491Y58673039D01*
X13922037Y58676188D01*
X13922036Y58676189D01*
X13922035Y58676189D01*
X13819360Y58703700D01*
X13713064Y58703700D01*
X13610387Y58676189D01*
X13575180Y58655862D01*
X13575176Y58655859D01*
X13518334Y58623041D01*
X13444912Y58549619D01*
X13443172Y58547879D01*
X13443169Y58547875D01*
X13390024Y58455826D01*
X13390024Y58455825D01*
X13390023Y58455823D01*
X13362512Y58353148D01*
X8897288Y58353148D01*
X9697288Y59153148D01*
X12696300Y59153148D01*
X12696300Y59046852D01*
X12723811Y58944177D01*
X12776959Y58852122D01*
X12852122Y58776959D01*
X12944177Y58723811D01*
X13046852Y58696300D01*
X13046854Y58696300D01*
X13153146Y58696300D01*
X13153148Y58696300D01*
X13255823Y58723811D01*
X13347878Y58776959D01*
X13423041Y58852122D01*
X13476189Y58944177D01*
X13503700Y59046852D01*
X13503700Y59153148D01*
X13476189Y59255823D01*
X13423041Y59347878D01*
X13347878Y59423041D01*
X13255823Y59476189D01*
X13153148Y59503700D01*
X13046852Y59503700D01*
X12944177Y59476189D01*
X12944175Y59476188D01*
X12944174Y59476188D01*
X12852125Y59423043D01*
X12852119Y59423039D01*
X12776961Y59347881D01*
X12776957Y59347875D01*
X12723812Y59255826D01*
X12723812Y59255825D01*
X12723811Y59255823D01*
X12696300Y59153148D01*
X9697288Y59153148D01*
X11398798Y60854658D01*
X15296300Y60854658D01*
X15296300Y58745354D01*
X15297353Y58734124D01*
X15299174Y58714699D01*
X15299174Y58714697D01*
X15299175Y58714694D01*
X15344345Y58585607D01*
X15425561Y58475562D01*
X15452303Y58455826D01*
X15535605Y58394346D01*
X15578636Y58379289D01*
X15664697Y58349174D01*
X15672694Y58348425D01*
X15695347Y58346300D01*
X17104652Y58346301D01*
X17135301Y58349174D01*
X17264395Y58394346D01*
X17374438Y58475562D01*
X17455654Y58585605D01*
X17486249Y58673041D01*
X17500826Y58714697D01*
X17500826Y58714699D01*
X17503700Y58745343D01*
X17503700Y59222300D01*
X17523385Y59289339D01*
X17576189Y59335094D01*
X17627700Y59346300D01*
X17759728Y59346300D01*
X17759731Y59346300D01*
X17875122Y59377219D01*
X17926633Y59406959D01*
X17978578Y59436949D01*
X18613050Y60071422D01*
X18672781Y60174878D01*
X18680187Y60202519D01*
X18703700Y60290269D01*
X18703700Y64821815D01*
X18723385Y64888854D01*
X18776189Y64934609D01*
X18845347Y64944553D01*
X18859779Y64941593D01*
X18916852Y64926300D01*
X18916854Y64926300D01*
X19023146Y64926300D01*
X19023148Y64926300D01*
X19125823Y64953811D01*
X19217878Y65006959D01*
X19267319Y65056400D01*
X19328642Y65089885D01*
X19398334Y65084901D01*
X19442681Y65056400D01*
X19512122Y64986959D01*
X19604177Y64933811D01*
X19706852Y64906300D01*
X19706854Y64906300D01*
X19813146Y64906300D01*
X19813148Y64906300D01*
X19915823Y64933811D01*
X20007878Y64986959D01*
X20083041Y65062122D01*
X20112388Y65112954D01*
X20162953Y65161167D01*
X20231560Y65174391D01*
X20282680Y65154271D01*
X20284030Y65156607D01*
X20291068Y65152544D01*
X20291069Y65152543D01*
X20383124Y65099395D01*
X20485799Y65071884D01*
X20485801Y65071884D01*
X20592093Y65071884D01*
X20592095Y65071884D01*
X20694770Y65099395D01*
X20786825Y65152543D01*
X20861988Y65227706D01*
X20861990Y65227711D01*
X20864785Y65230505D01*
X20926108Y65263990D01*
X20995800Y65259006D01*
X21040148Y65230505D01*
X21043531Y65227122D01*
X21118694Y65151959D01*
X21210749Y65098811D01*
X21313424Y65071300D01*
X21313426Y65071300D01*
X21419718Y65071300D01*
X21419720Y65071300D01*
X21522395Y65098811D01*
X21614450Y65151959D01*
X21689613Y65227122D01*
X21742761Y65319177D01*
X21770272Y65421852D01*
X21770272Y65528148D01*
X21742761Y65630823D01*
X21689613Y65722878D01*
X21614450Y65798041D01*
X21522395Y65851189D01*
X21419720Y65878700D01*
X21313424Y65878700D01*
X21210749Y65851189D01*
X21210747Y65851188D01*
X21210746Y65851188D01*
X21118697Y65798043D01*
X21118695Y65798042D01*
X21040732Y65720079D01*
X20979408Y65686595D01*
X20909717Y65691579D01*
X20865370Y65720080D01*
X20786827Y65798623D01*
X20786825Y65798625D01*
X20718303Y65838186D01*
X20694772Y65851772D01*
X20694771Y65851773D01*
X20694770Y65851773D01*
X20592095Y65879284D01*
X20541688Y65879284D01*
X20474649Y65898969D01*
X20461628Y65913996D01*
X20454358Y65905998D01*
X20447553Y65891097D01*
X20431340Y65880678D01*
X20418377Y65866418D01*
X20390728Y65854579D01*
X20388775Y65853323D01*
X20385983Y65852540D01*
X20383124Y65851773D01*
X20383123Y65851773D01*
X20383121Y65851772D01*
X20291072Y65798627D01*
X20291066Y65798623D01*
X20215908Y65723465D01*
X20215902Y65723456D01*
X20186558Y65672632D01*
X20135991Y65624417D01*
X20067384Y65611195D01*
X20016265Y65631313D01*
X20014917Y65628977D01*
X19915825Y65686188D01*
X19915824Y65686189D01*
X19915823Y65686189D01*
X19813148Y65713700D01*
X19706852Y65713700D01*
X19604177Y65686189D01*
X19604175Y65686188D01*
X19604174Y65686188D01*
X19512125Y65633043D01*
X19512119Y65633039D01*
X19462681Y65583600D01*
X19401358Y65550115D01*
X19331666Y65555099D01*
X19287319Y65583600D01*
X19217880Y65653039D01*
X19217878Y65653041D01*
X19125823Y65706189D01*
X19023148Y65733700D01*
X18916852Y65733700D01*
X18859791Y65718412D01*
X18789943Y65720074D01*
X18732081Y65759237D01*
X18704577Y65823465D01*
X18703700Y65838186D01*
X18703700Y65910710D01*
X18723385Y65977749D01*
X18740019Y65998391D01*
X18801609Y66059981D01*
X18862932Y66093466D01*
X18889290Y66096300D01*
X20353840Y66096300D01*
X20372329Y66090871D01*
X20391597Y66090412D01*
X20405163Y66081230D01*
X20420879Y66076615D01*
X20433497Y66062053D01*
X20436730Y66059865D01*
X20447975Y66084487D01*
X20489763Y66115889D01*
X20499368Y66120319D01*
X20525122Y66127219D01*
X20562989Y66149082D01*
X20628578Y66186949D01*
X21151610Y66709981D01*
X21212933Y66743466D01*
X21239291Y66746300D01*
X22309728Y66746300D01*
X22309731Y66746300D01*
X22425122Y66777219D01*
X22528578Y66836950D01*
X22613050Y66921422D01*
X22672781Y67024878D01*
X22703700Y67140269D01*
X22703700Y67259731D01*
X22672781Y67375122D01*
X22613050Y67478578D01*
X22528578Y67563050D01*
X22425122Y67622781D01*
X22309731Y67653700D01*
X21659731Y67653700D01*
X20940269Y67653700D01*
X20824878Y67622781D01*
X20824877Y67622781D01*
X20824875Y67622780D01*
X20807651Y67612835D01*
X20791829Y67603700D01*
X20770911Y67591624D01*
X20721422Y67563052D01*
X20721420Y67563050D01*
X20198390Y67040019D01*
X20137067Y67006534D01*
X20110709Y67003700D01*
X19709731Y67003700D01*
X18590269Y67003700D01*
X18474878Y66972781D01*
X18474876Y66972781D01*
X18474876Y66972780D01*
X18371422Y66913050D01*
X18371419Y66913048D01*
X17886950Y66428580D01*
X17886948Y66428577D01*
X17860414Y66382617D01*
X17855946Y66374878D01*
X17827219Y66325122D01*
X17796300Y66209731D01*
X17796300Y66209729D01*
X17796300Y60589291D01*
X17787655Y60559851D01*
X17781132Y60529864D01*
X17777377Y60524849D01*
X17776615Y60522252D01*
X17759981Y60501610D01*
X17715380Y60457009D01*
X17654057Y60423524D01*
X17584365Y60428508D01*
X17528432Y60470380D01*
X17504015Y60535844D01*
X17503699Y60544690D01*
X17503699Y60854647D01*
X17503699Y60854652D01*
X17500826Y60885301D01*
X17455654Y61014395D01*
X17408162Y61078744D01*
X17374438Y61124439D01*
X17287898Y61188308D01*
X17264395Y61205654D01*
X17264393Y61205655D01*
X17135302Y61250827D01*
X17104657Y61253700D01*
X15695353Y61253700D01*
X15678539Y61252124D01*
X15664699Y61250826D01*
X15664697Y61250826D01*
X15664693Y61250825D01*
X15535606Y61205655D01*
X15425561Y61124439D01*
X15344345Y61014394D01*
X15299173Y60885304D01*
X15299173Y60885302D01*
X15296300Y60854658D01*
X11398798Y60854658D01*
X11535916Y60991776D01*
X11535921Y60991780D01*
X11546124Y61001984D01*
X11546126Y61001984D01*
X11598016Y61053874D01*
X11634707Y61117426D01*
X11636586Y61124438D01*
X11653701Y61188308D01*
X11653701Y61261692D01*
X11653700Y61261696D01*
X11653700Y64908198D01*
X11673385Y64975237D01*
X11690015Y64995875D01*
X12576799Y65882660D01*
X12602472Y65902360D01*
X12628494Y65917382D01*
X12682618Y65971506D01*
X12697640Y65997528D01*
X12717340Y66023201D01*
X13240916Y66546776D01*
X13240921Y66546780D01*
X13251124Y66556984D01*
X13251126Y66556984D01*
X13303016Y66608874D01*
X13339707Y66672426D01*
X13353827Y66725121D01*
X13358701Y66743309D01*
X13358701Y66816692D01*
X13358700Y66816696D01*
X13358700Y67161215D01*
X13378385Y67228254D01*
X13404632Y67255564D01*
X13404595Y67255601D01*
X13406512Y67257519D01*
X13411583Y67262794D01*
X13412264Y67263272D01*
X13412267Y67263273D01*
X13496727Y67347733D01*
X13547206Y67455986D01*
X13553700Y67505312D01*
X13553700Y67954688D01*
X13547206Y68004014D01*
X13496727Y68112267D01*
X13412267Y68196727D01*
X13412263Y68196731D01*
X13411569Y68197217D01*
X13410741Y68198253D01*
X13405958Y68203036D01*
X13401497Y68205073D01*
X13385925Y68229304D01*
X13367948Y68251797D01*
X13366393Y68259696D01*
X13363723Y68263851D01*
X13358700Y68298786D01*
X13358700Y68430338D01*
X13378385Y68497377D01*
X13431189Y68543132D01*
X13452479Y68549246D01*
X13452275Y68549946D01*
X13461380Y68552602D01*
X13461386Y68552602D01*
X13566443Y68601591D01*
X13637833Y68672981D01*
X13699156Y68706466D01*
X13725514Y68709300D01*
X13788268Y68709300D01*
X13788271Y68709300D01*
X13862206Y68729111D01*
X13928494Y68767382D01*
X14084093Y68922981D01*
X14111020Y68937685D01*
X14136839Y68954277D01*
X14143039Y68955169D01*
X14145416Y68956466D01*
X14171774Y68959300D01*
X14233065Y68959300D01*
X14300104Y68939615D01*
X14320746Y68922981D01*
X14336772Y68906955D01*
X14421428Y68858078D01*
X14432241Y68851835D01*
X14434528Y68850515D01*
X14543561Y68821300D01*
X14543563Y68821300D01*
X14656437Y68821300D01*
X14656439Y68821300D01*
X14765472Y68850515D01*
X14767764Y68851838D01*
X14777018Y68857182D01*
X14810299Y68876397D01*
X14878198Y68892870D01*
X14944225Y68870019D01*
X14987417Y68815098D01*
X14996300Y68769010D01*
X14996300Y64690269D01*
X15027219Y64574878D01*
X15027220Y64574875D01*
X15045598Y64543044D01*
X15086946Y64471426D01*
X15086950Y64471421D01*
X15259981Y64298390D01*
X15293466Y64237067D01*
X15296300Y64210709D01*
X15296300Y62745354D01*
X15297598Y62731508D01*
X15299174Y62714699D01*
X15299174Y62714697D01*
X15299175Y62714694D01*
X15340527Y62596519D01*
X15344346Y62585605D01*
X15353903Y62572656D01*
X15425561Y62475562D01*
X15455479Y62453482D01*
X15535605Y62394346D01*
X15578636Y62379289D01*
X15664697Y62349174D01*
X15672694Y62348425D01*
X15695347Y62346300D01*
X17104652Y62346301D01*
X17135301Y62349174D01*
X17264395Y62394346D01*
X17374438Y62475562D01*
X17455654Y62585605D01*
X17478240Y62650152D01*
X17500826Y62714697D01*
X17500826Y62714699D01*
X17503297Y62741051D01*
X17503700Y62745347D01*
X17503699Y64854652D01*
X17500826Y64885301D01*
X17455654Y65014395D01*
X17410048Y65076189D01*
X17374438Y65124439D01*
X17276420Y65196779D01*
X17264395Y65205654D01*
X17264393Y65205655D01*
X17135302Y65250827D01*
X17104657Y65253700D01*
X17104653Y65253700D01*
X16027700Y65253700D01*
X15960661Y65273385D01*
X15914906Y65326189D01*
X15903700Y65377700D01*
X15903700Y70059729D01*
X15903700Y70059731D01*
X15872781Y70175122D01*
X15813050Y70278578D01*
X15728578Y70363050D01*
X15551356Y70540272D01*
X15340019Y70751610D01*
X15325315Y70778538D01*
X15308723Y70804356D01*
X15307831Y70810557D01*
X15306534Y70812933D01*
X15303700Y70839291D01*
X15303700Y70851019D01*
X15323385Y70918058D01*
X15376189Y70963813D01*
X15445347Y70973757D01*
X15508903Y70944732D01*
X15515381Y70938700D01*
X15527122Y70926959D01*
X15619177Y70873811D01*
X15721852Y70846300D01*
X15721854Y70846300D01*
X15828146Y70846300D01*
X15828148Y70846300D01*
X15930823Y70873811D01*
X16022878Y70926959D01*
X16098041Y71002122D01*
X16151189Y71094177D01*
X16178700Y71196852D01*
X16178700Y71303148D01*
X16151189Y71405823D01*
X16098041Y71497878D01*
X16022878Y71573041D01*
X15930823Y71626189D01*
X15828148Y71653700D01*
X15721852Y71653700D01*
X15619177Y71626189D01*
X15619175Y71626188D01*
X15619174Y71626188D01*
X15527125Y71573043D01*
X15527119Y71573039D01*
X15515381Y71561300D01*
X15454058Y71527815D01*
X15384366Y71532799D01*
X15328433Y71574671D01*
X15304016Y71640135D01*
X15303700Y71648981D01*
X15303700Y72059729D01*
X15303700Y72059731D01*
X15272781Y72175122D01*
X15244670Y72223811D01*
X15213051Y72278578D01*
X14328578Y73163051D01*
X14287496Y73186770D01*
X14262990Y73200919D01*
X14262989Y73200919D01*
X14225122Y73222781D01*
X14109731Y73253700D01*
X11040269Y73253700D01*
X10938508Y73226434D01*
X10924874Y73222780D01*
X10835710Y73171300D01*
X10821420Y73163050D01*
X8736950Y71078580D01*
X8736946Y71078575D01*
X8721676Y71052124D01*
X8721675Y71052122D01*
X8677219Y70975122D01*
X8646300Y70859731D01*
X8646300Y70859729D01*
X8646300Y69182700D01*
X8626615Y69115661D01*
X8573811Y69069906D01*
X8522300Y69058700D01*
X8277692Y69058700D01*
X8233337Y69053931D01*
X8181818Y69042723D01*
X8174132Y69040845D01*
X8171488Y69040198D01*
X8138139Y69022427D01*
X8089518Y68996519D01*
X8036718Y68950767D01*
X8036698Y68950749D01*
X8018484Y68932902D01*
X8018478Y68932895D01*
X7973141Y68851842D01*
X7973138Y68851835D01*
X7953454Y68784801D01*
X7953452Y68784793D01*
X7945000Y68726002D01*
X7945000Y68404000D01*
X7925315Y68336961D01*
X7872511Y68291206D01*
X7821000Y68280000D01*
X5679000Y68280000D01*
X5611961Y68299685D01*
X5566206Y68352489D01*
X5555000Y68404000D01*
X5555000Y68725992D01*
X5554999Y68726002D01*
X5550230Y68770364D01*
X5539024Y68821875D01*
X5536498Y68832212D01*
X5492819Y68914181D01*
X5447064Y68966985D01*
X5447055Y68966994D01*
X5447048Y68967002D01*
X5429201Y68985216D01*
X5429194Y68985222D01*
X5362679Y69022427D01*
X5348138Y69030561D01*
X5323143Y69037901D01*
X5281100Y69050246D01*
X5281092Y69050248D01*
X5222301Y69058700D01*
X5222300Y69058700D01*
X1699000Y69058700D01*
X1698992Y69058700D01*
X1654637Y69053931D01*
X1603118Y69042723D01*
X1595432Y69040845D01*
X1592788Y69040198D01*
X1559439Y69022427D01*
X1510818Y68996519D01*
X1458018Y68950767D01*
X1457998Y68950749D01*
X1439784Y68932902D01*
X1439778Y68932895D01*
X1394441Y68851842D01*
X1394438Y68851835D01*
X1374754Y68784801D01*
X1374752Y68784793D01*
X1366300Y68726002D01*
X1027700Y68726002D01*
X1027700Y70726420D01*
X1047385Y70793459D01*
X1100189Y70839214D01*
X1169346Y70849158D01*
X1224000Y70841300D01*
X1224003Y70841300D01*
X4750991Y70841300D01*
X4751000Y70841300D01*
X4795364Y70846070D01*
X4846875Y70857276D01*
X4857212Y70859802D01*
X4939181Y70903481D01*
X4991985Y70949236D01*
X5010218Y70967101D01*
X5055561Y71048162D01*
X5075246Y71115201D01*
X5083700Y71174000D01*
X5083700Y73531439D01*
X20621300Y73531439D01*
X20621300Y73418561D01*
X20627999Y73393561D01*
X20650515Y73309527D01*
X20664949Y73284528D01*
X20706955Y73211772D01*
X20786772Y73131955D01*
X20884528Y73075515D01*
X20993561Y73046300D01*
X20993563Y73046300D01*
X21106437Y73046300D01*
X21106439Y73046300D01*
X21215472Y73075515D01*
X21313228Y73131955D01*
X21393045Y73211772D01*
X21449485Y73309528D01*
X21478700Y73418561D01*
X21478700Y73531439D01*
X21449485Y73640472D01*
X21393045Y73738228D01*
X21313228Y73818045D01*
X21235543Y73862897D01*
X21187329Y73913464D01*
X21174107Y73982071D01*
X21200075Y74046935D01*
X21235544Y74077670D01*
X21240472Y74080515D01*
X21338228Y74136955D01*
X21418045Y74216772D01*
X21474485Y74314528D01*
X21503700Y74423561D01*
X21503700Y74536439D01*
X21474485Y74645472D01*
X21418045Y74743228D01*
X21338228Y74823045D01*
X21289350Y74851265D01*
X21240473Y74879485D01*
X21185955Y74894093D01*
X21131439Y74908700D01*
X21018561Y74908700D01*
X20909526Y74879485D01*
X20811772Y74823045D01*
X20811769Y74823043D01*
X20731957Y74743231D01*
X20731955Y74743228D01*
X20675515Y74645474D01*
X20646300Y74536439D01*
X20646300Y74423562D01*
X20675515Y74314527D01*
X20703735Y74265650D01*
X20731955Y74216772D01*
X20811772Y74136955D01*
X20889454Y74092105D01*
X20937670Y74041538D01*
X20950892Y73972931D01*
X20924924Y73908066D01*
X20889456Y73877332D01*
X20786775Y73818047D01*
X20786769Y73818043D01*
X20706957Y73738231D01*
X20706955Y73738228D01*
X20650515Y73640474D01*
X20643816Y73615472D01*
X20621300Y73531439D01*
X5083700Y73531439D01*
X5083700Y73657568D01*
X5081915Y73684808D01*
X5077690Y73716901D01*
X5072364Y73743676D01*
X5068602Y73757715D01*
X5067785Y73769754D01*
X5068299Y73772080D01*
X5067500Y73778154D01*
X5067500Y73796850D01*
X5071727Y73828951D01*
X5072363Y73831325D01*
X5072364Y73831327D01*
X5077689Y73858101D01*
X5081914Y73890192D01*
X5083700Y73917434D01*
X5083700Y74976000D01*
X5078930Y75020364D01*
X5067724Y75071875D01*
X5065198Y75082212D01*
X5021519Y75164181D01*
X4996113Y75193501D01*
X4967088Y75257055D01*
X4977031Y75326213D01*
X4982429Y75336685D01*
X5001189Y75369177D01*
X5028700Y75471852D01*
X5028700Y75578148D01*
X5001189Y75680823D01*
X4948041Y75772878D01*
X4872878Y75848041D01*
X4780823Y75901189D01*
X4678148Y75928700D01*
X4571852Y75928700D01*
X4469177Y75901189D01*
X4469175Y75901188D01*
X4469174Y75901188D01*
X4377125Y75848043D01*
X4377119Y75848039D01*
X4301961Y75772881D01*
X4301957Y75772875D01*
X4248812Y75680826D01*
X4248812Y75680825D01*
X4248811Y75680823D01*
X4221300Y75578148D01*
X4221300Y75471852D01*
X4223191Y75464792D01*
X4221529Y75394945D01*
X4182367Y75337082D01*
X4118139Y75309577D01*
X4103417Y75308700D01*
X2284401Y75308700D01*
X2230393Y75301589D01*
X2230389Y75301588D01*
X2168401Y75284980D01*
X2140825Y75273557D01*
X2125470Y75268345D01*
X2091440Y75259226D01*
X2059344Y75255000D01*
X2040654Y75255000D01*
X2008561Y75259225D01*
X1996143Y75262553D01*
X1974539Y75268341D01*
X1959182Y75273554D01*
X1931606Y75284976D01*
X1931607Y75284976D01*
X1931604Y75284977D01*
X1902691Y75292724D01*
X1869608Y75301589D01*
X1815598Y75308700D01*
X1815591Y75308700D01*
X1224000Y75308700D01*
X1203624Y75306510D01*
X1190953Y75305147D01*
X1122194Y75317554D01*
X1071057Y75365165D01*
X1053700Y75428437D01*
X1053700Y76556439D01*
X8921300Y76556439D01*
X8921300Y76443562D01*
X8950515Y76334527D01*
X8959734Y76318560D01*
X9006955Y76236772D01*
X9086772Y76156955D01*
X9184528Y76100515D01*
X9293561Y76071300D01*
X9293563Y76071300D01*
X9406437Y76071300D01*
X9406439Y76071300D01*
X9515472Y76100515D01*
X9613228Y76156955D01*
X9693045Y76236772D01*
X9749485Y76334528D01*
X9778700Y76443561D01*
X9778700Y76556439D01*
X9749485Y76665472D01*
X9693045Y76763228D01*
X9613228Y76843045D01*
X9564350Y76871265D01*
X9515473Y76899485D01*
X9460955Y76914093D01*
X9406439Y76928700D01*
X9293561Y76928700D01*
X9184526Y76899485D01*
X9086772Y76843045D01*
X9086769Y76843043D01*
X9006957Y76763231D01*
X9006955Y76763228D01*
X8950515Y76665474D01*
X8921300Y76556439D01*
X1053700Y76556439D01*
X1053700Y78083197D01*
X1073385Y78150236D01*
X1090019Y78170878D01*
X1954122Y79034981D01*
X2015445Y79068466D01*
X2041803Y79071300D01*
X2931419Y79071300D01*
X2998458Y79051615D01*
X3019100Y79034981D01*
X3027122Y79026959D01*
X3119177Y78973811D01*
X3221852Y78946300D01*
X3221854Y78946300D01*
X3328146Y78946300D01*
X3328148Y78946300D01*
X3430823Y78973811D01*
X3522878Y79026959D01*
X3598041Y79102122D01*
X3651189Y79194177D01*
X3678700Y79296852D01*
X3678700Y79403148D01*
X3651189Y79505823D01*
X3598041Y79597878D01*
X3522878Y79673041D01*
X3430823Y79726189D01*
X3328148Y79753700D01*
X3221852Y79753700D01*
X3119177Y79726189D01*
X3119175Y79726188D01*
X3119174Y79726188D01*
X3027125Y79673043D01*
X3027119Y79673039D01*
X3019100Y79665019D01*
X2957777Y79631534D01*
X2931419Y79628700D01*
X1919304Y79628700D01*
X1919288Y79628701D01*
X1911692Y79628701D01*
X1838308Y79628701D01*
X1838305Y79628701D01*
X1767432Y79609710D01*
X1767425Y79609707D01*
X1703874Y79573017D01*
X1703872Y79573015D01*
X662181Y78531323D01*
X600858Y78497838D01*
X531166Y78502822D01*
X475233Y78544694D01*
X450816Y78610158D01*
X450500Y78619004D01*
X450500Y80240245D01*
X452025Y80259630D01*
X457192Y80292256D01*
X469177Y80329143D01*
X479687Y80349770D01*
X502486Y80381149D01*
X518851Y80397514D01*
X550230Y80420313D01*
X570857Y80430823D01*
X607744Y80442808D01*
X640369Y80447975D01*
X659756Y80449500D01*
X697595Y80449500D01*
X18750967Y80449500D01*
X18818006Y80429815D01*
G37*
%TD.AperFunction*%
%TA.AperFunction,Conductor*%
G36*
X28852150Y10027267D02*
G01*
X28892680Y9970353D01*
X28899500Y9929795D01*
X28899500Y4709756D01*
X28897973Y4690356D01*
X28892808Y4657749D01*
X28880820Y4620854D01*
X28870314Y4600235D01*
X28868927Y4598327D01*
X28868661Y4597103D01*
X28847510Y4568849D01*
X28831151Y4552490D01*
X28799765Y4529686D01*
X28779146Y4519180D01*
X28742251Y4507192D01*
X28729903Y4505236D01*
X28709638Y4502027D01*
X28690244Y4500500D01*
X25071155Y4500500D01*
X24916510Y4469739D01*
X24916498Y4469736D01*
X24770827Y4409398D01*
X24770814Y4409391D01*
X24639711Y4321790D01*
X24639707Y4321787D01*
X24528213Y4210293D01*
X24528210Y4210289D01*
X24440609Y4079186D01*
X24440602Y4079173D01*
X24380264Y3933502D01*
X24380261Y3933490D01*
X24349500Y3778847D01*
X24349500Y3724000D01*
X24329815Y3656961D01*
X24277011Y3611206D01*
X24225500Y3600000D01*
X23577700Y3600000D01*
X23510661Y3619685D01*
X23464906Y3672489D01*
X23453700Y3724000D01*
X23453700Y4438197D01*
X23473385Y4505236D01*
X23490019Y4525878D01*
X23974122Y5009981D01*
X24035445Y5043466D01*
X24061803Y5046300D01*
X24606419Y5046300D01*
X24673458Y5026615D01*
X24694100Y5009981D01*
X24702122Y5001959D01*
X24794177Y4948811D01*
X24896852Y4921300D01*
X24896854Y4921300D01*
X25003146Y4921300D01*
X25003148Y4921300D01*
X25105823Y4948811D01*
X25197878Y5001959D01*
X25273041Y5077122D01*
X25326189Y5169177D01*
X25353700Y5271852D01*
X25353700Y5378148D01*
X25326189Y5480823D01*
X25273041Y5572878D01*
X25261391Y5584528D01*
X25230647Y5615273D01*
X25197163Y5676596D01*
X25201391Y5735709D01*
X25199085Y5736326D01*
X25201189Y5744177D01*
X25228700Y5846852D01*
X25228700Y5953148D01*
X25201189Y6055823D01*
X25148041Y6147878D01*
X25072878Y6223041D01*
X25011732Y6258344D01*
X24963518Y6308911D01*
X24950296Y6377518D01*
X24953468Y6395097D01*
X24953700Y6396854D01*
X24953700Y6503146D01*
X24953700Y6503148D01*
X24926189Y6605823D01*
X24873041Y6697878D01*
X24797878Y6773041D01*
X24736508Y6808473D01*
X24705825Y6826188D01*
X24705824Y6826189D01*
X24705823Y6826189D01*
X24603148Y6853700D01*
X24601248Y6853700D01*
X24599705Y6854154D01*
X24595088Y6854761D01*
X24595182Y6855481D01*
X24534209Y6873385D01*
X24488454Y6926189D01*
X24479084Y6988725D01*
X24478700Y6988725D01*
X24478700Y6991289D01*
X24478310Y6993891D01*
X24478700Y6996853D01*
X24478700Y7103146D01*
X24478700Y7103148D01*
X24451189Y7205823D01*
X24398041Y7297878D01*
X24322878Y7373041D01*
X24261508Y7408473D01*
X24230825Y7426188D01*
X24230824Y7426189D01*
X24230823Y7426189D01*
X24128148Y7453700D01*
X24021852Y7453700D01*
X23919177Y7426189D01*
X23919175Y7426188D01*
X23919174Y7426188D01*
X23827125Y7373043D01*
X23827119Y7373039D01*
X23751961Y7297881D01*
X23751959Y7297878D01*
X23712366Y7229301D01*
X23661798Y7181086D01*
X23593191Y7167864D01*
X23528327Y7193832D01*
X23517298Y7203621D01*
X23497880Y7223039D01*
X23497878Y7223041D01*
X23436508Y7258473D01*
X23405825Y7276188D01*
X23405824Y7276189D01*
X23405823Y7276189D01*
X23303148Y7303700D01*
X23196852Y7303700D01*
X23094177Y7276189D01*
X23094175Y7276189D01*
X23094175Y7276188D01*
X23094170Y7276187D01*
X23019385Y7233009D01*
X22951485Y7216536D01*
X22927175Y7224950D01*
X22927563Y7216808D01*
X22933288Y7201460D01*
X22929191Y7182631D01*
X22930109Y7163381D01*
X22918930Y7135459D01*
X22918436Y7133187D01*
X22916991Y7130615D01*
X22873813Y7055830D01*
X22873811Y7055825D01*
X22873811Y7055823D01*
X22846300Y6953148D01*
X22846300Y6846852D01*
X22873811Y6744177D01*
X22926959Y6652122D01*
X23002122Y6576959D01*
X23094177Y6523811D01*
X23196852Y6496300D01*
X23196854Y6496300D01*
X23222796Y6496300D01*
X23289835Y6476615D01*
X23335590Y6423811D01*
X23345534Y6354653D01*
X23316509Y6291097D01*
X23310477Y6284619D01*
X21951985Y4926128D01*
X21951983Y4926126D01*
X21915293Y4862575D01*
X21915293Y4862574D01*
X21896300Y4791692D01*
X21896300Y4791690D01*
X21896300Y3724000D01*
X21876615Y3656961D01*
X21823811Y3611206D01*
X21772300Y3600000D01*
X21002700Y3600000D01*
X20935661Y3619685D01*
X20889906Y3672489D01*
X20878700Y3724000D01*
X20878700Y5385709D01*
X20898385Y5452748D01*
X20915019Y5473390D01*
X21810191Y6368562D01*
X22721925Y7280297D01*
X22738836Y7289531D01*
X22752783Y7302829D01*
X22768869Y7305930D01*
X22783246Y7313780D01*
X22802466Y7312406D01*
X22821390Y7316053D01*
X22836598Y7309965D01*
X22840802Y7309664D01*
X22835627Y7363864D01*
X22867643Y7425966D01*
X22869662Y7428034D01*
X23151610Y7709981D01*
X23212933Y7743466D01*
X23239291Y7746300D01*
X26334728Y7746300D01*
X26334731Y7746300D01*
X26450122Y7777219D01*
X26487989Y7799082D01*
X26553578Y7836949D01*
X28613051Y9896422D01*
X28668113Y9991795D01*
X28718678Y10040010D01*
X28787285Y10053234D01*
X28852150Y10027267D01*
G37*
%TD.AperFunction*%
%TD*%
%TA.AperFunction,Conductor*%
%TO.N,+5V*%
G36*
X5289339Y68830315D02*
G01*
X5335094Y68777511D01*
X5346300Y68726000D01*
X5346300Y68254936D01*
X5346300Y68254934D01*
X5346299Y68254934D01*
X5358117Y68195524D01*
X5358118Y68195521D01*
X5358119Y68195520D01*
X5403140Y68128140D01*
X5470520Y68083119D01*
X5470523Y68083118D01*
X5529933Y68071300D01*
X5529936Y68071300D01*
X7970066Y68071300D01*
X8029476Y68083118D01*
X8029477Y68083119D01*
X8029480Y68083119D01*
X8096860Y68128140D01*
X8141881Y68195520D01*
X8153700Y68254936D01*
X8153700Y68726000D01*
X8173385Y68793039D01*
X8226189Y68838794D01*
X8277700Y68850000D01*
X8676000Y68850000D01*
X8743039Y68830315D01*
X8788794Y68777511D01*
X8800000Y68726000D01*
X8800000Y65824000D01*
X8797449Y65815315D01*
X8798738Y65806353D01*
X8787759Y65782313D01*
X8780315Y65756961D01*
X8773474Y65751034D01*
X8769713Y65742797D01*
X8747478Y65728508D01*
X8727511Y65711206D01*
X8716996Y65708919D01*
X8710935Y65705023D01*
X8676000Y65700000D01*
X8544998Y65700000D01*
X8479982Y65719091D01*
X8479917Y65718977D01*
X8479448Y65719248D01*
X8477959Y65719685D01*
X8474597Y65722049D01*
X8380825Y65776188D01*
X8380824Y65776189D01*
X8380823Y65776189D01*
X8278148Y65803700D01*
X8171852Y65803700D01*
X8069177Y65776189D01*
X8069175Y65776188D01*
X8069174Y65776188D01*
X7970083Y65718977D01*
X7968844Y65721122D01*
X7915316Y65700430D01*
X7905002Y65700000D01*
X3722281Y65700000D01*
X3655242Y65719685D01*
X3634600Y65736319D01*
X3597880Y65773039D01*
X3597878Y65773041D01*
X3524657Y65815315D01*
X3505825Y65826188D01*
X3505824Y65826189D01*
X3505823Y65826189D01*
X3403148Y65853700D01*
X3296852Y65853700D01*
X3194177Y65826189D01*
X3194175Y65826188D01*
X3194174Y65826188D01*
X3102125Y65773043D01*
X3102119Y65773039D01*
X3065400Y65736319D01*
X3004077Y65702834D01*
X2977719Y65700000D01*
X1699000Y65700000D01*
X1631961Y65719685D01*
X1586206Y65772489D01*
X1575000Y65824000D01*
X1575000Y68726000D01*
X1594685Y68793039D01*
X1647489Y68838794D01*
X1699000Y68850000D01*
X5222300Y68850000D01*
X5289339Y68830315D01*
G37*
%TD.AperFunction*%
%TD*%
%TA.AperFunction,Conductor*%
%TO.N,+3.3V*%
G36*
X1877590Y75083388D02*
G01*
X1894177Y75073811D01*
X1894178Y75073811D01*
X1894179Y75073810D01*
X1945514Y75060056D01*
X1996852Y75046300D01*
X1996854Y75046300D01*
X2103146Y75046300D01*
X2103148Y75046300D01*
X2184121Y75067997D01*
X2205820Y75073810D01*
X2205820Y75073811D01*
X2205823Y75073811D01*
X2222409Y75083388D01*
X2284409Y75100000D01*
X4751000Y75100000D01*
X4818039Y75080315D01*
X4863794Y75027511D01*
X4875000Y74976000D01*
X4875000Y73917434D01*
X4870775Y73885343D01*
X4858800Y73840652D01*
X4858800Y73734353D01*
X4870775Y73689661D01*
X4875000Y73657568D01*
X4875000Y71174000D01*
X4855315Y71106961D01*
X4802511Y71061206D01*
X4751000Y71050000D01*
X1224000Y71050000D01*
X1156961Y71069685D01*
X1111206Y71122489D01*
X1100000Y71174000D01*
X1100000Y74976000D01*
X1119685Y75043039D01*
X1172489Y75088794D01*
X1224000Y75100000D01*
X1815591Y75100000D01*
X1877590Y75083388D01*
G37*
%TD.AperFunction*%
%TD*%
M02*
