%TF.GenerationSoftware,KiCad,Pcbnew,9.0.7*%
%TF.CreationDate,2026-02-19T00:24:31+01:00*%
%TF.ProjectId,BladeCore-M54C,426c6164-6543-46f7-9265-2d4d3534432e,rev?*%
%TF.SameCoordinates,Original*%
%TF.FileFunction,Legend,Bot*%
%TF.FilePolarity,Positive*%
%FSLAX46Y46*%
G04 Gerber Fmt 4.6, Leading zero omitted, Abs format (unit mm)*
G04 Created by KiCad (PCBNEW 9.0.7) date 2026-02-19 00:24:31*
%MOMM*%
%LPD*%
G01*
G04 APERTURE LIST*
G04 Aperture macros list*
%AMRoundRect*
0 Rectangle with rounded corners*
0 $1 Rounding radius*
0 $2 $3 $4 $5 $6 $7 $8 $9 X,Y pos of 4 corners*
0 Add a 4 corners polygon primitive as box body*
4,1,4,$2,$3,$4,$5,$6,$7,$8,$9,$2,$3,0*
0 Add four circle primitives for the rounded corners*
1,1,$1+$1,$2,$3*
1,1,$1+$1,$4,$5*
1,1,$1+$1,$6,$7*
1,1,$1+$1,$8,$9*
0 Add four rect primitives between the rounded corners*
20,1,$1+$1,$2,$3,$4,$5,0*
20,1,$1+$1,$4,$5,$6,$7,0*
20,1,$1+$1,$6,$7,$8,$9,0*
20,1,$1+$1,$8,$9,$2,$3,0*%
G04 Aperture macros list end*
%ADD10C,0.000000*%
%ADD11C,0.150000*%
%ADD12C,0.400000*%
%ADD13C,0.120000*%
%ADD14C,0.650000*%
%ADD15O,1.000000X2.100000*%
%ADD16O,1.000000X1.600000*%
%ADD17RoundRect,0.050000X-0.175000X-1.250000X0.175000X-1.250000X0.175000X1.250000X-0.175000X1.250000X0*%
%ADD18C,5.500000*%
%ADD19C,0.425000*%
%ADD20RoundRect,0.140000X-0.170000X0.140000X-0.170000X-0.140000X0.170000X-0.140000X0.170000X0.140000X0*%
%ADD21RoundRect,0.140000X0.170000X-0.140000X0.170000X0.140000X-0.170000X0.140000X-0.170000X-0.140000X0*%
%ADD22RoundRect,0.140000X-0.140000X-0.170000X0.140000X-0.170000X0.140000X0.170000X-0.140000X0.170000X0*%
%ADD23RoundRect,0.140000X0.140000X0.170000X-0.140000X0.170000X-0.140000X-0.170000X0.140000X-0.170000X0*%
%ADD24RoundRect,0.125000X0.175000X0.125000X-0.175000X0.125000X-0.175000X-0.125000X0.175000X-0.125000X0*%
%ADD25RoundRect,0.135000X-0.135000X-0.185000X0.135000X-0.185000X0.135000X0.185000X-0.135000X0.185000X0*%
%ADD26RoundRect,0.250000X-0.650000X1.000000X-0.650000X-1.000000X0.650000X-1.000000X0.650000X1.000000X0*%
%ADD27RoundRect,0.250000X-0.625000X0.312500X-0.625000X-0.312500X0.625000X-0.312500X0.625000X0.312500X0*%
%ADD28RoundRect,0.112500X-0.112500X-0.237500X0.112500X-0.237500X0.112500X0.237500X-0.112500X0.237500X0*%
G04 APERTURE END LIST*
D10*
G36*
X22471140Y56680216D02*
G01*
X21788515Y56680216D01*
X21788515Y57148528D01*
X22471140Y57148528D01*
X22471140Y56680216D01*
G37*
G36*
X23502487Y60634090D02*
G01*
X23589471Y60634100D01*
X23719429Y60634069D01*
X23938547Y60634058D01*
X24156682Y60633998D01*
X24170410Y60633998D01*
X24225616Y60633999D01*
X24743243Y60633907D01*
X25202701Y60633826D01*
X25232175Y60633826D01*
X25246897Y60633826D01*
X25320303Y60633827D01*
X25334936Y60633828D01*
X25720705Y60633789D01*
X25734598Y60633787D01*
X25789905Y60633776D01*
X25981032Y60633753D01*
X26228603Y60633702D01*
X26348167Y60633669D01*
X26547312Y60633536D01*
X26646881Y60632924D01*
X26746444Y60631570D01*
X26759841Y60631318D01*
X26796858Y60630603D01*
X26807882Y60630357D01*
X26817093Y60630163D01*
X26826298Y60629916D01*
X26835501Y60629581D01*
X26844702Y60629121D01*
X26873512Y60625601D01*
X26902127Y60620822D01*
X26930486Y60614791D01*
X26958528Y60607515D01*
X26986191Y60599000D01*
X27013415Y60589253D01*
X27040137Y60578278D01*
X27066298Y60566084D01*
X27091834Y60552675D01*
X27116686Y60538059D01*
X27140792Y60522242D01*
X27164090Y60505229D01*
X27186520Y60487028D01*
X27208019Y60467644D01*
X27228528Y60447085D01*
X27247984Y60425355D01*
X27253483Y60418778D01*
X27276486Y60389602D01*
X27297232Y60359511D01*
X27315825Y60328566D01*
X27332372Y60296829D01*
X27346978Y60264363D01*
X27359749Y60231229D01*
X27370790Y60197489D01*
X27380207Y60163206D01*
X27388106Y60128442D01*
X27394591Y60093258D01*
X27399768Y60057717D01*
X27403744Y60021880D01*
X27406623Y59985811D01*
X27408511Y59949569D01*
X27409514Y59913219D01*
X27409737Y59876822D01*
X27409693Y59837412D01*
X27409665Y59767611D01*
X27409550Y59662641D01*
X27409391Y59472170D01*
X27409190Y59302912D01*
X27409174Y59280016D01*
X27409150Y59245389D01*
X27408404Y58664761D01*
X27408126Y58494586D01*
X27406649Y57682287D01*
X27406440Y57578777D01*
X27405771Y57264697D01*
X27405706Y57237470D01*
X27405674Y57223988D01*
X27405475Y57133029D01*
X27404420Y56818414D01*
X27404235Y56783349D01*
X27403269Y56637597D01*
X27402910Y56591692D01*
X27402477Y56531431D01*
X27402053Y56501302D01*
X27401380Y56471178D01*
X27399983Y56444209D01*
X27397571Y56417073D01*
X27394119Y56389863D01*
X27389600Y56362676D01*
X27383987Y56335606D01*
X27377253Y56308749D01*
X27369371Y56282199D01*
X27360315Y56256052D01*
X27350058Y56230402D01*
X27338573Y56205346D01*
X27325834Y56180977D01*
X27311813Y56157391D01*
X27296485Y56134684D01*
X27279821Y56112949D01*
X27261796Y56092283D01*
X27242383Y56072780D01*
X27233640Y56065059D01*
X27201544Y56038117D01*
X27168784Y56013704D01*
X27135368Y55991710D01*
X27101302Y55972030D01*
X27066595Y55954555D01*
X27031252Y55939177D01*
X26995281Y55925788D01*
X26958690Y55914282D01*
X26921486Y55904549D01*
X26883676Y55896484D01*
X26845267Y55889977D01*
X26806266Y55884921D01*
X26766681Y55881209D01*
X26726519Y55878732D01*
X26685787Y55877384D01*
X26644493Y55877055D01*
X26603835Y55877099D01*
X26531704Y55877127D01*
X26422899Y55877243D01*
X26224631Y55877402D01*
X26048296Y55877603D01*
X26024445Y55877619D01*
X25988342Y55877643D01*
X25387304Y55878365D01*
X25167892Y55878690D01*
X24302724Y55880068D01*
X24268671Y55880128D01*
X24260163Y55880144D01*
X24132246Y55880367D01*
X23778079Y55881022D01*
X23626146Y55881318D01*
X23518395Y55881525D01*
X23498324Y55881563D01*
X23433515Y55881701D01*
X23373957Y55881809D01*
X23352097Y55881869D01*
X23325683Y55881931D01*
X23299275Y55882154D01*
X23272871Y55882632D01*
X23246470Y55883463D01*
X23236604Y55883885D01*
X23231277Y55884123D01*
X23226027Y55884473D01*
X23220848Y55884933D01*
X23215729Y55885503D01*
X23210663Y55886178D01*
X23205640Y55886959D01*
X23200654Y55887842D01*
X23195695Y55888825D01*
X23185826Y55891087D01*
X23175965Y55893727D01*
X23166045Y55896730D01*
X23156000Y55900081D01*
X23148230Y55903147D01*
X23139229Y55906658D01*
X23129696Y55910332D01*
X23120133Y55913929D01*
X23099212Y55922004D01*
X23078648Y55930618D01*
X23058451Y55939779D01*
X23038631Y55949499D01*
X23019200Y55959789D01*
X23000166Y55970658D01*
X22981540Y55982117D01*
X22963334Y55994177D01*
X22945556Y56006848D01*
X22928217Y56020141D01*
X22911328Y56034066D01*
X22894899Y56048634D01*
X22878940Y56063855D01*
X22863461Y56079740D01*
X22848473Y56096299D01*
X22833986Y56113543D01*
X22828327Y56120622D01*
X22819548Y56131862D01*
X22811041Y56143303D01*
X22802812Y56154938D01*
X22794867Y56166763D01*
X22787212Y56178771D01*
X22779853Y56190958D01*
X22772796Y56203317D01*
X22766047Y56215845D01*
X22759612Y56228534D01*
X22753496Y56241379D01*
X22747707Y56254376D01*
X22742249Y56267518D01*
X22737129Y56280800D01*
X22732352Y56294217D01*
X22727926Y56307763D01*
X22723854Y56321433D01*
X22721171Y56330966D01*
X22715108Y56352286D01*
X22710558Y56370056D01*
X22708785Y56378367D01*
X22707311Y56386700D01*
X22706111Y56395358D01*
X22705158Y56404644D01*
X22703889Y56426314D01*
X22703294Y56454133D01*
X22703292Y56537926D01*
X22703329Y56593755D01*
X22703328Y56691848D01*
X22703417Y56838561D01*
X22703481Y57085610D01*
X22703634Y57331372D01*
X22703635Y57346805D01*
X22703641Y57408856D01*
X22703666Y57590204D01*
X22703668Y57598189D01*
X22703875Y57982338D01*
X22704123Y58516785D01*
X22704126Y58533427D01*
X22704141Y58616433D01*
X22704142Y58624710D01*
X22704149Y58666015D01*
X22704308Y59184487D01*
X22704366Y59338330D01*
X22704525Y59663480D01*
X22704606Y59798027D01*
X22704633Y59846079D01*
X23124474Y59846079D01*
X23124510Y59837670D01*
X23124513Y59829260D01*
X23124475Y59805741D01*
X23124511Y59782222D01*
X23124555Y59730650D01*
X23124583Y59640148D01*
X23124698Y59504954D01*
X23124857Y59263910D01*
X23125062Y59052333D01*
X23125079Y59024007D01*
X23125105Y58981332D01*
X23125833Y58316710D01*
X23126102Y58123467D01*
X23127259Y57420280D01*
X23127610Y57235416D01*
X23128105Y56996460D01*
X23128363Y56881480D01*
X23128566Y56785724D01*
X23128695Y56737406D01*
X23128777Y56693146D01*
X23128847Y56676911D01*
X23129032Y56658970D01*
X23129670Y56641064D01*
X23130803Y56623223D01*
X23132472Y56605474D01*
X23134718Y56587848D01*
X23137583Y56570373D01*
X23141108Y56553078D01*
X23145334Y56535991D01*
X23150303Y56519141D01*
X23156055Y56502558D01*
X23162633Y56486269D01*
X23170077Y56470305D01*
X23178429Y56454693D01*
X23187729Y56439463D01*
X23198020Y56424644D01*
X23209343Y56410263D01*
X23225769Y56395016D01*
X23242668Y56381336D01*
X23260021Y56369143D01*
X23277809Y56358357D01*
X23296015Y56348897D01*
X23314618Y56340685D01*
X23333600Y56333641D01*
X23352942Y56327684D01*
X23372626Y56322735D01*
X23392633Y56318715D01*
X23412943Y56315542D01*
X23433539Y56313138D01*
X23454400Y56311423D01*
X23475509Y56310317D01*
X23496847Y56309740D01*
X23518395Y56309612D01*
X23561732Y56309638D01*
X23637898Y56309633D01*
X23751878Y56309693D01*
X23944036Y56309731D01*
X24135809Y56309837D01*
X24147880Y56309838D01*
X24196429Y56309840D01*
X24639279Y56309997D01*
X25055811Y56310167D01*
X25068710Y56310168D01*
X25120216Y56310174D01*
X25145903Y56310176D01*
X25171540Y56310179D01*
X25584243Y56310286D01*
X25704305Y56310325D01*
X26120428Y56310403D01*
X26536545Y56312222D01*
X26570677Y56312481D01*
X26596456Y56312645D01*
X26622235Y56312878D01*
X26640641Y56313088D01*
X26656132Y56313309D01*
X26671399Y56313879D01*
X26686499Y56314839D01*
X26701483Y56316233D01*
X26716407Y56318103D01*
X26731325Y56320492D01*
X26746291Y56323442D01*
X26761358Y56326997D01*
X26774801Y56331892D01*
X26787717Y56337366D01*
X26800121Y56343407D01*
X26812026Y56350004D01*
X26823447Y56357144D01*
X26834396Y56364817D01*
X26844887Y56373010D01*
X26854934Y56381713D01*
X26864550Y56390914D01*
X26873750Y56400601D01*
X26882546Y56410763D01*
X26890953Y56421388D01*
X26898983Y56432465D01*
X26906651Y56443982D01*
X26913970Y56455928D01*
X26920954Y56468292D01*
X26925069Y56476073D01*
X26936275Y56509008D01*
X26944682Y56535051D01*
X26947956Y56546239D01*
X26950673Y56556605D01*
X26952883Y56566450D01*
X26954632Y56576075D01*
X26955970Y56585779D01*
X26956944Y56595863D01*
X26957602Y56606628D01*
X26957992Y56618374D01*
X26958160Y56646010D01*
X26957832Y56681176D01*
X26957777Y56702820D01*
X26957794Y56724464D01*
X26957796Y56800597D01*
X26957706Y56914465D01*
X26957642Y57106520D01*
X26957489Y57298182D01*
X26957488Y57310254D01*
X26957482Y57358813D01*
X26957255Y57801676D01*
X26957001Y58217979D01*
X26956999Y58230867D01*
X26956984Y58295171D01*
X26956981Y58307999D01*
X26956976Y58333617D01*
X26956816Y58746370D01*
X26956757Y58866393D01*
X26956524Y59290393D01*
X26954500Y59714386D01*
X26954187Y59751603D01*
X26953694Y59808239D01*
X26953469Y59828526D01*
X26953232Y59846764D01*
X26952705Y59864906D01*
X26951783Y59882959D01*
X26950360Y59900933D01*
X26948333Y59918835D01*
X26947060Y59927762D01*
X26945597Y59936675D01*
X26943931Y59945574D01*
X26942048Y59954461D01*
X26939936Y59963336D01*
X26937581Y59972200D01*
X26935239Y59979983D01*
X26932076Y59990106D01*
X26928686Y60000045D01*
X26925063Y60009825D01*
X26921195Y60019474D01*
X26917074Y60029017D01*
X26912691Y60038481D01*
X26908037Y60047894D01*
X26903102Y60057281D01*
X26896296Y60069528D01*
X26893241Y60075742D01*
X26890012Y60081437D01*
X26886603Y60086652D01*
X26883009Y60091429D01*
X26879227Y60095806D01*
X26875249Y60099825D01*
X26871073Y60103526D01*
X26866692Y60106948D01*
X26862102Y60110133D01*
X26857298Y60113119D01*
X26852274Y60115949D01*
X26847027Y60118660D01*
X26841550Y60121295D01*
X26835839Y60123892D01*
X26823696Y60129137D01*
X26816711Y60132063D01*
X26809755Y60135033D01*
X26802830Y60138072D01*
X26795936Y60141204D01*
X26786911Y60145481D01*
X26777873Y60149731D01*
X26769048Y60153864D01*
X26759365Y60158339D01*
X26749674Y60162435D01*
X26739966Y60166163D01*
X26730236Y60169532D01*
X26720475Y60172554D01*
X26710677Y60175239D01*
X26700835Y60177597D01*
X26690942Y60179639D01*
X26680990Y60181376D01*
X26670973Y60182818D01*
X26660883Y60183975D01*
X26650714Y60184858D01*
X26640458Y60185478D01*
X26630108Y60185844D01*
X26619657Y60185969D01*
X26609098Y60185861D01*
X26599176Y60185678D01*
X26589255Y60185542D01*
X26545720Y60185070D01*
X26511210Y60184669D01*
X26476698Y60184460D01*
X26464927Y60184433D01*
X26440848Y60184377D01*
X26377272Y60184173D01*
X26350348Y60184063D01*
X26336544Y60184007D01*
X26263128Y60183719D01*
X26224018Y60183568D01*
X26216047Y60183537D01*
X26133937Y60183218D01*
X25766352Y60181820D01*
X25756784Y60181785D01*
X25099661Y60179676D01*
X25088639Y60179645D01*
X24901209Y60179126D01*
X23690289Y60175157D01*
X23611983Y60174822D01*
X23520094Y60174419D01*
X23475096Y60174191D01*
X23434812Y60174020D01*
X23420288Y60173918D01*
X23408868Y60173787D01*
X23397726Y60173391D01*
X23386842Y60172703D01*
X23376198Y60171698D01*
X23365773Y60170351D01*
X23355547Y60168636D01*
X23345501Y60166528D01*
X23335615Y60164002D01*
X23325868Y60161032D01*
X23316242Y60157593D01*
X23306716Y60153659D01*
X23297271Y60149205D01*
X23287886Y60144205D01*
X23278542Y60138635D01*
X23269219Y60132468D01*
X23259898Y60125679D01*
X23249015Y60117153D01*
X23234428Y60106125D01*
X23227189Y60100515D01*
X23220086Y60094748D01*
X23216610Y60091784D01*
X23213195Y60088756D01*
X23209852Y60085654D01*
X23206590Y60082469D01*
X23203418Y60079194D01*
X23200346Y60075819D01*
X23197382Y60072337D01*
X23194537Y60068737D01*
X23189484Y60061590D01*
X23180837Y60049291D01*
X23172888Y60036874D01*
X23165617Y60024330D01*
X23159007Y60011652D01*
X23153039Y59998832D01*
X23147694Y59985860D01*
X23142954Y59972730D01*
X23138801Y59959433D01*
X23135215Y59945961D01*
X23132180Y59932306D01*
X23129675Y59918460D01*
X23127684Y59904415D01*
X23126186Y59890162D01*
X23125164Y59875694D01*
X23124600Y59861002D01*
X23124474Y59846079D01*
X22704633Y59846079D01*
X22704668Y59910336D01*
X22704712Y59966989D01*
X22704735Y60019019D01*
X22704764Y60037997D01*
X22704795Y60072337D01*
X22705063Y60089507D01*
X22705675Y60106655D01*
X22706766Y60123760D01*
X22708469Y60140807D01*
X22709591Y60149302D01*
X22710916Y60157775D01*
X22712461Y60166225D01*
X22714241Y60174648D01*
X22716210Y60182637D01*
X22721160Y60201142D01*
X22726907Y60219669D01*
X22733417Y60238171D01*
X22740657Y60256598D01*
X22748592Y60274904D01*
X22757187Y60293041D01*
X22766410Y60310959D01*
X22776225Y60328612D01*
X22786599Y60345951D01*
X22797497Y60362927D01*
X22808885Y60379494D01*
X22820729Y60395603D01*
X22832995Y60411206D01*
X22845649Y60426254D01*
X22858657Y60440700D01*
X22871983Y60454497D01*
X22902483Y60482523D01*
X22934019Y60507537D01*
X22966534Y60529704D01*
X22999973Y60549189D01*
X23034281Y60566158D01*
X23069401Y60580776D01*
X23105279Y60593210D01*
X23141857Y60603624D01*
X23179082Y60612185D01*
X23216897Y60619057D01*
X23255246Y60624406D01*
X23294074Y60628398D01*
X23333325Y60631198D01*
X23372944Y60632972D01*
X23453061Y60634104D01*
X23502487Y60634090D01*
G37*
G36*
X26586734Y65990903D02*
G01*
X26572890Y65985753D01*
X26559201Y65980844D01*
X26552345Y65978500D01*
X26545445Y65976242D01*
X26538471Y65974076D01*
X26531397Y65972013D01*
X26522922Y65969671D01*
X26493821Y65961536D01*
X26472753Y65955662D01*
X26427716Y65943067D01*
X26319127Y65912692D01*
X26282561Y65902445D01*
X26087251Y65847274D01*
X26072532Y65843067D01*
X25936975Y65803999D01*
X25801538Y65764515D01*
X25673008Y65727140D01*
X25544344Y65690225D01*
X25356198Y65636229D01*
X25168252Y65581539D01*
X25049957Y65546978D01*
X24974099Y65524850D01*
X24921363Y65509462D01*
X24733638Y65454556D01*
X24686872Y65440221D01*
X24640273Y65425394D01*
X24593895Y65409950D01*
X24547787Y65393767D01*
X24529595Y65387236D01*
X24475358Y65367809D01*
X24540560Y65352093D01*
X24605575Y65335753D01*
X24670439Y65318825D01*
X24735190Y65301347D01*
X24786588Y65287300D01*
X24873566Y65263563D01*
X25079052Y65207553D01*
X25089026Y65204842D01*
X25243672Y65163011D01*
X25398438Y65121628D01*
X25408263Y65119018D01*
X25620718Y65062921D01*
X25721724Y65036279D01*
X25822496Y65008989D01*
X25922992Y64980707D01*
X26023171Y64951090D01*
X26054606Y64941573D01*
X26086077Y64932172D01*
X26095104Y64929510D01*
X26124645Y64920985D01*
X26154267Y64912852D01*
X26183998Y64905125D01*
X26213865Y64897816D01*
X26228151Y64894458D01*
X26264377Y64885929D01*
X26300652Y64877608D01*
X26349054Y64866461D01*
X26370653Y64860843D01*
X26394988Y64853863D01*
X26465274Y64831821D01*
X26586734Y64792340D01*
X26586734Y63776340D01*
X23455390Y63776340D01*
X23455390Y64391497D01*
X23548953Y64394698D01*
X23595702Y64395846D01*
X23642509Y64396468D01*
X23667321Y64396645D01*
X23736538Y64397166D01*
X23811884Y64397723D01*
X23951213Y64398763D01*
X24089446Y64399779D01*
X24098158Y64399844D01*
X24141980Y64400176D01*
X24451496Y64402478D01*
X24752423Y64404705D01*
X24761819Y64404775D01*
X24855299Y64405476D01*
X25045891Y64406901D01*
X25054747Y64406967D01*
X25632903Y64411244D01*
X25646140Y64411340D01*
X25623726Y64425001D01*
X25605913Y64435441D01*
X25598195Y64439657D01*
X25590981Y64443311D01*
X25584057Y64446486D01*
X25577209Y64449262D01*
X25570219Y64451722D01*
X25562874Y64453946D01*
X25554959Y64456016D01*
X25546258Y64458013D01*
X25525639Y64462115D01*
X25499296Y64466902D01*
X25499296Y64458966D01*
X25494041Y64458969D01*
X25489995Y64458995D01*
X25488339Y64459023D01*
X25486881Y64459065D01*
X25485586Y64459123D01*
X25484420Y64459200D01*
X25483348Y64459300D01*
X25482335Y64459424D01*
X25481345Y64459576D01*
X25480345Y64459758D01*
X25479300Y64459973D01*
X25478174Y64460224D01*
X25475543Y64460844D01*
X25466769Y64463628D01*
X25456132Y64466951D01*
X25442667Y64471176D01*
X25429186Y64475351D01*
X25386285Y64488572D01*
X25367031Y64494520D01*
X25325853Y64507238D01*
X25260445Y64527435D01*
X25249406Y64530842D01*
X25227369Y64537643D01*
X25097530Y64577735D01*
X24887938Y64642114D01*
X24782893Y64673476D01*
X24677545Y64703805D01*
X24614357Y64721612D01*
X24606327Y64723879D01*
X24549540Y64740159D01*
X24492944Y64756952D01*
X24436537Y64774372D01*
X24380317Y64792537D01*
X24366714Y64797053D01*
X24339466Y64806098D01*
X24325990Y64810573D01*
X24312640Y64815006D01*
X24177194Y64857666D01*
X24084328Y64886223D01*
X23991099Y64913580D01*
X23854559Y64952641D01*
X23652521Y65010850D01*
X23607939Y65023768D01*
X23475233Y65062215D01*
X23475233Y65669434D01*
X23503868Y65677240D01*
X23532464Y65685181D01*
X23544063Y65688543D01*
X23557594Y65692464D01*
X23571910Y65696626D01*
X23628410Y65713076D01*
X23636960Y65715571D01*
X23757142Y65751023D01*
X23817121Y65769115D01*
X23877008Y65787533D01*
X24014535Y65829635D01*
X24152372Y65870585D01*
X24290484Y65910600D01*
X24428834Y65949902D01*
X24596385Y65997136D01*
X24606823Y66000080D01*
X24971199Y66103487D01*
X25011702Y66115045D01*
X25137742Y66151066D01*
X25263582Y66187775D01*
X25291733Y66196139D01*
X25325522Y66206152D01*
X25359281Y66216267D01*
X25398121Y66227870D01*
X25417501Y66233332D01*
X25436927Y66238441D01*
X25456453Y66243103D01*
X25476134Y66247224D01*
X25496023Y66250708D01*
X25516174Y66253461D01*
X25528143Y66254834D01*
X25540359Y66256458D01*
X25546490Y66257437D01*
X25552601Y66258566D01*
X25558663Y66259876D01*
X25564648Y66261394D01*
X25570529Y66263151D01*
X25576278Y66265176D01*
X25581867Y66267498D01*
X25587270Y66270146D01*
X25592457Y66273150D01*
X25594961Y66274795D01*
X25597402Y66276539D01*
X25599774Y66278388D01*
X25602076Y66280343D01*
X25604303Y66282409D01*
X25606452Y66284590D01*
X25346584Y66288747D01*
X25086692Y66291063D01*
X24963963Y66291974D01*
X24743224Y66293629D01*
X24729975Y66293727D01*
X24676848Y66294120D01*
X24531204Y66295199D01*
X24518046Y66295296D01*
X24297285Y66296953D01*
X24173840Y66297876D01*
X23761983Y66301390D01*
X23749911Y66301526D01*
X23506984Y66304434D01*
X23506984Y66955309D01*
X26586734Y66955309D01*
X26586734Y65990903D01*
G37*
G36*
X27848261Y59796219D02*
G01*
X27944916Y59796209D01*
X28057706Y59796202D01*
X28155116Y59796223D01*
X28213111Y59796217D01*
X28268655Y59796219D01*
X28289048Y59796198D01*
X28317613Y59796207D01*
X28326160Y59796188D01*
X28332828Y59796164D01*
X28339497Y59796083D01*
X28346164Y59795929D01*
X28352827Y59795684D01*
X28354138Y59794359D01*
X28354670Y59793793D01*
X28355129Y59793269D01*
X28355521Y59792769D01*
X28355853Y59792276D01*
X28356130Y59791774D01*
X28356361Y59791244D01*
X28356550Y59790670D01*
X28356706Y59790035D01*
X28356833Y59789321D01*
X28356940Y59788512D01*
X28357032Y59787590D01*
X28357115Y59786538D01*
X28357284Y59783975D01*
X28357273Y59773610D01*
X28357290Y59761778D01*
X28357246Y59748640D01*
X28357215Y59704855D01*
X28357175Y59675874D01*
X28357153Y59632647D01*
X28357044Y59559296D01*
X28356796Y59327372D01*
X27658296Y59327372D01*
X27658048Y59559296D01*
X27657920Y59662103D01*
X27657908Y59689753D01*
X27657844Y59734691D01*
X27657845Y59748640D01*
X27657802Y59761778D01*
X27657819Y59773610D01*
X27657837Y59778139D01*
X27657912Y59782667D01*
X27658060Y59787194D01*
X27658296Y59791716D01*
X27659628Y59793026D01*
X27660210Y59793559D01*
X27660766Y59794018D01*
X27661319Y59794410D01*
X27661890Y59794741D01*
X27662501Y59795020D01*
X27663176Y59795250D01*
X27663937Y59795441D01*
X27664805Y59795597D01*
X27665803Y59795725D01*
X27666954Y59795833D01*
X27669802Y59796011D01*
X27673527Y59796184D01*
X27688932Y59796188D01*
X27716117Y59796211D01*
X27736118Y59796205D01*
X27790452Y59796225D01*
X27848261Y59796219D01*
G37*
G36*
X25494335Y64474824D02*
G01*
X25495596Y64474788D01*
X25496753Y64474716D01*
X25497840Y64474598D01*
X25498893Y64474421D01*
X25499945Y64474175D01*
X25501032Y64473848D01*
X25502189Y64473427D01*
X25503451Y64472902D01*
X25504852Y64472260D01*
X25506427Y64471491D01*
X25510241Y64469522D01*
X25515171Y64466902D01*
X25499296Y64466902D01*
X25499296Y64458966D01*
X25494033Y64458981D01*
X25491857Y64459018D01*
X25489932Y64459090D01*
X25488216Y64459208D01*
X25486669Y64459384D01*
X25485249Y64459630D01*
X25484575Y64459783D01*
X25483917Y64459958D01*
X25483271Y64460155D01*
X25482631Y64460378D01*
X25481993Y64460627D01*
X25481351Y64460903D01*
X25480036Y64461545D01*
X25478646Y64462314D01*
X25477139Y64463223D01*
X25475476Y64464282D01*
X25471515Y64466902D01*
X25491358Y64466902D01*
X25491358Y64474840D01*
X25494335Y64474824D01*
G37*
G36*
X26586734Y67264871D02*
G01*
X26019202Y67264871D01*
X26019202Y67959403D01*
X23506984Y67959403D01*
X23506984Y68578527D01*
X26019202Y68578527D01*
X26019202Y69253214D01*
X26586734Y69253214D01*
X26586734Y67264871D01*
G37*
G36*
X24800075Y63395181D02*
G01*
X24969464Y63394507D01*
X25133190Y63393838D01*
X25143400Y63393803D01*
X25153597Y63393767D01*
X25173944Y63393697D01*
X25184090Y63393661D01*
X25342282Y63393057D01*
X25399056Y63392837D01*
X25489463Y63392470D01*
X25523212Y63392312D01*
X25612850Y63391657D01*
X25657659Y63390933D01*
X25702469Y63389827D01*
X25710873Y63389576D01*
X25728250Y63389089D01*
X25745621Y63388509D01*
X25762980Y63387679D01*
X25771652Y63387122D01*
X25780317Y63386444D01*
X25825271Y63380242D01*
X25869040Y63371637D01*
X25911645Y63360708D01*
X25953104Y63347538D01*
X25993439Y63332207D01*
X26032669Y63314798D01*
X26070814Y63295393D01*
X26107893Y63274071D01*
X26143928Y63250916D01*
X26178937Y63226008D01*
X26212941Y63199429D01*
X26245959Y63171261D01*
X26278012Y63141584D01*
X26309119Y63110482D01*
X26339300Y63078034D01*
X26368576Y63044323D01*
X26380358Y63030216D01*
X26392308Y63015983D01*
X26404004Y63001677D01*
X26415418Y62987239D01*
X26426519Y62972613D01*
X26437277Y62957740D01*
X26447662Y62942563D01*
X26457645Y62927024D01*
X26467194Y62911065D01*
X26471640Y62903215D01*
X26509630Y62833535D01*
X26525000Y62800000D01*
X26538178Y62764226D01*
X26549334Y62723882D01*
X26558634Y62676636D01*
X26572347Y62552118D01*
X26580664Y62372019D01*
X26584935Y62117692D01*
X26586734Y61311747D01*
X26070796Y61311747D01*
X23491109Y61311747D01*
X23485170Y61450919D01*
X23478641Y61590053D01*
X23464154Y61882799D01*
X23460234Y62030797D01*
X23460917Y62132603D01*
X23982685Y62132603D01*
X23983501Y62086722D01*
X23985311Y62035193D01*
X23991171Y61911028D01*
X26070796Y61911028D01*
X26073295Y62138551D01*
X26072968Y62196644D01*
X26071430Y62254565D01*
X26068264Y62311986D01*
X26063055Y62368579D01*
X26061618Y62379837D01*
X26059261Y62396433D01*
X26056408Y62412558D01*
X26053042Y62428239D01*
X26049148Y62443501D01*
X26044708Y62458369D01*
X26039707Y62472870D01*
X26034127Y62487030D01*
X26027951Y62500874D01*
X26021164Y62514428D01*
X26013749Y62527717D01*
X26005689Y62540768D01*
X25996967Y62553606D01*
X25987568Y62566258D01*
X25977474Y62578748D01*
X25966669Y62591103D01*
X25955136Y62603348D01*
X25924671Y62632205D01*
X25893742Y62658062D01*
X25862317Y62681078D01*
X25830364Y62701411D01*
X25797854Y62719219D01*
X25764753Y62734660D01*
X25731030Y62747892D01*
X25696654Y62759073D01*
X25661594Y62768361D01*
X25625817Y62775915D01*
X25589292Y62781893D01*
X25551988Y62786452D01*
X25513874Y62789750D01*
X25474917Y62791947D01*
X25435086Y62793199D01*
X25394350Y62793665D01*
X25338381Y62793905D01*
X25243529Y62794340D01*
X25111202Y62794918D01*
X24850595Y62795967D01*
X24811197Y62796090D01*
X24719285Y62796351D01*
X24690353Y62796400D01*
X24635492Y62796522D01*
X24608012Y62796360D01*
X24580529Y62795889D01*
X24553066Y62794990D01*
X24525644Y62793542D01*
X24498286Y62791426D01*
X24471015Y62788522D01*
X24460972Y62787129D01*
X24429592Y62782303D01*
X24398312Y62776329D01*
X24382755Y62772866D01*
X24367277Y62769062D01*
X24351896Y62764899D01*
X24336630Y62760361D01*
X24321498Y62755428D01*
X24306517Y62750082D01*
X24291705Y62744307D01*
X24277080Y62738084D01*
X24262661Y62731396D01*
X24248465Y62724224D01*
X24234511Y62716551D01*
X24220816Y62708359D01*
X24209452Y62700809D01*
X24197938Y62693180D01*
X24186709Y62685449D01*
X24175778Y62677520D01*
X24170430Y62673451D01*
X24165162Y62669296D01*
X24159976Y62665043D01*
X24154875Y62660680D01*
X24149859Y62656195D01*
X24144932Y62651575D01*
X24140094Y62646809D01*
X24135348Y62641884D01*
X24130696Y62636789D01*
X24126140Y62631511D01*
X24118171Y62621434D01*
X24070143Y62509722D01*
X24050783Y62463084D01*
X24034278Y62421205D01*
X24020442Y62383044D01*
X24009088Y62347560D01*
X24000031Y62313713D01*
X23993085Y62280462D01*
X23988063Y62246766D01*
X23984780Y62211584D01*
X23983049Y62173877D01*
X23982685Y62132603D01*
X23460917Y62132603D01*
X23461227Y62178891D01*
X23464198Y62252744D01*
X23469156Y62326344D01*
X23476353Y62399598D01*
X23486043Y62472415D01*
X23498479Y62544701D01*
X23513912Y62616365D01*
X23532598Y62687314D01*
X23554787Y62757455D01*
X23558577Y62768278D01*
X23570531Y62801183D01*
X23583409Y62833920D01*
X23597285Y62866350D01*
X23612233Y62898336D01*
X23620132Y62914118D01*
X23628327Y62929738D01*
X23636827Y62945176D01*
X23645641Y62960417D01*
X23654779Y62975443D01*
X23664249Y62990237D01*
X23674061Y63004780D01*
X23684225Y63019057D01*
X23689546Y63026247D01*
X23699399Y63039632D01*
X23709311Y63052972D01*
X23716087Y63061965D01*
X23721538Y63069100D01*
X23727062Y63076097D01*
X23732679Y63082963D01*
X23738407Y63089707D01*
X23744267Y63096336D01*
X23750277Y63102859D01*
X23756458Y63109283D01*
X23762829Y63115615D01*
X23768921Y63121496D01*
X23778099Y63130923D01*
X23827471Y63175632D01*
X23878345Y63215045D01*
X23930643Y63249494D01*
X23984289Y63279307D01*
X24039208Y63304815D01*
X24095323Y63326347D01*
X24152557Y63344233D01*
X24210835Y63358803D01*
X24270081Y63370386D01*
X24330218Y63379314D01*
X24391169Y63385915D01*
X24452860Y63390519D01*
X24515213Y63393456D01*
X24578152Y63395057D01*
X24705486Y63395566D01*
X24800075Y63395181D01*
G37*
G36*
X28356796Y58001809D02*
G01*
X27658296Y58001809D01*
X27658296Y58489965D01*
X28356796Y58489965D01*
X28356796Y58001809D01*
G37*
G36*
X26356546Y54862528D02*
G01*
X25904109Y54862528D01*
X25904109Y55612622D01*
X26356546Y55612622D01*
X26356546Y54862528D01*
G37*
G36*
X25233390Y54862528D02*
G01*
X24765077Y54862528D01*
X24765077Y55608653D01*
X25233390Y55608653D01*
X25233390Y54862528D01*
G37*
G36*
X22440929Y59796161D02*
G01*
X22447491Y59796144D01*
X22454053Y59796070D01*
X22460614Y59795922D01*
X22467171Y59795684D01*
X22468482Y59794359D01*
X22469014Y59793793D01*
X22469473Y59793269D01*
X22469865Y59792769D01*
X22470197Y59792276D01*
X22470474Y59791774D01*
X22470705Y59791244D01*
X22470894Y59790670D01*
X22471050Y59790035D01*
X22471177Y59789321D01*
X22471284Y59788512D01*
X22471376Y59787590D01*
X22471459Y59786538D01*
X22471628Y59783975D01*
X22471617Y59773610D01*
X22471633Y59761778D01*
X22471590Y59748640D01*
X22471559Y59704855D01*
X22471519Y59675874D01*
X22471497Y59632647D01*
X22471388Y59559296D01*
X22471140Y59327372D01*
X21788515Y59327372D01*
X21788515Y59795684D01*
X22018639Y59795873D01*
X22164624Y59795970D01*
X22272697Y59796055D01*
X22329728Y59796087D01*
X22384362Y59796137D01*
X22404422Y59796135D01*
X22432521Y59796171D01*
X22440929Y59796161D01*
G37*
G36*
X28356796Y56680216D02*
G01*
X27658296Y56680216D01*
X27658296Y57148528D01*
X28356796Y57148528D01*
X28356796Y56680216D01*
G37*
G36*
X22471140Y58001809D02*
G01*
X21788515Y58001809D01*
X21788515Y58489965D01*
X22471140Y58489965D01*
X22471140Y58001809D01*
G37*
G36*
X24074515Y54878403D02*
G01*
X23622077Y54878403D01*
X23622077Y55612622D01*
X24074515Y55612622D01*
X24074515Y54878403D01*
G37*
D11*
G36*
X22740515Y25564426D02*
G01*
X22770922Y25534019D01*
X22805180Y25465503D01*
X22805180Y25177256D01*
X22431371Y25177256D01*
X22431371Y25465503D01*
X22465629Y25534019D01*
X22496036Y25564426D01*
X22564552Y25598684D01*
X22671999Y25598684D01*
X22740515Y25564426D01*
G37*
G36*
X22663528Y30460063D02*
G01*
X22740515Y30421569D01*
X22770922Y30391162D01*
X22805180Y30322646D01*
X22805180Y30262818D01*
X22770922Y30194302D01*
X22740515Y30163895D01*
X22663528Y30125402D01*
X22489994Y30082018D01*
X22270367Y30082018D01*
X22096833Y30125402D01*
X22019846Y30163895D01*
X21989438Y30194303D01*
X21955180Y30262820D01*
X21955180Y30322645D01*
X21989438Y30391162D01*
X22019846Y30421569D01*
X22096833Y30460063D01*
X22270367Y30503446D01*
X22489994Y30503446D01*
X22663528Y30460063D01*
G37*
G36*
X22663528Y31888634D02*
G01*
X22740515Y31850140D01*
X22770922Y31819733D01*
X22805180Y31751217D01*
X22805180Y31691389D01*
X22770922Y31622873D01*
X22740515Y31592466D01*
X22663528Y31553973D01*
X22489994Y31510589D01*
X22270367Y31510589D01*
X22096833Y31553973D01*
X22019846Y31592466D01*
X21989438Y31622874D01*
X21955180Y31691391D01*
X21955180Y31751216D01*
X21989438Y31819733D01*
X22019846Y31850140D01*
X22096833Y31888634D01*
X22270367Y31932017D01*
X22489994Y31932017D01*
X22663528Y31888634D01*
G37*
G36*
X23066291Y22725669D02*
G01*
X21694069Y22725669D01*
X21694069Y23497840D01*
X21806621Y23497840D01*
X21806621Y23468576D01*
X21817820Y23441540D01*
X21838512Y23420848D01*
X21865548Y23409649D01*
X21880180Y23408208D01*
X22328990Y23408208D01*
X22328990Y22986780D01*
X21880180Y22986780D01*
X21865548Y22985339D01*
X21838512Y22974140D01*
X21817820Y22953448D01*
X21806621Y22926412D01*
X21806621Y22897148D01*
X21817820Y22870112D01*
X21838512Y22849420D01*
X21865548Y22838221D01*
X21880180Y22836780D01*
X22880180Y22836780D01*
X22894812Y22838221D01*
X22921848Y22849420D01*
X22942540Y22870112D01*
X22953739Y22897148D01*
X22953739Y22926412D01*
X22942540Y22953448D01*
X22921848Y22974140D01*
X22894812Y22985339D01*
X22880180Y22986780D01*
X22478990Y22986780D01*
X22478990Y23408208D01*
X22880180Y23408208D01*
X22894812Y23409649D01*
X22921848Y23420848D01*
X22942540Y23441540D01*
X22953739Y23468576D01*
X22953739Y23497840D01*
X22942540Y23524876D01*
X22921848Y23545568D01*
X22894812Y23556767D01*
X22880180Y23558208D01*
X21880180Y23558208D01*
X21865548Y23556767D01*
X21838512Y23545568D01*
X21817820Y23524876D01*
X21806621Y23497840D01*
X21694069Y23497840D01*
X21694069Y24480404D01*
X21805232Y24480404D01*
X21807755Y24469806D01*
X21809189Y24459015D01*
X21811117Y24455684D01*
X21812010Y24451936D01*
X21818396Y24443112D01*
X21823851Y24433690D01*
X21826908Y24431350D01*
X21829167Y24428229D01*
X21838442Y24422522D01*
X21847089Y24415903D01*
X21852488Y24413878D01*
X21854089Y24412893D01*
X21855880Y24412606D01*
X21860855Y24410740D01*
X22303386Y24292732D01*
X21860855Y24174724D01*
X21855880Y24172859D01*
X21854089Y24172571D01*
X21852488Y24171587D01*
X21847089Y24169561D01*
X21838442Y24162943D01*
X21829167Y24157235D01*
X21826908Y24154115D01*
X21823851Y24151774D01*
X21818396Y24142353D01*
X21812010Y24133528D01*
X21811117Y24129781D01*
X21809189Y24126449D01*
X21807755Y24115659D01*
X21805232Y24105060D01*
X21805841Y24101257D01*
X21805335Y24097441D01*
X21808140Y24086920D01*
X21809865Y24076165D01*
X21811882Y24072886D01*
X21812875Y24069165D01*
X21819493Y24060519D01*
X21825201Y24051243D01*
X21828321Y24048985D01*
X21830662Y24045927D01*
X21840083Y24040473D01*
X21848908Y24034086D01*
X21854358Y24032208D01*
X21855987Y24031265D01*
X21857788Y24031026D01*
X21862808Y24029296D01*
X22862809Y23791201D01*
X22877376Y23789213D01*
X22906271Y23793846D01*
X22931193Y23809182D01*
X22948350Y23832889D01*
X22955128Y23861357D01*
X22950495Y23890252D01*
X22935159Y23915174D01*
X22911452Y23932331D01*
X22897552Y23937121D01*
X22186696Y24106373D01*
X22613791Y24220264D01*
X22617218Y24221550D01*
X22618660Y24221741D01*
X22620371Y24222732D01*
X22627558Y24225427D01*
X22635417Y24231444D01*
X22643984Y24236403D01*
X22646937Y24240261D01*
X22650795Y24243214D01*
X22655753Y24251779D01*
X22661772Y24259641D01*
X22663024Y24264338D01*
X22665457Y24268539D01*
X22666760Y24278348D01*
X22669312Y24287916D01*
X22668672Y24292732D01*
X22669312Y24297548D01*
X22666760Y24307117D01*
X22665457Y24316925D01*
X22663024Y24321127D01*
X22661772Y24325823D01*
X22655753Y24333686D01*
X22650795Y24342250D01*
X22646937Y24345204D01*
X22643984Y24349061D01*
X22635417Y24354021D01*
X22627558Y24360037D01*
X22620371Y24362733D01*
X22618660Y24363723D01*
X22617218Y24363915D01*
X22613791Y24365200D01*
X22186696Y24479092D01*
X22897552Y24648343D01*
X22911452Y24653133D01*
X22935159Y24670290D01*
X22950495Y24695212D01*
X22955128Y24724107D01*
X22948350Y24752575D01*
X22931193Y24776282D01*
X22906271Y24791618D01*
X22877376Y24796251D01*
X22862809Y24794263D01*
X21862808Y24556168D01*
X21857788Y24554439D01*
X21855987Y24554199D01*
X21854358Y24553257D01*
X21848908Y24551378D01*
X21840083Y24544992D01*
X21830662Y24539537D01*
X21828321Y24536480D01*
X21825201Y24534221D01*
X21819493Y24524946D01*
X21812875Y24516299D01*
X21811882Y24512579D01*
X21809865Y24509299D01*
X21808140Y24498545D01*
X21805335Y24488023D01*
X21805841Y24484208D01*
X21805232Y24480404D01*
X21694069Y24480404D01*
X21694069Y25675309D01*
X21805198Y25675309D01*
X21810283Y25646492D01*
X21826010Y25621813D01*
X21837170Y25612242D01*
X22281371Y25301302D01*
X22281371Y25177256D01*
X21880180Y25177256D01*
X21865548Y25175815D01*
X21838512Y25164616D01*
X21817820Y25143924D01*
X21806621Y25116888D01*
X21806621Y25087624D01*
X21817820Y25060588D01*
X21838512Y25039896D01*
X21865548Y25028697D01*
X21880180Y25027256D01*
X22880180Y25027256D01*
X22894812Y25028697D01*
X22921848Y25039896D01*
X22942540Y25060588D01*
X22953739Y25087624D01*
X22955180Y25102256D01*
X22955180Y25483208D01*
X22953739Y25497840D01*
X22952708Y25500329D01*
X22952517Y25503018D01*
X22947262Y25516749D01*
X22899643Y25611987D01*
X22895678Y25618287D01*
X22894921Y25620114D01*
X22893232Y25622171D01*
X22891811Y25624430D01*
X22890312Y25625730D01*
X22885594Y25631479D01*
X22837975Y25679098D01*
X22832225Y25683817D01*
X22830926Y25685315D01*
X22828666Y25686737D01*
X22826610Y25688425D01*
X22824782Y25689183D01*
X22818483Y25693147D01*
X22723245Y25740766D01*
X22709513Y25746021D01*
X22706825Y25746212D01*
X22704336Y25747243D01*
X22689704Y25748684D01*
X22546847Y25748684D01*
X22532215Y25747243D01*
X22529726Y25746213D01*
X22527037Y25746021D01*
X22513306Y25740766D01*
X22418068Y25693147D01*
X22411768Y25689183D01*
X22409941Y25688425D01*
X22407884Y25686737D01*
X22405625Y25685315D01*
X22404325Y25683817D01*
X22398576Y25679098D01*
X22350957Y25631479D01*
X22346238Y25625730D01*
X22344740Y25624430D01*
X22343318Y25622171D01*
X22341630Y25620114D01*
X22340872Y25618287D01*
X22336908Y25611987D01*
X22289289Y25516749D01*
X22284034Y25503017D01*
X22283843Y25500330D01*
X22282812Y25497840D01*
X22281480Y25484323D01*
X21923190Y25735126D01*
X21910376Y25742337D01*
X21881805Y25748666D01*
X21852988Y25743581D01*
X21828309Y25727854D01*
X21811527Y25703880D01*
X21805198Y25675309D01*
X21694069Y25675309D01*
X21694069Y26578446D01*
X21805180Y26578446D01*
X21805180Y26102256D01*
X21806621Y26087624D01*
X21817820Y26060588D01*
X21838512Y26039896D01*
X21865548Y26028697D01*
X21880180Y26027256D01*
X22880180Y26027256D01*
X22894812Y26028697D01*
X22921848Y26039896D01*
X22942540Y26060588D01*
X22953739Y26087624D01*
X22955180Y26102256D01*
X22955180Y26578446D01*
X22953739Y26593078D01*
X22942540Y26620114D01*
X22921848Y26640806D01*
X22894812Y26652005D01*
X22865548Y26652005D01*
X22838512Y26640806D01*
X22817820Y26620114D01*
X22806621Y26593078D01*
X22805180Y26578446D01*
X22805180Y26177256D01*
X22478990Y26177256D01*
X22478990Y26435589D01*
X22477549Y26450221D01*
X22466350Y26477257D01*
X22445658Y26497949D01*
X22418622Y26509148D01*
X22389358Y26509148D01*
X22362322Y26497949D01*
X22341630Y26477257D01*
X22330431Y26450221D01*
X22328990Y26435589D01*
X22328990Y26177256D01*
X21955180Y26177256D01*
X21955180Y26578446D01*
X21953739Y26593078D01*
X21942540Y26620114D01*
X21921848Y26640806D01*
X21894812Y26652005D01*
X21865548Y26652005D01*
X21838512Y26640806D01*
X21817820Y26620114D01*
X21806621Y26593078D01*
X21805180Y26578446D01*
X21694069Y26578446D01*
X21694069Y27206874D01*
X21805769Y27206874D01*
X21806435Y27197494D01*
X21805769Y27188114D01*
X21807464Y27183029D01*
X21807844Y27177684D01*
X21812048Y27169275D01*
X21815023Y27160351D01*
X21818534Y27156303D01*
X21820930Y27151511D01*
X21828034Y27145349D01*
X21834197Y27138244D01*
X21838988Y27135849D01*
X21843037Y27132337D01*
X21856463Y27126343D01*
X22856463Y26793010D01*
X22870799Y26789750D01*
X22899989Y26791825D01*
X22926163Y26804911D01*
X22945337Y26827019D01*
X22954591Y26854781D01*
X22952516Y26883971D01*
X22939429Y26910144D01*
X22917322Y26929318D01*
X22903897Y26935312D01*
X22117350Y27197494D01*
X22903897Y27459676D01*
X22917322Y27465670D01*
X22939429Y27484844D01*
X22952516Y27511017D01*
X22954591Y27540207D01*
X22945337Y27567969D01*
X22926163Y27590077D01*
X22899989Y27603163D01*
X22870799Y27605238D01*
X22856463Y27601978D01*
X21856463Y27268645D01*
X21843037Y27262651D01*
X21838988Y27259140D01*
X21834197Y27256744D01*
X21828034Y27249640D01*
X21820930Y27243477D01*
X21818534Y27238686D01*
X21815023Y27234637D01*
X21812048Y27225714D01*
X21807844Y27217304D01*
X21807464Y27211960D01*
X21805769Y27206874D01*
X21694069Y27206874D01*
X21694069Y29149875D01*
X21805180Y29149875D01*
X21805180Y28578447D01*
X21806621Y28563815D01*
X21817820Y28536779D01*
X21838512Y28516087D01*
X21865548Y28504888D01*
X21894812Y28504888D01*
X21921848Y28516087D01*
X21942540Y28536779D01*
X21953739Y28563815D01*
X21955180Y28578447D01*
X21955180Y28789161D01*
X22651495Y28789161D01*
X22589052Y28726718D01*
X22584333Y28720969D01*
X22582835Y28719669D01*
X22581413Y28717410D01*
X22579725Y28715353D01*
X22578967Y28713526D01*
X22575003Y28707226D01*
X22527384Y28611988D01*
X22522129Y28598256D01*
X22520055Y28569066D01*
X22529309Y28541305D01*
X22548482Y28519197D01*
X22574657Y28506110D01*
X22603847Y28504036D01*
X22631608Y28513290D01*
X22653716Y28532463D01*
X22661548Y28544906D01*
X22703724Y28629258D01*
X22785103Y28710637D01*
X22921783Y28801757D01*
X22921825Y28801792D01*
X22921848Y28801801D01*
X22921899Y28801853D01*
X22933158Y28811073D01*
X22937289Y28817243D01*
X22942540Y28822493D01*
X22945352Y28829283D01*
X22949441Y28835388D01*
X22950897Y28842669D01*
X22953739Y28849529D01*
X22953739Y28856878D01*
X22955180Y28864082D01*
X22953739Y28871367D01*
X22953739Y28878793D01*
X22950926Y28885582D01*
X22949501Y28892790D01*
X22945381Y28898970D01*
X22942540Y28905829D01*
X22937346Y28911023D01*
X22933269Y28917139D01*
X22927096Y28921273D01*
X22921848Y28926521D01*
X22915060Y28929333D01*
X22908954Y28933422D01*
X22901672Y28934879D01*
X22894812Y28937720D01*
X22880335Y28939146D01*
X22880259Y28939161D01*
X22880232Y28939156D01*
X22880180Y28939161D01*
X21955180Y28939161D01*
X21955180Y29149875D01*
X21953739Y29164507D01*
X21942540Y29191543D01*
X21921848Y29212235D01*
X21894812Y29223434D01*
X21865548Y29223434D01*
X21838512Y29212235D01*
X21817820Y29191543D01*
X21806621Y29164507D01*
X21805180Y29149875D01*
X21694069Y29149875D01*
X21694069Y29593079D01*
X21806621Y29593079D01*
X21806621Y29563816D01*
X21817819Y29536780D01*
X21817820Y29536779D01*
X21827148Y29525413D01*
X21874767Y29477795D01*
X21886133Y29468467D01*
X21913169Y29457269D01*
X21942431Y29457269D01*
X21942432Y29457269D01*
X21969468Y29468468D01*
X21980833Y29477795D01*
X22028452Y29525414D01*
X22037779Y29536779D01*
X22048978Y29563815D01*
X22048978Y29593078D01*
X22041375Y29611434D01*
X22037779Y29620115D01*
X22028452Y29631480D01*
X21980833Y29679099D01*
X21969468Y29688426D01*
X21969466Y29688427D01*
X21942432Y29699625D01*
X21913169Y29699625D01*
X21886133Y29688427D01*
X21874767Y29679099D01*
X21827148Y29631481D01*
X21817820Y29620115D01*
X21817819Y29620114D01*
X21814224Y29611434D01*
X21806621Y29593079D01*
X21694069Y29593079D01*
X21694069Y30340351D01*
X21805180Y30340351D01*
X21805180Y30245113D01*
X21806621Y30230481D01*
X21807651Y30227993D01*
X21807843Y30225303D01*
X21813098Y30211571D01*
X21860718Y30116333D01*
X21864683Y30110035D01*
X21865440Y30108207D01*
X21867128Y30106150D01*
X21868551Y30103890D01*
X21870049Y30102591D01*
X21874767Y30096842D01*
X21922386Y30049223D01*
X21928135Y30044505D01*
X21929435Y30043006D01*
X21931694Y30041585D01*
X21933751Y30039896D01*
X21935578Y30039139D01*
X21941878Y30035174D01*
X22037116Y29987555D01*
X22038185Y29987146D01*
X22038621Y29986823D01*
X22044757Y29984631D01*
X22050847Y29982300D01*
X22051387Y29982262D01*
X22052467Y29981876D01*
X22242943Y29934257D01*
X22245479Y29933882D01*
X22246501Y29933459D01*
X22252013Y29932917D01*
X22257487Y29932107D01*
X22258579Y29932270D01*
X22261133Y29932018D01*
X22499228Y29932018D01*
X22501781Y29932270D01*
X22502874Y29932107D01*
X22508347Y29932917D01*
X22513860Y29933459D01*
X22514881Y29933882D01*
X22517418Y29934257D01*
X22707894Y29981876D01*
X22708973Y29982262D01*
X22709513Y29982300D01*
X22715594Y29984628D01*
X22721740Y29986823D01*
X22722175Y29987146D01*
X22723245Y29987555D01*
X22818483Y30035174D01*
X22824782Y30039139D01*
X22826610Y30039896D01*
X22828666Y30041585D01*
X22830926Y30043006D01*
X22832225Y30044505D01*
X22837975Y30049223D01*
X22885594Y30096842D01*
X22890312Y30102592D01*
X22891811Y30103891D01*
X22893232Y30106151D01*
X22894921Y30108207D01*
X22895678Y30110035D01*
X22899643Y30116334D01*
X22947262Y30211572D01*
X22952517Y30225303D01*
X22952708Y30227993D01*
X22953739Y30230481D01*
X22955180Y30245113D01*
X22955180Y30340351D01*
X22953739Y30354983D01*
X22952708Y30357472D01*
X22952517Y30360161D01*
X22947262Y30373892D01*
X22899643Y30469130D01*
X22895678Y30475430D01*
X22894921Y30477257D01*
X22893232Y30479314D01*
X22891811Y30481573D01*
X22890312Y30482873D01*
X22885594Y30488622D01*
X22837975Y30536241D01*
X22832225Y30540960D01*
X22830926Y30542458D01*
X22828666Y30543880D01*
X22826610Y30545568D01*
X22824782Y30546326D01*
X22818483Y30550290D01*
X22723245Y30597909D01*
X22722175Y30598319D01*
X22721740Y30598641D01*
X22715594Y30600837D01*
X22709513Y30603164D01*
X22708973Y30603203D01*
X22707894Y30603588D01*
X22517418Y30651207D01*
X22514881Y30651583D01*
X22513860Y30652005D01*
X22508347Y30652548D01*
X22502874Y30653357D01*
X22501781Y30653195D01*
X22499228Y30653446D01*
X22261133Y30653446D01*
X22258579Y30653195D01*
X22257487Y30653357D01*
X22252013Y30652548D01*
X22246501Y30652005D01*
X22245479Y30651583D01*
X22242943Y30651207D01*
X22052467Y30603588D01*
X22051387Y30603203D01*
X22050847Y30603164D01*
X22044757Y30600834D01*
X22038621Y30598641D01*
X22038185Y30598319D01*
X22037116Y30597909D01*
X21941878Y30550290D01*
X21935578Y30546326D01*
X21933751Y30545568D01*
X21931694Y30543880D01*
X21929435Y30542458D01*
X21928135Y30540960D01*
X21922386Y30536241D01*
X21874767Y30488622D01*
X21870049Y30482874D01*
X21868551Y30481574D01*
X21867128Y30479315D01*
X21865440Y30477257D01*
X21864683Y30475430D01*
X21860718Y30469131D01*
X21813098Y30373893D01*
X21807843Y30360161D01*
X21807651Y30357472D01*
X21806621Y30354983D01*
X21805180Y30340351D01*
X21694069Y30340351D01*
X21694069Y31021650D01*
X21806621Y31021650D01*
X21806621Y30992387D01*
X21817819Y30965351D01*
X21817820Y30965350D01*
X21827148Y30953984D01*
X21874767Y30906366D01*
X21886133Y30897038D01*
X21913169Y30885840D01*
X21942431Y30885840D01*
X21942432Y30885840D01*
X21969468Y30897039D01*
X21980833Y30906366D01*
X22028452Y30953985D01*
X22037779Y30965350D01*
X22048978Y30992386D01*
X22048978Y31021649D01*
X22041375Y31040005D01*
X22037779Y31048686D01*
X22028452Y31060051D01*
X21980833Y31107670D01*
X21969468Y31116997D01*
X21969466Y31116998D01*
X21942432Y31128196D01*
X21913169Y31128196D01*
X21886133Y31116998D01*
X21874767Y31107670D01*
X21827148Y31060052D01*
X21817820Y31048686D01*
X21817819Y31048685D01*
X21814224Y31040005D01*
X21806621Y31021650D01*
X21694069Y31021650D01*
X21694069Y31768922D01*
X21805180Y31768922D01*
X21805180Y31673684D01*
X21806621Y31659052D01*
X21807651Y31656564D01*
X21807843Y31653874D01*
X21813098Y31640142D01*
X21860718Y31544904D01*
X21864683Y31538606D01*
X21865440Y31536778D01*
X21867128Y31534721D01*
X21868551Y31532461D01*
X21870049Y31531162D01*
X21874767Y31525413D01*
X21922386Y31477794D01*
X21928135Y31473076D01*
X21929435Y31471577D01*
X21931694Y31470156D01*
X21933751Y31468467D01*
X21935578Y31467710D01*
X21941878Y31463745D01*
X22037116Y31416126D01*
X22038185Y31415717D01*
X22038621Y31415394D01*
X22044757Y31413202D01*
X22050847Y31410871D01*
X22051387Y31410833D01*
X22052467Y31410447D01*
X22242943Y31362828D01*
X22245479Y31362453D01*
X22246501Y31362030D01*
X22252013Y31361488D01*
X22257487Y31360678D01*
X22258579Y31360841D01*
X22261133Y31360589D01*
X22499228Y31360589D01*
X22501781Y31360841D01*
X22502874Y31360678D01*
X22508347Y31361488D01*
X22513860Y31362030D01*
X22514881Y31362453D01*
X22517418Y31362828D01*
X22707894Y31410447D01*
X22708973Y31410833D01*
X22709513Y31410871D01*
X22715594Y31413199D01*
X22721740Y31415394D01*
X22722175Y31415717D01*
X22723245Y31416126D01*
X22818483Y31463745D01*
X22824782Y31467710D01*
X22826610Y31468467D01*
X22828666Y31470156D01*
X22830926Y31471577D01*
X22832225Y31473076D01*
X22837975Y31477794D01*
X22885594Y31525413D01*
X22890312Y31531163D01*
X22891811Y31532462D01*
X22893232Y31534722D01*
X22894921Y31536778D01*
X22895678Y31538606D01*
X22899643Y31544905D01*
X22947262Y31640143D01*
X22952517Y31653874D01*
X22952708Y31656564D01*
X22953739Y31659052D01*
X22955180Y31673684D01*
X22955180Y31768922D01*
X22953739Y31783554D01*
X22952708Y31786043D01*
X22952517Y31788732D01*
X22947262Y31802463D01*
X22899643Y31897701D01*
X22895678Y31904001D01*
X22894921Y31905828D01*
X22893232Y31907885D01*
X22891811Y31910144D01*
X22890312Y31911444D01*
X22885594Y31917193D01*
X22837975Y31964812D01*
X22832225Y31969531D01*
X22830926Y31971029D01*
X22828666Y31972451D01*
X22826610Y31974139D01*
X22824782Y31974897D01*
X22818483Y31978861D01*
X22723245Y32026480D01*
X22722175Y32026890D01*
X22721740Y32027212D01*
X22715594Y32029408D01*
X22709513Y32031735D01*
X22708973Y32031774D01*
X22707894Y32032159D01*
X22517418Y32079778D01*
X22514881Y32080154D01*
X22513860Y32080576D01*
X22508347Y32081119D01*
X22502874Y32081928D01*
X22501781Y32081766D01*
X22499228Y32082017D01*
X22261133Y32082017D01*
X22258579Y32081766D01*
X22257487Y32081928D01*
X22252013Y32081119D01*
X22246501Y32080576D01*
X22245479Y32080154D01*
X22242943Y32079778D01*
X22052467Y32032159D01*
X22051387Y32031774D01*
X22050847Y32031735D01*
X22044757Y32029405D01*
X22038621Y32027212D01*
X22038185Y32026890D01*
X22037116Y32026480D01*
X21941878Y31978861D01*
X21935578Y31974897D01*
X21933751Y31974139D01*
X21931694Y31972451D01*
X21929435Y31971029D01*
X21928135Y31969531D01*
X21922386Y31964812D01*
X21874767Y31917193D01*
X21870049Y31911445D01*
X21868551Y31910145D01*
X21867128Y31907886D01*
X21865440Y31905828D01*
X21864683Y31904001D01*
X21860718Y31897702D01*
X21813098Y31802464D01*
X21807843Y31788732D01*
X21807651Y31786043D01*
X21806621Y31783554D01*
X21805180Y31768922D01*
X21694069Y31768922D01*
X21694069Y32193128D01*
X23066291Y32193128D01*
X23066291Y22725669D01*
G37*
D12*
G36*
X24729233Y24047596D02*
G01*
X24768134Y24008695D01*
X24838180Y23798558D01*
X24838180Y23364348D01*
X24190561Y23364348D01*
X24190561Y23879040D01*
X24250171Y23998259D01*
X24299509Y24047596D01*
X24418727Y24107205D01*
X24610015Y24107205D01*
X24729233Y24047596D01*
G37*
G36*
X25681614Y23952358D02*
G01*
X25730952Y23903020D01*
X25790561Y23783802D01*
X25790561Y23364348D01*
X25238180Y23364348D01*
X25238180Y23783802D01*
X25297790Y23903021D01*
X25347128Y23952358D01*
X25466346Y24011967D01*
X25562396Y24011967D01*
X25681614Y23952358D01*
G37*
G36*
X25358104Y27164348D02*
G01*
X24761990Y26965644D01*
X24761990Y27363053D01*
X25358104Y27164348D01*
G37*
G36*
X25444564Y29356598D02*
G01*
X25586376Y29285692D01*
X25720516Y29151551D01*
X25790561Y28941417D01*
X25790561Y28697682D01*
X24190561Y28697682D01*
X24190561Y28941416D01*
X24260605Y29151551D01*
X24394748Y29285693D01*
X24536555Y29356596D01*
X24872327Y29440539D01*
X25108796Y29440539D01*
X25444564Y29356598D01*
G37*
G36*
X25602597Y35269471D02*
G01*
X25730952Y35141115D01*
X25790561Y35021898D01*
X25790561Y34735371D01*
X25730952Y34616155D01*
X25602597Y34487799D01*
X25299272Y34411968D01*
X24681851Y34411968D01*
X24378525Y34487800D01*
X24250171Y34616153D01*
X24190561Y34735372D01*
X24190561Y35021898D01*
X24250171Y35141117D01*
X24378525Y35269470D01*
X24681851Y35345301D01*
X25299272Y35345301D01*
X25602597Y35269471D01*
G37*
G36*
X25681614Y37285692D02*
G01*
X25730952Y37236354D01*
X25790561Y37117136D01*
X25790561Y36602444D01*
X25142942Y36602444D01*
X25142942Y37117136D01*
X25202550Y37236353D01*
X25251891Y37285693D01*
X25371108Y37345301D01*
X25562396Y37345301D01*
X25681614Y37285692D01*
G37*
G36*
X26506452Y22742126D02*
G01*
X23568339Y22742126D01*
X23568339Y23926253D01*
X23790561Y23926253D01*
X23790561Y23164348D01*
X23794404Y23125330D01*
X23824267Y23053234D01*
X23879447Y22998054D01*
X23951543Y22968191D01*
X23990561Y22964348D01*
X25990561Y22964348D01*
X26029579Y22968191D01*
X26101675Y22998054D01*
X26156855Y23053234D01*
X26186718Y23125330D01*
X26190561Y23164348D01*
X26190561Y23831015D01*
X26186718Y23870033D01*
X26183968Y23876671D01*
X26183459Y23883840D01*
X26169447Y23920457D01*
X26074208Y24110934D01*
X26063638Y24127726D01*
X26061617Y24132605D01*
X26057109Y24138098D01*
X26053322Y24144114D01*
X26049330Y24147576D01*
X26036744Y24162912D01*
X25941506Y24258150D01*
X25926170Y24270737D01*
X25922708Y24274728D01*
X25916691Y24278516D01*
X25911199Y24283023D01*
X25906319Y24285045D01*
X25889528Y24295614D01*
X25699052Y24390852D01*
X25662434Y24404865D01*
X25655264Y24405375D01*
X25648627Y24408124D01*
X25609609Y24411967D01*
X25419133Y24411967D01*
X25380115Y24408124D01*
X25373477Y24405375D01*
X25366308Y24404865D01*
X25329691Y24390853D01*
X25139214Y24295614D01*
X25122422Y24285045D01*
X25117543Y24283023D01*
X25112050Y24278516D01*
X25106034Y24274728D01*
X25102572Y24270737D01*
X25087236Y24258150D01*
X25085658Y24256573D01*
X25084363Y24258150D01*
X24989125Y24353388D01*
X24973789Y24365975D01*
X24970327Y24369966D01*
X24964310Y24373754D01*
X24958818Y24378261D01*
X24953938Y24380283D01*
X24937147Y24390852D01*
X24746671Y24486090D01*
X24710053Y24500103D01*
X24702883Y24500613D01*
X24696246Y24503362D01*
X24657228Y24507205D01*
X24371514Y24507205D01*
X24332496Y24503362D01*
X24325858Y24500613D01*
X24318689Y24500103D01*
X24282072Y24486091D01*
X24091595Y24390852D01*
X24074803Y24380283D01*
X24069924Y24378261D01*
X24064431Y24373754D01*
X24058415Y24369966D01*
X24054953Y24365975D01*
X24039617Y24353388D01*
X23944379Y24258150D01*
X23931790Y24242812D01*
X23927802Y24239352D01*
X23924017Y24233341D01*
X23919506Y24227843D01*
X23917483Y24222962D01*
X23906915Y24206172D01*
X23811676Y24015696D01*
X23797664Y23979079D01*
X23797154Y23971912D01*
X23794404Y23965271D01*
X23790561Y23926253D01*
X23568339Y23926253D01*
X23568339Y26116729D01*
X23790561Y26116729D01*
X23790561Y25164348D01*
X23794404Y25125330D01*
X23824267Y25053234D01*
X23879447Y24998054D01*
X23951543Y24968191D01*
X23990561Y24964348D01*
X25990561Y24964348D01*
X26029579Y24968191D01*
X26101675Y24998054D01*
X26156855Y25053234D01*
X26186718Y25125330D01*
X26186718Y25203366D01*
X26156855Y25275462D01*
X26101675Y25330642D01*
X26029579Y25360505D01*
X25990561Y25364348D01*
X24190561Y25364348D01*
X24190561Y26116729D01*
X24186718Y26155747D01*
X24156855Y26227843D01*
X24101675Y26283023D01*
X24045865Y26306140D01*
X24053806Y26307945D01*
X26053807Y26974611D01*
X26089607Y26990596D01*
X26100401Y26999958D01*
X26113184Y27006349D01*
X26129614Y27025295D01*
X26148560Y27041725D01*
X26154951Y27054508D01*
X26164313Y27065302D01*
X26172242Y27089089D01*
X26183459Y27111523D01*
X26184472Y27125780D01*
X26188990Y27139333D01*
X26187212Y27164341D01*
X26188991Y27189363D01*
X26184470Y27202924D01*
X26183458Y27217173D01*
X26172244Y27239601D01*
X26164313Y27263394D01*
X26154951Y27274189D01*
X26148560Y27286971D01*
X26129614Y27303402D01*
X26113184Y27322347D01*
X26100401Y27328739D01*
X26089607Y27338100D01*
X26053806Y27354085D01*
X24053807Y28020752D01*
X24015576Y28029444D01*
X23937736Y28023913D01*
X23867938Y27989014D01*
X23816809Y27930061D01*
X23792132Y27856030D01*
X23797663Y27778190D01*
X23832562Y27708392D01*
X23891515Y27657263D01*
X23927315Y27641278D01*
X24361990Y27496387D01*
X24361990Y26832311D01*
X23927316Y26687419D01*
X23891515Y26671434D01*
X23832562Y26620305D01*
X23797663Y26550507D01*
X23792132Y26472667D01*
X23816809Y26398636D01*
X23867938Y26339683D01*
X23935129Y26306088D01*
X23879447Y26283023D01*
X23824267Y26227843D01*
X23794404Y26155747D01*
X23790561Y26116729D01*
X23568339Y26116729D01*
X23568339Y28973872D01*
X23790561Y28973872D01*
X23790561Y28497682D01*
X23794404Y28458664D01*
X23824267Y28386568D01*
X23879447Y28331388D01*
X23951543Y28301525D01*
X23990561Y28297682D01*
X25990561Y28297682D01*
X26029579Y28301525D01*
X26101675Y28331388D01*
X26156855Y28386568D01*
X26186718Y28458664D01*
X26190561Y28497682D01*
X26190561Y28973872D01*
X26188615Y28993621D01*
X26188990Y28998886D01*
X26187414Y29005814D01*
X26186718Y29012890D01*
X26184696Y29017771D01*
X26180298Y29037117D01*
X26085060Y29322832D01*
X26069075Y29358633D01*
X26064367Y29364062D01*
X26061617Y29370701D01*
X26036745Y29401008D01*
X25846268Y29591484D01*
X25830932Y29604071D01*
X25827470Y29608062D01*
X25821453Y29611850D01*
X25815961Y29616357D01*
X25811081Y29618379D01*
X25794290Y29628948D01*
X25603814Y29724186D01*
X25600958Y29725279D01*
X25599799Y29726138D01*
X25583424Y29731989D01*
X25567196Y29738199D01*
X25565757Y29738302D01*
X25562878Y29739330D01*
X25181926Y29834568D01*
X25175159Y29835569D01*
X25172437Y29836696D01*
X25157742Y29838144D01*
X25143141Y29840302D01*
X25140227Y29839869D01*
X25133419Y29840539D01*
X24847704Y29840539D01*
X24840895Y29839869D01*
X24837982Y29840302D01*
X24823388Y29838145D01*
X24808686Y29836696D01*
X24805960Y29835568D01*
X24799197Y29834567D01*
X24418245Y29739330D01*
X24415365Y29738302D01*
X24413927Y29738199D01*
X24397687Y29731985D01*
X24381324Y29726138D01*
X24380165Y29725280D01*
X24377310Y29724187D01*
X24186833Y29628948D01*
X24170041Y29618379D01*
X24165162Y29616357D01*
X24159668Y29611849D01*
X24153653Y29608062D01*
X24150192Y29604073D01*
X24134855Y29591485D01*
X23944379Y29401008D01*
X23919506Y29370701D01*
X23916755Y29364062D01*
X23912048Y29358633D01*
X23896063Y29322833D01*
X23800824Y29037118D01*
X23796424Y29017769D01*
X23794404Y29012890D01*
X23793707Y29005816D01*
X23792132Y28998887D01*
X23792506Y28993622D01*
X23790561Y28973872D01*
X23568339Y28973872D01*
X23568339Y31450063D01*
X23790561Y31450063D01*
X23790561Y30497682D01*
X23794404Y30458664D01*
X23824267Y30386568D01*
X23879447Y30331388D01*
X23951543Y30301525D01*
X23990561Y30297682D01*
X25990561Y30297682D01*
X26029579Y30301525D01*
X26101675Y30331388D01*
X26156855Y30386568D01*
X26186718Y30458664D01*
X26190561Y30497682D01*
X26190561Y31450063D01*
X26186718Y31489081D01*
X26156855Y31561177D01*
X26101675Y31616357D01*
X26029579Y31646220D01*
X25951543Y31646220D01*
X25879447Y31616357D01*
X25824267Y31561177D01*
X25794404Y31489081D01*
X25790561Y31450063D01*
X25790561Y30697682D01*
X25238180Y30697682D01*
X25238180Y31164349D01*
X25234337Y31203367D01*
X25204474Y31275463D01*
X25149294Y31330643D01*
X25077198Y31360506D01*
X24999162Y31360506D01*
X24927066Y31330643D01*
X24871886Y31275463D01*
X24842023Y31203367D01*
X24838180Y31164349D01*
X24838180Y30697682D01*
X24190561Y30697682D01*
X24190561Y31450063D01*
X24186718Y31489081D01*
X24156855Y31561177D01*
X24101675Y31616357D01*
X24029579Y31646220D01*
X23951543Y31646220D01*
X23879447Y31616357D01*
X23824267Y31561177D01*
X23794404Y31489081D01*
X23790561Y31450063D01*
X23568339Y31450063D01*
X23568339Y33069111D01*
X23790561Y33069111D01*
X23790561Y32878635D01*
X23792506Y32858886D01*
X23792132Y32853620D01*
X23793707Y32846692D01*
X23794404Y32839617D01*
X23796424Y32834739D01*
X23800824Y32815389D01*
X23896063Y32529674D01*
X23912048Y32493874D01*
X23916755Y32488446D01*
X23919506Y32481806D01*
X23944379Y32451499D01*
X24134855Y32261022D01*
X24150192Y32248435D01*
X24153653Y32244445D01*
X24159668Y32240659D01*
X24165162Y32236150D01*
X24170041Y32234129D01*
X24186833Y32223559D01*
X24377310Y32128320D01*
X24380165Y32127228D01*
X24381324Y32126369D01*
X24397687Y32120523D01*
X24413927Y32114308D01*
X24415365Y32114206D01*
X24418245Y32113177D01*
X24799197Y32017940D01*
X24805960Y32016940D01*
X24808686Y32015811D01*
X24823388Y32014363D01*
X24837982Y32012205D01*
X24840895Y32012639D01*
X24847704Y32011968D01*
X25133419Y32011968D01*
X25140227Y32012639D01*
X25143141Y32012205D01*
X25157742Y32014364D01*
X25172437Y32015811D01*
X25175159Y32016939D01*
X25181926Y32017939D01*
X25562878Y32113177D01*
X25565757Y32114206D01*
X25567196Y32114308D01*
X25583424Y32120519D01*
X25599799Y32126369D01*
X25600958Y32127229D01*
X25603814Y32128321D01*
X25794290Y32223559D01*
X25811081Y32234129D01*
X25815961Y32236150D01*
X25821453Y32240658D01*
X25827470Y32244445D01*
X25830932Y32248437D01*
X25846268Y32261023D01*
X26036745Y32451499D01*
X26061617Y32481806D01*
X26064367Y32488446D01*
X26069075Y32493874D01*
X26085060Y32529675D01*
X26180298Y32815390D01*
X26184696Y32834737D01*
X26186718Y32839617D01*
X26187414Y32846694D01*
X26188990Y32853621D01*
X26188615Y32858887D01*
X26190561Y32878635D01*
X26190561Y33069111D01*
X26188615Y33088861D01*
X26188990Y33094126D01*
X26187414Y33101055D01*
X26186718Y33108129D01*
X26184697Y33113008D01*
X26180298Y33132357D01*
X26085060Y33418071D01*
X26069075Y33453871D01*
X26064367Y33459300D01*
X26061617Y33465939D01*
X26036744Y33496246D01*
X25941506Y33591484D01*
X25911199Y33616357D01*
X25839103Y33646220D01*
X25761067Y33646220D01*
X25688971Y33616357D01*
X25633791Y33561177D01*
X25603928Y33489081D01*
X25603928Y33411045D01*
X25633791Y33338949D01*
X25658664Y33308642D01*
X25720515Y33246791D01*
X25790561Y33036654D01*
X25790561Y32911091D01*
X25720516Y32700957D01*
X25586376Y32566816D01*
X25444564Y32495910D01*
X25108796Y32411968D01*
X24872327Y32411968D01*
X24536555Y32495911D01*
X24394748Y32566815D01*
X24260605Y32700957D01*
X24190561Y32911092D01*
X24190561Y33036657D01*
X24260605Y33246789D01*
X24322459Y33308642D01*
X24347332Y33338949D01*
X24377195Y33411045D01*
X24377195Y33489081D01*
X24347332Y33561177D01*
X24292152Y33616357D01*
X24220056Y33646220D01*
X24142020Y33646220D01*
X24069924Y33616357D01*
X24039617Y33591484D01*
X23944379Y33496246D01*
X23919506Y33465939D01*
X23916755Y33459300D01*
X23912048Y33453871D01*
X23896063Y33418071D01*
X23800825Y33132357D01*
X23796425Y33113011D01*
X23794404Y33108129D01*
X23793707Y33101053D01*
X23792132Y33094126D01*
X23792506Y33088861D01*
X23790561Y33069111D01*
X23568339Y33069111D01*
X23568339Y35069111D01*
X23790561Y35069111D01*
X23790561Y34688158D01*
X23794404Y34649140D01*
X23797154Y34642500D01*
X23797664Y34635332D01*
X23811676Y34598715D01*
X23906915Y34408239D01*
X23917483Y34391450D01*
X23919506Y34386568D01*
X23924017Y34381071D01*
X23927802Y34375059D01*
X23931790Y34371600D01*
X23944379Y34356261D01*
X24134855Y34165784D01*
X24165162Y34140912D01*
X24178900Y34135222D01*
X24190848Y34126369D01*
X24227769Y34113177D01*
X24608721Y34017940D01*
X24615484Y34016940D01*
X24618210Y34015811D01*
X24632912Y34014363D01*
X24647506Y34012205D01*
X24650419Y34012639D01*
X24657228Y34011968D01*
X25323895Y34011968D01*
X25330703Y34012639D01*
X25333617Y34012205D01*
X25348218Y34014364D01*
X25362913Y34015811D01*
X25365635Y34016939D01*
X25372402Y34017939D01*
X25753354Y34113177D01*
X25790275Y34126369D01*
X25802222Y34135222D01*
X25815961Y34140912D01*
X25846268Y34165785D01*
X26036745Y34356261D01*
X26049332Y34371599D01*
X26053322Y34375059D01*
X26057108Y34381075D01*
X26061617Y34386568D01*
X26063638Y34391448D01*
X26074208Y34408239D01*
X26169447Y34598716D01*
X26183459Y34635333D01*
X26183968Y34642503D01*
X26186718Y34649140D01*
X26190561Y34688158D01*
X26190561Y35069111D01*
X26186718Y35108129D01*
X26183968Y35114767D01*
X26183459Y35121936D01*
X26169447Y35158553D01*
X26074208Y35349030D01*
X26063638Y35365822D01*
X26061617Y35370701D01*
X26057108Y35376195D01*
X26053322Y35382210D01*
X26049332Y35385671D01*
X26036745Y35401008D01*
X25846268Y35591484D01*
X25815961Y35616357D01*
X25802222Y35622048D01*
X25790275Y35630900D01*
X25753354Y35644092D01*
X25372402Y35739330D01*
X25365635Y35740331D01*
X25362913Y35741458D01*
X25348218Y35742906D01*
X25333617Y35745064D01*
X25330703Y35744631D01*
X25323895Y35745301D01*
X24657228Y35745301D01*
X24650419Y35744631D01*
X24647506Y35745064D01*
X24632912Y35742907D01*
X24618210Y35741458D01*
X24615484Y35740330D01*
X24608721Y35739329D01*
X24227769Y35644092D01*
X24190848Y35630900D01*
X24178900Y35622048D01*
X24165162Y35616357D01*
X24134855Y35591485D01*
X23944379Y35401008D01*
X23931790Y35385670D01*
X23927802Y35382210D01*
X23924017Y35376199D01*
X23919506Y35370701D01*
X23917483Y35365820D01*
X23906915Y35349030D01*
X23811676Y35158554D01*
X23797664Y35121937D01*
X23797154Y35114770D01*
X23794404Y35108129D01*
X23790561Y35069111D01*
X23568339Y35069111D01*
X23568339Y37549636D01*
X23790608Y37549636D01*
X23804170Y37472787D01*
X23846108Y37406978D01*
X23875868Y37381455D01*
X24742942Y36774503D01*
X24742942Y36602444D01*
X23990561Y36602444D01*
X23951543Y36598601D01*
X23879447Y36568738D01*
X23824267Y36513558D01*
X23794404Y36441462D01*
X23794404Y36363426D01*
X23824267Y36291330D01*
X23879447Y36236150D01*
X23951543Y36206287D01*
X23990561Y36202444D01*
X25990561Y36202444D01*
X26029579Y36206287D01*
X26101675Y36236150D01*
X26156855Y36291330D01*
X26186718Y36363426D01*
X26190561Y36402444D01*
X26190561Y37164349D01*
X26186718Y37203367D01*
X26183968Y37210005D01*
X26183459Y37217174D01*
X26169447Y37253791D01*
X26074208Y37444268D01*
X26063638Y37461060D01*
X26061617Y37465939D01*
X26057109Y37471432D01*
X26053322Y37477448D01*
X26049330Y37480910D01*
X26036744Y37496246D01*
X25941506Y37591484D01*
X25926170Y37604071D01*
X25922708Y37608062D01*
X25916691Y37611850D01*
X25911199Y37616357D01*
X25906319Y37618379D01*
X25889528Y37628948D01*
X25699052Y37724186D01*
X25662434Y37738199D01*
X25655264Y37738709D01*
X25648627Y37741458D01*
X25609609Y37745301D01*
X25323895Y37745301D01*
X25284877Y37741458D01*
X25278239Y37738709D01*
X25271070Y37738199D01*
X25234453Y37724187D01*
X25043976Y37628948D01*
X25027187Y37618380D01*
X25022306Y37616358D01*
X25016811Y37611849D01*
X25010796Y37608062D01*
X25007334Y37604072D01*
X24991999Y37591485D01*
X24896759Y37496247D01*
X24884171Y37480910D01*
X24880181Y37477448D01*
X24876393Y37471432D01*
X24871887Y37465940D01*
X24869866Y37461062D01*
X24859295Y37444268D01*
X24764057Y37253792D01*
X24762304Y37249212D01*
X24105254Y37709147D01*
X24071085Y37728374D01*
X23994896Y37745254D01*
X23918047Y37731692D01*
X23852238Y37689754D01*
X23807488Y37625825D01*
X23790608Y37549636D01*
X23568339Y37549636D01*
X23568339Y39354825D01*
X23790561Y39354825D01*
X23790561Y38402444D01*
X23794404Y38363426D01*
X23824267Y38291330D01*
X23879447Y38236150D01*
X23951543Y38206287D01*
X23990561Y38202444D01*
X25990561Y38202444D01*
X26029579Y38206287D01*
X26101675Y38236150D01*
X26156855Y38291330D01*
X26186718Y38363426D01*
X26190561Y38402444D01*
X26190561Y39354825D01*
X26186718Y39393843D01*
X26156855Y39465939D01*
X26101675Y39521119D01*
X26029579Y39550982D01*
X25951543Y39550982D01*
X25879447Y39521119D01*
X25824267Y39465939D01*
X25794404Y39393843D01*
X25790561Y39354825D01*
X25790561Y38602444D01*
X25238180Y38602444D01*
X25238180Y39069111D01*
X25234337Y39108129D01*
X25204474Y39180225D01*
X25149294Y39235405D01*
X25077198Y39265268D01*
X24999162Y39265268D01*
X24927066Y39235405D01*
X24871886Y39180225D01*
X24842023Y39108129D01*
X24838180Y39069111D01*
X24838180Y38602444D01*
X24190561Y38602444D01*
X24190561Y39354825D01*
X24186718Y39393843D01*
X24156855Y39465939D01*
X24101675Y39521119D01*
X24029579Y39550982D01*
X23951543Y39550982D01*
X23879447Y39521119D01*
X23824267Y39465939D01*
X23794404Y39393843D01*
X23790561Y39354825D01*
X23568339Y39354825D01*
X23568339Y41735777D01*
X24552466Y41735777D01*
X24552466Y40211968D01*
X24556309Y40172950D01*
X24586172Y40100854D01*
X24641352Y40045674D01*
X24713448Y40015811D01*
X24791484Y40015811D01*
X24863580Y40045674D01*
X24918760Y40100854D01*
X24948623Y40172950D01*
X24952466Y40211968D01*
X24952466Y41735777D01*
X24948623Y41774795D01*
X24918760Y41846891D01*
X24863580Y41902071D01*
X24791484Y41931934D01*
X24713448Y41931934D01*
X24641352Y41902071D01*
X24586172Y41846891D01*
X24556309Y41774795D01*
X24552466Y41735777D01*
X23568339Y41735777D01*
X23568339Y44060509D01*
X23794404Y44060509D01*
X23794404Y43982473D01*
X23824267Y43910377D01*
X23879447Y43855197D01*
X23951543Y43825334D01*
X23990561Y43821491D01*
X25089047Y43821491D01*
X24477413Y43536062D01*
X24463124Y43527598D01*
X24458286Y43525838D01*
X24454863Y43522704D01*
X24443681Y43516079D01*
X24423152Y43493663D01*
X24400736Y43473134D01*
X24396978Y43465083D01*
X24390977Y43458529D01*
X24380589Y43429964D01*
X24367736Y43402420D01*
X24367345Y43393543D01*
X24364309Y43385191D01*
X24365643Y43354826D01*
X24364309Y43324459D01*
X24367345Y43316108D01*
X24367736Y43307231D01*
X24380588Y43279690D01*
X24390977Y43251121D01*
X24396978Y43244568D01*
X24400736Y43236516D01*
X24423152Y43215988D01*
X24443681Y43193571D01*
X24454863Y43186947D01*
X24458286Y43183812D01*
X24463124Y43182053D01*
X24477413Y43173588D01*
X25089048Y42888158D01*
X23990561Y42888158D01*
X23951543Y42884315D01*
X23879447Y42854452D01*
X23824267Y42799272D01*
X23794404Y42727176D01*
X23794404Y42649140D01*
X23824267Y42577044D01*
X23879447Y42521864D01*
X23951543Y42492001D01*
X23990561Y42488158D01*
X25990561Y42488158D01*
X26016210Y42490685D01*
X26020927Y42490477D01*
X26023460Y42491399D01*
X26029579Y42492001D01*
X26061645Y42505284D01*
X26094266Y42517145D01*
X26097555Y42520158D01*
X26101675Y42521864D01*
X26126211Y42546401D01*
X26151815Y42569848D01*
X26153701Y42573891D01*
X26156855Y42577044D01*
X26170132Y42609100D01*
X26184816Y42640563D01*
X26185011Y42645022D01*
X26186718Y42649140D01*
X26186718Y42683832D01*
X26188243Y42718524D01*
X26186718Y42722718D01*
X26186718Y42727176D01*
X26173437Y42759238D01*
X26161574Y42791862D01*
X26158561Y42795152D01*
X26156855Y42799272D01*
X26132313Y42823814D01*
X26108871Y42849412D01*
X26103582Y42852545D01*
X26101675Y42854452D01*
X26097311Y42856260D01*
X26075138Y42869394D01*
X25034931Y43354825D01*
X26075138Y43840254D01*
X26097310Y43853390D01*
X26101675Y43855197D01*
X26103582Y43857105D01*
X26108870Y43860237D01*
X26132312Y43885835D01*
X26156855Y43910377D01*
X26158561Y43914497D01*
X26161574Y43917786D01*
X26173436Y43950410D01*
X26186718Y43982473D01*
X26186718Y43986933D01*
X26188242Y43991124D01*
X26186718Y44025794D01*
X26186718Y44060509D01*
X26185010Y44064631D01*
X26184815Y44069085D01*
X26170141Y44100530D01*
X26156855Y44132605D01*
X26153700Y44135760D01*
X26151815Y44139800D01*
X26126222Y44163238D01*
X26101675Y44187785D01*
X26097553Y44189492D01*
X26094265Y44192504D01*
X26061649Y44204364D01*
X26029579Y44217648D01*
X26023460Y44218251D01*
X26020927Y44219172D01*
X26016210Y44218965D01*
X25990561Y44221491D01*
X23990561Y44221491D01*
X23951543Y44217648D01*
X23879447Y44187785D01*
X23824267Y44132605D01*
X23794404Y44060509D01*
X23568339Y44060509D01*
X23568339Y45640539D01*
X23790561Y45640539D01*
X23790561Y45164348D01*
X23794404Y45125330D01*
X23797154Y45118690D01*
X23797664Y45111522D01*
X23811676Y45074905D01*
X23906915Y44884429D01*
X23917483Y44867640D01*
X23919506Y44862758D01*
X23924017Y44857261D01*
X23927802Y44851249D01*
X23931790Y44847790D01*
X23944379Y44832451D01*
X24039617Y44737213D01*
X24069924Y44712340D01*
X24142020Y44682477D01*
X24220056Y44682477D01*
X24292152Y44712340D01*
X24347332Y44767520D01*
X24377195Y44839616D01*
X24377195Y44917652D01*
X24347332Y44989748D01*
X24322459Y45020055D01*
X24250171Y45092343D01*
X24190561Y45211562D01*
X24190561Y45593326D01*
X24250171Y45712545D01*
X24299509Y45761882D01*
X24418727Y45821491D01*
X24800491Y45821491D01*
X24919708Y45761882D01*
X24969048Y45712544D01*
X25028657Y45593326D01*
X25028657Y45211561D01*
X24969048Y45092344D01*
X24896759Y45020056D01*
X24871887Y44989749D01*
X24868033Y44980446D01*
X24861655Y44972650D01*
X24853210Y44944661D01*
X24842023Y44917653D01*
X24842023Y44907582D01*
X24839114Y44897940D01*
X24842023Y44868851D01*
X24842023Y44839617D01*
X24845876Y44830314D01*
X24846879Y44820291D01*
X24860699Y44794528D01*
X24871886Y44767521D01*
X24879007Y44760400D01*
X24883768Y44751525D01*
X24906393Y44733013D01*
X24927065Y44712341D01*
X24936368Y44708488D01*
X24944164Y44702109D01*
X24972153Y44693665D01*
X24999161Y44682477D01*
X25009232Y44682477D01*
X25018874Y44679568D01*
X25058081Y44679627D01*
X26010462Y44774865D01*
X26024679Y44777715D01*
X26029579Y44777715D01*
X26034173Y44779619D01*
X26048904Y44782571D01*
X26074663Y44796390D01*
X26101675Y44807578D01*
X26108797Y44814701D01*
X26117670Y44819460D01*
X26136180Y44842084D01*
X26156855Y44862758D01*
X26160708Y44872062D01*
X26167086Y44879856D01*
X26175530Y44907846D01*
X26186718Y44934854D01*
X26188190Y44949806D01*
X26189627Y44954566D01*
X26189139Y44959441D01*
X26190561Y44973872D01*
X26190561Y45926253D01*
X26186718Y45965271D01*
X26156855Y46037367D01*
X26101675Y46092547D01*
X26029579Y46122410D01*
X25951543Y46122410D01*
X25879447Y46092547D01*
X25824267Y46037367D01*
X25794404Y45965271D01*
X25790561Y45926253D01*
X25790561Y45154870D01*
X25422016Y45118015D01*
X25422064Y45118693D01*
X25424814Y45125330D01*
X25428657Y45164348D01*
X25428657Y45640539D01*
X25424814Y45679557D01*
X25422064Y45686195D01*
X25421555Y45693364D01*
X25407543Y45729981D01*
X25312304Y45920458D01*
X25301735Y45937248D01*
X25299713Y45942130D01*
X25295202Y45947627D01*
X25291418Y45953638D01*
X25287429Y45957098D01*
X25274840Y45972437D01*
X25179601Y46067675D01*
X25164264Y46080261D01*
X25160803Y46084252D01*
X25154784Y46088041D01*
X25149293Y46092547D01*
X25144416Y46094567D01*
X25127623Y46105138D01*
X24937147Y46200376D01*
X24900529Y46214389D01*
X24893359Y46214899D01*
X24886722Y46217648D01*
X24847704Y46221491D01*
X24371514Y46221491D01*
X24332496Y46217648D01*
X24325858Y46214899D01*
X24318689Y46214389D01*
X24282072Y46200377D01*
X24091595Y46105138D01*
X24074803Y46094569D01*
X24069924Y46092547D01*
X24064431Y46088040D01*
X24058415Y46084252D01*
X24054953Y46080261D01*
X24039617Y46067674D01*
X23944379Y45972436D01*
X23931790Y45957098D01*
X23927802Y45953638D01*
X23924017Y45947627D01*
X23919506Y45942129D01*
X23917483Y45937248D01*
X23906915Y45920458D01*
X23811676Y45729982D01*
X23797664Y45693365D01*
X23797154Y45686198D01*
X23794404Y45679557D01*
X23790561Y45640539D01*
X23568339Y45640539D01*
X23568339Y47774795D01*
X23794404Y47774795D01*
X23794404Y47696759D01*
X23824267Y47624663D01*
X23879447Y47569483D01*
X23951543Y47539620D01*
X23990561Y47535777D01*
X24457228Y47535777D01*
X24457228Y46783396D01*
X24459173Y46763648D01*
X24458799Y46758382D01*
X24460066Y46754581D01*
X24461071Y46744378D01*
X24473340Y46714756D01*
X24483476Y46684350D01*
X24488183Y46678922D01*
X24490934Y46672282D01*
X24513601Y46649615D01*
X24534605Y46625397D01*
X24541033Y46622183D01*
X24546114Y46617102D01*
X24575727Y46604836D01*
X24604403Y46590498D01*
X24611571Y46589989D01*
X24618210Y46587239D01*
X24650268Y46587239D01*
X24682242Y46584967D01*
X24692235Y46587239D01*
X24696246Y46587239D01*
X24701126Y46589261D01*
X24720473Y46593659D01*
X26149046Y47069849D01*
X26184846Y47085834D01*
X26243799Y47136963D01*
X26278698Y47206761D01*
X26284230Y47284601D01*
X26259552Y47358632D01*
X26208423Y47417585D01*
X26138625Y47452484D01*
X26060786Y47458015D01*
X26022555Y47449323D01*
X24857228Y47060882D01*
X24857228Y47535777D01*
X25323895Y47535777D01*
X25362913Y47539620D01*
X25435009Y47569483D01*
X25490189Y47624663D01*
X25520052Y47696759D01*
X25520052Y47774795D01*
X25490189Y47846891D01*
X25435009Y47902071D01*
X25362913Y47931934D01*
X25323895Y47935777D01*
X24857228Y47935777D01*
X24857228Y48021491D01*
X24853385Y48060509D01*
X24823522Y48132605D01*
X24768342Y48187785D01*
X24696246Y48217648D01*
X24618210Y48217648D01*
X24546114Y48187785D01*
X24490934Y48132605D01*
X24461071Y48060509D01*
X24457228Y48021491D01*
X24457228Y47935777D01*
X23990561Y47935777D01*
X23951543Y47931934D01*
X23879447Y47902071D01*
X23824267Y47846891D01*
X23794404Y47774795D01*
X23568339Y47774795D01*
X23568339Y49545301D01*
X23790561Y49545301D01*
X23790561Y49354825D01*
X23792506Y49335076D01*
X23792132Y49329810D01*
X23793707Y49322882D01*
X23794404Y49315807D01*
X23796424Y49310929D01*
X23800824Y49291579D01*
X23896063Y49005864D01*
X23912048Y48970064D01*
X23916755Y48964636D01*
X23919506Y48957996D01*
X23944379Y48927689D01*
X24134855Y48737212D01*
X24150192Y48724625D01*
X24153653Y48720635D01*
X24159668Y48716849D01*
X24165162Y48712340D01*
X24170041Y48710319D01*
X24186833Y48699749D01*
X24377310Y48604510D01*
X24380165Y48603418D01*
X24381324Y48602559D01*
X24397687Y48596713D01*
X24413927Y48590498D01*
X24415365Y48590396D01*
X24418245Y48589367D01*
X24799197Y48494130D01*
X24805960Y48493130D01*
X24808686Y48492001D01*
X24823388Y48490553D01*
X24837982Y48488395D01*
X24840895Y48488829D01*
X24847704Y48488158D01*
X25133419Y48488158D01*
X25140227Y48488829D01*
X25143141Y48488395D01*
X25157742Y48490554D01*
X25172437Y48492001D01*
X25175159Y48493129D01*
X25181926Y48494129D01*
X25562878Y48589367D01*
X25565757Y48590396D01*
X25567196Y48590498D01*
X25583424Y48596709D01*
X25599799Y48602559D01*
X25600958Y48603419D01*
X25603814Y48604511D01*
X25794290Y48699749D01*
X25811081Y48710319D01*
X25815961Y48712340D01*
X25821453Y48716848D01*
X25827470Y48720635D01*
X25830932Y48724627D01*
X25846268Y48737213D01*
X26036745Y48927689D01*
X26061617Y48957996D01*
X26064367Y48964636D01*
X26069075Y48970064D01*
X26085060Y49005865D01*
X26180298Y49291580D01*
X26184696Y49310927D01*
X26186718Y49315807D01*
X26187414Y49322884D01*
X26188990Y49329811D01*
X26188615Y49335077D01*
X26190561Y49354825D01*
X26190561Y49545301D01*
X26188615Y49565051D01*
X26188990Y49570316D01*
X26187414Y49577245D01*
X26186718Y49584319D01*
X26184697Y49589198D01*
X26180298Y49608547D01*
X26085060Y49894261D01*
X26069075Y49930061D01*
X26064367Y49935490D01*
X26061617Y49942129D01*
X26036744Y49972436D01*
X25941506Y50067674D01*
X25911199Y50092547D01*
X25839103Y50122410D01*
X25761067Y50122410D01*
X25688971Y50092547D01*
X25633791Y50037367D01*
X25603928Y49965271D01*
X25603928Y49887235D01*
X25633791Y49815139D01*
X25658664Y49784832D01*
X25720515Y49722981D01*
X25790561Y49512844D01*
X25790561Y49387281D01*
X25720516Y49177147D01*
X25586376Y49043006D01*
X25444564Y48972100D01*
X25108796Y48888158D01*
X24872327Y48888158D01*
X24536555Y48972101D01*
X24394748Y49043005D01*
X24260605Y49177147D01*
X24190561Y49387282D01*
X24190561Y49512847D01*
X24260605Y49722979D01*
X24322459Y49784832D01*
X24347332Y49815139D01*
X24377195Y49887235D01*
X24377195Y49965271D01*
X24347332Y50037367D01*
X24292152Y50092547D01*
X24220056Y50122410D01*
X24142020Y50122410D01*
X24069924Y50092547D01*
X24039617Y50067674D01*
X23944379Y49972436D01*
X23919506Y49942129D01*
X23916755Y49935490D01*
X23912048Y49930061D01*
X23896063Y49894261D01*
X23800825Y49608547D01*
X23796425Y49589201D01*
X23794404Y49584319D01*
X23793707Y49577243D01*
X23792132Y49570316D01*
X23792506Y49565051D01*
X23790561Y49545301D01*
X23568339Y49545301D01*
X23568339Y50344632D01*
X26506452Y50344632D01*
X26506452Y22742126D01*
G37*
D11*
X14336104Y57714286D02*
X14374200Y57752382D01*
X14374200Y57752382D02*
X14412295Y57866667D01*
X14412295Y57866667D02*
X14412295Y57942858D01*
X14412295Y57942858D02*
X14374200Y58057144D01*
X14374200Y58057144D02*
X14298009Y58133334D01*
X14298009Y58133334D02*
X14221819Y58171429D01*
X14221819Y58171429D02*
X14069438Y58209525D01*
X14069438Y58209525D02*
X13955152Y58209525D01*
X13955152Y58209525D02*
X13802771Y58171429D01*
X13802771Y58171429D02*
X13726580Y58133334D01*
X13726580Y58133334D02*
X13650390Y58057144D01*
X13650390Y58057144D02*
X13612295Y57942858D01*
X13612295Y57942858D02*
X13612295Y57866667D01*
X13612295Y57866667D02*
X13650390Y57752382D01*
X13650390Y57752382D02*
X13688485Y57714286D01*
X14412295Y56952382D02*
X14412295Y57409525D01*
X14412295Y57180953D02*
X13612295Y57180953D01*
X13612295Y57180953D02*
X13726580Y57257144D01*
X13726580Y57257144D02*
X13802771Y57333334D01*
X13802771Y57333334D02*
X13840866Y57409525D01*
X13878961Y56266667D02*
X14412295Y56266667D01*
X13574200Y56457143D02*
X14145628Y56647620D01*
X14145628Y56647620D02*
X14145628Y56152381D01*
X15586104Y56933333D02*
X15624200Y56971429D01*
X15624200Y56971429D02*
X15662295Y57085714D01*
X15662295Y57085714D02*
X15662295Y57161905D01*
X15662295Y57161905D02*
X15624200Y57276191D01*
X15624200Y57276191D02*
X15548009Y57352381D01*
X15548009Y57352381D02*
X15471819Y57390476D01*
X15471819Y57390476D02*
X15319438Y57428572D01*
X15319438Y57428572D02*
X15205152Y57428572D01*
X15205152Y57428572D02*
X15052771Y57390476D01*
X15052771Y57390476D02*
X14976580Y57352381D01*
X14976580Y57352381D02*
X14900390Y57276191D01*
X14900390Y57276191D02*
X14862295Y57161905D01*
X14862295Y57161905D02*
X14862295Y57085714D01*
X14862295Y57085714D02*
X14900390Y56971429D01*
X14900390Y56971429D02*
X14938485Y56933333D01*
X15128961Y56247619D02*
X15662295Y56247619D01*
X14824200Y56438095D02*
X15395628Y56628572D01*
X15395628Y56628572D02*
X15395628Y56133333D01*
X17586104Y56933333D02*
X17624200Y56971429D01*
X17624200Y56971429D02*
X17662295Y57085714D01*
X17662295Y57085714D02*
X17662295Y57161905D01*
X17662295Y57161905D02*
X17624200Y57276191D01*
X17624200Y57276191D02*
X17548009Y57352381D01*
X17548009Y57352381D02*
X17471819Y57390476D01*
X17471819Y57390476D02*
X17319438Y57428572D01*
X17319438Y57428572D02*
X17205152Y57428572D01*
X17205152Y57428572D02*
X17052771Y57390476D01*
X17052771Y57390476D02*
X16976580Y57352381D01*
X16976580Y57352381D02*
X16900390Y57276191D01*
X16900390Y57276191D02*
X16862295Y57161905D01*
X16862295Y57161905D02*
X16862295Y57085714D01*
X16862295Y57085714D02*
X16900390Y56971429D01*
X16900390Y56971429D02*
X16938485Y56933333D01*
X16862295Y56666667D02*
X16862295Y56171429D01*
X16862295Y56171429D02*
X17167057Y56438095D01*
X17167057Y56438095D02*
X17167057Y56323810D01*
X17167057Y56323810D02*
X17205152Y56247619D01*
X17205152Y56247619D02*
X17243247Y56209524D01*
X17243247Y56209524D02*
X17319438Y56171429D01*
X17319438Y56171429D02*
X17509914Y56171429D01*
X17509914Y56171429D02*
X17586104Y56209524D01*
X17586104Y56209524D02*
X17624200Y56247619D01*
X17624200Y56247619D02*
X17662295Y56323810D01*
X17662295Y56323810D02*
X17662295Y56552381D01*
X17662295Y56552381D02*
X17624200Y56628572D01*
X17624200Y56628572D02*
X17586104Y56666667D01*
X11086104Y46433333D02*
X11124200Y46471429D01*
X11124200Y46471429D02*
X11162295Y46585714D01*
X11162295Y46585714D02*
X11162295Y46661905D01*
X11162295Y46661905D02*
X11124200Y46776191D01*
X11124200Y46776191D02*
X11048009Y46852381D01*
X11048009Y46852381D02*
X10971819Y46890476D01*
X10971819Y46890476D02*
X10819438Y46928572D01*
X10819438Y46928572D02*
X10705152Y46928572D01*
X10705152Y46928572D02*
X10552771Y46890476D01*
X10552771Y46890476D02*
X10476580Y46852381D01*
X10476580Y46852381D02*
X10400390Y46776191D01*
X10400390Y46776191D02*
X10362295Y46661905D01*
X10362295Y46661905D02*
X10362295Y46585714D01*
X10362295Y46585714D02*
X10400390Y46471429D01*
X10400390Y46471429D02*
X10438485Y46433333D01*
X10705152Y45976191D02*
X10667057Y46052381D01*
X10667057Y46052381D02*
X10628961Y46090476D01*
X10628961Y46090476D02*
X10552771Y46128572D01*
X10552771Y46128572D02*
X10514676Y46128572D01*
X10514676Y46128572D02*
X10438485Y46090476D01*
X10438485Y46090476D02*
X10400390Y46052381D01*
X10400390Y46052381D02*
X10362295Y45976191D01*
X10362295Y45976191D02*
X10362295Y45823810D01*
X10362295Y45823810D02*
X10400390Y45747619D01*
X10400390Y45747619D02*
X10438485Y45709524D01*
X10438485Y45709524D02*
X10514676Y45671429D01*
X10514676Y45671429D02*
X10552771Y45671429D01*
X10552771Y45671429D02*
X10628961Y45709524D01*
X10628961Y45709524D02*
X10667057Y45747619D01*
X10667057Y45747619D02*
X10705152Y45823810D01*
X10705152Y45823810D02*
X10705152Y45976191D01*
X10705152Y45976191D02*
X10743247Y46052381D01*
X10743247Y46052381D02*
X10781342Y46090476D01*
X10781342Y46090476D02*
X10857533Y46128572D01*
X10857533Y46128572D02*
X11009914Y46128572D01*
X11009914Y46128572D02*
X11086104Y46090476D01*
X11086104Y46090476D02*
X11124200Y46052381D01*
X11124200Y46052381D02*
X11162295Y45976191D01*
X11162295Y45976191D02*
X11162295Y45823810D01*
X11162295Y45823810D02*
X11124200Y45747619D01*
X11124200Y45747619D02*
X11086104Y45709524D01*
X11086104Y45709524D02*
X11009914Y45671429D01*
X11009914Y45671429D02*
X10857533Y45671429D01*
X10857533Y45671429D02*
X10781342Y45709524D01*
X10781342Y45709524D02*
X10743247Y45747619D01*
X10743247Y45747619D02*
X10705152Y45823810D01*
X9533332Y51613896D02*
X9571428Y51575800D01*
X9571428Y51575800D02*
X9685713Y51537705D01*
X9685713Y51537705D02*
X9761904Y51537705D01*
X9761904Y51537705D02*
X9876190Y51575800D01*
X9876190Y51575800D02*
X9952380Y51651991D01*
X9952380Y51651991D02*
X9990475Y51728181D01*
X9990475Y51728181D02*
X10028571Y51880562D01*
X10028571Y51880562D02*
X10028571Y51994848D01*
X10028571Y51994848D02*
X9990475Y52147229D01*
X9990475Y52147229D02*
X9952380Y52223420D01*
X9952380Y52223420D02*
X9876190Y52299610D01*
X9876190Y52299610D02*
X9761904Y52337705D01*
X9761904Y52337705D02*
X9685713Y52337705D01*
X9685713Y52337705D02*
X9571428Y52299610D01*
X9571428Y52299610D02*
X9533332Y52261515D01*
X9266666Y52337705D02*
X8733332Y52337705D01*
X8733332Y52337705D02*
X9076190Y51537705D01*
X9533332Y54913896D02*
X9571428Y54875800D01*
X9571428Y54875800D02*
X9685713Y54837705D01*
X9685713Y54837705D02*
X9761904Y54837705D01*
X9761904Y54837705D02*
X9876190Y54875800D01*
X9876190Y54875800D02*
X9952380Y54951991D01*
X9952380Y54951991D02*
X9990475Y55028181D01*
X9990475Y55028181D02*
X10028571Y55180562D01*
X10028571Y55180562D02*
X10028571Y55294848D01*
X10028571Y55294848D02*
X9990475Y55447229D01*
X9990475Y55447229D02*
X9952380Y55523420D01*
X9952380Y55523420D02*
X9876190Y55599610D01*
X9876190Y55599610D02*
X9761904Y55637705D01*
X9761904Y55637705D02*
X9685713Y55637705D01*
X9685713Y55637705D02*
X9571428Y55599610D01*
X9571428Y55599610D02*
X9533332Y55561515D01*
X8809523Y55637705D02*
X9190475Y55637705D01*
X9190475Y55637705D02*
X9228571Y55256753D01*
X9228571Y55256753D02*
X9190475Y55294848D01*
X9190475Y55294848D02*
X9114285Y55332943D01*
X9114285Y55332943D02*
X8923809Y55332943D01*
X8923809Y55332943D02*
X8847618Y55294848D01*
X8847618Y55294848D02*
X8809523Y55256753D01*
X8809523Y55256753D02*
X8771428Y55180562D01*
X8771428Y55180562D02*
X8771428Y54990086D01*
X8771428Y54990086D02*
X8809523Y54913896D01*
X8809523Y54913896D02*
X8847618Y54875800D01*
X8847618Y54875800D02*
X8923809Y54837705D01*
X8923809Y54837705D02*
X9114285Y54837705D01*
X9114285Y54837705D02*
X9190475Y54875800D01*
X9190475Y54875800D02*
X9228571Y54913896D01*
X10514285Y49663896D02*
X10552381Y49625800D01*
X10552381Y49625800D02*
X10666666Y49587705D01*
X10666666Y49587705D02*
X10742857Y49587705D01*
X10742857Y49587705D02*
X10857143Y49625800D01*
X10857143Y49625800D02*
X10933333Y49701991D01*
X10933333Y49701991D02*
X10971428Y49778181D01*
X10971428Y49778181D02*
X11009524Y49930562D01*
X11009524Y49930562D02*
X11009524Y50044848D01*
X11009524Y50044848D02*
X10971428Y50197229D01*
X10971428Y50197229D02*
X10933333Y50273420D01*
X10933333Y50273420D02*
X10857143Y50349610D01*
X10857143Y50349610D02*
X10742857Y50387705D01*
X10742857Y50387705D02*
X10666666Y50387705D01*
X10666666Y50387705D02*
X10552381Y50349610D01*
X10552381Y50349610D02*
X10514285Y50311515D01*
X9752381Y49587705D02*
X10209524Y49587705D01*
X9980952Y49587705D02*
X9980952Y50387705D01*
X9980952Y50387705D02*
X10057143Y50273420D01*
X10057143Y50273420D02*
X10133333Y50197229D01*
X10133333Y50197229D02*
X10209524Y50159134D01*
X9028571Y50387705D02*
X9409523Y50387705D01*
X9409523Y50387705D02*
X9447619Y50006753D01*
X9447619Y50006753D02*
X9409523Y50044848D01*
X9409523Y50044848D02*
X9333333Y50082943D01*
X9333333Y50082943D02*
X9142857Y50082943D01*
X9142857Y50082943D02*
X9066666Y50044848D01*
X9066666Y50044848D02*
X9028571Y50006753D01*
X9028571Y50006753D02*
X8990476Y49930562D01*
X8990476Y49930562D02*
X8990476Y49740086D01*
X8990476Y49740086D02*
X9028571Y49663896D01*
X9028571Y49663896D02*
X9066666Y49625800D01*
X9066666Y49625800D02*
X9142857Y49587705D01*
X9142857Y49587705D02*
X9333333Y49587705D01*
X9333333Y49587705D02*
X9409523Y49625800D01*
X9409523Y49625800D02*
X9447619Y49663896D01*
X7664285Y44363896D02*
X7702381Y44325800D01*
X7702381Y44325800D02*
X7816666Y44287705D01*
X7816666Y44287705D02*
X7892857Y44287705D01*
X7892857Y44287705D02*
X8007143Y44325800D01*
X8007143Y44325800D02*
X8083333Y44401991D01*
X8083333Y44401991D02*
X8121428Y44478181D01*
X8121428Y44478181D02*
X8159524Y44630562D01*
X8159524Y44630562D02*
X8159524Y44744848D01*
X8159524Y44744848D02*
X8121428Y44897229D01*
X8121428Y44897229D02*
X8083333Y44973420D01*
X8083333Y44973420D02*
X8007143Y45049610D01*
X8007143Y45049610D02*
X7892857Y45087705D01*
X7892857Y45087705D02*
X7816666Y45087705D01*
X7816666Y45087705D02*
X7702381Y45049610D01*
X7702381Y45049610D02*
X7664285Y45011515D01*
X7397619Y45087705D02*
X6902381Y45087705D01*
X6902381Y45087705D02*
X7169047Y44782943D01*
X7169047Y44782943D02*
X7054762Y44782943D01*
X7054762Y44782943D02*
X6978571Y44744848D01*
X6978571Y44744848D02*
X6940476Y44706753D01*
X6940476Y44706753D02*
X6902381Y44630562D01*
X6902381Y44630562D02*
X6902381Y44440086D01*
X6902381Y44440086D02*
X6940476Y44363896D01*
X6940476Y44363896D02*
X6978571Y44325800D01*
X6978571Y44325800D02*
X7054762Y44287705D01*
X7054762Y44287705D02*
X7283333Y44287705D01*
X7283333Y44287705D02*
X7359524Y44325800D01*
X7359524Y44325800D02*
X7397619Y44363896D01*
X6140476Y44287705D02*
X6597619Y44287705D01*
X6369047Y44287705D02*
X6369047Y45087705D01*
X6369047Y45087705D02*
X6445238Y44973420D01*
X6445238Y44973420D02*
X6521428Y44897229D01*
X6521428Y44897229D02*
X6597619Y44859134D01*
X7669285Y48613896D02*
X7707381Y48575800D01*
X7707381Y48575800D02*
X7821666Y48537705D01*
X7821666Y48537705D02*
X7897857Y48537705D01*
X7897857Y48537705D02*
X8012143Y48575800D01*
X8012143Y48575800D02*
X8088333Y48651991D01*
X8088333Y48651991D02*
X8126428Y48728181D01*
X8126428Y48728181D02*
X8164524Y48880562D01*
X8164524Y48880562D02*
X8164524Y48994848D01*
X8164524Y48994848D02*
X8126428Y49147229D01*
X8126428Y49147229D02*
X8088333Y49223420D01*
X8088333Y49223420D02*
X8012143Y49299610D01*
X8012143Y49299610D02*
X7897857Y49337705D01*
X7897857Y49337705D02*
X7821666Y49337705D01*
X7821666Y49337705D02*
X7707381Y49299610D01*
X7707381Y49299610D02*
X7669285Y49261515D01*
X7364524Y49261515D02*
X7326428Y49299610D01*
X7326428Y49299610D02*
X7250238Y49337705D01*
X7250238Y49337705D02*
X7059762Y49337705D01*
X7059762Y49337705D02*
X6983571Y49299610D01*
X6983571Y49299610D02*
X6945476Y49261515D01*
X6945476Y49261515D02*
X6907381Y49185324D01*
X6907381Y49185324D02*
X6907381Y49109134D01*
X6907381Y49109134D02*
X6945476Y48994848D01*
X6945476Y48994848D02*
X7402619Y48537705D01*
X7402619Y48537705D02*
X6907381Y48537705D01*
X6640714Y49337705D02*
X6107380Y49337705D01*
X6107380Y49337705D02*
X6450238Y48537705D01*
X15270475Y68617705D02*
X15270475Y69417705D01*
X15270475Y69417705D02*
X15079999Y69417705D01*
X15079999Y69417705D02*
X14965713Y69379610D01*
X14965713Y69379610D02*
X14889523Y69303420D01*
X14889523Y69303420D02*
X14851428Y69227229D01*
X14851428Y69227229D02*
X14813332Y69074848D01*
X14813332Y69074848D02*
X14813332Y68960562D01*
X14813332Y68960562D02*
X14851428Y68808181D01*
X14851428Y68808181D02*
X14889523Y68731991D01*
X14889523Y68731991D02*
X14965713Y68655800D01*
X14965713Y68655800D02*
X15079999Y68617705D01*
X15079999Y68617705D02*
X15270475Y68617705D01*
X14051428Y68617705D02*
X14508571Y68617705D01*
X14279999Y68617705D02*
X14279999Y69417705D01*
X14279999Y69417705D02*
X14356190Y69303420D01*
X14356190Y69303420D02*
X14432380Y69227229D01*
X14432380Y69227229D02*
X14508571Y69189134D01*
X14386104Y46333333D02*
X14424200Y46371429D01*
X14424200Y46371429D02*
X14462295Y46485714D01*
X14462295Y46485714D02*
X14462295Y46561905D01*
X14462295Y46561905D02*
X14424200Y46676191D01*
X14424200Y46676191D02*
X14348009Y46752381D01*
X14348009Y46752381D02*
X14271819Y46790476D01*
X14271819Y46790476D02*
X14119438Y46828572D01*
X14119438Y46828572D02*
X14005152Y46828572D01*
X14005152Y46828572D02*
X13852771Y46790476D01*
X13852771Y46790476D02*
X13776580Y46752381D01*
X13776580Y46752381D02*
X13700390Y46676191D01*
X13700390Y46676191D02*
X13662295Y46561905D01*
X13662295Y46561905D02*
X13662295Y46485714D01*
X13662295Y46485714D02*
X13700390Y46371429D01*
X13700390Y46371429D02*
X13738485Y46333333D01*
X14462295Y45952381D02*
X14462295Y45800000D01*
X14462295Y45800000D02*
X14424200Y45723810D01*
X14424200Y45723810D02*
X14386104Y45685714D01*
X14386104Y45685714D02*
X14271819Y45609524D01*
X14271819Y45609524D02*
X14119438Y45571429D01*
X14119438Y45571429D02*
X13814676Y45571429D01*
X13814676Y45571429D02*
X13738485Y45609524D01*
X13738485Y45609524D02*
X13700390Y45647619D01*
X13700390Y45647619D02*
X13662295Y45723810D01*
X13662295Y45723810D02*
X13662295Y45876191D01*
X13662295Y45876191D02*
X13700390Y45952381D01*
X13700390Y45952381D02*
X13738485Y45990476D01*
X13738485Y45990476D02*
X13814676Y46028572D01*
X13814676Y46028572D02*
X14005152Y46028572D01*
X14005152Y46028572D02*
X14081342Y45990476D01*
X14081342Y45990476D02*
X14119438Y45952381D01*
X14119438Y45952381D02*
X14157533Y45876191D01*
X14157533Y45876191D02*
X14157533Y45723810D01*
X14157533Y45723810D02*
X14119438Y45647619D01*
X14119438Y45647619D02*
X14081342Y45609524D01*
X14081342Y45609524D02*
X14005152Y45571429D01*
X15294285Y67367705D02*
X15560952Y67748658D01*
X15751428Y67367705D02*
X15751428Y68167705D01*
X15751428Y68167705D02*
X15446666Y68167705D01*
X15446666Y68167705D02*
X15370476Y68129610D01*
X15370476Y68129610D02*
X15332381Y68091515D01*
X15332381Y68091515D02*
X15294285Y68015324D01*
X15294285Y68015324D02*
X15294285Y67901039D01*
X15294285Y67901039D02*
X15332381Y67824848D01*
X15332381Y67824848D02*
X15370476Y67786753D01*
X15370476Y67786753D02*
X15446666Y67748658D01*
X15446666Y67748658D02*
X15751428Y67748658D01*
X14532381Y67367705D02*
X14989524Y67367705D01*
X14760952Y67367705D02*
X14760952Y68167705D01*
X14760952Y68167705D02*
X14837143Y68053420D01*
X14837143Y68053420D02*
X14913333Y67977229D01*
X14913333Y67977229D02*
X14989524Y67939134D01*
X14075238Y67824848D02*
X14151428Y67862943D01*
X14151428Y67862943D02*
X14189523Y67901039D01*
X14189523Y67901039D02*
X14227619Y67977229D01*
X14227619Y67977229D02*
X14227619Y68015324D01*
X14227619Y68015324D02*
X14189523Y68091515D01*
X14189523Y68091515D02*
X14151428Y68129610D01*
X14151428Y68129610D02*
X14075238Y68167705D01*
X14075238Y68167705D02*
X13922857Y68167705D01*
X13922857Y68167705D02*
X13846666Y68129610D01*
X13846666Y68129610D02*
X13808571Y68091515D01*
X13808571Y68091515D02*
X13770476Y68015324D01*
X13770476Y68015324D02*
X13770476Y67977229D01*
X13770476Y67977229D02*
X13808571Y67901039D01*
X13808571Y67901039D02*
X13846666Y67862943D01*
X13846666Y67862943D02*
X13922857Y67824848D01*
X13922857Y67824848D02*
X14075238Y67824848D01*
X14075238Y67824848D02*
X14151428Y67786753D01*
X14151428Y67786753D02*
X14189523Y67748658D01*
X14189523Y67748658D02*
X14227619Y67672467D01*
X14227619Y67672467D02*
X14227619Y67520086D01*
X14227619Y67520086D02*
X14189523Y67443896D01*
X14189523Y67443896D02*
X14151428Y67405800D01*
X14151428Y67405800D02*
X14075238Y67367705D01*
X14075238Y67367705D02*
X13922857Y67367705D01*
X13922857Y67367705D02*
X13846666Y67405800D01*
X13846666Y67405800D02*
X13808571Y67443896D01*
X13808571Y67443896D02*
X13770476Y67520086D01*
X13770476Y67520086D02*
X13770476Y67672467D01*
X13770476Y67672467D02*
X13808571Y67748658D01*
X13808571Y67748658D02*
X13846666Y67786753D01*
X13846666Y67786753D02*
X13922857Y67824848D01*
X7664285Y43313896D02*
X7702381Y43275800D01*
X7702381Y43275800D02*
X7816666Y43237705D01*
X7816666Y43237705D02*
X7892857Y43237705D01*
X7892857Y43237705D02*
X8007143Y43275800D01*
X8007143Y43275800D02*
X8083333Y43351991D01*
X8083333Y43351991D02*
X8121428Y43428181D01*
X8121428Y43428181D02*
X8159524Y43580562D01*
X8159524Y43580562D02*
X8159524Y43694848D01*
X8159524Y43694848D02*
X8121428Y43847229D01*
X8121428Y43847229D02*
X8083333Y43923420D01*
X8083333Y43923420D02*
X8007143Y43999610D01*
X8007143Y43999610D02*
X7892857Y44037705D01*
X7892857Y44037705D02*
X7816666Y44037705D01*
X7816666Y44037705D02*
X7702381Y43999610D01*
X7702381Y43999610D02*
X7664285Y43961515D01*
X7397619Y44037705D02*
X6902381Y44037705D01*
X6902381Y44037705D02*
X7169047Y43732943D01*
X7169047Y43732943D02*
X7054762Y43732943D01*
X7054762Y43732943D02*
X6978571Y43694848D01*
X6978571Y43694848D02*
X6940476Y43656753D01*
X6940476Y43656753D02*
X6902381Y43580562D01*
X6902381Y43580562D02*
X6902381Y43390086D01*
X6902381Y43390086D02*
X6940476Y43313896D01*
X6940476Y43313896D02*
X6978571Y43275800D01*
X6978571Y43275800D02*
X7054762Y43237705D01*
X7054762Y43237705D02*
X7283333Y43237705D01*
X7283333Y43237705D02*
X7359524Y43275800D01*
X7359524Y43275800D02*
X7397619Y43313896D01*
X6597619Y43961515D02*
X6559523Y43999610D01*
X6559523Y43999610D02*
X6483333Y44037705D01*
X6483333Y44037705D02*
X6292857Y44037705D01*
X6292857Y44037705D02*
X6216666Y43999610D01*
X6216666Y43999610D02*
X6178571Y43961515D01*
X6178571Y43961515D02*
X6140476Y43885324D01*
X6140476Y43885324D02*
X6140476Y43809134D01*
X6140476Y43809134D02*
X6178571Y43694848D01*
X6178571Y43694848D02*
X6635714Y43237705D01*
X6635714Y43237705D02*
X6140476Y43237705D01*
X19933332Y49013896D02*
X19971428Y48975800D01*
X19971428Y48975800D02*
X20085713Y48937705D01*
X20085713Y48937705D02*
X20161904Y48937705D01*
X20161904Y48937705D02*
X20276190Y48975800D01*
X20276190Y48975800D02*
X20352380Y49051991D01*
X20352380Y49051991D02*
X20390475Y49128181D01*
X20390475Y49128181D02*
X20428571Y49280562D01*
X20428571Y49280562D02*
X20428571Y49394848D01*
X20428571Y49394848D02*
X20390475Y49547229D01*
X20390475Y49547229D02*
X20352380Y49623420D01*
X20352380Y49623420D02*
X20276190Y49699610D01*
X20276190Y49699610D02*
X20161904Y49737705D01*
X20161904Y49737705D02*
X20085713Y49737705D01*
X20085713Y49737705D02*
X19971428Y49699610D01*
X19971428Y49699610D02*
X19933332Y49661515D01*
X19171428Y48937705D02*
X19628571Y48937705D01*
X19399999Y48937705D02*
X19399999Y49737705D01*
X19399999Y49737705D02*
X19476190Y49623420D01*
X19476190Y49623420D02*
X19552380Y49547229D01*
X19552380Y49547229D02*
X19628571Y49509134D01*
X14354819Y62538095D02*
X13354819Y62538095D01*
X13354819Y62538095D02*
X13354819Y62300000D01*
X13354819Y62300000D02*
X13402438Y62157143D01*
X13402438Y62157143D02*
X13497676Y62061905D01*
X13497676Y62061905D02*
X13592914Y62014286D01*
X13592914Y62014286D02*
X13783390Y61966667D01*
X13783390Y61966667D02*
X13926247Y61966667D01*
X13926247Y61966667D02*
X14116723Y62014286D01*
X14116723Y62014286D02*
X14211961Y62061905D01*
X14211961Y62061905D02*
X14307200Y62157143D01*
X14307200Y62157143D02*
X14354819Y62300000D01*
X14354819Y62300000D02*
X14354819Y62538095D01*
X13783390Y61395238D02*
X13735771Y61490476D01*
X13735771Y61490476D02*
X13688152Y61538095D01*
X13688152Y61538095D02*
X13592914Y61585714D01*
X13592914Y61585714D02*
X13545295Y61585714D01*
X13545295Y61585714D02*
X13450057Y61538095D01*
X13450057Y61538095D02*
X13402438Y61490476D01*
X13402438Y61490476D02*
X13354819Y61395238D01*
X13354819Y61395238D02*
X13354819Y61204762D01*
X13354819Y61204762D02*
X13402438Y61109524D01*
X13402438Y61109524D02*
X13450057Y61061905D01*
X13450057Y61061905D02*
X13545295Y61014286D01*
X13545295Y61014286D02*
X13592914Y61014286D01*
X13592914Y61014286D02*
X13688152Y61061905D01*
X13688152Y61061905D02*
X13735771Y61109524D01*
X13735771Y61109524D02*
X13783390Y61204762D01*
X13783390Y61204762D02*
X13783390Y61395238D01*
X13783390Y61395238D02*
X13831009Y61490476D01*
X13831009Y61490476D02*
X13878628Y61538095D01*
X13878628Y61538095D02*
X13973866Y61585714D01*
X13973866Y61585714D02*
X14164342Y61585714D01*
X14164342Y61585714D02*
X14259580Y61538095D01*
X14259580Y61538095D02*
X14307200Y61490476D01*
X14307200Y61490476D02*
X14354819Y61395238D01*
X14354819Y61395238D02*
X14354819Y61204762D01*
X14354819Y61204762D02*
X14307200Y61109524D01*
X14307200Y61109524D02*
X14259580Y61061905D01*
X14259580Y61061905D02*
X14164342Y61014286D01*
X14164342Y61014286D02*
X13973866Y61014286D01*
X13973866Y61014286D02*
X13878628Y61061905D01*
X13878628Y61061905D02*
X13831009Y61109524D01*
X13831009Y61109524D02*
X13783390Y61204762D01*
X15612295Y76739286D02*
X15231342Y77005953D01*
X15612295Y77196429D02*
X14812295Y77196429D01*
X14812295Y77196429D02*
X14812295Y76891667D01*
X14812295Y76891667D02*
X14850390Y76815477D01*
X14850390Y76815477D02*
X14888485Y76777382D01*
X14888485Y76777382D02*
X14964676Y76739286D01*
X14964676Y76739286D02*
X15078961Y76739286D01*
X15078961Y76739286D02*
X15155152Y76777382D01*
X15155152Y76777382D02*
X15193247Y76815477D01*
X15193247Y76815477D02*
X15231342Y76891667D01*
X15231342Y76891667D02*
X15231342Y77196429D01*
X14812295Y76015477D02*
X14812295Y76396429D01*
X14812295Y76396429D02*
X15193247Y76434525D01*
X15193247Y76434525D02*
X15155152Y76396429D01*
X15155152Y76396429D02*
X15117057Y76320239D01*
X15117057Y76320239D02*
X15117057Y76129763D01*
X15117057Y76129763D02*
X15155152Y76053572D01*
X15155152Y76053572D02*
X15193247Y76015477D01*
X15193247Y76015477D02*
X15269438Y75977382D01*
X15269438Y75977382D02*
X15459914Y75977382D01*
X15459914Y75977382D02*
X15536104Y76015477D01*
X15536104Y76015477D02*
X15574200Y76053572D01*
X15574200Y76053572D02*
X15612295Y76129763D01*
X15612295Y76129763D02*
X15612295Y76320239D01*
X15612295Y76320239D02*
X15574200Y76396429D01*
X15574200Y76396429D02*
X15536104Y76434525D01*
X14812295Y75710715D02*
X14812295Y75177381D01*
X14812295Y75177381D02*
X15612295Y75520239D01*
X10686104Y15939286D02*
X10724200Y15977382D01*
X10724200Y15977382D02*
X10762295Y16091667D01*
X10762295Y16091667D02*
X10762295Y16167858D01*
X10762295Y16167858D02*
X10724200Y16282144D01*
X10724200Y16282144D02*
X10648009Y16358334D01*
X10648009Y16358334D02*
X10571819Y16396429D01*
X10571819Y16396429D02*
X10419438Y16434525D01*
X10419438Y16434525D02*
X10305152Y16434525D01*
X10305152Y16434525D02*
X10152771Y16396429D01*
X10152771Y16396429D02*
X10076580Y16358334D01*
X10076580Y16358334D02*
X10000390Y16282144D01*
X10000390Y16282144D02*
X9962295Y16167858D01*
X9962295Y16167858D02*
X9962295Y16091667D01*
X9962295Y16091667D02*
X10000390Y15977382D01*
X10000390Y15977382D02*
X10038485Y15939286D01*
X9962295Y15672620D02*
X9962295Y15177382D01*
X9962295Y15177382D02*
X10267057Y15444048D01*
X10267057Y15444048D02*
X10267057Y15329763D01*
X10267057Y15329763D02*
X10305152Y15253572D01*
X10305152Y15253572D02*
X10343247Y15215477D01*
X10343247Y15215477D02*
X10419438Y15177382D01*
X10419438Y15177382D02*
X10609914Y15177382D01*
X10609914Y15177382D02*
X10686104Y15215477D01*
X10686104Y15215477D02*
X10724200Y15253572D01*
X10724200Y15253572D02*
X10762295Y15329763D01*
X10762295Y15329763D02*
X10762295Y15558334D01*
X10762295Y15558334D02*
X10724200Y15634525D01*
X10724200Y15634525D02*
X10686104Y15672620D01*
X9962295Y14910715D02*
X9962295Y14415477D01*
X9962295Y14415477D02*
X10267057Y14682143D01*
X10267057Y14682143D02*
X10267057Y14567858D01*
X10267057Y14567858D02*
X10305152Y14491667D01*
X10305152Y14491667D02*
X10343247Y14453572D01*
X10343247Y14453572D02*
X10419438Y14415477D01*
X10419438Y14415477D02*
X10609914Y14415477D01*
X10609914Y14415477D02*
X10686104Y14453572D01*
X10686104Y14453572D02*
X10724200Y14491667D01*
X10724200Y14491667D02*
X10762295Y14567858D01*
X10762295Y14567858D02*
X10762295Y14796429D01*
X10762295Y14796429D02*
X10724200Y14872620D01*
X10724200Y14872620D02*
X10686104Y14910715D01*
X21014285Y50963896D02*
X21052381Y50925800D01*
X21052381Y50925800D02*
X21166666Y50887705D01*
X21166666Y50887705D02*
X21242857Y50887705D01*
X21242857Y50887705D02*
X21357143Y50925800D01*
X21357143Y50925800D02*
X21433333Y51001991D01*
X21433333Y51001991D02*
X21471428Y51078181D01*
X21471428Y51078181D02*
X21509524Y51230562D01*
X21509524Y51230562D02*
X21509524Y51344848D01*
X21509524Y51344848D02*
X21471428Y51497229D01*
X21471428Y51497229D02*
X21433333Y51573420D01*
X21433333Y51573420D02*
X21357143Y51649610D01*
X21357143Y51649610D02*
X21242857Y51687705D01*
X21242857Y51687705D02*
X21166666Y51687705D01*
X21166666Y51687705D02*
X21052381Y51649610D01*
X21052381Y51649610D02*
X21014285Y51611515D01*
X20252381Y50887705D02*
X20709524Y50887705D01*
X20480952Y50887705D02*
X20480952Y51687705D01*
X20480952Y51687705D02*
X20557143Y51573420D01*
X20557143Y51573420D02*
X20633333Y51497229D01*
X20633333Y51497229D02*
X20709524Y51459134D01*
X19985714Y51687705D02*
X19490476Y51687705D01*
X19490476Y51687705D02*
X19757142Y51382943D01*
X19757142Y51382943D02*
X19642857Y51382943D01*
X19642857Y51382943D02*
X19566666Y51344848D01*
X19566666Y51344848D02*
X19528571Y51306753D01*
X19528571Y51306753D02*
X19490476Y51230562D01*
X19490476Y51230562D02*
X19490476Y51040086D01*
X19490476Y51040086D02*
X19528571Y50963896D01*
X19528571Y50963896D02*
X19566666Y50925800D01*
X19566666Y50925800D02*
X19642857Y50887705D01*
X19642857Y50887705D02*
X19871428Y50887705D01*
X19871428Y50887705D02*
X19947619Y50925800D01*
X19947619Y50925800D02*
X19985714Y50963896D01*
X20283332Y52963896D02*
X20321428Y52925800D01*
X20321428Y52925800D02*
X20435713Y52887705D01*
X20435713Y52887705D02*
X20511904Y52887705D01*
X20511904Y52887705D02*
X20626190Y52925800D01*
X20626190Y52925800D02*
X20702380Y53001991D01*
X20702380Y53001991D02*
X20740475Y53078181D01*
X20740475Y53078181D02*
X20778571Y53230562D01*
X20778571Y53230562D02*
X20778571Y53344848D01*
X20778571Y53344848D02*
X20740475Y53497229D01*
X20740475Y53497229D02*
X20702380Y53573420D01*
X20702380Y53573420D02*
X20626190Y53649610D01*
X20626190Y53649610D02*
X20511904Y53687705D01*
X20511904Y53687705D02*
X20435713Y53687705D01*
X20435713Y53687705D02*
X20321428Y53649610D01*
X20321428Y53649610D02*
X20283332Y53611515D01*
X19978571Y53611515D02*
X19940475Y53649610D01*
X19940475Y53649610D02*
X19864285Y53687705D01*
X19864285Y53687705D02*
X19673809Y53687705D01*
X19673809Y53687705D02*
X19597618Y53649610D01*
X19597618Y53649610D02*
X19559523Y53611515D01*
X19559523Y53611515D02*
X19521428Y53535324D01*
X19521428Y53535324D02*
X19521428Y53459134D01*
X19521428Y53459134D02*
X19559523Y53344848D01*
X19559523Y53344848D02*
X20016666Y52887705D01*
X20016666Y52887705D02*
X19521428Y52887705D01*
X7669285Y45413896D02*
X7707381Y45375800D01*
X7707381Y45375800D02*
X7821666Y45337705D01*
X7821666Y45337705D02*
X7897857Y45337705D01*
X7897857Y45337705D02*
X8012143Y45375800D01*
X8012143Y45375800D02*
X8088333Y45451991D01*
X8088333Y45451991D02*
X8126428Y45528181D01*
X8126428Y45528181D02*
X8164524Y45680562D01*
X8164524Y45680562D02*
X8164524Y45794848D01*
X8164524Y45794848D02*
X8126428Y45947229D01*
X8126428Y45947229D02*
X8088333Y46023420D01*
X8088333Y46023420D02*
X8012143Y46099610D01*
X8012143Y46099610D02*
X7897857Y46137705D01*
X7897857Y46137705D02*
X7821666Y46137705D01*
X7821666Y46137705D02*
X7707381Y46099610D01*
X7707381Y46099610D02*
X7669285Y46061515D01*
X7402619Y46137705D02*
X6907381Y46137705D01*
X6907381Y46137705D02*
X7174047Y45832943D01*
X7174047Y45832943D02*
X7059762Y45832943D01*
X7059762Y45832943D02*
X6983571Y45794848D01*
X6983571Y45794848D02*
X6945476Y45756753D01*
X6945476Y45756753D02*
X6907381Y45680562D01*
X6907381Y45680562D02*
X6907381Y45490086D01*
X6907381Y45490086D02*
X6945476Y45413896D01*
X6945476Y45413896D02*
X6983571Y45375800D01*
X6983571Y45375800D02*
X7059762Y45337705D01*
X7059762Y45337705D02*
X7288333Y45337705D01*
X7288333Y45337705D02*
X7364524Y45375800D01*
X7364524Y45375800D02*
X7402619Y45413896D01*
X6412142Y46137705D02*
X6335952Y46137705D01*
X6335952Y46137705D02*
X6259761Y46099610D01*
X6259761Y46099610D02*
X6221666Y46061515D01*
X6221666Y46061515D02*
X6183571Y45985324D01*
X6183571Y45985324D02*
X6145476Y45832943D01*
X6145476Y45832943D02*
X6145476Y45642467D01*
X6145476Y45642467D02*
X6183571Y45490086D01*
X6183571Y45490086D02*
X6221666Y45413896D01*
X6221666Y45413896D02*
X6259761Y45375800D01*
X6259761Y45375800D02*
X6335952Y45337705D01*
X6335952Y45337705D02*
X6412142Y45337705D01*
X6412142Y45337705D02*
X6488333Y45375800D01*
X6488333Y45375800D02*
X6526428Y45413896D01*
X6526428Y45413896D02*
X6564523Y45490086D01*
X6564523Y45490086D02*
X6602619Y45642467D01*
X6602619Y45642467D02*
X6602619Y45832943D01*
X6602619Y45832943D02*
X6564523Y45985324D01*
X6564523Y45985324D02*
X6526428Y46061515D01*
X6526428Y46061515D02*
X6488333Y46099610D01*
X6488333Y46099610D02*
X6412142Y46137705D01*
X9754819Y19188095D02*
X8754819Y19188095D01*
X8754819Y19188095D02*
X8754819Y18950000D01*
X8754819Y18950000D02*
X8802438Y18807143D01*
X8802438Y18807143D02*
X8897676Y18711905D01*
X8897676Y18711905D02*
X8992914Y18664286D01*
X8992914Y18664286D02*
X9183390Y18616667D01*
X9183390Y18616667D02*
X9326247Y18616667D01*
X9326247Y18616667D02*
X9516723Y18664286D01*
X9516723Y18664286D02*
X9611961Y18711905D01*
X9611961Y18711905D02*
X9707200Y18807143D01*
X9707200Y18807143D02*
X9754819Y18950000D01*
X9754819Y18950000D02*
X9754819Y19188095D01*
X9754819Y18140476D02*
X9754819Y17950000D01*
X9754819Y17950000D02*
X9707200Y17854762D01*
X9707200Y17854762D02*
X9659580Y17807143D01*
X9659580Y17807143D02*
X9516723Y17711905D01*
X9516723Y17711905D02*
X9326247Y17664286D01*
X9326247Y17664286D02*
X8945295Y17664286D01*
X8945295Y17664286D02*
X8850057Y17711905D01*
X8850057Y17711905D02*
X8802438Y17759524D01*
X8802438Y17759524D02*
X8754819Y17854762D01*
X8754819Y17854762D02*
X8754819Y18045238D01*
X8754819Y18045238D02*
X8802438Y18140476D01*
X8802438Y18140476D02*
X8850057Y18188095D01*
X8850057Y18188095D02*
X8945295Y18235714D01*
X8945295Y18235714D02*
X9183390Y18235714D01*
X9183390Y18235714D02*
X9278628Y18188095D01*
X9278628Y18188095D02*
X9326247Y18140476D01*
X9326247Y18140476D02*
X9373866Y18045238D01*
X9373866Y18045238D02*
X9373866Y17854762D01*
X9373866Y17854762D02*
X9326247Y17759524D01*
X9326247Y17759524D02*
X9278628Y17711905D01*
X9278628Y17711905D02*
X9183390Y17664286D01*
X15144285Y70867705D02*
X15410952Y71248658D01*
X15601428Y70867705D02*
X15601428Y71667705D01*
X15601428Y71667705D02*
X15296666Y71667705D01*
X15296666Y71667705D02*
X15220476Y71629610D01*
X15220476Y71629610D02*
X15182381Y71591515D01*
X15182381Y71591515D02*
X15144285Y71515324D01*
X15144285Y71515324D02*
X15144285Y71401039D01*
X15144285Y71401039D02*
X15182381Y71324848D01*
X15182381Y71324848D02*
X15220476Y71286753D01*
X15220476Y71286753D02*
X15296666Y71248658D01*
X15296666Y71248658D02*
X15601428Y71248658D01*
X14382381Y70867705D02*
X14839524Y70867705D01*
X14610952Y70867705D02*
X14610952Y71667705D01*
X14610952Y71667705D02*
X14687143Y71553420D01*
X14687143Y71553420D02*
X14763333Y71477229D01*
X14763333Y71477229D02*
X14839524Y71439134D01*
X14115714Y71667705D02*
X13582380Y71667705D01*
X13582380Y71667705D02*
X13925238Y70867705D01*
X7689285Y49663896D02*
X7727381Y49625800D01*
X7727381Y49625800D02*
X7841666Y49587705D01*
X7841666Y49587705D02*
X7917857Y49587705D01*
X7917857Y49587705D02*
X8032143Y49625800D01*
X8032143Y49625800D02*
X8108333Y49701991D01*
X8108333Y49701991D02*
X8146428Y49778181D01*
X8146428Y49778181D02*
X8184524Y49930562D01*
X8184524Y49930562D02*
X8184524Y50044848D01*
X8184524Y50044848D02*
X8146428Y50197229D01*
X8146428Y50197229D02*
X8108333Y50273420D01*
X8108333Y50273420D02*
X8032143Y50349610D01*
X8032143Y50349610D02*
X7917857Y50387705D01*
X7917857Y50387705D02*
X7841666Y50387705D01*
X7841666Y50387705D02*
X7727381Y50349610D01*
X7727381Y50349610D02*
X7689285Y50311515D01*
X7384524Y50311515D02*
X7346428Y50349610D01*
X7346428Y50349610D02*
X7270238Y50387705D01*
X7270238Y50387705D02*
X7079762Y50387705D01*
X7079762Y50387705D02*
X7003571Y50349610D01*
X7003571Y50349610D02*
X6965476Y50311515D01*
X6965476Y50311515D02*
X6927381Y50235324D01*
X6927381Y50235324D02*
X6927381Y50159134D01*
X6927381Y50159134D02*
X6965476Y50044848D01*
X6965476Y50044848D02*
X7422619Y49587705D01*
X7422619Y49587705D02*
X6927381Y49587705D01*
X6241666Y50387705D02*
X6394047Y50387705D01*
X6394047Y50387705D02*
X6470238Y50349610D01*
X6470238Y50349610D02*
X6508333Y50311515D01*
X6508333Y50311515D02*
X6584523Y50197229D01*
X6584523Y50197229D02*
X6622619Y50044848D01*
X6622619Y50044848D02*
X6622619Y49740086D01*
X6622619Y49740086D02*
X6584523Y49663896D01*
X6584523Y49663896D02*
X6546428Y49625800D01*
X6546428Y49625800D02*
X6470238Y49587705D01*
X6470238Y49587705D02*
X6317857Y49587705D01*
X6317857Y49587705D02*
X6241666Y49625800D01*
X6241666Y49625800D02*
X6203571Y49663896D01*
X6203571Y49663896D02*
X6165476Y49740086D01*
X6165476Y49740086D02*
X6165476Y49930562D01*
X6165476Y49930562D02*
X6203571Y50006753D01*
X6203571Y50006753D02*
X6241666Y50044848D01*
X6241666Y50044848D02*
X6317857Y50082943D01*
X6317857Y50082943D02*
X6470238Y50082943D01*
X6470238Y50082943D02*
X6546428Y50044848D01*
X6546428Y50044848D02*
X6584523Y50006753D01*
X6584523Y50006753D02*
X6622619Y49930562D01*
X13136104Y46264286D02*
X13174200Y46302382D01*
X13174200Y46302382D02*
X13212295Y46416667D01*
X13212295Y46416667D02*
X13212295Y46492858D01*
X13212295Y46492858D02*
X13174200Y46607144D01*
X13174200Y46607144D02*
X13098009Y46683334D01*
X13098009Y46683334D02*
X13021819Y46721429D01*
X13021819Y46721429D02*
X12869438Y46759525D01*
X12869438Y46759525D02*
X12755152Y46759525D01*
X12755152Y46759525D02*
X12602771Y46721429D01*
X12602771Y46721429D02*
X12526580Y46683334D01*
X12526580Y46683334D02*
X12450390Y46607144D01*
X12450390Y46607144D02*
X12412295Y46492858D01*
X12412295Y46492858D02*
X12412295Y46416667D01*
X12412295Y46416667D02*
X12450390Y46302382D01*
X12450390Y46302382D02*
X12488485Y46264286D01*
X13212295Y45502382D02*
X13212295Y45959525D01*
X13212295Y45730953D02*
X12412295Y45730953D01*
X12412295Y45730953D02*
X12526580Y45807144D01*
X12526580Y45807144D02*
X12602771Y45883334D01*
X12602771Y45883334D02*
X12640866Y45959525D01*
X12412295Y44816667D02*
X12412295Y44969048D01*
X12412295Y44969048D02*
X12450390Y45045239D01*
X12450390Y45045239D02*
X12488485Y45083334D01*
X12488485Y45083334D02*
X12602771Y45159524D01*
X12602771Y45159524D02*
X12755152Y45197620D01*
X12755152Y45197620D02*
X13059914Y45197620D01*
X13059914Y45197620D02*
X13136104Y45159524D01*
X13136104Y45159524D02*
X13174200Y45121429D01*
X13174200Y45121429D02*
X13212295Y45045239D01*
X13212295Y45045239D02*
X13212295Y44892858D01*
X13212295Y44892858D02*
X13174200Y44816667D01*
X13174200Y44816667D02*
X13136104Y44778572D01*
X13136104Y44778572D02*
X13059914Y44740477D01*
X13059914Y44740477D02*
X12869438Y44740477D01*
X12869438Y44740477D02*
X12793247Y44778572D01*
X12793247Y44778572D02*
X12755152Y44816667D01*
X12755152Y44816667D02*
X12717057Y44892858D01*
X12717057Y44892858D02*
X12717057Y45045239D01*
X12717057Y45045239D02*
X12755152Y45121429D01*
X12755152Y45121429D02*
X12793247Y45159524D01*
X12793247Y45159524D02*
X12869438Y45197620D01*
X7664285Y50713896D02*
X7702381Y50675800D01*
X7702381Y50675800D02*
X7816666Y50637705D01*
X7816666Y50637705D02*
X7892857Y50637705D01*
X7892857Y50637705D02*
X8007143Y50675800D01*
X8007143Y50675800D02*
X8083333Y50751991D01*
X8083333Y50751991D02*
X8121428Y50828181D01*
X8121428Y50828181D02*
X8159524Y50980562D01*
X8159524Y50980562D02*
X8159524Y51094848D01*
X8159524Y51094848D02*
X8121428Y51247229D01*
X8121428Y51247229D02*
X8083333Y51323420D01*
X8083333Y51323420D02*
X8007143Y51399610D01*
X8007143Y51399610D02*
X7892857Y51437705D01*
X7892857Y51437705D02*
X7816666Y51437705D01*
X7816666Y51437705D02*
X7702381Y51399610D01*
X7702381Y51399610D02*
X7664285Y51361515D01*
X7359524Y51361515D02*
X7321428Y51399610D01*
X7321428Y51399610D02*
X7245238Y51437705D01*
X7245238Y51437705D02*
X7054762Y51437705D01*
X7054762Y51437705D02*
X6978571Y51399610D01*
X6978571Y51399610D02*
X6940476Y51361515D01*
X6940476Y51361515D02*
X6902381Y51285324D01*
X6902381Y51285324D02*
X6902381Y51209134D01*
X6902381Y51209134D02*
X6940476Y51094848D01*
X6940476Y51094848D02*
X7397619Y50637705D01*
X7397619Y50637705D02*
X6902381Y50637705D01*
X6178571Y51437705D02*
X6559523Y51437705D01*
X6559523Y51437705D02*
X6597619Y51056753D01*
X6597619Y51056753D02*
X6559523Y51094848D01*
X6559523Y51094848D02*
X6483333Y51132943D01*
X6483333Y51132943D02*
X6292857Y51132943D01*
X6292857Y51132943D02*
X6216666Y51094848D01*
X6216666Y51094848D02*
X6178571Y51056753D01*
X6178571Y51056753D02*
X6140476Y50980562D01*
X6140476Y50980562D02*
X6140476Y50790086D01*
X6140476Y50790086D02*
X6178571Y50713896D01*
X6178571Y50713896D02*
X6216666Y50675800D01*
X6216666Y50675800D02*
X6292857Y50637705D01*
X6292857Y50637705D02*
X6483333Y50637705D01*
X6483333Y50637705D02*
X6559523Y50675800D01*
X6559523Y50675800D02*
X6597619Y50713896D01*
X17236104Y46164286D02*
X17274200Y46202382D01*
X17274200Y46202382D02*
X17312295Y46316667D01*
X17312295Y46316667D02*
X17312295Y46392858D01*
X17312295Y46392858D02*
X17274200Y46507144D01*
X17274200Y46507144D02*
X17198009Y46583334D01*
X17198009Y46583334D02*
X17121819Y46621429D01*
X17121819Y46621429D02*
X16969438Y46659525D01*
X16969438Y46659525D02*
X16855152Y46659525D01*
X16855152Y46659525D02*
X16702771Y46621429D01*
X16702771Y46621429D02*
X16626580Y46583334D01*
X16626580Y46583334D02*
X16550390Y46507144D01*
X16550390Y46507144D02*
X16512295Y46392858D01*
X16512295Y46392858D02*
X16512295Y46316667D01*
X16512295Y46316667D02*
X16550390Y46202382D01*
X16550390Y46202382D02*
X16588485Y46164286D01*
X17312295Y45402382D02*
X17312295Y45859525D01*
X17312295Y45630953D02*
X16512295Y45630953D01*
X16512295Y45630953D02*
X16626580Y45707144D01*
X16626580Y45707144D02*
X16702771Y45783334D01*
X16702771Y45783334D02*
X16740866Y45859525D01*
X16512295Y44907143D02*
X16512295Y44830953D01*
X16512295Y44830953D02*
X16550390Y44754762D01*
X16550390Y44754762D02*
X16588485Y44716667D01*
X16588485Y44716667D02*
X16664676Y44678572D01*
X16664676Y44678572D02*
X16817057Y44640477D01*
X16817057Y44640477D02*
X17007533Y44640477D01*
X17007533Y44640477D02*
X17159914Y44678572D01*
X17159914Y44678572D02*
X17236104Y44716667D01*
X17236104Y44716667D02*
X17274200Y44754762D01*
X17274200Y44754762D02*
X17312295Y44830953D01*
X17312295Y44830953D02*
X17312295Y44907143D01*
X17312295Y44907143D02*
X17274200Y44983334D01*
X17274200Y44983334D02*
X17236104Y45021429D01*
X17236104Y45021429D02*
X17159914Y45059524D01*
X17159914Y45059524D02*
X17007533Y45097620D01*
X17007533Y45097620D02*
X16817057Y45097620D01*
X16817057Y45097620D02*
X16664676Y45059524D01*
X16664676Y45059524D02*
X16588485Y45021429D01*
X16588485Y45021429D02*
X16550390Y44983334D01*
X16550390Y44983334D02*
X16512295Y44907143D01*
X7664285Y47563896D02*
X7702381Y47525800D01*
X7702381Y47525800D02*
X7816666Y47487705D01*
X7816666Y47487705D02*
X7892857Y47487705D01*
X7892857Y47487705D02*
X8007143Y47525800D01*
X8007143Y47525800D02*
X8083333Y47601991D01*
X8083333Y47601991D02*
X8121428Y47678181D01*
X8121428Y47678181D02*
X8159524Y47830562D01*
X8159524Y47830562D02*
X8159524Y47944848D01*
X8159524Y47944848D02*
X8121428Y48097229D01*
X8121428Y48097229D02*
X8083333Y48173420D01*
X8083333Y48173420D02*
X8007143Y48249610D01*
X8007143Y48249610D02*
X7892857Y48287705D01*
X7892857Y48287705D02*
X7816666Y48287705D01*
X7816666Y48287705D02*
X7702381Y48249610D01*
X7702381Y48249610D02*
X7664285Y48211515D01*
X7359524Y48211515D02*
X7321428Y48249610D01*
X7321428Y48249610D02*
X7245238Y48287705D01*
X7245238Y48287705D02*
X7054762Y48287705D01*
X7054762Y48287705D02*
X6978571Y48249610D01*
X6978571Y48249610D02*
X6940476Y48211515D01*
X6940476Y48211515D02*
X6902381Y48135324D01*
X6902381Y48135324D02*
X6902381Y48059134D01*
X6902381Y48059134D02*
X6940476Y47944848D01*
X6940476Y47944848D02*
X7397619Y47487705D01*
X7397619Y47487705D02*
X6902381Y47487705D01*
X6445238Y47944848D02*
X6521428Y47982943D01*
X6521428Y47982943D02*
X6559523Y48021039D01*
X6559523Y48021039D02*
X6597619Y48097229D01*
X6597619Y48097229D02*
X6597619Y48135324D01*
X6597619Y48135324D02*
X6559523Y48211515D01*
X6559523Y48211515D02*
X6521428Y48249610D01*
X6521428Y48249610D02*
X6445238Y48287705D01*
X6445238Y48287705D02*
X6292857Y48287705D01*
X6292857Y48287705D02*
X6216666Y48249610D01*
X6216666Y48249610D02*
X6178571Y48211515D01*
X6178571Y48211515D02*
X6140476Y48135324D01*
X6140476Y48135324D02*
X6140476Y48097229D01*
X6140476Y48097229D02*
X6178571Y48021039D01*
X6178571Y48021039D02*
X6216666Y47982943D01*
X6216666Y47982943D02*
X6292857Y47944848D01*
X6292857Y47944848D02*
X6445238Y47944848D01*
X6445238Y47944848D02*
X6521428Y47906753D01*
X6521428Y47906753D02*
X6559523Y47868658D01*
X6559523Y47868658D02*
X6597619Y47792467D01*
X6597619Y47792467D02*
X6597619Y47640086D01*
X6597619Y47640086D02*
X6559523Y47563896D01*
X6559523Y47563896D02*
X6521428Y47525800D01*
X6521428Y47525800D02*
X6445238Y47487705D01*
X6445238Y47487705D02*
X6292857Y47487705D01*
X6292857Y47487705D02*
X6216666Y47525800D01*
X6216666Y47525800D02*
X6178571Y47563896D01*
X6178571Y47563896D02*
X6140476Y47640086D01*
X6140476Y47640086D02*
X6140476Y47792467D01*
X6140476Y47792467D02*
X6178571Y47868658D01*
X6178571Y47868658D02*
X6216666Y47906753D01*
X6216666Y47906753D02*
X6292857Y47944848D01*
X7664285Y46488896D02*
X7702381Y46450800D01*
X7702381Y46450800D02*
X7816666Y46412705D01*
X7816666Y46412705D02*
X7892857Y46412705D01*
X7892857Y46412705D02*
X8007143Y46450800D01*
X8007143Y46450800D02*
X8083333Y46526991D01*
X8083333Y46526991D02*
X8121428Y46603181D01*
X8121428Y46603181D02*
X8159524Y46755562D01*
X8159524Y46755562D02*
X8159524Y46869848D01*
X8159524Y46869848D02*
X8121428Y47022229D01*
X8121428Y47022229D02*
X8083333Y47098420D01*
X8083333Y47098420D02*
X8007143Y47174610D01*
X8007143Y47174610D02*
X7892857Y47212705D01*
X7892857Y47212705D02*
X7816666Y47212705D01*
X7816666Y47212705D02*
X7702381Y47174610D01*
X7702381Y47174610D02*
X7664285Y47136515D01*
X7359524Y47136515D02*
X7321428Y47174610D01*
X7321428Y47174610D02*
X7245238Y47212705D01*
X7245238Y47212705D02*
X7054762Y47212705D01*
X7054762Y47212705D02*
X6978571Y47174610D01*
X6978571Y47174610D02*
X6940476Y47136515D01*
X6940476Y47136515D02*
X6902381Y47060324D01*
X6902381Y47060324D02*
X6902381Y46984134D01*
X6902381Y46984134D02*
X6940476Y46869848D01*
X6940476Y46869848D02*
X7397619Y46412705D01*
X7397619Y46412705D02*
X6902381Y46412705D01*
X6521428Y46412705D02*
X6369047Y46412705D01*
X6369047Y46412705D02*
X6292857Y46450800D01*
X6292857Y46450800D02*
X6254761Y46488896D01*
X6254761Y46488896D02*
X6178571Y46603181D01*
X6178571Y46603181D02*
X6140476Y46755562D01*
X6140476Y46755562D02*
X6140476Y47060324D01*
X6140476Y47060324D02*
X6178571Y47136515D01*
X6178571Y47136515D02*
X6216666Y47174610D01*
X6216666Y47174610D02*
X6292857Y47212705D01*
X6292857Y47212705D02*
X6445238Y47212705D01*
X6445238Y47212705D02*
X6521428Y47174610D01*
X6521428Y47174610D02*
X6559523Y47136515D01*
X6559523Y47136515D02*
X6597619Y47060324D01*
X6597619Y47060324D02*
X6597619Y46869848D01*
X6597619Y46869848D02*
X6559523Y46793658D01*
X6559523Y46793658D02*
X6521428Y46755562D01*
X6521428Y46755562D02*
X6445238Y46717467D01*
X6445238Y46717467D02*
X6292857Y46717467D01*
X6292857Y46717467D02*
X6216666Y46755562D01*
X6216666Y46755562D02*
X6178571Y46793658D01*
X6178571Y46793658D02*
X6140476Y46869848D01*
D13*
%TO.C,C14*%
X13719212Y55098624D02*
X13719212Y54882952D01*
X14439212Y55098624D02*
X14439212Y54882952D01*
%TO.C,C4*%
X14944212Y55098624D02*
X14944212Y54882952D01*
X15664212Y55098624D02*
X15664212Y54882952D01*
%TO.C,C3*%
X16944212Y55073624D02*
X16944212Y54857952D01*
X17664212Y55073624D02*
X17664212Y54857952D01*
%TO.C,C8*%
X10319212Y48012952D02*
X10319212Y48228624D01*
X11039212Y48012952D02*
X11039212Y48228624D01*
%TO.C,C7*%
X11066376Y52305788D02*
X11282048Y52305788D01*
X11066376Y51585788D02*
X11282048Y51585788D01*
%TO.C,C5*%
X11071376Y55605788D02*
X11287048Y55605788D01*
X11071376Y54885788D02*
X11287048Y54885788D01*
%TO.C,C15*%
X11066376Y51355788D02*
X11282048Y51355788D01*
X11066376Y50635788D02*
X11282048Y50635788D01*
%TO.C,C31*%
X5032048Y45180788D02*
X4816376Y45180788D01*
X5032048Y44460788D02*
X4816376Y44460788D01*
%TO.C,C27*%
X5037048Y49130788D02*
X4821376Y49130788D01*
X5037048Y48410788D02*
X4821376Y48410788D01*
%TO.C,D1*%
X12040000Y70460000D02*
X12040000Y70150000D01*
X12040000Y70460000D02*
X13200000Y70460000D01*
X12040000Y68540000D02*
X12040000Y68850000D01*
X12040000Y68540000D02*
X13200000Y68540000D01*
D11*
X13925000Y70000000D02*
G75*
G02*
X13775000Y70000000I-75000J0D01*
G01*
X13775000Y70000000D02*
G75*
G02*
X13925000Y70000000I75000J0D01*
G01*
D13*
%TO.C,C9*%
X13719212Y47837952D02*
X13719212Y48053624D01*
X14439212Y47837952D02*
X14439212Y48053624D01*
%TO.C,R18*%
X12416359Y68110000D02*
X12723641Y68110000D01*
X12416359Y67350000D02*
X12723641Y67350000D01*
%TO.C,C32*%
X5032048Y44205788D02*
X4816376Y44205788D01*
X5032048Y43485788D02*
X4816376Y43485788D01*
%TO.C,C1*%
X18217048Y49630788D02*
X18001376Y49630788D01*
X18217048Y48910788D02*
X18001376Y48910788D01*
%TO.C,D8*%
X14750000Y65310000D02*
X14750000Y59800000D01*
X14750000Y65310000D02*
X18050000Y65310000D01*
X18050000Y65310000D02*
X18050000Y59800000D01*
%TO.C,R57*%
X15990000Y75527064D02*
X15990000Y74072936D01*
X17810000Y75527064D02*
X17810000Y74072936D01*
%TO.C,C33*%
X11165000Y15367164D02*
X11165000Y15582836D01*
X11885000Y15367164D02*
X11885000Y15582836D01*
%TO.C,C13*%
X18362048Y51630788D02*
X18146376Y51630788D01*
X18362048Y50910788D02*
X18146376Y50910788D01*
%TO.C,C2*%
X18362048Y53605788D02*
X18146376Y53605788D01*
X18362048Y52885788D02*
X18146376Y52885788D01*
%TO.C,C30*%
X5037048Y46155788D02*
X4821376Y46155788D01*
X5037048Y45435788D02*
X4821376Y45435788D01*
%TO.C,D9*%
X10390000Y19080000D02*
X10390000Y17670000D01*
X10390000Y17670000D02*
X11050000Y17670000D01*
X12050000Y17670000D02*
X12710000Y17670000D01*
X12710000Y19080000D02*
X12710000Y17670000D01*
X10410000Y19450000D02*
X10080000Y19210000D01*
X10080000Y19690000D01*
X10410000Y19450000D01*
G36*
X10410000Y19450000D02*
G01*
X10080000Y19210000D01*
X10080000Y19690000D01*
X10410000Y19450000D01*
G37*
%TO.C,R17*%
X12406359Y71640000D02*
X12713641Y71640000D01*
X12406359Y70880000D02*
X12713641Y70880000D01*
%TO.C,C26*%
X5057048Y50105788D02*
X4841376Y50105788D01*
X5057048Y49385788D02*
X4841376Y49385788D01*
%TO.C,C16*%
X12394212Y47837952D02*
X12394212Y48053624D01*
X13114212Y47837952D02*
X13114212Y48053624D01*
%TO.C,C25*%
X5057048Y51080788D02*
X4841376Y51080788D01*
X5057048Y50360788D02*
X4841376Y50360788D01*
%TO.C,C10*%
X16519212Y47762952D02*
X16519212Y47978624D01*
X17239212Y47762952D02*
X17239212Y47978624D01*
%TO.C,C28*%
X5032048Y48130788D02*
X4816376Y48130788D01*
X5032048Y47410788D02*
X4816376Y47410788D01*
%TO.C,C29*%
X5032048Y47130788D02*
X4816376Y47130788D01*
X5032048Y46410788D02*
X4816376Y46410788D01*
%TD*%
%LPC*%
D11*
X12900000Y53150000D02*
X16400000Y53150000D01*
X16400000Y49700000D01*
X12900000Y49700000D01*
X12900000Y53150000D01*
G36*
X12900000Y53150000D02*
G01*
X16400000Y53150000D01*
X16400000Y49700000D01*
X12900000Y49700000D01*
X12900000Y53150000D01*
G37*
X17150000Y36100000D02*
X20300000Y36100000D01*
X20300000Y32050000D01*
X17150000Y32050000D01*
X17150000Y36100000D01*
G36*
X17150000Y36100000D02*
G01*
X20300000Y36100000D01*
X20300000Y32050000D01*
X17150000Y32050000D01*
X17150000Y36100000D01*
G37*
X5650000Y69850000D02*
X7850000Y69850000D01*
X7850000Y68350000D01*
X5650000Y68350000D01*
X5650000Y69850000D01*
G36*
X5650000Y69850000D02*
G01*
X7850000Y69850000D01*
X7850000Y68350000D01*
X5650000Y68350000D01*
X5650000Y69850000D01*
G37*
D14*
%TO.C,J3*%
X26365000Y75620000D03*
X20585000Y75620000D03*
D15*
X27795000Y75120000D03*
D16*
X27795000Y79300000D03*
D15*
X19155000Y75120000D03*
D16*
X19155000Y79300000D03*
%TD*%
D17*
%TO.C,J1*%
X23675000Y1850000D03*
X23175000Y1850000D03*
X22675000Y1850000D03*
X22175000Y1850000D03*
X21675000Y1850000D03*
X21175000Y1850000D03*
X20675000Y1850000D03*
X20175000Y1850000D03*
X19675000Y1850000D03*
X19175000Y1850000D03*
X18675000Y1850000D03*
X18175000Y1850000D03*
X17675000Y1850000D03*
X17175000Y1850000D03*
X16675000Y1850000D03*
X16175000Y1850000D03*
X15675000Y1850000D03*
X15175000Y1850000D03*
X14675000Y1850000D03*
X14175000Y1850000D03*
X13675000Y1850000D03*
X13175000Y1850000D03*
X12675000Y1850000D03*
X12175000Y1850000D03*
X11675000Y1850000D03*
X11175000Y1850000D03*
X10675000Y1850000D03*
X10175000Y1850000D03*
X9675000Y1850000D03*
X7175000Y1850000D03*
X6675000Y1850000D03*
X6175000Y1850000D03*
X5675000Y1850000D03*
D18*
X14721447Y80770000D03*
%TD*%
D19*
%TO.C,IC1*%
X15529212Y50595788D03*
X15529212Y51445788D03*
X15529212Y52295788D03*
X14679212Y50595788D03*
X14679212Y51445788D03*
X14679212Y52295788D03*
X13829212Y50595788D03*
X13829212Y51445788D03*
X13829212Y52295788D03*
%TD*%
D20*
%TO.C,C14*%
X14079212Y55470788D03*
X14079212Y54510788D03*
%TD*%
%TO.C,C4*%
X15304212Y55470788D03*
X15304212Y54510788D03*
%TD*%
%TO.C,C3*%
X17304212Y55445788D03*
X17304212Y54485788D03*
%TD*%
D21*
%TO.C,C8*%
X10679212Y47640788D03*
X10679212Y48600788D03*
%TD*%
D22*
%TO.C,C7*%
X10694212Y51945788D03*
X11654212Y51945788D03*
%TD*%
%TO.C,C5*%
X10699212Y55245788D03*
X11659212Y55245788D03*
%TD*%
%TO.C,C15*%
X10694212Y50995788D03*
X11654212Y50995788D03*
%TD*%
D23*
%TO.C,C31*%
X5404212Y44820788D03*
X4444212Y44820788D03*
%TD*%
%TO.C,C27*%
X5409212Y48770788D03*
X4449212Y48770788D03*
%TD*%
D24*
%TO.C,D1*%
X13200000Y70000000D03*
X13200000Y69000000D03*
X11900000Y69500000D03*
%TD*%
D21*
%TO.C,C9*%
X14079212Y47465788D03*
X14079212Y48425788D03*
%TD*%
D25*
%TO.C,R18*%
X12060000Y67730000D03*
X13080000Y67730000D03*
%TD*%
D23*
%TO.C,C32*%
X5404212Y43845788D03*
X4444212Y43845788D03*
%TD*%
%TO.C,C1*%
X18589212Y49270788D03*
X17629212Y49270788D03*
%TD*%
D26*
%TO.C,D8*%
X16400000Y63800000D03*
X16400000Y59800000D03*
%TD*%
D27*
%TO.C,R57*%
X16900000Y76262500D03*
X16900000Y73337500D03*
%TD*%
D21*
%TO.C,C33*%
X11525000Y14995000D03*
X11525000Y15955000D03*
%TD*%
D23*
%TO.C,C13*%
X18734212Y51270788D03*
X17774212Y51270788D03*
%TD*%
%TO.C,C2*%
X18734212Y53245788D03*
X17774212Y53245788D03*
%TD*%
%TO.C,C30*%
X5409212Y45795788D03*
X4449212Y45795788D03*
%TD*%
D28*
%TO.C,D9*%
X10900000Y19400000D03*
X12200000Y19400000D03*
X11550000Y17400000D03*
%TD*%
D25*
%TO.C,R17*%
X12050000Y71260000D03*
X13070000Y71260000D03*
%TD*%
D23*
%TO.C,C26*%
X5429212Y49745788D03*
X4469212Y49745788D03*
%TD*%
D21*
%TO.C,C16*%
X12754212Y47465788D03*
X12754212Y48425788D03*
%TD*%
D23*
%TO.C,C25*%
X5429212Y50720788D03*
X4469212Y50720788D03*
%TD*%
D21*
%TO.C,C10*%
X16879212Y47390788D03*
X16879212Y48350788D03*
%TD*%
D23*
%TO.C,C28*%
X5404212Y47770788D03*
X4444212Y47770788D03*
%TD*%
%TO.C,C29*%
X5404212Y46770788D03*
X4444212Y46770788D03*
%TD*%
%LPD*%
M02*
