%TF.GenerationSoftware,KiCad,Pcbnew,9.0.7*%
%TF.CreationDate,2026-02-19T00:24:31+01:00*%
%TF.ProjectId,BladeCore-M54C,426c6164-6543-46f7-9265-2d4d3534432e,rev?*%
%TF.SameCoordinates,Original*%
%TF.FileFunction,Soldermask,Top*%
%TF.FilePolarity,Negative*%
%FSLAX46Y46*%
G04 Gerber Fmt 4.6, Leading zero omitted, Abs format (unit mm)*
G04 Created by KiCad (PCBNEW 9.0.7) date 2026-02-19 00:24:31*
%MOMM*%
%LPD*%
G01*
G04 APERTURE LIST*
G04 Aperture macros list*
%AMRoundRect*
0 Rectangle with rounded corners*
0 $1 Rounding radius*
0 $2 $3 $4 $5 $6 $7 $8 $9 X,Y pos of 4 corners*
0 Add a 4 corners polygon primitive as box body*
4,1,4,$2,$3,$4,$5,$6,$7,$8,$9,$2,$3,0*
0 Add four circle primitives for the rounded corners*
1,1,$1+$1,$2,$3*
1,1,$1+$1,$4,$5*
1,1,$1+$1,$6,$7*
1,1,$1+$1,$8,$9*
0 Add four rect primitives between the rounded corners*
20,1,$1+$1,$2,$3,$4,$5,0*
20,1,$1+$1,$4,$5,$6,$7,0*
20,1,$1+$1,$6,$7,$8,$9,0*
20,1,$1+$1,$8,$9,$2,$3,0*%
%AMFreePoly0*
4,1,23,0.550000,-0.750000,0.000000,-0.750000,0.000000,-0.745722,-0.065263,-0.745722,-0.191342,-0.711940,-0.304381,-0.646677,-0.396677,-0.554381,-0.461940,-0.441342,-0.495722,-0.315263,-0.495722,-0.250000,-0.500000,-0.250000,-0.500000,0.250000,-0.495722,0.250000,-0.495722,0.315263,-0.461940,0.441342,-0.396677,0.554381,-0.304381,0.646677,-0.191342,0.711940,-0.065263,0.745722,0.000000,0.745722,
0.000000,0.750000,0.550000,0.750000,0.550000,-0.750000,0.550000,-0.750000,$1*%
%AMFreePoly1*
4,1,23,0.000000,0.745722,0.065263,0.745722,0.191342,0.711940,0.304381,0.646677,0.396677,0.554381,0.461940,0.441342,0.495722,0.315263,0.495722,0.250000,0.500000,0.250000,0.500000,-0.250000,0.495722,-0.250000,0.495722,-0.315263,0.461940,-0.441342,0.396677,-0.554381,0.304381,-0.646677,0.191342,-0.711940,0.065263,-0.745722,0.000000,-0.745722,0.000000,-0.750000,-0.550000,-0.750000,
-0.550000,0.750000,0.000000,0.750000,0.000000,0.745722,0.000000,0.745722,$1*%
G04 Aperture macros list end*
%ADD10RoundRect,0.070000X0.070000X-0.355000X0.070000X0.355000X-0.070000X0.355000X-0.070000X-0.355000X0*%
%ADD11R,0.700000X0.280000*%
%ADD12R,2.400000X1.650000*%
%ADD13FreePoly0,270.000000*%
%ADD14R,1.500000X1.000000*%
%ADD15FreePoly1,270.000000*%
%ADD16RoundRect,0.250000X-0.650000X1.000000X-0.650000X-1.000000X0.650000X-1.000000X0.650000X1.000000X0*%
%ADD17RoundRect,0.135000X-0.185000X0.135000X-0.185000X-0.135000X0.185000X-0.135000X0.185000X0.135000X0*%
%ADD18RoundRect,0.135000X-0.135000X-0.185000X0.135000X-0.185000X0.135000X0.185000X-0.135000X0.185000X0*%
%ADD19RoundRect,0.100000X0.400000X0.100000X-0.400000X0.100000X-0.400000X-0.100000X0.400000X-0.100000X0*%
%ADD20RoundRect,0.135000X0.135000X0.185000X-0.135000X0.185000X-0.135000X-0.185000X0.135000X-0.185000X0*%
%ADD21R,0.800000X0.500000*%
%ADD22R,0.800000X0.400000*%
%ADD23RoundRect,0.140000X-0.170000X0.140000X-0.170000X-0.140000X0.170000X-0.140000X0.170000X0.140000X0*%
%ADD24RoundRect,0.250000X-0.650000X0.325000X-0.650000X-0.325000X0.650000X-0.325000X0.650000X0.325000X0*%
%ADD25RoundRect,0.200000X-0.250000X-0.200000X0.250000X-0.200000X0.250000X0.200000X-0.250000X0.200000X0*%
%ADD26RoundRect,0.140000X0.170000X-0.140000X0.170000X0.140000X-0.170000X0.140000X-0.170000X-0.140000X0*%
%ADD27R,0.500000X0.800000*%
%ADD28R,0.400000X0.800000*%
%ADD29RoundRect,0.075000X-0.075000X0.350000X-0.075000X-0.350000X0.075000X-0.350000X0.075000X0.350000X0*%
%ADD30R,2.400000X1.600000*%
%ADD31RoundRect,0.250000X-0.625000X0.312500X-0.625000X-0.312500X0.625000X-0.312500X0.625000X0.312500X0*%
%ADD32RoundRect,0.140000X-0.140000X-0.170000X0.140000X-0.170000X0.140000X0.170000X-0.140000X0.170000X0*%
%ADD33O,1.244200X0.648600*%
%ADD34RoundRect,0.102000X1.700000X2.150000X-1.700000X2.150000X-1.700000X-2.150000X1.700000X-2.150000X0*%
%ADD35RoundRect,0.135000X0.185000X-0.135000X0.185000X0.135000X-0.185000X0.135000X-0.185000X-0.135000X0*%
%ADD36RoundRect,0.062500X0.337500X0.062500X-0.337500X0.062500X-0.337500X-0.062500X0.337500X-0.062500X0*%
%ADD37RoundRect,0.062500X0.062500X0.337500X-0.062500X0.337500X-0.062500X-0.337500X0.062500X-0.337500X0*%
%ADD38R,2.700000X2.700000*%
%ADD39RoundRect,0.150000X0.150000X0.500000X-0.150000X0.500000X-0.150000X-0.500000X0.150000X-0.500000X0*%
%ADD40RoundRect,0.075000X0.075000X0.575000X-0.075000X0.575000X-0.075000X-0.575000X0.075000X-0.575000X0*%
%ADD41O,1.000000X2.100000*%
%ADD42O,1.000000X1.600000*%
%ADD43RoundRect,0.120000X-0.180000X0.405000X-0.180000X-0.405000X0.180000X-0.405000X0.180000X0.405000X0*%
%ADD44RoundRect,0.147500X0.172500X-0.147500X0.172500X0.147500X-0.172500X0.147500X-0.172500X-0.147500X0*%
%ADD45RoundRect,0.102000X-0.775000X0.300000X-0.775000X-0.300000X0.775000X-0.300000X0.775000X0.300000X0*%
%ADD46RoundRect,0.102000X-0.900000X0.600000X-0.900000X-0.600000X0.900000X-0.600000X0.900000X0.600000X0*%
%ADD47RoundRect,0.050000X-0.175000X-1.250000X0.175000X-1.250000X0.175000X1.250000X-0.175000X1.250000X0*%
%ADD48C,5.500000*%
%ADD49RoundRect,0.140000X0.140000X0.170000X-0.140000X0.170000X-0.140000X-0.170000X0.140000X-0.170000X0*%
%ADD50RoundRect,0.102000X0.400000X0.850000X-0.400000X0.850000X-0.400000X-0.850000X0.400000X-0.850000X0*%
%ADD51RoundRect,0.150000X0.150000X-0.512500X0.150000X0.512500X-0.150000X0.512500X-0.150000X-0.512500X0*%
%ADD52RoundRect,0.150000X0.587500X0.150000X-0.587500X0.150000X-0.587500X-0.150000X0.587500X-0.150000X0*%
%ADD53RoundRect,0.050000X0.500000X-0.500000X0.500000X0.500000X-0.500000X0.500000X-0.500000X-0.500000X0*%
%ADD54RoundRect,0.050000X0.500000X-0.300000X0.500000X0.300000X-0.500000X0.300000X-0.500000X-0.300000X0*%
%ADD55RoundRect,0.050000X-0.500000X0.500000X-0.500000X-0.500000X0.500000X-0.500000X0.500000X0.500000X0*%
%ADD56RoundRect,0.050000X-0.500000X0.300000X-0.500000X-0.300000X0.500000X-0.300000X0.500000X0.300000X0*%
%ADD57RoundRect,0.102000X-0.850000X0.400000X-0.850000X-0.400000X0.850000X-0.400000X0.850000X0.400000X0*%
%ADD58RoundRect,0.100000X0.637500X0.100000X-0.637500X0.100000X-0.637500X-0.100000X0.637500X-0.100000X0*%
%ADD59RoundRect,0.250000X0.640000X-0.260000X0.640000X0.260000X-0.640000X0.260000X-0.640000X-0.260000X0*%
%ADD60RoundRect,0.102000X0.700000X-0.600000X0.700000X0.600000X-0.700000X0.600000X-0.700000X-0.600000X0*%
%ADD61RoundRect,0.087500X0.087500X-0.725000X0.087500X0.725000X-0.087500X0.725000X-0.087500X-0.725000X0*%
%ADD62O,0.780000X0.220000*%
%ADD63O,0.220000X0.780000*%
%ADD64C,0.425000*%
%ADD65RoundRect,0.200000X1.500000X1.500000X-1.500000X1.500000X-1.500000X-1.500000X1.500000X-1.500000X0*%
G04 APERTURE END LIST*
%TO.C,JP1*%
G36*
X2600000Y65200000D02*
G01*
X1100000Y65200000D01*
X1100000Y63700000D01*
X2600000Y63700000D01*
X2600000Y65200000D01*
G37*
%TD*%
D10*
%TO.C,IC7*%
X5750000Y67625000D03*
X6250000Y67625000D03*
X6750000Y67625000D03*
X7250000Y67625000D03*
X7750000Y67625000D03*
X7750000Y70575000D03*
X7250000Y70575000D03*
X6750000Y70575000D03*
X6250000Y70575000D03*
X5750000Y70575000D03*
D11*
X5200000Y68850000D03*
X8300000Y68850000D03*
D12*
X6750000Y69100000D03*
D11*
X5200000Y69350000D03*
X8300000Y69350000D03*
%TD*%
D13*
%TO.C,JP1*%
X1850000Y65750000D03*
D14*
X1850000Y64450000D03*
D15*
X1850000Y63150000D03*
%TD*%
D16*
%TO.C,D4*%
X2400000Y21000000D03*
X2400000Y17000000D03*
%TD*%
D17*
%TO.C,R93*%
X13100000Y28810000D03*
X13100000Y27790000D03*
%TD*%
D18*
%TO.C,R26*%
X4424212Y47770788D03*
X5444212Y47770788D03*
%TD*%
D19*
%TO.C,IC8*%
X8662500Y74572500D03*
X8662500Y75222500D03*
X8662500Y75872500D03*
X6887500Y75872500D03*
X6887500Y75222500D03*
X6887500Y74572500D03*
%TD*%
D20*
%TO.C,R5*%
X14459212Y60745788D03*
X13439212Y60745788D03*
%TD*%
D18*
%TO.C,R32*%
X4439212Y44770788D03*
X5459212Y44770788D03*
%TD*%
D21*
%TO.C,R16*%
X5829212Y62145788D03*
D22*
X5829212Y61345788D03*
X5829212Y60545788D03*
D21*
X5829212Y59745788D03*
X7629212Y59745788D03*
D22*
X7629212Y60545788D03*
X7629212Y61345788D03*
D21*
X7629212Y62145788D03*
%TD*%
D23*
%TO.C,C52*%
X4050000Y66390000D03*
X4050000Y65430000D03*
%TD*%
D24*
%TO.C,C56*%
X3350000Y72535000D03*
X3350000Y69585000D03*
%TD*%
D25*
%TO.C,X2*%
X9888230Y36947230D03*
X9888230Y38047230D03*
X11288230Y36947230D03*
X11288230Y38047230D03*
%TD*%
D26*
%TO.C,C34*%
X13650000Y16320000D03*
X13650000Y17280000D03*
%TD*%
D18*
%TO.C,R14*%
X4439212Y49745788D03*
X5459212Y49745788D03*
%TD*%
D27*
%TO.C,R13*%
X21354212Y65320788D03*
D28*
X20554212Y65320788D03*
X19754212Y65320788D03*
D27*
X18954212Y65320788D03*
X18954212Y63520788D03*
D28*
X19754212Y63520788D03*
X20554212Y63520788D03*
D27*
X21354212Y63520788D03*
%TD*%
D29*
%TO.C,IC29*%
X11150000Y25500000D03*
X10500000Y25500000D03*
X9850000Y25500000D03*
X9200000Y25500000D03*
X9200000Y22600000D03*
X9850000Y22600000D03*
X10500000Y22600000D03*
X11150000Y22600000D03*
D30*
X10175000Y24050000D03*
%TD*%
D20*
%TO.C,R52*%
X2790000Y8025000D03*
X1770000Y8025000D03*
%TD*%
D17*
%TO.C,R53*%
X6475000Y66370000D03*
X6475000Y65350000D03*
%TD*%
D23*
%TO.C,C53*%
X5075000Y66365000D03*
X5075000Y65405000D03*
%TD*%
%TO.C,C35*%
X9350000Y17280000D03*
X9350000Y16320000D03*
%TD*%
D18*
%TO.C,R1*%
X10115000Y76475000D03*
X11135000Y76475000D03*
%TD*%
%TO.C,R31*%
X4439212Y45770788D03*
X5459212Y45770788D03*
%TD*%
D20*
%TO.C,R59*%
X6085000Y72885000D03*
X5065000Y72885000D03*
%TD*%
D31*
%TO.C,R51*%
X2350000Y14575000D03*
X2350000Y11650000D03*
%TD*%
D18*
%TO.C,R11*%
X6455000Y35575000D03*
X7475000Y35575000D03*
%TD*%
D26*
%TO.C,C22*%
X7150000Y37025000D03*
X7150000Y37985000D03*
%TD*%
D32*
%TO.C,C20*%
X3720000Y42150000D03*
X4680000Y42150000D03*
%TD*%
D18*
%TO.C,R20*%
X26740000Y60775000D03*
X27760000Y60775000D03*
%TD*%
%TO.C,R8*%
X14755000Y71250000D03*
X15775000Y71250000D03*
%TD*%
D33*
%TO.C,IC3*%
X21574212Y32185788D03*
X21574212Y33455788D03*
X21574212Y34725788D03*
X21574212Y35995788D03*
X15882812Y35995788D03*
X15882812Y34725788D03*
X15882812Y33455788D03*
X15882812Y32185788D03*
D34*
X18728512Y34090788D03*
%TD*%
D35*
%TO.C,R94*%
X12470000Y22586408D03*
X12470000Y23606408D03*
%TD*%
D23*
%TO.C,C54*%
X7500000Y66345000D03*
X7500000Y65385000D03*
%TD*%
D36*
%TO.C,IC6*%
X13150000Y31600000D03*
X13150000Y32100000D03*
X13150000Y32600000D03*
X13150000Y33100000D03*
X13150000Y33600000D03*
D37*
X12200000Y34550000D03*
X11700000Y34550000D03*
X11200000Y34550000D03*
X10700000Y34550000D03*
X10200000Y34550000D03*
D36*
X9250000Y33600000D03*
X9250000Y33100000D03*
X9250000Y32600000D03*
X9250000Y32100000D03*
X9250000Y31600000D03*
D37*
X10200000Y30650000D03*
X10700000Y30650000D03*
X11200000Y30650000D03*
X11700000Y30650000D03*
X12200000Y30650000D03*
D38*
X11200000Y32600000D03*
%TD*%
D26*
%TO.C,C81*%
X8600000Y37020000D03*
X8600000Y37980000D03*
%TD*%
D39*
%TO.C,J3*%
X26675000Y74480000D03*
X25875000Y74480000D03*
D40*
X24725000Y74480000D03*
X23725000Y74480000D03*
X23225000Y74480000D03*
X22225000Y74480000D03*
D39*
X21075000Y74480000D03*
X20275000Y74480000D03*
X20275000Y74480000D03*
X21075000Y74480000D03*
D40*
X21725000Y74480000D03*
X22725000Y74480000D03*
X24225000Y74480000D03*
X25225000Y74480000D03*
D39*
X25875000Y74480000D03*
X26675000Y74480000D03*
D41*
X27795000Y75120000D03*
D42*
X27795000Y79300000D03*
D41*
X19155000Y75120000D03*
D42*
X19155000Y79300000D03*
%TD*%
D32*
%TO.C,C51*%
X1775000Y10100000D03*
X2735000Y10100000D03*
%TD*%
D43*
%TO.C,L3*%
X12050000Y19375000D03*
X11050000Y19375000D03*
X11050000Y16325000D03*
X12050000Y16325000D03*
%TD*%
D23*
%TO.C,C82*%
X12556391Y37983458D03*
X12556391Y37023458D03*
%TD*%
D35*
%TO.C,R34*%
X17000000Y24757500D03*
X17000000Y25777500D03*
%TD*%
D21*
%TO.C,R25*%
X5854212Y54620788D03*
D22*
X5854212Y53820788D03*
X5854212Y53020788D03*
D21*
X5854212Y52220788D03*
X7654212Y52220788D03*
D22*
X7654212Y53020788D03*
X7654212Y53820788D03*
D21*
X7654212Y54620788D03*
%TD*%
D35*
%TO.C,R4*%
X13599212Y43785788D03*
X13599212Y44805788D03*
%TD*%
D26*
%TO.C,C19*%
X5725000Y41145000D03*
X5725000Y42105000D03*
%TD*%
D23*
%TO.C,C12*%
X17674212Y63500788D03*
X17674212Y62540788D03*
%TD*%
D44*
%TO.C,D2*%
X4075000Y78365000D03*
X4075000Y79335000D03*
%TD*%
D45*
%TO.C,J2*%
X5500000Y26800000D03*
X5500000Y25800000D03*
X5500000Y24800000D03*
D46*
X1625000Y28100000D03*
X1625000Y23500000D03*
%TD*%
D20*
%TO.C,R62*%
X5060000Y77150000D03*
X4040000Y77150000D03*
%TD*%
D32*
%TO.C,C6*%
X9174212Y45020788D03*
X10134212Y45020788D03*
%TD*%
D23*
%TO.C,C24*%
X8200000Y39905000D03*
X8200000Y38945000D03*
%TD*%
D18*
%TO.C,R19*%
X24965000Y72775000D03*
X25985000Y72775000D03*
%TD*%
D17*
%TO.C,R38*%
X11050000Y13885000D03*
X11050000Y12865000D03*
%TD*%
D47*
%TO.C,J1*%
X23925000Y1850000D03*
X23425000Y1850000D03*
X22925000Y1850000D03*
X22425000Y1850000D03*
X21925000Y1850000D03*
X21425000Y1850000D03*
X20925000Y1850000D03*
X20425000Y1850000D03*
X19925000Y1850000D03*
X19425000Y1850000D03*
X18925000Y1850000D03*
X18425000Y1850000D03*
X17925000Y1850000D03*
X17425000Y1850000D03*
X16925000Y1850000D03*
X16425000Y1850000D03*
X15925000Y1850000D03*
X15425000Y1850000D03*
X14925000Y1850000D03*
X14425000Y1850000D03*
X13925000Y1850000D03*
X13425000Y1850000D03*
X12925000Y1850000D03*
X12425000Y1850000D03*
X11925000Y1850000D03*
X11425000Y1850000D03*
X10925000Y1850000D03*
X10425000Y1850000D03*
X9925000Y1850000D03*
X7425000Y1850000D03*
X6925000Y1850000D03*
X6425000Y1850000D03*
X5925000Y1850000D03*
X5425000Y1850000D03*
D48*
X14721447Y80770000D03*
%TD*%
D18*
%TO.C,R29*%
X4424212Y46770788D03*
X5444212Y46770788D03*
%TD*%
D21*
%TO.C,R23*%
X5829212Y58370788D03*
D22*
X5829212Y57570788D03*
X5829212Y56770788D03*
D21*
X5829212Y55970788D03*
X7629212Y55970788D03*
D22*
X7629212Y56770788D03*
X7629212Y57570788D03*
D21*
X7629212Y58370788D03*
%TD*%
D23*
%TO.C,C23*%
X7150000Y39910000D03*
X7150000Y38950000D03*
%TD*%
%TO.C,C18*%
X14600000Y32300000D03*
X14600000Y31340000D03*
%TD*%
D49*
%TO.C,C80*%
X10900000Y28900000D03*
X9940000Y28900000D03*
%TD*%
%TO.C,C57*%
X24825000Y63275000D03*
X23865000Y63275000D03*
%TD*%
D50*
%TO.C,SW2*%
X10525000Y78500000D03*
X7125000Y78500000D03*
%TD*%
D26*
%TO.C,C84*%
X7970000Y22616408D03*
X7970000Y23576408D03*
%TD*%
D24*
%TO.C,C59*%
X16950000Y76250000D03*
X16950000Y73300000D03*
%TD*%
D21*
%TO.C,R30*%
X24529212Y59720788D03*
D22*
X24529212Y60520788D03*
X24529212Y61320788D03*
D21*
X24529212Y62120788D03*
X22729212Y62120788D03*
D22*
X22729212Y61320788D03*
X22729212Y60520788D03*
D21*
X22729212Y59720788D03*
%TD*%
%TO.C,R28*%
X24529212Y55945788D03*
D22*
X24529212Y56745788D03*
X24529212Y57545788D03*
D21*
X24529212Y58345788D03*
X22729212Y58345788D03*
D22*
X22729212Y57545788D03*
X22729212Y56745788D03*
D21*
X22729212Y55945788D03*
%TD*%
D18*
%TO.C,R12*%
X4439212Y50745788D03*
X5459212Y50745788D03*
%TD*%
D32*
%TO.C,C55*%
X7520000Y71810000D03*
X8480000Y71810000D03*
%TD*%
D35*
%TO.C,R9*%
X6850000Y41100000D03*
X6850000Y42120000D03*
%TD*%
D26*
%TO.C,C11*%
X12474212Y62540788D03*
X12474212Y63500788D03*
%TD*%
D51*
%TO.C,IC4*%
X3850000Y37275000D03*
X4800000Y37275000D03*
X5750000Y37275000D03*
X5750000Y39550000D03*
X3850000Y39550000D03*
%TD*%
D18*
%TO.C,R10*%
X4465000Y35550000D03*
X5485000Y35550000D03*
%TD*%
D49*
%TO.C,C49*%
X2765000Y6000000D03*
X1805000Y6000000D03*
%TD*%
D21*
%TO.C,R22*%
X24504212Y44620788D03*
D22*
X24504212Y45420788D03*
X24504212Y46220788D03*
D21*
X24504212Y47020788D03*
X22704212Y47020788D03*
D22*
X22704212Y46220788D03*
X22704212Y45420788D03*
D21*
X22704212Y44620788D03*
%TD*%
D52*
%TO.C,IC5*%
X13790000Y72625000D03*
X13790000Y74525000D03*
X11915000Y73575000D03*
%TD*%
D53*
%TO.C,D5*%
X7875000Y7200000D03*
D54*
X7875000Y8900000D03*
X5475000Y8900000D03*
X5475000Y7000000D03*
%TD*%
D17*
%TO.C,R60*%
X2075000Y77160000D03*
X2075000Y76140000D03*
%TD*%
D21*
%TO.C,R27*%
X24529212Y52170788D03*
D22*
X24529212Y52970788D03*
X24529212Y53770788D03*
D21*
X24529212Y54570788D03*
X22729212Y54570788D03*
D22*
X22729212Y53770788D03*
X22729212Y52970788D03*
D21*
X22729212Y52170788D03*
%TD*%
D55*
%TO.C,D7*%
X21775000Y71150000D03*
D56*
X21775000Y69450000D03*
X24175000Y69450000D03*
X24175000Y71350000D03*
%TD*%
D57*
%TO.C,SW1*%
X27175000Y12775000D03*
X27175000Y9375000D03*
%TD*%
D44*
%TO.C,D3*%
X17000000Y27050000D03*
X17000000Y28020000D03*
%TD*%
D17*
%TO.C,R37*%
X12050000Y13885000D03*
X12050000Y12865000D03*
%TD*%
D18*
%TO.C,R54*%
X5065000Y71835000D03*
X6085000Y71835000D03*
%TD*%
D26*
%TO.C,C21*%
X15325000Y72720000D03*
X15325000Y73680000D03*
%TD*%
D20*
%TO.C,R7*%
X4710000Y41100000D03*
X3690000Y41100000D03*
%TD*%
D18*
%TO.C,R55*%
X1755000Y9050000D03*
X2775000Y9050000D03*
%TD*%
D17*
%TO.C,R91*%
X12000000Y28810000D03*
X12000000Y27790000D03*
%TD*%
D58*
%TO.C,IC2*%
X18812500Y67875000D03*
X18812500Y68525000D03*
X18812500Y69175000D03*
X18812500Y69825000D03*
X13087500Y69825000D03*
X13087500Y69175000D03*
X13087500Y68525000D03*
X13087500Y67875000D03*
%TD*%
D26*
%TO.C,C17*%
X11400000Y68020000D03*
X11400000Y68980000D03*
%TD*%
D27*
%TO.C,R15*%
X17879212Y41420788D03*
D28*
X18679212Y41420788D03*
X19479212Y41420788D03*
D27*
X20279212Y41420788D03*
X20279212Y43220788D03*
D28*
X19479212Y43220788D03*
X18679212Y43220788D03*
D27*
X17879212Y43220788D03*
%TD*%
D32*
%TO.C,C83*%
X9690000Y26696408D03*
X10650000Y26696408D03*
%TD*%
D59*
%TO.C,L1*%
X9454212Y41780788D03*
X9454212Y43560788D03*
%TD*%
D44*
%TO.C,D6*%
X2050000Y78382500D03*
X2050000Y79352500D03*
%TD*%
D18*
%TO.C,R35*%
X12065000Y14975000D03*
X13085000Y14975000D03*
%TD*%
D21*
%TO.C,R24*%
X24529212Y48395788D03*
D22*
X24529212Y49195788D03*
X24529212Y49995788D03*
D21*
X24529212Y50795788D03*
X22729212Y50795788D03*
D22*
X22729212Y49995788D03*
X22729212Y49195788D03*
D21*
X22729212Y48395788D03*
%TD*%
D35*
%TO.C,R6*%
X21675000Y29625000D03*
X21675000Y30645000D03*
%TD*%
D18*
%TO.C,R33*%
X4449212Y43770788D03*
X5469212Y43770788D03*
%TD*%
%TO.C,R36*%
X10040000Y15000000D03*
X11060000Y15000000D03*
%TD*%
D23*
%TO.C,C58*%
X5400000Y75535000D03*
X5400000Y74575000D03*
%TD*%
D18*
%TO.C,R21*%
X4424212Y48770788D03*
X5444212Y48770788D03*
%TD*%
D60*
%TO.C,X1*%
X13974212Y62170788D03*
X16174212Y62170788D03*
X13974212Y63870788D03*
X16174212Y63870788D03*
%TD*%
D61*
%TO.C,IC9*%
X26100000Y62362500D03*
X26600000Y62362500D03*
X27100000Y62362500D03*
X27600000Y62362500D03*
X28100000Y62362500D03*
X28100000Y66587500D03*
X27600000Y66587500D03*
X27100000Y66587500D03*
X26600000Y66587500D03*
X26100000Y66587500D03*
%TD*%
D49*
%TO.C,C50*%
X2760000Y7000000D03*
X1800000Y7000000D03*
%TD*%
D20*
%TO.C,R56*%
X21525000Y72800000D03*
X20505000Y72800000D03*
%TD*%
D17*
%TO.C,R2*%
X8179212Y46005788D03*
X8179212Y44985788D03*
%TD*%
D18*
%TO.C,R92*%
X13100000Y29800000D03*
X14120000Y29800000D03*
%TD*%
D17*
%TO.C,R3*%
X12599212Y44805788D03*
X12599212Y43785788D03*
%TD*%
D62*
%TO.C,IC1*%
X19576212Y47645788D03*
X19576212Y48045788D03*
X19576212Y48445788D03*
X19576212Y48845788D03*
X19576212Y49245788D03*
X19576212Y49645788D03*
X19576212Y50045788D03*
X19576212Y50445788D03*
X19576212Y50845788D03*
X19576212Y51245788D03*
X19576212Y51645788D03*
X19576212Y52045788D03*
X19576212Y52445788D03*
X19576212Y52845788D03*
X19576212Y53245788D03*
X19576212Y53645788D03*
X19576212Y54045788D03*
X19576212Y54445788D03*
X19576212Y54845788D03*
X19576212Y55245788D03*
D63*
X18479212Y56342788D03*
X18079212Y56342788D03*
X17679212Y56342788D03*
X17279212Y56342788D03*
X16879212Y56342788D03*
X16479212Y56342788D03*
X16079212Y56342788D03*
X15679212Y56342788D03*
X15279212Y56342788D03*
X14879212Y56342788D03*
X14479212Y56342788D03*
X14079212Y56342788D03*
X13679212Y56342788D03*
X13279212Y56342788D03*
X12879212Y56342788D03*
X12479212Y56342788D03*
X12079212Y56342788D03*
X11679212Y56342788D03*
X11279212Y56342788D03*
X10879212Y56342788D03*
D62*
X9782212Y55245788D03*
X9782212Y54845788D03*
X9782212Y54445788D03*
X9782212Y54045788D03*
X9782212Y53645788D03*
X9782212Y53245788D03*
X9782212Y52845788D03*
X9782212Y52445788D03*
X9782212Y52045788D03*
X9782212Y51645788D03*
X9782212Y51245788D03*
X9782212Y50845788D03*
X9782212Y50445788D03*
X9782212Y50045788D03*
X9782212Y49645788D03*
X9782212Y49245788D03*
X9782212Y48845788D03*
X9782212Y48445788D03*
X9782212Y48045788D03*
X9782212Y47645788D03*
D63*
X10879212Y46548788D03*
X11279212Y46548788D03*
X11679212Y46548788D03*
X12079212Y46548788D03*
X12479212Y46548788D03*
X12879212Y46548788D03*
X13279212Y46548788D03*
X13679212Y46548788D03*
X14079212Y46548788D03*
X14479212Y46548788D03*
X14879212Y46548788D03*
X15279212Y46548788D03*
X15679212Y46548788D03*
X16079212Y46548788D03*
X16479212Y46548788D03*
X16879212Y46548788D03*
X17279212Y46548788D03*
X17679212Y46548788D03*
X18079212Y46548788D03*
X18479212Y46548788D03*
D64*
X15529212Y50595788D03*
X15529212Y51445788D03*
X15529212Y52295788D03*
X14679212Y50595788D03*
X14679212Y51445788D03*
D65*
X14679212Y51445788D03*
D64*
X14679212Y52295788D03*
X13829212Y50595788D03*
X13829212Y51445788D03*
X13829212Y52295788D03*
%TD*%
M02*
