%TF.GenerationSoftware,KiCad,Pcbnew,10.0.1*%
%TF.CreationDate,2026-05-31T13:20:20+02:00*%
%TF.ProjectId,BladeCore-M54C,426c6164-6543-46f7-9265-2d4d3534432e,rev?*%
%TF.SameCoordinates,Original*%
%TF.FileFunction,Legend,Bot*%
%TF.FilePolarity,Positive*%
%FSLAX46Y46*%
G04 Gerber Fmt 4.6, Leading zero omitted, Abs format (unit mm)*
G04 Created by KiCad (PCBNEW 10.0.1) date 2026-05-31 13:20:20*
%MOMM*%
%LPD*%
G01*
G04 APERTURE LIST*
G04 Aperture macros list*
%AMRoundRect*
0 Rectangle with rounded corners*
0 $1 Rounding radius*
0 $2 $3 $4 $5 $6 $7 $8 $9 X,Y pos of 4 corners*
0 Add a 4 corners polygon primitive as box body*
4,1,4,$2,$3,$4,$5,$6,$7,$8,$9,$2,$3,0*
0 Add four circle primitives for the rounded corners*
1,1,$1+$1,$2,$3*
1,1,$1+$1,$4,$5*
1,1,$1+$1,$6,$7*
1,1,$1+$1,$8,$9*
0 Add four rect primitives between the rounded corners*
20,1,$1+$1,$2,$3,$4,$5,0*
20,1,$1+$1,$4,$5,$6,$7,0*
20,1,$1+$1,$6,$7,$8,$9,0*
20,1,$1+$1,$8,$9,$2,$3,0*%
G04 Aperture macros list end*
%ADD10C,0.000000*%
%ADD11C,0.150000*%
%ADD12C,0.400000*%
%ADD13C,0.160000*%
%ADD14C,0.120000*%
%ADD15RoundRect,0.050000X-0.175000X-1.250000X0.175000X-1.250000X0.175000X1.250000X-0.175000X1.250000X0*%
%ADD16C,0.650000*%
%ADD17O,1.000000X2.100000*%
%ADD18O,1.000000X1.600000*%
%ADD19C,0.425000*%
%ADD20RoundRect,0.135000X0.185000X-0.135000X0.185000X0.135000X-0.185000X0.135000X-0.185000X-0.135000X0*%
%ADD21RoundRect,0.140000X-0.170000X0.140000X-0.170000X-0.140000X0.170000X-0.140000X0.170000X0.140000X0*%
%ADD22RoundRect,0.135000X-0.185000X0.135000X-0.185000X-0.135000X0.185000X-0.135000X0.185000X0.135000X0*%
%ADD23RoundRect,0.140000X0.170000X-0.140000X0.170000X0.140000X-0.170000X0.140000X-0.170000X-0.140000X0*%
%ADD24RoundRect,0.140000X-0.140000X-0.170000X0.140000X-0.170000X0.140000X0.170000X-0.140000X0.170000X0*%
%ADD25C,0.600000*%
%ADD26RoundRect,0.140000X0.140000X0.170000X-0.140000X0.170000X-0.140000X-0.170000X0.140000X-0.170000X0*%
%ADD27RoundRect,0.250000X-0.650000X1.000000X-0.650000X-1.000000X0.650000X-1.000000X0.650000X1.000000X0*%
%ADD28RoundRect,0.125000X0.175000X0.125000X-0.175000X0.125000X-0.175000X-0.125000X0.175000X-0.125000X0*%
%ADD29RoundRect,0.135000X-0.135000X-0.185000X0.135000X-0.185000X0.135000X0.185000X-0.135000X0.185000X0*%
%ADD30RoundRect,0.250000X-0.625000X0.312500X-0.625000X-0.312500X0.625000X-0.312500X0.625000X0.312500X0*%
%ADD31RoundRect,0.112500X-0.112500X-0.237500X0.112500X-0.237500X0.112500X0.237500X-0.112500X0.237500X0*%
G04 APERTURE END LIST*
D10*
G36*
X22471140Y56680216D02*
G01*
X21788515Y56680216D01*
X21788515Y57148528D01*
X22471140Y57148528D01*
X22471140Y56680216D01*
G37*
G36*
X23502487Y60634090D02*
G01*
X23589471Y60634100D01*
X23719429Y60634069D01*
X23938547Y60634058D01*
X24156682Y60633998D01*
X24170410Y60633998D01*
X24225616Y60633999D01*
X24743243Y60633907D01*
X25202701Y60633826D01*
X25232175Y60633826D01*
X25246897Y60633826D01*
X25320303Y60633827D01*
X25334936Y60633828D01*
X25720705Y60633789D01*
X25734598Y60633787D01*
X25789905Y60633776D01*
X25981032Y60633753D01*
X26228603Y60633702D01*
X26348167Y60633669D01*
X26547312Y60633536D01*
X26646881Y60632924D01*
X26746444Y60631570D01*
X26759841Y60631318D01*
X26796858Y60630603D01*
X26807882Y60630357D01*
X26817093Y60630163D01*
X26826298Y60629916D01*
X26835501Y60629581D01*
X26844702Y60629121D01*
X26873512Y60625601D01*
X26902127Y60620822D01*
X26930486Y60614791D01*
X26958528Y60607515D01*
X26986191Y60599000D01*
X27013415Y60589253D01*
X27040137Y60578278D01*
X27066298Y60566084D01*
X27091834Y60552675D01*
X27116686Y60538059D01*
X27140792Y60522242D01*
X27164090Y60505229D01*
X27186520Y60487028D01*
X27208019Y60467644D01*
X27228528Y60447085D01*
X27247984Y60425355D01*
X27253483Y60418778D01*
X27276486Y60389602D01*
X27297232Y60359511D01*
X27315825Y60328566D01*
X27332372Y60296829D01*
X27346978Y60264363D01*
X27359749Y60231229D01*
X27370790Y60197489D01*
X27380207Y60163206D01*
X27388106Y60128442D01*
X27394591Y60093258D01*
X27399768Y60057717D01*
X27403744Y60021880D01*
X27406623Y59985811D01*
X27408511Y59949569D01*
X27409514Y59913219D01*
X27409737Y59876822D01*
X27409693Y59837412D01*
X27409665Y59767611D01*
X27409550Y59662641D01*
X27409391Y59472170D01*
X27409190Y59302912D01*
X27409174Y59280016D01*
X27409150Y59245389D01*
X27408404Y58664761D01*
X27408126Y58494586D01*
X27406649Y57682287D01*
X27406440Y57578777D01*
X27405771Y57264697D01*
X27405706Y57237470D01*
X27405674Y57223988D01*
X27405475Y57133029D01*
X27404420Y56818414D01*
X27404235Y56783349D01*
X27403269Y56637597D01*
X27402910Y56591692D01*
X27402477Y56531431D01*
X27402053Y56501302D01*
X27401380Y56471178D01*
X27399983Y56444209D01*
X27397571Y56417073D01*
X27394119Y56389863D01*
X27389600Y56362676D01*
X27383987Y56335606D01*
X27377253Y56308749D01*
X27369371Y56282199D01*
X27360315Y56256052D01*
X27350058Y56230402D01*
X27338573Y56205346D01*
X27325834Y56180977D01*
X27311813Y56157391D01*
X27296485Y56134684D01*
X27279821Y56112949D01*
X27261796Y56092283D01*
X27242383Y56072780D01*
X27233640Y56065059D01*
X27201544Y56038117D01*
X27168784Y56013704D01*
X27135368Y55991710D01*
X27101302Y55972030D01*
X27066595Y55954555D01*
X27031252Y55939177D01*
X26995281Y55925788D01*
X26958690Y55914282D01*
X26921486Y55904549D01*
X26883676Y55896484D01*
X26845267Y55889977D01*
X26806266Y55884921D01*
X26766681Y55881209D01*
X26726519Y55878732D01*
X26685787Y55877384D01*
X26644493Y55877055D01*
X26603835Y55877099D01*
X26531704Y55877127D01*
X26422899Y55877243D01*
X26224631Y55877402D01*
X26048296Y55877603D01*
X26024445Y55877619D01*
X25988342Y55877643D01*
X25387304Y55878365D01*
X25167892Y55878690D01*
X24302724Y55880068D01*
X24268671Y55880128D01*
X24260163Y55880144D01*
X24132246Y55880367D01*
X23778079Y55881022D01*
X23626146Y55881318D01*
X23518395Y55881525D01*
X23498324Y55881563D01*
X23433515Y55881701D01*
X23373957Y55881809D01*
X23352097Y55881869D01*
X23325683Y55881931D01*
X23299275Y55882154D01*
X23272871Y55882632D01*
X23246470Y55883463D01*
X23236604Y55883885D01*
X23231277Y55884123D01*
X23226027Y55884473D01*
X23220848Y55884933D01*
X23215729Y55885503D01*
X23210663Y55886178D01*
X23205640Y55886959D01*
X23200654Y55887842D01*
X23195695Y55888825D01*
X23185826Y55891087D01*
X23175965Y55893727D01*
X23166045Y55896730D01*
X23156000Y55900081D01*
X23148230Y55903147D01*
X23139229Y55906658D01*
X23129696Y55910332D01*
X23120133Y55913929D01*
X23099212Y55922004D01*
X23078648Y55930618D01*
X23058451Y55939779D01*
X23038631Y55949499D01*
X23019200Y55959789D01*
X23000166Y55970658D01*
X22981540Y55982117D01*
X22963334Y55994177D01*
X22945556Y56006848D01*
X22928217Y56020141D01*
X22911328Y56034066D01*
X22894899Y56048634D01*
X22878940Y56063855D01*
X22863461Y56079740D01*
X22848473Y56096299D01*
X22833986Y56113543D01*
X22828327Y56120622D01*
X22819548Y56131862D01*
X22811041Y56143303D01*
X22802812Y56154938D01*
X22794867Y56166763D01*
X22787212Y56178771D01*
X22779853Y56190958D01*
X22772796Y56203317D01*
X22766047Y56215845D01*
X22759612Y56228534D01*
X22753496Y56241379D01*
X22747707Y56254376D01*
X22742249Y56267518D01*
X22737129Y56280800D01*
X22732352Y56294217D01*
X22727926Y56307763D01*
X22723854Y56321433D01*
X22721171Y56330966D01*
X22715108Y56352286D01*
X22710558Y56370056D01*
X22708785Y56378367D01*
X22707311Y56386700D01*
X22706111Y56395358D01*
X22705158Y56404644D01*
X22703889Y56426314D01*
X22703294Y56454133D01*
X22703292Y56537926D01*
X22703329Y56593755D01*
X22703328Y56691848D01*
X22703417Y56838561D01*
X22703481Y57085610D01*
X22703634Y57331372D01*
X22703635Y57346805D01*
X22703641Y57408856D01*
X22703666Y57590204D01*
X22703668Y57598189D01*
X22703875Y57982338D01*
X22704123Y58516785D01*
X22704126Y58533427D01*
X22704141Y58616433D01*
X22704142Y58624710D01*
X22704149Y58666015D01*
X22704308Y59184487D01*
X22704366Y59338330D01*
X22704525Y59663480D01*
X22704606Y59798027D01*
X22704633Y59846079D01*
X23124474Y59846079D01*
X23124510Y59837670D01*
X23124513Y59829260D01*
X23124475Y59805741D01*
X23124511Y59782222D01*
X23124555Y59730650D01*
X23124583Y59640148D01*
X23124698Y59504954D01*
X23124857Y59263910D01*
X23125062Y59052333D01*
X23125079Y59024007D01*
X23125105Y58981332D01*
X23125833Y58316710D01*
X23126102Y58123467D01*
X23127259Y57420280D01*
X23127610Y57235416D01*
X23128105Y56996460D01*
X23128363Y56881480D01*
X23128566Y56785724D01*
X23128695Y56737406D01*
X23128777Y56693146D01*
X23128847Y56676911D01*
X23129032Y56658970D01*
X23129670Y56641064D01*
X23130803Y56623223D01*
X23132472Y56605474D01*
X23134718Y56587848D01*
X23137583Y56570373D01*
X23141108Y56553078D01*
X23145334Y56535991D01*
X23150303Y56519141D01*
X23156055Y56502558D01*
X23162633Y56486269D01*
X23170077Y56470305D01*
X23178429Y56454693D01*
X23187729Y56439463D01*
X23198020Y56424644D01*
X23209343Y56410263D01*
X23225769Y56395016D01*
X23242668Y56381336D01*
X23260021Y56369143D01*
X23277809Y56358357D01*
X23296015Y56348897D01*
X23314618Y56340685D01*
X23333600Y56333641D01*
X23352942Y56327684D01*
X23372626Y56322735D01*
X23392633Y56318715D01*
X23412943Y56315542D01*
X23433539Y56313138D01*
X23454400Y56311423D01*
X23475509Y56310317D01*
X23496847Y56309740D01*
X23518395Y56309612D01*
X23561732Y56309638D01*
X23637898Y56309633D01*
X23751878Y56309693D01*
X23944036Y56309731D01*
X24135809Y56309837D01*
X24147880Y56309838D01*
X24196429Y56309840D01*
X24639279Y56309997D01*
X25055811Y56310167D01*
X25068710Y56310168D01*
X25120216Y56310174D01*
X25145903Y56310176D01*
X25171540Y56310179D01*
X25584243Y56310286D01*
X25704305Y56310325D01*
X26120428Y56310403D01*
X26536545Y56312222D01*
X26570677Y56312481D01*
X26596456Y56312645D01*
X26622235Y56312878D01*
X26640641Y56313088D01*
X26656132Y56313309D01*
X26671399Y56313879D01*
X26686499Y56314839D01*
X26701483Y56316233D01*
X26716407Y56318103D01*
X26731325Y56320492D01*
X26746291Y56323442D01*
X26761358Y56326997D01*
X26774801Y56331892D01*
X26787717Y56337366D01*
X26800121Y56343407D01*
X26812026Y56350004D01*
X26823447Y56357144D01*
X26834396Y56364817D01*
X26844887Y56373010D01*
X26854934Y56381713D01*
X26864550Y56390914D01*
X26873750Y56400601D01*
X26882546Y56410763D01*
X26890953Y56421388D01*
X26898983Y56432465D01*
X26906651Y56443982D01*
X26913970Y56455928D01*
X26920954Y56468292D01*
X26925069Y56476073D01*
X26936275Y56509008D01*
X26944682Y56535051D01*
X26947956Y56546239D01*
X26950673Y56556605D01*
X26952883Y56566450D01*
X26954632Y56576075D01*
X26955970Y56585779D01*
X26956944Y56595863D01*
X26957602Y56606628D01*
X26957992Y56618374D01*
X26958160Y56646010D01*
X26957832Y56681176D01*
X26957777Y56702820D01*
X26957794Y56724464D01*
X26957796Y56800597D01*
X26957706Y56914465D01*
X26957642Y57106520D01*
X26957489Y57298182D01*
X26957488Y57310254D01*
X26957482Y57358813D01*
X26957255Y57801676D01*
X26957001Y58217979D01*
X26956999Y58230867D01*
X26956984Y58295171D01*
X26956981Y58307999D01*
X26956976Y58333617D01*
X26956816Y58746370D01*
X26956757Y58866393D01*
X26956524Y59290393D01*
X26954500Y59714386D01*
X26954187Y59751603D01*
X26953694Y59808239D01*
X26953469Y59828526D01*
X26953232Y59846764D01*
X26952705Y59864906D01*
X26951783Y59882959D01*
X26950360Y59900933D01*
X26948333Y59918835D01*
X26947060Y59927762D01*
X26945597Y59936675D01*
X26943931Y59945574D01*
X26942048Y59954461D01*
X26939936Y59963336D01*
X26937581Y59972200D01*
X26935239Y59979983D01*
X26932076Y59990106D01*
X26928686Y60000045D01*
X26925063Y60009825D01*
X26921195Y60019474D01*
X26917074Y60029017D01*
X26912691Y60038481D01*
X26908037Y60047894D01*
X26903102Y60057281D01*
X26896296Y60069528D01*
X26893241Y60075742D01*
X26890012Y60081437D01*
X26886603Y60086652D01*
X26883009Y60091429D01*
X26879227Y60095806D01*
X26875249Y60099825D01*
X26871073Y60103526D01*
X26866692Y60106948D01*
X26862102Y60110133D01*
X26857298Y60113119D01*
X26852274Y60115949D01*
X26847027Y60118660D01*
X26841550Y60121295D01*
X26835839Y60123892D01*
X26823696Y60129137D01*
X26816711Y60132063D01*
X26809755Y60135033D01*
X26802830Y60138072D01*
X26795936Y60141204D01*
X26786911Y60145481D01*
X26777873Y60149731D01*
X26769048Y60153864D01*
X26759365Y60158339D01*
X26749674Y60162435D01*
X26739966Y60166163D01*
X26730236Y60169532D01*
X26720475Y60172554D01*
X26710677Y60175239D01*
X26700835Y60177597D01*
X26690942Y60179639D01*
X26680990Y60181376D01*
X26670973Y60182818D01*
X26660883Y60183975D01*
X26650714Y60184858D01*
X26640458Y60185478D01*
X26630108Y60185844D01*
X26619657Y60185969D01*
X26609098Y60185861D01*
X26599176Y60185678D01*
X26589255Y60185542D01*
X26545720Y60185070D01*
X26511210Y60184669D01*
X26476698Y60184460D01*
X26464927Y60184433D01*
X26440848Y60184377D01*
X26377272Y60184173D01*
X26350348Y60184063D01*
X26336544Y60184007D01*
X26263128Y60183719D01*
X26224018Y60183568D01*
X26216047Y60183537D01*
X26133937Y60183218D01*
X25766352Y60181820D01*
X25756784Y60181785D01*
X25099661Y60179676D01*
X25088639Y60179645D01*
X24901209Y60179126D01*
X23690289Y60175157D01*
X23611983Y60174822D01*
X23520094Y60174419D01*
X23475096Y60174191D01*
X23434812Y60174020D01*
X23420288Y60173918D01*
X23408868Y60173787D01*
X23397726Y60173391D01*
X23386842Y60172703D01*
X23376198Y60171698D01*
X23365773Y60170351D01*
X23355547Y60168636D01*
X23345501Y60166528D01*
X23335615Y60164002D01*
X23325868Y60161032D01*
X23316242Y60157593D01*
X23306716Y60153659D01*
X23297271Y60149205D01*
X23287886Y60144205D01*
X23278542Y60138635D01*
X23269219Y60132468D01*
X23259898Y60125679D01*
X23249015Y60117153D01*
X23234428Y60106125D01*
X23227189Y60100515D01*
X23220086Y60094748D01*
X23216610Y60091784D01*
X23213195Y60088756D01*
X23209852Y60085654D01*
X23206590Y60082469D01*
X23203418Y60079194D01*
X23200346Y60075819D01*
X23197382Y60072337D01*
X23194537Y60068737D01*
X23189484Y60061590D01*
X23180837Y60049291D01*
X23172888Y60036874D01*
X23165617Y60024330D01*
X23159007Y60011652D01*
X23153039Y59998832D01*
X23147694Y59985860D01*
X23142954Y59972730D01*
X23138801Y59959433D01*
X23135215Y59945961D01*
X23132180Y59932306D01*
X23129675Y59918460D01*
X23127684Y59904415D01*
X23126186Y59890162D01*
X23125164Y59875694D01*
X23124600Y59861002D01*
X23124474Y59846079D01*
X22704633Y59846079D01*
X22704668Y59910336D01*
X22704712Y59966989D01*
X22704735Y60019019D01*
X22704764Y60037997D01*
X22704795Y60072337D01*
X22705063Y60089507D01*
X22705675Y60106655D01*
X22706766Y60123760D01*
X22708469Y60140807D01*
X22709591Y60149302D01*
X22710916Y60157775D01*
X22712461Y60166225D01*
X22714241Y60174648D01*
X22716210Y60182637D01*
X22721160Y60201142D01*
X22726907Y60219669D01*
X22733417Y60238171D01*
X22740657Y60256598D01*
X22748592Y60274904D01*
X22757187Y60293041D01*
X22766410Y60310959D01*
X22776225Y60328612D01*
X22786599Y60345951D01*
X22797497Y60362927D01*
X22808885Y60379494D01*
X22820729Y60395603D01*
X22832995Y60411206D01*
X22845649Y60426254D01*
X22858657Y60440700D01*
X22871983Y60454497D01*
X22902483Y60482523D01*
X22934019Y60507537D01*
X22966534Y60529704D01*
X22999973Y60549189D01*
X23034281Y60566158D01*
X23069401Y60580776D01*
X23105279Y60593210D01*
X23141857Y60603624D01*
X23179082Y60612185D01*
X23216897Y60619057D01*
X23255246Y60624406D01*
X23294074Y60628398D01*
X23333325Y60631198D01*
X23372944Y60632972D01*
X23453061Y60634104D01*
X23502487Y60634090D01*
G37*
G36*
X26586734Y65990903D02*
G01*
X26572890Y65985753D01*
X26559201Y65980844D01*
X26552345Y65978500D01*
X26545445Y65976242D01*
X26538471Y65974076D01*
X26531397Y65972013D01*
X26522922Y65969671D01*
X26493821Y65961536D01*
X26472753Y65955662D01*
X26427716Y65943067D01*
X26319127Y65912692D01*
X26282561Y65902445D01*
X26087251Y65847274D01*
X26072532Y65843067D01*
X25936975Y65803999D01*
X25801538Y65764515D01*
X25673008Y65727140D01*
X25544344Y65690225D01*
X25356198Y65636229D01*
X25168252Y65581539D01*
X25049957Y65546978D01*
X24974099Y65524850D01*
X24921363Y65509462D01*
X24733638Y65454556D01*
X24686872Y65440221D01*
X24640273Y65425394D01*
X24593895Y65409950D01*
X24547787Y65393767D01*
X24529595Y65387236D01*
X24475358Y65367809D01*
X24540560Y65352093D01*
X24605575Y65335753D01*
X24670439Y65318825D01*
X24735190Y65301347D01*
X24786588Y65287300D01*
X24873566Y65263563D01*
X25079052Y65207553D01*
X25089026Y65204842D01*
X25243672Y65163011D01*
X25398438Y65121628D01*
X25408263Y65119018D01*
X25620718Y65062921D01*
X25721724Y65036279D01*
X25822496Y65008989D01*
X25922992Y64980707D01*
X26023171Y64951090D01*
X26054606Y64941573D01*
X26086077Y64932172D01*
X26095104Y64929510D01*
X26124645Y64920985D01*
X26154267Y64912852D01*
X26183998Y64905125D01*
X26213865Y64897816D01*
X26228151Y64894458D01*
X26264377Y64885929D01*
X26300652Y64877608D01*
X26349054Y64866461D01*
X26370653Y64860843D01*
X26394988Y64853863D01*
X26465274Y64831821D01*
X26586734Y64792340D01*
X26586734Y63776340D01*
X23455390Y63776340D01*
X23455390Y64391497D01*
X23548953Y64394698D01*
X23595702Y64395846D01*
X23642509Y64396468D01*
X23667321Y64396645D01*
X23736538Y64397166D01*
X23811884Y64397723D01*
X23951213Y64398763D01*
X24089446Y64399779D01*
X24098158Y64399844D01*
X24141980Y64400176D01*
X24451496Y64402478D01*
X24752423Y64404705D01*
X24761819Y64404775D01*
X24855299Y64405476D01*
X25045891Y64406901D01*
X25054747Y64406967D01*
X25632903Y64411244D01*
X25646140Y64411340D01*
X25623726Y64425001D01*
X25605913Y64435441D01*
X25598195Y64439657D01*
X25590981Y64443311D01*
X25584057Y64446486D01*
X25577209Y64449262D01*
X25570219Y64451722D01*
X25562874Y64453946D01*
X25554959Y64456016D01*
X25546258Y64458013D01*
X25525639Y64462115D01*
X25499296Y64466902D01*
X25499296Y64458966D01*
X25494041Y64458969D01*
X25489995Y64458995D01*
X25488339Y64459023D01*
X25486881Y64459065D01*
X25485586Y64459123D01*
X25484420Y64459200D01*
X25483348Y64459300D01*
X25482335Y64459424D01*
X25481345Y64459576D01*
X25480345Y64459758D01*
X25479300Y64459973D01*
X25478174Y64460224D01*
X25475543Y64460844D01*
X25466769Y64463628D01*
X25456132Y64466951D01*
X25442667Y64471176D01*
X25429186Y64475351D01*
X25386285Y64488572D01*
X25367031Y64494520D01*
X25325853Y64507238D01*
X25260445Y64527435D01*
X25249406Y64530842D01*
X25227369Y64537643D01*
X25097530Y64577735D01*
X24887938Y64642114D01*
X24782893Y64673476D01*
X24677545Y64703805D01*
X24614357Y64721612D01*
X24606327Y64723879D01*
X24549540Y64740159D01*
X24492944Y64756952D01*
X24436537Y64774372D01*
X24380317Y64792537D01*
X24366714Y64797053D01*
X24339466Y64806098D01*
X24325990Y64810573D01*
X24312640Y64815006D01*
X24177194Y64857666D01*
X24084328Y64886223D01*
X23991099Y64913580D01*
X23854559Y64952641D01*
X23652521Y65010850D01*
X23607939Y65023768D01*
X23475233Y65062215D01*
X23475233Y65669434D01*
X23503868Y65677240D01*
X23532464Y65685181D01*
X23544063Y65688543D01*
X23557594Y65692464D01*
X23571910Y65696626D01*
X23628410Y65713076D01*
X23636960Y65715571D01*
X23757142Y65751023D01*
X23817121Y65769115D01*
X23877008Y65787533D01*
X24014535Y65829635D01*
X24152372Y65870585D01*
X24290484Y65910600D01*
X24428834Y65949902D01*
X24596385Y65997136D01*
X24606823Y66000080D01*
X24971199Y66103487D01*
X25011702Y66115045D01*
X25137742Y66151066D01*
X25263582Y66187775D01*
X25291733Y66196139D01*
X25325522Y66206152D01*
X25359281Y66216267D01*
X25398121Y66227870D01*
X25417501Y66233332D01*
X25436927Y66238441D01*
X25456453Y66243103D01*
X25476134Y66247224D01*
X25496023Y66250708D01*
X25516174Y66253461D01*
X25528143Y66254834D01*
X25540359Y66256458D01*
X25546490Y66257437D01*
X25552601Y66258566D01*
X25558663Y66259876D01*
X25564648Y66261394D01*
X25570529Y66263151D01*
X25576278Y66265176D01*
X25581867Y66267498D01*
X25587270Y66270146D01*
X25592457Y66273150D01*
X25594961Y66274795D01*
X25597402Y66276539D01*
X25599774Y66278388D01*
X25602076Y66280343D01*
X25604303Y66282409D01*
X25606452Y66284590D01*
X25346584Y66288747D01*
X25086692Y66291063D01*
X24963963Y66291974D01*
X24743224Y66293629D01*
X24729975Y66293727D01*
X24676848Y66294120D01*
X24531204Y66295199D01*
X24518046Y66295296D01*
X24297285Y66296953D01*
X24173840Y66297876D01*
X23761983Y66301390D01*
X23749911Y66301526D01*
X23506984Y66304434D01*
X23506984Y66955309D01*
X26586734Y66955309D01*
X26586734Y65990903D01*
G37*
G36*
X27848261Y59796219D02*
G01*
X27944916Y59796209D01*
X28057706Y59796202D01*
X28155116Y59796223D01*
X28213111Y59796217D01*
X28268655Y59796219D01*
X28289048Y59796198D01*
X28317613Y59796207D01*
X28326160Y59796188D01*
X28332828Y59796164D01*
X28339497Y59796083D01*
X28346164Y59795929D01*
X28352827Y59795684D01*
X28354138Y59794359D01*
X28354670Y59793793D01*
X28355129Y59793269D01*
X28355521Y59792769D01*
X28355853Y59792276D01*
X28356130Y59791774D01*
X28356361Y59791244D01*
X28356550Y59790670D01*
X28356706Y59790035D01*
X28356833Y59789321D01*
X28356940Y59788512D01*
X28357032Y59787590D01*
X28357115Y59786538D01*
X28357284Y59783975D01*
X28357273Y59773610D01*
X28357290Y59761778D01*
X28357246Y59748640D01*
X28357215Y59704855D01*
X28357175Y59675874D01*
X28357153Y59632647D01*
X28357044Y59559296D01*
X28356796Y59327372D01*
X27658296Y59327372D01*
X27658048Y59559296D01*
X27657920Y59662103D01*
X27657908Y59689753D01*
X27657844Y59734691D01*
X27657845Y59748640D01*
X27657802Y59761778D01*
X27657819Y59773610D01*
X27657837Y59778139D01*
X27657912Y59782667D01*
X27658060Y59787194D01*
X27658296Y59791716D01*
X27659628Y59793026D01*
X27660210Y59793559D01*
X27660766Y59794018D01*
X27661319Y59794410D01*
X27661890Y59794741D01*
X27662501Y59795020D01*
X27663176Y59795250D01*
X27663937Y59795441D01*
X27664805Y59795597D01*
X27665803Y59795725D01*
X27666954Y59795833D01*
X27669802Y59796011D01*
X27673527Y59796184D01*
X27688932Y59796188D01*
X27716117Y59796211D01*
X27736118Y59796205D01*
X27790452Y59796225D01*
X27848261Y59796219D01*
G37*
G36*
X25494335Y64474824D02*
G01*
X25495596Y64474788D01*
X25496753Y64474716D01*
X25497840Y64474598D01*
X25498893Y64474421D01*
X25499945Y64474175D01*
X25501032Y64473848D01*
X25502189Y64473427D01*
X25503451Y64472902D01*
X25504852Y64472260D01*
X25506427Y64471491D01*
X25510241Y64469522D01*
X25515171Y64466902D01*
X25499296Y64466902D01*
X25499296Y64458966D01*
X25494033Y64458981D01*
X25491857Y64459018D01*
X25489932Y64459090D01*
X25488216Y64459208D01*
X25486669Y64459384D01*
X25485249Y64459630D01*
X25484575Y64459783D01*
X25483917Y64459958D01*
X25483271Y64460155D01*
X25482631Y64460378D01*
X25481993Y64460627D01*
X25481351Y64460903D01*
X25480036Y64461545D01*
X25478646Y64462314D01*
X25477139Y64463223D01*
X25475476Y64464282D01*
X25471515Y64466902D01*
X25491358Y64466902D01*
X25491358Y64474840D01*
X25494335Y64474824D01*
G37*
G36*
X26586734Y67264871D02*
G01*
X26019202Y67264871D01*
X26019202Y67959403D01*
X23506984Y67959403D01*
X23506984Y68578527D01*
X26019202Y68578527D01*
X26019202Y69253214D01*
X26586734Y69253214D01*
X26586734Y67264871D01*
G37*
G36*
X24800075Y63395181D02*
G01*
X24969464Y63394507D01*
X25133190Y63393838D01*
X25143400Y63393803D01*
X25153597Y63393767D01*
X25173944Y63393697D01*
X25184090Y63393661D01*
X25342282Y63393057D01*
X25399056Y63392837D01*
X25489463Y63392470D01*
X25523212Y63392312D01*
X25612850Y63391657D01*
X25657659Y63390933D01*
X25702469Y63389827D01*
X25710873Y63389576D01*
X25728250Y63389089D01*
X25745621Y63388509D01*
X25762980Y63387679D01*
X25771652Y63387122D01*
X25780317Y63386444D01*
X25825271Y63380242D01*
X25869040Y63371637D01*
X25911645Y63360708D01*
X25953104Y63347538D01*
X25993439Y63332207D01*
X26032669Y63314798D01*
X26070814Y63295393D01*
X26107893Y63274071D01*
X26143928Y63250916D01*
X26178937Y63226008D01*
X26212941Y63199429D01*
X26245959Y63171261D01*
X26278012Y63141584D01*
X26309119Y63110482D01*
X26339300Y63078034D01*
X26368576Y63044323D01*
X26380358Y63030216D01*
X26392308Y63015983D01*
X26404004Y63001677D01*
X26415418Y62987239D01*
X26426519Y62972613D01*
X26437277Y62957740D01*
X26447662Y62942563D01*
X26457645Y62927024D01*
X26467194Y62911065D01*
X26471640Y62903215D01*
X26509630Y62833535D01*
X26525000Y62800000D01*
X26538178Y62764226D01*
X26549334Y62723882D01*
X26558634Y62676636D01*
X26572347Y62552118D01*
X26580664Y62372019D01*
X26584935Y62117692D01*
X26586734Y61311747D01*
X26070796Y61311747D01*
X23491109Y61311747D01*
X23485170Y61450919D01*
X23478641Y61590053D01*
X23464154Y61882799D01*
X23460234Y62030797D01*
X23460917Y62132603D01*
X23982685Y62132603D01*
X23983501Y62086722D01*
X23985311Y62035193D01*
X23991171Y61911028D01*
X26070796Y61911028D01*
X26073295Y62138551D01*
X26072968Y62196644D01*
X26071430Y62254565D01*
X26068264Y62311986D01*
X26063055Y62368579D01*
X26061618Y62379837D01*
X26059261Y62396433D01*
X26056408Y62412558D01*
X26053042Y62428239D01*
X26049148Y62443501D01*
X26044708Y62458369D01*
X26039707Y62472870D01*
X26034127Y62487030D01*
X26027951Y62500874D01*
X26021164Y62514428D01*
X26013749Y62527717D01*
X26005689Y62540768D01*
X25996967Y62553606D01*
X25987568Y62566258D01*
X25977474Y62578748D01*
X25966669Y62591103D01*
X25955136Y62603348D01*
X25924671Y62632205D01*
X25893742Y62658062D01*
X25862317Y62681078D01*
X25830364Y62701411D01*
X25797854Y62719219D01*
X25764753Y62734660D01*
X25731030Y62747892D01*
X25696654Y62759073D01*
X25661594Y62768361D01*
X25625817Y62775915D01*
X25589292Y62781893D01*
X25551988Y62786452D01*
X25513874Y62789750D01*
X25474917Y62791947D01*
X25435086Y62793199D01*
X25394350Y62793665D01*
X25338381Y62793905D01*
X25243529Y62794340D01*
X25111202Y62794918D01*
X24850595Y62795967D01*
X24811197Y62796090D01*
X24719285Y62796351D01*
X24690353Y62796400D01*
X24635492Y62796522D01*
X24608012Y62796360D01*
X24580529Y62795889D01*
X24553066Y62794990D01*
X24525644Y62793542D01*
X24498286Y62791426D01*
X24471015Y62788522D01*
X24460972Y62787129D01*
X24429592Y62782303D01*
X24398312Y62776329D01*
X24382755Y62772866D01*
X24367277Y62769062D01*
X24351896Y62764899D01*
X24336630Y62760361D01*
X24321498Y62755428D01*
X24306517Y62750082D01*
X24291705Y62744307D01*
X24277080Y62738084D01*
X24262661Y62731396D01*
X24248465Y62724224D01*
X24234511Y62716551D01*
X24220816Y62708359D01*
X24209452Y62700809D01*
X24197938Y62693180D01*
X24186709Y62685449D01*
X24175778Y62677520D01*
X24170430Y62673451D01*
X24165162Y62669296D01*
X24159976Y62665043D01*
X24154875Y62660680D01*
X24149859Y62656195D01*
X24144932Y62651575D01*
X24140094Y62646809D01*
X24135348Y62641884D01*
X24130696Y62636789D01*
X24126140Y62631511D01*
X24118171Y62621434D01*
X24070143Y62509722D01*
X24050783Y62463084D01*
X24034278Y62421205D01*
X24020442Y62383044D01*
X24009088Y62347560D01*
X24000031Y62313713D01*
X23993085Y62280462D01*
X23988063Y62246766D01*
X23984780Y62211584D01*
X23983049Y62173877D01*
X23982685Y62132603D01*
X23460917Y62132603D01*
X23461227Y62178891D01*
X23464198Y62252744D01*
X23469156Y62326344D01*
X23476353Y62399598D01*
X23486043Y62472415D01*
X23498479Y62544701D01*
X23513912Y62616365D01*
X23532598Y62687314D01*
X23554787Y62757455D01*
X23558577Y62768278D01*
X23570531Y62801183D01*
X23583409Y62833920D01*
X23597285Y62866350D01*
X23612233Y62898336D01*
X23620132Y62914118D01*
X23628327Y62929738D01*
X23636827Y62945176D01*
X23645641Y62960417D01*
X23654779Y62975443D01*
X23664249Y62990237D01*
X23674061Y63004780D01*
X23684225Y63019057D01*
X23689546Y63026247D01*
X23699399Y63039632D01*
X23709311Y63052972D01*
X23716087Y63061965D01*
X23721538Y63069100D01*
X23727062Y63076097D01*
X23732679Y63082963D01*
X23738407Y63089707D01*
X23744267Y63096336D01*
X23750277Y63102859D01*
X23756458Y63109283D01*
X23762829Y63115615D01*
X23768921Y63121496D01*
X23778099Y63130923D01*
X23827471Y63175632D01*
X23878345Y63215045D01*
X23930643Y63249494D01*
X23984289Y63279307D01*
X24039208Y63304815D01*
X24095323Y63326347D01*
X24152557Y63344233D01*
X24210835Y63358803D01*
X24270081Y63370386D01*
X24330218Y63379314D01*
X24391169Y63385915D01*
X24452860Y63390519D01*
X24515213Y63393456D01*
X24578152Y63395057D01*
X24705486Y63395566D01*
X24800075Y63395181D01*
G37*
G36*
X28356796Y58001809D02*
G01*
X27658296Y58001809D01*
X27658296Y58489965D01*
X28356796Y58489965D01*
X28356796Y58001809D01*
G37*
G36*
X26356546Y54862528D02*
G01*
X25904109Y54862528D01*
X25904109Y55612622D01*
X26356546Y55612622D01*
X26356546Y54862528D01*
G37*
G36*
X25233390Y54862528D02*
G01*
X24765077Y54862528D01*
X24765077Y55608653D01*
X25233390Y55608653D01*
X25233390Y54862528D01*
G37*
G36*
X22440929Y59796161D02*
G01*
X22447491Y59796144D01*
X22454053Y59796070D01*
X22460614Y59795922D01*
X22467171Y59795684D01*
X22468482Y59794359D01*
X22469014Y59793793D01*
X22469473Y59793269D01*
X22469865Y59792769D01*
X22470197Y59792276D01*
X22470474Y59791774D01*
X22470705Y59791244D01*
X22470894Y59790670D01*
X22471050Y59790035D01*
X22471177Y59789321D01*
X22471284Y59788512D01*
X22471376Y59787590D01*
X22471459Y59786538D01*
X22471628Y59783975D01*
X22471617Y59773610D01*
X22471633Y59761778D01*
X22471590Y59748640D01*
X22471559Y59704855D01*
X22471519Y59675874D01*
X22471497Y59632647D01*
X22471388Y59559296D01*
X22471140Y59327372D01*
X21788515Y59327372D01*
X21788515Y59795684D01*
X22018639Y59795873D01*
X22164624Y59795970D01*
X22272697Y59796055D01*
X22329728Y59796087D01*
X22384362Y59796137D01*
X22404422Y59796135D01*
X22432521Y59796171D01*
X22440929Y59796161D01*
G37*
G36*
X28356796Y56680216D02*
G01*
X27658296Y56680216D01*
X27658296Y57148528D01*
X28356796Y57148528D01*
X28356796Y56680216D01*
G37*
G36*
X22471140Y58001809D02*
G01*
X21788515Y58001809D01*
X21788515Y58489965D01*
X22471140Y58489965D01*
X22471140Y58001809D01*
G37*
G36*
X24074515Y54878403D02*
G01*
X23622077Y54878403D01*
X23622077Y55612622D01*
X24074515Y55612622D01*
X24074515Y54878403D01*
G37*
D11*
G36*
X10412824Y33941816D02*
G01*
X7686487Y33941816D01*
X7686487Y34920337D01*
X7775376Y34920337D01*
X7775376Y34891073D01*
X7786575Y34864037D01*
X7807267Y34843345D01*
X7834303Y34832146D01*
X7848935Y34830705D01*
X8002507Y34830705D01*
X8002507Y34105705D01*
X8003948Y34091073D01*
X8015147Y34064037D01*
X8035839Y34043345D01*
X8062875Y34032146D01*
X8092139Y34032146D01*
X8119175Y34043345D01*
X8139867Y34064037D01*
X8151066Y34091073D01*
X8152507Y34105705D01*
X8152507Y34830705D01*
X8306078Y34830705D01*
X8320710Y34832146D01*
X8347746Y34843345D01*
X8368438Y34864037D01*
X8379637Y34891073D01*
X8379637Y34905705D01*
X8497744Y34905705D01*
X8497744Y34105705D01*
X8498114Y34101942D01*
X8497927Y34100466D01*
X8498448Y34098556D01*
X8499185Y34091073D01*
X8503002Y34081858D01*
X8505627Y34072234D01*
X8508554Y34068454D01*
X8510384Y34064037D01*
X8517434Y34056987D01*
X8523544Y34049097D01*
X8527697Y34046724D01*
X8531076Y34043345D01*
X8540288Y34039529D01*
X8548953Y34034578D01*
X8553696Y34033976D01*
X8558112Y34032146D01*
X8568086Y34032146D01*
X8577983Y34030888D01*
X8582595Y34032146D01*
X8587376Y34032146D01*
X8596591Y34035964D01*
X8606215Y34038588D01*
X8609995Y34041516D01*
X8614412Y34043345D01*
X8621462Y34050396D01*
X8629352Y34056505D01*
X8633704Y34062638D01*
X8635104Y34064037D01*
X8635673Y34065412D01*
X8637862Y34068495D01*
X8954887Y34623289D01*
X8954887Y34105705D01*
X8956328Y34091073D01*
X8967527Y34064037D01*
X8988219Y34043345D01*
X9015255Y34032146D01*
X9044519Y34032146D01*
X9071555Y34043345D01*
X9092247Y34064037D01*
X9103446Y34091073D01*
X9104887Y34105705D01*
X9104887Y34905705D01*
X9335839Y34905705D01*
X9335839Y34105705D01*
X9337280Y34091073D01*
X9348479Y34064037D01*
X9369171Y34043345D01*
X9396207Y34032146D01*
X9425471Y34032146D01*
X9452507Y34043345D01*
X9473199Y34064037D01*
X9484398Y34091073D01*
X9485839Y34105705D01*
X9485839Y34844147D01*
X9680137Y34844147D01*
X9680137Y34814885D01*
X9691335Y34787848D01*
X9712028Y34767155D01*
X9739064Y34755956D01*
X9768326Y34755956D01*
X9795363Y34767154D01*
X9806728Y34776481D01*
X9832305Y34802058D01*
X9918247Y34830705D01*
X9970098Y34830705D01*
X10056040Y34802058D01*
X10111104Y34746994D01*
X10140074Y34689055D01*
X10173935Y34553613D01*
X10173935Y34457798D01*
X10140074Y34322357D01*
X10111104Y34264418D01*
X10056039Y34209352D01*
X9970098Y34180705D01*
X9918247Y34180705D01*
X9832306Y34209352D01*
X9806729Y34234929D01*
X9795364Y34244256D01*
X9768327Y34255455D01*
X9739065Y34255455D01*
X9712028Y34244256D01*
X9691336Y34223564D01*
X9680137Y34196527D01*
X9680137Y34167265D01*
X9691336Y34140228D01*
X9700663Y34128863D01*
X9738759Y34090767D01*
X9750124Y34081439D01*
X9752614Y34080408D01*
X9754649Y34078643D01*
X9768075Y34072649D01*
X9882360Y34034554D01*
X9889613Y34032905D01*
X9891445Y34032146D01*
X9894099Y34031885D01*
X9896697Y34031294D01*
X9898671Y34031435D01*
X9906077Y34030705D01*
X9982268Y34030705D01*
X9989673Y34031435D01*
X9991648Y34031294D01*
X9994245Y34031885D01*
X9996900Y34032146D01*
X9998731Y34032905D01*
X10005985Y34034554D01*
X10120271Y34072649D01*
X10133696Y34078643D01*
X10135731Y34080409D01*
X10138222Y34081440D01*
X10149587Y34090767D01*
X10225778Y34166959D01*
X10230495Y34172708D01*
X10231994Y34174007D01*
X10233415Y34176266D01*
X10235105Y34178324D01*
X10235862Y34180154D01*
X10239826Y34186450D01*
X10277921Y34262640D01*
X10278330Y34263710D01*
X10278653Y34264145D01*
X10280851Y34270297D01*
X10283176Y34276372D01*
X10283214Y34276911D01*
X10283600Y34277990D01*
X10321696Y34430372D01*
X10322071Y34432909D01*
X10322494Y34433930D01*
X10323036Y34439443D01*
X10323846Y34444916D01*
X10323683Y34446009D01*
X10323935Y34448562D01*
X10323935Y34562848D01*
X10323683Y34565402D01*
X10323846Y34566494D01*
X10323036Y34571968D01*
X10322494Y34577480D01*
X10322071Y34578502D01*
X10321696Y34581038D01*
X10283600Y34733420D01*
X10283214Y34734500D01*
X10283176Y34735038D01*
X10280851Y34741114D01*
X10278653Y34747265D01*
X10278330Y34747701D01*
X10277921Y34748770D01*
X10239826Y34824961D01*
X10235863Y34831256D01*
X10235105Y34833088D01*
X10233413Y34835150D01*
X10231994Y34837404D01*
X10230497Y34838703D01*
X10225777Y34844453D01*
X10149587Y34920643D01*
X10138222Y34929970D01*
X10135731Y34931002D01*
X10133696Y34932767D01*
X10120271Y34938761D01*
X10005985Y34976856D01*
X9998731Y34978506D01*
X9996900Y34979264D01*
X9994245Y34979526D01*
X9991648Y34980116D01*
X9989673Y34979976D01*
X9982268Y34980705D01*
X9906077Y34980705D01*
X9898671Y34979976D01*
X9896697Y34980116D01*
X9894099Y34979526D01*
X9891445Y34979264D01*
X9889613Y34978506D01*
X9882360Y34976856D01*
X9768075Y34938761D01*
X9754649Y34932767D01*
X9752613Y34931002D01*
X9750125Y34929971D01*
X9738760Y34920644D01*
X9700664Y34882549D01*
X9691336Y34871183D01*
X9680137Y34844147D01*
X9485839Y34844147D01*
X9485839Y34905705D01*
X9484398Y34920337D01*
X9473199Y34947373D01*
X9452507Y34968065D01*
X9425471Y34979264D01*
X9396207Y34979264D01*
X9369171Y34968065D01*
X9348479Y34947373D01*
X9337280Y34920337D01*
X9335839Y34905705D01*
X9104887Y34905705D01*
X9104516Y34909469D01*
X9104704Y34910944D01*
X9104182Y34912855D01*
X9103446Y34920337D01*
X9099628Y34929553D01*
X9097004Y34939176D01*
X9094076Y34942957D01*
X9092247Y34947373D01*
X9085196Y34954424D01*
X9079087Y34962313D01*
X9074933Y34964687D01*
X9071555Y34968065D01*
X9062342Y34971882D01*
X9053678Y34976832D01*
X9048934Y34977435D01*
X9044519Y34979264D01*
X9034545Y34979264D01*
X9024648Y34980522D01*
X9020036Y34979264D01*
X9015255Y34979264D01*
X9006038Y34975447D01*
X8996417Y34972822D01*
X8992637Y34969896D01*
X8988219Y34968065D01*
X8981167Y34961014D01*
X8973279Y34954905D01*
X8968926Y34948773D01*
X8967527Y34947373D01*
X8966957Y34945999D01*
X8964769Y34942915D01*
X8647744Y34388122D01*
X8647744Y34905705D01*
X8646303Y34920337D01*
X8635104Y34947373D01*
X8614412Y34968065D01*
X8587376Y34979264D01*
X8558112Y34979264D01*
X8531076Y34968065D01*
X8510384Y34947373D01*
X8499185Y34920337D01*
X8497744Y34905705D01*
X8379637Y34905705D01*
X8379637Y34920337D01*
X8368438Y34947373D01*
X8347746Y34968065D01*
X8320710Y34979264D01*
X8306078Y34980705D01*
X7848935Y34980705D01*
X7834303Y34979264D01*
X7807267Y34968065D01*
X7786575Y34947373D01*
X7775376Y34920337D01*
X7686487Y34920337D01*
X7686487Y35069594D01*
X10412824Y35069594D01*
X10412824Y33941816D01*
G37*
G36*
X22740515Y25564426D02*
G01*
X22770922Y25534019D01*
X22805180Y25465503D01*
X22805180Y25177256D01*
X22431371Y25177256D01*
X22431371Y25465503D01*
X22465629Y25534019D01*
X22496036Y25564426D01*
X22564552Y25598684D01*
X22671999Y25598684D01*
X22740515Y25564426D01*
G37*
G36*
X22663528Y30460063D02*
G01*
X22740515Y30421569D01*
X22770922Y30391162D01*
X22805180Y30322646D01*
X22805180Y30262818D01*
X22770922Y30194302D01*
X22740515Y30163895D01*
X22663528Y30125402D01*
X22489994Y30082018D01*
X22270367Y30082018D01*
X22096833Y30125402D01*
X22019846Y30163895D01*
X21989438Y30194303D01*
X21955180Y30262820D01*
X21955180Y30322645D01*
X21989438Y30391162D01*
X22019846Y30421569D01*
X22096833Y30460063D01*
X22270367Y30503446D01*
X22489994Y30503446D01*
X22663528Y30460063D01*
G37*
G36*
X22663528Y31888634D02*
G01*
X22740515Y31850140D01*
X22770922Y31819733D01*
X22805180Y31751217D01*
X22805180Y31691389D01*
X22770922Y31622873D01*
X22740515Y31592466D01*
X22663528Y31553973D01*
X22489994Y31510589D01*
X22270367Y31510589D01*
X22096833Y31553973D01*
X22019846Y31592466D01*
X21989438Y31622874D01*
X21955180Y31691391D01*
X21955180Y31751216D01*
X21989438Y31819733D01*
X22019846Y31850140D01*
X22096833Y31888634D01*
X22270367Y31932017D01*
X22489994Y31932017D01*
X22663528Y31888634D01*
G37*
G36*
X23066291Y22725669D02*
G01*
X21694069Y22725669D01*
X21694069Y23497840D01*
X21806621Y23497840D01*
X21806621Y23468576D01*
X21817820Y23441540D01*
X21838512Y23420848D01*
X21865548Y23409649D01*
X21880180Y23408208D01*
X22328990Y23408208D01*
X22328990Y22986780D01*
X21880180Y22986780D01*
X21865548Y22985339D01*
X21838512Y22974140D01*
X21817820Y22953448D01*
X21806621Y22926412D01*
X21806621Y22897148D01*
X21817820Y22870112D01*
X21838512Y22849420D01*
X21865548Y22838221D01*
X21880180Y22836780D01*
X22880180Y22836780D01*
X22894812Y22838221D01*
X22921848Y22849420D01*
X22942540Y22870112D01*
X22953739Y22897148D01*
X22953739Y22926412D01*
X22942540Y22953448D01*
X22921848Y22974140D01*
X22894812Y22985339D01*
X22880180Y22986780D01*
X22478990Y22986780D01*
X22478990Y23408208D01*
X22880180Y23408208D01*
X22894812Y23409649D01*
X22921848Y23420848D01*
X22942540Y23441540D01*
X22953739Y23468576D01*
X22953739Y23497840D01*
X22942540Y23524876D01*
X22921848Y23545568D01*
X22894812Y23556767D01*
X22880180Y23558208D01*
X21880180Y23558208D01*
X21865548Y23556767D01*
X21838512Y23545568D01*
X21817820Y23524876D01*
X21806621Y23497840D01*
X21694069Y23497840D01*
X21694069Y24480404D01*
X21805232Y24480404D01*
X21807755Y24469806D01*
X21809189Y24459015D01*
X21811117Y24455684D01*
X21812010Y24451936D01*
X21818396Y24443112D01*
X21823851Y24433690D01*
X21826908Y24431350D01*
X21829167Y24428229D01*
X21838442Y24422522D01*
X21847089Y24415903D01*
X21852488Y24413878D01*
X21854089Y24412893D01*
X21855880Y24412606D01*
X21860855Y24410740D01*
X22303386Y24292732D01*
X21860855Y24174724D01*
X21855880Y24172859D01*
X21854089Y24172571D01*
X21852488Y24171587D01*
X21847089Y24169561D01*
X21838442Y24162943D01*
X21829167Y24157235D01*
X21826908Y24154115D01*
X21823851Y24151774D01*
X21818396Y24142353D01*
X21812010Y24133528D01*
X21811117Y24129781D01*
X21809189Y24126449D01*
X21807755Y24115659D01*
X21805232Y24105060D01*
X21805841Y24101257D01*
X21805335Y24097441D01*
X21808140Y24086920D01*
X21809865Y24076165D01*
X21811882Y24072886D01*
X21812875Y24069165D01*
X21819493Y24060519D01*
X21825201Y24051243D01*
X21828321Y24048985D01*
X21830662Y24045927D01*
X21840083Y24040473D01*
X21848908Y24034086D01*
X21854358Y24032208D01*
X21855987Y24031265D01*
X21857788Y24031026D01*
X21862808Y24029296D01*
X22862809Y23791201D01*
X22877376Y23789213D01*
X22906271Y23793846D01*
X22931193Y23809182D01*
X22948350Y23832889D01*
X22955128Y23861357D01*
X22950495Y23890252D01*
X22935159Y23915174D01*
X22911452Y23932331D01*
X22897552Y23937121D01*
X22186696Y24106373D01*
X22613791Y24220264D01*
X22617218Y24221550D01*
X22618660Y24221741D01*
X22620371Y24222732D01*
X22627558Y24225427D01*
X22635417Y24231444D01*
X22643984Y24236403D01*
X22646937Y24240261D01*
X22650795Y24243214D01*
X22655753Y24251779D01*
X22661772Y24259641D01*
X22663024Y24264338D01*
X22665457Y24268539D01*
X22666760Y24278348D01*
X22669312Y24287916D01*
X22668672Y24292732D01*
X22669312Y24297548D01*
X22666760Y24307117D01*
X22665457Y24316925D01*
X22663024Y24321127D01*
X22661772Y24325823D01*
X22655753Y24333686D01*
X22650795Y24342250D01*
X22646937Y24345204D01*
X22643984Y24349061D01*
X22635417Y24354021D01*
X22627558Y24360037D01*
X22620371Y24362733D01*
X22618660Y24363723D01*
X22617218Y24363915D01*
X22613791Y24365200D01*
X22186696Y24479092D01*
X22897552Y24648343D01*
X22911452Y24653133D01*
X22935159Y24670290D01*
X22950495Y24695212D01*
X22955128Y24724107D01*
X22948350Y24752575D01*
X22931193Y24776282D01*
X22906271Y24791618D01*
X22877376Y24796251D01*
X22862809Y24794263D01*
X21862808Y24556168D01*
X21857788Y24554439D01*
X21855987Y24554199D01*
X21854358Y24553257D01*
X21848908Y24551378D01*
X21840083Y24544992D01*
X21830662Y24539537D01*
X21828321Y24536480D01*
X21825201Y24534221D01*
X21819493Y24524946D01*
X21812875Y24516299D01*
X21811882Y24512579D01*
X21809865Y24509299D01*
X21808140Y24498545D01*
X21805335Y24488023D01*
X21805841Y24484208D01*
X21805232Y24480404D01*
X21694069Y24480404D01*
X21694069Y25675309D01*
X21805198Y25675309D01*
X21810283Y25646492D01*
X21826010Y25621813D01*
X21837170Y25612242D01*
X22281371Y25301302D01*
X22281371Y25177256D01*
X21880180Y25177256D01*
X21865548Y25175815D01*
X21838512Y25164616D01*
X21817820Y25143924D01*
X21806621Y25116888D01*
X21806621Y25087624D01*
X21817820Y25060588D01*
X21838512Y25039896D01*
X21865548Y25028697D01*
X21880180Y25027256D01*
X22880180Y25027256D01*
X22894812Y25028697D01*
X22921848Y25039896D01*
X22942540Y25060588D01*
X22953739Y25087624D01*
X22955180Y25102256D01*
X22955180Y25483208D01*
X22953739Y25497840D01*
X22952708Y25500329D01*
X22952517Y25503018D01*
X22947262Y25516749D01*
X22899643Y25611987D01*
X22895678Y25618287D01*
X22894921Y25620114D01*
X22893232Y25622171D01*
X22891811Y25624430D01*
X22890312Y25625730D01*
X22885594Y25631479D01*
X22837975Y25679098D01*
X22832225Y25683817D01*
X22830926Y25685315D01*
X22828666Y25686737D01*
X22826610Y25688425D01*
X22824782Y25689183D01*
X22818483Y25693147D01*
X22723245Y25740766D01*
X22709513Y25746021D01*
X22706825Y25746212D01*
X22704336Y25747243D01*
X22689704Y25748684D01*
X22546847Y25748684D01*
X22532215Y25747243D01*
X22529726Y25746213D01*
X22527037Y25746021D01*
X22513306Y25740766D01*
X22418068Y25693147D01*
X22411768Y25689183D01*
X22409941Y25688425D01*
X22407884Y25686737D01*
X22405625Y25685315D01*
X22404325Y25683817D01*
X22398576Y25679098D01*
X22350957Y25631479D01*
X22346238Y25625730D01*
X22344740Y25624430D01*
X22343318Y25622171D01*
X22341630Y25620114D01*
X22340872Y25618287D01*
X22336908Y25611987D01*
X22289289Y25516749D01*
X22284034Y25503017D01*
X22283843Y25500330D01*
X22282812Y25497840D01*
X22281480Y25484323D01*
X21923190Y25735126D01*
X21910376Y25742337D01*
X21881805Y25748666D01*
X21852988Y25743581D01*
X21828309Y25727854D01*
X21811527Y25703880D01*
X21805198Y25675309D01*
X21694069Y25675309D01*
X21694069Y26578446D01*
X21805180Y26578446D01*
X21805180Y26102256D01*
X21806621Y26087624D01*
X21817820Y26060588D01*
X21838512Y26039896D01*
X21865548Y26028697D01*
X21880180Y26027256D01*
X22880180Y26027256D01*
X22894812Y26028697D01*
X22921848Y26039896D01*
X22942540Y26060588D01*
X22953739Y26087624D01*
X22955180Y26102256D01*
X22955180Y26578446D01*
X22953739Y26593078D01*
X22942540Y26620114D01*
X22921848Y26640806D01*
X22894812Y26652005D01*
X22865548Y26652005D01*
X22838512Y26640806D01*
X22817820Y26620114D01*
X22806621Y26593078D01*
X22805180Y26578446D01*
X22805180Y26177256D01*
X22478990Y26177256D01*
X22478990Y26435589D01*
X22477549Y26450221D01*
X22466350Y26477257D01*
X22445658Y26497949D01*
X22418622Y26509148D01*
X22389358Y26509148D01*
X22362322Y26497949D01*
X22341630Y26477257D01*
X22330431Y26450221D01*
X22328990Y26435589D01*
X22328990Y26177256D01*
X21955180Y26177256D01*
X21955180Y26578446D01*
X21953739Y26593078D01*
X21942540Y26620114D01*
X21921848Y26640806D01*
X21894812Y26652005D01*
X21865548Y26652005D01*
X21838512Y26640806D01*
X21817820Y26620114D01*
X21806621Y26593078D01*
X21805180Y26578446D01*
X21694069Y26578446D01*
X21694069Y27206874D01*
X21805769Y27206874D01*
X21806435Y27197494D01*
X21805769Y27188114D01*
X21807464Y27183029D01*
X21807844Y27177684D01*
X21812048Y27169275D01*
X21815023Y27160351D01*
X21818534Y27156303D01*
X21820930Y27151511D01*
X21828034Y27145349D01*
X21834197Y27138244D01*
X21838988Y27135849D01*
X21843037Y27132337D01*
X21856463Y27126343D01*
X22856463Y26793010D01*
X22870799Y26789750D01*
X22899989Y26791825D01*
X22926163Y26804911D01*
X22945337Y26827019D01*
X22954591Y26854781D01*
X22952516Y26883971D01*
X22939429Y26910144D01*
X22917322Y26929318D01*
X22903897Y26935312D01*
X22117350Y27197494D01*
X22903897Y27459676D01*
X22917322Y27465670D01*
X22939429Y27484844D01*
X22952516Y27511017D01*
X22954591Y27540207D01*
X22945337Y27567969D01*
X22926163Y27590077D01*
X22899989Y27603163D01*
X22870799Y27605238D01*
X22856463Y27601978D01*
X21856463Y27268645D01*
X21843037Y27262651D01*
X21838988Y27259140D01*
X21834197Y27256744D01*
X21828034Y27249640D01*
X21820930Y27243477D01*
X21818534Y27238686D01*
X21815023Y27234637D01*
X21812048Y27225714D01*
X21807844Y27217304D01*
X21807464Y27211960D01*
X21805769Y27206874D01*
X21694069Y27206874D01*
X21694069Y29149875D01*
X21805180Y29149875D01*
X21805180Y28578447D01*
X21806621Y28563815D01*
X21817820Y28536779D01*
X21838512Y28516087D01*
X21865548Y28504888D01*
X21894812Y28504888D01*
X21921848Y28516087D01*
X21942540Y28536779D01*
X21953739Y28563815D01*
X21955180Y28578447D01*
X21955180Y28789161D01*
X22651495Y28789161D01*
X22589052Y28726718D01*
X22584333Y28720969D01*
X22582835Y28719669D01*
X22581413Y28717410D01*
X22579725Y28715353D01*
X22578967Y28713526D01*
X22575003Y28707226D01*
X22527384Y28611988D01*
X22522129Y28598256D01*
X22520055Y28569066D01*
X22529309Y28541305D01*
X22548482Y28519197D01*
X22574657Y28506110D01*
X22603847Y28504036D01*
X22631608Y28513290D01*
X22653716Y28532463D01*
X22661548Y28544906D01*
X22703724Y28629258D01*
X22785103Y28710637D01*
X22921783Y28801757D01*
X22921825Y28801792D01*
X22921848Y28801801D01*
X22921899Y28801853D01*
X22933158Y28811073D01*
X22937289Y28817243D01*
X22942540Y28822493D01*
X22945352Y28829283D01*
X22949441Y28835388D01*
X22950897Y28842669D01*
X22953739Y28849529D01*
X22953739Y28856878D01*
X22955180Y28864082D01*
X22953739Y28871367D01*
X22953739Y28878793D01*
X22950926Y28885582D01*
X22949501Y28892790D01*
X22945381Y28898970D01*
X22942540Y28905829D01*
X22937346Y28911023D01*
X22933269Y28917139D01*
X22927096Y28921273D01*
X22921848Y28926521D01*
X22915060Y28929333D01*
X22908954Y28933422D01*
X22901672Y28934879D01*
X22894812Y28937720D01*
X22880335Y28939146D01*
X22880259Y28939161D01*
X22880232Y28939156D01*
X22880180Y28939161D01*
X21955180Y28939161D01*
X21955180Y29149875D01*
X21953739Y29164507D01*
X21942540Y29191543D01*
X21921848Y29212235D01*
X21894812Y29223434D01*
X21865548Y29223434D01*
X21838512Y29212235D01*
X21817820Y29191543D01*
X21806621Y29164507D01*
X21805180Y29149875D01*
X21694069Y29149875D01*
X21694069Y29593079D01*
X21806621Y29593079D01*
X21806621Y29563816D01*
X21817819Y29536780D01*
X21817820Y29536779D01*
X21827148Y29525413D01*
X21874767Y29477795D01*
X21886133Y29468467D01*
X21913169Y29457269D01*
X21942431Y29457269D01*
X21942432Y29457269D01*
X21969468Y29468468D01*
X21980833Y29477795D01*
X22028452Y29525414D01*
X22037779Y29536779D01*
X22048978Y29563815D01*
X22048978Y29593078D01*
X22041375Y29611434D01*
X22037779Y29620115D01*
X22028452Y29631480D01*
X21980833Y29679099D01*
X21969468Y29688426D01*
X21969466Y29688427D01*
X21942432Y29699625D01*
X21913169Y29699625D01*
X21886133Y29688427D01*
X21874767Y29679099D01*
X21827148Y29631481D01*
X21817820Y29620115D01*
X21817819Y29620114D01*
X21814224Y29611434D01*
X21806621Y29593079D01*
X21694069Y29593079D01*
X21694069Y30340351D01*
X21805180Y30340351D01*
X21805180Y30245113D01*
X21806621Y30230481D01*
X21807651Y30227993D01*
X21807843Y30225303D01*
X21813098Y30211571D01*
X21860718Y30116333D01*
X21864683Y30110035D01*
X21865440Y30108207D01*
X21867128Y30106150D01*
X21868551Y30103890D01*
X21870049Y30102591D01*
X21874767Y30096842D01*
X21922386Y30049223D01*
X21928135Y30044505D01*
X21929435Y30043006D01*
X21931694Y30041585D01*
X21933751Y30039896D01*
X21935578Y30039139D01*
X21941878Y30035174D01*
X22037116Y29987555D01*
X22038185Y29987146D01*
X22038621Y29986823D01*
X22044757Y29984631D01*
X22050847Y29982300D01*
X22051387Y29982262D01*
X22052467Y29981876D01*
X22242943Y29934257D01*
X22245479Y29933882D01*
X22246501Y29933459D01*
X22252013Y29932917D01*
X22257487Y29932107D01*
X22258579Y29932270D01*
X22261133Y29932018D01*
X22499228Y29932018D01*
X22501781Y29932270D01*
X22502874Y29932107D01*
X22508347Y29932917D01*
X22513860Y29933459D01*
X22514881Y29933882D01*
X22517418Y29934257D01*
X22707894Y29981876D01*
X22708973Y29982262D01*
X22709513Y29982300D01*
X22715594Y29984628D01*
X22721740Y29986823D01*
X22722175Y29987146D01*
X22723245Y29987555D01*
X22818483Y30035174D01*
X22824782Y30039139D01*
X22826610Y30039896D01*
X22828666Y30041585D01*
X22830926Y30043006D01*
X22832225Y30044505D01*
X22837975Y30049223D01*
X22885594Y30096842D01*
X22890312Y30102592D01*
X22891811Y30103891D01*
X22893232Y30106151D01*
X22894921Y30108207D01*
X22895678Y30110035D01*
X22899643Y30116334D01*
X22947262Y30211572D01*
X22952517Y30225303D01*
X22952708Y30227993D01*
X22953739Y30230481D01*
X22955180Y30245113D01*
X22955180Y30340351D01*
X22953739Y30354983D01*
X22952708Y30357472D01*
X22952517Y30360161D01*
X22947262Y30373892D01*
X22899643Y30469130D01*
X22895678Y30475430D01*
X22894921Y30477257D01*
X22893232Y30479314D01*
X22891811Y30481573D01*
X22890312Y30482873D01*
X22885594Y30488622D01*
X22837975Y30536241D01*
X22832225Y30540960D01*
X22830926Y30542458D01*
X22828666Y30543880D01*
X22826610Y30545568D01*
X22824782Y30546326D01*
X22818483Y30550290D01*
X22723245Y30597909D01*
X22722175Y30598319D01*
X22721740Y30598641D01*
X22715594Y30600837D01*
X22709513Y30603164D01*
X22708973Y30603203D01*
X22707894Y30603588D01*
X22517418Y30651207D01*
X22514881Y30651583D01*
X22513860Y30652005D01*
X22508347Y30652548D01*
X22502874Y30653357D01*
X22501781Y30653195D01*
X22499228Y30653446D01*
X22261133Y30653446D01*
X22258579Y30653195D01*
X22257487Y30653357D01*
X22252013Y30652548D01*
X22246501Y30652005D01*
X22245479Y30651583D01*
X22242943Y30651207D01*
X22052467Y30603588D01*
X22051387Y30603203D01*
X22050847Y30603164D01*
X22044757Y30600834D01*
X22038621Y30598641D01*
X22038185Y30598319D01*
X22037116Y30597909D01*
X21941878Y30550290D01*
X21935578Y30546326D01*
X21933751Y30545568D01*
X21931694Y30543880D01*
X21929435Y30542458D01*
X21928135Y30540960D01*
X21922386Y30536241D01*
X21874767Y30488622D01*
X21870049Y30482874D01*
X21868551Y30481574D01*
X21867128Y30479315D01*
X21865440Y30477257D01*
X21864683Y30475430D01*
X21860718Y30469131D01*
X21813098Y30373893D01*
X21807843Y30360161D01*
X21807651Y30357472D01*
X21806621Y30354983D01*
X21805180Y30340351D01*
X21694069Y30340351D01*
X21694069Y31021650D01*
X21806621Y31021650D01*
X21806621Y30992387D01*
X21817819Y30965351D01*
X21817820Y30965350D01*
X21827148Y30953984D01*
X21874767Y30906366D01*
X21886133Y30897038D01*
X21913169Y30885840D01*
X21942431Y30885840D01*
X21942432Y30885840D01*
X21969468Y30897039D01*
X21980833Y30906366D01*
X22028452Y30953985D01*
X22037779Y30965350D01*
X22048978Y30992386D01*
X22048978Y31021649D01*
X22041375Y31040005D01*
X22037779Y31048686D01*
X22028452Y31060051D01*
X21980833Y31107670D01*
X21969468Y31116997D01*
X21969466Y31116998D01*
X21942432Y31128196D01*
X21913169Y31128196D01*
X21886133Y31116998D01*
X21874767Y31107670D01*
X21827148Y31060052D01*
X21817820Y31048686D01*
X21817819Y31048685D01*
X21814224Y31040005D01*
X21806621Y31021650D01*
X21694069Y31021650D01*
X21694069Y31768922D01*
X21805180Y31768922D01*
X21805180Y31673684D01*
X21806621Y31659052D01*
X21807651Y31656564D01*
X21807843Y31653874D01*
X21813098Y31640142D01*
X21860718Y31544904D01*
X21864683Y31538606D01*
X21865440Y31536778D01*
X21867128Y31534721D01*
X21868551Y31532461D01*
X21870049Y31531162D01*
X21874767Y31525413D01*
X21922386Y31477794D01*
X21928135Y31473076D01*
X21929435Y31471577D01*
X21931694Y31470156D01*
X21933751Y31468467D01*
X21935578Y31467710D01*
X21941878Y31463745D01*
X22037116Y31416126D01*
X22038185Y31415717D01*
X22038621Y31415394D01*
X22044757Y31413202D01*
X22050847Y31410871D01*
X22051387Y31410833D01*
X22052467Y31410447D01*
X22242943Y31362828D01*
X22245479Y31362453D01*
X22246501Y31362030D01*
X22252013Y31361488D01*
X22257487Y31360678D01*
X22258579Y31360841D01*
X22261133Y31360589D01*
X22499228Y31360589D01*
X22501781Y31360841D01*
X22502874Y31360678D01*
X22508347Y31361488D01*
X22513860Y31362030D01*
X22514881Y31362453D01*
X22517418Y31362828D01*
X22707894Y31410447D01*
X22708973Y31410833D01*
X22709513Y31410871D01*
X22715594Y31413199D01*
X22721740Y31415394D01*
X22722175Y31415717D01*
X22723245Y31416126D01*
X22818483Y31463745D01*
X22824782Y31467710D01*
X22826610Y31468467D01*
X22828666Y31470156D01*
X22830926Y31471577D01*
X22832225Y31473076D01*
X22837975Y31477794D01*
X22885594Y31525413D01*
X22890312Y31531163D01*
X22891811Y31532462D01*
X22893232Y31534722D01*
X22894921Y31536778D01*
X22895678Y31538606D01*
X22899643Y31544905D01*
X22947262Y31640143D01*
X22952517Y31653874D01*
X22952708Y31656564D01*
X22953739Y31659052D01*
X22955180Y31673684D01*
X22955180Y31768922D01*
X22953739Y31783554D01*
X22952708Y31786043D01*
X22952517Y31788732D01*
X22947262Y31802463D01*
X22899643Y31897701D01*
X22895678Y31904001D01*
X22894921Y31905828D01*
X22893232Y31907885D01*
X22891811Y31910144D01*
X22890312Y31911444D01*
X22885594Y31917193D01*
X22837975Y31964812D01*
X22832225Y31969531D01*
X22830926Y31971029D01*
X22828666Y31972451D01*
X22826610Y31974139D01*
X22824782Y31974897D01*
X22818483Y31978861D01*
X22723245Y32026480D01*
X22722175Y32026890D01*
X22721740Y32027212D01*
X22715594Y32029408D01*
X22709513Y32031735D01*
X22708973Y32031774D01*
X22707894Y32032159D01*
X22517418Y32079778D01*
X22514881Y32080154D01*
X22513860Y32080576D01*
X22508347Y32081119D01*
X22502874Y32081928D01*
X22501781Y32081766D01*
X22499228Y32082017D01*
X22261133Y32082017D01*
X22258579Y32081766D01*
X22257487Y32081928D01*
X22252013Y32081119D01*
X22246501Y32080576D01*
X22245479Y32080154D01*
X22242943Y32079778D01*
X22052467Y32032159D01*
X22051387Y32031774D01*
X22050847Y32031735D01*
X22044757Y32029405D01*
X22038621Y32027212D01*
X22038185Y32026890D01*
X22037116Y32026480D01*
X21941878Y31978861D01*
X21935578Y31974897D01*
X21933751Y31974139D01*
X21931694Y31972451D01*
X21929435Y31971029D01*
X21928135Y31969531D01*
X21922386Y31964812D01*
X21874767Y31917193D01*
X21870049Y31911445D01*
X21868551Y31910145D01*
X21867128Y31907886D01*
X21865440Y31905828D01*
X21864683Y31904001D01*
X21860718Y31897702D01*
X21813098Y31802464D01*
X21807843Y31788732D01*
X21807651Y31786043D01*
X21806621Y31783554D01*
X21805180Y31768922D01*
X21694069Y31768922D01*
X21694069Y32193128D01*
X23066291Y32193128D01*
X23066291Y22725669D01*
G37*
D12*
G36*
X24729233Y24047596D02*
G01*
X24768134Y24008695D01*
X24838180Y23798558D01*
X24838180Y23364348D01*
X24190561Y23364348D01*
X24190561Y23879040D01*
X24250171Y23998259D01*
X24299509Y24047596D01*
X24418727Y24107205D01*
X24610015Y24107205D01*
X24729233Y24047596D01*
G37*
G36*
X25681614Y23952358D02*
G01*
X25730952Y23903020D01*
X25790561Y23783802D01*
X25790561Y23364348D01*
X25238180Y23364348D01*
X25238180Y23783802D01*
X25297790Y23903021D01*
X25347128Y23952358D01*
X25466346Y24011967D01*
X25562396Y24011967D01*
X25681614Y23952358D01*
G37*
G36*
X25358104Y27164348D02*
G01*
X24761990Y26965644D01*
X24761990Y27363053D01*
X25358104Y27164348D01*
G37*
G36*
X25444564Y29356598D02*
G01*
X25586376Y29285692D01*
X25720516Y29151551D01*
X25790561Y28941417D01*
X25790561Y28697682D01*
X24190561Y28697682D01*
X24190561Y28941416D01*
X24260605Y29151551D01*
X24394748Y29285693D01*
X24536555Y29356596D01*
X24872327Y29440539D01*
X25108796Y29440539D01*
X25444564Y29356598D01*
G37*
G36*
X25602597Y35269471D02*
G01*
X25730952Y35141115D01*
X25790561Y35021898D01*
X25790561Y34735371D01*
X25730952Y34616155D01*
X25602597Y34487799D01*
X25299272Y34411968D01*
X24681851Y34411968D01*
X24378525Y34487800D01*
X24250171Y34616153D01*
X24190561Y34735372D01*
X24190561Y35021898D01*
X24250171Y35141117D01*
X24378525Y35269470D01*
X24681851Y35345301D01*
X25299272Y35345301D01*
X25602597Y35269471D01*
G37*
G36*
X25681614Y37285692D02*
G01*
X25730952Y37236354D01*
X25790561Y37117136D01*
X25790561Y36602444D01*
X25142942Y36602444D01*
X25142942Y37117136D01*
X25202550Y37236353D01*
X25251891Y37285693D01*
X25371108Y37345301D01*
X25562396Y37345301D01*
X25681614Y37285692D01*
G37*
G36*
X26506452Y22742126D02*
G01*
X23568339Y22742126D01*
X23568339Y23926253D01*
X23790561Y23926253D01*
X23790561Y23164348D01*
X23794404Y23125330D01*
X23824267Y23053234D01*
X23879447Y22998054D01*
X23951543Y22968191D01*
X23990561Y22964348D01*
X25990561Y22964348D01*
X26029579Y22968191D01*
X26101675Y22998054D01*
X26156855Y23053234D01*
X26186718Y23125330D01*
X26190561Y23164348D01*
X26190561Y23831015D01*
X26186718Y23870033D01*
X26183968Y23876671D01*
X26183459Y23883840D01*
X26169447Y23920457D01*
X26074208Y24110934D01*
X26063638Y24127726D01*
X26061617Y24132605D01*
X26057109Y24138098D01*
X26053322Y24144114D01*
X26049330Y24147576D01*
X26036744Y24162912D01*
X25941506Y24258150D01*
X25926170Y24270737D01*
X25922708Y24274728D01*
X25916691Y24278516D01*
X25911199Y24283023D01*
X25906319Y24285045D01*
X25889528Y24295614D01*
X25699052Y24390852D01*
X25662434Y24404865D01*
X25655264Y24405375D01*
X25648627Y24408124D01*
X25609609Y24411967D01*
X25419133Y24411967D01*
X25380115Y24408124D01*
X25373477Y24405375D01*
X25366308Y24404865D01*
X25329691Y24390853D01*
X25139214Y24295614D01*
X25122422Y24285045D01*
X25117543Y24283023D01*
X25112050Y24278516D01*
X25106034Y24274728D01*
X25102572Y24270737D01*
X25087236Y24258150D01*
X25085658Y24256573D01*
X25084363Y24258150D01*
X24989125Y24353388D01*
X24973789Y24365975D01*
X24970327Y24369966D01*
X24964310Y24373754D01*
X24958818Y24378261D01*
X24953938Y24380283D01*
X24937147Y24390852D01*
X24746671Y24486090D01*
X24710053Y24500103D01*
X24702883Y24500613D01*
X24696246Y24503362D01*
X24657228Y24507205D01*
X24371514Y24507205D01*
X24332496Y24503362D01*
X24325858Y24500613D01*
X24318689Y24500103D01*
X24282072Y24486091D01*
X24091595Y24390852D01*
X24074803Y24380283D01*
X24069924Y24378261D01*
X24064431Y24373754D01*
X24058415Y24369966D01*
X24054953Y24365975D01*
X24039617Y24353388D01*
X23944379Y24258150D01*
X23931790Y24242812D01*
X23927802Y24239352D01*
X23924017Y24233341D01*
X23919506Y24227843D01*
X23917483Y24222962D01*
X23906915Y24206172D01*
X23811676Y24015696D01*
X23797664Y23979079D01*
X23797154Y23971912D01*
X23794404Y23965271D01*
X23790561Y23926253D01*
X23568339Y23926253D01*
X23568339Y26116729D01*
X23790561Y26116729D01*
X23790561Y25164348D01*
X23794404Y25125330D01*
X23824267Y25053234D01*
X23879447Y24998054D01*
X23951543Y24968191D01*
X23990561Y24964348D01*
X25990561Y24964348D01*
X26029579Y24968191D01*
X26101675Y24998054D01*
X26156855Y25053234D01*
X26186718Y25125330D01*
X26186718Y25203366D01*
X26156855Y25275462D01*
X26101675Y25330642D01*
X26029579Y25360505D01*
X25990561Y25364348D01*
X24190561Y25364348D01*
X24190561Y26116729D01*
X24186718Y26155747D01*
X24156855Y26227843D01*
X24101675Y26283023D01*
X24045865Y26306140D01*
X24053806Y26307945D01*
X26053807Y26974611D01*
X26089607Y26990596D01*
X26100401Y26999958D01*
X26113184Y27006349D01*
X26129614Y27025295D01*
X26148560Y27041725D01*
X26154951Y27054508D01*
X26164313Y27065302D01*
X26172242Y27089089D01*
X26183459Y27111523D01*
X26184472Y27125780D01*
X26188990Y27139333D01*
X26187212Y27164341D01*
X26188991Y27189363D01*
X26184470Y27202924D01*
X26183458Y27217173D01*
X26172244Y27239601D01*
X26164313Y27263394D01*
X26154951Y27274189D01*
X26148560Y27286971D01*
X26129614Y27303402D01*
X26113184Y27322347D01*
X26100401Y27328739D01*
X26089607Y27338100D01*
X26053806Y27354085D01*
X24053807Y28020752D01*
X24015576Y28029444D01*
X23937736Y28023913D01*
X23867938Y27989014D01*
X23816809Y27930061D01*
X23792132Y27856030D01*
X23797663Y27778190D01*
X23832562Y27708392D01*
X23891515Y27657263D01*
X23927315Y27641278D01*
X24361990Y27496387D01*
X24361990Y26832311D01*
X23927316Y26687419D01*
X23891515Y26671434D01*
X23832562Y26620305D01*
X23797663Y26550507D01*
X23792132Y26472667D01*
X23816809Y26398636D01*
X23867938Y26339683D01*
X23935129Y26306088D01*
X23879447Y26283023D01*
X23824267Y26227843D01*
X23794404Y26155747D01*
X23790561Y26116729D01*
X23568339Y26116729D01*
X23568339Y28973872D01*
X23790561Y28973872D01*
X23790561Y28497682D01*
X23794404Y28458664D01*
X23824267Y28386568D01*
X23879447Y28331388D01*
X23951543Y28301525D01*
X23990561Y28297682D01*
X25990561Y28297682D01*
X26029579Y28301525D01*
X26101675Y28331388D01*
X26156855Y28386568D01*
X26186718Y28458664D01*
X26190561Y28497682D01*
X26190561Y28973872D01*
X26188615Y28993621D01*
X26188990Y28998886D01*
X26187414Y29005814D01*
X26186718Y29012890D01*
X26184696Y29017771D01*
X26180298Y29037117D01*
X26085060Y29322832D01*
X26069075Y29358633D01*
X26064367Y29364062D01*
X26061617Y29370701D01*
X26036745Y29401008D01*
X25846268Y29591484D01*
X25830932Y29604071D01*
X25827470Y29608062D01*
X25821453Y29611850D01*
X25815961Y29616357D01*
X25811081Y29618379D01*
X25794290Y29628948D01*
X25603814Y29724186D01*
X25600958Y29725279D01*
X25599799Y29726138D01*
X25583424Y29731989D01*
X25567196Y29738199D01*
X25565757Y29738302D01*
X25562878Y29739330D01*
X25181926Y29834568D01*
X25175159Y29835569D01*
X25172437Y29836696D01*
X25157742Y29838144D01*
X25143141Y29840302D01*
X25140227Y29839869D01*
X25133419Y29840539D01*
X24847704Y29840539D01*
X24840895Y29839869D01*
X24837982Y29840302D01*
X24823388Y29838145D01*
X24808686Y29836696D01*
X24805960Y29835568D01*
X24799197Y29834567D01*
X24418245Y29739330D01*
X24415365Y29738302D01*
X24413927Y29738199D01*
X24397687Y29731985D01*
X24381324Y29726138D01*
X24380165Y29725280D01*
X24377310Y29724187D01*
X24186833Y29628948D01*
X24170041Y29618379D01*
X24165162Y29616357D01*
X24159668Y29611849D01*
X24153653Y29608062D01*
X24150192Y29604073D01*
X24134855Y29591485D01*
X23944379Y29401008D01*
X23919506Y29370701D01*
X23916755Y29364062D01*
X23912048Y29358633D01*
X23896063Y29322833D01*
X23800824Y29037118D01*
X23796424Y29017769D01*
X23794404Y29012890D01*
X23793707Y29005816D01*
X23792132Y28998887D01*
X23792506Y28993622D01*
X23790561Y28973872D01*
X23568339Y28973872D01*
X23568339Y31450063D01*
X23790561Y31450063D01*
X23790561Y30497682D01*
X23794404Y30458664D01*
X23824267Y30386568D01*
X23879447Y30331388D01*
X23951543Y30301525D01*
X23990561Y30297682D01*
X25990561Y30297682D01*
X26029579Y30301525D01*
X26101675Y30331388D01*
X26156855Y30386568D01*
X26186718Y30458664D01*
X26190561Y30497682D01*
X26190561Y31450063D01*
X26186718Y31489081D01*
X26156855Y31561177D01*
X26101675Y31616357D01*
X26029579Y31646220D01*
X25951543Y31646220D01*
X25879447Y31616357D01*
X25824267Y31561177D01*
X25794404Y31489081D01*
X25790561Y31450063D01*
X25790561Y30697682D01*
X25238180Y30697682D01*
X25238180Y31164349D01*
X25234337Y31203367D01*
X25204474Y31275463D01*
X25149294Y31330643D01*
X25077198Y31360506D01*
X24999162Y31360506D01*
X24927066Y31330643D01*
X24871886Y31275463D01*
X24842023Y31203367D01*
X24838180Y31164349D01*
X24838180Y30697682D01*
X24190561Y30697682D01*
X24190561Y31450063D01*
X24186718Y31489081D01*
X24156855Y31561177D01*
X24101675Y31616357D01*
X24029579Y31646220D01*
X23951543Y31646220D01*
X23879447Y31616357D01*
X23824267Y31561177D01*
X23794404Y31489081D01*
X23790561Y31450063D01*
X23568339Y31450063D01*
X23568339Y33069111D01*
X23790561Y33069111D01*
X23790561Y32878635D01*
X23792506Y32858886D01*
X23792132Y32853620D01*
X23793707Y32846692D01*
X23794404Y32839617D01*
X23796424Y32834739D01*
X23800824Y32815389D01*
X23896063Y32529674D01*
X23912048Y32493874D01*
X23916755Y32488446D01*
X23919506Y32481806D01*
X23944379Y32451499D01*
X24134855Y32261022D01*
X24150192Y32248435D01*
X24153653Y32244445D01*
X24159668Y32240659D01*
X24165162Y32236150D01*
X24170041Y32234129D01*
X24186833Y32223559D01*
X24377310Y32128320D01*
X24380165Y32127228D01*
X24381324Y32126369D01*
X24397687Y32120523D01*
X24413927Y32114308D01*
X24415365Y32114206D01*
X24418245Y32113177D01*
X24799197Y32017940D01*
X24805960Y32016940D01*
X24808686Y32015811D01*
X24823388Y32014363D01*
X24837982Y32012205D01*
X24840895Y32012639D01*
X24847704Y32011968D01*
X25133419Y32011968D01*
X25140227Y32012639D01*
X25143141Y32012205D01*
X25157742Y32014364D01*
X25172437Y32015811D01*
X25175159Y32016939D01*
X25181926Y32017939D01*
X25562878Y32113177D01*
X25565757Y32114206D01*
X25567196Y32114308D01*
X25583424Y32120519D01*
X25599799Y32126369D01*
X25600958Y32127229D01*
X25603814Y32128321D01*
X25794290Y32223559D01*
X25811081Y32234129D01*
X25815961Y32236150D01*
X25821453Y32240658D01*
X25827470Y32244445D01*
X25830932Y32248437D01*
X25846268Y32261023D01*
X26036745Y32451499D01*
X26061617Y32481806D01*
X26064367Y32488446D01*
X26069075Y32493874D01*
X26085060Y32529675D01*
X26180298Y32815390D01*
X26184696Y32834737D01*
X26186718Y32839617D01*
X26187414Y32846694D01*
X26188990Y32853621D01*
X26188615Y32858887D01*
X26190561Y32878635D01*
X26190561Y33069111D01*
X26188615Y33088861D01*
X26188990Y33094126D01*
X26187414Y33101055D01*
X26186718Y33108129D01*
X26184697Y33113008D01*
X26180298Y33132357D01*
X26085060Y33418071D01*
X26069075Y33453871D01*
X26064367Y33459300D01*
X26061617Y33465939D01*
X26036744Y33496246D01*
X25941506Y33591484D01*
X25911199Y33616357D01*
X25839103Y33646220D01*
X25761067Y33646220D01*
X25688971Y33616357D01*
X25633791Y33561177D01*
X25603928Y33489081D01*
X25603928Y33411045D01*
X25633791Y33338949D01*
X25658664Y33308642D01*
X25720515Y33246791D01*
X25790561Y33036654D01*
X25790561Y32911091D01*
X25720516Y32700957D01*
X25586376Y32566816D01*
X25444564Y32495910D01*
X25108796Y32411968D01*
X24872327Y32411968D01*
X24536555Y32495911D01*
X24394748Y32566815D01*
X24260605Y32700957D01*
X24190561Y32911092D01*
X24190561Y33036657D01*
X24260605Y33246789D01*
X24322459Y33308642D01*
X24347332Y33338949D01*
X24377195Y33411045D01*
X24377195Y33489081D01*
X24347332Y33561177D01*
X24292152Y33616357D01*
X24220056Y33646220D01*
X24142020Y33646220D01*
X24069924Y33616357D01*
X24039617Y33591484D01*
X23944379Y33496246D01*
X23919506Y33465939D01*
X23916755Y33459300D01*
X23912048Y33453871D01*
X23896063Y33418071D01*
X23800825Y33132357D01*
X23796425Y33113011D01*
X23794404Y33108129D01*
X23793707Y33101053D01*
X23792132Y33094126D01*
X23792506Y33088861D01*
X23790561Y33069111D01*
X23568339Y33069111D01*
X23568339Y35069111D01*
X23790561Y35069111D01*
X23790561Y34688158D01*
X23794404Y34649140D01*
X23797154Y34642500D01*
X23797664Y34635332D01*
X23811676Y34598715D01*
X23906915Y34408239D01*
X23917483Y34391450D01*
X23919506Y34386568D01*
X23924017Y34381071D01*
X23927802Y34375059D01*
X23931790Y34371600D01*
X23944379Y34356261D01*
X24134855Y34165784D01*
X24165162Y34140912D01*
X24178900Y34135222D01*
X24190848Y34126369D01*
X24227769Y34113177D01*
X24608721Y34017940D01*
X24615484Y34016940D01*
X24618210Y34015811D01*
X24632912Y34014363D01*
X24647506Y34012205D01*
X24650419Y34012639D01*
X24657228Y34011968D01*
X25323895Y34011968D01*
X25330703Y34012639D01*
X25333617Y34012205D01*
X25348218Y34014364D01*
X25362913Y34015811D01*
X25365635Y34016939D01*
X25372402Y34017939D01*
X25753354Y34113177D01*
X25790275Y34126369D01*
X25802222Y34135222D01*
X25815961Y34140912D01*
X25846268Y34165785D01*
X26036745Y34356261D01*
X26049332Y34371599D01*
X26053322Y34375059D01*
X26057108Y34381075D01*
X26061617Y34386568D01*
X26063638Y34391448D01*
X26074208Y34408239D01*
X26169447Y34598716D01*
X26183459Y34635333D01*
X26183968Y34642503D01*
X26186718Y34649140D01*
X26190561Y34688158D01*
X26190561Y35069111D01*
X26186718Y35108129D01*
X26183968Y35114767D01*
X26183459Y35121936D01*
X26169447Y35158553D01*
X26074208Y35349030D01*
X26063638Y35365822D01*
X26061617Y35370701D01*
X26057108Y35376195D01*
X26053322Y35382210D01*
X26049332Y35385671D01*
X26036745Y35401008D01*
X25846268Y35591484D01*
X25815961Y35616357D01*
X25802222Y35622048D01*
X25790275Y35630900D01*
X25753354Y35644092D01*
X25372402Y35739330D01*
X25365635Y35740331D01*
X25362913Y35741458D01*
X25348218Y35742906D01*
X25333617Y35745064D01*
X25330703Y35744631D01*
X25323895Y35745301D01*
X24657228Y35745301D01*
X24650419Y35744631D01*
X24647506Y35745064D01*
X24632912Y35742907D01*
X24618210Y35741458D01*
X24615484Y35740330D01*
X24608721Y35739329D01*
X24227769Y35644092D01*
X24190848Y35630900D01*
X24178900Y35622048D01*
X24165162Y35616357D01*
X24134855Y35591485D01*
X23944379Y35401008D01*
X23931790Y35385670D01*
X23927802Y35382210D01*
X23924017Y35376199D01*
X23919506Y35370701D01*
X23917483Y35365820D01*
X23906915Y35349030D01*
X23811676Y35158554D01*
X23797664Y35121937D01*
X23797154Y35114770D01*
X23794404Y35108129D01*
X23790561Y35069111D01*
X23568339Y35069111D01*
X23568339Y37549636D01*
X23790608Y37549636D01*
X23804170Y37472787D01*
X23846108Y37406978D01*
X23875868Y37381455D01*
X24742942Y36774503D01*
X24742942Y36602444D01*
X23990561Y36602444D01*
X23951543Y36598601D01*
X23879447Y36568738D01*
X23824267Y36513558D01*
X23794404Y36441462D01*
X23794404Y36363426D01*
X23824267Y36291330D01*
X23879447Y36236150D01*
X23951543Y36206287D01*
X23990561Y36202444D01*
X25990561Y36202444D01*
X26029579Y36206287D01*
X26101675Y36236150D01*
X26156855Y36291330D01*
X26186718Y36363426D01*
X26190561Y36402444D01*
X26190561Y37164349D01*
X26186718Y37203367D01*
X26183968Y37210005D01*
X26183459Y37217174D01*
X26169447Y37253791D01*
X26074208Y37444268D01*
X26063638Y37461060D01*
X26061617Y37465939D01*
X26057109Y37471432D01*
X26053322Y37477448D01*
X26049330Y37480910D01*
X26036744Y37496246D01*
X25941506Y37591484D01*
X25926170Y37604071D01*
X25922708Y37608062D01*
X25916691Y37611850D01*
X25911199Y37616357D01*
X25906319Y37618379D01*
X25889528Y37628948D01*
X25699052Y37724186D01*
X25662434Y37738199D01*
X25655264Y37738709D01*
X25648627Y37741458D01*
X25609609Y37745301D01*
X25323895Y37745301D01*
X25284877Y37741458D01*
X25278239Y37738709D01*
X25271070Y37738199D01*
X25234453Y37724187D01*
X25043976Y37628948D01*
X25027187Y37618380D01*
X25022306Y37616358D01*
X25016811Y37611849D01*
X25010796Y37608062D01*
X25007334Y37604072D01*
X24991999Y37591485D01*
X24896759Y37496247D01*
X24884171Y37480910D01*
X24880181Y37477448D01*
X24876393Y37471432D01*
X24871887Y37465940D01*
X24869866Y37461062D01*
X24859295Y37444268D01*
X24764057Y37253792D01*
X24762304Y37249212D01*
X24105254Y37709147D01*
X24071085Y37728374D01*
X23994896Y37745254D01*
X23918047Y37731692D01*
X23852238Y37689754D01*
X23807488Y37625825D01*
X23790608Y37549636D01*
X23568339Y37549636D01*
X23568339Y39354825D01*
X23790561Y39354825D01*
X23790561Y38402444D01*
X23794404Y38363426D01*
X23824267Y38291330D01*
X23879447Y38236150D01*
X23951543Y38206287D01*
X23990561Y38202444D01*
X25990561Y38202444D01*
X26029579Y38206287D01*
X26101675Y38236150D01*
X26156855Y38291330D01*
X26186718Y38363426D01*
X26190561Y38402444D01*
X26190561Y39354825D01*
X26186718Y39393843D01*
X26156855Y39465939D01*
X26101675Y39521119D01*
X26029579Y39550982D01*
X25951543Y39550982D01*
X25879447Y39521119D01*
X25824267Y39465939D01*
X25794404Y39393843D01*
X25790561Y39354825D01*
X25790561Y38602444D01*
X25238180Y38602444D01*
X25238180Y39069111D01*
X25234337Y39108129D01*
X25204474Y39180225D01*
X25149294Y39235405D01*
X25077198Y39265268D01*
X24999162Y39265268D01*
X24927066Y39235405D01*
X24871886Y39180225D01*
X24842023Y39108129D01*
X24838180Y39069111D01*
X24838180Y38602444D01*
X24190561Y38602444D01*
X24190561Y39354825D01*
X24186718Y39393843D01*
X24156855Y39465939D01*
X24101675Y39521119D01*
X24029579Y39550982D01*
X23951543Y39550982D01*
X23879447Y39521119D01*
X23824267Y39465939D01*
X23794404Y39393843D01*
X23790561Y39354825D01*
X23568339Y39354825D01*
X23568339Y41735777D01*
X24552466Y41735777D01*
X24552466Y40211968D01*
X24556309Y40172950D01*
X24586172Y40100854D01*
X24641352Y40045674D01*
X24713448Y40015811D01*
X24791484Y40015811D01*
X24863580Y40045674D01*
X24918760Y40100854D01*
X24948623Y40172950D01*
X24952466Y40211968D01*
X24952466Y41735777D01*
X24948623Y41774795D01*
X24918760Y41846891D01*
X24863580Y41902071D01*
X24791484Y41931934D01*
X24713448Y41931934D01*
X24641352Y41902071D01*
X24586172Y41846891D01*
X24556309Y41774795D01*
X24552466Y41735777D01*
X23568339Y41735777D01*
X23568339Y44060509D01*
X23794404Y44060509D01*
X23794404Y43982473D01*
X23824267Y43910377D01*
X23879447Y43855197D01*
X23951543Y43825334D01*
X23990561Y43821491D01*
X25089047Y43821491D01*
X24477413Y43536062D01*
X24463124Y43527598D01*
X24458286Y43525838D01*
X24454863Y43522704D01*
X24443681Y43516079D01*
X24423152Y43493663D01*
X24400736Y43473134D01*
X24396978Y43465083D01*
X24390977Y43458529D01*
X24380589Y43429964D01*
X24367736Y43402420D01*
X24367345Y43393543D01*
X24364309Y43385191D01*
X24365643Y43354826D01*
X24364309Y43324459D01*
X24367345Y43316108D01*
X24367736Y43307231D01*
X24380588Y43279690D01*
X24390977Y43251121D01*
X24396978Y43244568D01*
X24400736Y43236516D01*
X24423152Y43215988D01*
X24443681Y43193571D01*
X24454863Y43186947D01*
X24458286Y43183812D01*
X24463124Y43182053D01*
X24477413Y43173588D01*
X25089048Y42888158D01*
X23990561Y42888158D01*
X23951543Y42884315D01*
X23879447Y42854452D01*
X23824267Y42799272D01*
X23794404Y42727176D01*
X23794404Y42649140D01*
X23824267Y42577044D01*
X23879447Y42521864D01*
X23951543Y42492001D01*
X23990561Y42488158D01*
X25990561Y42488158D01*
X26016210Y42490685D01*
X26020927Y42490477D01*
X26023460Y42491399D01*
X26029579Y42492001D01*
X26061645Y42505284D01*
X26094266Y42517145D01*
X26097555Y42520158D01*
X26101675Y42521864D01*
X26126211Y42546401D01*
X26151815Y42569848D01*
X26153701Y42573891D01*
X26156855Y42577044D01*
X26170132Y42609100D01*
X26184816Y42640563D01*
X26185011Y42645022D01*
X26186718Y42649140D01*
X26186718Y42683832D01*
X26188243Y42718524D01*
X26186718Y42722718D01*
X26186718Y42727176D01*
X26173437Y42759238D01*
X26161574Y42791862D01*
X26158561Y42795152D01*
X26156855Y42799272D01*
X26132313Y42823814D01*
X26108871Y42849412D01*
X26103582Y42852545D01*
X26101675Y42854452D01*
X26097311Y42856260D01*
X26075138Y42869394D01*
X25034931Y43354825D01*
X26075138Y43840254D01*
X26097310Y43853390D01*
X26101675Y43855197D01*
X26103582Y43857105D01*
X26108870Y43860237D01*
X26132312Y43885835D01*
X26156855Y43910377D01*
X26158561Y43914497D01*
X26161574Y43917786D01*
X26173436Y43950410D01*
X26186718Y43982473D01*
X26186718Y43986933D01*
X26188242Y43991124D01*
X26186718Y44025794D01*
X26186718Y44060509D01*
X26185010Y44064631D01*
X26184815Y44069085D01*
X26170141Y44100530D01*
X26156855Y44132605D01*
X26153700Y44135760D01*
X26151815Y44139800D01*
X26126222Y44163238D01*
X26101675Y44187785D01*
X26097553Y44189492D01*
X26094265Y44192504D01*
X26061649Y44204364D01*
X26029579Y44217648D01*
X26023460Y44218251D01*
X26020927Y44219172D01*
X26016210Y44218965D01*
X25990561Y44221491D01*
X23990561Y44221491D01*
X23951543Y44217648D01*
X23879447Y44187785D01*
X23824267Y44132605D01*
X23794404Y44060509D01*
X23568339Y44060509D01*
X23568339Y45640539D01*
X23790561Y45640539D01*
X23790561Y45164348D01*
X23794404Y45125330D01*
X23797154Y45118690D01*
X23797664Y45111522D01*
X23811676Y45074905D01*
X23906915Y44884429D01*
X23917483Y44867640D01*
X23919506Y44862758D01*
X23924017Y44857261D01*
X23927802Y44851249D01*
X23931790Y44847790D01*
X23944379Y44832451D01*
X24039617Y44737213D01*
X24069924Y44712340D01*
X24142020Y44682477D01*
X24220056Y44682477D01*
X24292152Y44712340D01*
X24347332Y44767520D01*
X24377195Y44839616D01*
X24377195Y44917652D01*
X24347332Y44989748D01*
X24322459Y45020055D01*
X24250171Y45092343D01*
X24190561Y45211562D01*
X24190561Y45593326D01*
X24250171Y45712545D01*
X24299509Y45761882D01*
X24418727Y45821491D01*
X24800491Y45821491D01*
X24919708Y45761882D01*
X24969048Y45712544D01*
X25028657Y45593326D01*
X25028657Y45211561D01*
X24969048Y45092344D01*
X24896759Y45020056D01*
X24871887Y44989749D01*
X24868033Y44980446D01*
X24861655Y44972650D01*
X24853210Y44944661D01*
X24842023Y44917653D01*
X24842023Y44907582D01*
X24839114Y44897940D01*
X24842023Y44868851D01*
X24842023Y44839617D01*
X24845876Y44830314D01*
X24846879Y44820291D01*
X24860699Y44794528D01*
X24871886Y44767521D01*
X24879007Y44760400D01*
X24883768Y44751525D01*
X24906393Y44733013D01*
X24927065Y44712341D01*
X24936368Y44708488D01*
X24944164Y44702109D01*
X24972153Y44693665D01*
X24999161Y44682477D01*
X25009232Y44682477D01*
X25018874Y44679568D01*
X25058081Y44679627D01*
X26010462Y44774865D01*
X26024679Y44777715D01*
X26029579Y44777715D01*
X26034173Y44779619D01*
X26048904Y44782571D01*
X26074663Y44796390D01*
X26101675Y44807578D01*
X26108797Y44814701D01*
X26117670Y44819460D01*
X26136180Y44842084D01*
X26156855Y44862758D01*
X26160708Y44872062D01*
X26167086Y44879856D01*
X26175530Y44907846D01*
X26186718Y44934854D01*
X26188190Y44949806D01*
X26189627Y44954566D01*
X26189139Y44959441D01*
X26190561Y44973872D01*
X26190561Y45926253D01*
X26186718Y45965271D01*
X26156855Y46037367D01*
X26101675Y46092547D01*
X26029579Y46122410D01*
X25951543Y46122410D01*
X25879447Y46092547D01*
X25824267Y46037367D01*
X25794404Y45965271D01*
X25790561Y45926253D01*
X25790561Y45154870D01*
X25422016Y45118015D01*
X25422064Y45118693D01*
X25424814Y45125330D01*
X25428657Y45164348D01*
X25428657Y45640539D01*
X25424814Y45679557D01*
X25422064Y45686195D01*
X25421555Y45693364D01*
X25407543Y45729981D01*
X25312304Y45920458D01*
X25301735Y45937248D01*
X25299713Y45942130D01*
X25295202Y45947627D01*
X25291418Y45953638D01*
X25287429Y45957098D01*
X25274840Y45972437D01*
X25179601Y46067675D01*
X25164264Y46080261D01*
X25160803Y46084252D01*
X25154784Y46088041D01*
X25149293Y46092547D01*
X25144416Y46094567D01*
X25127623Y46105138D01*
X24937147Y46200376D01*
X24900529Y46214389D01*
X24893359Y46214899D01*
X24886722Y46217648D01*
X24847704Y46221491D01*
X24371514Y46221491D01*
X24332496Y46217648D01*
X24325858Y46214899D01*
X24318689Y46214389D01*
X24282072Y46200377D01*
X24091595Y46105138D01*
X24074803Y46094569D01*
X24069924Y46092547D01*
X24064431Y46088040D01*
X24058415Y46084252D01*
X24054953Y46080261D01*
X24039617Y46067674D01*
X23944379Y45972436D01*
X23931790Y45957098D01*
X23927802Y45953638D01*
X23924017Y45947627D01*
X23919506Y45942129D01*
X23917483Y45937248D01*
X23906915Y45920458D01*
X23811676Y45729982D01*
X23797664Y45693365D01*
X23797154Y45686198D01*
X23794404Y45679557D01*
X23790561Y45640539D01*
X23568339Y45640539D01*
X23568339Y47774795D01*
X23794404Y47774795D01*
X23794404Y47696759D01*
X23824267Y47624663D01*
X23879447Y47569483D01*
X23951543Y47539620D01*
X23990561Y47535777D01*
X24457228Y47535777D01*
X24457228Y46783396D01*
X24459173Y46763648D01*
X24458799Y46758382D01*
X24460066Y46754581D01*
X24461071Y46744378D01*
X24473340Y46714756D01*
X24483476Y46684350D01*
X24488183Y46678922D01*
X24490934Y46672282D01*
X24513601Y46649615D01*
X24534605Y46625397D01*
X24541033Y46622183D01*
X24546114Y46617102D01*
X24575727Y46604836D01*
X24604403Y46590498D01*
X24611571Y46589989D01*
X24618210Y46587239D01*
X24650268Y46587239D01*
X24682242Y46584967D01*
X24692235Y46587239D01*
X24696246Y46587239D01*
X24701126Y46589261D01*
X24720473Y46593659D01*
X26149046Y47069849D01*
X26184846Y47085834D01*
X26243799Y47136963D01*
X26278698Y47206761D01*
X26284230Y47284601D01*
X26259552Y47358632D01*
X26208423Y47417585D01*
X26138625Y47452484D01*
X26060786Y47458015D01*
X26022555Y47449323D01*
X24857228Y47060882D01*
X24857228Y47535777D01*
X25323895Y47535777D01*
X25362913Y47539620D01*
X25435009Y47569483D01*
X25490189Y47624663D01*
X25520052Y47696759D01*
X25520052Y47774795D01*
X25490189Y47846891D01*
X25435009Y47902071D01*
X25362913Y47931934D01*
X25323895Y47935777D01*
X24857228Y47935777D01*
X24857228Y48021491D01*
X24853385Y48060509D01*
X24823522Y48132605D01*
X24768342Y48187785D01*
X24696246Y48217648D01*
X24618210Y48217648D01*
X24546114Y48187785D01*
X24490934Y48132605D01*
X24461071Y48060509D01*
X24457228Y48021491D01*
X24457228Y47935777D01*
X23990561Y47935777D01*
X23951543Y47931934D01*
X23879447Y47902071D01*
X23824267Y47846891D01*
X23794404Y47774795D01*
X23568339Y47774795D01*
X23568339Y49545301D01*
X23790561Y49545301D01*
X23790561Y49354825D01*
X23792506Y49335076D01*
X23792132Y49329810D01*
X23793707Y49322882D01*
X23794404Y49315807D01*
X23796424Y49310929D01*
X23800824Y49291579D01*
X23896063Y49005864D01*
X23912048Y48970064D01*
X23916755Y48964636D01*
X23919506Y48957996D01*
X23944379Y48927689D01*
X24134855Y48737212D01*
X24150192Y48724625D01*
X24153653Y48720635D01*
X24159668Y48716849D01*
X24165162Y48712340D01*
X24170041Y48710319D01*
X24186833Y48699749D01*
X24377310Y48604510D01*
X24380165Y48603418D01*
X24381324Y48602559D01*
X24397687Y48596713D01*
X24413927Y48590498D01*
X24415365Y48590396D01*
X24418245Y48589367D01*
X24799197Y48494130D01*
X24805960Y48493130D01*
X24808686Y48492001D01*
X24823388Y48490553D01*
X24837982Y48488395D01*
X24840895Y48488829D01*
X24847704Y48488158D01*
X25133419Y48488158D01*
X25140227Y48488829D01*
X25143141Y48488395D01*
X25157742Y48490554D01*
X25172437Y48492001D01*
X25175159Y48493129D01*
X25181926Y48494129D01*
X25562878Y48589367D01*
X25565757Y48590396D01*
X25567196Y48590498D01*
X25583424Y48596709D01*
X25599799Y48602559D01*
X25600958Y48603419D01*
X25603814Y48604511D01*
X25794290Y48699749D01*
X25811081Y48710319D01*
X25815961Y48712340D01*
X25821453Y48716848D01*
X25827470Y48720635D01*
X25830932Y48724627D01*
X25846268Y48737213D01*
X26036745Y48927689D01*
X26061617Y48957996D01*
X26064367Y48964636D01*
X26069075Y48970064D01*
X26085060Y49005865D01*
X26180298Y49291580D01*
X26184696Y49310927D01*
X26186718Y49315807D01*
X26187414Y49322884D01*
X26188990Y49329811D01*
X26188615Y49335077D01*
X26190561Y49354825D01*
X26190561Y49545301D01*
X26188615Y49565051D01*
X26188990Y49570316D01*
X26187414Y49577245D01*
X26186718Y49584319D01*
X26184697Y49589198D01*
X26180298Y49608547D01*
X26085060Y49894261D01*
X26069075Y49930061D01*
X26064367Y49935490D01*
X26061617Y49942129D01*
X26036744Y49972436D01*
X25941506Y50067674D01*
X25911199Y50092547D01*
X25839103Y50122410D01*
X25761067Y50122410D01*
X25688971Y50092547D01*
X25633791Y50037367D01*
X25603928Y49965271D01*
X25603928Y49887235D01*
X25633791Y49815139D01*
X25658664Y49784832D01*
X25720515Y49722981D01*
X25790561Y49512844D01*
X25790561Y49387281D01*
X25720516Y49177147D01*
X25586376Y49043006D01*
X25444564Y48972100D01*
X25108796Y48888158D01*
X24872327Y48888158D01*
X24536555Y48972101D01*
X24394748Y49043005D01*
X24260605Y49177147D01*
X24190561Y49387282D01*
X24190561Y49512847D01*
X24260605Y49722979D01*
X24322459Y49784832D01*
X24347332Y49815139D01*
X24377195Y49887235D01*
X24377195Y49965271D01*
X24347332Y50037367D01*
X24292152Y50092547D01*
X24220056Y50122410D01*
X24142020Y50122410D01*
X24069924Y50092547D01*
X24039617Y50067674D01*
X23944379Y49972436D01*
X23919506Y49942129D01*
X23916755Y49935490D01*
X23912048Y49930061D01*
X23896063Y49894261D01*
X23800825Y49608547D01*
X23796425Y49589201D01*
X23794404Y49584319D01*
X23793707Y49577243D01*
X23792132Y49570316D01*
X23792506Y49565051D01*
X23790561Y49545301D01*
X23568339Y49545301D01*
X23568339Y50344632D01*
X26506452Y50344632D01*
X26506452Y22742126D01*
G37*
D11*
G36*
X4750125Y36280705D02*
G01*
X4646819Y36280705D01*
X4560877Y36309352D01*
X4505812Y36364418D01*
X4476842Y36422358D01*
X4442982Y36557798D01*
X4442982Y36653613D01*
X4476842Y36789054D01*
X4505812Y36846994D01*
X4560876Y36902058D01*
X4646819Y36930705D01*
X4750125Y36930705D01*
X4750125Y36280705D01*
G37*
G36*
X3150125Y36661658D02*
G01*
X2938068Y36661658D01*
X2888600Y36686392D01*
X2867717Y36707275D01*
X2842982Y36756745D01*
X2842982Y36835619D01*
X2867717Y36885089D01*
X2888600Y36905971D01*
X2938068Y36930705D01*
X3150125Y36930705D01*
X3150125Y36661658D01*
G37*
G36*
X5444878Y36509277D02*
G01*
X5272039Y36509277D01*
X5358458Y36768535D01*
X5444878Y36509277D01*
G37*
G36*
X5788425Y36041816D02*
G01*
X1157915Y36041816D01*
X1157915Y37020337D01*
X1246804Y37020337D01*
X1246804Y36991073D01*
X1258003Y36964037D01*
X1278695Y36943345D01*
X1305731Y36932146D01*
X1320363Y36930705D01*
X1626315Y36930705D01*
X1626315Y36699753D01*
X1434649Y36699753D01*
X1420017Y36698312D01*
X1392981Y36687113D01*
X1372289Y36666421D01*
X1361090Y36639385D01*
X1361090Y36610121D01*
X1372289Y36583085D01*
X1392981Y36562393D01*
X1420017Y36551194D01*
X1434649Y36549753D01*
X1626315Y36549753D01*
X1626315Y36205705D01*
X1627756Y36191073D01*
X1638955Y36164037D01*
X1659647Y36143345D01*
X1686683Y36132146D01*
X1715947Y36132146D01*
X1742983Y36143345D01*
X1763675Y36164037D01*
X1774874Y36191073D01*
X1776315Y36205705D01*
X1776315Y37005705D01*
X1774874Y37020337D01*
X1970614Y37020337D01*
X1970614Y36991073D01*
X1981813Y36964037D01*
X2002505Y36943345D01*
X2029541Y36932146D01*
X2044173Y36930705D01*
X2350125Y36930705D01*
X2350125Y36699753D01*
X2158459Y36699753D01*
X2143827Y36698312D01*
X2116791Y36687113D01*
X2096099Y36666421D01*
X2084900Y36639385D01*
X2084900Y36610121D01*
X2096099Y36583085D01*
X2116791Y36562393D01*
X2143827Y36551194D01*
X2158459Y36549753D01*
X2350125Y36549753D01*
X2350125Y36280705D01*
X2044173Y36280705D01*
X2029541Y36279264D01*
X2002505Y36268065D01*
X1981813Y36247373D01*
X1970614Y36220337D01*
X1970614Y36191073D01*
X1981813Y36164037D01*
X2002505Y36143345D01*
X2029541Y36132146D01*
X2044173Y36130705D01*
X2425125Y36130705D01*
X2439757Y36132146D01*
X2466793Y36143345D01*
X2487485Y36164037D01*
X2498684Y36191073D01*
X2500125Y36205705D01*
X2500125Y36853324D01*
X2692982Y36853324D01*
X2692982Y36739039D01*
X2694423Y36724407D01*
X2695453Y36721919D01*
X2695645Y36719229D01*
X2700900Y36705498D01*
X2738996Y36629307D01*
X2742959Y36623011D01*
X2743718Y36621180D01*
X2745409Y36619119D01*
X2746829Y36616864D01*
X2748324Y36615568D01*
X2753045Y36609815D01*
X2791140Y36571720D01*
X2796889Y36567002D01*
X2798189Y36565503D01*
X2800448Y36564082D01*
X2802505Y36562393D01*
X2804332Y36561636D01*
X2810632Y36557671D01*
X2886822Y36519576D01*
X2894173Y36516763D01*
X2706540Y36248715D01*
X2699329Y36235901D01*
X2693000Y36207330D01*
X2698085Y36178513D01*
X2713812Y36153834D01*
X2737786Y36137052D01*
X2766357Y36130723D01*
X2795174Y36135808D01*
X2819853Y36151535D01*
X2829424Y36162695D01*
X3073698Y36511658D01*
X3150125Y36511658D01*
X3150125Y36205705D01*
X3151566Y36191073D01*
X3162765Y36164037D01*
X3183457Y36143345D01*
X3210493Y36132146D01*
X3239757Y36132146D01*
X3266793Y36143345D01*
X3287485Y36164037D01*
X3298684Y36191073D01*
X3300125Y36205705D01*
X3300125Y36944147D01*
X3494423Y36944147D01*
X3494423Y36914885D01*
X3505621Y36887848D01*
X3526314Y36867155D01*
X3553350Y36855956D01*
X3582612Y36855956D01*
X3609649Y36867154D01*
X3621014Y36876481D01*
X3646591Y36902058D01*
X3732533Y36930705D01*
X3784384Y36930705D01*
X3870326Y36902058D01*
X3925390Y36846994D01*
X3954360Y36789055D01*
X3988221Y36653613D01*
X3988221Y36557798D01*
X3954360Y36422357D01*
X3925390Y36364418D01*
X3870325Y36309352D01*
X3784384Y36280705D01*
X3732533Y36280705D01*
X3646592Y36309352D01*
X3621015Y36334929D01*
X3609650Y36344256D01*
X3582613Y36355455D01*
X3553351Y36355455D01*
X3526314Y36344256D01*
X3505622Y36323564D01*
X3494423Y36296527D01*
X3494423Y36267265D01*
X3505622Y36240228D01*
X3514949Y36228863D01*
X3553045Y36190767D01*
X3564410Y36181439D01*
X3566900Y36180408D01*
X3568935Y36178643D01*
X3582361Y36172649D01*
X3696646Y36134554D01*
X3703899Y36132905D01*
X3705731Y36132146D01*
X3708385Y36131885D01*
X3710983Y36131294D01*
X3712957Y36131435D01*
X3720363Y36130705D01*
X3796554Y36130705D01*
X3803959Y36131435D01*
X3805934Y36131294D01*
X3808531Y36131885D01*
X3811186Y36132146D01*
X3813017Y36132905D01*
X3820271Y36134554D01*
X3934557Y36172649D01*
X3947982Y36178643D01*
X3950017Y36180409D01*
X3952508Y36181440D01*
X3963873Y36190767D01*
X4040064Y36266959D01*
X4044781Y36272708D01*
X4046280Y36274007D01*
X4047701Y36276266D01*
X4049391Y36278324D01*
X4050148Y36280154D01*
X4054112Y36286450D01*
X4092207Y36362640D01*
X4092616Y36363710D01*
X4092939Y36364145D01*
X4095137Y36370297D01*
X4097462Y36376372D01*
X4097500Y36376911D01*
X4097886Y36377990D01*
X4135982Y36530372D01*
X4136357Y36532909D01*
X4136780Y36533930D01*
X4137322Y36539443D01*
X4138132Y36544916D01*
X4137969Y36546009D01*
X4138221Y36548562D01*
X4138221Y36662848D01*
X4292982Y36662848D01*
X4292982Y36548562D01*
X4293233Y36546009D01*
X4293071Y36544916D01*
X4293880Y36539442D01*
X4294423Y36533930D01*
X4294845Y36532910D01*
X4295221Y36530371D01*
X4333317Y36377990D01*
X4333702Y36376911D01*
X4333741Y36376372D01*
X4336065Y36370297D01*
X4338264Y36364145D01*
X4338586Y36363710D01*
X4338996Y36362640D01*
X4377091Y36286450D01*
X4381054Y36280154D01*
X4381812Y36278324D01*
X4383501Y36276266D01*
X4384923Y36274007D01*
X4386421Y36272708D01*
X4391140Y36266958D01*
X4467330Y36190767D01*
X4478695Y36181440D01*
X4481185Y36180409D01*
X4483221Y36178643D01*
X4496646Y36172649D01*
X4610932Y36134554D01*
X4618185Y36132905D01*
X4620017Y36132146D01*
X4622671Y36131885D01*
X4625269Y36131294D01*
X4627243Y36131435D01*
X4634649Y36130705D01*
X4825125Y36130705D01*
X4839757Y36132146D01*
X4866793Y36143345D01*
X4887485Y36164037D01*
X4898684Y36191073D01*
X4900125Y36205705D01*
X4900125Y36215085D01*
X5017381Y36215085D01*
X5019456Y36185895D01*
X5032542Y36159722D01*
X5054650Y36140548D01*
X5082412Y36131294D01*
X5111602Y36133369D01*
X5137775Y36146455D01*
X5156949Y36168563D01*
X5162943Y36181988D01*
X5222039Y36359277D01*
X5494878Y36359277D01*
X5553974Y36181988D01*
X5559968Y36168563D01*
X5579142Y36146455D01*
X5605315Y36133369D01*
X5634505Y36131294D01*
X5662268Y36140548D01*
X5684375Y36159722D01*
X5697461Y36185895D01*
X5699536Y36215085D01*
X5696276Y36229422D01*
X5429609Y37029422D01*
X5423615Y37042848D01*
X5420105Y37046895D01*
X5417708Y37051689D01*
X5410600Y37057853D01*
X5404441Y37064955D01*
X5399649Y37067351D01*
X5395601Y37070862D01*
X5386677Y37073837D01*
X5378268Y37078041D01*
X5372923Y37078421D01*
X5367838Y37080116D01*
X5358455Y37079450D01*
X5349078Y37080116D01*
X5343995Y37078422D01*
X5338648Y37078042D01*
X5330234Y37073836D01*
X5321315Y37070862D01*
X5317267Y37067352D01*
X5312475Y37064955D01*
X5306312Y37057851D01*
X5299208Y37051688D01*
X5296812Y37046897D01*
X5293301Y37042848D01*
X5287307Y37029422D01*
X5020641Y36229422D01*
X5017381Y36215085D01*
X4900125Y36215085D01*
X4900125Y37005705D01*
X4898684Y37020337D01*
X4887485Y37047373D01*
X4866793Y37068065D01*
X4839757Y37079264D01*
X4825125Y37080705D01*
X4634649Y37080705D01*
X4627243Y37079976D01*
X4625269Y37080116D01*
X4622671Y37079526D01*
X4620017Y37079264D01*
X4618185Y37078506D01*
X4610932Y37076856D01*
X4496646Y37038761D01*
X4483221Y37032767D01*
X4481187Y37031004D01*
X4478695Y37029971D01*
X4467330Y37020643D01*
X4391140Y36944453D01*
X4386421Y36938704D01*
X4384923Y36937404D01*
X4383501Y36935145D01*
X4381813Y36933088D01*
X4381055Y36931261D01*
X4377091Y36924961D01*
X4338996Y36848770D01*
X4338586Y36847701D01*
X4338264Y36847265D01*
X4336065Y36841114D01*
X4333741Y36835038D01*
X4333702Y36834500D01*
X4333317Y36833420D01*
X4295221Y36681039D01*
X4294845Y36678501D01*
X4294423Y36677480D01*
X4293880Y36671969D01*
X4293071Y36666494D01*
X4293233Y36665402D01*
X4292982Y36662848D01*
X4138221Y36662848D01*
X4137969Y36665402D01*
X4138132Y36666494D01*
X4137322Y36671968D01*
X4136780Y36677480D01*
X4136357Y36678502D01*
X4135982Y36681038D01*
X4097886Y36833420D01*
X4097500Y36834500D01*
X4097462Y36835038D01*
X4095137Y36841114D01*
X4092939Y36847265D01*
X4092616Y36847701D01*
X4092207Y36848770D01*
X4054112Y36924961D01*
X4050149Y36931256D01*
X4049391Y36933088D01*
X4047699Y36935150D01*
X4046280Y36937404D01*
X4044783Y36938703D01*
X4040063Y36944453D01*
X3963873Y37020643D01*
X3952508Y37029970D01*
X3950017Y37031002D01*
X3947982Y37032767D01*
X3934557Y37038761D01*
X3820271Y37076856D01*
X3813017Y37078506D01*
X3811186Y37079264D01*
X3808531Y37079526D01*
X3805934Y37080116D01*
X3803959Y37079976D01*
X3796554Y37080705D01*
X3720363Y37080705D01*
X3712957Y37079976D01*
X3710983Y37080116D01*
X3708385Y37079526D01*
X3705731Y37079264D01*
X3703899Y37078506D01*
X3696646Y37076856D01*
X3582361Y37038761D01*
X3568935Y37032767D01*
X3566899Y37031002D01*
X3564411Y37029971D01*
X3553046Y37020644D01*
X3514950Y36982549D01*
X3505622Y36971183D01*
X3494423Y36944147D01*
X3300125Y36944147D01*
X3300125Y37005705D01*
X3298684Y37020337D01*
X3287485Y37047373D01*
X3266793Y37068065D01*
X3239757Y37079264D01*
X3225125Y37080705D01*
X2920363Y37080705D01*
X2905731Y37079264D01*
X2903241Y37078233D01*
X2900554Y37078042D01*
X2886822Y37072787D01*
X2810632Y37034692D01*
X2804332Y37030728D01*
X2802505Y37029970D01*
X2800448Y37028282D01*
X2798189Y37026860D01*
X2796889Y37025362D01*
X2791140Y37020643D01*
X2753045Y36982548D01*
X2748324Y36976796D01*
X2746829Y36975499D01*
X2745409Y36973245D01*
X2743718Y36971183D01*
X2742959Y36969353D01*
X2738996Y36963056D01*
X2700900Y36886865D01*
X2695645Y36873134D01*
X2695453Y36870445D01*
X2694423Y36867956D01*
X2692982Y36853324D01*
X2500125Y36853324D01*
X2500125Y37005705D01*
X2498684Y37020337D01*
X2487485Y37047373D01*
X2466793Y37068065D01*
X2439757Y37079264D01*
X2425125Y37080705D01*
X2044173Y37080705D01*
X2029541Y37079264D01*
X2002505Y37068065D01*
X1981813Y37047373D01*
X1970614Y37020337D01*
X1774874Y37020337D01*
X1763675Y37047373D01*
X1742983Y37068065D01*
X1715947Y37079264D01*
X1701315Y37080705D01*
X1320363Y37080705D01*
X1305731Y37079264D01*
X1278695Y37068065D01*
X1258003Y37047373D01*
X1246804Y37020337D01*
X1157915Y37020337D01*
X1157915Y37169594D01*
X5788425Y37169594D01*
X5788425Y36041816D01*
G37*
G36*
X12135839Y36261658D02*
G01*
X11923782Y36261658D01*
X11874314Y36286392D01*
X11853431Y36307275D01*
X11828696Y36356745D01*
X11828696Y36435619D01*
X11853431Y36485089D01*
X11874314Y36505971D01*
X11923782Y36530705D01*
X12135839Y36530705D01*
X12135839Y36261658D01*
G37*
G36*
X13212824Y35641816D02*
G01*
X10143629Y35641816D01*
X10143629Y36620337D01*
X10232518Y36620337D01*
X10232518Y36591073D01*
X10243717Y36564037D01*
X10264409Y36543345D01*
X10291445Y36532146D01*
X10306077Y36530705D01*
X10459649Y36530705D01*
X10459649Y35805705D01*
X10461090Y35791073D01*
X10472289Y35764037D01*
X10492981Y35743345D01*
X10520017Y35732146D01*
X10549281Y35732146D01*
X10576317Y35743345D01*
X10597009Y35764037D01*
X10608208Y35791073D01*
X10609649Y35805705D01*
X10609649Y36034277D01*
X10916792Y36034277D01*
X10916792Y35958086D01*
X10918233Y35943454D01*
X10919264Y35940965D01*
X10919455Y35938277D01*
X10924710Y35924545D01*
X10962805Y35848355D01*
X10966768Y35842059D01*
X10967526Y35840229D01*
X10969215Y35838171D01*
X10970637Y35835912D01*
X10972135Y35834613D01*
X10976853Y35828864D01*
X11014948Y35790768D01*
X11020699Y35786048D01*
X11021998Y35784550D01*
X11024253Y35783131D01*
X11026313Y35781440D01*
X11028143Y35780682D01*
X11034441Y35776718D01*
X11110632Y35738623D01*
X11124364Y35733368D01*
X11127051Y35733178D01*
X11129541Y35732146D01*
X11144173Y35730705D01*
X11334649Y35730705D01*
X11342054Y35731435D01*
X11344029Y35731294D01*
X11346626Y35731885D01*
X11349281Y35732146D01*
X11351112Y35732905D01*
X11358366Y35734554D01*
X11472652Y35772649D01*
X11486077Y35778643D01*
X11508185Y35797817D01*
X11521271Y35823990D01*
X11523346Y35853180D01*
X11514092Y35880942D01*
X11494919Y35903050D01*
X11468745Y35916136D01*
X11439555Y35918211D01*
X11425218Y35914951D01*
X11322479Y35880705D01*
X11161878Y35880705D01*
X11112409Y35905439D01*
X11091526Y35926323D01*
X11066792Y35975791D01*
X11066792Y36016572D01*
X11091526Y36066040D01*
X11112409Y36086924D01*
X11170349Y36115894D01*
X11314744Y36151992D01*
X11315823Y36152378D01*
X11316363Y36152416D01*
X11322444Y36154744D01*
X11328590Y36156939D01*
X11329025Y36157262D01*
X11330095Y36157671D01*
X11406285Y36195766D01*
X11412584Y36199731D01*
X11414412Y36200488D01*
X11416468Y36202177D01*
X11418728Y36203598D01*
X11420027Y36205097D01*
X11425777Y36209815D01*
X11463872Y36247910D01*
X11468592Y36253663D01*
X11470088Y36254959D01*
X11471507Y36257214D01*
X11473199Y36259275D01*
X11473957Y36261106D01*
X11477921Y36267402D01*
X11516017Y36343592D01*
X11521272Y36357324D01*
X11521463Y36360014D01*
X11522494Y36362502D01*
X11523935Y36377134D01*
X11523935Y36453324D01*
X11678696Y36453324D01*
X11678696Y36339039D01*
X11680137Y36324407D01*
X11681167Y36321919D01*
X11681359Y36319229D01*
X11686614Y36305498D01*
X11724710Y36229307D01*
X11728673Y36223011D01*
X11729432Y36221180D01*
X11731123Y36219119D01*
X11732543Y36216864D01*
X11734038Y36215568D01*
X11738759Y36209815D01*
X11776854Y36171720D01*
X11782603Y36167002D01*
X11783903Y36165503D01*
X11786162Y36164082D01*
X11788219Y36162393D01*
X11790046Y36161636D01*
X11796346Y36157671D01*
X11872536Y36119576D01*
X11879887Y36116763D01*
X11692254Y35848715D01*
X11685043Y35835901D01*
X11678714Y35807330D01*
X11683799Y35778513D01*
X11699526Y35753834D01*
X11723500Y35737052D01*
X11752071Y35730723D01*
X11780888Y35735808D01*
X11805567Y35751535D01*
X11815138Y35762695D01*
X12059412Y36111658D01*
X12135839Y36111658D01*
X12135839Y35805705D01*
X12137280Y35791073D01*
X12148479Y35764037D01*
X12169171Y35743345D01*
X12196207Y35732146D01*
X12225471Y35732146D01*
X12252507Y35743345D01*
X12273199Y35764037D01*
X12284398Y35791073D01*
X12285839Y35805705D01*
X12285839Y36544147D01*
X12480137Y36544147D01*
X12480137Y36514885D01*
X12491335Y36487848D01*
X12512028Y36467155D01*
X12539064Y36455956D01*
X12568326Y36455956D01*
X12595363Y36467154D01*
X12606728Y36476481D01*
X12632305Y36502058D01*
X12718247Y36530705D01*
X12770098Y36530705D01*
X12856040Y36502058D01*
X12911104Y36446994D01*
X12940074Y36389055D01*
X12973935Y36253613D01*
X12973935Y36157798D01*
X12940074Y36022357D01*
X12911104Y35964418D01*
X12856039Y35909352D01*
X12770098Y35880705D01*
X12718247Y35880705D01*
X12632306Y35909352D01*
X12606729Y35934929D01*
X12595364Y35944256D01*
X12568327Y35955455D01*
X12539065Y35955455D01*
X12512028Y35944256D01*
X12491336Y35923564D01*
X12480137Y35896527D01*
X12480137Y35867265D01*
X12491336Y35840228D01*
X12500663Y35828863D01*
X12538759Y35790767D01*
X12550124Y35781439D01*
X12552614Y35780408D01*
X12554649Y35778643D01*
X12568075Y35772649D01*
X12682360Y35734554D01*
X12689613Y35732905D01*
X12691445Y35732146D01*
X12694099Y35731885D01*
X12696697Y35731294D01*
X12698671Y35731435D01*
X12706077Y35730705D01*
X12782268Y35730705D01*
X12789673Y35731435D01*
X12791648Y35731294D01*
X12794245Y35731885D01*
X12796900Y35732146D01*
X12798731Y35732905D01*
X12805985Y35734554D01*
X12920271Y35772649D01*
X12933696Y35778643D01*
X12935731Y35780409D01*
X12938222Y35781440D01*
X12949587Y35790767D01*
X13025778Y35866959D01*
X13030495Y35872708D01*
X13031994Y35874007D01*
X13033415Y35876266D01*
X13035105Y35878324D01*
X13035862Y35880154D01*
X13039826Y35886450D01*
X13077921Y35962640D01*
X13078330Y35963710D01*
X13078653Y35964145D01*
X13080851Y35970297D01*
X13083176Y35976372D01*
X13083214Y35976911D01*
X13083600Y35977990D01*
X13121696Y36130372D01*
X13122071Y36132909D01*
X13122494Y36133930D01*
X13123036Y36139443D01*
X13123846Y36144916D01*
X13123683Y36146009D01*
X13123935Y36148562D01*
X13123935Y36262848D01*
X13123683Y36265402D01*
X13123846Y36266494D01*
X13123036Y36271968D01*
X13122494Y36277480D01*
X13122071Y36278502D01*
X13121696Y36281038D01*
X13083600Y36433420D01*
X13083214Y36434500D01*
X13083176Y36435038D01*
X13080851Y36441114D01*
X13078653Y36447265D01*
X13078330Y36447701D01*
X13077921Y36448770D01*
X13039826Y36524961D01*
X13035863Y36531256D01*
X13035105Y36533088D01*
X13033413Y36535150D01*
X13031994Y36537404D01*
X13030497Y36538703D01*
X13025777Y36544453D01*
X12949587Y36620643D01*
X12938222Y36629970D01*
X12935731Y36631002D01*
X12933696Y36632767D01*
X12920271Y36638761D01*
X12805985Y36676856D01*
X12798731Y36678506D01*
X12796900Y36679264D01*
X12794245Y36679526D01*
X12791648Y36680116D01*
X12789673Y36679976D01*
X12782268Y36680705D01*
X12706077Y36680705D01*
X12698671Y36679976D01*
X12696697Y36680116D01*
X12694099Y36679526D01*
X12691445Y36679264D01*
X12689613Y36678506D01*
X12682360Y36676856D01*
X12568075Y36638761D01*
X12554649Y36632767D01*
X12552613Y36631002D01*
X12550125Y36629971D01*
X12538760Y36620644D01*
X12500664Y36582549D01*
X12491336Y36571183D01*
X12480137Y36544147D01*
X12285839Y36544147D01*
X12285839Y36605705D01*
X12284398Y36620337D01*
X12273199Y36647373D01*
X12252507Y36668065D01*
X12225471Y36679264D01*
X12210839Y36680705D01*
X11906077Y36680705D01*
X11891445Y36679264D01*
X11888955Y36678233D01*
X11886268Y36678042D01*
X11872536Y36672787D01*
X11796346Y36634692D01*
X11790046Y36630728D01*
X11788219Y36629970D01*
X11786162Y36628282D01*
X11783903Y36626860D01*
X11782603Y36625362D01*
X11776854Y36620643D01*
X11738759Y36582548D01*
X11734038Y36576796D01*
X11732543Y36575499D01*
X11731123Y36573245D01*
X11729432Y36571183D01*
X11728673Y36569353D01*
X11724710Y36563056D01*
X11686614Y36486865D01*
X11681359Y36473134D01*
X11681167Y36470445D01*
X11680137Y36467956D01*
X11678696Y36453324D01*
X11523935Y36453324D01*
X11522494Y36467956D01*
X11521463Y36470445D01*
X11521272Y36473134D01*
X11516017Y36486866D01*
X11477921Y36563056D01*
X11473957Y36569353D01*
X11473199Y36571183D01*
X11471507Y36573245D01*
X11470088Y36575499D01*
X11468592Y36576796D01*
X11463872Y36582548D01*
X11425777Y36620643D01*
X11420027Y36625362D01*
X11418728Y36626860D01*
X11416468Y36628282D01*
X11414412Y36629970D01*
X11412584Y36630728D01*
X11406285Y36634692D01*
X11330095Y36672787D01*
X11316363Y36678042D01*
X11313675Y36678233D01*
X11311186Y36679264D01*
X11296554Y36680705D01*
X11106077Y36680705D01*
X11098671Y36679976D01*
X11096697Y36680116D01*
X11094099Y36679526D01*
X11091445Y36679264D01*
X11089613Y36678506D01*
X11082360Y36676856D01*
X10968075Y36638761D01*
X10954649Y36632767D01*
X10932542Y36613593D01*
X10919456Y36587420D01*
X10917381Y36558230D01*
X10926635Y36530467D01*
X10945809Y36508360D01*
X10971982Y36495274D01*
X11001172Y36493199D01*
X11015509Y36496459D01*
X11118247Y36530705D01*
X11278849Y36530705D01*
X11328317Y36505971D01*
X11349200Y36485088D01*
X11373935Y36435619D01*
X11373935Y36394840D01*
X11349200Y36345371D01*
X11328317Y36324487D01*
X11270378Y36295518D01*
X11125983Y36259419D01*
X11124903Y36259034D01*
X11124363Y36258995D01*
X11118267Y36256663D01*
X11112137Y36254472D01*
X11111702Y36254151D01*
X11110631Y36253740D01*
X11034441Y36215644D01*
X11028144Y36211681D01*
X11026314Y36210922D01*
X11024252Y36209231D01*
X11021998Y36207811D01*
X11020701Y36206316D01*
X11014949Y36201595D01*
X10976854Y36163500D01*
X10972135Y36157751D01*
X10970637Y36156451D01*
X10969215Y36154192D01*
X10967527Y36152135D01*
X10966769Y36150308D01*
X10962805Y36144008D01*
X10924710Y36067818D01*
X10919455Y36054086D01*
X10919264Y36051399D01*
X10918233Y36048909D01*
X10916792Y36034277D01*
X10609649Y36034277D01*
X10609649Y36530705D01*
X10763220Y36530705D01*
X10777852Y36532146D01*
X10804888Y36543345D01*
X10825580Y36564037D01*
X10836779Y36591073D01*
X10836779Y36620337D01*
X10825580Y36647373D01*
X10804888Y36668065D01*
X10777852Y36679264D01*
X10763220Y36680705D01*
X10306077Y36680705D01*
X10291445Y36679264D01*
X10264409Y36668065D01*
X10243717Y36647373D01*
X10232518Y36620337D01*
X10143629Y36620337D01*
X10143629Y36769594D01*
X13212824Y36769594D01*
X13212824Y35641816D01*
G37*
D13*
X8611775Y17314286D02*
X8230822Y17580953D01*
X8611775Y17771429D02*
X7811775Y17771429D01*
X7811775Y17771429D02*
X7811775Y17466667D01*
X7811775Y17466667D02*
X7849870Y17390477D01*
X7849870Y17390477D02*
X7887965Y17352382D01*
X7887965Y17352382D02*
X7964156Y17314286D01*
X7964156Y17314286D02*
X8078441Y17314286D01*
X8078441Y17314286D02*
X8154632Y17352382D01*
X8154632Y17352382D02*
X8192727Y17390477D01*
X8192727Y17390477D02*
X8230822Y17466667D01*
X8230822Y17466667D02*
X8230822Y17771429D01*
X8078441Y16628572D02*
X8611775Y16628572D01*
X7773680Y16819048D02*
X8345108Y17009525D01*
X8345108Y17009525D02*
X8345108Y16514286D01*
X7811775Y16057143D02*
X7811775Y15980953D01*
X7811775Y15980953D02*
X7849870Y15904762D01*
X7849870Y15904762D02*
X7887965Y15866667D01*
X7887965Y15866667D02*
X7964156Y15828572D01*
X7964156Y15828572D02*
X8116537Y15790477D01*
X8116537Y15790477D02*
X8307013Y15790477D01*
X8307013Y15790477D02*
X8459394Y15828572D01*
X8459394Y15828572D02*
X8535584Y15866667D01*
X8535584Y15866667D02*
X8573680Y15904762D01*
X8573680Y15904762D02*
X8611775Y15980953D01*
X8611775Y15980953D02*
X8611775Y16057143D01*
X8611775Y16057143D02*
X8573680Y16133334D01*
X8573680Y16133334D02*
X8535584Y16171429D01*
X8535584Y16171429D02*
X8459394Y16209524D01*
X8459394Y16209524D02*
X8307013Y16247620D01*
X8307013Y16247620D02*
X8116537Y16247620D01*
X8116537Y16247620D02*
X7964156Y16209524D01*
X7964156Y16209524D02*
X7887965Y16171429D01*
X7887965Y16171429D02*
X7849870Y16133334D01*
X7849870Y16133334D02*
X7811775Y16057143D01*
X14335584Y57714286D02*
X14373680Y57752382D01*
X14373680Y57752382D02*
X14411775Y57866667D01*
X14411775Y57866667D02*
X14411775Y57942858D01*
X14411775Y57942858D02*
X14373680Y58057144D01*
X14373680Y58057144D02*
X14297489Y58133334D01*
X14297489Y58133334D02*
X14221299Y58171429D01*
X14221299Y58171429D02*
X14068918Y58209525D01*
X14068918Y58209525D02*
X13954632Y58209525D01*
X13954632Y58209525D02*
X13802251Y58171429D01*
X13802251Y58171429D02*
X13726060Y58133334D01*
X13726060Y58133334D02*
X13649870Y58057144D01*
X13649870Y58057144D02*
X13611775Y57942858D01*
X13611775Y57942858D02*
X13611775Y57866667D01*
X13611775Y57866667D02*
X13649870Y57752382D01*
X13649870Y57752382D02*
X13687965Y57714286D01*
X14411775Y56952382D02*
X14411775Y57409525D01*
X14411775Y57180953D02*
X13611775Y57180953D01*
X13611775Y57180953D02*
X13726060Y57257144D01*
X13726060Y57257144D02*
X13802251Y57333334D01*
X13802251Y57333334D02*
X13840346Y57409525D01*
X13878441Y56266667D02*
X14411775Y56266667D01*
X13573680Y56457143D02*
X14145108Y56647620D01*
X14145108Y56647620D02*
X14145108Y56152381D01*
X15411775Y17264286D02*
X15030822Y17530953D01*
X15411775Y17721429D02*
X14611775Y17721429D01*
X14611775Y17721429D02*
X14611775Y17416667D01*
X14611775Y17416667D02*
X14649870Y17340477D01*
X14649870Y17340477D02*
X14687965Y17302382D01*
X14687965Y17302382D02*
X14764156Y17264286D01*
X14764156Y17264286D02*
X14878441Y17264286D01*
X14878441Y17264286D02*
X14954632Y17302382D01*
X14954632Y17302382D02*
X14992727Y17340477D01*
X14992727Y17340477D02*
X15030822Y17416667D01*
X15030822Y17416667D02*
X15030822Y17721429D01*
X14611775Y16997620D02*
X14611775Y16502382D01*
X14611775Y16502382D02*
X14916537Y16769048D01*
X14916537Y16769048D02*
X14916537Y16654763D01*
X14916537Y16654763D02*
X14954632Y16578572D01*
X14954632Y16578572D02*
X14992727Y16540477D01*
X14992727Y16540477D02*
X15068918Y16502382D01*
X15068918Y16502382D02*
X15259394Y16502382D01*
X15259394Y16502382D02*
X15335584Y16540477D01*
X15335584Y16540477D02*
X15373680Y16578572D01*
X15373680Y16578572D02*
X15411775Y16654763D01*
X15411775Y16654763D02*
X15411775Y16883334D01*
X15411775Y16883334D02*
X15373680Y16959525D01*
X15373680Y16959525D02*
X15335584Y16997620D01*
X15411775Y16121429D02*
X15411775Y15969048D01*
X15411775Y15969048D02*
X15373680Y15892858D01*
X15373680Y15892858D02*
X15335584Y15854762D01*
X15335584Y15854762D02*
X15221299Y15778572D01*
X15221299Y15778572D02*
X15068918Y15740477D01*
X15068918Y15740477D02*
X14764156Y15740477D01*
X14764156Y15740477D02*
X14687965Y15778572D01*
X14687965Y15778572D02*
X14649870Y15816667D01*
X14649870Y15816667D02*
X14611775Y15892858D01*
X14611775Y15892858D02*
X14611775Y16045239D01*
X14611775Y16045239D02*
X14649870Y16121429D01*
X14649870Y16121429D02*
X14687965Y16159524D01*
X14687965Y16159524D02*
X14764156Y16197620D01*
X14764156Y16197620D02*
X14954632Y16197620D01*
X14954632Y16197620D02*
X15030822Y16159524D01*
X15030822Y16159524D02*
X15068918Y16121429D01*
X15068918Y16121429D02*
X15107013Y16045239D01*
X15107013Y16045239D02*
X15107013Y15892858D01*
X15107013Y15892858D02*
X15068918Y15816667D01*
X15068918Y15816667D02*
X15030822Y15778572D01*
X15030822Y15778572D02*
X14954632Y15740477D01*
X15585584Y56933333D02*
X15623680Y56971429D01*
X15623680Y56971429D02*
X15661775Y57085714D01*
X15661775Y57085714D02*
X15661775Y57161905D01*
X15661775Y57161905D02*
X15623680Y57276191D01*
X15623680Y57276191D02*
X15547489Y57352381D01*
X15547489Y57352381D02*
X15471299Y57390476D01*
X15471299Y57390476D02*
X15318918Y57428572D01*
X15318918Y57428572D02*
X15204632Y57428572D01*
X15204632Y57428572D02*
X15052251Y57390476D01*
X15052251Y57390476D02*
X14976060Y57352381D01*
X14976060Y57352381D02*
X14899870Y57276191D01*
X14899870Y57276191D02*
X14861775Y57161905D01*
X14861775Y57161905D02*
X14861775Y57085714D01*
X14861775Y57085714D02*
X14899870Y56971429D01*
X14899870Y56971429D02*
X14937965Y56933333D01*
X15128441Y56247619D02*
X15661775Y56247619D01*
X14823680Y56438095D02*
X15395108Y56628572D01*
X15395108Y56628572D02*
X15395108Y56133333D01*
X17585584Y56933333D02*
X17623680Y56971429D01*
X17623680Y56971429D02*
X17661775Y57085714D01*
X17661775Y57085714D02*
X17661775Y57161905D01*
X17661775Y57161905D02*
X17623680Y57276191D01*
X17623680Y57276191D02*
X17547489Y57352381D01*
X17547489Y57352381D02*
X17471299Y57390476D01*
X17471299Y57390476D02*
X17318918Y57428572D01*
X17318918Y57428572D02*
X17204632Y57428572D01*
X17204632Y57428572D02*
X17052251Y57390476D01*
X17052251Y57390476D02*
X16976060Y57352381D01*
X16976060Y57352381D02*
X16899870Y57276191D01*
X16899870Y57276191D02*
X16861775Y57161905D01*
X16861775Y57161905D02*
X16861775Y57085714D01*
X16861775Y57085714D02*
X16899870Y56971429D01*
X16899870Y56971429D02*
X16937965Y56933333D01*
X16861775Y56666667D02*
X16861775Y56171429D01*
X16861775Y56171429D02*
X17166537Y56438095D01*
X17166537Y56438095D02*
X17166537Y56323810D01*
X17166537Y56323810D02*
X17204632Y56247619D01*
X17204632Y56247619D02*
X17242727Y56209524D01*
X17242727Y56209524D02*
X17318918Y56171429D01*
X17318918Y56171429D02*
X17509394Y56171429D01*
X17509394Y56171429D02*
X17585584Y56209524D01*
X17585584Y56209524D02*
X17623680Y56247619D01*
X17623680Y56247619D02*
X17661775Y56323810D01*
X17661775Y56323810D02*
X17661775Y56552381D01*
X17661775Y56552381D02*
X17623680Y56628572D01*
X17623680Y56628572D02*
X17585584Y56666667D01*
X11085584Y46433333D02*
X11123680Y46471429D01*
X11123680Y46471429D02*
X11161775Y46585714D01*
X11161775Y46585714D02*
X11161775Y46661905D01*
X11161775Y46661905D02*
X11123680Y46776191D01*
X11123680Y46776191D02*
X11047489Y46852381D01*
X11047489Y46852381D02*
X10971299Y46890476D01*
X10971299Y46890476D02*
X10818918Y46928572D01*
X10818918Y46928572D02*
X10704632Y46928572D01*
X10704632Y46928572D02*
X10552251Y46890476D01*
X10552251Y46890476D02*
X10476060Y46852381D01*
X10476060Y46852381D02*
X10399870Y46776191D01*
X10399870Y46776191D02*
X10361775Y46661905D01*
X10361775Y46661905D02*
X10361775Y46585714D01*
X10361775Y46585714D02*
X10399870Y46471429D01*
X10399870Y46471429D02*
X10437965Y46433333D01*
X10704632Y45976191D02*
X10666537Y46052381D01*
X10666537Y46052381D02*
X10628441Y46090476D01*
X10628441Y46090476D02*
X10552251Y46128572D01*
X10552251Y46128572D02*
X10514156Y46128572D01*
X10514156Y46128572D02*
X10437965Y46090476D01*
X10437965Y46090476D02*
X10399870Y46052381D01*
X10399870Y46052381D02*
X10361775Y45976191D01*
X10361775Y45976191D02*
X10361775Y45823810D01*
X10361775Y45823810D02*
X10399870Y45747619D01*
X10399870Y45747619D02*
X10437965Y45709524D01*
X10437965Y45709524D02*
X10514156Y45671429D01*
X10514156Y45671429D02*
X10552251Y45671429D01*
X10552251Y45671429D02*
X10628441Y45709524D01*
X10628441Y45709524D02*
X10666537Y45747619D01*
X10666537Y45747619D02*
X10704632Y45823810D01*
X10704632Y45823810D02*
X10704632Y45976191D01*
X10704632Y45976191D02*
X10742727Y46052381D01*
X10742727Y46052381D02*
X10780822Y46090476D01*
X10780822Y46090476D02*
X10857013Y46128572D01*
X10857013Y46128572D02*
X11009394Y46128572D01*
X11009394Y46128572D02*
X11085584Y46090476D01*
X11085584Y46090476D02*
X11123680Y46052381D01*
X11123680Y46052381D02*
X11161775Y45976191D01*
X11161775Y45976191D02*
X11161775Y45823810D01*
X11161775Y45823810D02*
X11123680Y45747619D01*
X11123680Y45747619D02*
X11085584Y45709524D01*
X11085584Y45709524D02*
X11009394Y45671429D01*
X11009394Y45671429D02*
X10857013Y45671429D01*
X10857013Y45671429D02*
X10780822Y45709524D01*
X10780822Y45709524D02*
X10742727Y45747619D01*
X10742727Y45747619D02*
X10704632Y45823810D01*
X9533332Y51614416D02*
X9571428Y51576320D01*
X9571428Y51576320D02*
X9685713Y51538225D01*
X9685713Y51538225D02*
X9761904Y51538225D01*
X9761904Y51538225D02*
X9876190Y51576320D01*
X9876190Y51576320D02*
X9952380Y51652511D01*
X9952380Y51652511D02*
X9990475Y51728701D01*
X9990475Y51728701D02*
X10028571Y51881082D01*
X10028571Y51881082D02*
X10028571Y51995368D01*
X10028571Y51995368D02*
X9990475Y52147749D01*
X9990475Y52147749D02*
X9952380Y52223940D01*
X9952380Y52223940D02*
X9876190Y52300130D01*
X9876190Y52300130D02*
X9761904Y52338225D01*
X9761904Y52338225D02*
X9685713Y52338225D01*
X9685713Y52338225D02*
X9571428Y52300130D01*
X9571428Y52300130D02*
X9533332Y52262035D01*
X9266666Y52338225D02*
X8733332Y52338225D01*
X8733332Y52338225D02*
X9076190Y51538225D01*
X9533332Y54914416D02*
X9571428Y54876320D01*
X9571428Y54876320D02*
X9685713Y54838225D01*
X9685713Y54838225D02*
X9761904Y54838225D01*
X9761904Y54838225D02*
X9876190Y54876320D01*
X9876190Y54876320D02*
X9952380Y54952511D01*
X9952380Y54952511D02*
X9990475Y55028701D01*
X9990475Y55028701D02*
X10028571Y55181082D01*
X10028571Y55181082D02*
X10028571Y55295368D01*
X10028571Y55295368D02*
X9990475Y55447749D01*
X9990475Y55447749D02*
X9952380Y55523940D01*
X9952380Y55523940D02*
X9876190Y55600130D01*
X9876190Y55600130D02*
X9761904Y55638225D01*
X9761904Y55638225D02*
X9685713Y55638225D01*
X9685713Y55638225D02*
X9571428Y55600130D01*
X9571428Y55600130D02*
X9533332Y55562035D01*
X8809523Y55638225D02*
X9190475Y55638225D01*
X9190475Y55638225D02*
X9228571Y55257273D01*
X9228571Y55257273D02*
X9190475Y55295368D01*
X9190475Y55295368D02*
X9114285Y55333463D01*
X9114285Y55333463D02*
X8923809Y55333463D01*
X8923809Y55333463D02*
X8847618Y55295368D01*
X8847618Y55295368D02*
X8809523Y55257273D01*
X8809523Y55257273D02*
X8771428Y55181082D01*
X8771428Y55181082D02*
X8771428Y54990606D01*
X8771428Y54990606D02*
X8809523Y54914416D01*
X8809523Y54914416D02*
X8847618Y54876320D01*
X8847618Y54876320D02*
X8923809Y54838225D01*
X8923809Y54838225D02*
X9114285Y54838225D01*
X9114285Y54838225D02*
X9190475Y54876320D01*
X9190475Y54876320D02*
X9228571Y54914416D01*
X10514285Y49664416D02*
X10552381Y49626320D01*
X10552381Y49626320D02*
X10666666Y49588225D01*
X10666666Y49588225D02*
X10742857Y49588225D01*
X10742857Y49588225D02*
X10857143Y49626320D01*
X10857143Y49626320D02*
X10933333Y49702511D01*
X10933333Y49702511D02*
X10971428Y49778701D01*
X10971428Y49778701D02*
X11009524Y49931082D01*
X11009524Y49931082D02*
X11009524Y50045368D01*
X11009524Y50045368D02*
X10971428Y50197749D01*
X10971428Y50197749D02*
X10933333Y50273940D01*
X10933333Y50273940D02*
X10857143Y50350130D01*
X10857143Y50350130D02*
X10742857Y50388225D01*
X10742857Y50388225D02*
X10666666Y50388225D01*
X10666666Y50388225D02*
X10552381Y50350130D01*
X10552381Y50350130D02*
X10514285Y50312035D01*
X9752381Y49588225D02*
X10209524Y49588225D01*
X9980952Y49588225D02*
X9980952Y50388225D01*
X9980952Y50388225D02*
X10057143Y50273940D01*
X10057143Y50273940D02*
X10133333Y50197749D01*
X10133333Y50197749D02*
X10209524Y50159654D01*
X9028571Y50388225D02*
X9409523Y50388225D01*
X9409523Y50388225D02*
X9447619Y50007273D01*
X9447619Y50007273D02*
X9409523Y50045368D01*
X9409523Y50045368D02*
X9333333Y50083463D01*
X9333333Y50083463D02*
X9142857Y50083463D01*
X9142857Y50083463D02*
X9066666Y50045368D01*
X9066666Y50045368D02*
X9028571Y50007273D01*
X9028571Y50007273D02*
X8990476Y49931082D01*
X8990476Y49931082D02*
X8990476Y49740606D01*
X8990476Y49740606D02*
X9028571Y49664416D01*
X9028571Y49664416D02*
X9066666Y49626320D01*
X9066666Y49626320D02*
X9142857Y49588225D01*
X9142857Y49588225D02*
X9333333Y49588225D01*
X9333333Y49588225D02*
X9409523Y49626320D01*
X9409523Y49626320D02*
X9447619Y49664416D01*
X7664285Y44364416D02*
X7702381Y44326320D01*
X7702381Y44326320D02*
X7816666Y44288225D01*
X7816666Y44288225D02*
X7892857Y44288225D01*
X7892857Y44288225D02*
X8007143Y44326320D01*
X8007143Y44326320D02*
X8083333Y44402511D01*
X8083333Y44402511D02*
X8121428Y44478701D01*
X8121428Y44478701D02*
X8159524Y44631082D01*
X8159524Y44631082D02*
X8159524Y44745368D01*
X8159524Y44745368D02*
X8121428Y44897749D01*
X8121428Y44897749D02*
X8083333Y44973940D01*
X8083333Y44973940D02*
X8007143Y45050130D01*
X8007143Y45050130D02*
X7892857Y45088225D01*
X7892857Y45088225D02*
X7816666Y45088225D01*
X7816666Y45088225D02*
X7702381Y45050130D01*
X7702381Y45050130D02*
X7664285Y45012035D01*
X7397619Y45088225D02*
X6902381Y45088225D01*
X6902381Y45088225D02*
X7169047Y44783463D01*
X7169047Y44783463D02*
X7054762Y44783463D01*
X7054762Y44783463D02*
X6978571Y44745368D01*
X6978571Y44745368D02*
X6940476Y44707273D01*
X6940476Y44707273D02*
X6902381Y44631082D01*
X6902381Y44631082D02*
X6902381Y44440606D01*
X6902381Y44440606D02*
X6940476Y44364416D01*
X6940476Y44364416D02*
X6978571Y44326320D01*
X6978571Y44326320D02*
X7054762Y44288225D01*
X7054762Y44288225D02*
X7283333Y44288225D01*
X7283333Y44288225D02*
X7359524Y44326320D01*
X7359524Y44326320D02*
X7397619Y44364416D01*
X6140476Y44288225D02*
X6597619Y44288225D01*
X6369047Y44288225D02*
X6369047Y45088225D01*
X6369047Y45088225D02*
X6445238Y44973940D01*
X6445238Y44973940D02*
X6521428Y44897749D01*
X6521428Y44897749D02*
X6597619Y44859654D01*
X18971428Y20313225D02*
X18971428Y21113225D01*
X18971428Y21113225D02*
X18780952Y21113225D01*
X18780952Y21113225D02*
X18666666Y21075130D01*
X18666666Y21075130D02*
X18590476Y20998940D01*
X18590476Y20998940D02*
X18552381Y20922749D01*
X18552381Y20922749D02*
X18514285Y20770368D01*
X18514285Y20770368D02*
X18514285Y20656082D01*
X18514285Y20656082D02*
X18552381Y20503701D01*
X18552381Y20503701D02*
X18590476Y20427511D01*
X18590476Y20427511D02*
X18666666Y20351320D01*
X18666666Y20351320D02*
X18780952Y20313225D01*
X18780952Y20313225D02*
X18971428Y20313225D01*
X17752381Y20313225D02*
X18209524Y20313225D01*
X17980952Y20313225D02*
X17980952Y21113225D01*
X17980952Y21113225D02*
X18057143Y20998940D01*
X18057143Y20998940D02*
X18133333Y20922749D01*
X18133333Y20922749D02*
X18209524Y20884654D01*
X16990476Y20313225D02*
X17447619Y20313225D01*
X17219047Y20313225D02*
X17219047Y21113225D01*
X17219047Y21113225D02*
X17295238Y20998940D01*
X17295238Y20998940D02*
X17371428Y20922749D01*
X17371428Y20922749D02*
X17447619Y20884654D01*
X7669285Y48614416D02*
X7707381Y48576320D01*
X7707381Y48576320D02*
X7821666Y48538225D01*
X7821666Y48538225D02*
X7897857Y48538225D01*
X7897857Y48538225D02*
X8012143Y48576320D01*
X8012143Y48576320D02*
X8088333Y48652511D01*
X8088333Y48652511D02*
X8126428Y48728701D01*
X8126428Y48728701D02*
X8164524Y48881082D01*
X8164524Y48881082D02*
X8164524Y48995368D01*
X8164524Y48995368D02*
X8126428Y49147749D01*
X8126428Y49147749D02*
X8088333Y49223940D01*
X8088333Y49223940D02*
X8012143Y49300130D01*
X8012143Y49300130D02*
X7897857Y49338225D01*
X7897857Y49338225D02*
X7821666Y49338225D01*
X7821666Y49338225D02*
X7707381Y49300130D01*
X7707381Y49300130D02*
X7669285Y49262035D01*
X7364524Y49262035D02*
X7326428Y49300130D01*
X7326428Y49300130D02*
X7250238Y49338225D01*
X7250238Y49338225D02*
X7059762Y49338225D01*
X7059762Y49338225D02*
X6983571Y49300130D01*
X6983571Y49300130D02*
X6945476Y49262035D01*
X6945476Y49262035D02*
X6907381Y49185844D01*
X6907381Y49185844D02*
X6907381Y49109654D01*
X6907381Y49109654D02*
X6945476Y48995368D01*
X6945476Y48995368D02*
X7402619Y48538225D01*
X7402619Y48538225D02*
X6907381Y48538225D01*
X6640714Y49338225D02*
X6107380Y49338225D01*
X6107380Y49338225D02*
X6450238Y48538225D01*
X15270475Y68618225D02*
X15270475Y69418225D01*
X15270475Y69418225D02*
X15079999Y69418225D01*
X15079999Y69418225D02*
X14965713Y69380130D01*
X14965713Y69380130D02*
X14889523Y69303940D01*
X14889523Y69303940D02*
X14851428Y69227749D01*
X14851428Y69227749D02*
X14813332Y69075368D01*
X14813332Y69075368D02*
X14813332Y68961082D01*
X14813332Y68961082D02*
X14851428Y68808701D01*
X14851428Y68808701D02*
X14889523Y68732511D01*
X14889523Y68732511D02*
X14965713Y68656320D01*
X14965713Y68656320D02*
X15079999Y68618225D01*
X15079999Y68618225D02*
X15270475Y68618225D01*
X14051428Y68618225D02*
X14508571Y68618225D01*
X14279999Y68618225D02*
X14279999Y69418225D01*
X14279999Y69418225D02*
X14356190Y69303940D01*
X14356190Y69303940D02*
X14432380Y69227749D01*
X14432380Y69227749D02*
X14508571Y69189654D01*
X14385584Y46333333D02*
X14423680Y46371429D01*
X14423680Y46371429D02*
X14461775Y46485714D01*
X14461775Y46485714D02*
X14461775Y46561905D01*
X14461775Y46561905D02*
X14423680Y46676191D01*
X14423680Y46676191D02*
X14347489Y46752381D01*
X14347489Y46752381D02*
X14271299Y46790476D01*
X14271299Y46790476D02*
X14118918Y46828572D01*
X14118918Y46828572D02*
X14004632Y46828572D01*
X14004632Y46828572D02*
X13852251Y46790476D01*
X13852251Y46790476D02*
X13776060Y46752381D01*
X13776060Y46752381D02*
X13699870Y46676191D01*
X13699870Y46676191D02*
X13661775Y46561905D01*
X13661775Y46561905D02*
X13661775Y46485714D01*
X13661775Y46485714D02*
X13699870Y46371429D01*
X13699870Y46371429D02*
X13737965Y46333333D01*
X14461775Y45952381D02*
X14461775Y45800000D01*
X14461775Y45800000D02*
X14423680Y45723810D01*
X14423680Y45723810D02*
X14385584Y45685714D01*
X14385584Y45685714D02*
X14271299Y45609524D01*
X14271299Y45609524D02*
X14118918Y45571429D01*
X14118918Y45571429D02*
X13814156Y45571429D01*
X13814156Y45571429D02*
X13737965Y45609524D01*
X13737965Y45609524D02*
X13699870Y45647619D01*
X13699870Y45647619D02*
X13661775Y45723810D01*
X13661775Y45723810D02*
X13661775Y45876191D01*
X13661775Y45876191D02*
X13699870Y45952381D01*
X13699870Y45952381D02*
X13737965Y45990476D01*
X13737965Y45990476D02*
X13814156Y46028572D01*
X13814156Y46028572D02*
X14004632Y46028572D01*
X14004632Y46028572D02*
X14080822Y45990476D01*
X14080822Y45990476D02*
X14118918Y45952381D01*
X14118918Y45952381D02*
X14157013Y45876191D01*
X14157013Y45876191D02*
X14157013Y45723810D01*
X14157013Y45723810D02*
X14118918Y45647619D01*
X14118918Y45647619D02*
X14080822Y45609524D01*
X14080822Y45609524D02*
X14004632Y45571429D01*
X15294285Y67368225D02*
X15560952Y67749178D01*
X15751428Y67368225D02*
X15751428Y68168225D01*
X15751428Y68168225D02*
X15446666Y68168225D01*
X15446666Y68168225D02*
X15370476Y68130130D01*
X15370476Y68130130D02*
X15332381Y68092035D01*
X15332381Y68092035D02*
X15294285Y68015844D01*
X15294285Y68015844D02*
X15294285Y67901559D01*
X15294285Y67901559D02*
X15332381Y67825368D01*
X15332381Y67825368D02*
X15370476Y67787273D01*
X15370476Y67787273D02*
X15446666Y67749178D01*
X15446666Y67749178D02*
X15751428Y67749178D01*
X14532381Y67368225D02*
X14989524Y67368225D01*
X14760952Y67368225D02*
X14760952Y68168225D01*
X14760952Y68168225D02*
X14837143Y68053940D01*
X14837143Y68053940D02*
X14913333Y67977749D01*
X14913333Y67977749D02*
X14989524Y67939654D01*
X14075238Y67825368D02*
X14151428Y67863463D01*
X14151428Y67863463D02*
X14189523Y67901559D01*
X14189523Y67901559D02*
X14227619Y67977749D01*
X14227619Y67977749D02*
X14227619Y68015844D01*
X14227619Y68015844D02*
X14189523Y68092035D01*
X14189523Y68092035D02*
X14151428Y68130130D01*
X14151428Y68130130D02*
X14075238Y68168225D01*
X14075238Y68168225D02*
X13922857Y68168225D01*
X13922857Y68168225D02*
X13846666Y68130130D01*
X13846666Y68130130D02*
X13808571Y68092035D01*
X13808571Y68092035D02*
X13770476Y68015844D01*
X13770476Y68015844D02*
X13770476Y67977749D01*
X13770476Y67977749D02*
X13808571Y67901559D01*
X13808571Y67901559D02*
X13846666Y67863463D01*
X13846666Y67863463D02*
X13922857Y67825368D01*
X13922857Y67825368D02*
X14075238Y67825368D01*
X14075238Y67825368D02*
X14151428Y67787273D01*
X14151428Y67787273D02*
X14189523Y67749178D01*
X14189523Y67749178D02*
X14227619Y67672987D01*
X14227619Y67672987D02*
X14227619Y67520606D01*
X14227619Y67520606D02*
X14189523Y67444416D01*
X14189523Y67444416D02*
X14151428Y67406320D01*
X14151428Y67406320D02*
X14075238Y67368225D01*
X14075238Y67368225D02*
X13922857Y67368225D01*
X13922857Y67368225D02*
X13846666Y67406320D01*
X13846666Y67406320D02*
X13808571Y67444416D01*
X13808571Y67444416D02*
X13770476Y67520606D01*
X13770476Y67520606D02*
X13770476Y67672987D01*
X13770476Y67672987D02*
X13808571Y67749178D01*
X13808571Y67749178D02*
X13846666Y67787273D01*
X13846666Y67787273D02*
X13922857Y67825368D01*
X7664285Y43314416D02*
X7702381Y43276320D01*
X7702381Y43276320D02*
X7816666Y43238225D01*
X7816666Y43238225D02*
X7892857Y43238225D01*
X7892857Y43238225D02*
X8007143Y43276320D01*
X8007143Y43276320D02*
X8083333Y43352511D01*
X8083333Y43352511D02*
X8121428Y43428701D01*
X8121428Y43428701D02*
X8159524Y43581082D01*
X8159524Y43581082D02*
X8159524Y43695368D01*
X8159524Y43695368D02*
X8121428Y43847749D01*
X8121428Y43847749D02*
X8083333Y43923940D01*
X8083333Y43923940D02*
X8007143Y44000130D01*
X8007143Y44000130D02*
X7892857Y44038225D01*
X7892857Y44038225D02*
X7816666Y44038225D01*
X7816666Y44038225D02*
X7702381Y44000130D01*
X7702381Y44000130D02*
X7664285Y43962035D01*
X7397619Y44038225D02*
X6902381Y44038225D01*
X6902381Y44038225D02*
X7169047Y43733463D01*
X7169047Y43733463D02*
X7054762Y43733463D01*
X7054762Y43733463D02*
X6978571Y43695368D01*
X6978571Y43695368D02*
X6940476Y43657273D01*
X6940476Y43657273D02*
X6902381Y43581082D01*
X6902381Y43581082D02*
X6902381Y43390606D01*
X6902381Y43390606D02*
X6940476Y43314416D01*
X6940476Y43314416D02*
X6978571Y43276320D01*
X6978571Y43276320D02*
X7054762Y43238225D01*
X7054762Y43238225D02*
X7283333Y43238225D01*
X7283333Y43238225D02*
X7359524Y43276320D01*
X7359524Y43276320D02*
X7397619Y43314416D01*
X6597619Y43962035D02*
X6559523Y44000130D01*
X6559523Y44000130D02*
X6483333Y44038225D01*
X6483333Y44038225D02*
X6292857Y44038225D01*
X6292857Y44038225D02*
X6216666Y44000130D01*
X6216666Y44000130D02*
X6178571Y43962035D01*
X6178571Y43962035D02*
X6140476Y43885844D01*
X6140476Y43885844D02*
X6140476Y43809654D01*
X6140476Y43809654D02*
X6178571Y43695368D01*
X6178571Y43695368D02*
X6635714Y43238225D01*
X6635714Y43238225D02*
X6140476Y43238225D01*
X19933332Y49014416D02*
X19971428Y48976320D01*
X19971428Y48976320D02*
X20085713Y48938225D01*
X20085713Y48938225D02*
X20161904Y48938225D01*
X20161904Y48938225D02*
X20276190Y48976320D01*
X20276190Y48976320D02*
X20352380Y49052511D01*
X20352380Y49052511D02*
X20390475Y49128701D01*
X20390475Y49128701D02*
X20428571Y49281082D01*
X20428571Y49281082D02*
X20428571Y49395368D01*
X20428571Y49395368D02*
X20390475Y49547749D01*
X20390475Y49547749D02*
X20352380Y49623940D01*
X20352380Y49623940D02*
X20276190Y49700130D01*
X20276190Y49700130D02*
X20161904Y49738225D01*
X20161904Y49738225D02*
X20085713Y49738225D01*
X20085713Y49738225D02*
X19971428Y49700130D01*
X19971428Y49700130D02*
X19933332Y49662035D01*
X19171428Y48938225D02*
X19628571Y48938225D01*
X19399999Y48938225D02*
X19399999Y49738225D01*
X19399999Y49738225D02*
X19476190Y49623940D01*
X19476190Y49623940D02*
X19552380Y49547749D01*
X19552380Y49547749D02*
X19628571Y49509654D01*
X14261775Y62390476D02*
X13461775Y62390476D01*
X13461775Y62390476D02*
X13461775Y62200000D01*
X13461775Y62200000D02*
X13499870Y62085714D01*
X13499870Y62085714D02*
X13576060Y62009524D01*
X13576060Y62009524D02*
X13652251Y61971429D01*
X13652251Y61971429D02*
X13804632Y61933333D01*
X13804632Y61933333D02*
X13918918Y61933333D01*
X13918918Y61933333D02*
X14071299Y61971429D01*
X14071299Y61971429D02*
X14147489Y62009524D01*
X14147489Y62009524D02*
X14223680Y62085714D01*
X14223680Y62085714D02*
X14261775Y62200000D01*
X14261775Y62200000D02*
X14261775Y62390476D01*
X13804632Y61476191D02*
X13766537Y61552381D01*
X13766537Y61552381D02*
X13728441Y61590476D01*
X13728441Y61590476D02*
X13652251Y61628572D01*
X13652251Y61628572D02*
X13614156Y61628572D01*
X13614156Y61628572D02*
X13537965Y61590476D01*
X13537965Y61590476D02*
X13499870Y61552381D01*
X13499870Y61552381D02*
X13461775Y61476191D01*
X13461775Y61476191D02*
X13461775Y61323810D01*
X13461775Y61323810D02*
X13499870Y61247619D01*
X13499870Y61247619D02*
X13537965Y61209524D01*
X13537965Y61209524D02*
X13614156Y61171429D01*
X13614156Y61171429D02*
X13652251Y61171429D01*
X13652251Y61171429D02*
X13728441Y61209524D01*
X13728441Y61209524D02*
X13766537Y61247619D01*
X13766537Y61247619D02*
X13804632Y61323810D01*
X13804632Y61323810D02*
X13804632Y61476191D01*
X13804632Y61476191D02*
X13842727Y61552381D01*
X13842727Y61552381D02*
X13880822Y61590476D01*
X13880822Y61590476D02*
X13957013Y61628572D01*
X13957013Y61628572D02*
X14109394Y61628572D01*
X14109394Y61628572D02*
X14185584Y61590476D01*
X14185584Y61590476D02*
X14223680Y61552381D01*
X14223680Y61552381D02*
X14261775Y61476191D01*
X14261775Y61476191D02*
X14261775Y61323810D01*
X14261775Y61323810D02*
X14223680Y61247619D01*
X14223680Y61247619D02*
X14185584Y61209524D01*
X14185584Y61209524D02*
X14109394Y61171429D01*
X14109394Y61171429D02*
X13957013Y61171429D01*
X13957013Y61171429D02*
X13880822Y61209524D01*
X13880822Y61209524D02*
X13842727Y61247619D01*
X13842727Y61247619D02*
X13804632Y61323810D01*
X15561775Y75714286D02*
X15180822Y75980953D01*
X15561775Y76171429D02*
X14761775Y76171429D01*
X14761775Y76171429D02*
X14761775Y75866667D01*
X14761775Y75866667D02*
X14799870Y75790477D01*
X14799870Y75790477D02*
X14837965Y75752382D01*
X14837965Y75752382D02*
X14914156Y75714286D01*
X14914156Y75714286D02*
X15028441Y75714286D01*
X15028441Y75714286D02*
X15104632Y75752382D01*
X15104632Y75752382D02*
X15142727Y75790477D01*
X15142727Y75790477D02*
X15180822Y75866667D01*
X15180822Y75866667D02*
X15180822Y76171429D01*
X14761775Y74990477D02*
X14761775Y75371429D01*
X14761775Y75371429D02*
X15142727Y75409525D01*
X15142727Y75409525D02*
X15104632Y75371429D01*
X15104632Y75371429D02*
X15066537Y75295239D01*
X15066537Y75295239D02*
X15066537Y75104763D01*
X15066537Y75104763D02*
X15104632Y75028572D01*
X15104632Y75028572D02*
X15142727Y74990477D01*
X15142727Y74990477D02*
X15218918Y74952382D01*
X15218918Y74952382D02*
X15409394Y74952382D01*
X15409394Y74952382D02*
X15485584Y74990477D01*
X15485584Y74990477D02*
X15523680Y75028572D01*
X15523680Y75028572D02*
X15561775Y75104763D01*
X15561775Y75104763D02*
X15561775Y75295239D01*
X15561775Y75295239D02*
X15523680Y75371429D01*
X15523680Y75371429D02*
X15485584Y75409525D01*
X14761775Y74685715D02*
X14761775Y74152381D01*
X14761775Y74152381D02*
X15561775Y74495239D01*
X12810584Y16089286D02*
X12848680Y16127382D01*
X12848680Y16127382D02*
X12886775Y16241667D01*
X12886775Y16241667D02*
X12886775Y16317858D01*
X12886775Y16317858D02*
X12848680Y16432144D01*
X12848680Y16432144D02*
X12772489Y16508334D01*
X12772489Y16508334D02*
X12696299Y16546429D01*
X12696299Y16546429D02*
X12543918Y16584525D01*
X12543918Y16584525D02*
X12429632Y16584525D01*
X12429632Y16584525D02*
X12277251Y16546429D01*
X12277251Y16546429D02*
X12201060Y16508334D01*
X12201060Y16508334D02*
X12124870Y16432144D01*
X12124870Y16432144D02*
X12086775Y16317858D01*
X12086775Y16317858D02*
X12086775Y16241667D01*
X12086775Y16241667D02*
X12124870Y16127382D01*
X12124870Y16127382D02*
X12162965Y16089286D01*
X12086775Y15822620D02*
X12086775Y15327382D01*
X12086775Y15327382D02*
X12391537Y15594048D01*
X12391537Y15594048D02*
X12391537Y15479763D01*
X12391537Y15479763D02*
X12429632Y15403572D01*
X12429632Y15403572D02*
X12467727Y15365477D01*
X12467727Y15365477D02*
X12543918Y15327382D01*
X12543918Y15327382D02*
X12734394Y15327382D01*
X12734394Y15327382D02*
X12810584Y15365477D01*
X12810584Y15365477D02*
X12848680Y15403572D01*
X12848680Y15403572D02*
X12886775Y15479763D01*
X12886775Y15479763D02*
X12886775Y15708334D01*
X12886775Y15708334D02*
X12848680Y15784525D01*
X12848680Y15784525D02*
X12810584Y15822620D01*
X12086775Y15060715D02*
X12086775Y14565477D01*
X12086775Y14565477D02*
X12391537Y14832143D01*
X12391537Y14832143D02*
X12391537Y14717858D01*
X12391537Y14717858D02*
X12429632Y14641667D01*
X12429632Y14641667D02*
X12467727Y14603572D01*
X12467727Y14603572D02*
X12543918Y14565477D01*
X12543918Y14565477D02*
X12734394Y14565477D01*
X12734394Y14565477D02*
X12810584Y14603572D01*
X12810584Y14603572D02*
X12848680Y14641667D01*
X12848680Y14641667D02*
X12886775Y14717858D01*
X12886775Y14717858D02*
X12886775Y14946429D01*
X12886775Y14946429D02*
X12848680Y15022620D01*
X12848680Y15022620D02*
X12810584Y15060715D01*
X21014285Y50964416D02*
X21052381Y50926320D01*
X21052381Y50926320D02*
X21166666Y50888225D01*
X21166666Y50888225D02*
X21242857Y50888225D01*
X21242857Y50888225D02*
X21357143Y50926320D01*
X21357143Y50926320D02*
X21433333Y51002511D01*
X21433333Y51002511D02*
X21471428Y51078701D01*
X21471428Y51078701D02*
X21509524Y51231082D01*
X21509524Y51231082D02*
X21509524Y51345368D01*
X21509524Y51345368D02*
X21471428Y51497749D01*
X21471428Y51497749D02*
X21433333Y51573940D01*
X21433333Y51573940D02*
X21357143Y51650130D01*
X21357143Y51650130D02*
X21242857Y51688225D01*
X21242857Y51688225D02*
X21166666Y51688225D01*
X21166666Y51688225D02*
X21052381Y51650130D01*
X21052381Y51650130D02*
X21014285Y51612035D01*
X20252381Y50888225D02*
X20709524Y50888225D01*
X20480952Y50888225D02*
X20480952Y51688225D01*
X20480952Y51688225D02*
X20557143Y51573940D01*
X20557143Y51573940D02*
X20633333Y51497749D01*
X20633333Y51497749D02*
X20709524Y51459654D01*
X19985714Y51688225D02*
X19490476Y51688225D01*
X19490476Y51688225D02*
X19757142Y51383463D01*
X19757142Y51383463D02*
X19642857Y51383463D01*
X19642857Y51383463D02*
X19566666Y51345368D01*
X19566666Y51345368D02*
X19528571Y51307273D01*
X19528571Y51307273D02*
X19490476Y51231082D01*
X19490476Y51231082D02*
X19490476Y51040606D01*
X19490476Y51040606D02*
X19528571Y50964416D01*
X19528571Y50964416D02*
X19566666Y50926320D01*
X19566666Y50926320D02*
X19642857Y50888225D01*
X19642857Y50888225D02*
X19871428Y50888225D01*
X19871428Y50888225D02*
X19947619Y50926320D01*
X19947619Y50926320D02*
X19985714Y50964416D01*
X20283332Y52964416D02*
X20321428Y52926320D01*
X20321428Y52926320D02*
X20435713Y52888225D01*
X20435713Y52888225D02*
X20511904Y52888225D01*
X20511904Y52888225D02*
X20626190Y52926320D01*
X20626190Y52926320D02*
X20702380Y53002511D01*
X20702380Y53002511D02*
X20740475Y53078701D01*
X20740475Y53078701D02*
X20778571Y53231082D01*
X20778571Y53231082D02*
X20778571Y53345368D01*
X20778571Y53345368D02*
X20740475Y53497749D01*
X20740475Y53497749D02*
X20702380Y53573940D01*
X20702380Y53573940D02*
X20626190Y53650130D01*
X20626190Y53650130D02*
X20511904Y53688225D01*
X20511904Y53688225D02*
X20435713Y53688225D01*
X20435713Y53688225D02*
X20321428Y53650130D01*
X20321428Y53650130D02*
X20283332Y53612035D01*
X19978571Y53612035D02*
X19940475Y53650130D01*
X19940475Y53650130D02*
X19864285Y53688225D01*
X19864285Y53688225D02*
X19673809Y53688225D01*
X19673809Y53688225D02*
X19597618Y53650130D01*
X19597618Y53650130D02*
X19559523Y53612035D01*
X19559523Y53612035D02*
X19521428Y53535844D01*
X19521428Y53535844D02*
X19521428Y53459654D01*
X19521428Y53459654D02*
X19559523Y53345368D01*
X19559523Y53345368D02*
X20016666Y52888225D01*
X20016666Y52888225D02*
X19521428Y52888225D01*
X7669285Y45414416D02*
X7707381Y45376320D01*
X7707381Y45376320D02*
X7821666Y45338225D01*
X7821666Y45338225D02*
X7897857Y45338225D01*
X7897857Y45338225D02*
X8012143Y45376320D01*
X8012143Y45376320D02*
X8088333Y45452511D01*
X8088333Y45452511D02*
X8126428Y45528701D01*
X8126428Y45528701D02*
X8164524Y45681082D01*
X8164524Y45681082D02*
X8164524Y45795368D01*
X8164524Y45795368D02*
X8126428Y45947749D01*
X8126428Y45947749D02*
X8088333Y46023940D01*
X8088333Y46023940D02*
X8012143Y46100130D01*
X8012143Y46100130D02*
X7897857Y46138225D01*
X7897857Y46138225D02*
X7821666Y46138225D01*
X7821666Y46138225D02*
X7707381Y46100130D01*
X7707381Y46100130D02*
X7669285Y46062035D01*
X7402619Y46138225D02*
X6907381Y46138225D01*
X6907381Y46138225D02*
X7174047Y45833463D01*
X7174047Y45833463D02*
X7059762Y45833463D01*
X7059762Y45833463D02*
X6983571Y45795368D01*
X6983571Y45795368D02*
X6945476Y45757273D01*
X6945476Y45757273D02*
X6907381Y45681082D01*
X6907381Y45681082D02*
X6907381Y45490606D01*
X6907381Y45490606D02*
X6945476Y45414416D01*
X6945476Y45414416D02*
X6983571Y45376320D01*
X6983571Y45376320D02*
X7059762Y45338225D01*
X7059762Y45338225D02*
X7288333Y45338225D01*
X7288333Y45338225D02*
X7364524Y45376320D01*
X7364524Y45376320D02*
X7402619Y45414416D01*
X6412142Y46138225D02*
X6335952Y46138225D01*
X6335952Y46138225D02*
X6259761Y46100130D01*
X6259761Y46100130D02*
X6221666Y46062035D01*
X6221666Y46062035D02*
X6183571Y45985844D01*
X6183571Y45985844D02*
X6145476Y45833463D01*
X6145476Y45833463D02*
X6145476Y45642987D01*
X6145476Y45642987D02*
X6183571Y45490606D01*
X6183571Y45490606D02*
X6221666Y45414416D01*
X6221666Y45414416D02*
X6259761Y45376320D01*
X6259761Y45376320D02*
X6335952Y45338225D01*
X6335952Y45338225D02*
X6412142Y45338225D01*
X6412142Y45338225D02*
X6488333Y45376320D01*
X6488333Y45376320D02*
X6526428Y45414416D01*
X6526428Y45414416D02*
X6564523Y45490606D01*
X6564523Y45490606D02*
X6602619Y45642987D01*
X6602619Y45642987D02*
X6602619Y45833463D01*
X6602619Y45833463D02*
X6564523Y45985844D01*
X6564523Y45985844D02*
X6526428Y46062035D01*
X6526428Y46062035D02*
X6488333Y46100130D01*
X6488333Y46100130D02*
X6412142Y46138225D01*
X12190475Y20288225D02*
X12190475Y21088225D01*
X12190475Y21088225D02*
X11999999Y21088225D01*
X11999999Y21088225D02*
X11885713Y21050130D01*
X11885713Y21050130D02*
X11809523Y20973940D01*
X11809523Y20973940D02*
X11771428Y20897749D01*
X11771428Y20897749D02*
X11733332Y20745368D01*
X11733332Y20745368D02*
X11733332Y20631082D01*
X11733332Y20631082D02*
X11771428Y20478701D01*
X11771428Y20478701D02*
X11809523Y20402511D01*
X11809523Y20402511D02*
X11885713Y20326320D01*
X11885713Y20326320D02*
X11999999Y20288225D01*
X11999999Y20288225D02*
X12190475Y20288225D01*
X11352380Y20288225D02*
X11199999Y20288225D01*
X11199999Y20288225D02*
X11123809Y20326320D01*
X11123809Y20326320D02*
X11085713Y20364416D01*
X11085713Y20364416D02*
X11009523Y20478701D01*
X11009523Y20478701D02*
X10971428Y20631082D01*
X10971428Y20631082D02*
X10971428Y20935844D01*
X10971428Y20935844D02*
X11009523Y21012035D01*
X11009523Y21012035D02*
X11047618Y21050130D01*
X11047618Y21050130D02*
X11123809Y21088225D01*
X11123809Y21088225D02*
X11276190Y21088225D01*
X11276190Y21088225D02*
X11352380Y21050130D01*
X11352380Y21050130D02*
X11390475Y21012035D01*
X11390475Y21012035D02*
X11428571Y20935844D01*
X11428571Y20935844D02*
X11428571Y20745368D01*
X11428571Y20745368D02*
X11390475Y20669178D01*
X11390475Y20669178D02*
X11352380Y20631082D01*
X11352380Y20631082D02*
X11276190Y20592987D01*
X11276190Y20592987D02*
X11123809Y20592987D01*
X11123809Y20592987D02*
X11047618Y20631082D01*
X11047618Y20631082D02*
X11009523Y20669178D01*
X11009523Y20669178D02*
X10971428Y20745368D01*
X15144285Y70868225D02*
X15410952Y71249178D01*
X15601428Y70868225D02*
X15601428Y71668225D01*
X15601428Y71668225D02*
X15296666Y71668225D01*
X15296666Y71668225D02*
X15220476Y71630130D01*
X15220476Y71630130D02*
X15182381Y71592035D01*
X15182381Y71592035D02*
X15144285Y71515844D01*
X15144285Y71515844D02*
X15144285Y71401559D01*
X15144285Y71401559D02*
X15182381Y71325368D01*
X15182381Y71325368D02*
X15220476Y71287273D01*
X15220476Y71287273D02*
X15296666Y71249178D01*
X15296666Y71249178D02*
X15601428Y71249178D01*
X14382381Y70868225D02*
X14839524Y70868225D01*
X14610952Y70868225D02*
X14610952Y71668225D01*
X14610952Y71668225D02*
X14687143Y71553940D01*
X14687143Y71553940D02*
X14763333Y71477749D01*
X14763333Y71477749D02*
X14839524Y71439654D01*
X14115714Y71668225D02*
X13582380Y71668225D01*
X13582380Y71668225D02*
X13925238Y70868225D01*
X7689285Y49664416D02*
X7727381Y49626320D01*
X7727381Y49626320D02*
X7841666Y49588225D01*
X7841666Y49588225D02*
X7917857Y49588225D01*
X7917857Y49588225D02*
X8032143Y49626320D01*
X8032143Y49626320D02*
X8108333Y49702511D01*
X8108333Y49702511D02*
X8146428Y49778701D01*
X8146428Y49778701D02*
X8184524Y49931082D01*
X8184524Y49931082D02*
X8184524Y50045368D01*
X8184524Y50045368D02*
X8146428Y50197749D01*
X8146428Y50197749D02*
X8108333Y50273940D01*
X8108333Y50273940D02*
X8032143Y50350130D01*
X8032143Y50350130D02*
X7917857Y50388225D01*
X7917857Y50388225D02*
X7841666Y50388225D01*
X7841666Y50388225D02*
X7727381Y50350130D01*
X7727381Y50350130D02*
X7689285Y50312035D01*
X7384524Y50312035D02*
X7346428Y50350130D01*
X7346428Y50350130D02*
X7270238Y50388225D01*
X7270238Y50388225D02*
X7079762Y50388225D01*
X7079762Y50388225D02*
X7003571Y50350130D01*
X7003571Y50350130D02*
X6965476Y50312035D01*
X6965476Y50312035D02*
X6927381Y50235844D01*
X6927381Y50235844D02*
X6927381Y50159654D01*
X6927381Y50159654D02*
X6965476Y50045368D01*
X6965476Y50045368D02*
X7422619Y49588225D01*
X7422619Y49588225D02*
X6927381Y49588225D01*
X6241666Y50388225D02*
X6394047Y50388225D01*
X6394047Y50388225D02*
X6470238Y50350130D01*
X6470238Y50350130D02*
X6508333Y50312035D01*
X6508333Y50312035D02*
X6584523Y50197749D01*
X6584523Y50197749D02*
X6622619Y50045368D01*
X6622619Y50045368D02*
X6622619Y49740606D01*
X6622619Y49740606D02*
X6584523Y49664416D01*
X6584523Y49664416D02*
X6546428Y49626320D01*
X6546428Y49626320D02*
X6470238Y49588225D01*
X6470238Y49588225D02*
X6317857Y49588225D01*
X6317857Y49588225D02*
X6241666Y49626320D01*
X6241666Y49626320D02*
X6203571Y49664416D01*
X6203571Y49664416D02*
X6165476Y49740606D01*
X6165476Y49740606D02*
X6165476Y49931082D01*
X6165476Y49931082D02*
X6203571Y50007273D01*
X6203571Y50007273D02*
X6241666Y50045368D01*
X6241666Y50045368D02*
X6317857Y50083463D01*
X6317857Y50083463D02*
X6470238Y50083463D01*
X6470238Y50083463D02*
X6546428Y50045368D01*
X6546428Y50045368D02*
X6584523Y50007273D01*
X6584523Y50007273D02*
X6622619Y49931082D01*
X13135584Y46264286D02*
X13173680Y46302382D01*
X13173680Y46302382D02*
X13211775Y46416667D01*
X13211775Y46416667D02*
X13211775Y46492858D01*
X13211775Y46492858D02*
X13173680Y46607144D01*
X13173680Y46607144D02*
X13097489Y46683334D01*
X13097489Y46683334D02*
X13021299Y46721429D01*
X13021299Y46721429D02*
X12868918Y46759525D01*
X12868918Y46759525D02*
X12754632Y46759525D01*
X12754632Y46759525D02*
X12602251Y46721429D01*
X12602251Y46721429D02*
X12526060Y46683334D01*
X12526060Y46683334D02*
X12449870Y46607144D01*
X12449870Y46607144D02*
X12411775Y46492858D01*
X12411775Y46492858D02*
X12411775Y46416667D01*
X12411775Y46416667D02*
X12449870Y46302382D01*
X12449870Y46302382D02*
X12487965Y46264286D01*
X13211775Y45502382D02*
X13211775Y45959525D01*
X13211775Y45730953D02*
X12411775Y45730953D01*
X12411775Y45730953D02*
X12526060Y45807144D01*
X12526060Y45807144D02*
X12602251Y45883334D01*
X12602251Y45883334D02*
X12640346Y45959525D01*
X12411775Y44816667D02*
X12411775Y44969048D01*
X12411775Y44969048D02*
X12449870Y45045239D01*
X12449870Y45045239D02*
X12487965Y45083334D01*
X12487965Y45083334D02*
X12602251Y45159524D01*
X12602251Y45159524D02*
X12754632Y45197620D01*
X12754632Y45197620D02*
X13059394Y45197620D01*
X13059394Y45197620D02*
X13135584Y45159524D01*
X13135584Y45159524D02*
X13173680Y45121429D01*
X13173680Y45121429D02*
X13211775Y45045239D01*
X13211775Y45045239D02*
X13211775Y44892858D01*
X13211775Y44892858D02*
X13173680Y44816667D01*
X13173680Y44816667D02*
X13135584Y44778572D01*
X13135584Y44778572D02*
X13059394Y44740477D01*
X13059394Y44740477D02*
X12868918Y44740477D01*
X12868918Y44740477D02*
X12792727Y44778572D01*
X12792727Y44778572D02*
X12754632Y44816667D01*
X12754632Y44816667D02*
X12716537Y44892858D01*
X12716537Y44892858D02*
X12716537Y45045239D01*
X12716537Y45045239D02*
X12754632Y45121429D01*
X12754632Y45121429D02*
X12792727Y45159524D01*
X12792727Y45159524D02*
X12868918Y45197620D01*
X7664285Y50714416D02*
X7702381Y50676320D01*
X7702381Y50676320D02*
X7816666Y50638225D01*
X7816666Y50638225D02*
X7892857Y50638225D01*
X7892857Y50638225D02*
X8007143Y50676320D01*
X8007143Y50676320D02*
X8083333Y50752511D01*
X8083333Y50752511D02*
X8121428Y50828701D01*
X8121428Y50828701D02*
X8159524Y50981082D01*
X8159524Y50981082D02*
X8159524Y51095368D01*
X8159524Y51095368D02*
X8121428Y51247749D01*
X8121428Y51247749D02*
X8083333Y51323940D01*
X8083333Y51323940D02*
X8007143Y51400130D01*
X8007143Y51400130D02*
X7892857Y51438225D01*
X7892857Y51438225D02*
X7816666Y51438225D01*
X7816666Y51438225D02*
X7702381Y51400130D01*
X7702381Y51400130D02*
X7664285Y51362035D01*
X7359524Y51362035D02*
X7321428Y51400130D01*
X7321428Y51400130D02*
X7245238Y51438225D01*
X7245238Y51438225D02*
X7054762Y51438225D01*
X7054762Y51438225D02*
X6978571Y51400130D01*
X6978571Y51400130D02*
X6940476Y51362035D01*
X6940476Y51362035D02*
X6902381Y51285844D01*
X6902381Y51285844D02*
X6902381Y51209654D01*
X6902381Y51209654D02*
X6940476Y51095368D01*
X6940476Y51095368D02*
X7397619Y50638225D01*
X7397619Y50638225D02*
X6902381Y50638225D01*
X6178571Y51438225D02*
X6559523Y51438225D01*
X6559523Y51438225D02*
X6597619Y51057273D01*
X6597619Y51057273D02*
X6559523Y51095368D01*
X6559523Y51095368D02*
X6483333Y51133463D01*
X6483333Y51133463D02*
X6292857Y51133463D01*
X6292857Y51133463D02*
X6216666Y51095368D01*
X6216666Y51095368D02*
X6178571Y51057273D01*
X6178571Y51057273D02*
X6140476Y50981082D01*
X6140476Y50981082D02*
X6140476Y50790606D01*
X6140476Y50790606D02*
X6178571Y50714416D01*
X6178571Y50714416D02*
X6216666Y50676320D01*
X6216666Y50676320D02*
X6292857Y50638225D01*
X6292857Y50638225D02*
X6483333Y50638225D01*
X6483333Y50638225D02*
X6559523Y50676320D01*
X6559523Y50676320D02*
X6597619Y50714416D01*
X17235584Y46164286D02*
X17273680Y46202382D01*
X17273680Y46202382D02*
X17311775Y46316667D01*
X17311775Y46316667D02*
X17311775Y46392858D01*
X17311775Y46392858D02*
X17273680Y46507144D01*
X17273680Y46507144D02*
X17197489Y46583334D01*
X17197489Y46583334D02*
X17121299Y46621429D01*
X17121299Y46621429D02*
X16968918Y46659525D01*
X16968918Y46659525D02*
X16854632Y46659525D01*
X16854632Y46659525D02*
X16702251Y46621429D01*
X16702251Y46621429D02*
X16626060Y46583334D01*
X16626060Y46583334D02*
X16549870Y46507144D01*
X16549870Y46507144D02*
X16511775Y46392858D01*
X16511775Y46392858D02*
X16511775Y46316667D01*
X16511775Y46316667D02*
X16549870Y46202382D01*
X16549870Y46202382D02*
X16587965Y46164286D01*
X17311775Y45402382D02*
X17311775Y45859525D01*
X17311775Y45630953D02*
X16511775Y45630953D01*
X16511775Y45630953D02*
X16626060Y45707144D01*
X16626060Y45707144D02*
X16702251Y45783334D01*
X16702251Y45783334D02*
X16740346Y45859525D01*
X16511775Y44907143D02*
X16511775Y44830953D01*
X16511775Y44830953D02*
X16549870Y44754762D01*
X16549870Y44754762D02*
X16587965Y44716667D01*
X16587965Y44716667D02*
X16664156Y44678572D01*
X16664156Y44678572D02*
X16816537Y44640477D01*
X16816537Y44640477D02*
X17007013Y44640477D01*
X17007013Y44640477D02*
X17159394Y44678572D01*
X17159394Y44678572D02*
X17235584Y44716667D01*
X17235584Y44716667D02*
X17273680Y44754762D01*
X17273680Y44754762D02*
X17311775Y44830953D01*
X17311775Y44830953D02*
X17311775Y44907143D01*
X17311775Y44907143D02*
X17273680Y44983334D01*
X17273680Y44983334D02*
X17235584Y45021429D01*
X17235584Y45021429D02*
X17159394Y45059524D01*
X17159394Y45059524D02*
X17007013Y45097620D01*
X17007013Y45097620D02*
X16816537Y45097620D01*
X16816537Y45097620D02*
X16664156Y45059524D01*
X16664156Y45059524D02*
X16587965Y45021429D01*
X16587965Y45021429D02*
X16549870Y44983334D01*
X16549870Y44983334D02*
X16511775Y44907143D01*
X7664285Y47564416D02*
X7702381Y47526320D01*
X7702381Y47526320D02*
X7816666Y47488225D01*
X7816666Y47488225D02*
X7892857Y47488225D01*
X7892857Y47488225D02*
X8007143Y47526320D01*
X8007143Y47526320D02*
X8083333Y47602511D01*
X8083333Y47602511D02*
X8121428Y47678701D01*
X8121428Y47678701D02*
X8159524Y47831082D01*
X8159524Y47831082D02*
X8159524Y47945368D01*
X8159524Y47945368D02*
X8121428Y48097749D01*
X8121428Y48097749D02*
X8083333Y48173940D01*
X8083333Y48173940D02*
X8007143Y48250130D01*
X8007143Y48250130D02*
X7892857Y48288225D01*
X7892857Y48288225D02*
X7816666Y48288225D01*
X7816666Y48288225D02*
X7702381Y48250130D01*
X7702381Y48250130D02*
X7664285Y48212035D01*
X7359524Y48212035D02*
X7321428Y48250130D01*
X7321428Y48250130D02*
X7245238Y48288225D01*
X7245238Y48288225D02*
X7054762Y48288225D01*
X7054762Y48288225D02*
X6978571Y48250130D01*
X6978571Y48250130D02*
X6940476Y48212035D01*
X6940476Y48212035D02*
X6902381Y48135844D01*
X6902381Y48135844D02*
X6902381Y48059654D01*
X6902381Y48059654D02*
X6940476Y47945368D01*
X6940476Y47945368D02*
X7397619Y47488225D01*
X7397619Y47488225D02*
X6902381Y47488225D01*
X6445238Y47945368D02*
X6521428Y47983463D01*
X6521428Y47983463D02*
X6559523Y48021559D01*
X6559523Y48021559D02*
X6597619Y48097749D01*
X6597619Y48097749D02*
X6597619Y48135844D01*
X6597619Y48135844D02*
X6559523Y48212035D01*
X6559523Y48212035D02*
X6521428Y48250130D01*
X6521428Y48250130D02*
X6445238Y48288225D01*
X6445238Y48288225D02*
X6292857Y48288225D01*
X6292857Y48288225D02*
X6216666Y48250130D01*
X6216666Y48250130D02*
X6178571Y48212035D01*
X6178571Y48212035D02*
X6140476Y48135844D01*
X6140476Y48135844D02*
X6140476Y48097749D01*
X6140476Y48097749D02*
X6178571Y48021559D01*
X6178571Y48021559D02*
X6216666Y47983463D01*
X6216666Y47983463D02*
X6292857Y47945368D01*
X6292857Y47945368D02*
X6445238Y47945368D01*
X6445238Y47945368D02*
X6521428Y47907273D01*
X6521428Y47907273D02*
X6559523Y47869178D01*
X6559523Y47869178D02*
X6597619Y47792987D01*
X6597619Y47792987D02*
X6597619Y47640606D01*
X6597619Y47640606D02*
X6559523Y47564416D01*
X6559523Y47564416D02*
X6521428Y47526320D01*
X6521428Y47526320D02*
X6445238Y47488225D01*
X6445238Y47488225D02*
X6292857Y47488225D01*
X6292857Y47488225D02*
X6216666Y47526320D01*
X6216666Y47526320D02*
X6178571Y47564416D01*
X6178571Y47564416D02*
X6140476Y47640606D01*
X6140476Y47640606D02*
X6140476Y47792987D01*
X6140476Y47792987D02*
X6178571Y47869178D01*
X6178571Y47869178D02*
X6216666Y47907273D01*
X6216666Y47907273D02*
X6292857Y47945368D01*
X7664285Y46489416D02*
X7702381Y46451320D01*
X7702381Y46451320D02*
X7816666Y46413225D01*
X7816666Y46413225D02*
X7892857Y46413225D01*
X7892857Y46413225D02*
X8007143Y46451320D01*
X8007143Y46451320D02*
X8083333Y46527511D01*
X8083333Y46527511D02*
X8121428Y46603701D01*
X8121428Y46603701D02*
X8159524Y46756082D01*
X8159524Y46756082D02*
X8159524Y46870368D01*
X8159524Y46870368D02*
X8121428Y47022749D01*
X8121428Y47022749D02*
X8083333Y47098940D01*
X8083333Y47098940D02*
X8007143Y47175130D01*
X8007143Y47175130D02*
X7892857Y47213225D01*
X7892857Y47213225D02*
X7816666Y47213225D01*
X7816666Y47213225D02*
X7702381Y47175130D01*
X7702381Y47175130D02*
X7664285Y47137035D01*
X7359524Y47137035D02*
X7321428Y47175130D01*
X7321428Y47175130D02*
X7245238Y47213225D01*
X7245238Y47213225D02*
X7054762Y47213225D01*
X7054762Y47213225D02*
X6978571Y47175130D01*
X6978571Y47175130D02*
X6940476Y47137035D01*
X6940476Y47137035D02*
X6902381Y47060844D01*
X6902381Y47060844D02*
X6902381Y46984654D01*
X6902381Y46984654D02*
X6940476Y46870368D01*
X6940476Y46870368D02*
X7397619Y46413225D01*
X7397619Y46413225D02*
X6902381Y46413225D01*
X6521428Y46413225D02*
X6369047Y46413225D01*
X6369047Y46413225D02*
X6292857Y46451320D01*
X6292857Y46451320D02*
X6254761Y46489416D01*
X6254761Y46489416D02*
X6178571Y46603701D01*
X6178571Y46603701D02*
X6140476Y46756082D01*
X6140476Y46756082D02*
X6140476Y47060844D01*
X6140476Y47060844D02*
X6178571Y47137035D01*
X6178571Y47137035D02*
X6216666Y47175130D01*
X6216666Y47175130D02*
X6292857Y47213225D01*
X6292857Y47213225D02*
X6445238Y47213225D01*
X6445238Y47213225D02*
X6521428Y47175130D01*
X6521428Y47175130D02*
X6559523Y47137035D01*
X6559523Y47137035D02*
X6597619Y47060844D01*
X6597619Y47060844D02*
X6597619Y46870368D01*
X6597619Y46870368D02*
X6559523Y46794178D01*
X6559523Y46794178D02*
X6521428Y46756082D01*
X6521428Y46756082D02*
X6445238Y46717987D01*
X6445238Y46717987D02*
X6292857Y46717987D01*
X6292857Y46717987D02*
X6216666Y46756082D01*
X6216666Y46756082D02*
X6178571Y46794178D01*
X6178571Y46794178D02*
X6140476Y46870368D01*
%TO.C,R40*%
D14*
X8970000Y16646359D02*
X8970000Y16953641D01*
X9730000Y16646359D02*
X9730000Y16953641D01*
%TO.C,C14*%
X13719212Y55098624D02*
X13719212Y54882952D01*
X14439212Y55098624D02*
X14439212Y54882952D01*
%TO.C,R39*%
X13270000Y16953641D02*
X13270000Y16646359D01*
X14030000Y16953641D02*
X14030000Y16646359D01*
%TO.C,C4*%
X14944212Y55098624D02*
X14944212Y54882952D01*
X15664212Y55098624D02*
X15664212Y54882952D01*
%TO.C,C3*%
X16944212Y55073624D02*
X16944212Y54857952D01*
X17664212Y55073624D02*
X17664212Y54857952D01*
%TO.C,C8*%
X10319212Y48012952D02*
X10319212Y48228624D01*
X11039212Y48012952D02*
X11039212Y48228624D01*
%TO.C,C7*%
X11066376Y52305788D02*
X11282048Y52305788D01*
X11066376Y51585788D02*
X11282048Y51585788D01*
%TO.C,TP12*%
X10200000Y36200000D02*
G75*
G02*
X9200000Y36200000I-500000J0D01*
G01*
X9200000Y36200000D02*
G75*
G02*
X10200000Y36200000I500000J0D01*
G01*
%TO.C,TP13*%
X7763793Y34444304D02*
G75*
G02*
X6763793Y34444304I-500000J0D01*
G01*
X6763793Y34444304D02*
G75*
G02*
X7763793Y34444304I500000J0D01*
G01*
%TO.C,C5*%
X11071376Y55605788D02*
X11287048Y55605788D01*
X11071376Y54885788D02*
X11287048Y54885788D01*
%TO.C,C15*%
X11066376Y51355788D02*
X11282048Y51355788D01*
X11066376Y50635788D02*
X11282048Y50635788D01*
%TO.C,C31*%
X5032048Y45180788D02*
X4816376Y45180788D01*
X5032048Y44460788D02*
X4816376Y44460788D01*
%TO.C,D11*%
X15925000Y19885000D02*
X15925000Y14375000D01*
X15925000Y19885000D02*
X19225000Y19885000D01*
X19225000Y19885000D02*
X19225000Y14375000D01*
%TO.C,TP14*%
X6000000Y35600000D02*
G75*
G02*
X5000000Y35600000I-500000J0D01*
G01*
X5000000Y35600000D02*
G75*
G02*
X6000000Y35600000I500000J0D01*
G01*
%TO.C,C27*%
X5037048Y49130788D02*
X4821376Y49130788D01*
X5037048Y48410788D02*
X4821376Y48410788D01*
%TO.C,D1*%
X12040000Y70460000D02*
X12040000Y70150000D01*
X12040000Y70460000D02*
X13200000Y70460000D01*
X12040000Y68540000D02*
X12040000Y68850000D01*
X12040000Y68540000D02*
X13200000Y68540000D01*
D11*
X13925000Y70000000D02*
G75*
G02*
X13775000Y70000000I-75000J0D01*
G01*
X13775000Y70000000D02*
G75*
G02*
X13925000Y70000000I75000J0D01*
G01*
%TO.C,C9*%
D14*
X13719212Y47837952D02*
X13719212Y48053624D01*
X14439212Y47837952D02*
X14439212Y48053624D01*
%TO.C,R18*%
X12416359Y68110000D02*
X12723641Y68110000D01*
X12416359Y67350000D02*
X12723641Y67350000D01*
%TO.C,C32*%
X5032048Y44205788D02*
X4816376Y44205788D01*
X5032048Y43485788D02*
X4816376Y43485788D01*
%TO.C,C1*%
X18217048Y49630788D02*
X18001376Y49630788D01*
X18217048Y48910788D02*
X18001376Y48910788D01*
%TO.C,D8*%
X14750000Y65310000D02*
X14750000Y59800000D01*
X14750000Y65310000D02*
X18050000Y65310000D01*
X18050000Y65310000D02*
X18050000Y59800000D01*
%TO.C,R57*%
X15990000Y75527064D02*
X15990000Y74072936D01*
X17810000Y75527064D02*
X17810000Y74072936D01*
%TO.C,C33*%
X11165000Y15367164D02*
X11165000Y15582836D01*
X11885000Y15367164D02*
X11885000Y15582836D01*
%TO.C,C13*%
X18362048Y51630788D02*
X18146376Y51630788D01*
X18362048Y50910788D02*
X18146376Y50910788D01*
%TO.C,C2*%
X18362048Y53605788D02*
X18146376Y53605788D01*
X18362048Y52885788D02*
X18146376Y52885788D01*
%TO.C,C30*%
X5037048Y46155788D02*
X4821376Y46155788D01*
X5037048Y45435788D02*
X4821376Y45435788D01*
%TO.C,D9*%
X10390000Y19080000D02*
X10390000Y17670000D01*
X10390000Y17670000D02*
X11050000Y17670000D01*
X12050000Y17670000D02*
X12710000Y17670000D01*
X12710000Y19080000D02*
X12710000Y17670000D01*
X10410000Y19450000D02*
X10080000Y19210000D01*
X10080000Y19690000D01*
X10410000Y19450000D01*
G36*
X10410000Y19450000D02*
G01*
X10080000Y19210000D01*
X10080000Y19690000D01*
X10410000Y19450000D01*
G37*
%TO.C,R17*%
X12406359Y71640000D02*
X12713641Y71640000D01*
X12406359Y70880000D02*
X12713641Y70880000D01*
%TO.C,C26*%
X5057048Y50105788D02*
X4841376Y50105788D01*
X5057048Y49385788D02*
X4841376Y49385788D01*
%TO.C,C16*%
X12394212Y47837952D02*
X12394212Y48053624D01*
X13114212Y47837952D02*
X13114212Y48053624D01*
%TO.C,C25*%
X5057048Y51080788D02*
X4841376Y51080788D01*
X5057048Y50360788D02*
X4841376Y50360788D01*
%TO.C,C10*%
X16519212Y47762952D02*
X16519212Y47978624D01*
X17239212Y47762952D02*
X17239212Y47978624D01*
%TO.C,C28*%
X5032048Y48130788D02*
X4816376Y48130788D01*
X5032048Y47410788D02*
X4816376Y47410788D01*
%TO.C,C29*%
X5032048Y47130788D02*
X4816376Y47130788D01*
X5032048Y46410788D02*
X4816376Y46410788D01*
%TD*%
%LPC*%
D11*
X12900000Y53150000D02*
X16400000Y53150000D01*
X16400000Y49700000D01*
X12900000Y49700000D01*
X12900000Y53150000D01*
G36*
X12900000Y53150000D02*
G01*
X16400000Y53150000D01*
X16400000Y49700000D01*
X12900000Y49700000D01*
X12900000Y53150000D01*
G37*
X17150000Y36100000D02*
X20300000Y36100000D01*
X20300000Y32050000D01*
X17150000Y32050000D01*
X17150000Y36100000D01*
G36*
X17150000Y36100000D02*
G01*
X20300000Y36100000D01*
X20300000Y32050000D01*
X17150000Y32050000D01*
X17150000Y36100000D01*
G37*
X5650000Y69850000D02*
X7850000Y69850000D01*
X7850000Y68350000D01*
X5650000Y68350000D01*
X5650000Y69850000D01*
G36*
X5650000Y69850000D02*
G01*
X7850000Y69850000D01*
X7850000Y68350000D01*
X5650000Y68350000D01*
X5650000Y69850000D01*
G37*
D15*
%TO.C,J1*%
X23671267Y1844600D03*
X23171267Y1844600D03*
X22671267Y1844600D03*
X22171267Y1844600D03*
X21671267Y1844600D03*
X21171267Y1844600D03*
X20671267Y1844600D03*
X20171267Y1844600D03*
X19671267Y1844600D03*
X19171267Y1844600D03*
X18671267Y1844600D03*
X18171267Y1844600D03*
X17671267Y1844600D03*
X17171267Y1844600D03*
X16671267Y1844600D03*
X16171267Y1844600D03*
X15671267Y1844600D03*
X15171267Y1844600D03*
X14671267Y1844600D03*
X14171267Y1844600D03*
X13671267Y1844600D03*
X13171267Y1844600D03*
X12671267Y1844600D03*
X12171267Y1844600D03*
X11671267Y1844600D03*
X11171267Y1844600D03*
X10671267Y1844600D03*
X10171267Y1844600D03*
X9671267Y1844600D03*
X7171267Y1844600D03*
X6671267Y1844600D03*
X6171267Y1844600D03*
X5671267Y1844600D03*
%TD*%
D16*
%TO.C,J3*%
X26365000Y75620000D03*
X20585000Y75620000D03*
D17*
X27795000Y75120000D03*
D18*
X27795000Y79300000D03*
D17*
X19155000Y75120000D03*
D18*
X19155000Y79300000D03*
%TD*%
D19*
%TO.C,IC1*%
X15529212Y50595788D03*
X15529212Y51445788D03*
X15529212Y52295788D03*
X14679212Y50595788D03*
X14679212Y51445788D03*
X14679212Y52295788D03*
X13829212Y50595788D03*
X13829212Y51445788D03*
X13829212Y52295788D03*
%TD*%
D20*
%TO.C,R40*%
X9350000Y16290000D03*
X9350000Y17310000D03*
%TD*%
D21*
%TO.C,C14*%
X14079212Y55470788D03*
X14079212Y54510788D03*
%TD*%
D22*
%TO.C,R39*%
X13650000Y17310000D03*
X13650000Y16290000D03*
%TD*%
D21*
%TO.C,C4*%
X15304212Y55470788D03*
X15304212Y54510788D03*
%TD*%
%TO.C,C3*%
X17304212Y55445788D03*
X17304212Y54485788D03*
%TD*%
D23*
%TO.C,C8*%
X10679212Y47640788D03*
X10679212Y48600788D03*
%TD*%
D24*
%TO.C,C7*%
X10694212Y51945788D03*
X11654212Y51945788D03*
%TD*%
D25*
%TO.C,TP12*%
X9700000Y36200000D03*
%TD*%
%TO.C,TP13*%
X7263793Y34444304D03*
%TD*%
D24*
%TO.C,C5*%
X10699212Y55245788D03*
X11659212Y55245788D03*
%TD*%
%TO.C,C15*%
X10694212Y50995788D03*
X11654212Y50995788D03*
%TD*%
D26*
%TO.C,C31*%
X5404212Y44820788D03*
X4444212Y44820788D03*
%TD*%
D27*
%TO.C,D11*%
X17575000Y18375000D03*
X17575000Y14375000D03*
%TD*%
D25*
%TO.C,TP14*%
X5500000Y35600000D03*
%TD*%
D26*
%TO.C,C27*%
X5409212Y48770788D03*
X4449212Y48770788D03*
%TD*%
D28*
%TO.C,D1*%
X13200000Y70000000D03*
X13200000Y69000000D03*
X11900000Y69500000D03*
%TD*%
D23*
%TO.C,C9*%
X14079212Y47465788D03*
X14079212Y48425788D03*
%TD*%
D29*
%TO.C,R18*%
X12060000Y67730000D03*
X13080000Y67730000D03*
%TD*%
D26*
%TO.C,C32*%
X5404212Y43845788D03*
X4444212Y43845788D03*
%TD*%
%TO.C,C1*%
X18589212Y49270788D03*
X17629212Y49270788D03*
%TD*%
D27*
%TO.C,D8*%
X16400000Y63800000D03*
X16400000Y59800000D03*
%TD*%
D30*
%TO.C,R57*%
X16900000Y76262500D03*
X16900000Y73337500D03*
%TD*%
D23*
%TO.C,C33*%
X11525000Y14995000D03*
X11525000Y15955000D03*
%TD*%
D26*
%TO.C,C13*%
X18734212Y51270788D03*
X17774212Y51270788D03*
%TD*%
%TO.C,C2*%
X18734212Y53245788D03*
X17774212Y53245788D03*
%TD*%
%TO.C,C30*%
X5409212Y45795788D03*
X4449212Y45795788D03*
%TD*%
D31*
%TO.C,D9*%
X10900000Y19400000D03*
X12200000Y19400000D03*
X11550000Y17400000D03*
%TD*%
D29*
%TO.C,R17*%
X12050000Y71260000D03*
X13070000Y71260000D03*
%TD*%
D26*
%TO.C,C26*%
X5429212Y49745788D03*
X4469212Y49745788D03*
%TD*%
D23*
%TO.C,C16*%
X12754212Y47465788D03*
X12754212Y48425788D03*
%TD*%
D26*
%TO.C,C25*%
X5429212Y50720788D03*
X4469212Y50720788D03*
%TD*%
D23*
%TO.C,C10*%
X16879212Y47390788D03*
X16879212Y48350788D03*
%TD*%
D26*
%TO.C,C28*%
X5404212Y47770788D03*
X4444212Y47770788D03*
%TD*%
%TO.C,C29*%
X5404212Y46770788D03*
X4444212Y46770788D03*
%TD*%
%LPD*%
M02*
