%TF.GenerationSoftware,KiCad,Pcbnew,9.0.7*%
%TF.CreationDate,2026-02-19T00:24:31+01:00*%
%TF.ProjectId,BladeCore-M54C,426c6164-6543-46f7-9265-2d4d3534432e,rev?*%
%TF.SameCoordinates,Original*%
%TF.FileFunction,Copper,L3,Inr*%
%TF.FilePolarity,Positive*%
%FSLAX46Y46*%
G04 Gerber Fmt 4.6, Leading zero omitted, Abs format (unit mm)*
G04 Created by KiCad (PCBNEW 9.0.7) date 2026-02-19 00:24:31*
%MOMM*%
%LPD*%
G01*
G04 APERTURE LIST*
%TA.AperFunction,ComponentPad*%
%ADD10C,0.600000*%
%TD*%
%TA.AperFunction,HeatsinkPad*%
%ADD11O,1.000000X2.100000*%
%TD*%
%TA.AperFunction,HeatsinkPad*%
%ADD12O,1.000000X1.600000*%
%TD*%
%TA.AperFunction,ComponentPad*%
%ADD13C,5.500000*%
%TD*%
%TA.AperFunction,HeatsinkPad*%
%ADD14C,0.425000*%
%TD*%
%TA.AperFunction,ViaPad*%
%ADD15C,0.400000*%
%TD*%
%TA.AperFunction,ViaPad*%
%ADD16C,0.450000*%
%TD*%
%TA.AperFunction,Conductor*%
%ADD17C,0.300000*%
%TD*%
%TA.AperFunction,Conductor*%
%ADD18C,0.174000*%
%TD*%
%TA.AperFunction,Conductor*%
%ADD19C,0.150000*%
%TD*%
G04 APERTURE END LIST*
D10*
%TO.N,GND*%
%TO.C,IC7*%
X5890000Y68620000D03*
X7610000Y68620000D03*
X6750000Y69100000D03*
X5890000Y69580000D03*
X7610000Y69580000D03*
%TD*%
D11*
%TO.N,SHIELD*%
%TO.C,J3*%
X27795000Y75120000D03*
D12*
X27795000Y79300000D03*
D11*
X19155000Y75120000D03*
D12*
X19155000Y79300000D03*
%TD*%
D13*
%TO.N,GND*%
%TO.C,J1*%
X14721447Y80770000D03*
%TD*%
D14*
%TO.N,GND*%
%TO.C,IC1*%
X15529212Y50595788D03*
X15529212Y51445788D03*
X15529212Y52295788D03*
X14679212Y50595788D03*
X14679212Y51445788D03*
X14679212Y52295788D03*
X13829212Y50595788D03*
X13829212Y51445788D03*
X13829212Y52295788D03*
%TD*%
D15*
%TO.N,GND*%
X7500000Y64725000D03*
X9150000Y58100000D03*
D16*
X19675000Y73475000D03*
D15*
X14250000Y24250000D03*
X24000000Y43000000D03*
X18410000Y4640000D03*
X5875000Y9700000D03*
D16*
X20825000Y71150000D03*
X9370000Y24496408D03*
D15*
X8700000Y7200000D03*
X19750000Y32350000D03*
X7500000Y20500000D03*
X14250000Y20500000D03*
X1400000Y23475000D03*
X10200000Y19350000D03*
X24000000Y40000000D03*
X24000000Y41500000D03*
X3650000Y57400000D03*
D16*
X10170000Y24496408D03*
D15*
X14250000Y25500000D03*
X6750000Y62900000D03*
X14250000Y21750000D03*
X26000000Y7100000D03*
X27200000Y10500000D03*
X18500000Y25750000D03*
X6000000Y78500000D03*
X17750000Y34600000D03*
X13810000Y75255000D03*
X17250000Y29500000D03*
X18500000Y30750000D03*
X15040000Y74500000D03*
X12325000Y55250000D03*
D16*
X22875000Y63250000D03*
D15*
X12475000Y64200000D03*
D16*
X10170000Y23696408D03*
D15*
X6500000Y28500000D03*
X28000000Y5100000D03*
X13000000Y20500000D03*
X8850000Y78550000D03*
X20600000Y58600000D03*
X3300000Y10100000D03*
D16*
X17000000Y23950000D03*
D15*
X9700000Y62000000D03*
D16*
X9370000Y23696408D03*
D15*
X9275000Y15000000D03*
X17250000Y30750000D03*
X23200000Y31350000D03*
X19750000Y27000000D03*
X14250000Y23000000D03*
X4050000Y64700000D03*
X19750000Y29500000D03*
D16*
X12950000Y17400000D03*
D15*
X21420000Y4640000D03*
X1800000Y5225000D03*
X10665836Y45034164D03*
X22750000Y41500000D03*
X11400000Y69050000D03*
D16*
X17477407Y68534304D03*
D15*
X7425000Y9700000D03*
X19750000Y28250000D03*
X8750000Y21750000D03*
X26000000Y5100000D03*
X22650000Y59025000D03*
X18750000Y32350000D03*
X17758697Y33528588D03*
X12900000Y19350000D03*
X4134800Y42925000D03*
D16*
X10200000Y17400000D03*
X14475000Y30525000D03*
X27000000Y69100000D03*
X10650000Y27350000D03*
D15*
X2325000Y13100000D03*
X21425000Y36700000D03*
X1100000Y6000000D03*
X16152914Y61957437D03*
X8100000Y5625000D03*
X6475000Y37975000D03*
D16*
X17477407Y69184304D03*
X26775000Y72775000D03*
X20000000Y69800000D03*
D15*
X14700000Y67450000D03*
X5262500Y73787500D03*
X17625000Y48525000D03*
X2050000Y75450000D03*
X18750000Y34600000D03*
X11650000Y52575000D03*
X16200000Y67450000D03*
D16*
X10075000Y9000000D03*
D15*
X17450000Y78350000D03*
X17750000Y32350000D03*
X3300000Y9050000D03*
X8200000Y38945000D03*
X19750000Y30750000D03*
X21250000Y44500000D03*
X7475000Y35575000D03*
X28000000Y7100000D03*
X11651527Y50326527D03*
X12939472Y10842202D03*
X1075000Y7000000D03*
X11344364Y9359032D03*
D16*
X11288230Y36947230D03*
D15*
X8500000Y72550000D03*
X18758697Y33528588D03*
D16*
X9200000Y28900000D03*
D15*
X13925000Y42325000D03*
X21250000Y43000000D03*
D16*
X19675000Y72800000D03*
X28600000Y69100000D03*
D15*
X17000000Y73362500D03*
X10675000Y49250000D03*
X3700000Y54200000D03*
X3750000Y52150000D03*
X15300000Y53900000D03*
X17150000Y42300000D03*
X8800000Y27800000D03*
X16550000Y54475000D03*
X18758697Y35697756D03*
X5575000Y5525000D03*
X5900000Y77125000D03*
X5550000Y79700000D03*
X23925000Y4650000D03*
X11550000Y48225000D03*
D16*
X10970000Y23696408D03*
D15*
X6500000Y29750000D03*
X10000000Y20500000D03*
X1475000Y28125000D03*
D16*
X12556391Y37023458D03*
D15*
X9425000Y4925000D03*
X17758697Y35697756D03*
X17100000Y51275000D03*
X8225000Y65400000D03*
X13000000Y24250000D03*
D16*
X14600000Y4725000D03*
D15*
X7500000Y21750000D03*
X18500000Y29500000D03*
X8675000Y73875000D03*
X18500000Y28250000D03*
X27200000Y8100000D03*
X2400000Y18975000D03*
X8750000Y20500000D03*
D16*
X27200000Y73550000D03*
X10970000Y24496408D03*
D15*
X20000000Y46000000D03*
X7100000Y23700000D03*
X13000000Y25500000D03*
X12776527Y49201527D03*
X13825000Y14950000D03*
D16*
X14300000Y68500000D03*
X20000000Y69150000D03*
X20000000Y68500000D03*
X17477407Y69834304D03*
D15*
X14100000Y49178200D03*
X26000000Y7100000D03*
X13207306Y34500000D03*
X9650000Y75250000D03*
X25125000Y59000000D03*
X19750000Y34600000D03*
X19758697Y35697756D03*
X12225000Y42325000D03*
X14075000Y53900000D03*
X19758697Y33528588D03*
D16*
X17477407Y67884304D03*
D15*
X11750000Y21750000D03*
D16*
X14475000Y28875000D03*
D15*
X18500000Y27000000D03*
X11500000Y43000000D03*
X17100000Y53250000D03*
X13000000Y21750000D03*
D16*
X20000000Y67850000D03*
X9900000Y38900000D03*
D15*
X5075000Y64700000D03*
X15325000Y73680000D03*
X14600000Y31340000D03*
X16562573Y49190627D03*
X8475000Y71000000D03*
X14250000Y26500000D03*
X3350000Y65450000D03*
D16*
X22300000Y65400000D03*
D15*
X9036626Y71810000D03*
X13975000Y65025000D03*
%TO.N,+5V*%
X4000000Y68100000D03*
X8475000Y67625000D03*
X3000000Y68100000D03*
X2400000Y21650000D03*
X3000000Y67100000D03*
X3325000Y66375000D03*
X4000000Y67100000D03*
X2000000Y68100000D03*
X2000000Y67100000D03*
X2400000Y20350000D03*
X2400000Y21000000D03*
%TO.N,+3.3V*%
X3500000Y74600000D03*
D16*
X10850000Y28025000D03*
D15*
X2500000Y73600000D03*
X11385876Y67935876D03*
X10679212Y47670788D03*
X12050000Y71300000D03*
X1500000Y74600000D03*
X18729212Y53245788D03*
X10704212Y55245788D03*
X3500000Y73600000D03*
X24600000Y62950000D03*
D16*
X14600000Y33100000D03*
D15*
X2500000Y74600000D03*
X17279212Y55470788D03*
X3500000Y71600000D03*
X3720000Y42150000D03*
X13895000Y71245000D03*
X7394192Y42703494D03*
X10654212Y51845788D03*
X18589212Y49270788D03*
X11879212Y47445788D03*
D16*
X8775000Y26675000D03*
D15*
X3480331Y63180331D03*
X1500000Y72600000D03*
X4497224Y73585855D03*
D16*
X9350000Y76500000D03*
X7100000Y22600000D03*
D15*
X14054212Y47420788D03*
X2500000Y71600000D03*
X1850000Y61925000D03*
X4500000Y71600000D03*
X16879212Y47445788D03*
X1500000Y71600000D03*
X21675000Y28775000D03*
X4625000Y75525000D03*
X6475000Y64700000D03*
X15279212Y55470788D03*
X1500000Y73600000D03*
X4500000Y74600000D03*
D16*
%TO.N,VREF_OUT*%
X8200000Y39905000D03*
X7900000Y36400000D03*
D15*
%TO.N,/Project Architecture/Microcontroller Peripherals/VREF_IN*%
X7150000Y37025000D03*
X15775000Y71250000D03*
D16*
%TO.N,Net-(C33-Pad1)*%
X10050000Y15000000D03*
X13085000Y14975000D03*
D15*
%TO.N,+1V1*%
X12679212Y47445788D03*
X14054212Y55445788D03*
X18779212Y51245788D03*
X10654212Y51045788D03*
%TO.N,VBUS*%
X4500000Y5600000D03*
X3275000Y79350000D03*
X3500000Y5600000D03*
X2475000Y11700000D03*
X3500000Y6600000D03*
X4500000Y6600000D03*
%TO.N,/Project Architecture/Microcontroller/ADC_VUSB*%
X1050000Y10050000D03*
X3575000Y44750000D03*
D16*
%TO.N,HEARTBEAT*%
X14350000Y28125000D03*
X11350000Y41750000D03*
X4750000Y54600000D03*
%TO.N,/Project Architecture/Microcontroller Peripherals/I2C0_SCL*%
X14600000Y69250000D03*
D15*
X4800000Y57550000D03*
%TO.N,/Project Architecture/Microcontroller Peripherals/I2C0_SDA*%
X4775000Y58350000D03*
D16*
X11226000Y70026000D03*
D15*
X12960000Y71380000D03*
D16*
%TO.N,QSPI_SS*%
X22950000Y30575000D03*
X27150000Y14525000D03*
D15*
%TO.N,/Project Architecture/Microcontroller Peripherals/SWDIO*%
X13100000Y59100000D03*
X7200000Y26700000D03*
%TO.N,/Project Architecture/Microcontroller Peripherals/SWCLK*%
X13766212Y58300000D03*
X7300000Y24800000D03*
%TO.N,/Project Architecture/GPIO22*%
X23450000Y8850000D03*
X24626624Y61326624D03*
%TO.N,/Project Architecture/GPIO23*%
X23250000Y6900000D03*
X24700000Y62100000D03*
%TO.N,/Project Architecture/GPIO18*%
X21266587Y8033413D03*
X24700000Y57550000D03*
%TO.N,/Project Architecture/GPIO27*%
X24950000Y5325000D03*
X18970000Y65330000D03*
D16*
%TO.N,/Project Architecture/CAN Interface/IC_CAN_N*%
X11050000Y19375000D03*
%TO.N,/Project Architecture/PWR*%
X28250000Y64800000D03*
X28250000Y63600000D03*
D15*
X10025000Y65725000D03*
X10025000Y66250000D03*
D16*
X28250000Y64200000D03*
D15*
X10025000Y65175000D03*
%TO.N,/Project Architecture/ADC0*%
X3675000Y50725000D03*
X8900000Y15700000D03*
%TO.N,/Project Architecture/GPIO26*%
X24825000Y5900000D03*
X19760000Y65310000D03*
%TO.N,/Project Architecture/ADC5*%
X9250000Y5675000D03*
X3575000Y45750000D03*
%TO.N,/Project Architecture/GPIO25*%
X20538947Y65475584D03*
X24550000Y6450000D03*
%TO.N,/Project Architecture/GPIO21*%
X22883724Y8839516D03*
X24700000Y60500000D03*
%TO.N,/Project Architecture/ADC4*%
X3550000Y46775000D03*
X9350000Y6475000D03*
%TO.N,/Project Architecture/GPIO19*%
X24700000Y58300000D03*
X21875000Y8000000D03*
D16*
%TO.N,/Project Architecture/CAN Interface/IC_CAN_P*%
X12050000Y19375000D03*
D15*
%TO.N,/Project Architecture/GPIO20*%
X22350000Y8575000D03*
X24700000Y59730000D03*
%TO.N,/Project Architecture/GPIO24*%
X21366572Y65475000D03*
X24075000Y7050000D03*
%TO.N,Net-(IC1B-GPIO40{slash}ADC0)*%
X5425728Y50817350D03*
%TO.N,Net-(IC1B-GPIO41{slash}ADC1)*%
X5465409Y49791321D03*
%TO.N,Net-(IC1B-GPIO42{slash}ADC2)*%
X5448403Y48793636D03*
%TO.N,Net-(IC1B-GPIO43{slash}ADC3)*%
X5414391Y47807288D03*
%TO.N,Net-(IC1B-GPIO44{slash}ADC4)*%
X5397385Y46798265D03*
%TO.N,Net-(IC1B-GPIO45{slash}ADC5)*%
X5397385Y45732555D03*
%TO.N,Net-(IC1B-GPIO46{slash}ADC6)*%
X5454072Y44774550D03*
%TO.N,Net-(IC1B-GPIO47{slash}ADC7)*%
X5442734Y43884569D03*
%TO.N,/Project Architecture/ADC2*%
X3575000Y48775000D03*
X7900000Y17100000D03*
%TO.N,/Project Architecture/ADC3*%
X7300000Y17700000D03*
X3575000Y47800000D03*
%TO.N,/Project Architecture/ADC1*%
X3625000Y49750000D03*
X8400000Y16200000D03*
%TO.N,/Project Architecture/Microcontroller Peripherals/ADC_VREF*%
X3575000Y43775000D03*
X6430000Y35550000D03*
D16*
%TO.N,/Project Architecture/Microcontroller/GPIO38*%
X12750000Y40175000D03*
X13950000Y5750000D03*
X4725000Y53025000D03*
%TO.N,/Project Architecture/Microcontroller/GPIO37*%
X14125000Y6425000D03*
X12950000Y41125000D03*
X4750000Y53825000D03*
%TO.N,/Project Architecture/Microcontroller/GPIO39*%
X4725000Y52225000D03*
X13925000Y4450000D03*
X12600000Y39225000D03*
%TO.N,/Project Architecture/Microcontroller/SPI1_SCLK*%
X4800000Y60600000D03*
X4800000Y59233788D03*
%TO.N,VBUS_ONBOARD*%
X25725000Y76375000D03*
X26720000Y60775000D03*
X21050000Y73475000D03*
X25875000Y74480000D03*
X25875000Y73450000D03*
D15*
X22250000Y67200000D03*
X21600000Y67200000D03*
D16*
X21225000Y76375000D03*
D15*
X21000000Y67200000D03*
D16*
X21075000Y74480000D03*
X25875000Y71300000D03*
%TO.N,USB_D-*%
X28273510Y68471105D03*
D15*
X6325000Y8900000D03*
D16*
%TO.N,USB_D+*%
X27417989Y68455114D03*
D15*
X7025000Y8900000D03*
D16*
%TO.N,USB_ONB_D+*%
X22601747Y69451126D03*
X22197071Y77154054D03*
%TO.N,USB_ONB_D-*%
X22738102Y77732397D03*
X23357324Y69463119D03*
%TO.N,/Project Architecture/USB Interface and Power/USB_RP_D+*%
X22300000Y63981852D03*
X13484743Y42748112D03*
%TO.N,/Project Architecture/USB Interface and Power/USB_RP_D-*%
X12676013Y42759449D03*
X22300000Y64768079D03*
D15*
%TO.N,SHIELD*%
X16950000Y76275000D03*
D16*
%TO.N,/Project Architecture/Microcontroller/SPI1_MISO*%
X2587961Y61512039D03*
X2800000Y60100000D03*
%TO.N,Net-(IC29-RXD)*%
X12000000Y25700000D03*
X8550000Y25500000D03*
%TO.N,/Project Architecture/CAN_P*%
X12467736Y10382460D03*
%TO.N,/Project Architecture/CAN_N*%
X11832091Y9826770D03*
%TO.N,/Project Architecture/Microcontroller/CAN_RST*%
X4500000Y56600000D03*
X9712000Y36200000D03*
X10200000Y29700000D03*
X3900000Y55200000D03*
%TD*%
D17*
%TO.N,/Project Architecture/Microcontroller Peripherals/VREF_IN*%
X12525000Y68325000D02*
X15450000Y71250000D01*
X8100000Y61475000D02*
X12525000Y65900000D01*
X15450000Y71250000D02*
X15775000Y71250000D01*
X8100000Y41100000D02*
X8100000Y61475000D01*
X7150000Y37025000D02*
X7150000Y40150000D01*
X7150000Y40150000D02*
X8100000Y41100000D01*
X12525000Y65900000D02*
X12525000Y68325000D01*
D18*
%TO.N,/Project Architecture/Microcontroller/ADC_VUSB*%
X4625000Y44225000D02*
X4625000Y41950000D01*
X1950000Y10050000D02*
X1050000Y10050000D01*
X3100000Y40425000D02*
X3100000Y11200000D01*
X4100000Y44750000D02*
X4625000Y44225000D01*
X3575000Y44750000D02*
X4100000Y44750000D01*
X3100000Y11200000D02*
X1950000Y10050000D01*
X4625000Y41950000D02*
X3100000Y40425000D01*
%TO.N,HEARTBEAT*%
X11350000Y39375000D02*
X11350000Y41750000D01*
X14350000Y28125000D02*
X13900000Y28575000D01*
X13900000Y32450000D02*
X13900000Y36825000D01*
X13900000Y28575000D02*
X13900000Y32450000D01*
X12725000Y38000000D02*
X11350000Y39375000D01*
X13900000Y36825000D02*
X12725000Y38000000D01*
%TO.N,/Project Architecture/Microcontroller Peripherals/SWDIO*%
X7188000Y29778137D02*
X8800000Y31390137D01*
X7188000Y26712000D02*
X7188000Y29778137D01*
X13100000Y57800000D02*
X13100000Y59100000D01*
X8800000Y54750000D02*
X10500000Y56450000D01*
X10500000Y56450000D02*
X11750000Y56450000D01*
X11750000Y56450000D02*
X13100000Y57800000D01*
X8800000Y31390137D02*
X8800000Y54750000D01*
X7200000Y26700000D02*
X7188000Y26712000D01*
%TO.N,/Project Architecture/Microcontroller Peripherals/SWCLK*%
X13766212Y57666212D02*
X13766212Y58300000D01*
X9200000Y54600000D02*
X10600000Y56000000D01*
X7800000Y26400000D02*
X7800000Y29775000D01*
X7300000Y24800000D02*
X7300000Y25900000D01*
X7300000Y25900000D02*
X7800000Y26400000D01*
X10600000Y56000000D02*
X12100000Y56000000D01*
X9200000Y31175000D02*
X9200000Y54600000D01*
X7800000Y29775000D02*
X9200000Y31175000D01*
X12100000Y56000000D02*
X13766212Y57666212D01*
D19*
%TO.N,/Project Architecture/GPIO22*%
X26610000Y18960000D02*
X23450000Y15800000D01*
X24626624Y61326624D02*
X24630000Y61330000D01*
X24630000Y61330000D02*
X24745000Y61330000D01*
X24745000Y61330000D02*
X26610000Y59465000D01*
X23450000Y15800000D02*
X23450000Y8850000D01*
X26610000Y59465000D02*
X26610000Y18960000D01*
%TO.N,/Project Architecture/GPIO23*%
X24700000Y62100000D02*
X24700000Y61925000D01*
X26920000Y18610000D02*
X23950000Y15640000D01*
X23950000Y15640000D02*
X23950000Y7600000D01*
X26920000Y59705000D02*
X26920000Y18610000D01*
X24700000Y61925000D02*
X26920000Y59705000D01*
X23950000Y7600000D02*
X23250000Y6900000D01*
%TO.N,/Project Architecture/GPIO18*%
X25460000Y57060000D02*
X25460000Y20110000D01*
X21525000Y8650000D02*
X21266587Y8391587D01*
X24700000Y57550000D02*
X24970000Y57550000D01*
X21925000Y10000000D02*
X21525000Y9600000D01*
X24970000Y57550000D02*
X25460000Y57060000D01*
X21266587Y8391587D02*
X21266587Y8033413D01*
X25460000Y20110000D02*
X21925000Y16575000D01*
X21925000Y16575000D02*
X21925000Y10000000D01*
X21525000Y9600000D02*
X21525000Y8650000D01*
%TO.N,/Project Architecture/GPIO27*%
X24950000Y5325000D02*
X25475000Y5850000D01*
X28280000Y17730000D02*
X28280000Y61910000D01*
X22390000Y67800000D02*
X20800000Y67800000D01*
X28280000Y61910000D02*
X22390000Y67800000D01*
X25475000Y5850000D02*
X25475000Y14925000D01*
X20800000Y67800000D02*
X18970000Y65970000D01*
X18970000Y65970000D02*
X18970000Y65330000D01*
X25475000Y14925000D02*
X28280000Y17730000D01*
D18*
%TO.N,/Project Architecture/ADC0*%
X6798999Y49369466D02*
X6800000Y49370467D01*
X4104167Y50295833D02*
X3675000Y50725000D01*
X5850000Y21225000D02*
X5850000Y39875000D01*
X8900000Y18175000D02*
X5850000Y21225000D01*
X6798999Y49006614D02*
X6798999Y49369466D01*
X6429167Y50295833D02*
X4104167Y50295833D01*
X5850000Y39875000D02*
X6887000Y40912000D01*
X6800000Y49370467D02*
X6800000Y49925000D01*
X6887000Y42937000D02*
X7150000Y43200000D01*
X7150000Y43200000D02*
X7150000Y48650000D01*
X6887000Y40912000D02*
X6887000Y42937000D01*
X6800000Y49005613D02*
X6798999Y49006614D01*
X6800000Y49000000D02*
X6800000Y49005613D01*
X8900000Y15700000D02*
X8900000Y18175000D01*
X6800000Y49925000D02*
X6429167Y50295833D01*
X7150000Y48650000D02*
X6800000Y49000000D01*
D19*
%TO.N,/Project Architecture/GPIO26*%
X25100000Y6175000D02*
X25100000Y15180000D01*
X27880000Y61790000D02*
X23070000Y66600000D01*
X27880000Y17960000D02*
X27880000Y61790000D01*
X23070000Y66600000D02*
X20400000Y66600000D01*
X20400000Y66600000D02*
X19760000Y65960000D01*
X24825000Y5900000D02*
X25100000Y6175000D01*
X25100000Y15180000D02*
X27880000Y17960000D01*
X19760000Y65960000D02*
X19760000Y65310000D01*
D18*
%TO.N,/Project Architecture/ADC5*%
X4675000Y45750000D02*
X3575000Y45750000D01*
X9250000Y5675000D02*
X8175000Y6750000D01*
X5725000Y13950000D02*
X5725000Y18500000D01*
X4950000Y45475000D02*
X4675000Y45750000D01*
X4950000Y41675000D02*
X4950000Y45475000D01*
X3975000Y20250000D02*
X3975000Y40700000D01*
X8175000Y6750000D02*
X8175000Y11500000D01*
X3975000Y40700000D02*
X4950000Y41675000D01*
X5725000Y18500000D02*
X3975000Y20250000D01*
X8175000Y11500000D02*
X5725000Y13950000D01*
D19*
%TO.N,/Project Architecture/GPIO25*%
X20554212Y65654212D02*
X21100000Y66200000D01*
X21100000Y66200000D02*
X22940000Y66200000D01*
X22940000Y66200000D02*
X27550000Y61590000D01*
X20554212Y65490849D02*
X20554212Y65654212D01*
X20538947Y65475584D02*
X20554212Y65490849D01*
X27550000Y18120000D02*
X24725000Y15295000D01*
X24725000Y15295000D02*
X24725000Y7025000D01*
X27550000Y61590000D02*
X27550000Y18120000D01*
X24725000Y7025000D02*
X24550000Y6850000D01*
X24550000Y6850000D02*
X24550000Y6450000D01*
%TO.N,/Project Architecture/GPIO21*%
X23075000Y9450000D02*
X22875000Y9250000D01*
X26320000Y19290000D02*
X23075000Y16045000D01*
X24980000Y60520000D02*
X26320000Y59180000D01*
X24720000Y60520000D02*
X24980000Y60520000D01*
X22875000Y9250000D02*
X22875000Y8848240D01*
X24700000Y60500000D02*
X24720000Y60520000D01*
X26320000Y59180000D02*
X26320000Y19290000D01*
X23075000Y16045000D02*
X23075000Y9450000D01*
X22875000Y8848240D02*
X22883724Y8839516D01*
D18*
%TO.N,/Project Architecture/ADC4*%
X4425000Y20400000D02*
X6150000Y18675000D01*
X6150000Y18675000D02*
X6150000Y14100000D01*
X6150000Y14100000D02*
X9350000Y10900000D01*
X5827000Y43570492D02*
X5827000Y41977000D01*
X5525000Y46300000D02*
X5950000Y45875000D01*
X9350000Y10900000D02*
X9350000Y6475000D01*
X5950000Y43693492D02*
X5827000Y43570492D01*
X4025000Y46300000D02*
X5525000Y46300000D01*
X5827000Y41977000D02*
X4425000Y40575000D01*
X3550000Y46775000D02*
X4025000Y46300000D01*
X4425000Y40575000D02*
X4425000Y20400000D01*
X5950000Y45875000D02*
X5950000Y43693492D01*
D19*
%TO.N,/Project Architecture/GPIO19*%
X24700000Y58300000D02*
X24730000Y58330000D01*
X25730000Y57660000D02*
X25730000Y19820000D01*
X25730000Y19820000D02*
X22275000Y16365000D01*
X22275000Y16365000D02*
X22275000Y9831685D01*
X22275000Y9831685D02*
X21874000Y9430685D01*
X21874000Y9430685D02*
X21874000Y8377834D01*
X24730000Y58330000D02*
X25060000Y58330000D01*
X21875000Y8376834D02*
X21875000Y8000000D01*
X21874000Y8377834D02*
X21875000Y8376834D01*
X25060000Y58330000D02*
X25730000Y57660000D01*
%TO.N,/Project Architecture/GPIO20*%
X22350000Y9397545D02*
X22350000Y8575000D01*
X26030000Y19560000D02*
X22700000Y16230000D01*
X22700000Y9747545D02*
X22350000Y9397545D01*
X26030000Y58880000D02*
X26030000Y19560000D01*
X22700000Y16230000D02*
X22700000Y9747545D01*
X25180000Y59730000D02*
X26030000Y58880000D01*
X24700000Y59730000D02*
X25180000Y59730000D01*
%TO.N,/Project Architecture/GPIO24*%
X27220000Y18330000D02*
X24325000Y15435000D01*
X27220000Y61330000D02*
X27220000Y18330000D01*
X21791572Y65900000D02*
X22650000Y65900000D01*
X24325000Y15435000D02*
X24325000Y7300000D01*
X21366572Y65475000D02*
X21791572Y65900000D01*
X24325000Y7300000D02*
X24075000Y7050000D01*
X22650000Y65900000D02*
X27220000Y61330000D01*
D18*
%TO.N,/Project Architecture/ADC2*%
X7900000Y18075000D02*
X5200000Y20775000D01*
X5200000Y40200000D02*
X6357000Y41357000D01*
X6550000Y43496979D02*
X6550000Y48025000D01*
X4050000Y48300000D02*
X3575000Y48775000D01*
X6357000Y41357000D02*
X6357000Y43303979D01*
X7900000Y17100000D02*
X7900000Y18075000D01*
X6357000Y43303979D02*
X6550000Y43496979D01*
X5200000Y20775000D02*
X5200000Y40200000D01*
X6275000Y48300000D02*
X4050000Y48300000D01*
X6550000Y48025000D02*
X6275000Y48300000D01*
%TO.N,/Project Architecture/ADC3*%
X4825000Y20575000D02*
X4825000Y40400000D01*
X6285000Y46740000D02*
X5725000Y47300000D01*
X4075000Y47300000D02*
X3575000Y47800000D01*
X6285000Y43653724D02*
X6285000Y46740000D01*
X6092000Y43460725D02*
X6285000Y43653724D01*
X7300000Y17700000D02*
X7300000Y18100000D01*
X4825000Y40400000D02*
X6092000Y41667000D01*
X6092000Y41667000D02*
X6092000Y43460725D01*
X5725000Y47300000D02*
X4075000Y47300000D01*
X7300000Y18100000D02*
X4825000Y20575000D01*
%TO.N,/Project Architecture/ADC1*%
X6850000Y43350000D02*
X6850000Y48575000D01*
X6850000Y48575000D02*
X6125000Y49300000D01*
X6125000Y49300000D02*
X4075000Y49300000D01*
X8400000Y18100234D02*
X5525000Y20975234D01*
X8400000Y16200000D02*
X8400000Y18100234D01*
X6622000Y43122000D02*
X6850000Y43350000D01*
X6622000Y41122000D02*
X6622000Y43122000D01*
X5525000Y40025000D02*
X6622000Y41122000D01*
X5525000Y20975234D02*
X5525000Y40025000D01*
X4075000Y49300000D02*
X3625000Y49750000D01*
%TO.N,/Project Architecture/Microcontroller/GPIO38*%
X13612000Y6088000D02*
X13612000Y6937000D01*
X14350000Y7675000D02*
X15625000Y8950000D01*
X15625000Y8950000D02*
X15625000Y11600000D01*
X15625000Y11600000D02*
X15625000Y37300000D01*
X13950000Y5750000D02*
X13612000Y6088000D01*
X15625000Y37300000D02*
X12750000Y40175000D01*
X13612000Y6937000D02*
X14350000Y7675000D01*
%TO.N,/Project Architecture/Microcontroller/GPIO37*%
X16175000Y37900000D02*
X12950000Y41125000D01*
X14125000Y6425000D02*
X16175000Y8475000D01*
X16175000Y8475000D02*
X16175000Y19350000D01*
X16175000Y19350000D02*
X16175000Y37900000D01*
%TO.N,/Project Architecture/Microcontroller/GPIO39*%
X15100000Y9250000D02*
X15100000Y11425000D01*
X14225000Y8375000D02*
X15100000Y9250000D01*
X13175000Y6825000D02*
X13175000Y7325000D01*
X13175000Y7325000D02*
X14225000Y8375000D01*
X13925000Y4450000D02*
X13175000Y5200000D01*
X15113000Y36712000D02*
X12600000Y39225000D01*
X13175000Y5200000D02*
X13175000Y6825000D01*
X15113000Y11438000D02*
X15113000Y36712000D01*
X15100000Y11425000D02*
X15113000Y11438000D01*
%TO.N,/Project Architecture/Microcontroller/CAN_RST*%
X9600000Y35888000D02*
X9600000Y31000000D01*
X9712000Y36200000D02*
X9712000Y36000000D01*
X9600000Y31000000D02*
X10200000Y30400000D01*
X10200000Y30400000D02*
X10200000Y29700000D01*
X9712000Y36000000D02*
X9600000Y35888000D01*
%TD*%
%TA.AperFunction,Conductor*%
%TO.N,GND*%
G36*
X14376698Y32733904D02*
G01*
X14407246Y32716267D01*
X14434525Y32700516D01*
X14434527Y32700516D01*
X14434528Y32700515D01*
X14543561Y32671300D01*
X14543563Y32671300D01*
X14656437Y32671300D01*
X14656439Y32671300D01*
X14666205Y32673917D01*
X14736055Y32672256D01*
X14793918Y32633094D01*
X14821423Y32568866D01*
X14822300Y32554143D01*
X14822300Y28558335D01*
X14802615Y28491296D01*
X14749811Y28445541D01*
X14680653Y28435597D01*
X14619871Y28463356D01*
X14619674Y28463098D01*
X14618556Y28463956D01*
X14617097Y28464622D01*
X14614328Y28467200D01*
X14613231Y28468042D01*
X14613228Y28468045D01*
X14564350Y28496265D01*
X14515473Y28524485D01*
X14460955Y28539093D01*
X14406439Y28553700D01*
X14406438Y28553700D01*
X14383774Y28553700D01*
X14354333Y28562345D01*
X14324347Y28568868D01*
X14319331Y28572623D01*
X14316735Y28573385D01*
X14296093Y28590019D01*
X14227019Y28659093D01*
X14193534Y28720416D01*
X14190700Y28746774D01*
X14190700Y32626516D01*
X14210385Y32693555D01*
X14263189Y32739310D01*
X14332347Y32749254D01*
X14376698Y32733904D01*
G37*
%TD.AperFunction*%
%TA.AperFunction,Conductor*%
G36*
X18783453Y80439961D02*
G01*
X18816135Y80430995D01*
X18816904Y80430139D01*
X18818006Y80429815D01*
X18840161Y80404247D01*
X18862824Y80379016D01*
X18863008Y80377880D01*
X18863761Y80377011D01*
X18868582Y80343480D01*
X18874000Y80310046D01*
X18873541Y80308993D01*
X18873705Y80307853D01*
X18859629Y80277033D01*
X18846114Y80245982D01*
X18844987Y80244971D01*
X18844680Y80244297D01*
X18819859Y80222400D01*
X18777568Y80194142D01*
X18706414Y80146599D01*
X18608401Y80048586D01*
X18531386Y79933324D01*
X18478344Y79805267D01*
X18478341Y79805255D01*
X18451300Y79669313D01*
X18451300Y78930688D01*
X18478341Y78794746D01*
X18478344Y78794734D01*
X18531386Y78666677D01*
X18608401Y78551415D01*
X18706414Y78453402D01*
X18821676Y78376387D01*
X18949733Y78323345D01*
X18949738Y78323343D01*
X19085687Y78296301D01*
X19085690Y78296300D01*
X19085692Y78296300D01*
X19224310Y78296300D01*
X19224311Y78296301D01*
X19360262Y78323343D01*
X19424294Y78349866D01*
X19488323Y78376387D01*
X19488324Y78376388D01*
X19488327Y78376389D01*
X19603583Y78453400D01*
X19701600Y78551417D01*
X19778611Y78666673D01*
X19831657Y78794738D01*
X19858700Y78930692D01*
X19858700Y79669308D01*
X19858700Y79669311D01*
X19858699Y79669313D01*
X19847386Y79726188D01*
X19831657Y79805262D01*
X19831655Y79805267D01*
X19778613Y79933324D01*
X19701598Y80048586D01*
X19603585Y80146599D01*
X19562704Y80173915D01*
X19490141Y80222399D01*
X19445338Y80276009D01*
X19436630Y80345334D01*
X19466784Y80408362D01*
X19526227Y80445082D01*
X19559033Y80449500D01*
X27390967Y80449500D01*
X27458006Y80429815D01*
X27503761Y80377011D01*
X27513705Y80307853D01*
X27484680Y80244297D01*
X27459859Y80222400D01*
X27417568Y80194142D01*
X27346414Y80146599D01*
X27248401Y80048586D01*
X27171386Y79933324D01*
X27118344Y79805267D01*
X27118341Y79805255D01*
X27091300Y79669313D01*
X27091300Y78930688D01*
X27118341Y78794746D01*
X27118344Y78794734D01*
X27171386Y78666677D01*
X27248401Y78551415D01*
X27346414Y78453402D01*
X27461676Y78376387D01*
X27589733Y78323345D01*
X27589738Y78323343D01*
X27725687Y78296301D01*
X27725690Y78296300D01*
X27725692Y78296300D01*
X27864310Y78296300D01*
X27864311Y78296301D01*
X28000262Y78323343D01*
X28064294Y78349866D01*
X28128323Y78376387D01*
X28128324Y78376388D01*
X28128327Y78376389D01*
X28243583Y78453400D01*
X28341600Y78551417D01*
X28418611Y78666673D01*
X28471657Y78794738D01*
X28498700Y78930692D01*
X28498700Y79669308D01*
X28498700Y79669311D01*
X28498699Y79669313D01*
X28487386Y79726188D01*
X28471657Y79805262D01*
X28471655Y79805267D01*
X28418613Y79933324D01*
X28341598Y80048586D01*
X28243585Y80146599D01*
X28202704Y80173915D01*
X28130141Y80222399D01*
X28085338Y80276009D01*
X28076630Y80345334D01*
X28106784Y80408362D01*
X28166227Y80445082D01*
X28199033Y80449500D01*
X28652405Y80449500D01*
X28690244Y80449500D01*
X28709630Y80447975D01*
X28742253Y80442808D01*
X28779146Y80430821D01*
X28799765Y80420315D01*
X28831151Y80397511D01*
X28847510Y80381152D01*
X28870314Y80349766D01*
X28880820Y80329147D01*
X28892808Y80292252D01*
X28897973Y80259641D01*
X28899500Y80240245D01*
X28899500Y68707034D01*
X28879815Y68639995D01*
X28827011Y68594240D01*
X28757853Y68584296D01*
X28694297Y68613321D01*
X28668113Y68645033D01*
X28662539Y68654687D01*
X28616555Y68734333D01*
X28536738Y68814150D01*
X28466679Y68854599D01*
X28438983Y68870590D01*
X28384465Y68885198D01*
X28329949Y68899805D01*
X28217071Y68899805D01*
X28108036Y68870590D01*
X28010282Y68814150D01*
X28010279Y68814148D01*
X27925435Y68729303D01*
X27864112Y68695818D01*
X27794420Y68700802D01*
X27750073Y68729303D01*
X27681219Y68798157D01*
X27681217Y68798159D01*
X27590535Y68850515D01*
X27583462Y68854599D01*
X27523781Y68870590D01*
X27474428Y68883814D01*
X27361550Y68883814D01*
X27252515Y68854599D01*
X27154761Y68798159D01*
X27154758Y68798157D01*
X27074946Y68718345D01*
X27074944Y68718342D01*
X27018504Y68620588D01*
X26989289Y68511553D01*
X26989289Y68398676D01*
X27018504Y68289641D01*
X27046724Y68240764D01*
X27074944Y68191886D01*
X27154761Y68112069D01*
X27224820Y68071620D01*
X27247684Y68058419D01*
X27252517Y68055629D01*
X27361550Y68026414D01*
X27361552Y68026414D01*
X27474426Y68026414D01*
X27474428Y68026414D01*
X27583461Y68055629D01*
X27681217Y68112069D01*
X27761034Y68191886D01*
X27761034Y68191887D01*
X27766064Y68196916D01*
X27827387Y68230401D01*
X27897079Y68225417D01*
X27941426Y68196916D01*
X28010282Y68128060D01*
X28108038Y68071620D01*
X28217071Y68042405D01*
X28217073Y68042405D01*
X28329947Y68042405D01*
X28329949Y68042405D01*
X28438982Y68071620D01*
X28536738Y68128060D01*
X28616555Y68207877D01*
X28668114Y68297179D01*
X28718680Y68345393D01*
X28787288Y68358615D01*
X28852152Y68332647D01*
X28892680Y68275733D01*
X28899500Y68235177D01*
X28899500Y64974276D01*
X28879815Y64907237D01*
X28827011Y64861482D01*
X28757853Y64851538D01*
X28694297Y64880563D01*
X28656523Y64939341D01*
X28655725Y64942182D01*
X28649485Y64965472D01*
X28593045Y65063228D01*
X28513228Y65143045D01*
X28458936Y65174391D01*
X28415473Y65199485D01*
X28360955Y65214093D01*
X28306439Y65228700D01*
X28193561Y65228700D01*
X28084526Y65199485D01*
X27986772Y65143045D01*
X27986769Y65143043D01*
X27906957Y65063231D01*
X27906955Y65063228D01*
X27850515Y64965474D01*
X27821300Y64856439D01*
X27821300Y64743562D01*
X27850515Y64634527D01*
X27892389Y64562001D01*
X27908862Y64494100D01*
X27892389Y64437999D01*
X27850515Y64365474D01*
X27821300Y64256439D01*
X27821300Y64143562D01*
X27850515Y64034527D01*
X27892389Y63962001D01*
X27908862Y63894100D01*
X27892389Y63837999D01*
X27850515Y63765474D01*
X27834911Y63707237D01*
X27821300Y63656439D01*
X27821300Y63543561D01*
X27832069Y63503370D01*
X27850515Y63434527D01*
X27854163Y63428209D01*
X27906955Y63336772D01*
X27986772Y63256955D01*
X28084528Y63200515D01*
X28193561Y63171300D01*
X28193563Y63171300D01*
X28306437Y63171300D01*
X28306439Y63171300D01*
X28415472Y63200515D01*
X28513228Y63256955D01*
X28593045Y63336772D01*
X28649485Y63434528D01*
X28655725Y63457820D01*
X28692090Y63517478D01*
X28754936Y63548008D01*
X28824312Y63539714D01*
X28878190Y63495229D01*
X28899465Y63428677D01*
X28899500Y63425725D01*
X28899500Y4709756D01*
X28897973Y4690360D01*
X28897973Y4690356D01*
X28892808Y4657749D01*
X28880820Y4620854D01*
X28870314Y4600235D01*
X28847510Y4568849D01*
X28831151Y4552490D01*
X28799765Y4529686D01*
X28779146Y4519180D01*
X28742251Y4507192D01*
X28729663Y4505199D01*
X28709638Y4502027D01*
X28690244Y4500500D01*
X25071155Y4500500D01*
X24916510Y4469739D01*
X24916498Y4469736D01*
X24770827Y4409398D01*
X24770814Y4409391D01*
X24639711Y4321790D01*
X24639707Y4321787D01*
X24528213Y4210293D01*
X24528210Y4210289D01*
X24440609Y4079186D01*
X24440602Y4079173D01*
X24380264Y3933502D01*
X24380261Y3933490D01*
X24349500Y3778847D01*
X24349500Y3724000D01*
X24329815Y3656961D01*
X24277011Y3611206D01*
X24225500Y3600000D01*
X9365212Y3600000D01*
X9298173Y3619685D01*
X9262109Y3655110D01*
X9260872Y3656961D01*
X9249464Y3674035D01*
X9249462Y3674038D01*
X9124038Y3799462D01*
X9124034Y3799465D01*
X8976553Y3898010D01*
X8976540Y3898017D01*
X8812667Y3965894D01*
X8812658Y3965897D01*
X8638694Y4000500D01*
X8638691Y4000500D01*
X8597595Y4000500D01*
X8550000Y4000500D01*
X8461309Y4000500D01*
X8461306Y4000500D01*
X8287341Y3965897D01*
X8287332Y3965894D01*
X8123459Y3898017D01*
X8123446Y3898010D01*
X7975965Y3799465D01*
X7975961Y3799462D01*
X7850537Y3674038D01*
X7841271Y3660171D01*
X7839128Y3656961D01*
X7837891Y3655110D01*
X7784279Y3610305D01*
X7734788Y3600000D01*
X5124500Y3600000D01*
X5057461Y3619685D01*
X5011706Y3672489D01*
X5000500Y3724000D01*
X5000500Y3778845D01*
X5000499Y3778847D01*
X4996398Y3799465D01*
X4969737Y3933497D01*
X4909795Y4078211D01*
X4909397Y4079173D01*
X4909390Y4079186D01*
X4821789Y4210289D01*
X4821786Y4210293D01*
X4710292Y4321787D01*
X4710288Y4321790D01*
X4579185Y4409391D01*
X4579172Y4409398D01*
X4433501Y4469736D01*
X4433489Y4469739D01*
X4278845Y4500500D01*
X4278842Y4500500D01*
X4239562Y4500500D01*
X659756Y4500500D01*
X640360Y4502027D01*
X624110Y4504601D01*
X607749Y4507192D01*
X570853Y4519180D01*
X550234Y4529686D01*
X518848Y4552490D01*
X502489Y4568849D01*
X479685Y4600235D01*
X469178Y4620856D01*
X457192Y4657747D01*
X452025Y4690370D01*
X450500Y4709756D01*
X450500Y6653148D01*
X3096300Y6653148D01*
X3096300Y6546852D01*
X3123811Y6444177D01*
X3176959Y6352122D01*
X3252122Y6276959D01*
X3344177Y6223811D01*
X3359243Y6219775D01*
X3418903Y6183410D01*
X3449432Y6120563D01*
X3441137Y6051188D01*
X3396652Y5997310D01*
X3359244Y5980227D01*
X3344177Y5976189D01*
X3344175Y5976188D01*
X3344174Y5976188D01*
X3252125Y5923043D01*
X3252119Y5923039D01*
X3176961Y5847881D01*
X3176957Y5847875D01*
X3123812Y5755826D01*
X3123812Y5755825D01*
X3123811Y5755823D01*
X3096300Y5653148D01*
X3096300Y5546852D01*
X3123811Y5444177D01*
X3176959Y5352122D01*
X3252122Y5276959D01*
X3344177Y5223811D01*
X3446852Y5196300D01*
X3446854Y5196300D01*
X3553146Y5196300D01*
X3553148Y5196300D01*
X3655823Y5223811D01*
X3747878Y5276959D01*
X3823041Y5352122D01*
X3876189Y5444177D01*
X3880225Y5459244D01*
X3916589Y5518903D01*
X3979435Y5549433D01*
X4048811Y5541139D01*
X4102690Y5496654D01*
X4119773Y5459245D01*
X4123811Y5444177D01*
X4176959Y5352122D01*
X4252122Y5276959D01*
X4344177Y5223811D01*
X4446852Y5196300D01*
X4446854Y5196300D01*
X4553146Y5196300D01*
X4553148Y5196300D01*
X4655823Y5223811D01*
X4747878Y5276959D01*
X4823041Y5352122D01*
X4876189Y5444177D01*
X4903700Y5546852D01*
X4903700Y5653148D01*
X4876189Y5755823D01*
X4823041Y5847878D01*
X4747878Y5923041D01*
X4655823Y5976189D01*
X4640756Y5980226D01*
X4581097Y6016589D01*
X4550567Y6079435D01*
X4558861Y6148811D01*
X4603346Y6202690D01*
X4640755Y6219774D01*
X4655823Y6223811D01*
X4747878Y6276959D01*
X4823041Y6352122D01*
X4876189Y6444177D01*
X4903700Y6546852D01*
X4903700Y6653148D01*
X4876189Y6755823D01*
X4823041Y6847878D01*
X4747878Y6923041D01*
X4655823Y6976189D01*
X4553148Y7003700D01*
X4446852Y7003700D01*
X4344177Y6976189D01*
X4344175Y6976188D01*
X4344174Y6976188D01*
X4252125Y6923043D01*
X4252119Y6923039D01*
X4176961Y6847881D01*
X4176957Y6847875D01*
X4123812Y6755826D01*
X4123812Y6755825D01*
X4123811Y6755823D01*
X4119774Y6740757D01*
X4083410Y6681097D01*
X4020563Y6650568D01*
X3951188Y6658863D01*
X3897310Y6703348D01*
X3880226Y6740756D01*
X3876189Y6755823D01*
X3823041Y6847878D01*
X3747878Y6923041D01*
X3655823Y6976189D01*
X3553148Y7003700D01*
X3446852Y7003700D01*
X3344177Y6976189D01*
X3344175Y6976188D01*
X3344174Y6976188D01*
X3252125Y6923043D01*
X3252119Y6923039D01*
X3176961Y6847881D01*
X3176957Y6847875D01*
X3123812Y6755826D01*
X3123812Y6755825D01*
X3123811Y6755823D01*
X3096300Y6653148D01*
X450500Y6653148D01*
X450500Y8953148D01*
X5921300Y8953148D01*
X5921300Y8846852D01*
X5948811Y8744177D01*
X6001959Y8652122D01*
X6077122Y8576959D01*
X6169177Y8523811D01*
X6271852Y8496300D01*
X6271854Y8496300D01*
X6378146Y8496300D01*
X6378148Y8496300D01*
X6480823Y8523811D01*
X6572878Y8576959D01*
X6587319Y8591400D01*
X6648642Y8624885D01*
X6718334Y8619901D01*
X6762681Y8591400D01*
X6777122Y8576959D01*
X6869177Y8523811D01*
X6971852Y8496300D01*
X6971854Y8496300D01*
X7078146Y8496300D01*
X7078148Y8496300D01*
X7180823Y8523811D01*
X7272878Y8576959D01*
X7348041Y8652122D01*
X7401189Y8744177D01*
X7428700Y8846852D01*
X7428700Y8953148D01*
X7401189Y9055823D01*
X7348041Y9147878D01*
X7272878Y9223041D01*
X7180823Y9276189D01*
X7078148Y9303700D01*
X6971852Y9303700D01*
X6869177Y9276189D01*
X6869175Y9276188D01*
X6869174Y9276188D01*
X6777125Y9223043D01*
X6777119Y9223039D01*
X6762681Y9208600D01*
X6701358Y9175115D01*
X6631666Y9180099D01*
X6587319Y9208600D01*
X6572880Y9223039D01*
X6572878Y9223041D01*
X6480823Y9276189D01*
X6378148Y9303700D01*
X6271852Y9303700D01*
X6169177Y9276189D01*
X6169175Y9276188D01*
X6169174Y9276188D01*
X6077125Y9223043D01*
X6077119Y9223039D01*
X6001961Y9147881D01*
X6001957Y9147875D01*
X5948812Y9055826D01*
X5948812Y9055825D01*
X5948811Y9055823D01*
X5921300Y8953148D01*
X450500Y8953148D01*
X450500Y9818189D01*
X470185Y9885228D01*
X522989Y9930983D01*
X592147Y9940927D01*
X655703Y9911902D01*
X681886Y9880190D01*
X726959Y9802122D01*
X802122Y9726959D01*
X894177Y9673811D01*
X996852Y9646300D01*
X996854Y9646300D01*
X1103146Y9646300D01*
X1103148Y9646300D01*
X1205823Y9673811D01*
X1297878Y9726959D01*
X1297886Y9726968D01*
X1304324Y9731906D01*
X1306072Y9729628D01*
X1355223Y9756466D01*
X1381581Y9759300D01*
X1988268Y9759300D01*
X1988271Y9759300D01*
X2062206Y9779111D01*
X2128494Y9817382D01*
X3332618Y11021506D01*
X3370889Y11087794D01*
X3390700Y11161729D01*
X3390700Y11238272D01*
X3390700Y40253226D01*
X3399344Y40282667D01*
X3405868Y40312653D01*
X3409622Y40317669D01*
X3410385Y40320265D01*
X3427019Y40340907D01*
X3472619Y40386507D01*
X3533942Y40419992D01*
X3603634Y40415008D01*
X3659567Y40373136D01*
X3683984Y40307672D01*
X3684300Y40298826D01*
X3684300Y20288271D01*
X3684300Y20211729D01*
X3704111Y20137794D01*
X3742381Y20071508D01*
X3742383Y20071505D01*
X5397981Y18415907D01*
X5431466Y18354584D01*
X5434300Y18328226D01*
X5434300Y13988271D01*
X5434300Y13911729D01*
X5454111Y13837794D01*
X5492381Y13771508D01*
X5492383Y13771505D01*
X7847981Y11415908D01*
X7881466Y11354585D01*
X7884300Y11328227D01*
X7884300Y6788271D01*
X7884300Y6711729D01*
X7900271Y6652126D01*
X7904111Y6637794D01*
X7942381Y6571508D01*
X7942383Y6571505D01*
X8809981Y5703907D01*
X8843466Y5642584D01*
X8844834Y5629859D01*
X8845239Y5629912D01*
X8846300Y5621854D01*
X8846300Y5621852D01*
X8873811Y5519177D01*
X8926959Y5427122D01*
X9002122Y5351959D01*
X9094177Y5298811D01*
X9196852Y5271300D01*
X9196854Y5271300D01*
X9303146Y5271300D01*
X9303148Y5271300D01*
X9405823Y5298811D01*
X9497878Y5351959D01*
X9573041Y5427122D01*
X9626189Y5519177D01*
X9653700Y5621852D01*
X9653700Y5728148D01*
X9626189Y5830823D01*
X9573041Y5922878D01*
X9551168Y5944751D01*
X9517683Y6006074D01*
X9522667Y6075766D01*
X9564539Y6131699D01*
X9576835Y6139811D01*
X9597878Y6151959D01*
X9673041Y6227122D01*
X9726189Y6319177D01*
X9753700Y6421852D01*
X9753700Y6528148D01*
X9726189Y6630823D01*
X9673041Y6722878D01*
X9673035Y6722884D01*
X9668094Y6729324D01*
X9670372Y6731073D01*
X9643534Y6780223D01*
X9640700Y6806581D01*
X9640700Y9883209D01*
X11403391Y9883209D01*
X11403391Y9770332D01*
X11432606Y9661297D01*
X11460826Y9612420D01*
X11489046Y9563542D01*
X11568863Y9483725D01*
X11666619Y9427285D01*
X11775652Y9398070D01*
X11775654Y9398070D01*
X11888528Y9398070D01*
X11888530Y9398070D01*
X11997563Y9427285D01*
X12095319Y9483725D01*
X12175136Y9563542D01*
X12231576Y9661298D01*
X12260791Y9770331D01*
X12260791Y9832489D01*
X12280476Y9899528D01*
X12333280Y9945283D01*
X12402438Y9955227D01*
X12406517Y9954390D01*
X12411295Y9953761D01*
X12411297Y9953760D01*
X12411299Y9953760D01*
X12524173Y9953760D01*
X12524175Y9953760D01*
X12633208Y9982975D01*
X12730964Y10039415D01*
X12810781Y10119232D01*
X12867221Y10216988D01*
X12896436Y10326021D01*
X12896436Y10438899D01*
X12867221Y10547932D01*
X12810781Y10645688D01*
X12730964Y10725505D01*
X12680598Y10754584D01*
X12633209Y10781945D01*
X12578691Y10796553D01*
X12524175Y10811160D01*
X12411297Y10811160D01*
X12302262Y10781945D01*
X12204508Y10725505D01*
X12204505Y10725503D01*
X12124693Y10645691D01*
X12124691Y10645688D01*
X12068251Y10547934D01*
X12039036Y10438899D01*
X12039036Y10376742D01*
X12019351Y10309703D01*
X11966547Y10263948D01*
X11897389Y10254004D01*
X11893308Y10254841D01*
X11888531Y10255470D01*
X11888530Y10255470D01*
X11775652Y10255470D01*
X11666617Y10226255D01*
X11568863Y10169815D01*
X11568860Y10169813D01*
X11489048Y10090001D01*
X11489046Y10089998D01*
X11432606Y9992244D01*
X11403391Y9883209D01*
X9640700Y9883209D01*
X9640700Y10938269D01*
X9640700Y10938271D01*
X9620889Y11012206D01*
X9582618Y11078494D01*
X9528494Y11132618D01*
X6477019Y14184093D01*
X6443534Y14245416D01*
X6440700Y14271774D01*
X6440700Y15056439D01*
X9621300Y15056439D01*
X9621300Y14943561D01*
X9627999Y14918561D01*
X9650515Y14834527D01*
X9664931Y14809559D01*
X9706955Y14736772D01*
X9786772Y14656955D01*
X9884528Y14600515D01*
X9993561Y14571300D01*
X9993563Y14571300D01*
X10106437Y14571300D01*
X10106439Y14571300D01*
X10215472Y14600515D01*
X10313228Y14656955D01*
X10393045Y14736772D01*
X10449485Y14834528D01*
X10478700Y14943561D01*
X10478700Y15031439D01*
X12656300Y15031439D01*
X12656300Y14918562D01*
X12685515Y14809527D01*
X12713735Y14760650D01*
X12741955Y14711772D01*
X12821772Y14631955D01*
X12919528Y14575515D01*
X13028561Y14546300D01*
X13028563Y14546300D01*
X13141437Y14546300D01*
X13141439Y14546300D01*
X13250472Y14575515D01*
X13348228Y14631955D01*
X13428045Y14711772D01*
X13484485Y14809528D01*
X13513700Y14918561D01*
X13513700Y15031439D01*
X13484485Y15140472D01*
X13428045Y15238228D01*
X13348228Y15318045D01*
X13299350Y15346265D01*
X13250473Y15374485D01*
X13195955Y15389093D01*
X13141439Y15403700D01*
X13028561Y15403700D01*
X12919526Y15374485D01*
X12821772Y15318045D01*
X12821769Y15318043D01*
X12741957Y15238231D01*
X12741955Y15238228D01*
X12685515Y15140474D01*
X12656300Y15031439D01*
X10478700Y15031439D01*
X10478700Y15056439D01*
X10449485Y15165472D01*
X10393045Y15263228D01*
X10313228Y15343045D01*
X10254483Y15376962D01*
X10215473Y15399485D01*
X10160955Y15414093D01*
X10106439Y15428700D01*
X9993561Y15428700D01*
X9884526Y15399485D01*
X9786772Y15343045D01*
X9786769Y15343043D01*
X9706957Y15263231D01*
X9706955Y15263228D01*
X9650515Y15165474D01*
X9643816Y15140472D01*
X9621300Y15056439D01*
X6440700Y15056439D01*
X6440700Y18248826D01*
X6460385Y18315865D01*
X6513189Y18361620D01*
X6582347Y18371564D01*
X6645903Y18342539D01*
X6652381Y18336507D01*
X6933122Y18055766D01*
X6966607Y17994443D01*
X6961623Y17924751D01*
X6952830Y17906087D01*
X6923811Y17855824D01*
X6923811Y17855823D01*
X6896300Y17753148D01*
X6896300Y17646852D01*
X6923811Y17544177D01*
X6976959Y17452122D01*
X7052122Y17376959D01*
X7144177Y17323811D01*
X7246852Y17296300D01*
X7246854Y17296300D01*
X7353149Y17296300D01*
X7357781Y17296910D01*
X7426816Y17286148D01*
X7479074Y17239770D01*
X7497962Y17172502D01*
X7496911Y17157792D01*
X7496300Y17153150D01*
X7496300Y17153148D01*
X7496300Y17046852D01*
X7523811Y16944177D01*
X7576959Y16852122D01*
X7652122Y16776959D01*
X7744177Y16723811D01*
X7846852Y16696300D01*
X7846854Y16696300D01*
X7953143Y16696300D01*
X7953148Y16696300D01*
X7953199Y16696314D01*
X7953243Y16696313D01*
X7961204Y16697361D01*
X7961367Y16696121D01*
X7978196Y16695722D01*
X8002947Y16699280D01*
X8012521Y16694908D01*
X8023045Y16694658D01*
X8043754Y16680644D01*
X8066503Y16670255D01*
X8072194Y16661399D01*
X8080911Y16655500D01*
X8090756Y16632516D01*
X8104277Y16611477D01*
X8106554Y16595634D01*
X8108422Y16591275D01*
X8109300Y16576542D01*
X8109300Y16531581D01*
X8089615Y16464542D01*
X8081581Y16454573D01*
X8081906Y16454324D01*
X8076957Y16447875D01*
X8023812Y16355826D01*
X8023812Y16355825D01*
X8023811Y16355823D01*
X7996300Y16253148D01*
X7996300Y16146852D01*
X8023811Y16044177D01*
X8076959Y15952122D01*
X8152122Y15876959D01*
X8244177Y15823811D01*
X8346852Y15796300D01*
X8346854Y15796300D01*
X8372300Y15796300D01*
X8439339Y15776615D01*
X8485094Y15723811D01*
X8496300Y15672300D01*
X8496300Y15646852D01*
X8523811Y15544177D01*
X8576959Y15452122D01*
X8652122Y15376959D01*
X8744177Y15323811D01*
X8846852Y15296300D01*
X8846854Y15296300D01*
X8953146Y15296300D01*
X8953148Y15296300D01*
X9055823Y15323811D01*
X9147878Y15376959D01*
X9223041Y15452122D01*
X9276189Y15544177D01*
X9303700Y15646852D01*
X9303700Y15753148D01*
X9276189Y15855823D01*
X9223041Y15947878D01*
X9223035Y15947884D01*
X9218094Y15954324D01*
X9220372Y15956073D01*
X9193534Y16005223D01*
X9190700Y16031581D01*
X9190700Y18213272D01*
X9190676Y18213361D01*
X9188975Y18219707D01*
X9170889Y18287206D01*
X9151086Y18321506D01*
X9132618Y18353494D01*
X9078494Y18407618D01*
X8054673Y19431439D01*
X10621300Y19431439D01*
X10621300Y19318562D01*
X10650515Y19209527D01*
X10678735Y19160650D01*
X10706955Y19111772D01*
X10786772Y19031955D01*
X10884528Y18975515D01*
X10993561Y18946300D01*
X10993563Y18946300D01*
X11106437Y18946300D01*
X11106439Y18946300D01*
X11215472Y18975515D01*
X11313228Y19031955D01*
X11393045Y19111772D01*
X11442613Y19197627D01*
X11493181Y19245841D01*
X11561788Y19259063D01*
X11626652Y19233095D01*
X11657386Y19197628D01*
X11706955Y19111772D01*
X11786772Y19031955D01*
X11884528Y18975515D01*
X11993561Y18946300D01*
X11993563Y18946300D01*
X12106437Y18946300D01*
X12106439Y18946300D01*
X12215472Y18975515D01*
X12313228Y19031955D01*
X12393045Y19111772D01*
X12449485Y19209528D01*
X12478700Y19318561D01*
X12478700Y19431439D01*
X12449485Y19540472D01*
X12393045Y19638228D01*
X12313228Y19718045D01*
X12264350Y19746265D01*
X12215473Y19774485D01*
X12160955Y19789093D01*
X12106439Y19803700D01*
X11993561Y19803700D01*
X11884526Y19774485D01*
X11786772Y19718045D01*
X11786769Y19718043D01*
X11706957Y19638231D01*
X11706951Y19638222D01*
X11657386Y19552375D01*
X11606819Y19504160D01*
X11538212Y19490938D01*
X11473347Y19516906D01*
X11442614Y19552375D01*
X11393048Y19638222D01*
X11393045Y19638228D01*
X11313228Y19718045D01*
X11264350Y19746265D01*
X11215473Y19774485D01*
X11160955Y19789093D01*
X11106439Y19803700D01*
X10993561Y19803700D01*
X10884526Y19774485D01*
X10786772Y19718045D01*
X10786769Y19718043D01*
X10706957Y19638231D01*
X10706955Y19638228D01*
X10650515Y19540474D01*
X10621300Y19431439D01*
X8054673Y19431439D01*
X6177019Y21309093D01*
X6143534Y21370416D01*
X6140700Y21396774D01*
X6140700Y22656439D01*
X6671300Y22656439D01*
X6671300Y22543562D01*
X6700515Y22434527D01*
X6728735Y22385650D01*
X6756955Y22336772D01*
X6836772Y22256955D01*
X6934528Y22200515D01*
X7043561Y22171300D01*
X7043563Y22171300D01*
X7156437Y22171300D01*
X7156439Y22171300D01*
X7265472Y22200515D01*
X7363228Y22256955D01*
X7443045Y22336772D01*
X7499485Y22434528D01*
X7528700Y22543561D01*
X7528700Y22656439D01*
X7499485Y22765472D01*
X7443045Y22863228D01*
X7363228Y22943045D01*
X7314350Y22971265D01*
X7265473Y22999485D01*
X7210955Y23014093D01*
X7156439Y23028700D01*
X7043561Y23028700D01*
X6934526Y22999485D01*
X6836772Y22943045D01*
X6836769Y22943043D01*
X6756957Y22863231D01*
X6756955Y22863228D01*
X6700515Y22765474D01*
X6671300Y22656439D01*
X6140700Y22656439D01*
X6140700Y35047977D01*
X6160385Y35115016D01*
X6213189Y35160771D01*
X6282347Y35170715D01*
X6296780Y35167755D01*
X6376852Y35146300D01*
X6376854Y35146300D01*
X6483146Y35146300D01*
X6483148Y35146300D01*
X6585823Y35173811D01*
X6677878Y35226959D01*
X6753041Y35302122D01*
X6806189Y35394177D01*
X6833700Y35496852D01*
X6833700Y35603148D01*
X6806189Y35705823D01*
X6753041Y35797878D01*
X6677878Y35873041D01*
X6585823Y35926189D01*
X6483148Y35953700D01*
X6376852Y35953700D01*
X6376850Y35953700D01*
X6296792Y35932249D01*
X6226942Y35933912D01*
X6169080Y35973076D01*
X6141577Y36037304D01*
X6140700Y36052024D01*
X6140700Y39703226D01*
X6160385Y39770265D01*
X6177019Y39790907D01*
X6584619Y40198507D01*
X6645942Y40231992D01*
X6715634Y40227008D01*
X6771567Y40185136D01*
X6795984Y40119672D01*
X6796300Y40110826D01*
X6796300Y37253001D01*
X6779689Y37191005D01*
X6773811Y37180825D01*
X6773809Y37180818D01*
X6746300Y37078150D01*
X6746300Y37078148D01*
X6746300Y36971852D01*
X6773811Y36869177D01*
X6826959Y36777122D01*
X6902122Y36701959D01*
X6994177Y36648811D01*
X7096852Y36621300D01*
X7096854Y36621300D01*
X7203146Y36621300D01*
X7203148Y36621300D01*
X7305823Y36648811D01*
X7305832Y36648817D01*
X7313336Y36651923D01*
X7314139Y36649984D01*
X7371186Y36663834D01*
X7437217Y36640993D01*
X7480417Y36586080D01*
X7487071Y36516527D01*
X7485083Y36507881D01*
X7471300Y36456441D01*
X7471300Y36343562D01*
X7500515Y36234527D01*
X7522087Y36197165D01*
X7556955Y36136772D01*
X7636772Y36056955D01*
X7734528Y36000515D01*
X7843561Y35971300D01*
X7843563Y35971300D01*
X7956437Y35971300D01*
X7956439Y35971300D01*
X8065472Y36000515D01*
X8163228Y36056955D01*
X8243045Y36136772D01*
X8277913Y36197166D01*
X8328481Y36245380D01*
X8397088Y36258602D01*
X8461952Y36232634D01*
X8502480Y36175720D01*
X8509300Y36135164D01*
X8509300Y31561912D01*
X8489615Y31494873D01*
X8472981Y31474231D01*
X6955383Y29956633D01*
X6955381Y29956630D01*
X6917111Y29890344D01*
X6917111Y29890343D01*
X6897300Y29816408D01*
X6897300Y29816406D01*
X6897300Y27016336D01*
X6880687Y26954336D01*
X6823812Y26855826D01*
X6823812Y26855825D01*
X6823811Y26855823D01*
X6796300Y26753148D01*
X6796300Y26646852D01*
X6823811Y26544177D01*
X6876959Y26452122D01*
X6952122Y26376959D01*
X7044174Y26323813D01*
X7044177Y26323811D01*
X7048500Y26322653D01*
X7108158Y26286288D01*
X7138687Y26223441D01*
X7130392Y26154066D01*
X7104086Y26115199D01*
X7067383Y26078496D01*
X7067381Y26078493D01*
X7029111Y26012207D01*
X7029111Y26012206D01*
X7009300Y25938271D01*
X7009300Y25938269D01*
X7009300Y25131581D01*
X6989615Y25064542D01*
X6981581Y25054573D01*
X6981906Y25054324D01*
X6976957Y25047875D01*
X6923812Y24955826D01*
X6923812Y24955825D01*
X6923811Y24955823D01*
X6896300Y24853148D01*
X6896300Y24746852D01*
X6923811Y24644177D01*
X6976959Y24552122D01*
X7052122Y24476959D01*
X7144177Y24423811D01*
X7246852Y24396300D01*
X7246854Y24396300D01*
X7353146Y24396300D01*
X7353148Y24396300D01*
X7455823Y24423811D01*
X7547878Y24476959D01*
X7623041Y24552122D01*
X7676189Y24644177D01*
X7703700Y24746852D01*
X7703700Y24853148D01*
X7676189Y24955823D01*
X7623041Y25047878D01*
X7623035Y25047884D01*
X7618094Y25054324D01*
X7620372Y25056073D01*
X7593534Y25105223D01*
X7590700Y25131581D01*
X7590700Y25556439D01*
X8121300Y25556439D01*
X8121300Y25443562D01*
X8150515Y25334527D01*
X8178735Y25285650D01*
X8206955Y25236772D01*
X8286772Y25156955D01*
X8330721Y25131581D01*
X8376373Y25105223D01*
X8384528Y25100515D01*
X8493561Y25071300D01*
X8493563Y25071300D01*
X8606437Y25071300D01*
X8606439Y25071300D01*
X8715472Y25100515D01*
X8813228Y25156955D01*
X8893045Y25236772D01*
X8949485Y25334528D01*
X8978700Y25443561D01*
X8978700Y25556439D01*
X8949485Y25665472D01*
X8896965Y25756439D01*
X11571300Y25756439D01*
X11571300Y25643562D01*
X11600515Y25534527D01*
X11628735Y25485650D01*
X11656955Y25436772D01*
X11736772Y25356955D01*
X11834528Y25300515D01*
X11943561Y25271300D01*
X11943563Y25271300D01*
X12056437Y25271300D01*
X12056439Y25271300D01*
X12165472Y25300515D01*
X12263228Y25356955D01*
X12343045Y25436772D01*
X12399485Y25534528D01*
X12428700Y25643561D01*
X12428700Y25756439D01*
X12399485Y25865472D01*
X12343045Y25963228D01*
X12263228Y26043045D01*
X12201826Y26078496D01*
X12165473Y26099485D01*
X12106826Y26115199D01*
X12056439Y26128700D01*
X11943561Y26128700D01*
X11834526Y26099485D01*
X11736772Y26043045D01*
X11736769Y26043043D01*
X11656957Y25963231D01*
X11656955Y25963228D01*
X11600515Y25865474D01*
X11571300Y25756439D01*
X8896965Y25756439D01*
X8893045Y25763228D01*
X8813228Y25843045D01*
X8764350Y25871265D01*
X8715473Y25899485D01*
X8660955Y25914093D01*
X8606439Y25928700D01*
X8493561Y25928700D01*
X8384526Y25899485D01*
X8286772Y25843045D01*
X8286769Y25843043D01*
X8206957Y25763231D01*
X8206955Y25763228D01*
X8150515Y25665474D01*
X8121300Y25556439D01*
X7590700Y25556439D01*
X7590700Y25728226D01*
X7610385Y25795265D01*
X7627019Y25815907D01*
X7823319Y26012207D01*
X8032618Y26221506D01*
X8070889Y26287794D01*
X8090700Y26361729D01*
X8090700Y26438272D01*
X8090700Y26731439D01*
X8346300Y26731439D01*
X8346300Y26618562D01*
X8375515Y26509527D01*
X8403735Y26460650D01*
X8431955Y26411772D01*
X8511772Y26331955D01*
X8609528Y26275515D01*
X8718561Y26246300D01*
X8718563Y26246300D01*
X8831437Y26246300D01*
X8831439Y26246300D01*
X8940472Y26275515D01*
X9038228Y26331955D01*
X9118045Y26411772D01*
X9174485Y26509528D01*
X9203700Y26618561D01*
X9203700Y26731439D01*
X9174485Y26840472D01*
X9118045Y26938228D01*
X9038228Y27018045D01*
X8989350Y27046265D01*
X8940473Y27074485D01*
X8885955Y27089093D01*
X8831439Y27103700D01*
X8718561Y27103700D01*
X8609526Y27074485D01*
X8511772Y27018045D01*
X8511769Y27018043D01*
X8431957Y26938231D01*
X8431955Y26938228D01*
X8375515Y26840474D01*
X8346300Y26731439D01*
X8090700Y26731439D01*
X8090700Y28081439D01*
X10421300Y28081439D01*
X10421300Y27968561D01*
X10423721Y27959527D01*
X10450515Y27859527D01*
X10477476Y27812831D01*
X10506955Y27761772D01*
X10586772Y27681955D01*
X10684528Y27625515D01*
X10793561Y27596300D01*
X10793563Y27596300D01*
X10906437Y27596300D01*
X10906439Y27596300D01*
X11015472Y27625515D01*
X11113228Y27681955D01*
X11193045Y27761772D01*
X11249485Y27859528D01*
X11278700Y27968561D01*
X11278700Y28081439D01*
X11249485Y28190472D01*
X11193045Y28288228D01*
X11113228Y28368045D01*
X11059937Y28398813D01*
X11015473Y28424485D01*
X10936889Y28445541D01*
X10906439Y28453700D01*
X10793561Y28453700D01*
X10684526Y28424485D01*
X10586772Y28368045D01*
X10586769Y28368043D01*
X10506957Y28288231D01*
X10506955Y28288228D01*
X10450515Y28190474D01*
X10430985Y28117584D01*
X10421300Y28081439D01*
X8090700Y28081439D01*
X8090700Y29603227D01*
X8110385Y29670266D01*
X8127014Y29690904D01*
X9224820Y30788710D01*
X9286141Y30822193D01*
X9355833Y30817209D01*
X9400180Y30788708D01*
X9872981Y30315907D01*
X9887684Y30288980D01*
X9904277Y30263161D01*
X9905168Y30256961D01*
X9906466Y30254584D01*
X9909300Y30228226D01*
X9909300Y30066935D01*
X9889615Y29999896D01*
X9872981Y29979254D01*
X9856957Y29963231D01*
X9856955Y29963228D01*
X9800515Y29865474D01*
X9771300Y29756439D01*
X9771300Y29643562D01*
X9800515Y29534527D01*
X9828735Y29485650D01*
X9856955Y29436772D01*
X9936772Y29356955D01*
X10034528Y29300515D01*
X10143561Y29271300D01*
X10143563Y29271300D01*
X10256437Y29271300D01*
X10256439Y29271300D01*
X10365472Y29300515D01*
X10463228Y29356955D01*
X10543045Y29436772D01*
X10599485Y29534528D01*
X10628700Y29643561D01*
X10628700Y29756439D01*
X10599485Y29865472D01*
X10543045Y29963228D01*
X10527019Y29979254D01*
X10493534Y30040577D01*
X10490700Y30066935D01*
X10490700Y30438269D01*
X10490700Y30438271D01*
X10470889Y30512206D01*
X10432618Y30578494D01*
X10378494Y30632618D01*
X9927019Y31084093D01*
X9893534Y31145416D01*
X9890700Y31171774D01*
X9890700Y35716226D01*
X9898093Y35741406D01*
X9901749Y35767393D01*
X9908654Y35777371D01*
X9910385Y35783265D01*
X9920740Y35797143D01*
X9923748Y35800637D01*
X9944618Y35821506D01*
X9950509Y35831712D01*
X9958111Y35840538D01*
X9965427Y35845272D01*
X9970094Y35850593D01*
X9969480Y35851207D01*
X9991316Y35873043D01*
X10055045Y35936772D01*
X10111485Y36034528D01*
X10140700Y36143561D01*
X10140700Y36256439D01*
X10111485Y36365472D01*
X10055045Y36463228D01*
X9975228Y36543045D01*
X9900690Y36586080D01*
X9877473Y36599485D01*
X9796056Y36621300D01*
X9768439Y36628700D01*
X9655561Y36628700D01*
X9655556Y36628700D01*
X9646788Y36626350D01*
X9576939Y36628016D01*
X9519078Y36667181D01*
X9491576Y36731410D01*
X9490700Y36746126D01*
X9490700Y41806439D01*
X10921300Y41806439D01*
X10921300Y41693562D01*
X10950515Y41584527D01*
X10968314Y41553700D01*
X11006955Y41486772D01*
X11006957Y41486770D01*
X11022981Y41470746D01*
X11056466Y41409423D01*
X11059300Y41383065D01*
X11059300Y39413271D01*
X11059300Y39336729D01*
X11079111Y39262794D01*
X11111085Y39207412D01*
X11117381Y39196508D01*
X11117383Y39196505D01*
X13572981Y36740907D01*
X13606466Y36679584D01*
X13609300Y36653226D01*
X13609300Y32488271D01*
X13609300Y28613271D01*
X13609300Y28536729D01*
X13629111Y28462794D01*
X13651228Y28424485D01*
X13667381Y28396508D01*
X13667383Y28396505D01*
X13884981Y28178907D01*
X13918466Y28117584D01*
X13921300Y28091226D01*
X13921300Y28068562D01*
X13950515Y27959527D01*
X13978735Y27910650D01*
X14006955Y27861772D01*
X14086772Y27781955D01*
X14184528Y27725515D01*
X14293561Y27696300D01*
X14293563Y27696300D01*
X14406437Y27696300D01*
X14406439Y27696300D01*
X14515472Y27725515D01*
X14613228Y27781955D01*
X14613235Y27781963D01*
X14619674Y27786902D01*
X14621086Y27785062D01*
X14671942Y27812831D01*
X14741634Y27807847D01*
X14797567Y27765975D01*
X14821984Y27700511D01*
X14822300Y27691665D01*
X14822300Y11528113D01*
X14818075Y11496021D01*
X14809300Y11463273D01*
X14809300Y9421774D01*
X14789615Y9354735D01*
X14772981Y9334093D01*
X13992382Y8553494D01*
X13992380Y8553492D01*
X13486188Y8047300D01*
X12979065Y7540178D01*
X12942383Y7503496D01*
X12942381Y7503493D01*
X12904111Y7437207D01*
X12904111Y7437206D01*
X12884300Y7363271D01*
X12884300Y6863271D01*
X12884300Y5238271D01*
X12884300Y5161729D01*
X12904111Y5087794D01*
X12942381Y5021508D01*
X12942383Y5021505D01*
X13459981Y4503907D01*
X13493466Y4442584D01*
X13496300Y4416226D01*
X13496300Y4393562D01*
X13525515Y4284527D01*
X13553735Y4235650D01*
X13581955Y4186772D01*
X13661772Y4106955D01*
X13759528Y4050515D01*
X13868561Y4021300D01*
X13868563Y4021300D01*
X13981437Y4021300D01*
X13981439Y4021300D01*
X14090472Y4050515D01*
X14188228Y4106955D01*
X14268045Y4186772D01*
X14324485Y4284528D01*
X14353700Y4393561D01*
X14353700Y4506439D01*
X14324485Y4615472D01*
X14268045Y4713228D01*
X14188228Y4793045D01*
X14139350Y4821265D01*
X14090473Y4849485D01*
X14035955Y4864093D01*
X13981439Y4878700D01*
X13981438Y4878700D01*
X13958774Y4878700D01*
X13891735Y4898385D01*
X13871093Y4915019D01*
X13624953Y5161159D01*
X13591468Y5222482D01*
X13596452Y5292174D01*
X13638324Y5348107D01*
X13703788Y5372524D01*
X13772061Y5357672D01*
X13774635Y5356226D01*
X13784522Y5350518D01*
X13784523Y5350518D01*
X13784528Y5350515D01*
X13893561Y5321300D01*
X13893563Y5321300D01*
X14006437Y5321300D01*
X14006439Y5321300D01*
X14115472Y5350515D01*
X14213228Y5406955D01*
X14293045Y5486772D01*
X14349485Y5584528D01*
X14378700Y5693561D01*
X14378700Y5806439D01*
X14349485Y5915472D01*
X14349484Y5915473D01*
X14349484Y5915475D01*
X14349084Y5916167D01*
X14348923Y5916828D01*
X14346373Y5922986D01*
X14347332Y5923384D01*
X14332608Y5984067D01*
X14355457Y6050095D01*
X14383141Y6075232D01*
X14381779Y6077007D01*
X14388220Y6081951D01*
X14388228Y6081955D01*
X14468045Y6161772D01*
X14524485Y6259528D01*
X14553700Y6368561D01*
X14553700Y6391226D01*
X14573385Y6458265D01*
X14590019Y6478907D01*
X15474383Y7363271D01*
X16407618Y8296506D01*
X16445889Y8362794D01*
X16465700Y8436729D01*
X16465700Y8513272D01*
X16465700Y19388271D01*
X16465700Y28828148D01*
X21271300Y28828148D01*
X21271300Y28721852D01*
X21298811Y28619177D01*
X21351959Y28527122D01*
X21427122Y28451959D01*
X21519177Y28398811D01*
X21621852Y28371300D01*
X21621854Y28371300D01*
X21728146Y28371300D01*
X21728148Y28371300D01*
X21830823Y28398811D01*
X21922878Y28451959D01*
X21998041Y28527122D01*
X22051189Y28619177D01*
X22078700Y28721852D01*
X22078700Y28828148D01*
X22051189Y28930823D01*
X21998041Y29022878D01*
X21922878Y29098041D01*
X21830823Y29151189D01*
X21728148Y29178700D01*
X21621852Y29178700D01*
X21519177Y29151189D01*
X21519175Y29151188D01*
X21519174Y29151188D01*
X21427125Y29098043D01*
X21427119Y29098039D01*
X21351961Y29022881D01*
X21351957Y29022875D01*
X21298812Y28930826D01*
X21298812Y28930825D01*
X21298811Y28930823D01*
X21271300Y28828148D01*
X16465700Y28828148D01*
X16465700Y30631439D01*
X22521300Y30631439D01*
X22521300Y30518562D01*
X22550515Y30409527D01*
X22578735Y30360650D01*
X22606955Y30311772D01*
X22686772Y30231955D01*
X22784528Y30175515D01*
X22893561Y30146300D01*
X22893563Y30146300D01*
X23006437Y30146300D01*
X23006439Y30146300D01*
X23115472Y30175515D01*
X23213228Y30231955D01*
X23293045Y30311772D01*
X23349485Y30409528D01*
X23378700Y30518561D01*
X23378700Y30631439D01*
X23349485Y30740472D01*
X23293045Y30838228D01*
X23213228Y30918045D01*
X23164350Y30946265D01*
X23115473Y30974485D01*
X23060955Y30989093D01*
X23006439Y31003700D01*
X22893561Y31003700D01*
X22784526Y30974485D01*
X22686772Y30918045D01*
X22686769Y30918043D01*
X22606957Y30838231D01*
X22606955Y30838228D01*
X22550515Y30740474D01*
X22521300Y30631439D01*
X16465700Y30631439D01*
X16465700Y37938271D01*
X16445889Y38012206D01*
X16407618Y38078494D01*
X16353494Y38132618D01*
X13415019Y41071093D01*
X13381534Y41132416D01*
X13378700Y41158774D01*
X13378700Y41181437D01*
X13378700Y41181439D01*
X13349485Y41290472D01*
X13293045Y41388228D01*
X13213228Y41468045D01*
X13164350Y41496265D01*
X13115473Y41524485D01*
X13060955Y41539093D01*
X13006439Y41553700D01*
X12893561Y41553700D01*
X12784526Y41524485D01*
X12686772Y41468045D01*
X12686769Y41468043D01*
X12606957Y41388231D01*
X12606955Y41388228D01*
X12550515Y41290474D01*
X12521300Y41181439D01*
X12521300Y41068562D01*
X12550515Y40959527D01*
X12578735Y40910650D01*
X12606955Y40861772D01*
X12606957Y40861770D01*
X12676923Y40791804D01*
X12710408Y40730481D01*
X12705424Y40660789D01*
X12663552Y40604856D01*
X12621338Y40584349D01*
X12584528Y40574486D01*
X12486772Y40518045D01*
X12486769Y40518043D01*
X12406957Y40438231D01*
X12406955Y40438228D01*
X12350515Y40340474D01*
X12321448Y40231992D01*
X12321300Y40231439D01*
X12321300Y40118561D01*
X12329424Y40088243D01*
X12350515Y40009527D01*
X12353999Y40003493D01*
X12406955Y39911772D01*
X12406957Y39911770D01*
X12487489Y39831238D01*
X12520974Y39769915D01*
X12515990Y39700223D01*
X12474118Y39644290D01*
X12441650Y39628514D01*
X12442032Y39627593D01*
X12434528Y39624486D01*
X12336772Y39568045D01*
X12336769Y39568043D01*
X12256957Y39488231D01*
X12256955Y39488228D01*
X12200515Y39390474D01*
X12171300Y39281439D01*
X12171300Y39264174D01*
X12151615Y39197135D01*
X12098811Y39151380D01*
X12029653Y39141436D01*
X11966097Y39170461D01*
X11959619Y39176493D01*
X11677019Y39459093D01*
X11643534Y39520416D01*
X11640700Y39546774D01*
X11640700Y41383065D01*
X11660385Y41450104D01*
X11677019Y41470746D01*
X11693045Y41486772D01*
X11749485Y41584528D01*
X11778700Y41693561D01*
X11778700Y41806439D01*
X11749485Y41915472D01*
X11693045Y42013228D01*
X11613228Y42093045D01*
X11564350Y42121265D01*
X11515473Y42149485D01*
X11460955Y42164093D01*
X11406439Y42178700D01*
X11293561Y42178700D01*
X11184526Y42149485D01*
X11086772Y42093045D01*
X11086769Y42093043D01*
X11006957Y42013231D01*
X11006955Y42013228D01*
X10950515Y41915474D01*
X10921300Y41806439D01*
X9490700Y41806439D01*
X9490700Y42815888D01*
X12247313Y42815888D01*
X12247313Y42703010D01*
X12250351Y42691673D01*
X12276528Y42593976D01*
X12283073Y42582640D01*
X12332968Y42496221D01*
X12412785Y42416404D01*
X12510541Y42359964D01*
X12619574Y42330749D01*
X12619576Y42330749D01*
X12732450Y42330749D01*
X12732452Y42330749D01*
X12841485Y42359964D01*
X12939241Y42416404D01*
X12987029Y42464193D01*
X13048350Y42497677D01*
X13118041Y42492693D01*
X13162390Y42464192D01*
X13221515Y42405067D01*
X13319271Y42348627D01*
X13428304Y42319412D01*
X13428306Y42319412D01*
X13541180Y42319412D01*
X13541182Y42319412D01*
X13650215Y42348627D01*
X13747971Y42405067D01*
X13827788Y42484884D01*
X13884228Y42582640D01*
X13913443Y42691673D01*
X13913443Y42804551D01*
X13884228Y42913584D01*
X13827788Y43011340D01*
X13747971Y43091157D01*
X13677074Y43132090D01*
X13650216Y43147597D01*
X13595698Y43162205D01*
X13541182Y43176812D01*
X13428304Y43176812D01*
X13319269Y43147597D01*
X13221515Y43091157D01*
X13221511Y43091154D01*
X13173726Y43043369D01*
X13112403Y43009885D01*
X13042711Y43014870D01*
X12998365Y43043370D01*
X12939243Y43102492D01*
X12939241Y43102494D01*
X12887980Y43132090D01*
X12841486Y43158934D01*
X12786968Y43173542D01*
X12732452Y43188149D01*
X12619574Y43188149D01*
X12510539Y43158934D01*
X12412785Y43102494D01*
X12412782Y43102492D01*
X12332970Y43022680D01*
X12332968Y43022677D01*
X12276528Y42924923D01*
X12247313Y42815888D01*
X9490700Y42815888D01*
X9490700Y47723936D01*
X10275512Y47723936D01*
X10275512Y47617640D01*
X10303023Y47514965D01*
X10303024Y47514964D01*
X10303024Y47514963D01*
X10320739Y47484280D01*
X10356171Y47422910D01*
X10431334Y47347747D01*
X10523389Y47294599D01*
X10626064Y47267088D01*
X10626066Y47267088D01*
X10732358Y47267088D01*
X10732360Y47267088D01*
X10835035Y47294599D01*
X10927090Y47347747D01*
X11002253Y47422910D01*
X11046147Y47498936D01*
X11475512Y47498936D01*
X11475512Y47392640D01*
X11503023Y47289965D01*
X11556171Y47197910D01*
X11631334Y47122747D01*
X11723389Y47069599D01*
X11826064Y47042088D01*
X11826066Y47042088D01*
X11932358Y47042088D01*
X11932360Y47042088D01*
X12035035Y47069599D01*
X12127090Y47122747D01*
X12191531Y47187188D01*
X12252854Y47220673D01*
X12322546Y47215689D01*
X12366893Y47187188D01*
X12431334Y47122747D01*
X12523389Y47069599D01*
X12626064Y47042088D01*
X12626066Y47042088D01*
X12732358Y47042088D01*
X12732360Y47042088D01*
X12835035Y47069599D01*
X12927090Y47122747D01*
X13002253Y47197910D01*
X13055401Y47289965D01*
X13082912Y47392640D01*
X13082912Y47473936D01*
X13650512Y47473936D01*
X13650512Y47367640D01*
X13678023Y47264965D01*
X13731171Y47172910D01*
X13806334Y47097747D01*
X13898389Y47044599D01*
X14001064Y47017088D01*
X14001066Y47017088D01*
X14107358Y47017088D01*
X14107360Y47017088D01*
X14210035Y47044599D01*
X14302090Y47097747D01*
X14377253Y47172910D01*
X14430401Y47264965D01*
X14457912Y47367640D01*
X14457912Y47473936D01*
X14451213Y47498936D01*
X16475512Y47498936D01*
X16475512Y47392640D01*
X16503023Y47289965D01*
X16556171Y47197910D01*
X16631334Y47122747D01*
X16723389Y47069599D01*
X16826064Y47042088D01*
X16826066Y47042088D01*
X16932358Y47042088D01*
X16932360Y47042088D01*
X17035035Y47069599D01*
X17127090Y47122747D01*
X17202253Y47197910D01*
X17255401Y47289965D01*
X17282912Y47392640D01*
X17282912Y47498936D01*
X17255401Y47601611D01*
X17202253Y47693666D01*
X17127090Y47768829D01*
X17035035Y47821977D01*
X16932360Y47849488D01*
X16826064Y47849488D01*
X16723389Y47821977D01*
X16723387Y47821976D01*
X16723386Y47821976D01*
X16631337Y47768831D01*
X16631331Y47768827D01*
X16556173Y47693669D01*
X16556169Y47693663D01*
X16503024Y47601614D01*
X16503024Y47601613D01*
X16503023Y47601611D01*
X16475512Y47498936D01*
X14451213Y47498936D01*
X14430401Y47576611D01*
X14377253Y47668666D01*
X14302090Y47743829D01*
X14210035Y47796977D01*
X14107360Y47824488D01*
X14001064Y47824488D01*
X13898389Y47796977D01*
X13898387Y47796976D01*
X13898386Y47796976D01*
X13806337Y47743831D01*
X13806331Y47743827D01*
X13731173Y47668669D01*
X13731169Y47668663D01*
X13678024Y47576614D01*
X13678024Y47576613D01*
X13678023Y47576611D01*
X13650512Y47473936D01*
X13082912Y47473936D01*
X13082912Y47498936D01*
X13055401Y47601611D01*
X13002253Y47693666D01*
X12927090Y47768829D01*
X12835035Y47821977D01*
X12732360Y47849488D01*
X12626064Y47849488D01*
X12523389Y47821977D01*
X12523387Y47821976D01*
X12523386Y47821976D01*
X12431337Y47768831D01*
X12431331Y47768827D01*
X12366893Y47704388D01*
X12305570Y47670903D01*
X12235878Y47675887D01*
X12191531Y47704388D01*
X12127092Y47768827D01*
X12127090Y47768829D01*
X12035035Y47821977D01*
X11932360Y47849488D01*
X11826064Y47849488D01*
X11723389Y47821977D01*
X11723387Y47821976D01*
X11723386Y47821976D01*
X11631337Y47768831D01*
X11631331Y47768827D01*
X11556173Y47693669D01*
X11556169Y47693663D01*
X11503024Y47601614D01*
X11503024Y47601613D01*
X11503023Y47601611D01*
X11475512Y47498936D01*
X11046147Y47498936D01*
X11055401Y47514965D01*
X11082912Y47617640D01*
X11082912Y47723936D01*
X11055401Y47826611D01*
X11002253Y47918666D01*
X10927090Y47993829D01*
X10835035Y48046977D01*
X10732360Y48074488D01*
X10626064Y48074488D01*
X10523389Y48046977D01*
X10523387Y48046976D01*
X10523386Y48046976D01*
X10431337Y47993831D01*
X10431331Y47993827D01*
X10356173Y47918669D01*
X10356169Y47918663D01*
X10303024Y47826614D01*
X10303024Y47826613D01*
X10303023Y47826611D01*
X10275512Y47723936D01*
X9490700Y47723936D01*
X9490700Y49323936D01*
X18185512Y49323936D01*
X18185512Y49217640D01*
X18213023Y49114965D01*
X18266171Y49022910D01*
X18341334Y48947747D01*
X18433389Y48894599D01*
X18536064Y48867088D01*
X18536066Y48867088D01*
X18642358Y48867088D01*
X18642360Y48867088D01*
X18745035Y48894599D01*
X18837090Y48947747D01*
X18912253Y49022910D01*
X18965401Y49114965D01*
X18992912Y49217640D01*
X18992912Y49323936D01*
X18965401Y49426611D01*
X18912253Y49518666D01*
X18837090Y49593829D01*
X18745035Y49646977D01*
X18642360Y49674488D01*
X18536064Y49674488D01*
X18433389Y49646977D01*
X18433387Y49646976D01*
X18433386Y49646976D01*
X18341337Y49593831D01*
X18341331Y49593827D01*
X18266173Y49518669D01*
X18266169Y49518663D01*
X18213024Y49426614D01*
X18213024Y49426613D01*
X18213023Y49426611D01*
X18185512Y49323936D01*
X9490700Y49323936D01*
X9490700Y51898936D01*
X10250512Y51898936D01*
X10250512Y51792640D01*
X10278023Y51689965D01*
X10331171Y51597910D01*
X10331173Y51597908D01*
X10395612Y51533469D01*
X10429097Y51472146D01*
X10424113Y51402454D01*
X10395612Y51358107D01*
X10331173Y51293669D01*
X10331169Y51293663D01*
X10278024Y51201614D01*
X10278024Y51201613D01*
X10278023Y51201611D01*
X10250512Y51098936D01*
X10250512Y50992640D01*
X10278023Y50889965D01*
X10331171Y50797910D01*
X10406334Y50722747D01*
X10498389Y50669599D01*
X10601064Y50642088D01*
X10601066Y50642088D01*
X10707358Y50642088D01*
X10707360Y50642088D01*
X10810035Y50669599D01*
X10902090Y50722747D01*
X10977253Y50797910D01*
X11030401Y50889965D01*
X11057912Y50992640D01*
X11057912Y51098936D01*
X11030401Y51201611D01*
X10977253Y51293666D01*
X10971983Y51298936D01*
X18375512Y51298936D01*
X18375512Y51192640D01*
X18403023Y51089965D01*
X18456171Y50997910D01*
X18531334Y50922747D01*
X18623389Y50869599D01*
X18726064Y50842088D01*
X18726066Y50842088D01*
X18832358Y50842088D01*
X18832360Y50842088D01*
X18935035Y50869599D01*
X19027090Y50922747D01*
X19102253Y50997910D01*
X19155401Y51089965D01*
X19182912Y51192640D01*
X19182912Y51298936D01*
X19155401Y51401611D01*
X19102253Y51493666D01*
X19027090Y51568829D01*
X18935035Y51621977D01*
X18832360Y51649488D01*
X18726064Y51649488D01*
X18623389Y51621977D01*
X18623387Y51621976D01*
X18623386Y51621976D01*
X18531337Y51568831D01*
X18531331Y51568827D01*
X18456173Y51493669D01*
X18456169Y51493663D01*
X18403024Y51401614D01*
X18403024Y51401613D01*
X18403023Y51401611D01*
X18375512Y51298936D01*
X10971983Y51298936D01*
X10908191Y51362728D01*
X10904083Y51367807D01*
X10893064Y51394272D01*
X10879327Y51419430D01*
X10879805Y51426119D01*
X10877228Y51432309D01*
X10882266Y51460529D01*
X10884311Y51489122D01*
X10888548Y51495715D01*
X10889508Y51501091D01*
X10897630Y51509848D01*
X10912812Y51533469D01*
X10977253Y51597910D01*
X11030401Y51689965D01*
X11057912Y51792640D01*
X11057912Y51898936D01*
X11030401Y52001611D01*
X10977253Y52093666D01*
X10902090Y52168829D01*
X10810035Y52221977D01*
X10707360Y52249488D01*
X10601064Y52249488D01*
X10498389Y52221977D01*
X10498387Y52221976D01*
X10498386Y52221976D01*
X10406337Y52168831D01*
X10406331Y52168827D01*
X10331173Y52093669D01*
X10331169Y52093663D01*
X10278024Y52001614D01*
X10278024Y52001613D01*
X10278023Y52001611D01*
X10250512Y51898936D01*
X9490700Y51898936D01*
X9490700Y53298936D01*
X18325512Y53298936D01*
X18325512Y53192640D01*
X18353023Y53089965D01*
X18406171Y52997910D01*
X18481334Y52922747D01*
X18573389Y52869599D01*
X18676064Y52842088D01*
X18676066Y52842088D01*
X18782358Y52842088D01*
X18782360Y52842088D01*
X18885035Y52869599D01*
X18977090Y52922747D01*
X19052253Y52997910D01*
X19105401Y53089965D01*
X19132912Y53192640D01*
X19132912Y53298936D01*
X19105401Y53401611D01*
X19052253Y53493666D01*
X18977090Y53568829D01*
X18885035Y53621977D01*
X18782360Y53649488D01*
X18676064Y53649488D01*
X18573389Y53621977D01*
X18573387Y53621976D01*
X18573386Y53621976D01*
X18481337Y53568831D01*
X18481331Y53568827D01*
X18406173Y53493669D01*
X18406169Y53493663D01*
X18353024Y53401614D01*
X18353024Y53401613D01*
X18353023Y53401611D01*
X18325512Y53298936D01*
X9490700Y53298936D01*
X9490700Y54428226D01*
X9510385Y54495265D01*
X9527019Y54515907D01*
X9811630Y54800518D01*
X10130688Y55119577D01*
X10192009Y55153060D01*
X10261700Y55148076D01*
X10317634Y55106205D01*
X10325754Y55093895D01*
X10328022Y55089966D01*
X10328023Y55089965D01*
X10381171Y54997910D01*
X10456334Y54922747D01*
X10548389Y54869599D01*
X10651064Y54842088D01*
X10651066Y54842088D01*
X10757358Y54842088D01*
X10757360Y54842088D01*
X10860035Y54869599D01*
X10952090Y54922747D01*
X11027253Y54997910D01*
X11080401Y55089965D01*
X11107912Y55192640D01*
X11107912Y55298936D01*
X11080401Y55401611D01*
X11027253Y55493666D01*
X11021983Y55498936D01*
X13650512Y55498936D01*
X13650512Y55392640D01*
X13678023Y55289965D01*
X13731171Y55197910D01*
X13806334Y55122747D01*
X13898389Y55069599D01*
X14001064Y55042088D01*
X14001066Y55042088D01*
X14107358Y55042088D01*
X14107360Y55042088D01*
X14210035Y55069599D01*
X14302090Y55122747D01*
X14377253Y55197910D01*
X14430401Y55289965D01*
X14457912Y55392640D01*
X14457912Y55498936D01*
X14451213Y55523936D01*
X14875512Y55523936D01*
X14875512Y55417640D01*
X14903023Y55314965D01*
X14903024Y55314964D01*
X14903024Y55314963D01*
X14917457Y55289965D01*
X14956171Y55222910D01*
X15031334Y55147747D01*
X15123389Y55094599D01*
X15226064Y55067088D01*
X15226066Y55067088D01*
X15332358Y55067088D01*
X15332360Y55067088D01*
X15435035Y55094599D01*
X15527090Y55147747D01*
X15602253Y55222910D01*
X15655401Y55314965D01*
X15682912Y55417640D01*
X15682912Y55523936D01*
X16875512Y55523936D01*
X16875512Y55417640D01*
X16903023Y55314965D01*
X16903024Y55314964D01*
X16903024Y55314963D01*
X16917457Y55289965D01*
X16956171Y55222910D01*
X17031334Y55147747D01*
X17123389Y55094599D01*
X17226064Y55067088D01*
X17226066Y55067088D01*
X17332358Y55067088D01*
X17332360Y55067088D01*
X17435035Y55094599D01*
X17527090Y55147747D01*
X17602253Y55222910D01*
X17655401Y55314965D01*
X17682912Y55417640D01*
X17682912Y55523936D01*
X17655401Y55626611D01*
X17602253Y55718666D01*
X17527090Y55793829D01*
X17435035Y55846977D01*
X17332360Y55874488D01*
X17226064Y55874488D01*
X17123389Y55846977D01*
X17123387Y55846976D01*
X17123386Y55846976D01*
X17031337Y55793831D01*
X17031331Y55793827D01*
X16956173Y55718669D01*
X16956169Y55718663D01*
X16903024Y55626614D01*
X16903024Y55626613D01*
X16903023Y55626611D01*
X16875512Y55523936D01*
X15682912Y55523936D01*
X15655401Y55626611D01*
X15602253Y55718666D01*
X15527090Y55793829D01*
X15435035Y55846977D01*
X15332360Y55874488D01*
X15226064Y55874488D01*
X15123389Y55846977D01*
X15123387Y55846976D01*
X15123386Y55846976D01*
X15031337Y55793831D01*
X15031331Y55793827D01*
X14956173Y55718669D01*
X14956169Y55718663D01*
X14903024Y55626614D01*
X14903024Y55626613D01*
X14903023Y55626611D01*
X14875512Y55523936D01*
X14451213Y55523936D01*
X14430401Y55601611D01*
X14377253Y55693666D01*
X14302090Y55768829D01*
X14210035Y55821977D01*
X14107360Y55849488D01*
X14001064Y55849488D01*
X13898389Y55821977D01*
X13898387Y55821976D01*
X13898386Y55821976D01*
X13806337Y55768831D01*
X13806331Y55768827D01*
X13731173Y55693669D01*
X13731169Y55693663D01*
X13678024Y55601614D01*
X13678024Y55601613D01*
X13678023Y55601611D01*
X13650512Y55498936D01*
X11021983Y55498936D01*
X11014444Y55506475D01*
X11007540Y55516919D01*
X11000798Y55538828D01*
X10989815Y55558942D01*
X10990719Y55571583D01*
X10986991Y55583698D01*
X10993164Y55605773D01*
X10994799Y55628634D01*
X11002394Y55638781D01*
X11005808Y55650986D01*
X11022935Y55666219D01*
X11036671Y55684567D01*
X11048545Y55688996D01*
X11058017Y55697420D01*
X11080662Y55700976D01*
X11102135Y55708984D01*
X11110981Y55709300D01*
X12138268Y55709300D01*
X12138271Y55709300D01*
X12212206Y55729111D01*
X12278494Y55767382D01*
X13998830Y57487718D01*
X14037101Y57554006D01*
X14056912Y57627941D01*
X14056912Y57704484D01*
X14056912Y57968419D01*
X14076597Y58035458D01*
X14084630Y58045428D01*
X14084306Y58045676D01*
X14089244Y58052114D01*
X14089253Y58052122D01*
X14142401Y58144177D01*
X14169912Y58246852D01*
X14169912Y58353148D01*
X14142401Y58455823D01*
X14089253Y58547878D01*
X14014090Y58623041D01*
X13936406Y58667892D01*
X13922037Y58676188D01*
X13922036Y58676189D01*
X13922035Y58676189D01*
X13819360Y58703700D01*
X13713064Y58703700D01*
X13610388Y58676189D01*
X13576699Y58656738D01*
X13570797Y58655307D01*
X13566211Y58651332D01*
X13537248Y58647168D01*
X13508799Y58640266D01*
X13503061Y58642252D01*
X13497053Y58641388D01*
X13470431Y58653546D01*
X13442772Y58663119D01*
X13439019Y58667892D01*
X13433497Y58670413D01*
X13417673Y58695036D01*
X13399582Y58718041D01*
X13398165Y58725391D01*
X13395723Y58729191D01*
X13390700Y58764126D01*
X13390700Y58768419D01*
X13410385Y58835458D01*
X13418418Y58845428D01*
X13418094Y58845676D01*
X13423032Y58852114D01*
X13423041Y58852122D01*
X13476189Y58944177D01*
X13503700Y59046852D01*
X13503700Y59153148D01*
X13476189Y59255823D01*
X13423041Y59347878D01*
X13347878Y59423041D01*
X13255823Y59476189D01*
X13153148Y59503700D01*
X13046852Y59503700D01*
X12944177Y59476189D01*
X12944175Y59476188D01*
X12944174Y59476188D01*
X12852125Y59423043D01*
X12852119Y59423039D01*
X12776961Y59347881D01*
X12776957Y59347875D01*
X12723812Y59255826D01*
X12723812Y59255825D01*
X12723811Y59255823D01*
X12696300Y59153148D01*
X12696300Y59046852D01*
X12723811Y58944177D01*
X12776959Y58852122D01*
X12776963Y58852118D01*
X12781906Y58845676D01*
X12779627Y58843928D01*
X12806466Y58794777D01*
X12809300Y58768419D01*
X12809300Y57971774D01*
X12789615Y57904735D01*
X12772981Y57884093D01*
X11665907Y56777019D01*
X11604584Y56743534D01*
X11578226Y56740700D01*
X10538271Y56740700D01*
X10461729Y56740700D01*
X10406277Y56725842D01*
X10387793Y56720889D01*
X10321507Y56682619D01*
X10321504Y56682617D01*
X8665381Y55026493D01*
X8604058Y54993008D01*
X8534366Y54997992D01*
X8478433Y55039864D01*
X8454016Y55105328D01*
X8453700Y55114174D01*
X8453700Y61277131D01*
X8473385Y61344170D01*
X8490019Y61364812D01*
X11949725Y64824518D01*
X21871300Y64824518D01*
X21871300Y64711641D01*
X21900515Y64602606D01*
X21923959Y64562001D01*
X21956955Y64504851D01*
X21956957Y64504849D01*
X21999159Y64462647D01*
X22032644Y64401324D01*
X22027660Y64331632D01*
X21999160Y64287286D01*
X21956958Y64245084D01*
X21956955Y64245080D01*
X21900515Y64147326D01*
X21871300Y64038291D01*
X21871300Y63925414D01*
X21900515Y63816379D01*
X21924824Y63774276D01*
X21956955Y63718624D01*
X22036772Y63638807D01*
X22134528Y63582367D01*
X22243561Y63553152D01*
X22243563Y63553152D01*
X22356437Y63553152D01*
X22356439Y63553152D01*
X22465472Y63582367D01*
X22563228Y63638807D01*
X22643045Y63718624D01*
X22699485Y63816380D01*
X22728700Y63925413D01*
X22728700Y64038291D01*
X22699485Y64147324D01*
X22643045Y64245080D01*
X22600839Y64287286D01*
X22567355Y64348608D01*
X22572339Y64418300D01*
X22600839Y64462646D01*
X22643045Y64504851D01*
X22699485Y64602607D01*
X22728700Y64711640D01*
X22728700Y64824518D01*
X22699485Y64933551D01*
X22643045Y65031307D01*
X22563228Y65111124D01*
X22507940Y65143045D01*
X22465473Y65167564D01*
X22410955Y65182172D01*
X22356439Y65196779D01*
X22243561Y65196779D01*
X22134526Y65167564D01*
X22036772Y65111124D01*
X22036769Y65111122D01*
X21956957Y65031310D01*
X21956955Y65031307D01*
X21900515Y64933553D01*
X21871300Y64824518D01*
X11949725Y64824518D01*
X12508355Y65383148D01*
X18566300Y65383148D01*
X18566300Y65276852D01*
X18593811Y65174177D01*
X18646959Y65082122D01*
X18722122Y65006959D01*
X18814177Y64953811D01*
X18916852Y64926300D01*
X18916854Y64926300D01*
X19023146Y64926300D01*
X19023148Y64926300D01*
X19125823Y64953811D01*
X19217878Y65006959D01*
X19267319Y65056400D01*
X19328642Y65089885D01*
X19398334Y65084901D01*
X19442681Y65056400D01*
X19512122Y64986959D01*
X19604177Y64933811D01*
X19706852Y64906300D01*
X19706854Y64906300D01*
X19813146Y64906300D01*
X19813148Y64906300D01*
X19915823Y64933811D01*
X20007878Y64986959D01*
X20083041Y65062122D01*
X20112388Y65112954D01*
X20162953Y65161167D01*
X20231560Y65174391D01*
X20282680Y65154271D01*
X20284030Y65156607D01*
X20291068Y65152544D01*
X20291069Y65152543D01*
X20383124Y65099395D01*
X20485799Y65071884D01*
X20485801Y65071884D01*
X20592093Y65071884D01*
X20592095Y65071884D01*
X20694770Y65099395D01*
X20786825Y65152543D01*
X20861988Y65227706D01*
X20861990Y65227711D01*
X20864785Y65230505D01*
X20926108Y65263990D01*
X20995800Y65259006D01*
X21040148Y65230505D01*
X21043531Y65227122D01*
X21118694Y65151959D01*
X21210749Y65098811D01*
X21313424Y65071300D01*
X21313426Y65071300D01*
X21419718Y65071300D01*
X21419720Y65071300D01*
X21522395Y65098811D01*
X21614450Y65151959D01*
X21689613Y65227122D01*
X21742761Y65319177D01*
X21770272Y65421852D01*
X21770272Y65433197D01*
X21778916Y65462638D01*
X21785440Y65492624D01*
X21789194Y65497640D01*
X21789957Y65500236D01*
X21806591Y65520878D01*
X21870694Y65584981D01*
X21932017Y65618466D01*
X21958375Y65621300D01*
X22483197Y65621300D01*
X22550236Y65601615D01*
X22570878Y65584981D01*
X24596338Y63559521D01*
X24629823Y63498198D01*
X24624839Y63428506D01*
X24582967Y63372573D01*
X24540750Y63352066D01*
X24444177Y63326189D01*
X24444175Y63326188D01*
X24444174Y63326188D01*
X24352125Y63273043D01*
X24352119Y63273039D01*
X24276961Y63197881D01*
X24276957Y63197875D01*
X24223812Y63105826D01*
X24223812Y63105825D01*
X24223811Y63105823D01*
X24196300Y63003148D01*
X24196300Y62896852D01*
X24223811Y62794177D01*
X24276959Y62702122D01*
X24352122Y62626959D01*
X24404850Y62596516D01*
X24453064Y62545952D01*
X24466288Y62477345D01*
X24440320Y62412480D01*
X24430531Y62401450D01*
X24376958Y62347877D01*
X24376957Y62347875D01*
X24323812Y62255826D01*
X24323812Y62255825D01*
X24323811Y62255823D01*
X24296300Y62153148D01*
X24296300Y62046852D01*
X24323811Y61944177D01*
X24323812Y61944176D01*
X24323812Y61944175D01*
X24341527Y61913492D01*
X24376959Y61852122D01*
X24376961Y61852120D01*
X24392309Y61836772D01*
X24425794Y61775449D01*
X24420810Y61705757D01*
X24383973Y61655932D01*
X24384493Y61655412D01*
X24381023Y61651943D01*
X24380119Y61650719D01*
X24378747Y61649667D01*
X24303585Y61574505D01*
X24303581Y61574499D01*
X24250436Y61482450D01*
X24250436Y61482449D01*
X24250435Y61482447D01*
X24222924Y61379772D01*
X24222924Y61273476D01*
X24250435Y61170801D01*
X24250436Y61170800D01*
X24250436Y61170799D01*
X24251478Y61168995D01*
X24303583Y61078746D01*
X24378746Y61003583D01*
X24399775Y60991442D01*
X24447989Y60940878D01*
X24461213Y60872271D01*
X24435246Y60807406D01*
X24425456Y60796376D01*
X24376962Y60747882D01*
X24376957Y60747875D01*
X24323812Y60655826D01*
X24323812Y60655825D01*
X24323811Y60655823D01*
X24296300Y60553148D01*
X24296300Y60446852D01*
X24323811Y60344177D01*
X24376959Y60252122D01*
X24376961Y60252120D01*
X24426400Y60202681D01*
X24459885Y60141358D01*
X24454901Y60071666D01*
X24426400Y60027319D01*
X24376961Y59977881D01*
X24376957Y59977875D01*
X24323812Y59885826D01*
X24323812Y59885825D01*
X24323811Y59885823D01*
X24296300Y59783148D01*
X24296300Y59676852D01*
X24323811Y59574177D01*
X24376959Y59482122D01*
X24452122Y59406959D01*
X24544177Y59353811D01*
X24646852Y59326300D01*
X24646854Y59326300D01*
X24753146Y59326300D01*
X24753148Y59326300D01*
X24855823Y59353811D01*
X24947878Y59406959D01*
X24947886Y59406968D01*
X24952706Y59410666D01*
X25017874Y59435865D01*
X25086320Y59421832D01*
X25115882Y59399977D01*
X25714981Y58800878D01*
X25748466Y58739555D01*
X25751300Y58713197D01*
X25751300Y58332204D01*
X25731615Y58265165D01*
X25678811Y58219410D01*
X25609653Y58209466D01*
X25546097Y58238491D01*
X25539619Y58244523D01*
X25290086Y58494055D01*
X25290084Y58494058D01*
X25231125Y58553017D01*
X25167574Y58589707D01*
X25167575Y58589707D01*
X25149853Y58594456D01*
X25096692Y58608700D01*
X25096689Y58608700D01*
X25005943Y58608700D01*
X24943943Y58625313D01*
X24855825Y58676188D01*
X24855824Y58676189D01*
X24855823Y58676189D01*
X24753148Y58703700D01*
X24646852Y58703700D01*
X24544177Y58676189D01*
X24544175Y58676188D01*
X24544174Y58676188D01*
X24452125Y58623043D01*
X24452119Y58623039D01*
X24376961Y58547881D01*
X24376957Y58547875D01*
X24323812Y58455826D01*
X24323812Y58455825D01*
X24323811Y58455823D01*
X24296300Y58353148D01*
X24296300Y58246852D01*
X24323811Y58144177D01*
X24376959Y58052122D01*
X24376961Y58052120D01*
X24416400Y58012681D01*
X24449885Y57951358D01*
X24444901Y57881666D01*
X24416400Y57837319D01*
X24376961Y57797881D01*
X24376957Y57797875D01*
X24323812Y57705826D01*
X24323812Y57705825D01*
X24323811Y57705823D01*
X24296300Y57603148D01*
X24296300Y57496852D01*
X24323811Y57394177D01*
X24376959Y57302122D01*
X24452122Y57226959D01*
X24544177Y57173811D01*
X24646852Y57146300D01*
X24646854Y57146300D01*
X24753145Y57146300D01*
X24753148Y57146300D01*
X24855823Y57173811D01*
X24855828Y57173815D01*
X24862560Y57175618D01*
X24874561Y57175333D01*
X24885808Y57179527D01*
X24908842Y57174517D01*
X24932410Y57173955D01*
X24944057Y57166856D01*
X24954081Y57164675D01*
X24982335Y57143524D01*
X25144981Y56980878D01*
X25178466Y56919555D01*
X25181300Y56893197D01*
X25181300Y20276804D01*
X25161615Y20209765D01*
X25144981Y20189123D01*
X21701985Y16746128D01*
X21701983Y16746126D01*
X21665293Y16682575D01*
X21665293Y16682574D01*
X21646300Y16611692D01*
X21646300Y16611690D01*
X21646300Y10166804D01*
X21626615Y10099765D01*
X21609981Y10079123D01*
X21301985Y9771128D01*
X21301983Y9771126D01*
X21265293Y9707575D01*
X21265293Y9707574D01*
X21246300Y9636692D01*
X21246300Y9636690D01*
X21246300Y8816805D01*
X21226615Y8749766D01*
X21209981Y8729124D01*
X21043570Y8562713D01*
X21006880Y8499162D01*
X21006113Y8496300D01*
X20987887Y8428279D01*
X20987887Y8428277D01*
X20987887Y8376994D01*
X20968202Y8309955D01*
X20951568Y8289313D01*
X20943548Y8281294D01*
X20943544Y8281288D01*
X20890399Y8189239D01*
X20890399Y8189238D01*
X20890398Y8189236D01*
X20862887Y8086561D01*
X20862887Y7980265D01*
X20890398Y7877590D01*
X20943546Y7785535D01*
X21018709Y7710372D01*
X21110764Y7657224D01*
X21213439Y7629713D01*
X21213441Y7629713D01*
X21319733Y7629713D01*
X21319735Y7629713D01*
X21422410Y7657224D01*
X21482304Y7691805D01*
X21550200Y7708277D01*
X21616228Y7685426D01*
X21620563Y7681759D01*
X21620676Y7681906D01*
X21627116Y7676965D01*
X21627122Y7676959D01*
X21719177Y7623811D01*
X21821852Y7596300D01*
X21821854Y7596300D01*
X21928146Y7596300D01*
X21928148Y7596300D01*
X22030823Y7623811D01*
X22122878Y7676959D01*
X22198041Y7752122D01*
X22251189Y7844177D01*
X22278700Y7946852D01*
X22278700Y8047300D01*
X22298385Y8114339D01*
X22351189Y8160094D01*
X22395164Y8169661D01*
X22395088Y8170239D01*
X22402016Y8171152D01*
X22402700Y8171300D01*
X22403146Y8171300D01*
X22403148Y8171300D01*
X22505823Y8198811D01*
X22597878Y8251959D01*
X22673041Y8327122D01*
X22701064Y8375661D01*
X22751628Y8423875D01*
X22820235Y8437099D01*
X22824644Y8436598D01*
X22830571Y8435818D01*
X22830576Y8435816D01*
X22830581Y8435816D01*
X22936870Y8435816D01*
X22936872Y8435816D01*
X23039547Y8463327D01*
X23113943Y8506280D01*
X23181840Y8522752D01*
X23237940Y8506280D01*
X23294177Y8473811D01*
X23396852Y8446300D01*
X23396854Y8446300D01*
X23503146Y8446300D01*
X23503148Y8446300D01*
X23515206Y8449531D01*
X23585054Y8447870D01*
X23642917Y8408708D01*
X23670423Y8344480D01*
X23671300Y8329757D01*
X23671300Y7766803D01*
X23651615Y7699764D01*
X23634981Y7679122D01*
X23295878Y7340019D01*
X23234555Y7306534D01*
X23208197Y7303700D01*
X23196852Y7303700D01*
X23094177Y7276189D01*
X23094175Y7276188D01*
X23094174Y7276188D01*
X23002125Y7223043D01*
X23002119Y7223039D01*
X22926961Y7147881D01*
X22926957Y7147875D01*
X22873812Y7055826D01*
X22873812Y7055825D01*
X22873811Y7055823D01*
X22846300Y6953148D01*
X22846300Y6846852D01*
X22873811Y6744177D01*
X22926959Y6652122D01*
X23002122Y6576959D01*
X23094177Y6523811D01*
X23196852Y6496300D01*
X23196854Y6496300D01*
X23303146Y6496300D01*
X23303148Y6496300D01*
X23405823Y6523811D01*
X23497878Y6576959D01*
X23573041Y6652122D01*
X23612635Y6720701D01*
X23663199Y6768914D01*
X23731806Y6782138D01*
X23796671Y6756170D01*
X23807701Y6746380D01*
X23827122Y6726959D01*
X23919177Y6673811D01*
X24021852Y6646300D01*
X24021854Y6646300D01*
X24023752Y6646300D01*
X24025294Y6645847D01*
X24029912Y6645239D01*
X24029817Y6644520D01*
X24090791Y6626615D01*
X24136546Y6573811D01*
X24145916Y6511275D01*
X24146300Y6511275D01*
X24146300Y6508712D01*
X24146690Y6506109D01*
X24146300Y6503148D01*
X24146300Y6396852D01*
X24173811Y6294177D01*
X24226959Y6202122D01*
X24302122Y6126959D01*
X24350876Y6098811D01*
X24363265Y6091658D01*
X24411481Y6041091D01*
X24424704Y5972484D01*
X24421528Y5954883D01*
X24421300Y5953150D01*
X24421300Y5953148D01*
X24421300Y5846852D01*
X24448811Y5744177D01*
X24448812Y5744176D01*
X24448812Y5744175D01*
X24466527Y5713492D01*
X24501959Y5652122D01*
X24501961Y5652120D01*
X24544351Y5609730D01*
X24577836Y5548407D01*
X24573608Y5489292D01*
X24575914Y5488674D01*
X24546300Y5378150D01*
X24546300Y5378148D01*
X24546300Y5271852D01*
X24573811Y5169177D01*
X24626959Y5077122D01*
X24702122Y5001959D01*
X24794177Y4948811D01*
X24896852Y4921300D01*
X24896854Y4921300D01*
X25003146Y4921300D01*
X25003148Y4921300D01*
X25105823Y4948811D01*
X25197878Y5001959D01*
X25273041Y5077122D01*
X25326189Y5169177D01*
X25353700Y5271852D01*
X25353700Y5283197D01*
X25373385Y5350236D01*
X25390019Y5370878D01*
X25515795Y5496654D01*
X25698016Y5678874D01*
X25734707Y5742426D01*
X25753700Y5813308D01*
X25753700Y5886692D01*
X25753700Y14581439D01*
X26721300Y14581439D01*
X26721300Y14468562D01*
X26750515Y14359527D01*
X26778735Y14310650D01*
X26806955Y14261772D01*
X26886772Y14181955D01*
X26984528Y14125515D01*
X27093561Y14096300D01*
X27093563Y14096300D01*
X27206437Y14096300D01*
X27206439Y14096300D01*
X27315472Y14125515D01*
X27413228Y14181955D01*
X27493045Y14261772D01*
X27549485Y14359528D01*
X27578700Y14468561D01*
X27578700Y14581439D01*
X27549485Y14690472D01*
X27493045Y14788228D01*
X27413228Y14868045D01*
X27325733Y14918561D01*
X27315473Y14924485D01*
X27260955Y14939093D01*
X27206439Y14953700D01*
X27093561Y14953700D01*
X26984526Y14924485D01*
X26886772Y14868045D01*
X26886769Y14868043D01*
X26806957Y14788231D01*
X26806955Y14788228D01*
X26750515Y14690474D01*
X26721300Y14581439D01*
X25753700Y14581439D01*
X25753700Y14758197D01*
X25773385Y14825236D01*
X25790019Y14845878D01*
X27090994Y16146853D01*
X28503016Y17558874D01*
X28539707Y17622426D01*
X28558700Y17693308D01*
X28558700Y17766692D01*
X28558700Y61863306D01*
X28558701Y61863319D01*
X28558701Y61946693D01*
X28558700Y61946695D01*
X28539709Y62017568D01*
X28539707Y62017573D01*
X28539707Y62017574D01*
X28531047Y62032574D01*
X28503190Y62080825D01*
X28503017Y62081125D01*
X28446795Y62137347D01*
X28446784Y62137357D01*
X22620086Y67964055D01*
X22620084Y67964058D01*
X22561125Y68023017D01*
X22497574Y68059707D01*
X22497575Y68059707D01*
X22479853Y68064456D01*
X22426692Y68078700D01*
X22426689Y68078700D01*
X20852045Y68078700D01*
X20836696Y68078700D01*
X20836692Y68078701D01*
X20763308Y68078701D01*
X20693583Y68060017D01*
X20692426Y68059707D01*
X20690195Y68058420D01*
X20690195Y68058419D01*
X20628877Y68023019D01*
X20628872Y68023015D01*
X18746983Y66141126D01*
X18710293Y66077575D01*
X18710293Y66077574D01*
X18691300Y66006692D01*
X18691300Y66006690D01*
X18691300Y65673581D01*
X18671615Y65606542D01*
X18654981Y65585900D01*
X18646961Y65577881D01*
X18646957Y65577875D01*
X18593812Y65485826D01*
X18593812Y65485825D01*
X18593811Y65485823D01*
X18566300Y65383148D01*
X12508355Y65383148D01*
X12604163Y65478956D01*
X12703088Y65577881D01*
X12808030Y65682823D01*
X12854596Y65763477D01*
X12878700Y65853435D01*
X12878700Y65946565D01*
X12878700Y68127132D01*
X12898385Y68194171D01*
X12915014Y68214808D01*
X13961214Y69261008D01*
X14022536Y69294492D01*
X14092228Y69289508D01*
X14148161Y69247636D01*
X14167206Y69200878D01*
X14169197Y69201411D01*
X14171300Y69193563D01*
X14171300Y69193561D01*
X14185395Y69140957D01*
X14200515Y69084527D01*
X14228735Y69035650D01*
X14256955Y68986772D01*
X14336772Y68906955D01*
X14434528Y68850515D01*
X14543561Y68821300D01*
X14543563Y68821300D01*
X14656437Y68821300D01*
X14656439Y68821300D01*
X14765472Y68850515D01*
X14863228Y68906955D01*
X14943045Y68986772D01*
X14999485Y69084528D01*
X15028700Y69193561D01*
X15028700Y69306439D01*
X14999485Y69415472D01*
X14946315Y69507565D01*
X22173047Y69507565D01*
X22173047Y69394688D01*
X22202262Y69285653D01*
X22216492Y69261007D01*
X22258702Y69187898D01*
X22338519Y69108081D01*
X22436275Y69051641D01*
X22545308Y69022426D01*
X22545310Y69022426D01*
X22658184Y69022426D01*
X22658186Y69022426D01*
X22767219Y69051641D01*
X22864975Y69108081D01*
X22897851Y69140957D01*
X22959174Y69174442D01*
X23028866Y69169458D01*
X23073213Y69140957D01*
X23094096Y69120074D01*
X23191852Y69063634D01*
X23300885Y69034419D01*
X23300887Y69034419D01*
X23413761Y69034419D01*
X23413763Y69034419D01*
X23522796Y69063634D01*
X23620552Y69120074D01*
X23700369Y69199891D01*
X23756809Y69297647D01*
X23786024Y69406680D01*
X23786024Y69519558D01*
X23756809Y69628591D01*
X23700369Y69726347D01*
X23620552Y69806164D01*
X23571244Y69834632D01*
X23522797Y69862604D01*
X23458522Y69879826D01*
X23413763Y69891819D01*
X23300885Y69891819D01*
X23191850Y69862604D01*
X23094096Y69806164D01*
X23061217Y69773286D01*
X22999893Y69739803D01*
X22930201Y69744789D01*
X22885857Y69773289D01*
X22864977Y69794169D01*
X22864975Y69794171D01*
X22816097Y69822391D01*
X22767220Y69850611D01*
X22712702Y69865219D01*
X22658186Y69879826D01*
X22545308Y69879826D01*
X22436273Y69850611D01*
X22338519Y69794171D01*
X22338516Y69794169D01*
X22258704Y69714357D01*
X22258702Y69714354D01*
X22202262Y69616600D01*
X22173047Y69507565D01*
X14946315Y69507565D01*
X14943045Y69513228D01*
X14863228Y69593045D01*
X14801658Y69628593D01*
X14765473Y69649485D01*
X14717081Y69662451D01*
X14656439Y69678700D01*
X14656438Y69678700D01*
X14648589Y69680803D01*
X14649218Y69683151D01*
X14596584Y69706440D01*
X14558118Y69764768D01*
X14557292Y69834632D01*
X14588993Y69888787D01*
X14989437Y70289231D01*
X15532939Y70832734D01*
X15594260Y70866217D01*
X15652710Y70864827D01*
X15721852Y70846300D01*
X15721854Y70846300D01*
X15828146Y70846300D01*
X15828148Y70846300D01*
X15930823Y70873811D01*
X16022878Y70926959D01*
X16098041Y71002122D01*
X16151189Y71094177D01*
X16178700Y71196852D01*
X16178700Y71303148D01*
X16164421Y71356439D01*
X25446300Y71356439D01*
X25446300Y71243561D01*
X25451592Y71223811D01*
X25475515Y71134527D01*
X25476904Y71132122D01*
X25531955Y71036772D01*
X25611772Y70956955D01*
X25709528Y70900515D01*
X25818561Y70871300D01*
X25818563Y70871300D01*
X25931437Y70871300D01*
X25931439Y70871300D01*
X26040472Y70900515D01*
X26138228Y70956955D01*
X26218045Y71036772D01*
X26274485Y71134528D01*
X26303700Y71243561D01*
X26303700Y71356439D01*
X26274485Y71465472D01*
X26218045Y71563228D01*
X26138228Y71643045D01*
X26080823Y71676188D01*
X26040473Y71699485D01*
X25985955Y71714093D01*
X25931439Y71728700D01*
X25818561Y71728700D01*
X25709526Y71699485D01*
X25611772Y71643045D01*
X25611769Y71643043D01*
X25531957Y71563231D01*
X25531955Y71563228D01*
X25475515Y71465474D01*
X25446300Y71356439D01*
X16164421Y71356439D01*
X16151189Y71405823D01*
X16098041Y71497878D01*
X16022878Y71573041D01*
X15936279Y71623039D01*
X15930825Y71626188D01*
X15930824Y71626189D01*
X15930823Y71626189D01*
X15828148Y71653700D01*
X15721852Y71653700D01*
X15619176Y71626189D01*
X15608998Y71620312D01*
X15546999Y71603700D01*
X15403435Y71603700D01*
X15313476Y71579596D01*
X15232823Y71533030D01*
X15232820Y71533028D01*
X12241972Y68542180D01*
X12241970Y68542177D01*
X12195404Y68461524D01*
X12171300Y68371565D01*
X12171300Y66097869D01*
X12151615Y66030830D01*
X12134981Y66010188D01*
X7816972Y61692180D01*
X7816970Y61692177D01*
X7770404Y61611524D01*
X7746300Y61521565D01*
X7746300Y43181132D01*
X7726615Y43114093D01*
X7673811Y43068338D01*
X7604653Y43058394D01*
X7576334Y43065966D01*
X7568039Y43069277D01*
X7550015Y43079683D01*
X7525529Y43086244D01*
X7518734Y43088956D01*
X7496775Y43106188D01*
X7472946Y43120713D01*
X7469668Y43127460D01*
X7463768Y43132090D01*
X7454612Y43158456D01*
X7442417Y43183560D01*
X7441316Y43196742D01*
X7440847Y43198093D01*
X7441111Y43199190D01*
X7440700Y43204122D01*
X7440700Y48688269D01*
X7440700Y48688271D01*
X7420889Y48762206D01*
X7382618Y48828494D01*
X7328494Y48882618D01*
X7126018Y49085094D01*
X7111314Y49112022D01*
X7094722Y49137840D01*
X7093830Y49144041D01*
X7092533Y49146417D01*
X7089699Y49172775D01*
X7089699Y49316467D01*
X7090700Y49331729D01*
X7090700Y49963269D01*
X7090700Y49963271D01*
X7070889Y50037206D01*
X7032618Y50103494D01*
X6978494Y50157618D01*
X6607661Y50528451D01*
X6541373Y50566722D01*
X6541374Y50566722D01*
X6522889Y50571675D01*
X6467438Y50586533D01*
X6467435Y50586533D01*
X5943422Y50586533D01*
X5876383Y50606218D01*
X5830628Y50659022D01*
X5820684Y50728180D01*
X5823647Y50742624D01*
X5829427Y50764198D01*
X5829428Y50764204D01*
X5829428Y50870496D01*
X5829428Y50870498D01*
X5801917Y50973173D01*
X5748769Y51065228D01*
X5673606Y51140391D01*
X5583108Y51192640D01*
X5581553Y51193538D01*
X5581552Y51193539D01*
X5581551Y51193539D01*
X5478876Y51221050D01*
X5372580Y51221050D01*
X5269905Y51193539D01*
X5269903Y51193538D01*
X5269902Y51193538D01*
X5177853Y51140393D01*
X5177847Y51140389D01*
X5102689Y51065231D01*
X5102685Y51065225D01*
X5049540Y50973176D01*
X5049540Y50973175D01*
X5049539Y50973173D01*
X5027244Y50889965D01*
X5022028Y50870498D01*
X5022028Y50764198D01*
X5027809Y50742624D01*
X5026145Y50672774D01*
X4986982Y50614912D01*
X4922753Y50587410D01*
X4908034Y50586533D01*
X4275941Y50586533D01*
X4246500Y50595178D01*
X4216514Y50601701D01*
X4211498Y50605456D01*
X4208902Y50606218D01*
X4188260Y50622852D01*
X4115019Y50696093D01*
X4081534Y50757416D01*
X4080165Y50770142D01*
X4079761Y50770088D01*
X4078700Y50778141D01*
X4078700Y50778148D01*
X4051189Y50880823D01*
X3998041Y50972878D01*
X3922878Y51048041D01*
X3834729Y51098934D01*
X3830825Y51101188D01*
X3830824Y51101189D01*
X3830823Y51101189D01*
X3728148Y51128700D01*
X3621852Y51128700D01*
X3519177Y51101189D01*
X3519175Y51101188D01*
X3519174Y51101188D01*
X3427125Y51048043D01*
X3427119Y51048039D01*
X3351961Y50972881D01*
X3351957Y50972875D01*
X3298812Y50880826D01*
X3298812Y50880825D01*
X3298811Y50880823D01*
X3271300Y50778148D01*
X3271300Y50671852D01*
X3298811Y50569177D01*
X3351959Y50477122D01*
X3427122Y50401959D01*
X3498226Y50360908D01*
X3507437Y50355589D01*
X3555653Y50305022D01*
X3568876Y50236415D01*
X3542907Y50171550D01*
X3485993Y50131022D01*
X3477533Y50128428D01*
X3469177Y50126190D01*
X3469174Y50126188D01*
X3377125Y50073043D01*
X3377119Y50073039D01*
X3301961Y49997881D01*
X3301957Y49997875D01*
X3248812Y49905826D01*
X3248812Y49905825D01*
X3248811Y49905823D01*
X3221300Y49803148D01*
X3221300Y49696852D01*
X3248811Y49594177D01*
X3301959Y49502122D01*
X3377122Y49426959D01*
X3448226Y49385908D01*
X3457437Y49380589D01*
X3505653Y49330022D01*
X3518876Y49261415D01*
X3492907Y49196550D01*
X3435993Y49156022D01*
X3427533Y49153428D01*
X3419177Y49151190D01*
X3419174Y49151188D01*
X3327125Y49098043D01*
X3327119Y49098039D01*
X3251961Y49022881D01*
X3251957Y49022875D01*
X3198812Y48930826D01*
X3198812Y48930825D01*
X3198811Y48930823D01*
X3171300Y48828148D01*
X3171300Y48721852D01*
X3198811Y48619177D01*
X3251959Y48527122D01*
X3327122Y48451959D01*
X3370678Y48426812D01*
X3425973Y48394887D01*
X3474189Y48344320D01*
X3487411Y48275713D01*
X3461443Y48210848D01*
X3425973Y48180113D01*
X3327125Y48123043D01*
X3327119Y48123039D01*
X3251961Y48047881D01*
X3251957Y48047875D01*
X3198812Y47955826D01*
X3198812Y47955825D01*
X3198811Y47955823D01*
X3171300Y47853148D01*
X3171300Y47746852D01*
X3198811Y47644177D01*
X3251959Y47552122D01*
X3327122Y47476959D01*
X3419177Y47423811D01*
X3468394Y47410624D01*
X3528053Y47374261D01*
X3558583Y47311414D01*
X3550289Y47242039D01*
X3505804Y47188160D01*
X3468393Y47171075D01*
X3394177Y47151189D01*
X3394176Y47151189D01*
X3394174Y47151188D01*
X3302125Y47098043D01*
X3302119Y47098039D01*
X3226961Y47022881D01*
X3226957Y47022875D01*
X3173812Y46930826D01*
X3173812Y46930825D01*
X3173811Y46930823D01*
X3146300Y46828148D01*
X3146300Y46721852D01*
X3173811Y46619177D01*
X3173812Y46619176D01*
X3173812Y46619175D01*
X3190252Y46590700D01*
X3226959Y46527122D01*
X3302122Y46451959D01*
X3394177Y46398811D01*
X3468394Y46378925D01*
X3528053Y46342561D01*
X3558583Y46279715D01*
X3550289Y46210339D01*
X3505804Y46156461D01*
X3468395Y46139377D01*
X3419177Y46126189D01*
X3419176Y46126189D01*
X3419174Y46126188D01*
X3327125Y46073043D01*
X3327119Y46073039D01*
X3251961Y45997881D01*
X3251957Y45997875D01*
X3198812Y45905826D01*
X3198812Y45905825D01*
X3198811Y45905823D01*
X3171300Y45803148D01*
X3171300Y45696852D01*
X3198811Y45594177D01*
X3251959Y45502122D01*
X3327122Y45426959D01*
X3419177Y45373811D01*
X3434243Y45369775D01*
X3493903Y45333410D01*
X3524432Y45270563D01*
X3516137Y45201188D01*
X3471652Y45147310D01*
X3434244Y45130227D01*
X3419177Y45126189D01*
X3419175Y45126188D01*
X3419174Y45126188D01*
X3327125Y45073043D01*
X3327119Y45073039D01*
X3251961Y44997881D01*
X3251957Y44997875D01*
X3198812Y44905826D01*
X3198812Y44905825D01*
X3198811Y44905823D01*
X3171300Y44803148D01*
X3171300Y44696852D01*
X3198811Y44594177D01*
X3251959Y44502122D01*
X3327122Y44426959D01*
X3395515Y44387473D01*
X3425973Y44369887D01*
X3474189Y44319320D01*
X3487411Y44250713D01*
X3461443Y44185848D01*
X3425973Y44155113D01*
X3327125Y44098043D01*
X3327119Y44098039D01*
X3251961Y44022881D01*
X3251957Y44022875D01*
X3198812Y43930826D01*
X3198812Y43930825D01*
X3198811Y43930823D01*
X3171300Y43828148D01*
X3171300Y43721852D01*
X3198811Y43619177D01*
X3251959Y43527122D01*
X3327122Y43451959D01*
X3419177Y43398811D01*
X3521852Y43371300D01*
X3521854Y43371300D01*
X3628146Y43371300D01*
X3628148Y43371300D01*
X3730823Y43398811D01*
X3822878Y43451959D01*
X3898041Y43527122D01*
X3951189Y43619177D01*
X3978700Y43721852D01*
X3978700Y43828148D01*
X3951189Y43930823D01*
X3898041Y44022878D01*
X3822878Y44098041D01*
X3730823Y44151189D01*
X3730822Y44151190D01*
X3724026Y44155113D01*
X3720693Y44158609D01*
X3716099Y44160098D01*
X3696817Y44183649D01*
X3675810Y44205680D01*
X3674895Y44210423D01*
X3671837Y44214159D01*
X3668348Y44244392D01*
X3662587Y44274287D01*
X3664382Y44278772D01*
X3663829Y44283568D01*
X3677238Y44310886D01*
X3688555Y44339152D01*
X3693076Y44343148D01*
X3694618Y44346289D01*
X3716458Y44363815D01*
X3721926Y44368647D01*
X3730201Y44373645D01*
X3730823Y44373811D01*
X3822878Y44426959D01*
X3829568Y44433650D01*
X3842481Y44441447D01*
X3862266Y44446662D01*
X3880223Y44456466D01*
X3906581Y44459300D01*
X3928226Y44459300D01*
X3995265Y44439615D01*
X4015907Y44422981D01*
X4297981Y44140907D01*
X4331466Y44079584D01*
X4334300Y44053226D01*
X4334300Y42354362D01*
X4314615Y42287323D01*
X4261811Y42241568D01*
X4192653Y42231624D01*
X4129097Y42260649D01*
X4101202Y42299333D01*
X4100253Y42298784D01*
X4081797Y42330750D01*
X4043041Y42397878D01*
X3967878Y42473041D01*
X3875823Y42526189D01*
X3773148Y42553700D01*
X3666852Y42553700D01*
X3564177Y42526189D01*
X3564175Y42526188D01*
X3564174Y42526188D01*
X3472125Y42473043D01*
X3472119Y42473039D01*
X3396961Y42397881D01*
X3396957Y42397875D01*
X3343812Y42305826D01*
X3343812Y42305825D01*
X3343811Y42305823D01*
X3316300Y42203148D01*
X3316300Y42096852D01*
X3343811Y41994177D01*
X3396959Y41902122D01*
X3472122Y41826959D01*
X3564177Y41773811D01*
X3666852Y41746300D01*
X3666854Y41746300D01*
X3710826Y41746300D01*
X3777865Y41726615D01*
X3823620Y41673811D01*
X3833564Y41604653D01*
X3804539Y41541097D01*
X3798507Y41534619D01*
X2867383Y40603496D01*
X2867381Y40603493D01*
X2829111Y40537207D01*
X2829111Y40537206D01*
X2809300Y40463271D01*
X2809300Y40463269D01*
X2809300Y22094619D01*
X2789615Y22027580D01*
X2736811Y21981825D01*
X2667653Y21971881D01*
X2623301Y21987231D01*
X2555824Y22026189D01*
X2504485Y22039945D01*
X2453148Y22053700D01*
X2346852Y22053700D01*
X2244177Y22026189D01*
X2244175Y22026188D01*
X2244174Y22026188D01*
X2152125Y21973043D01*
X2152119Y21973039D01*
X2076961Y21897881D01*
X2076957Y21897875D01*
X2023812Y21805826D01*
X2023812Y21805825D01*
X2023811Y21805823D01*
X1996300Y21703148D01*
X1996300Y21596852D01*
X2023811Y21494177D01*
X2023812Y21494176D01*
X2023812Y21494175D01*
X2076958Y21402123D01*
X2078216Y21400484D01*
X2078846Y21398853D01*
X2081023Y21395083D01*
X2080435Y21394744D01*
X2103408Y21335314D01*
X2089368Y21266870D01*
X2078216Y21249516D01*
X2076958Y21247878D01*
X2023812Y21155826D01*
X2023812Y21155825D01*
X2023811Y21155823D01*
X1996300Y21053148D01*
X1996300Y20946852D01*
X2023811Y20844177D01*
X2023812Y20844176D01*
X2023812Y20844175D01*
X2076958Y20752123D01*
X2078216Y20750484D01*
X2078846Y20748853D01*
X2081023Y20745083D01*
X2080435Y20744744D01*
X2103408Y20685314D01*
X2089368Y20616870D01*
X2078216Y20599516D01*
X2076958Y20597878D01*
X2023812Y20505826D01*
X2023812Y20505825D01*
X2023811Y20505823D01*
X1996300Y20403148D01*
X1996300Y20296852D01*
X2023811Y20194177D01*
X2076959Y20102122D01*
X2152122Y20026959D01*
X2244177Y19973811D01*
X2346852Y19946300D01*
X2346854Y19946300D01*
X2453146Y19946300D01*
X2453148Y19946300D01*
X2555823Y19973811D01*
X2623300Y20012770D01*
X2691200Y20029242D01*
X2757227Y20006390D01*
X2800418Y19951468D01*
X2809300Y19905382D01*
X2809300Y12187841D01*
X2789615Y12120802D01*
X2736811Y12075047D01*
X2667653Y12065103D01*
X2637855Y12073277D01*
X2630828Y12076187D01*
X2630825Y12076188D01*
X2630823Y12076189D01*
X2528148Y12103700D01*
X2421852Y12103700D01*
X2319177Y12076189D01*
X2319175Y12076188D01*
X2319174Y12076188D01*
X2227125Y12023043D01*
X2227119Y12023039D01*
X2151961Y11947881D01*
X2151957Y11947875D01*
X2098812Y11855826D01*
X2098812Y11855825D01*
X2098811Y11855823D01*
X2071300Y11753148D01*
X2071300Y11646852D01*
X2098811Y11544177D01*
X2098812Y11544176D01*
X2098812Y11544175D01*
X2116527Y11513492D01*
X2151959Y11452122D01*
X2227122Y11376959D01*
X2319177Y11323811D01*
X2421852Y11296300D01*
X2421854Y11296300D01*
X2485826Y11296300D01*
X2552865Y11276615D01*
X2598620Y11223811D01*
X2608564Y11154653D01*
X2579539Y11091097D01*
X2573507Y11084619D01*
X1865907Y10377019D01*
X1804584Y10343534D01*
X1778226Y10340700D01*
X1381581Y10340700D01*
X1314542Y10360385D01*
X1304572Y10368419D01*
X1304324Y10368094D01*
X1297882Y10373037D01*
X1297878Y10373041D01*
X1205823Y10426189D01*
X1103148Y10453700D01*
X996852Y10453700D01*
X894177Y10426189D01*
X894175Y10426188D01*
X894174Y10426188D01*
X802125Y10373043D01*
X802119Y10373039D01*
X726961Y10297881D01*
X726959Y10297878D01*
X707370Y10263948D01*
X681887Y10219811D01*
X631320Y10171596D01*
X562712Y10158374D01*
X497848Y10184342D01*
X457320Y10241256D01*
X450500Y10281812D01*
X450500Y55256439D01*
X3471300Y55256439D01*
X3471300Y55143562D01*
X3500515Y55034527D01*
X3521658Y54997908D01*
X3556955Y54936772D01*
X3636772Y54856955D01*
X3721428Y54808078D01*
X3734524Y54800517D01*
X3734528Y54800515D01*
X3843561Y54771300D01*
X3843563Y54771300D01*
X3956437Y54771300D01*
X3956439Y54771300D01*
X4065472Y54800515D01*
X4154533Y54851936D01*
X4222433Y54868409D01*
X4288460Y54845557D01*
X4331651Y54790637D01*
X4338293Y54721083D01*
X4336309Y54712457D01*
X4321300Y54656441D01*
X4321300Y54543562D01*
X4350515Y54434527D01*
X4354153Y54428226D01*
X4406955Y54336772D01*
X4406957Y54336770D01*
X4443546Y54300181D01*
X4477031Y54238858D01*
X4472047Y54169166D01*
X4443546Y54124819D01*
X4406957Y54088231D01*
X4406955Y54088228D01*
X4350515Y53990474D01*
X4321300Y53881439D01*
X4321300Y53768562D01*
X4350515Y53659527D01*
X4372195Y53621977D01*
X4406955Y53561772D01*
X4406957Y53561770D01*
X4443546Y53525181D01*
X4477031Y53463858D01*
X4472047Y53394166D01*
X4443546Y53349819D01*
X4381957Y53288231D01*
X4381955Y53288228D01*
X4325515Y53190474D01*
X4296300Y53081439D01*
X4296300Y52968562D01*
X4325515Y52859527D01*
X4335584Y52842088D01*
X4381955Y52761772D01*
X4381957Y52761770D01*
X4431046Y52712681D01*
X4464531Y52651358D01*
X4459547Y52581666D01*
X4431046Y52537319D01*
X4381957Y52488231D01*
X4381955Y52488228D01*
X4325515Y52390474D01*
X4296300Y52281439D01*
X4296300Y52168562D01*
X4325515Y52059527D01*
X4353735Y52010650D01*
X4381955Y51961772D01*
X4461772Y51881955D01*
X4559528Y51825515D01*
X4668561Y51796300D01*
X4668563Y51796300D01*
X4781437Y51796300D01*
X4781439Y51796300D01*
X4890472Y51825515D01*
X4988228Y51881955D01*
X5068045Y51961772D01*
X5124485Y52059528D01*
X5153700Y52168561D01*
X5153700Y52281439D01*
X5124485Y52390472D01*
X5068045Y52488228D01*
X5018954Y52537319D01*
X4985469Y52598642D01*
X4990453Y52668334D01*
X5018954Y52712681D01*
X5068045Y52761772D01*
X5124485Y52859528D01*
X5153700Y52968561D01*
X5153700Y53081439D01*
X5124485Y53190472D01*
X5068045Y53288228D01*
X5057337Y53298936D01*
X5031453Y53324821D01*
X4997968Y53386144D01*
X5002954Y53455836D01*
X5031450Y53500178D01*
X5093045Y53561772D01*
X5149485Y53659528D01*
X5178700Y53768561D01*
X5178700Y53881439D01*
X5149485Y53990472D01*
X5093045Y54088228D01*
X5056454Y54124819D01*
X5022969Y54186142D01*
X5027953Y54255834D01*
X5056454Y54300181D01*
X5093045Y54336772D01*
X5149485Y54434528D01*
X5178700Y54543561D01*
X5178700Y54656439D01*
X5149485Y54765472D01*
X5093045Y54863228D01*
X5013228Y54943045D01*
X4964350Y54971265D01*
X4915473Y54999485D01*
X4860955Y55014093D01*
X4806439Y55028700D01*
X4693561Y55028700D01*
X4584528Y54999485D01*
X4584527Y54999485D01*
X4584525Y54999484D01*
X4584524Y54999484D01*
X4495465Y54948065D01*
X4427565Y54931592D01*
X4361538Y54954445D01*
X4318347Y55009366D01*
X4311706Y55078919D01*
X4313684Y55087521D01*
X4328700Y55143561D01*
X4328700Y55256439D01*
X4299485Y55365472D01*
X4243045Y55463228D01*
X4163228Y55543045D01*
X4092816Y55583698D01*
X4065473Y55599485D01*
X4010955Y55614093D01*
X3956439Y55628700D01*
X3843561Y55628700D01*
X3734526Y55599485D01*
X3636772Y55543045D01*
X3636769Y55543043D01*
X3556957Y55463231D01*
X3556955Y55463228D01*
X3500515Y55365474D01*
X3471300Y55256439D01*
X450500Y55256439D01*
X450500Y56656439D01*
X4071300Y56656439D01*
X4071300Y56543562D01*
X4100515Y56434527D01*
X4128735Y56385650D01*
X4156955Y56336772D01*
X4236772Y56256955D01*
X4334528Y56200515D01*
X4443561Y56171300D01*
X4443563Y56171300D01*
X4556437Y56171300D01*
X4556439Y56171300D01*
X4665472Y56200515D01*
X4763228Y56256955D01*
X4843045Y56336772D01*
X4899485Y56434528D01*
X4928700Y56543561D01*
X4928700Y56656439D01*
X4899485Y56765472D01*
X4843045Y56863228D01*
X4771654Y56934619D01*
X4738169Y56995942D01*
X4743153Y57065634D01*
X4785025Y57121567D01*
X4845247Y57144029D01*
X4845088Y57145239D01*
X4850348Y57145932D01*
X4850489Y57145984D01*
X4850841Y57145997D01*
X4853139Y57146300D01*
X4853148Y57146300D01*
X4955823Y57173811D01*
X5047878Y57226959D01*
X5123041Y57302122D01*
X5176189Y57394177D01*
X5203700Y57496852D01*
X5203700Y57603148D01*
X5176189Y57705823D01*
X5123041Y57797878D01*
X5047878Y57873041D01*
X5046100Y57874819D01*
X5012615Y57936142D01*
X5017599Y58005834D01*
X5046100Y58050181D01*
X5048045Y58052126D01*
X5098041Y58102122D01*
X5151189Y58194177D01*
X5178700Y58296852D01*
X5178700Y58403148D01*
X5151189Y58505823D01*
X5098041Y58597878D01*
X5022878Y58673041D01*
X5017131Y58678788D01*
X5018700Y58680358D01*
X4984326Y58727442D01*
X4980177Y58797189D01*
X5014395Y58858106D01*
X5039013Y58876763D01*
X5063228Y58890743D01*
X5143045Y58970560D01*
X5199485Y59068316D01*
X5228700Y59177349D01*
X5228700Y59290227D01*
X5199485Y59399260D01*
X5143045Y59497016D01*
X5063228Y59576833D01*
X5014350Y59605053D01*
X4965473Y59633273D01*
X4910955Y59647881D01*
X4856439Y59662488D01*
X4743561Y59662488D01*
X4634526Y59633273D01*
X4536772Y59576833D01*
X4536769Y59576831D01*
X4456957Y59497019D01*
X4456955Y59497016D01*
X4400515Y59399262D01*
X4371300Y59290227D01*
X4371300Y59177350D01*
X4400515Y59068315D01*
X4412907Y59046852D01*
X4456955Y58970560D01*
X4536772Y58890743D01*
X4536775Y58890741D01*
X4543221Y58885795D01*
X4541990Y58884192D01*
X4582699Y58841495D01*
X4595920Y58772888D01*
X4569951Y58708024D01*
X4534486Y58677293D01*
X4527125Y58673044D01*
X4527119Y58673039D01*
X4451961Y58597881D01*
X4451957Y58597875D01*
X4398812Y58505826D01*
X4398812Y58505825D01*
X4398811Y58505823D01*
X4371300Y58403148D01*
X4371300Y58296852D01*
X4398811Y58194177D01*
X4451959Y58102122D01*
X4451961Y58102120D01*
X4528900Y58025181D01*
X4562385Y57963858D01*
X4557401Y57894166D01*
X4528900Y57849819D01*
X4476961Y57797881D01*
X4476957Y57797875D01*
X4423812Y57705826D01*
X4423812Y57705825D01*
X4423811Y57705823D01*
X4396300Y57603148D01*
X4396300Y57496852D01*
X4423811Y57394177D01*
X4476959Y57302122D01*
X4476961Y57302120D01*
X4538700Y57240381D01*
X4572185Y57179058D01*
X4567201Y57109366D01*
X4525329Y57053433D01*
X4459865Y57029016D01*
X4451019Y57028700D01*
X4443561Y57028700D01*
X4334526Y56999485D01*
X4236772Y56943045D01*
X4236769Y56943043D01*
X4156957Y56863231D01*
X4156955Y56863228D01*
X4100515Y56765474D01*
X4071300Y56656439D01*
X450500Y56656439D01*
X450500Y60156439D01*
X2371300Y60156439D01*
X2371300Y60043562D01*
X2400515Y59934527D01*
X2428633Y59885826D01*
X2456955Y59836772D01*
X2536772Y59756955D01*
X2634528Y59700515D01*
X2743561Y59671300D01*
X2743563Y59671300D01*
X2856437Y59671300D01*
X2856439Y59671300D01*
X2965472Y59700515D01*
X3063228Y59756955D01*
X3143045Y59836772D01*
X3199485Y59934528D01*
X3228700Y60043561D01*
X3228700Y60156439D01*
X3199485Y60265472D01*
X3143045Y60363228D01*
X3063228Y60443045D01*
X3014350Y60471265D01*
X2965473Y60499485D01*
X2910955Y60514093D01*
X2856439Y60528700D01*
X2743561Y60528700D01*
X2634526Y60499485D01*
X2536772Y60443045D01*
X2536769Y60443043D01*
X2456957Y60363231D01*
X2456955Y60363228D01*
X2400515Y60265474D01*
X2371300Y60156439D01*
X450500Y60156439D01*
X450500Y60656439D01*
X4371300Y60656439D01*
X4371300Y60543562D01*
X4400515Y60434527D01*
X4428735Y60385650D01*
X4456955Y60336772D01*
X4536772Y60256955D01*
X4634528Y60200515D01*
X4743561Y60171300D01*
X4743563Y60171300D01*
X4856437Y60171300D01*
X4856439Y60171300D01*
X4965472Y60200515D01*
X5063228Y60256955D01*
X5143045Y60336772D01*
X5199485Y60434528D01*
X5228700Y60543561D01*
X5228700Y60656439D01*
X5199485Y60765472D01*
X5143045Y60863228D01*
X5063228Y60943045D01*
X5014350Y60971265D01*
X4965473Y60999485D01*
X4910955Y61014093D01*
X4856439Y61028700D01*
X4743561Y61028700D01*
X4634526Y60999485D01*
X4536772Y60943045D01*
X4536769Y60943043D01*
X4456957Y60863231D01*
X4456955Y60863228D01*
X4400515Y60765474D01*
X4371300Y60656439D01*
X450500Y60656439D01*
X450500Y61978148D01*
X1446300Y61978148D01*
X1446300Y61871852D01*
X1473811Y61769177D01*
X1473812Y61769176D01*
X1473812Y61769175D01*
X1480247Y61758030D01*
X1526959Y61677122D01*
X1602122Y61601959D01*
X1694177Y61548811D01*
X1796852Y61521300D01*
X1796854Y61521300D01*
X1903145Y61521300D01*
X1903148Y61521300D01*
X2005823Y61548811D01*
X2005827Y61548814D01*
X2005904Y61548834D01*
X2075754Y61547171D01*
X2133617Y61508009D01*
X2157773Y61461153D01*
X2159261Y61455601D01*
X2159261Y61455600D01*
X2188476Y61346567D01*
X2244916Y61248811D01*
X2324733Y61168994D01*
X2422489Y61112554D01*
X2531522Y61083339D01*
X2531524Y61083339D01*
X2644398Y61083339D01*
X2644400Y61083339D01*
X2753433Y61112554D01*
X2851189Y61168994D01*
X2931006Y61248811D01*
X2987446Y61346567D01*
X3016661Y61455600D01*
X3016661Y61568478D01*
X2987446Y61677511D01*
X2931006Y61775267D01*
X2851189Y61855084D01*
X2786229Y61892589D01*
X2753434Y61911524D01*
X2672633Y61933174D01*
X2644400Y61940739D01*
X2531522Y61940739D01*
X2422489Y61911524D01*
X2422488Y61911524D01*
X2422486Y61911523D01*
X2417251Y61909355D01*
X2347781Y61901893D01*
X2285305Y61933174D01*
X2250034Y61991827D01*
X2226189Y62080823D01*
X2173041Y62172878D01*
X2097878Y62248041D01*
X2005823Y62301189D01*
X1903148Y62328700D01*
X1796852Y62328700D01*
X1694177Y62301189D01*
X1694175Y62301188D01*
X1694174Y62301188D01*
X1602125Y62248043D01*
X1602119Y62248039D01*
X1526961Y62172881D01*
X1526957Y62172875D01*
X1473812Y62080826D01*
X1473812Y62080825D01*
X1473811Y62080823D01*
X1446300Y61978148D01*
X450500Y61978148D01*
X450500Y63233479D01*
X3076631Y63233479D01*
X3076631Y63127183D01*
X3104142Y63024508D01*
X3157290Y62932453D01*
X3232453Y62857290D01*
X3324508Y62804142D01*
X3427183Y62776631D01*
X3427185Y62776631D01*
X3533477Y62776631D01*
X3533479Y62776631D01*
X3636154Y62804142D01*
X3728209Y62857290D01*
X3803372Y62932453D01*
X3856520Y63024508D01*
X3884031Y63127183D01*
X3884031Y63233479D01*
X3856520Y63336154D01*
X3803372Y63428209D01*
X3728209Y63503372D01*
X3636154Y63556520D01*
X3533479Y63584031D01*
X3427183Y63584031D01*
X3324508Y63556520D01*
X3324506Y63556519D01*
X3324505Y63556519D01*
X3232456Y63503374D01*
X3232450Y63503370D01*
X3157292Y63428212D01*
X3157288Y63428206D01*
X3104143Y63336157D01*
X3104143Y63336156D01*
X3104142Y63336154D01*
X3076631Y63233479D01*
X450500Y63233479D01*
X450500Y64753148D01*
X6071300Y64753148D01*
X6071300Y64646852D01*
X6098811Y64544177D01*
X6151959Y64452122D01*
X6227122Y64376959D01*
X6319177Y64323811D01*
X6421852Y64296300D01*
X6421854Y64296300D01*
X6528146Y64296300D01*
X6528148Y64296300D01*
X6630823Y64323811D01*
X6722878Y64376959D01*
X6798041Y64452122D01*
X6851189Y64544177D01*
X6878700Y64646852D01*
X6878700Y64753148D01*
X6851189Y64855823D01*
X6798041Y64947878D01*
X6722878Y65023041D01*
X6639289Y65071301D01*
X6630825Y65076188D01*
X6630824Y65076189D01*
X6630823Y65076189D01*
X6528148Y65103700D01*
X6421852Y65103700D01*
X6319177Y65076189D01*
X6319175Y65076188D01*
X6319174Y65076188D01*
X6227125Y65023043D01*
X6227119Y65023039D01*
X6151961Y64947881D01*
X6151957Y64947875D01*
X6098812Y64855826D01*
X6098812Y64855825D01*
X6098811Y64855823D01*
X6071300Y64753148D01*
X450500Y64753148D01*
X450500Y68153148D01*
X1596300Y68153148D01*
X1596300Y68046852D01*
X1623811Y67944177D01*
X1676959Y67852122D01*
X1752122Y67776959D01*
X1844177Y67723811D01*
X1859243Y67719775D01*
X1918903Y67683410D01*
X1949432Y67620563D01*
X1941137Y67551188D01*
X1896652Y67497310D01*
X1859244Y67480227D01*
X1844177Y67476189D01*
X1844175Y67476188D01*
X1844174Y67476188D01*
X1752125Y67423043D01*
X1752119Y67423039D01*
X1676961Y67347881D01*
X1676957Y67347875D01*
X1623812Y67255826D01*
X1623812Y67255825D01*
X1623811Y67255823D01*
X1596300Y67153148D01*
X1596300Y67046852D01*
X1623811Y66944177D01*
X1676959Y66852122D01*
X1752122Y66776959D01*
X1844177Y66723811D01*
X1946852Y66696300D01*
X1946854Y66696300D01*
X2053146Y66696300D01*
X2053148Y66696300D01*
X2155823Y66723811D01*
X2247878Y66776959D01*
X2323041Y66852122D01*
X2376189Y66944177D01*
X2380225Y66959244D01*
X2416589Y67018903D01*
X2479435Y67049433D01*
X2548811Y67041139D01*
X2602690Y66996654D01*
X2619773Y66959245D01*
X2623811Y66944177D01*
X2676959Y66852122D01*
X2752122Y66776959D01*
X2796757Y66751189D01*
X2844173Y66723813D01*
X2844177Y66723811D01*
X2875194Y66715500D01*
X2934852Y66679139D01*
X2965383Y66616293D01*
X2957090Y66546917D01*
X2950490Y66533732D01*
X2948813Y66530828D01*
X2948811Y66530825D01*
X2948811Y66530823D01*
X2921300Y66428148D01*
X2921300Y66321852D01*
X2948811Y66219177D01*
X3001959Y66127122D01*
X3077122Y66051959D01*
X3169177Y65998811D01*
X3271852Y65971300D01*
X3271854Y65971300D01*
X3378146Y65971300D01*
X3378148Y65971300D01*
X3480823Y65998811D01*
X3572878Y66051959D01*
X3648041Y66127122D01*
X3701189Y66219177D01*
X3723688Y66303148D01*
X9621300Y66303148D01*
X9621300Y66196852D01*
X9648811Y66094177D01*
X9648812Y66094176D01*
X9648812Y66094175D01*
X9674605Y66049500D01*
X9691078Y65981599D01*
X9674605Y65925500D01*
X9648812Y65880826D01*
X9648812Y65880825D01*
X9648811Y65880823D01*
X9621300Y65778148D01*
X9621300Y65671852D01*
X9648811Y65569177D01*
X9648812Y65569176D01*
X9648812Y65569175D01*
X9681822Y65512000D01*
X9698295Y65444100D01*
X9681822Y65388000D01*
X9648812Y65330826D01*
X9648812Y65330825D01*
X9648811Y65330823D01*
X9621300Y65228148D01*
X9621300Y65121852D01*
X9648811Y65019177D01*
X9701959Y64927122D01*
X9777122Y64851959D01*
X9869177Y64798811D01*
X9971852Y64771300D01*
X9971854Y64771300D01*
X10078146Y64771300D01*
X10078148Y64771300D01*
X10180823Y64798811D01*
X10272878Y64851959D01*
X10348041Y64927122D01*
X10401189Y65019177D01*
X10428700Y65121852D01*
X10428700Y65228148D01*
X10401189Y65330823D01*
X10368175Y65388004D01*
X10351704Y65455899D01*
X10368175Y65511997D01*
X10401189Y65569177D01*
X10428700Y65671852D01*
X10428700Y65778148D01*
X10401189Y65880823D01*
X10375394Y65925500D01*
X10358921Y65993399D01*
X10375395Y66049501D01*
X10376816Y66051962D01*
X10401189Y66094177D01*
X10428700Y66196852D01*
X10428700Y66303148D01*
X10401189Y66405823D01*
X10348041Y66497878D01*
X10272878Y66573041D01*
X10211508Y66608473D01*
X10180825Y66626188D01*
X10180824Y66626189D01*
X10180823Y66626189D01*
X10078148Y66653700D01*
X9971852Y66653700D01*
X9869177Y66626189D01*
X9869175Y66626188D01*
X9869174Y66626188D01*
X9777125Y66573043D01*
X9777119Y66573039D01*
X9701961Y66497881D01*
X9701957Y66497875D01*
X9648812Y66405826D01*
X9648812Y66405825D01*
X9648811Y66405823D01*
X9621300Y66303148D01*
X3723688Y66303148D01*
X3728700Y66321852D01*
X3728700Y66428148D01*
X3701189Y66530823D01*
X3692448Y66545962D01*
X3675975Y66613860D01*
X3698826Y66679887D01*
X3753747Y66723079D01*
X3823300Y66729722D01*
X3836301Y66725821D01*
X3836327Y66725915D01*
X3844174Y66723813D01*
X3844177Y66723811D01*
X3946852Y66696300D01*
X3946854Y66696300D01*
X4053146Y66696300D01*
X4053148Y66696300D01*
X4155823Y66723811D01*
X4247878Y66776959D01*
X4323041Y66852122D01*
X4376189Y66944177D01*
X4403700Y67046852D01*
X4403700Y67153148D01*
X4376189Y67255823D01*
X4323041Y67347878D01*
X4247878Y67423041D01*
X4155823Y67476189D01*
X4140756Y67480226D01*
X4081097Y67516589D01*
X4050567Y67579435D01*
X4058861Y67648811D01*
X4083083Y67678148D01*
X8071300Y67678148D01*
X8071300Y67571852D01*
X8098811Y67469177D01*
X8151959Y67377122D01*
X8227122Y67301959D01*
X8319177Y67248811D01*
X8421852Y67221300D01*
X8421854Y67221300D01*
X8528146Y67221300D01*
X8528148Y67221300D01*
X8630823Y67248811D01*
X8722878Y67301959D01*
X8798041Y67377122D01*
X8851189Y67469177D01*
X8878700Y67571852D01*
X8878700Y67678148D01*
X8851189Y67780823D01*
X8798041Y67872878D01*
X8722878Y67948041D01*
X8651893Y67989024D01*
X10982176Y67989024D01*
X10982176Y67882728D01*
X11009687Y67780053D01*
X11009688Y67780052D01*
X11009688Y67780051D01*
X11011473Y67776959D01*
X11062835Y67687998D01*
X11137998Y67612835D01*
X11230053Y67559687D01*
X11332728Y67532176D01*
X11332730Y67532176D01*
X11439022Y67532176D01*
X11439024Y67532176D01*
X11541699Y67559687D01*
X11633754Y67612835D01*
X11708917Y67687998D01*
X11762065Y67780053D01*
X11789576Y67882728D01*
X11789576Y67989024D01*
X11762065Y68091699D01*
X11708917Y68183754D01*
X11633754Y68258917D01*
X11541699Y68312065D01*
X11439024Y68339576D01*
X11332728Y68339576D01*
X11230053Y68312065D01*
X11230051Y68312064D01*
X11230050Y68312064D01*
X11138001Y68258919D01*
X11137995Y68258915D01*
X11062837Y68183757D01*
X11062833Y68183751D01*
X11009688Y68091702D01*
X11009688Y68091701D01*
X11009687Y68091699D01*
X10982176Y67989024D01*
X8651893Y67989024D01*
X8630823Y68001189D01*
X8528148Y68028700D01*
X8421852Y68028700D01*
X8319177Y68001189D01*
X8319175Y68001188D01*
X8319174Y68001188D01*
X8227125Y67948043D01*
X8227119Y67948039D01*
X8151961Y67872881D01*
X8151957Y67872875D01*
X8098812Y67780826D01*
X8098812Y67780825D01*
X8098811Y67780823D01*
X8071300Y67678148D01*
X4083083Y67678148D01*
X4103346Y67702690D01*
X4113914Y67709099D01*
X4126705Y67716010D01*
X4155823Y67723811D01*
X4247878Y67776959D01*
X4323041Y67852122D01*
X4376189Y67944177D01*
X4403700Y68046852D01*
X4403700Y68153148D01*
X4376189Y68255823D01*
X4323041Y68347878D01*
X4247878Y68423041D01*
X4155823Y68476189D01*
X4053148Y68503700D01*
X3946852Y68503700D01*
X3844177Y68476189D01*
X3844175Y68476188D01*
X3844174Y68476188D01*
X3752125Y68423043D01*
X3752119Y68423039D01*
X3676961Y68347881D01*
X3676957Y68347875D01*
X3623812Y68255826D01*
X3623812Y68255825D01*
X3623811Y68255823D01*
X3619774Y68240757D01*
X3583410Y68181097D01*
X3520563Y68150568D01*
X3451188Y68158863D01*
X3397310Y68203348D01*
X3380226Y68240756D01*
X3376189Y68255823D01*
X3323041Y68347878D01*
X3247878Y68423041D01*
X3155823Y68476189D01*
X3053148Y68503700D01*
X2946852Y68503700D01*
X2844177Y68476189D01*
X2844175Y68476188D01*
X2844174Y68476188D01*
X2752125Y68423043D01*
X2752119Y68423039D01*
X2676961Y68347881D01*
X2676957Y68347875D01*
X2623812Y68255826D01*
X2623812Y68255825D01*
X2623811Y68255823D01*
X2619774Y68240757D01*
X2583410Y68181097D01*
X2520563Y68150568D01*
X2451188Y68158863D01*
X2397310Y68203348D01*
X2380226Y68240756D01*
X2376189Y68255823D01*
X2323041Y68347878D01*
X2247878Y68423041D01*
X2155823Y68476189D01*
X2053148Y68503700D01*
X1946852Y68503700D01*
X1844177Y68476189D01*
X1844175Y68476188D01*
X1844174Y68476188D01*
X1752125Y68423043D01*
X1752119Y68423039D01*
X1676961Y68347881D01*
X1676957Y68347875D01*
X1623812Y68255826D01*
X1623812Y68255825D01*
X1623811Y68255823D01*
X1596300Y68153148D01*
X450500Y68153148D01*
X450500Y70082439D01*
X10797300Y70082439D01*
X10797300Y69969562D01*
X10826515Y69860527D01*
X10841466Y69834632D01*
X10882955Y69762772D01*
X10962772Y69682955D01*
X11060528Y69626515D01*
X11169561Y69597300D01*
X11169563Y69597300D01*
X11282437Y69597300D01*
X11282439Y69597300D01*
X11391472Y69626515D01*
X11489228Y69682955D01*
X11569045Y69762772D01*
X11625485Y69860528D01*
X11654700Y69969561D01*
X11654700Y70082439D01*
X11625485Y70191472D01*
X11569045Y70289228D01*
X11489228Y70369045D01*
X11440350Y70397265D01*
X11391473Y70425485D01*
X11336955Y70440093D01*
X11282439Y70454700D01*
X11169561Y70454700D01*
X11060526Y70425485D01*
X10962772Y70369045D01*
X10962769Y70369043D01*
X10882957Y70289231D01*
X10882955Y70289228D01*
X10826515Y70191474D01*
X10797300Y70082439D01*
X450500Y70082439D01*
X450500Y74653148D01*
X1096300Y74653148D01*
X1096300Y74546852D01*
X1123811Y74444177D01*
X1123812Y74444176D01*
X1123812Y74444175D01*
X1135713Y74423562D01*
X1176959Y74352122D01*
X1252122Y74276959D01*
X1344177Y74223811D01*
X1359243Y74219775D01*
X1418903Y74183410D01*
X1449432Y74120563D01*
X1441137Y74051188D01*
X1396652Y73997310D01*
X1359244Y73980227D01*
X1344177Y73976189D01*
X1344175Y73976188D01*
X1344174Y73976188D01*
X1252125Y73923043D01*
X1252119Y73923039D01*
X1176961Y73847881D01*
X1176957Y73847875D01*
X1123812Y73755826D01*
X1123812Y73755825D01*
X1123811Y73755823D01*
X1096300Y73653148D01*
X1096300Y73546852D01*
X1123811Y73444177D01*
X1176959Y73352122D01*
X1252122Y73276959D01*
X1344177Y73223811D01*
X1359243Y73219775D01*
X1418903Y73183410D01*
X1449432Y73120563D01*
X1441137Y73051188D01*
X1396652Y72997310D01*
X1359244Y72980227D01*
X1344177Y72976189D01*
X1344175Y72976188D01*
X1344174Y72976188D01*
X1252125Y72923043D01*
X1252119Y72923039D01*
X1176961Y72847881D01*
X1176957Y72847875D01*
X1123812Y72755826D01*
X1123812Y72755825D01*
X1123811Y72755823D01*
X1096300Y72653148D01*
X1096300Y72546852D01*
X1123811Y72444177D01*
X1176959Y72352122D01*
X1252122Y72276959D01*
X1344177Y72223811D01*
X1359243Y72219775D01*
X1418903Y72183410D01*
X1449432Y72120563D01*
X1441137Y72051188D01*
X1396652Y71997310D01*
X1359244Y71980227D01*
X1344177Y71976189D01*
X1344175Y71976188D01*
X1344174Y71976188D01*
X1252125Y71923043D01*
X1252119Y71923039D01*
X1176961Y71847881D01*
X1176957Y71847875D01*
X1123812Y71755826D01*
X1123812Y71755825D01*
X1123811Y71755823D01*
X1096300Y71653148D01*
X1096300Y71546852D01*
X1123811Y71444177D01*
X1123812Y71444176D01*
X1123812Y71444175D01*
X1134658Y71425389D01*
X1176959Y71352122D01*
X1252122Y71276959D01*
X1344177Y71223811D01*
X1446852Y71196300D01*
X1446854Y71196300D01*
X1553146Y71196300D01*
X1553148Y71196300D01*
X1655823Y71223811D01*
X1747878Y71276959D01*
X1823041Y71352122D01*
X1876189Y71444177D01*
X1880225Y71459244D01*
X1916589Y71518903D01*
X1979435Y71549433D01*
X2048811Y71541139D01*
X2102690Y71496654D01*
X2119773Y71459245D01*
X2120690Y71455826D01*
X2123811Y71444177D01*
X2123812Y71444175D01*
X2134658Y71425389D01*
X2176959Y71352122D01*
X2252122Y71276959D01*
X2344177Y71223811D01*
X2446852Y71196300D01*
X2446854Y71196300D01*
X2553146Y71196300D01*
X2553148Y71196300D01*
X2655823Y71223811D01*
X2747878Y71276959D01*
X2823041Y71352122D01*
X2876189Y71444177D01*
X2880225Y71459244D01*
X2916589Y71518903D01*
X2979435Y71549433D01*
X3048811Y71541139D01*
X3102690Y71496654D01*
X3119773Y71459245D01*
X3120690Y71455826D01*
X3123811Y71444177D01*
X3123812Y71444175D01*
X3134658Y71425389D01*
X3176959Y71352122D01*
X3252122Y71276959D01*
X3344177Y71223811D01*
X3446852Y71196300D01*
X3446854Y71196300D01*
X3553146Y71196300D01*
X3553148Y71196300D01*
X3655823Y71223811D01*
X3747878Y71276959D01*
X3823041Y71352122D01*
X3876189Y71444177D01*
X3880225Y71459244D01*
X3916589Y71518903D01*
X3979435Y71549433D01*
X4048811Y71541139D01*
X4102690Y71496654D01*
X4119773Y71459245D01*
X4120690Y71455826D01*
X4123811Y71444177D01*
X4123812Y71444175D01*
X4134658Y71425389D01*
X4176959Y71352122D01*
X4252122Y71276959D01*
X4344177Y71223811D01*
X4446852Y71196300D01*
X4446854Y71196300D01*
X4553146Y71196300D01*
X4553148Y71196300D01*
X4655823Y71223811D01*
X4747878Y71276959D01*
X4823041Y71352122D01*
X4823633Y71353148D01*
X11646300Y71353148D01*
X11646300Y71246852D01*
X11673811Y71144177D01*
X11726959Y71052122D01*
X11802122Y70976959D01*
X11894177Y70923811D01*
X11996852Y70896300D01*
X11996854Y70896300D01*
X12103146Y70896300D01*
X12103148Y70896300D01*
X12205823Y70923811D01*
X12297878Y70976959D01*
X12373041Y71052122D01*
X12420707Y71134683D01*
X12471274Y71182898D01*
X12539881Y71196121D01*
X12604746Y71170153D01*
X12635480Y71134683D01*
X12636959Y71132122D01*
X12712122Y71056959D01*
X12804177Y71003811D01*
X12906852Y70976300D01*
X12906854Y70976300D01*
X13013146Y70976300D01*
X13013148Y70976300D01*
X13115823Y71003811D01*
X13207878Y71056959D01*
X13283041Y71132122D01*
X13286532Y71138170D01*
X13337094Y71186386D01*
X13405700Y71199613D01*
X13470567Y71173649D01*
X13511099Y71116738D01*
X13513695Y71108269D01*
X13517472Y71094175D01*
X13518811Y71089177D01*
X13571959Y70997122D01*
X13647122Y70921959D01*
X13739177Y70868811D01*
X13841852Y70841300D01*
X13841854Y70841300D01*
X13948146Y70841300D01*
X13948148Y70841300D01*
X14050823Y70868811D01*
X14142878Y70921959D01*
X14218041Y70997122D01*
X14271189Y71089177D01*
X14298700Y71191852D01*
X14298700Y71298148D01*
X14271189Y71400823D01*
X14218041Y71492878D01*
X14142878Y71568041D01*
X14050823Y71621189D01*
X13948148Y71648700D01*
X13841852Y71648700D01*
X13739177Y71621189D01*
X13739175Y71621188D01*
X13739174Y71621188D01*
X13647125Y71568043D01*
X13647119Y71568039D01*
X13571961Y71492881D01*
X13571955Y71492872D01*
X13568463Y71486824D01*
X13517895Y71438610D01*
X13449288Y71425389D01*
X13384424Y71451359D01*
X13343897Y71508274D01*
X13341303Y71516735D01*
X13336189Y71535823D01*
X13283041Y71627878D01*
X13207878Y71703041D01*
X13116457Y71755823D01*
X13115825Y71756188D01*
X13115824Y71756189D01*
X13115823Y71756189D01*
X13013148Y71783700D01*
X12906852Y71783700D01*
X12804177Y71756189D01*
X12804175Y71756188D01*
X12804174Y71756188D01*
X12712125Y71703043D01*
X12712119Y71703039D01*
X12636961Y71627881D01*
X12636954Y71627872D01*
X12589291Y71545318D01*
X12538724Y71497103D01*
X12470116Y71483881D01*
X12405252Y71509849D01*
X12374518Y71545320D01*
X12373041Y71547878D01*
X12297878Y71623041D01*
X12205823Y71676189D01*
X12103148Y71703700D01*
X11996852Y71703700D01*
X11894177Y71676189D01*
X11894175Y71676188D01*
X11894174Y71676188D01*
X11802125Y71623043D01*
X11802119Y71623039D01*
X11726961Y71547881D01*
X11726957Y71547875D01*
X11673812Y71455826D01*
X11673812Y71455825D01*
X11673811Y71455823D01*
X11646300Y71353148D01*
X4823633Y71353148D01*
X4876189Y71444177D01*
X4903700Y71546852D01*
X4903700Y71653148D01*
X4876189Y71755823D01*
X4823041Y71847878D01*
X4747878Y71923041D01*
X4655823Y71976189D01*
X4553148Y72003700D01*
X4446852Y72003700D01*
X4344177Y71976189D01*
X4344175Y71976188D01*
X4344174Y71976188D01*
X4252125Y71923043D01*
X4252119Y71923039D01*
X4176961Y71847881D01*
X4176957Y71847875D01*
X4123812Y71755826D01*
X4123812Y71755825D01*
X4123811Y71755823D01*
X4119774Y71740757D01*
X4083410Y71681097D01*
X4020563Y71650568D01*
X3951188Y71658863D01*
X3897310Y71703348D01*
X3880226Y71740756D01*
X3876189Y71755823D01*
X3823041Y71847878D01*
X3747878Y71923041D01*
X3655823Y71976189D01*
X3553148Y72003700D01*
X3446852Y72003700D01*
X3344177Y71976189D01*
X3344175Y71976188D01*
X3344174Y71976188D01*
X3252125Y71923043D01*
X3252119Y71923039D01*
X3176961Y71847881D01*
X3176957Y71847875D01*
X3123812Y71755826D01*
X3123812Y71755825D01*
X3123811Y71755823D01*
X3119774Y71740757D01*
X3083410Y71681097D01*
X3020563Y71650568D01*
X2951188Y71658863D01*
X2897310Y71703348D01*
X2880226Y71740756D01*
X2876189Y71755823D01*
X2823041Y71847878D01*
X2747878Y71923041D01*
X2655823Y71976189D01*
X2553148Y72003700D01*
X2446852Y72003700D01*
X2344177Y71976189D01*
X2344175Y71976188D01*
X2344174Y71976188D01*
X2252125Y71923043D01*
X2252119Y71923039D01*
X2176961Y71847881D01*
X2176957Y71847875D01*
X2123812Y71755826D01*
X2123812Y71755825D01*
X2123811Y71755823D01*
X2119774Y71740757D01*
X2083410Y71681097D01*
X2020563Y71650568D01*
X1951188Y71658863D01*
X1897310Y71703348D01*
X1880226Y71740756D01*
X1876189Y71755823D01*
X1823041Y71847878D01*
X1747878Y71923041D01*
X1655823Y71976189D01*
X1640756Y71980226D01*
X1581097Y72016589D01*
X1550567Y72079435D01*
X1558861Y72148811D01*
X1603346Y72202690D01*
X1640755Y72219774D01*
X1655823Y72223811D01*
X1747878Y72276959D01*
X1823041Y72352122D01*
X1876189Y72444177D01*
X1903700Y72546852D01*
X1903700Y72653148D01*
X1876189Y72755823D01*
X1823041Y72847878D01*
X1747878Y72923041D01*
X1655823Y72976189D01*
X1640756Y72980226D01*
X1581097Y73016589D01*
X1550567Y73079435D01*
X1558861Y73148811D01*
X1603346Y73202690D01*
X1640755Y73219774D01*
X1655823Y73223811D01*
X1747878Y73276959D01*
X1823041Y73352122D01*
X1876189Y73444177D01*
X1880225Y73459244D01*
X1916589Y73518903D01*
X1979435Y73549433D01*
X2048811Y73541139D01*
X2102690Y73496654D01*
X2119773Y73459245D01*
X2123811Y73444177D01*
X2176959Y73352122D01*
X2252122Y73276959D01*
X2344177Y73223811D01*
X2446852Y73196300D01*
X2446854Y73196300D01*
X2553146Y73196300D01*
X2553148Y73196300D01*
X2655823Y73223811D01*
X2747878Y73276959D01*
X2823041Y73352122D01*
X2876189Y73444177D01*
X2880225Y73459244D01*
X2916589Y73518903D01*
X2979435Y73549433D01*
X3048811Y73541139D01*
X3102690Y73496654D01*
X3119773Y73459245D01*
X3123811Y73444177D01*
X3176959Y73352122D01*
X3252122Y73276959D01*
X3344177Y73223811D01*
X3446852Y73196300D01*
X3446854Y73196300D01*
X3553146Y73196300D01*
X3553148Y73196300D01*
X3655823Y73223811D01*
X3747878Y73276959D01*
X3823041Y73352122D01*
X3876189Y73444177D01*
X3876941Y73446985D01*
X3878221Y73449086D01*
X3879297Y73451682D01*
X3879701Y73451515D01*
X3913297Y73506643D01*
X3976141Y73537178D01*
X4045517Y73528890D01*
X4099400Y73484410D01*
X4116490Y73446994D01*
X4121035Y73430032D01*
X4174183Y73337977D01*
X4249346Y73262814D01*
X4341401Y73209666D01*
X4444076Y73182155D01*
X4444078Y73182155D01*
X4550370Y73182155D01*
X4550372Y73182155D01*
X4653047Y73209666D01*
X4745102Y73262814D01*
X4820265Y73337977D01*
X4873413Y73430032D01*
X4900584Y73531439D01*
X20621300Y73531439D01*
X20621300Y73418561D01*
X20627999Y73393561D01*
X20650515Y73309527D01*
X20664949Y73284528D01*
X20706955Y73211772D01*
X20786772Y73131955D01*
X20884528Y73075515D01*
X20993561Y73046300D01*
X20993563Y73046300D01*
X21106437Y73046300D01*
X21106439Y73046300D01*
X21215472Y73075515D01*
X21313228Y73131955D01*
X21393045Y73211772D01*
X21449485Y73309528D01*
X21478700Y73418561D01*
X21478700Y73531439D01*
X21449485Y73640472D01*
X21393045Y73738228D01*
X21313228Y73818045D01*
X21235543Y73862897D01*
X21187329Y73913464D01*
X21174107Y73982071D01*
X21200075Y74046935D01*
X21235544Y74077670D01*
X21240472Y74080515D01*
X21338228Y74136955D01*
X21418045Y74216772D01*
X21474485Y74314528D01*
X21503700Y74423561D01*
X21503700Y74536439D01*
X25446300Y74536439D01*
X25446300Y74423562D01*
X25475515Y74314527D01*
X25497204Y74276962D01*
X25531955Y74216772D01*
X25611772Y74136955D01*
X25709528Y74080515D01*
X25709530Y74080514D01*
X25711828Y74079562D01*
X25713469Y74078240D01*
X25716567Y74076451D01*
X25716288Y74075968D01*
X25766233Y74035722D01*
X25788299Y73969429D01*
X25771021Y73901729D01*
X25719885Y73854117D01*
X25711828Y73850438D01*
X25709530Y73849487D01*
X25611772Y73793045D01*
X25611769Y73793043D01*
X25531957Y73713231D01*
X25531955Y73713228D01*
X25475515Y73615474D01*
X25446300Y73506439D01*
X25446300Y73393562D01*
X25475515Y73284527D01*
X25488052Y73262813D01*
X25531955Y73186772D01*
X25611772Y73106955D01*
X25709528Y73050515D01*
X25818561Y73021300D01*
X25818563Y73021300D01*
X25931437Y73021300D01*
X25931439Y73021300D01*
X26040472Y73050515D01*
X26138228Y73106955D01*
X26218045Y73186772D01*
X26274485Y73284528D01*
X26303700Y73393561D01*
X26303700Y73506439D01*
X26274485Y73615472D01*
X26218045Y73713228D01*
X26138228Y73793045D01*
X26089350Y73821265D01*
X26040473Y73849485D01*
X26038175Y73850436D01*
X26036532Y73851760D01*
X26033433Y73853549D01*
X26033711Y73854033D01*
X25983769Y73894274D01*
X25961700Y73960567D01*
X25978976Y74028267D01*
X26030110Y74075881D01*
X26038175Y74079564D01*
X26040467Y74080514D01*
X26040472Y74080515D01*
X26138228Y74136955D01*
X26218045Y74216772D01*
X26274485Y74314528D01*
X26303700Y74423561D01*
X26303700Y74536439D01*
X26274485Y74645472D01*
X26218045Y74743228D01*
X26138228Y74823045D01*
X26089350Y74851265D01*
X26040473Y74879485D01*
X25985955Y74894093D01*
X25931439Y74908700D01*
X25818561Y74908700D01*
X25709526Y74879485D01*
X25611772Y74823045D01*
X25611769Y74823043D01*
X25531957Y74743231D01*
X25531955Y74743228D01*
X25475515Y74645474D01*
X25446300Y74536439D01*
X21503700Y74536439D01*
X21474485Y74645472D01*
X21418045Y74743228D01*
X21338228Y74823045D01*
X21289350Y74851265D01*
X21240473Y74879485D01*
X21185955Y74894093D01*
X21131439Y74908700D01*
X21018561Y74908700D01*
X20909526Y74879485D01*
X20811772Y74823045D01*
X20811769Y74823043D01*
X20731957Y74743231D01*
X20731955Y74743228D01*
X20675515Y74645474D01*
X20646300Y74536439D01*
X20646300Y74423562D01*
X20675515Y74314527D01*
X20697204Y74276962D01*
X20731955Y74216772D01*
X20811772Y74136955D01*
X20889454Y74092105D01*
X20937670Y74041538D01*
X20950892Y73972931D01*
X20924924Y73908066D01*
X20889456Y73877332D01*
X20786775Y73818047D01*
X20786769Y73818043D01*
X20706957Y73738231D01*
X20706955Y73738228D01*
X20650515Y73640474D01*
X20643816Y73615472D01*
X20621300Y73531439D01*
X4900584Y73531439D01*
X4900924Y73532707D01*
X4900924Y73639003D01*
X4873413Y73741678D01*
X4820265Y73833733D01*
X4745102Y73908896D01*
X4653049Y73962043D01*
X4653050Y73962043D01*
X4653047Y73962044D01*
X4612971Y73972782D01*
X4553313Y74009146D01*
X4522784Y74071993D01*
X4531079Y74141369D01*
X4575564Y74195247D01*
X4612970Y74212330D01*
X4655823Y74223811D01*
X4747878Y74276959D01*
X4823041Y74352122D01*
X4876189Y74444177D01*
X4903700Y74546852D01*
X4903700Y74653148D01*
X4876189Y74755823D01*
X4823041Y74847878D01*
X4747878Y74923041D01*
X4747875Y74923043D01*
X4741429Y74927989D01*
X4742723Y74929677D01*
X4702273Y74972097D01*
X4689047Y75040704D01*
X4715012Y75105570D01*
X4771925Y75146100D01*
X4780373Y75148691D01*
X4780823Y75148811D01*
X4872878Y75201959D01*
X4948041Y75277122D01*
X5001189Y75369177D01*
X5028700Y75471852D01*
X5028700Y75578148D01*
X5001189Y75680823D01*
X4967420Y75739313D01*
X18451300Y75739313D01*
X18451300Y74500688D01*
X18478341Y74364746D01*
X18478344Y74364734D01*
X18531386Y74236677D01*
X18608401Y74121415D01*
X18706414Y74023402D01*
X18821676Y73946387D01*
X18929492Y73901729D01*
X18949738Y73893343D01*
X19085687Y73866301D01*
X19085690Y73866300D01*
X19085692Y73866300D01*
X19224310Y73866300D01*
X19224311Y73866301D01*
X19360262Y73893343D01*
X19431960Y73923041D01*
X19488323Y73946387D01*
X19488324Y73946388D01*
X19488327Y73946389D01*
X19603583Y74023400D01*
X19701600Y74121417D01*
X19778611Y74236673D01*
X19831657Y74364738D01*
X19858700Y74500692D01*
X19858700Y75682601D01*
X20109500Y75682601D01*
X20109500Y75557399D01*
X20141905Y75436464D01*
X20204505Y75328036D01*
X20293036Y75239505D01*
X20401464Y75176905D01*
X20522399Y75144500D01*
X20522401Y75144500D01*
X20647599Y75144500D01*
X20647601Y75144500D01*
X20768536Y75176905D01*
X20876964Y75239505D01*
X20965495Y75328036D01*
X21028095Y75436464D01*
X21060500Y75557399D01*
X21060500Y75682601D01*
X21031337Y75791437D01*
X21033000Y75861283D01*
X21072162Y75919146D01*
X21136390Y75946651D01*
X21167307Y75946466D01*
X21168555Y75946302D01*
X21168561Y75946300D01*
X21168567Y75946300D01*
X21281437Y75946300D01*
X21281439Y75946300D01*
X21390472Y75975515D01*
X21488228Y76031955D01*
X21568045Y76111772D01*
X21624485Y76209528D01*
X21653700Y76318561D01*
X21653700Y76431439D01*
X25296300Y76431439D01*
X25296300Y76318561D01*
X25302985Y76293611D01*
X25325515Y76209527D01*
X25346648Y76172925D01*
X25381955Y76111772D01*
X25461772Y76031955D01*
X25559528Y75975515D01*
X25668561Y75946300D01*
X25668563Y75946300D01*
X25781431Y75946300D01*
X25781439Y75946300D01*
X25781446Y75946303D01*
X25782691Y75946466D01*
X25783756Y75946300D01*
X25789566Y75946300D01*
X25789566Y75945395D01*
X25851727Y75935706D01*
X25903987Y75889331D01*
X25922878Y75822064D01*
X25918662Y75791435D01*
X25889500Y75682602D01*
X25889500Y75682601D01*
X25889500Y75557399D01*
X25921905Y75436464D01*
X25984505Y75328036D01*
X26073036Y75239505D01*
X26181464Y75176905D01*
X26302399Y75144500D01*
X26302401Y75144500D01*
X26427599Y75144500D01*
X26427601Y75144500D01*
X26548536Y75176905D01*
X26656964Y75239505D01*
X26745495Y75328036D01*
X26808095Y75436464D01*
X26840500Y75557399D01*
X26840500Y75682601D01*
X26825304Y75739313D01*
X27091300Y75739313D01*
X27091300Y74500688D01*
X27118341Y74364746D01*
X27118344Y74364734D01*
X27171386Y74236677D01*
X27248401Y74121415D01*
X27346414Y74023402D01*
X27461676Y73946387D01*
X27569492Y73901729D01*
X27589738Y73893343D01*
X27725687Y73866301D01*
X27725690Y73866300D01*
X27725692Y73866300D01*
X27864310Y73866300D01*
X27864311Y73866301D01*
X28000262Y73893343D01*
X28071960Y73923041D01*
X28128323Y73946387D01*
X28128324Y73946388D01*
X28128327Y73946389D01*
X28243583Y74023400D01*
X28341600Y74121417D01*
X28418611Y74236673D01*
X28471657Y74364738D01*
X28498700Y74500692D01*
X28498700Y75739308D01*
X28498700Y75739311D01*
X28498699Y75739313D01*
X28477072Y75848039D01*
X28471657Y75875262D01*
X28471655Y75875267D01*
X28418613Y76003324D01*
X28341598Y76118586D01*
X28243585Y76216599D01*
X28128323Y76293614D01*
X28000266Y76346656D01*
X28000254Y76346659D01*
X27864311Y76373700D01*
X27864308Y76373700D01*
X27725692Y76373700D01*
X27725689Y76373700D01*
X27589745Y76346659D01*
X27589733Y76346656D01*
X27461676Y76293614D01*
X27346414Y76216599D01*
X27248401Y76118586D01*
X27171386Y76003324D01*
X27118344Y75875267D01*
X27118341Y75875255D01*
X27091300Y75739313D01*
X26825304Y75739313D01*
X26808095Y75803536D01*
X26745495Y75911964D01*
X26656964Y76000495D01*
X26548536Y76063095D01*
X26548537Y76063095D01*
X26508224Y76073897D01*
X26427601Y76095500D01*
X26302399Y76095500D01*
X26302396Y76095500D01*
X26285260Y76090908D01*
X26215411Y76092571D01*
X26157548Y76131734D01*
X26130045Y76195963D01*
X26133393Y76242775D01*
X26153700Y76318561D01*
X26153700Y76431439D01*
X26124485Y76540472D01*
X26068045Y76638228D01*
X25988228Y76718045D01*
X25924967Y76754569D01*
X25890473Y76774485D01*
X25835955Y76789093D01*
X25781439Y76803700D01*
X25668561Y76803700D01*
X25559526Y76774485D01*
X25461772Y76718045D01*
X25461769Y76718043D01*
X25381957Y76638231D01*
X25381955Y76638228D01*
X25325515Y76540474D01*
X25299549Y76443563D01*
X25296300Y76431439D01*
X21653700Y76431439D01*
X21624485Y76540472D01*
X21568045Y76638228D01*
X21488228Y76718045D01*
X21424967Y76754569D01*
X21390473Y76774485D01*
X21335955Y76789093D01*
X21281439Y76803700D01*
X21168561Y76803700D01*
X21059526Y76774485D01*
X20961772Y76718045D01*
X20961769Y76718043D01*
X20881957Y76638231D01*
X20881955Y76638228D01*
X20825515Y76540474D01*
X20796300Y76431439D01*
X20796300Y76318560D01*
X20816606Y76242775D01*
X20814943Y76172925D01*
X20775780Y76115063D01*
X20711551Y76087560D01*
X20664738Y76090908D01*
X20647601Y76095500D01*
X20522399Y76095500D01*
X20441775Y76073897D01*
X20401463Y76063095D01*
X20293037Y76000496D01*
X20293034Y76000494D01*
X20204506Y75911966D01*
X20204504Y75911963D01*
X20141905Y75803537D01*
X20141905Y75803536D01*
X20109500Y75682601D01*
X19858700Y75682601D01*
X19858700Y75739308D01*
X19858700Y75739311D01*
X19858699Y75739313D01*
X19837072Y75848039D01*
X19831657Y75875262D01*
X19831655Y75875267D01*
X19778613Y76003324D01*
X19701598Y76118586D01*
X19603585Y76216599D01*
X19488323Y76293614D01*
X19360266Y76346656D01*
X19360254Y76346659D01*
X19224311Y76373700D01*
X19224308Y76373700D01*
X19085692Y76373700D01*
X19085689Y76373700D01*
X18949745Y76346659D01*
X18949733Y76346656D01*
X18821676Y76293614D01*
X18706414Y76216599D01*
X18608401Y76118586D01*
X18531386Y76003324D01*
X18478344Y75875267D01*
X18478341Y75875255D01*
X18451300Y75739313D01*
X4967420Y75739313D01*
X4948041Y75772878D01*
X4872878Y75848041D01*
X4784942Y75898811D01*
X4780825Y75901188D01*
X4780824Y75901189D01*
X4780823Y75901189D01*
X4678148Y75928700D01*
X4571852Y75928700D01*
X4469177Y75901189D01*
X4469175Y75901188D01*
X4469174Y75901188D01*
X4377125Y75848043D01*
X4377119Y75848039D01*
X4301961Y75772881D01*
X4301957Y75772875D01*
X4248812Y75680826D01*
X4248812Y75680825D01*
X4248811Y75680823D01*
X4221300Y75578148D01*
X4221300Y75471852D01*
X4248811Y75369177D01*
X4301959Y75277122D01*
X4377122Y75201959D01*
X4377124Y75201958D01*
X4383571Y75197011D01*
X4382274Y75195322D01*
X4422722Y75152911D01*
X4435953Y75084306D01*
X4409992Y75019438D01*
X4353083Y74978903D01*
X4344615Y74976307D01*
X4344183Y74976192D01*
X4344174Y74976188D01*
X4252125Y74923043D01*
X4252119Y74923039D01*
X4176961Y74847881D01*
X4176957Y74847875D01*
X4123812Y74755826D01*
X4123812Y74755825D01*
X4123811Y74755823D01*
X4119774Y74740757D01*
X4083410Y74681097D01*
X4020563Y74650568D01*
X3951188Y74658863D01*
X3897310Y74703348D01*
X3880226Y74740756D01*
X3876189Y74755823D01*
X3823041Y74847878D01*
X3747878Y74923041D01*
X3655823Y74976189D01*
X3553148Y75003700D01*
X3446852Y75003700D01*
X3344177Y74976189D01*
X3344175Y74976188D01*
X3344174Y74976188D01*
X3252125Y74923043D01*
X3252119Y74923039D01*
X3176961Y74847881D01*
X3176957Y74847875D01*
X3123812Y74755826D01*
X3123812Y74755825D01*
X3123811Y74755823D01*
X3119774Y74740757D01*
X3083410Y74681097D01*
X3020563Y74650568D01*
X2951188Y74658863D01*
X2897310Y74703348D01*
X2880226Y74740756D01*
X2876189Y74755823D01*
X2823041Y74847878D01*
X2747878Y74923041D01*
X2655823Y74976189D01*
X2553148Y75003700D01*
X2446852Y75003700D01*
X2344177Y74976189D01*
X2344175Y74976188D01*
X2344174Y74976188D01*
X2252125Y74923043D01*
X2252119Y74923039D01*
X2176961Y74847881D01*
X2176957Y74847875D01*
X2123812Y74755826D01*
X2123812Y74755825D01*
X2123811Y74755823D01*
X2119774Y74740757D01*
X2083410Y74681097D01*
X2020563Y74650568D01*
X1951188Y74658863D01*
X1897310Y74703348D01*
X1880226Y74740756D01*
X1876189Y74755823D01*
X1823041Y74847878D01*
X1747878Y74923041D01*
X1655823Y74976189D01*
X1553148Y75003700D01*
X1446852Y75003700D01*
X1344177Y74976189D01*
X1344175Y74976188D01*
X1344174Y74976188D01*
X1252125Y74923043D01*
X1252119Y74923039D01*
X1176961Y74847881D01*
X1176957Y74847875D01*
X1123812Y74755826D01*
X1123812Y74755825D01*
X1123811Y74755823D01*
X1096300Y74653148D01*
X450500Y74653148D01*
X450500Y76556439D01*
X8921300Y76556439D01*
X8921300Y76443561D01*
X8924713Y76430825D01*
X8950515Y76334527D01*
X8959734Y76318560D01*
X9006955Y76236772D01*
X9086772Y76156955D01*
X9184528Y76100515D01*
X9293561Y76071300D01*
X9293563Y76071300D01*
X9406437Y76071300D01*
X9406439Y76071300D01*
X9515472Y76100515D01*
X9613228Y76156955D01*
X9693045Y76236772D01*
X9745801Y76328148D01*
X16546300Y76328148D01*
X16546300Y76221852D01*
X16573811Y76119177D01*
X16573812Y76119176D01*
X16573812Y76119175D01*
X16587481Y76095500D01*
X16626959Y76027122D01*
X16702122Y75951959D01*
X16794177Y75898811D01*
X16896852Y75871300D01*
X16896854Y75871300D01*
X17003146Y75871300D01*
X17003148Y75871300D01*
X17105823Y75898811D01*
X17197878Y75951959D01*
X17273041Y76027122D01*
X17326189Y76119177D01*
X17353700Y76221852D01*
X17353700Y76328148D01*
X17326189Y76430823D01*
X17273041Y76522878D01*
X17197878Y76598041D01*
X17105823Y76651189D01*
X17003148Y76678700D01*
X16896852Y76678700D01*
X16794177Y76651189D01*
X16794175Y76651188D01*
X16794174Y76651188D01*
X16702125Y76598043D01*
X16702119Y76598039D01*
X16626961Y76522881D01*
X16626957Y76522875D01*
X16573812Y76430826D01*
X16573812Y76430825D01*
X16573811Y76430823D01*
X16546300Y76328148D01*
X9745801Y76328148D01*
X9749485Y76334528D01*
X9778700Y76443561D01*
X9778700Y76556439D01*
X9749485Y76665472D01*
X9693045Y76763228D01*
X9613228Y76843045D01*
X9564350Y76871265D01*
X9515473Y76899485D01*
X9460955Y76914093D01*
X9406439Y76928700D01*
X9293561Y76928700D01*
X9184526Y76899485D01*
X9086772Y76843045D01*
X9086769Y76843043D01*
X9006957Y76763231D01*
X9006955Y76763228D01*
X8950515Y76665474D01*
X8921300Y76556439D01*
X450500Y76556439D01*
X450500Y77210493D01*
X21768371Y77210493D01*
X21768371Y77097616D01*
X21797586Y76988581D01*
X21825806Y76939704D01*
X21854026Y76890826D01*
X21933843Y76811009D01*
X22031599Y76754569D01*
X22140632Y76725354D01*
X22140634Y76725354D01*
X22253508Y76725354D01*
X22253510Y76725354D01*
X22362543Y76754569D01*
X22460299Y76811009D01*
X22540116Y76890826D01*
X22596556Y76988582D01*
X22625771Y77097615D01*
X22625771Y77179697D01*
X22645456Y77246736D01*
X22698260Y77292491D01*
X22749771Y77303697D01*
X22794539Y77303697D01*
X22794541Y77303697D01*
X22903574Y77332912D01*
X23001330Y77389352D01*
X23081147Y77469169D01*
X23137587Y77566925D01*
X23166802Y77675958D01*
X23166802Y77788836D01*
X23137587Y77897869D01*
X23081147Y77995625D01*
X23001330Y78075442D01*
X22952452Y78103662D01*
X22903575Y78131882D01*
X22849057Y78146490D01*
X22794541Y78161097D01*
X22681663Y78161097D01*
X22572628Y78131882D01*
X22474874Y78075442D01*
X22474871Y78075440D01*
X22395059Y77995628D01*
X22395057Y77995625D01*
X22338617Y77897871D01*
X22309402Y77788836D01*
X22309402Y77706754D01*
X22289717Y77639715D01*
X22236913Y77593960D01*
X22185402Y77582754D01*
X22140632Y77582754D01*
X22031597Y77553539D01*
X21933843Y77497099D01*
X21933840Y77497097D01*
X21854028Y77417285D01*
X21854026Y77417282D01*
X21797586Y77319528D01*
X21768371Y77210493D01*
X450500Y77210493D01*
X450500Y79403148D01*
X2871300Y79403148D01*
X2871300Y79296852D01*
X2898811Y79194177D01*
X2951959Y79102122D01*
X3027122Y79026959D01*
X3119177Y78973811D01*
X3221852Y78946300D01*
X3221854Y78946300D01*
X3328146Y78946300D01*
X3328148Y78946300D01*
X3430823Y78973811D01*
X3522878Y79026959D01*
X3598041Y79102122D01*
X3651189Y79194177D01*
X3678700Y79296852D01*
X3678700Y79403148D01*
X3651189Y79505823D01*
X3598041Y79597878D01*
X3522878Y79673041D01*
X3430823Y79726189D01*
X3328148Y79753700D01*
X3221852Y79753700D01*
X3119177Y79726189D01*
X3119175Y79726188D01*
X3119174Y79726188D01*
X3027125Y79673043D01*
X3027119Y79673039D01*
X2951961Y79597881D01*
X2951957Y79597875D01*
X2898812Y79505826D01*
X2898812Y79505825D01*
X2898811Y79505823D01*
X2871300Y79403148D01*
X450500Y79403148D01*
X450500Y80240245D01*
X452025Y80259630D01*
X457192Y80292256D01*
X469177Y80329143D01*
X479687Y80349770D01*
X502486Y80381149D01*
X518851Y80397514D01*
X550230Y80420313D01*
X570857Y80430823D01*
X607744Y80442808D01*
X640369Y80447975D01*
X659756Y80449500D01*
X697595Y80449500D01*
X18750967Y80449500D01*
X18783453Y80439961D01*
G37*
%TD.AperFunction*%
%TA.AperFunction,Conductor*%
G36*
X8670903Y11167539D02*
G01*
X8677381Y11161507D01*
X9022981Y10815907D01*
X9056466Y10754584D01*
X9059300Y10728226D01*
X9059300Y6806581D01*
X9039615Y6739542D01*
X9031581Y6729573D01*
X9031906Y6729324D01*
X9026957Y6722875D01*
X8973812Y6630826D01*
X8973809Y6630818D01*
X8972650Y6626493D01*
X8936280Y6566835D01*
X8873431Y6536311D01*
X8804056Y6544612D01*
X8765197Y6570915D01*
X8502019Y6834093D01*
X8468534Y6895416D01*
X8465700Y6921774D01*
X8465700Y11073826D01*
X8485385Y11140865D01*
X8538189Y11186620D01*
X8607347Y11196564D01*
X8670903Y11167539D01*
G37*
%TD.AperFunction*%
%TA.AperFunction,Conductor*%
G36*
X7690959Y40088243D02*
G01*
X7746893Y40046373D01*
X7771312Y39980909D01*
X7770975Y39969566D01*
X7771300Y39969566D01*
X7771300Y39848562D01*
X7800515Y39739527D01*
X7821474Y39703226D01*
X7856955Y39641772D01*
X7936772Y39561955D01*
X8034528Y39505515D01*
X8143561Y39476300D01*
X8143563Y39476300D01*
X8256437Y39476300D01*
X8256439Y39476300D01*
X8353208Y39502229D01*
X8423057Y39500566D01*
X8480919Y39461403D01*
X8508423Y39397175D01*
X8509300Y39382454D01*
X8509300Y36664837D01*
X8489615Y36597798D01*
X8436811Y36552043D01*
X8367653Y36542099D01*
X8304097Y36571124D01*
X8277914Y36602835D01*
X8260301Y36633340D01*
X8243045Y36663228D01*
X8163228Y36743045D01*
X8104209Y36777120D01*
X8065473Y36799485D01*
X8010955Y36814093D01*
X7956439Y36828700D01*
X7843561Y36828700D01*
X7734528Y36799485D01*
X7734527Y36799485D01*
X7734525Y36799484D01*
X7734524Y36799484D01*
X7725220Y36794112D01*
X7657319Y36777642D01*
X7591293Y36800496D01*
X7548104Y36855418D01*
X7541465Y36924972D01*
X7543438Y36933555D01*
X7553700Y36971852D01*
X7553700Y37078148D01*
X7526189Y37180823D01*
X7520311Y37191005D01*
X7503700Y37253001D01*
X7503700Y39952131D01*
X7523385Y40019170D01*
X7540017Y40039810D01*
X7546580Y40046373D01*
X7559947Y40059741D01*
X7621267Y40093226D01*
X7690959Y40088243D01*
G37*
%TD.AperFunction*%
%TD*%
M02*
