M48
; DRILL file KiCad 10.0.0 date 2026-04-10T11:10:56
; FORMAT={-:-/ absolute / inch / decimal}
; #@! TF.CreationDate,2026-04-10T11:10:56+02:00
; #@! TF.GenerationSoftware,Kicad,Pcbnew,10.0.0
; #@! TF.FileFunction,Plated,1,4,PTH
FMAT,2
INCH
; #@! TA.AperFunction,Plated,PTH,ViaDrill
T1C0.0118
; #@! TA.AperFunction,Plated,PTH,ComponentDrill
T2C0.0197
; #@! TA.AperFunction,Plated,PTH,ComponentDrill
T3C0.0374
; #@! TA.AperFunction,Plated,PTH,ComponentDrill
T4C0.0394
; #@! TA.AperFunction,Plated,PTH,ComponentDrill
T5C0.0512
; #@! TA.AperFunction,Plated,PTH,ComponentDrill
T6C0.0906
; #@! TA.AperFunction,Plated,PTH,ComponentDrill
T7C0.1024
; #@! TA.AperFunction,Plated,PTH,ComponentDrill
T8C0.1260
; #@! TA.AperFunction,Plated,PTH,ComponentDrill
T9C0.1299
; #@! TA.AperFunction,Plated,PTH,ComponentDrill
T10C0.1457
%
G90
G05
T1
X0.065Y0.3524
X0.0787Y5.0197
X0.0787Y4.9213
X0.0787Y2.2638
X0.0787Y2.1654
X0.0787Y1.0827
X0.0787Y0.4921
X0.1358Y0.3996
X0.1772Y5.4134
X0.1772Y5.315
X0.1772Y5.2165
X0.1772Y2.2638
X0.1772Y2.1654
X0.1772Y1.0827
X0.1772Y0.8858
X0.1772Y0.4921
X0.1772Y0.0984
X0.1793Y0.94
X0.2067Y0.3524
X0.2618Y3.4213
X0.2657Y1.874
X0.2756Y5.4134
X0.2756Y5.315
X0.2756Y5.2165
X0.2756Y2.2638
X0.2756Y2.1654
X0.2756Y1.6732
X0.2756Y1.5748
X0.2756Y1.0827
X0.2756Y0.8858
X0.2972Y1.874
X0.313Y4.6781
X0.315Y4.5906
X0.372Y0.7469
X0.374Y3.7402
X0.374Y3.6417
X0.374Y3.5433
X0.374Y2.2638
X0.374Y2.1654
X0.374Y1.9685
X0.374Y1.6732
X0.374Y1.5748
X0.374Y1.4764
X0.374Y1.1811
X0.374Y0.8858
X0.3926Y5.7485
X0.3937Y5.7087
X0.4134Y0.7134
X0.4331Y5.748
X0.4331Y5.7087
X0.4587Y0.8394
X0.4724Y5.748
X0.4724Y5.7087
X0.4724Y5.0787
X0.4724Y5.0394
X0.4724Y5.0
X0.4724Y4.9606
X0.4724Y4.9213
X0.4724Y4.8819
X0.4724Y4.8425
X0.4724Y4.8031
X0.4724Y4.3307
X0.4724Y4.2323
X0.4724Y4.1339
X0.4724Y3.7402
X0.4724Y3.6417
X0.4724Y3.0512
X0.4724Y2.9528
X0.4724Y2.4606
X0.4724Y2.3622
X0.4724Y2.2638
X0.4724Y2.1654
X0.4724Y1.4764
X0.4724Y1.378
X0.4724Y1.2795
X0.4724Y1.1811
X0.4873Y1.83
X0.5118Y5.748
X0.5118Y5.0787
X0.5118Y5.0394
X0.5118Y5.0
X0.5118Y4.9606
X0.5118Y4.9213
X0.5118Y4.8819
X0.5118Y4.8425
X0.5118Y4.8031
X0.5351Y1.5362
X0.5512Y5.748
X0.5512Y4.8425
X0.5512Y4.8031
X0.561Y3.3799
X0.5689Y1.774
X0.5697Y2.9549
X0.5709Y4.2323
X0.5709Y4.1339
X0.5709Y3.7402
X0.5709Y3.6417
X0.5709Y3.5522
X0.5709Y2.4606
X0.5709Y2.3622
X0.5709Y2.2638
X0.5709Y1.9685
X0.5709Y1.4764
X0.5709Y1.378
X0.5709Y1.2795
X0.5709Y1.1811
X0.5787Y2.5433
X0.5827Y3.8031
X0.5906Y5.748
X0.5906Y4.8425
X0.5906Y4.8031
X0.5965Y4.4193
X0.6073Y4.4892
X0.6073Y3.4715
X0.6102Y5.0827
X0.6181Y5.0236
X0.628Y4.4193
X0.6299Y5.748
X0.6339Y4.1299
X0.6339Y2.874
X0.6551Y1.5382
X0.6594Y4.4193
X0.6654Y0.989
X0.6693Y5.748
X0.6693Y4.2323
X0.6693Y3.6417
X0.6693Y3.5433
X0.6693Y3.3465
X0.6693Y3.0512
X0.6693Y2.9528
X0.6693Y2.4606
X0.6693Y2.3622
X0.6693Y2.2638
X0.6693Y1.9685
X0.6693Y1.4764
X0.6693Y1.378
X0.6693Y1.2795
X0.6693Y1.1811
X0.6762Y4.3593
X0.6772Y4.8346
X0.685Y3.7598
X0.685Y2.5
X0.7087Y5.748
X0.7156Y1.8307
X0.7224Y2.5433
X0.7244Y3.8051
X0.7303Y1.0461
X0.748Y5.748
X0.748Y5.7087
X0.748Y2.9134
X0.7618Y4.9055
X0.767Y0.5896
X0.7677Y1.7717
X0.7677Y1.6732
X0.7677Y1.5748
X0.7677Y1.4764
X0.7677Y1.378
X0.7677Y1.2795
X0.7677Y1.0827
X0.7677Y0.4921
X0.7835Y4.4872
X0.7874Y5.748
X0.7874Y5.7087
X0.8051Y3.7618
X0.8051Y2.7087
X0.8051Y2.6732
X0.8051Y2.5
X0.8051Y1.9921
X0.8051Y1.9528
X0.8071Y4.5866
X0.8071Y4.4094
X0.8268Y5.748
X0.8268Y5.7087
X0.8327Y1.0461
X0.8602Y0.3524
X0.8654Y0.5896
X0.8661Y5.748
X0.8661Y5.7087
X0.8661Y5.6693
X0.8661Y5.6299
X0.8661Y5.5906
X0.8661Y5.5512
X0.8661Y5.5118
X0.8661Y5.4724
X0.8661Y5.4331
X0.8661Y5.3937
X0.8661Y5.3543
X0.8661Y4.2323
X0.8661Y2.2638
X0.8661Y2.1654
X0.8661Y1.0827
X0.8661Y0.7874
X0.8661Y0.4921
X0.8661Y0.0984
X0.8937Y0.989
X0.8937Y0.9339
X0.9055Y5.748
X0.9055Y4.5866
X0.9055Y4.4882
X0.9055Y4.4094
X0.9094Y3.8031
X0.9094Y2.5433
X0.9213Y2.914
X0.9252Y0.4016
X0.9291Y0.6299
X0.9311Y0.752
X0.9449Y5.748
X0.9449Y2.6089
X0.9547Y4.8346
X0.9547Y4.4626
X0.958Y5.04
X0.958Y5.0
X0.958Y4.962
X0.9638Y0.5896
X0.9646Y4.1339
X0.9646Y3.7402
X0.9646Y3.6417
X0.9646Y3.5433
X0.9646Y3.4449
X0.9646Y3.3465
X0.9646Y3.248
X0.9646Y3.1496
X0.9646Y3.0512
X0.9646Y2.9528
X0.9646Y2.5591
X0.9646Y2.4606
X0.9646Y2.3622
X0.9646Y2.2638
X0.9646Y2.1654
X0.9646Y1.0827
X0.9646Y0.4921
X0.9646Y0.0984
X0.9652Y1.8695
X0.9764Y1.4744
X0.9921Y1.1772
X0.9961Y2.6561
X1.0049Y4.3652
X1.0049Y4.3268
X1.0098Y1.7756
X1.01Y5.04
X1.01Y5.0
X1.01Y4.962
X1.0138Y0.3524
X1.0157Y2.7835
X1.0157Y2.727
X1.0186Y2.6797
X1.0197Y2.6325
X1.0217Y0.6909
X1.0246Y1.1778
X1.0354Y1.3425
X1.0394Y2.7559
X1.0394Y2.7033
X1.0413Y5.7264
X1.0413Y5.4016
X1.0571Y1.1778
X1.0623Y0.5896
X1.063Y4.8228
X1.063Y4.685
X1.063Y4.5866
X1.063Y3.7402
X1.063Y3.6417
X1.063Y3.5433
X1.063Y3.4449
X1.063Y3.3465
X1.063Y3.248
X1.063Y3.1496
X1.063Y3.0512
X1.063Y2.9528
X1.063Y2.4606
X1.063Y2.3622
X1.063Y2.2638
X1.063Y2.1654
X1.063Y1.8701
X1.063Y1.7717
X1.063Y0.8858
X1.063Y0.4921
X1.063Y0.0984
X1.0669Y4.0394
X1.0669Y3.9882
X1.0669Y3.937
X1.0846Y1.7047
X1.0858Y4.0118
X1.0866Y3.9612
X1.0866Y3.8583
X1.0886Y1.1772
X1.0906Y3.9094
X1.0945Y5.561
X1.0945Y5.4567
X1.0945Y4.0669
X1.1043Y0.3996
X1.1063Y1.2559
X1.1102Y5.3228
X1.1102Y5.1969
X1.1324Y4.4636
X1.1398Y5.6083
X1.1417Y1.2362
X1.1607Y0.5896
X1.1614Y5.315
X1.1614Y4.8228
X1.1614Y4.685
X1.1614Y4.5866
X1.1614Y3.7402
X1.1614Y3.6417
X1.1614Y3.5433
X1.1614Y3.4449
X1.1614Y3.3465
X1.1614Y3.248
X1.1614Y3.1496
X1.1614Y3.0512
X1.1614Y2.9528
X1.1614Y2.8543
X1.1614Y1.2087
X1.1614Y1.0827
X1.1614Y0.8858
X1.1614Y0.7874
X1.1614Y0.689
X1.1614Y0.4921
X1.1614Y0.0984
X1.162Y5.025
X1.1673Y0.3524
X1.185Y5.2559
X1.187Y4.9252
X1.1929Y1.189
X1.2116Y4.3504
X1.215Y1.2114
X1.2229Y4.188
X1.2362Y1.2283
X1.2559Y1.252
X1.2591Y0.5896
X1.2598Y5.7087
X1.2598Y5.6102
X1.2598Y5.4134
X1.2598Y4.9213
X1.2598Y4.1339
X1.2598Y4.0354
X1.2598Y3.5433
X1.2598Y3.4449
X1.2598Y3.3465
X1.2598Y3.248
X1.2598Y3.1496
X1.2598Y2.9528
X1.2598Y2.8543
X1.2598Y2.7559
X1.2598Y2.5591
X1.2598Y2.4606
X1.2598Y2.3622
X1.2598Y1.1811
X1.2598Y1.0827
X1.2598Y0.689
X1.2598Y0.4921
X1.2653Y4.2313
X1.2677Y1.7677
X1.2677Y1.6378
X1.2741Y4.4281
X1.2756Y1.2717
X1.2835Y1.4685
X1.284Y4.3022
X1.3009Y1.2416
X1.3206Y1.222
X1.3248Y5.0315
X1.3248Y4.9685
X1.3327Y5.1713
X1.3386Y1.2008
X1.3425Y4.4331
X1.3543Y1.1772
X1.3575Y0.5896
X1.3583Y5.7087
X1.3583Y5.6102
X1.3583Y4.9213
X1.3583Y4.1339
X1.3583Y4.0354
X1.3583Y3.937
X1.3583Y1.0827
X1.3583Y0.689
X1.3583Y0.4921
X1.376Y4.4685
X1.3819Y5.1102
X1.3819Y1.1575
X1.4094Y1.1772
X1.4291Y1.2008
X1.4466Y1.2283
X1.456Y0.5896
X1.4567Y5.7087
X1.4567Y4.9213
X1.4567Y4.0354
X1.4567Y3.937
X1.4567Y3.8386
X1.4567Y1.8681
X1.4567Y1.8406
X1.4567Y1.811
X1.4567Y1.7598
X1.4567Y1.0827
X1.4567Y0.689
X1.4567Y0.4921
X1.4567Y0.3937
X1.4606Y1.6496
X1.4606Y1.4685
X1.4626Y4.3455
X1.4764Y1.2598
X1.4774Y4.1752
X1.4961Y1.2362
X1.5157Y3.6614
X1.5157Y3.563
X1.5157Y3.4646
X1.5157Y3.3661
X1.5157Y3.2677
X1.5157Y3.1693
X1.5197Y1.2087
X1.5217Y4.2175
X1.5236Y4.4291
X1.545Y1.2362
X1.5551Y5.7087
X1.5551Y4.9213
X1.5551Y4.8228
X1.5551Y4.7244
X1.5551Y4.1339
X1.5551Y4.0354
X1.5551Y3.937
X1.5551Y3.8386
X1.5551Y3.7402
X1.5551Y3.0512
X1.5551Y2.9528
X1.5551Y1.1811
X1.5551Y1.0827
X1.5669Y1.2677
X1.5827Y1.4646
X1.5945Y1.3425
X1.6102Y1.311
X1.6142Y3.6614
X1.6142Y3.563
X1.6142Y3.4646
X1.6142Y3.3661
X1.6142Y3.2677
X1.6142Y3.1693
X1.6142Y2.8386
X1.6142Y2.7638
X1.6142Y2.7126
X1.6142Y2.662
X1.6339Y2.9055
X1.6374Y1.2909
X1.6378Y2.7874
X1.6378Y2.7362
X1.6378Y2.685
X1.6378Y2.6364
X1.6496Y4.0394
X1.6496Y3.9882
X1.6496Y3.9331
X1.6535Y5.7087
X1.6535Y4.9213
X1.6535Y4.8228
X1.6535Y4.7244
X1.6535Y4.2126
X1.6535Y4.1339
X1.6535Y2.5591
X1.6535Y2.4606
X1.6535Y2.3622
X1.6535Y1.1811
X1.6535Y1.0827
X1.6585Y4.6043
X1.6634Y1.8957
X1.6654Y4.3543
X1.6693Y1.311
X1.6722Y4.5295
X1.6772Y1.4646
X1.6811Y4.0866
X1.6811Y4.0118
X1.6811Y3.878
X1.6817Y3.9612
X1.7047Y1.7047
X1.7283Y4.1535
X1.7402Y1.8228
X1.752Y5.7087
X1.752Y4.7244
X1.752Y1.2795
X1.752Y1.1811
X1.752Y1.0827
X1.7598Y1.7992
X1.7835Y1.7756
X1.811Y1.3484
X1.8218Y1.9793
X1.8425Y1.9528
X1.8504Y4.7244
X1.8504Y4.2323
X1.8504Y2.5591
X1.8504Y2.4606
X1.8504Y1.7717
X1.8504Y1.2795
X1.8504Y1.1811
X1.8504Y1.0827
X1.8622Y1.8583
X1.8661Y1.9291
X1.8661Y1.3957
X1.876Y4.0128
X1.876Y2.9055
X1.8937Y1.8583
X1.9124Y4.3159
X1.9232Y1.8583
X1.937Y4.5704
X1.9488Y4.2323
X1.9488Y3.7402
X1.9488Y3.6417
X1.9488Y3.3465
X1.9488Y3.0512
X1.9488Y1.0827
X1.9547Y4.2008
X1.9547Y2.9469
X1.9823Y2.2362
X1.9823Y2.1949
X1.9843Y4.5271
X2.0079Y3.8268
X2.0079Y2.5787
X2.0315Y4.5704
X2.0374Y1.3504
X2.0394Y1.5335
X2.0394Y1.1654
X2.0472Y4.2323
X2.0472Y3.7402
X2.0472Y3.6417
X2.0472Y3.5433
X2.0472Y3.4449
X2.0472Y3.3465
X2.0472Y3.248
X2.0472Y3.1496
X2.0472Y3.0512
X2.0472Y2.9528
X2.0472Y2.4606
X2.0472Y2.2638
X2.0472Y2.0827
X2.0472Y1.9055
X2.0472Y1.7185
X2.0472Y0.7874
X2.0512Y4.6772
X2.0591Y4.1535
X2.063Y2.9055
X2.0837Y4.3278
X2.1299Y5.0394
X2.1457Y2.2638
X2.1457Y0.7874
X2.1457Y0.689
X2.1575Y4.5177
X2.1575Y2.4862
X2.1575Y2.4508
X2.1575Y2.4134
X2.185Y4.5433
X2.2047Y4.6398
X2.2047Y4.6063
X2.2047Y4.5689
X2.2283Y2.1575
X2.2441Y0.7874
X2.2441Y0.689
X2.2441Y0.5906
X2.2441Y0.4921
X2.2618Y1.502
X2.2638Y1.1358
X2.2657Y1.75
X2.2657Y1.565
X2.2657Y1.1969
X2.2697Y1.689
X2.2697Y1.3189
X2.2717Y1.935
X2.2717Y1.3839
X2.2756Y1.874
X2.2766Y3.3878
X2.2795Y2.0571
X2.2835Y4.874
X2.3219Y4.5344
X2.3425Y2.2638
X2.3425Y1.0827
X2.3425Y1.0827
X2.3425Y0.9843
X2.3425Y0.4921
X2.3622Y4.9882
X2.4252Y0.3543
X2.4402Y2.1658
X2.4409Y2.2638
X2.4409Y1.0827
X2.4409Y0.9843
X2.4409Y0.4921
X2.4409Y0.0984
X2.4449Y4.874
X2.4862Y0.4114
X2.5394Y1.0827
X2.5394Y0.9843
X2.5394Y0.8858
X2.5394Y0.4921
X2.5453Y0.3543
T2
X0.0787Y5.6299
X0.0787Y0.6693
X0.1064Y5.6967
X0.1064Y5.5631
X0.1064Y0.7361
X0.1064Y0.6025
X0.1732Y5.7244
X0.1732Y5.5354
X0.1732Y0.7638
X0.1732Y0.5748
X0.24Y5.6967
X0.24Y5.5631
X0.24Y0.7361
X0.24Y0.6025
X0.2677Y5.6299
X0.2677Y0.6693
X2.3071Y0.6693
X2.319Y5.618
X2.3348Y0.7361
X2.3348Y0.6025
X2.3467Y5.6848
X2.3467Y5.5512
X2.4016Y0.7638
X2.4016Y0.5748
X2.4135Y5.7125
X2.4135Y5.5235
X2.4684Y0.7361
X2.4684Y0.6025
X2.4803Y5.6848
X2.4803Y5.5512
X2.4961Y0.6693
X2.508Y5.618
T3
X0.4783Y0.4619
X0.4783Y0.3831
X0.5768Y0.4619
X0.5768Y0.3831
T4
X0.0953Y3.274
X0.0953Y3.174
X0.0953Y3.074
X0.0953Y2.974
X0.0953Y2.874
X0.0953Y2.774
X0.0953Y2.674
X0.0953Y2.574
X0.0953Y2.474
X0.0953Y2.374
X0.0953Y2.074
X0.0953Y1.974
X0.0953Y1.874
X0.0953Y1.774
X0.0953Y1.674
X0.0953Y1.574
X0.0953Y1.474
X0.0953Y1.374
X0.0953Y1.274
X0.0953Y1.174
X0.0972Y4.474
X0.0972Y4.374
X0.0972Y4.274
X0.0972Y4.174
X0.0972Y4.074
X0.0972Y3.974
X0.0972Y3.874
X0.0972Y3.774
X0.0972Y3.674
X0.0972Y3.574
X0.2008Y4.937
X0.3008Y4.937
X0.4008Y4.937
X1.5811Y0.4325
X1.6356Y0.3207
X1.6902Y0.4325
X1.7447Y0.3207
X1.7992Y0.4325
X1.8537Y0.3207
X1.9083Y0.4325
X1.9628Y0.3207
X2.0173Y0.4325
X2.4953Y4.474
X2.4953Y4.374
X2.4953Y4.274
X2.4953Y4.174
X2.4953Y4.074
X2.4953Y3.974
X2.4953Y3.874
X2.4953Y3.774
X2.4953Y3.674
X2.4953Y3.574
X2.4953Y3.274
X2.4953Y3.174
X2.4953Y3.074
X2.4953Y2.974
X2.4953Y2.874
X2.4953Y2.774
X2.4953Y2.674
X2.4953Y2.574
X2.4953Y2.474
X2.4953Y2.374
X2.4953Y2.074
X2.4953Y1.974
X2.4953Y1.874
X2.4953Y1.774
X2.4953Y1.674
X2.4953Y1.574
X2.4953Y1.474
X2.4953Y1.374
X2.4953Y1.274
X2.4953Y1.174
T5
X1.8769Y5.5512
X2.0737Y5.5512
T6
X0.2913Y0.2705
X0.7638Y0.2705
T7
X1.3302Y5.5059
X1.5153Y5.624
T8
X0.1732Y5.6299
X0.1732Y0.6693
X1.3071Y0.3766
X2.2913Y0.3766
X2.4016Y0.6693
X2.4135Y5.618
T9
X1.5153Y5.3878
T10
X1.3169Y4.7254
M30
